<svg xmlns="http://www.w3.org/2000/svg" width="1800" height="900"><path d="M0 0h900v600H0z"/><path fill="#cc092f" d="M0 0h900v300H0z"/><path fill="#ffcb00" fill-rule="evenodd" d="M391 206h37l11-35 11 35h37l-30 22 12 35-30-21-30 21 11-35z"/><path fill="#ffcb00" fill-rule="evenodd" d="m525 395-29-23c29-24 48-60 48-100 0-62-44-114-102-127l4-21 26 8 7-12 25 12-6 14c7 5 17 12 22 18l11-9 18 21-10 10c7 10 9 15 14 26l14-4 9 28-14 5c2 7 4 19 4 29v1l14 2c-1 9-1 19-3 28h-15c-2 9-4 20-8 28l13 7c-4 8-8 18-13 25l-14-6-17 22 9 11-7 7m-64-3 22 13-10 6 4 13c-8 3-17 7-27 9l-5-14c-9 2-17 3-27 3l-1 14c-9 0-19 0-28-2v-14c-9-1-17-3-25-6l-6 12c-8-3-17-6-25-11l5-14-17-11 13-18a129 129 0 0 0 127 20"/><path fill="#ffcb00" fill-rule="evenodd" d="M552 427 408 317l-1 2 144 110-9 11-140-90c-38-24-36-42-28-63l6-16c4 21 26 37 48 55l127 97zm36 32a2 2 0 0 1-2-2 2 2 0 0 1 2-2c2 0 3 1 3 2a2 2 0 0 1-3 2m-8-6a2 2 0 0 1-3-2 2 2 0 1 1 3 2m-9-7-2-2a2 2 0 0 1 4 0l-2 2m29 12-43-33-12 16 37 26c3 3 4 12 15 14 4 0 7-3 7-3 5-6 4-14-4-20"/><path id="path-b7431" d="m m0 79 m0 65 m0 65 m0 65 m0 65 m0 65 m0 65 m0 65 m0 65 m0 65 m0 65 m0 65 m0 65 m0 65 m0 65 m0 65 m0 65 m0 65 m0 65 m0 65 m0 81 m0 83 m0 78 m0 74 m0 75 m0 84 m0 49 m0 87 m0 99 m0 66 m0 107 m0 66 m0 69 m0 100 m0 108 m0 68 m0 117 m0 110 m0 88 m0 82 m0 86 m0 114 m0 120 m0 88 m0 98 m0 118 m0 120 m0 106 m0 85 m0 111 m0 107 m0 48 m0 113 m0 106 m0 108 m0 50 m0 100 m0 118 m0 70 m0 102 m0 47 m0 106 m0 103 m0 111 m0 97 m0 72 m0 103 m0 122 m0 117 m0 90 m0 122 m0 80 m0 104 m0 65 m0 120 m0 55 m0 74 m0 50 m0 77 m0 97 m0 48 m0 65 m0 68 m0 101 m0 81 m0 81 m0 61 m0 61"/>
</svg>