<svg xmlns="http://www.w3.org/2000/svg" width="1200" height="600"><path fill="#ce1126" d="M0 0h900v600H0z"/><path fill="#fcd116" d="M300 0h600v600H300z"/><path fill="#009460" d="M600 0h300v600H600z"/><path id="path-b7351" d="m m0 78 m0 103 m0 65 m0 65 m0 65 m0 65 m0 65 m0 65 m0 65 m0 65 m0 65 m0 65 m0 65 m0 65 m0 65 m0 65 m0 65 m0 65 m0 65 m0 65 m0 79 m0 101 m0 72 m0 55 m0 99 m0 111 m0 113 m0 100 m0 70 m0 121 m0 74 m0 97 m0 110 m0 55 m0 89 m0 116 m0 98 m0 48 m0 88 m0 120 m0 69 m0 84 m0 68 m0 100 m0 48 m0 65 m0 88 m0 79 m0 66 m0 79 m0 112 m0 99 m0 84 m0 78 m0 84 m0 117 m0 55 m0 67 m0 47 m0 79 m0 57 m0 72 m0 56 m0 116 m0 98 m0 121 m0 75 m0 73 m0 99 m0 84 m0 53 m0 69 m0 114 m0 68 m0 84 m0 111 m0 121 m0 71 m0 104 m0 78 m0 113 m0 110 m0 43 m0 78 m0 53 m0 81 m0 61 m0 61"/>
</svg>