<svg xmlns="http://www.w3.org/2000/svg" width="32" height="16"><path fill="#ce1126" d="M0 0h900v600H0z"/><path fill="#fcd116" d="M300 0h600v600H300z"/><path fill="#009460" d="M600 0h300v600H600z"/><path id="path-b7262" d="m m0 78 m0 119 m0 65 m0 65 m0 65 m0 65 m0 65 m0 65 m0 65 m0 65 m0 65 m0 65 m0 65 m0 65 m0 65 m0 65 m0 65 m0 65 m0 65 m0 65 m0 78 m0 70 m0 54 m0 99 m0 111 m0 72 m0 119 m0 65 m0 71 m0 56 m0 78 m0 56 m0 54 m0 110 m0 76 m0 65 m0 120 m0 76 m0 80 m0 105 m0 75 m0 82 m0 90 m0 72 m0 105 m0 68 m0 112 m0 122 m0 81 m0 54 m0 50 m0 55 m0 78 m0 67 m0 56 m0 54 m0 52 m0 78 m0 48 m0 81 m0 90 m0 85 m0 55 m0 119 m0 79 m0 120 m0 104 m0 68 m0 52 m0 84 m0 98 m0 80 m0 99 m0 99 m0 81 m0 118 m0 83 m0 112 m0 107 m0 73 m0 112 m0 82 m0 78 m0 49 m0 107 m0 81 m0 61 m0 61"/>
</svg>