<svg xmlns="http://www.w3.org/2000/svg" width="300" height="150"><path fill="#ce1126" d="M0 0h900v600H0z"/><path fill="#fcd116" d="M300 0h600v600H300z"/><path fill="#009460" d="M600 0h300v600H600z"/><path id="path-b7541" d="m m0 81 m0 103 m0 65 m0 65 m0 65 m0 65 m0 65 m0 65 m0 65 m0 65 m0 65 m0 65 m0 65 m0 65 m0 65 m0 65 m0 65 m0 65 m0 65 m0 65 m0 81 m0 57 m0 76 m0 47 m0 85 m0 100 m0 49 m0 48 m0 48 m0 110 m0 56 m0 90 m0 103 m0 68 m0 120 m0 50 m0 106 m0 86 m0 107 m0 114 m0 122 m0 84 m0 120 m0 86 m0 89 m0 68 m0 75 m0 111 m0 77 m0 99 m0 98 m0 66 m0 81 m0 106 m0 75 m0 49 m0 121 m0 47 m0 66 m0 110 m0 105 m0 107 m0 80 m0 87 m0 80 m0 115 m0 103 m0 75 m0 109 m0 108 m0 103 m0 120 m0 102 m0 70 m0 87 m0 57 m0 120 m0 102 m0 121 m0 104 m0 56 m0 76 m0 49 m0 105 m0 108 m0 65 m0 61 m0 61"/>
</svg>