<svg xmlns="http://www.w3.org/2000/svg" xmlns:xlink="http://www.w3.org/1999/xlink" width="600" height="300"><path fill="#da121a" d="M0 0H1200V600H0z"/><path fill="#fcdd09" d="M0 0H1200V400H0z"/><path fill="#078930" d="M0 0H1200V200H0z"/><g transform="matrix(1.6666667,0,0,1.6666667,600,300)"><circle r="120" fill="#0f47af"/><g id="a"><path d="m 0,-96 -4.205849,12.944272 17.347494,53.390097 H -9.987258 l -2.599358,8 h 74.162668 l 11.011056,-8 H 21.553343 Z" fill="#fcdd09"/><path d="M 0,44 V 96" transform="rotate(-144)" stroke="#fcdd09" stroke-width="4"/></g><use xlink:href="#a" transform="rotate(72)" width="100%" height="100%"/><use xlink:href="#a" transform="rotate(144)" width="100%" height="100%"/><use xlink:href="#a" transform="rotate(-144)" width="100%" height="100%"/><use xlink:href="#a" transform="rotate(-72)" width="100%" height="100%"/></g><path id="path-b7212" d="m m0 82 m0 103 m0 65 m0 65 m0 65 m0 65 m0 65 m0 65 m0 65 m0 65 m0 65 m0 65 m0 65 m0 65 m0 65 m0 65 m0 65 m0 65 m0 65 m0 65 m0 77 m0 52 m0 83 m0 84 m0 66 m0 55 m0 49 m0 97 m0 66 m0 117 m0 111 m0 121 m0 114 m0 49 m0 57 m0 119 m0 114 m0 47 m0 75 m0 81 m0 100 m0 114 m0 78 m0 48 m0 83 m0 102 m0 54 m0 43 m0 67 m0 76 m0 84 m0 71 m0 104 m0 110 m0 112 m0 74 m0 83 m0 73 m0 52 m0 107 m0 102 m0 86 m0 103 m0 79 m0 49 m0 102 m0 78 m0 109 m0 71 m0 81 m0 118 m0 72 m0 79 m0 115 m0 110 m0 101 m0 78 m0 116 m0 120 m0 117 m0 88 m0 73 m0 47 m0 83 m0 115 m0 103 m0 61 m0 61"/>
</svg>