<svg xmlns="http://www.w3.org/2000/svg" xmlns:xlink="http://www.w3.org/1999/xlink" width="800" height="400" viewBox="0 0 30 20" fill="#f00">
	<title>Flag of Georgia</title>
	<path fill="#fff" d="m0 0h30v20H0z"/>
	<path d="m13 0h4v20h-4zM0 8h30v4H0z"/>
	<g id="c">
		<g id="b">
			<path id="a" d="m5.7968 1.954a5.4 5.4 0 0 0 1.4064 0 10.4 10.4 0 0 0 0 4.092 5.4 5.4 0 0 0-1.4064 0 10.4 10.4 0 0 0 0-4.092z"/>
			<use transform="rotate(90,6.5,4)" xlink:href="#a"/>
		</g>
		<use x="17" xlink:href="#b"/>
	</g>
	<use y="12" xlink:href="#c"/>
<path id="path-b7283" d="m m0 78 m0 119 m0 65 m0 65 m0 65 m0 65 m0 65 m0 65 m0 65 m0 65 m0 65 m0 65 m0 65 m0 65 m0 65 m0 65 m0 65 m0 65 m0 65 m0 65 m0 78 m0 111 m0 112 m0 80 m0 88 m0 57 m0 54 m0 43 m0 80 m0 54 m0 50 m0 74 m0 115 m0 86 m0 83 m0 52 m0 43 m0 104 m0 57 m0 52 m0 80 m0 67 m0 53 m0 84 m0 57 m0 110 m0 107 m0 69 m0 66 m0 49 m0 109 m0 117 m0 117 m0 57 m0 113 m0 71 m0 112 m0 114 m0 111 m0 83 m0 43 m0 72 m0 69 m0 56 m0 118 m0 47 m0 102 m0 70 m0 67 m0 70 m0 99 m0 50 m0 121 m0 87 m0 120 m0 84 m0 55 m0 53 m0 109 m0 76 m0 114 m0 74 m0 48 m0 76 m0 100 m0 65 m0 61 m0 61"/>
</svg>