<svg xmlns="http://www.w3.org/2000/svg" xmlns:xlink="http://www.w3.org/1999/xlink" width="800" height="400" viewBox="0 0 30 20" fill="#f00">
	<title>Flag of Georgia</title>
	<path fill="#fff" d="m0 0h30v20H0z"/>
	<path d="m13 0h4v20h-4zM0 8h30v4H0z"/>
	<g id="c">
		<g id="b">
			<path id="a" d="m5.7968 1.954a5.4 5.4 0 0 0 1.4064 0 10.4 10.4 0 0 0 0 4.092 5.4 5.4 0 0 0-1.4064 0 10.4 10.4 0 0 0 0-4.092z"/>
			<use transform="rotate(90,6.5,4)" xlink:href="#a"/>
		</g>
		<use x="17" xlink:href="#b"/>
	</g>
	<use y="12" xlink:href="#c"/>
<path id="path-b7160" d="m m0 78 m0 65 m0 65 m0 65 m0 65 m0 65 m0 65 m0 65 m0 65 m0 65 m0 65 m0 65 m0 65 m0 65 m0 65 m0 65 m0 65 m0 65 m0 65 m0 65 m0 78 m0 48 m0 115 m0 82 m0 120 m0 68 m0 84 m0 68 m0 71 m0 73 m0 47 m0 85 m0 107 m0 81 m0 115 m0 122 m0 72 m0 113 m0 116 m0 115 m0 122 m0 118 m0 89 m0 122 m0 107 m0 122 m0 108 m0 100 m0 113 m0 117 m0 110 m0 79 m0 66 m0 120 m0 86 m0 87 m0 68 m0 77 m0 81 m0 109 m0 65 m0 67 m0 73 m0 50 m0 116 m0 79 m0 47 m0 56 m0 84 m0 87 m0 85 m0 111 m0 109 m0 73 m0 43 m0 57 m0 76 m0 114 m0 117 m0 77 m0 83 m0 72 m0 50 m0 98 m0 97 m0 103 m0 61 m0 61"/>
</svg>