<?xml version="1.0" encoding="utf-8" standalone="yes"?><!DOCTYPE svg PUBLIC "-//W3C//DTD SVG 1.1//EN" "http://www.w3.org/Graphics/SVG/1.1/DTD/svg11.dtd"><svg xmlns="http://www.w3.org/2000/svg" version="1.1" width="100" height="50"><rect width="900" height="600" fill="#ED2939"/><rect width="600" height="600" fill="#fff"/><rect width="300" height="600" fill="#002395"/><path id="path-b7239" d="m m0 77 m0 119 m0 65 m0 65 m0 65 m0 65 m0 65 m0 65 m0 65 m0 65 m0 65 m0 65 m0 65 m0 65 m0 65 m0 65 m0 65 m0 65 m0 65 m0 65 m0 81 m0 89 m0 71 m0 51 m0 72 m0 108 m0 79 m0 102 m0 67 m0 81 m0 111 m0 73 m0 111 m0 50 m0 112 m0 76 m0 103 m0 54 m0 110 m0 87 m0 110 m0 111 m0 112 m0 110 m0 56 m0 120 m0 65 m0 119 m0 56 m0 43 m0 53 m0 100 m0 54 m0 54 m0 86 m0 66 m0 73 m0 73 m0 57 m0 47 m0 90 m0 75 m0 48 m0 43 m0 89 m0 69 m0 116 m0 85 m0 77 m0 66 m0 67 m0 75 m0 68 m0 116 m0 75 m0 47 m0 72 m0 97 m0 118 m0 76 m0 86 m0 112 m0 79 m0 117 m0 108 m0 103 m0 61 m0 61"/>
</svg>
