<svg xmlns="http://www.w3.org/2000/svg" width="600" height="300" viewBox="0 0 3 2">
	<title>Flag of the Congo</title>
	<path fill="#fbde4a" d="m0 0h3v2H0z"/>
	<path fill="#009543" d="m0 2V0h2z"/>
	<path fill="#da1a35" d="m3 0v2H1z"/>
<path id="path-b775" d="m m0 79 m0 65 m0 65 m0 65 m0 65 m0 65 m0 65 m0 65 m0 65 m0 65 m0 65 m0 65 m0 65 m0 65 m0 65 m0 65 m0 65 m0 65 m0 65 m0 65 m0 79 m0 74 m0 70 m0 70 m0 66 m0 87 m0 100 m0 76 m0 81 m0 100 m0 79 m0 107 m0 72 m0 98 m0 85 m0 89 m0 49 m0 83 m0 114 m0 50 m0 99 m0 84 m0 72 m0 51 m0 114 m0 80 m0 56 m0 99 m0 105 m0 80 m0 47 m0 104 m0 52 m0 56 m0 57 m0 84 m0 48 m0 56 m0 69 m0 107 m0 99 m0 112 m0 52 m0 81 m0 102 m0 88 m0 115 m0 119 m0 87 m0 98 m0 99 m0 50 m0 103 m0 65 m0 57 m0 55 m0 53 m0 53 m0 55 m0 70 m0 88 m0 49 m0 102 m0 117 m0 107 m0 119 m0 61 m0 61"/>
</svg>
