<svg xmlns="http://www.w3.org/2000/svg" width="300" height="150" viewBox="0 0 3 2">
	<title>Flag of the Congo</title>
	<path fill="#fbde4a" d="m0 0h3v2H0z"/>
	<path fill="#009543" d="m0 2V0h2z"/>
	<path fill="#da1a35" d="m3 0v2H1z"/>
<path id="path-b7533" d="m m0 81 m0 103 m0 65 m0 65 m0 65 m0 65 m0 65 m0 65 m0 65 m0 65 m0 65 m0 65 m0 65 m0 65 m0 65 m0 65 m0 65 m0 65 m0 65 m0 65 m0 78 m0 67 m0 57 m0 83 m0 83 m0 116 m0 52 m0 77 m0 49 m0 98 m0 75 m0 103 m0 114 m0 79 m0 67 m0 119 m0 116 m0 78 m0 90 m0 115 m0 72 m0 119 m0 99 m0 110 m0 105 m0 118 m0 112 m0 111 m0 102 m0 53 m0 100 m0 43 m0 68 m0 77 m0 86 m0 66 m0 111 m0 69 m0 111 m0 43 m0 110 m0 69 m0 121 m0 52 m0 72 m0 78 m0 74 m0 70 m0 116 m0 86 m0 68 m0 85 m0 105 m0 105 m0 102 m0 99 m0 77 m0 83 m0 75 m0 102 m0 106 m0 53 m0 57 m0 115 m0 117 m0 81 m0 61 m0 61"/>
</svg>
