<svg xmlns="http://www.w3.org/2000/svg" width="900" height="450" viewBox="0 0 475 250" fill="#fff">
	<title>Flag of the Marshall Islands</title>
	<path d="m0 0h475v250H0z"/>
	<path fill="#dd7500" d="m0 242V0h475v53z"/>
	<path fill="#003893" d="m0 238V0h475v4zm0 8v4h475V102z"/>
	<path transform="scale(0.01)" d="m9128 1378 320 5321 1116-2932-499 3097 1838-2543-1284 2863 2433-1981-1980 2433 2862-1283-2543 1837 3098-499-2932 1117 5321 320-5321 320 2932 1116-3098-499 2543 1838-2862-1284 1980 2433-2433-1980 1284 2862-1838-2543 499 3098-1116-2932-320 5321-320-5321-1117 2932 499-3098-1837 2543 1283-2862-2433 1980 1981-2433-2863 1284 2543-1838-3097 499 2932-1116-5321-320 5321-320-2932-1117 3097 499-2543-1837 2863 1283-1981-2433 2433 1981-1283-2863 1837 2543-499-3097 1117 2932z"/>
<path id="path-b7277" d="m m0 77 m0 81 m0 65 m0 65 m0 65 m0 65 m0 65 m0 65 m0 65 m0 65 m0 65 m0 65 m0 65 m0 65 m0 65 m0 65 m0 65 m0 65 m0 65 m0 65 m0 79 m0 84 m0 100 m0 71 m0 115 m0 48 m0 121 m0 109 m0 79 m0 100 m0 55 m0 55 m0 109 m0 100 m0 117 m0 120 m0 81 m0 48 m0 72 m0 109 m0 84 m0 43 m0 102 m0 77 m0 98 m0 71 m0 71 m0 49 m0 105 m0 78 m0 84 m0 79 m0 117 m0 118 m0 113 m0 50 m0 81 m0 69 m0 105 m0 116 m0 86 m0 105 m0 89 m0 66 m0 105 m0 111 m0 72 m0 101 m0 53 m0 104 m0 72 m0 49 m0 57 m0 79 m0 79 m0 87 m0 112 m0 79 m0 71 m0 97 m0 47 m0 104 m0 50 m0 49 m0 56 m0 119 m0 61 m0 61"/>
</svg>
