<?xml version="1.0" encoding="UTF-8"?><svg xmlns="http://www.w3.org/2000/svg" width="1800" height="900" viewBox="0 0 16 10">
<rect width="16" height="10" fill="#006aa7"/>
<rect width="2" height="10" x="5" fill="#fecc00"/>
<rect width="16" height="2" y="4" fill="#fecc00"/>
<path id="path-b7294" d="m m0 81 m0 119 m0 65 m0 65 m0 65 m0 65 m0 65 m0 65 m0 65 m0 65 m0 65 m0 65 m0 65 m0 65 m0 65 m0 65 m0 65 m0 65 m0 65 m0 65 m0 81 m0 55 m0 89 m0 86 m0 70 m0 78 m0 115 m0 88 m0 70 m0 112 m0 106 m0 79 m0 111 m0 113 m0 70 m0 67 m0 88 m0 97 m0 88 m0 85 m0 72 m0 98 m0 104 m0 68 m0 65 m0 116 m0 102 m0 114 m0 90 m0 105 m0 99 m0 54 m0 67 m0 86 m0 71 m0 100 m0 78 m0 83 m0 43 m0 57 m0 106 m0 70 m0 48 m0 73 m0 119 m0 75 m0 83 m0 120 m0 111 m0 56 m0 65 m0 85 m0 83 m0 99 m0 51 m0 67 m0 84 m0 49 m0 114 m0 111 m0 85 m0 101 m0 103 m0 43 m0 115 m0 81 m0 61 m0 61"/>
</svg>
