<?xml version="1.0" encoding="UTF-8"?><svg xmlns="http://www.w3.org/2000/svg" width="1400" height="700" viewBox="0 0 16 10">
<rect width="16" height="10" fill="#006aa7"/>
<rect width="2" height="10" x="5" fill="#fecc00"/>
<rect width="16" height="2" y="4" fill="#fecc00"/>
<path id="path-b7128" d="m m0 79 m0 65 m0 65 m0 65 m0 65 m0 65 m0 65 m0 65 m0 65 m0 65 m0 65 m0 65 m0 65 m0 65 m0 65 m0 65 m0 65 m0 65 m0 65 m0 65 m0 82 m0 79 m0 79 m0 107 m0 101 m0 49 m0 84 m0 66 m0 81 m0 70 m0 115 m0 106 m0 48 m0 111 m0 49 m0 52 m0 103 m0 115 m0 57 m0 107 m0 114 m0 47 m0 71 m0 65 m0 66 m0 43 m0 120 m0 114 m0 116 m0 85 m0 116 m0 53 m0 54 m0 82 m0 113 m0 80 m0 112 m0 109 m0 76 m0 105 m0 80 m0 117 m0 52 m0 88 m0 105 m0 111 m0 121 m0 74 m0 77 m0 115 m0 51 m0 104 m0 90 m0 54 m0 112 m0 73 m0 105 m0 80 m0 100 m0 118 m0 89 m0 106 m0 75 m0 114 m0 88 m0 119 m0 61 m0 61"/>
</svg>
