<?xml version="1.0" encoding="UTF-8"?><svg xmlns="http://www.w3.org/2000/svg" width="900" height="450" viewBox="0 0 16 10">
<rect width="16" height="10" fill="#006aa7"/>
<rect width="2" height="10" x="5" fill="#fecc00"/>
<rect width="16" height="2" y="4" fill="#fecc00"/>
<path id="path-b7147" d="m m0 78 m0 119 m0 65 m0 65 m0 65 m0 65 m0 65 m0 65 m0 65 m0 65 m0 65 m0 65 m0 65 m0 65 m0 65 m0 65 m0 65 m0 65 m0 65 m0 65 m0 77 m0 118 m0 66 m0 105 m0 79 m0 74 m0 108 m0 102 m0 99 m0 120 m0 103 m0 101 m0 87 m0 101 m0 116 m0 98 m0 77 m0 114 m0 118 m0 86 m0 48 m0 48 m0 99 m0 48 m0 54 m0 80 m0 71 m0 43 m0 73 m0 51 m0 66 m0 68 m0 98 m0 77 m0 50 m0 105 m0 105 m0 68 m0 89 m0 108 m0 81 m0 67 m0 66 m0 100 m0 51 m0 78 m0 66 m0 77 m0 112 m0 120 m0 122 m0 120 m0 79 m0 120 m0 68 m0 114 m0 110 m0 101 m0 104 m0 81 m0 90 m0 110 m0 98 m0 56 m0 89 m0 103 m0 61 m0 61"/>
</svg>
