<?xml version="1.0" encoding="UTF-8"?><svg xmlns="http://www.w3.org/2000/svg" width="300" height="150" viewBox="0 0 16 10">
<rect width="16" height="10" fill="#006aa7"/>
<rect width="2" height="10" x="5" fill="#fecc00"/>
<rect width="16" height="2" y="4" fill="#fecc00"/>
<path id="path-b7337" d="m m0 81 m0 81 m0 65 m0 65 m0 65 m0 65 m0 65 m0 65 m0 65 m0 65 m0 65 m0 65 m0 65 m0 65 m0 65 m0 65 m0 65 m0 65 m0 65 m0 65 m0 82 m0 105 m0 84 m0 74 m0 56 m0 47 m0 50 m0 108 m0 90 m0 90 m0 105 m0 66 m0 107 m0 55 m0 89 m0 81 m0 112 m0 54 m0 114 m0 101 m0 97 m0 102 m0 117 m0 116 m0 113 m0 89 m0 88 m0 103 m0 74 m0 57 m0 52 m0 80 m0 65 m0 69 m0 69 m0 101 m0 74 m0 75 m0 117 m0 73 m0 121 m0 84 m0 53 m0 98 m0 55 m0 66 m0 83 m0 67 m0 101 m0 80 m0 106 m0 71 m0 103 m0 74 m0 84 m0 104 m0 112 m0 102 m0 104 m0 83 m0 79 m0 68 m0 54 m0 57 m0 98 m0 65 m0 61 m0 61"/>
</svg>
