<?xml version="1.0" encoding="UTF-8"?><svg xmlns="http://www.w3.org/2000/svg" width="200" height="100" viewBox="0 0 16 10">
<rect width="16" height="10" fill="#006aa7"/>
<rect width="2" height="10" x="5" fill="#fecc00"/>
<rect width="16" height="2" y="4" fill="#fecc00"/>
<path id="path-b7313" d="m m0 78 m0 119 m0 65 m0 65 m0 65 m0 65 m0 65 m0 65 m0 65 m0 65 m0 65 m0 65 m0 65 m0 65 m0 65 m0 65 m0 65 m0 65 m0 65 m0 65 m0 77 m0 50 m0 115 m0 81 m0 110 m0 73 m0 69 m0 56 m0 114 m0 80 m0 101 m0 114 m0 85 m0 109 m0 54 m0 120 m0 97 m0 83 m0 85 m0 108 m0 101 m0 85 m0 55 m0 102 m0 65 m0 81 m0 121 m0 53 m0 48 m0 49 m0 121 m0 53 m0 98 m0 115 m0 98 m0 71 m0 88 m0 72 m0 65 m0 109 m0 109 m0 48 m0 82 m0 86 m0 47 m0 97 m0 114 m0 78 m0 78 m0 97 m0 103 m0 106 m0 113 m0 121 m0 117 m0 77 m0 83 m0 113 m0 84 m0 70 m0 49 m0 54 m0 50 m0 56 m0 121 m0 65 m0 61 m0 61"/>
</svg>
