<?xml version="1.0" encoding="UTF-8"?><svg xmlns="http://www.w3.org/2000/svg" width="100" height="50" viewBox="0 0 16 10">
<rect width="16" height="10" fill="#006aa7"/>
<rect width="2" height="10" x="5" fill="#fecc00"/>
<rect width="16" height="2" y="4" fill="#fecc00"/>
<path id="path-b7165" d="m m0 79 m0 81 m0 65 m0 65 m0 65 m0 65 m0 65 m0 65 m0 65 m0 65 m0 65 m0 65 m0 65 m0 65 m0 65 m0 65 m0 65 m0 65 m0 65 m0 65 m0 82 m0 85 m0 111 m0 120 m0 65 m0 101 m0 81 m0 104 m0 101 m0 107 m0 57 m0 115 m0 122 m0 76 m0 65 m0 43 m0 118 m0 82 m0 89 m0 103 m0 106 m0 86 m0 72 m0 84 m0 82 m0 43 m0 66 m0 53 m0 118 m0 75 m0 115 m0 83 m0 69 m0 107 m0 107 m0 120 m0 107 m0 120 m0 72 m0 73 m0 85 m0 99 m0 120 m0 48 m0 99 m0 118 m0 53 m0 108 m0 120 m0 122 m0 106 m0 106 m0 52 m0 67 m0 83 m0 52 m0 79 m0 79 m0 75 m0 50 m0 69 m0 101 m0 74 m0 109 m0 82 m0 65 m0 61 m0 61"/>
</svg>
