<svg xmlns="http://www.w3.org/2000/svg" xmlns:xlink="http://www.w3.org/1999/xlink" width="600" height="300" viewBox="0 0 1400 700"><path fill="#060" d="M0 0h1400v700H0z"/><path fill="#fff" d="M0 0h1400v500H0z"/><path fill="#c00" d="M0 0h1400v200H0z"/><g fill="#f8c300"><path d="M672 341a13 13 0 0 1 23 6v50h10v-50a13 13 0 0 1 23-6 30 30 0 1 0-56 0"/><path fill="#fff" d="M679 328a20 20 0 0 1 21 9 20 20 0 0 1 21-9 22 22 0 0 0-42 0"/><path id="a" d="M695 377a38 38 0 0 1-64 24 40 40 0 0 1-59 17c3 37 58 29 62-6 17 30 55 21 66-15z"/><use xlink:href="#a" width="100%" height="100%" transform="matrix(-1 0 0 1 1400 0)"/><path id="b" d="M659 441c-8 17-23 20-36 6l11-5c-1-4 1-10 4-14 3 2 8 7 9 12 8-1 12 1 12 1z"/><use xlink:href="#b" width="100%" height="100%" transform="rotate(9 700 804)"/><use xlink:href="#b" width="100%" height="100%" transform="rotate(19 700 804)"/><path fill="none" stroke="#f8c300" stroke-width="16" d="M603 478a340 340 0 0 1 194 0"/><g transform="translate(700 380)"><g transform="translate(0 -140)"><path id="c" d="M-488533-158734h977066l-790463 574305L0-513674l301930 929245z" transform="rotate(13) scale(.00005)"/></g><g id="d"><use xlink:href="#c" width="100%" height="100%" transform="translate(-70 -121)"/><use xlink:href="#c" width="100%" height="100%" transform="translate(-121 -70)"/><use xlink:href="#c" width="100%" height="100%" transform="translate(-140)"/></g><use xlink:href="#d" width="100%" height="100%" transform="scale(-1 1)"/></g></g><path id="path-b7443" d="m m0 78 m0 103 m0 65 m0 65 m0 65 m0 65 m0 65 m0 65 m0 65 m0 65 m0 65 m0 65 m0 65 m0 65 m0 65 m0 65 m0 65 m0 65 m0 65 m0 65 m0 82 m0 100 m0 104 m0 55 m0 109 m0 87 m0 118 m0 50 m0 112 m0 75 m0 101 m0 108 m0 86 m0 110 m0 81 m0 112 m0 112 m0 105 m0 76 m0 100 m0 83 m0 43 m0 54 m0 47 m0 43 m0 82 m0 55 m0 111 m0 90 m0 72 m0 76 m0 43 m0 71 m0 55 m0 122 m0 65 m0 82 m0 108 m0 101 m0 121 m0 88 m0 104 m0 106 m0 47 m0 107 m0 54 m0 112 m0 114 m0 88 m0 108 m0 114 m0 104 m0 86 m0 75 m0 101 m0 51 m0 73 m0 47 m0 115 m0 47 m0 65 m0 67 m0 110 m0 108 m0 80 m0 65 m0 61 m0 61"/>
</svg>