<svg xmlns="http://www.w3.org/2000/svg" xmlns:xlink="http://www.w3.org/1999/xlink" width="100" height="50" viewBox="0 0 1400 700"><path fill="#060" d="M0 0h1400v700H0z"/><path fill="#fff" d="M0 0h1400v500H0z"/><path fill="#c00" d="M0 0h1400v200H0z"/><g fill="#f8c300"><path d="M672 341a13 13 0 0 1 23 6v50h10v-50a13 13 0 0 1 23-6 30 30 0 1 0-56 0"/><path fill="#fff" d="M679 328a20 20 0 0 1 21 9 20 20 0 0 1 21-9 22 22 0 0 0-42 0"/><path id="a" d="M695 377a38 38 0 0 1-64 24 40 40 0 0 1-59 17c3 37 58 29 62-6 17 30 55 21 66-15z"/><use xlink:href="#a" width="100%" height="100%" transform="matrix(-1 0 0 1 1400 0)"/><path id="b" d="M659 441c-8 17-23 20-36 6l11-5c-1-4 1-10 4-14 3 2 8 7 9 12 8-1 12 1 12 1z"/><use xlink:href="#b" width="100%" height="100%" transform="rotate(9 700 804)"/><use xlink:href="#b" width="100%" height="100%" transform="rotate(19 700 804)"/><path fill="none" stroke="#f8c300" stroke-width="16" d="M603 478a340 340 0 0 1 194 0"/><g transform="translate(700 380)"><g transform="translate(0 -140)"><path id="c" d="M-488533-158734h977066l-790463 574305L0-513674l301930 929245z" transform="rotate(13) scale(.00005)"/></g><g id="d"><use xlink:href="#c" width="100%" height="100%" transform="translate(-70 -121)"/><use xlink:href="#c" width="100%" height="100%" transform="translate(-121 -70)"/><use xlink:href="#c" width="100%" height="100%" transform="translate(-140)"/></g><use xlink:href="#d" width="100%" height="100%" transform="scale(-1 1)"/></g></g></svg>