<svg xmlns="http://www.w3.org/2000/svg" width="1200" height="600"><path fill="#d21034" d="M0 0h1000v600H0z"/><path fill="#00209f" d="M0 0h1000v300H0z"/><path fill="#fff" d="M405 222h190v156H405Z"/><path fill="#016a16" d="M500 332c-4 1-48 5-60 14-13 10-35 19-35 19v12h190v-12s-22-9-35-19c-12-9-56-13-60-14z"/><g fill="red"><path fill="#fff" d="M468 360c-1-2-5-2-8-1l-13 1c-7 0-11 2-12 2l-15 7h-9s5 4 12 1l-9 3s5 1 10-1h1l8-4c13-4 18-1 27-4"/><path fill="#fff" d="M468 359c-1 2-4 1-7 2l7 2v-4z"/><path fill="none" d="m432 368-8 4m8-5-8 4m7-4-7 3m7-4-7 3m6-4-6 3m13-2s6-2 11-1m-10 0 11-1m-10 0 10-1m-10 0 11-1m-10 0 10-1m6 0 5-1h6m-12 2 6-1m-6 2 6-1m-7 2 7-1m-7 1h6"/></g><g stroke="#000"><path fill="#f1b517" d="m1763 82 29 60 6-3 51 96 1-16-48-85 2-2-3-4-2 1-4 1z" transform="matrix(.2285 0 0 .22244 74 265)"/><path fill="#fff" d="m1763 82 29 60 6-3-3-9zm58 86-5 3 7 13 5-2h1z" transform="matrix(.2285 0 0 .22244 74 265)"/><path fill="none" d="m1801 128-2 1 3 5 2-2z" transform="matrix(.2285 0 0 .22244 74 265)"/><path fill="none" d="m1763 82 29 60 6-3 51 96 1-16-48-85 2-2-3-4-2 1-4 1z" transform="matrix(.2285 0 0 .22244 74 265)"/><path fill="#f1b517" d="m1763 82 29 60 6-3 51 96 1-16-48-85 2-2-3-4-2 1-4 1z" transform="matrix(.22725 .02325 -.02388 .22122 86 231)"/><path fill="#fff" d="m1763 82 29 60 6-3-3-9z" transform="matrix(.22725 .02325 -.02388 .22122 86 231)"/><path fill="none" d="m1801 128-2 1 3 5 2-2z" transform="matrix(.22725 .02325 -.02388 .22122 86 231)"/><path fill="none" d="m1763 82 29 60 6-3 51 96 1-16-48-85 2-2-3-4-2 1-4 1z" transform="matrix(.22725 .02325 -.02388 .22122 86 231)"/><path fill="#fff" stroke="none" d="m482 278 5 14 1-1v-2z"/><path fill="none" stroke="none" d="M489 289v1h1z"/><path fill="#fff" d="M1825 137c-2 0-4 2-5 3l5 13 6-2z" transform="matrix(.2285 0 0 .22244 74 265)"/><path fill="none" stroke="none" d="m482 278 5 14 1-1 10 23v-4l-9-20h1l-1-1h-1z"/><path fill="#f1b517" d="m1763 82 29 60 6-3 51 96 1-16-48-85 2-2-3-4-2 1-4 1z" transform="matrix(.22512 .03815 -.03919 .21915 93 191)"/><path fill="#fff" d="m1763 82 29 60 6-3-3-9z" transform="matrix(.22512 .03815 -.03919 .21915 93 191)"/><path fill="none" d="m1801 128-2 1 3 5 2-2z" transform="matrix(.22512 .03815 -.03919 .21915 93 191)"/><path fill="none" d="m1763 82 29 60 6-3 51 96 1-16-48-85 2-2-3-4-2 1-4 1z" transform="matrix(.22512 .03815 -.03919 .21915 93 191)"/><path fill="#fff" stroke="none" d="m487 276 4 14h2l-1-2z"/><path fill="none" stroke="none" d="M494 288h-1l1 1z"/><path fill="#fff" d="M1825 137c-2 0-4 2-5 3l5 13 6-2z" transform="matrix(.22791 .0161 -.01655 .22186 82 234)"/><path fill="none" stroke="none" d="m487 276 4 14h2l8 23v-4l-7-20v-1h-1s0-1 0 0z"/></g><g transform="matrix(-.86366 0 0 .84072 926 265)"><path fill="#d20014" d="m523 70-2 16-20-2z"/><path fill="#0a328c" d="M561 52s-1 26-9 38l-31-4 1-16 39-27zm-29-38h-4l2 1v1"/><path fill="#d20014" d="m535 12-6-3-2 1v3l2 1 4-1"/><path fill="#0a328c" d="m529 9-2 1v2l2-1 4 2 2-1-6-3z"/><path fill="#d20014" d="m496 74 23-21c6 2 5 6 2 12v5l-20 14-5-2v-5z"/><path fill="#d20014" d="m496 60 15-18 4 8-1 8-18 16z"/><path fill="#0a328c" d="M511 42s3 7 3 15l17-16 9-8-1-5-1-3h-1v-1l-1-2-1-2-1-3v-5 1zm53 1 2 6v7l-6 1 1-3V44z"/><path fill="#d20014" d="M562 44h-1v10l-1 3h3l1-8-2-5z"/><path fill="#f1b517" d="M585 115c0-2 2-2 2-2l-1-1v-9l2 2c0-5-8-7-8-7 3 7 2 8 2 8l2-2v5s0 2-2 1l-8-4-1 2 10 4v3z"/><path fill="none" d="M584 109v-5l-2 2s1-1-2-8c0 0 8 2 8 7l-2-2v7"/><path fill="none" d="M585 115c0-2 2-2 2-2l-1-1v-9l2 2c0-5-8-7-8-7 3 7 2 8 2 8l2-2v5s0 2-2 1l-8-4-1 2 10 4v3"/><path fill="#f1b517" d="m571 104-1 1h-1l1 1 1 1h1-1l-1-1v-1h1l2 1-1-1-1-1z" color="#000" font-family="sans-serif" font-weight="400" overflow="visible" style="line-height:normal;font-variant-ligatures:normal;font-variant-position:normal;font-variant-caps:normal;font-variant-numeric:normal;font-variant-alternates:normal;font-feature-settings:normal;text-indent:0;text-align:start;text-decoration-line:none;text-decoration-style:solid;text-decoration-color:#000;text-transform:none;text-orientation:mixed;white-space:normal;shape-padding:0;isolation:auto;mix-blend-mode:normal;solid-color:#000;solid-opacity:1"/><path fill="#f1b517" d="m571 109 3-4-2 4z"/><path fill="#f1b517" d="M572 109s0-3 2-4l-2 4z"/><circle cx="551" cy="100" r="2" fill="#f1b517"/><path fill="#d20014" d="M582 75s4 1 4 3-1 4 1 4l4 1 1 2s-3-2-5-1c-1 1-3 0-3-1l-2-3-4-1z"/><path fill="#0a328c" d="m553 48-2-24v-2l-32 32s2 3 1 16l3-2z"/><path fill="none" d="m553 48-2-24v-2"/><g fill="#f1b517"><path d="m544-1-4 10h-3l-1 1m8-11-9 7s2 1 1 2l-1 2h1"/><path d="m533 7 6 5-2 2-6-5z"/><path d="m533 8 5 4-1 1-5-4z"/></g><g fill="#f1b517"><path d="m563 11-6 10s-1-2-2-1l-1 2m9-11-9 6v2l-1 2 1 1"/><path d="m551 18 5 5-2 2-5-5z"/><path d="m551 19 5 4-2 2-4-5z"/></g><g fill="#f1b517"><path d="m576 33-8 8s0-2-2-1l-1 1m11-8-10 4s1 1-1 2l-1 1 1 1"/><path d="m563 37 4 6-2 2-4-6z"/><path d="m563 38 3 5-1 1-4-5z"/></g><path fill="#f1b517" d="m534 11-38 49 39-48zm16 12-54 51v1l55-51zm9 21-58 39v1l59-40z" color="#000" font-family="sans-serif" font-weight="400" overflow="visible" style="line-height:normal;font-variant-ligatures:normal;font-variant-position:normal;font-variant-caps:normal;font-variant-numeric:normal;font-variant-alternates:normal;font-feature-settings:normal;text-indent:0;text-align:start;text-decoration-line:none;text-decoration-style:solid;text-decoration-color:#000;text-transform:none;text-orientation:mixed;white-space:normal;shape-padding:0;isolation:auto;mix-blend-mode:normal;solid-color:#000;solid-opacity:1"/><path fill="#0a328c" d="M553 24h-7 3l-1 2s-3-1-4-4c0-3 2-3 2-3l7 5z"/><path fill="#d20014" d="m545 21-1 1 1 2v-1 1h1l1-1h3l1 1s-5-4-6-3z"/><path fill="none" d="M551 23s-6-2-6 0"/><path fill="none" d="M553 24h-7 3l-1 2s-3-1-4-4c0-3 2-3 2-3l7 5z"/><path fill="#0a328c" d="M552 24v2c2 4 4 5 3 10h2v-6l-2-2-1-2-1-2z"/><path fill="#d20014" d="M551 23v5l1 2v6h3c1-5-1-6-3-10v-2z"/><path fill="none" d="m553 24 1 2 1 2 2 2v6m0 0h-5a32 32 0 0 0-1-8v-5l2 1"/><path fill="none" d="M554 36s1-3-1-6c-2-2-2-7-1-6"/><path fill="#f1b517" d="m548 80-4 8-16 1h-2s-2 6-5 7l-21 6-1-4 12-4 5-2 9-10z"/><g stroke-width="0"><path fill="#f1b517" d="m541 62-24 40 24-40z" color="#000" font-family="sans-serif" font-weight="400" overflow="visible" style="line-height:normal;font-variant-ligatures:normal;font-variant-position:normal;font-variant-caps:normal;font-variant-numeric:normal;font-variant-alternates:normal;font-feature-settings:normal;text-indent:0;text-align:start;text-decoration-line:none;text-decoration-style:solid;text-decoration-color:#000;text-transform:none;text-orientation:mixed;white-space:normal;shape-padding:0;isolation:auto;mix-blend-mode:normal;solid-color:#000;solid-opacity:1"/><path fill="#fff" d="M540 63h2l4-6v-2c-1-1-2 0-3 2s-4 5-3 6z"/></g><path fill="#f1b517" d="m562 69 3 4-1 6-1-1-49 7-1-9 48-6 1-1z"/><path fill="#f4cf0e" d="M515 76h1m0-1 1 1m0-1 1 1m1-1v1m1-1v1m1-1v1m1-1v1m3-2v1m1-1v1m1-1v1m1-1v1m1-1v1m1-1v1m1-1v1m2-1h1m0-1 1 1m0-1 1 1m0-1 1 1m0-1 1 1m0-1 1 1m0-1 1 1m0-1h1m2-1v1m1-1v1m1-1v1m1-1v1m1-1v1m1-1v1m3-2v1m1-1v1m1-1v1m1-1v1m1-1 1 1m0-1 1 1m0-1h1m0 0h1m0-1 1 1m0-1 1 1m0-1 1 1"/><path fill="none" d="m563 73-49 7m49-6-49 7m49-6-49 7m49-6-49 6m50-6-49 7m49-6-49 7m49-7-49 7m49-6-49 7"/><path fill="#f1b517" d="M555 70a2 5-4 0 1 2 5 2 5-4 0 1-2 5 2 5-4 0 0 1-5 2 5-4 0 0-2-5 2 5-4 0 1 1 0zm-35 5a2 5-4 0 1 2 5 2 5-4 0 1-1 5 2 5-4 0 0 0-5 2 5-4 0 0-1-5zm-7 4h-3l-1 1v2h4z"/><path d="M509 80h4v2h-4v-2z"/><path fill="#f1b517" d="M514 76a1 5-4 0 0 0 4 1 5-4 0 0 1 5 1 5-4 0 1-1 0 1 5-4 0 1-1-4 1 5-4 0 1 1-5z"/><g fill="#f1b517" transform="matrix(-1 0 0 1 985 1)"><path d="m444 75 1 1v8l-6-5v-2l-3 2v1h2l6 6h-9l-1-1v3l1-1h9l-6 6h-2l3 3v-2l6-6v9l-1 1h3l-1-1v-9l6 6v2l3-3h-2l-6-6h9l1 1v-3l-1 1h-9l6-6h2v-1l-3-2v2l-6 6v-9l1-1z"/><circle cx="445" cy="86" r="2"/><path d="M445 71a15 15 0 0 0-15 15 15 15 0 0 0 15 15 15 15 0 0 0 16-15 15 15 0 0 0-16-15zm0 4a11 11 0 0 1 12 11 11 11 0 0 1-12 12 11 11 0 0 1-11-12 11 11 0 0 1 11-11z"/></g><circle cx="557" cy="100" r="2" fill="#f1b517"/><path fill="#fff" d="M498 69s6 2 7-2c0 0 3 4-2 7 0 0 3-3-5-4l-1-1h1z"/><path d="M497 70h9l-3 4s3-3-5-4h-1z"/><path fill="#fff" d="M484 69h-1l2 13h1z" color="#000" font-family="sans-serif" font-weight="400" overflow="visible" style="line-height:normal;font-variant-ligatures:normal;font-variant-position:normal;font-variant-caps:normal;font-variant-numeric:normal;font-variant-alternates:normal;font-feature-settings:normal;text-indent:0;text-align:start;text-decoration-line:none;text-decoration-style:solid;text-decoration-color:#000;text-transform:none;text-orientation:mixed;white-space:normal;shape-padding:0;isolation:auto;mix-blend-mode:normal;solid-color:#000;solid-opacity:1" transform="matrix(-1 0 0 1 984 0)"/><path fill="#fff" d="M484 69h-1v2h1z" color="#000" font-family="sans-serif" font-weight="400" overflow="visible" style="line-height:normal;font-variant-ligatures:normal;font-variant-position:normal;font-variant-caps:normal;font-variant-numeric:normal;font-variant-alternates:normal;font-feature-settings:normal;text-indent:0;text-align:start;text-decoration-line:none;text-decoration-style:solid;text-decoration-color:#000;text-transform:none;text-orientation:mixed;white-space:normal;shape-padding:0;isolation:auto;mix-blend-mode:normal;solid-color:#000;solid-opacity:1" transform="matrix(-1 0 0 1 984 0)"/><g stroke-width="0" transform="matrix(-1 0 0 1 985 0)"><ellipse cx="472" cy="105" fill="#fff" rx="4" ry="2"/><g fill="#f1b517"><path d="M473 85h-1v3a333 333 0 0 1-1 15l-2 1c0 2 1 2 3 2l4-1-2-2v-3h1c2 0 2-3 2-3v-9l-2-2-1 1h-1v-2h1-1zm2 2v1l1 1v9h-2l-1-8v-2h1z"/><path fill="none" d="m475 104-2-9v-7l2-1 1 2v8l-1 1-1-1"/></g><path fill="none" d="m470 104 2-3V86"/></g><g fill="#fff"><path d="M525 97s-3 0-4 2c-2 2-1 4 0 4 2 1 4 2 5 1 2-1 3-3 1-4-1 0-4 0-3-1l1-1z"/><path d="M524 96h1v2z"/></g><path fill="#fff" d="m570 86-13 7 1 1 12-7zm1 1-8 13 1-1 7-12z" color="#000" font-family="sans-serif" font-weight="400" overflow="visible" style="line-height:normal;font-variant-ligatures:normal;font-variant-position:normal;font-variant-caps:normal;font-variant-numeric:normal;font-variant-alternates:normal;font-feature-settings:normal;text-indent:0;text-align:start;text-decoration-line:none;text-decoration-style:solid;text-decoration-color:#000;text-transform:none;text-orientation:mixed;white-space:normal;shape-padding:0;isolation:auto;mix-blend-mode:normal;solid-color:#000;solid-opacity:1"/><path d="M584 73h-1l-13 13 1 1 13-13v-1z" color="#000" font-family="sans-serif" font-weight="400" overflow="visible" style="line-height:normal;font-variant-ligatures:normal;font-variant-position:normal;font-variant-caps:normal;font-variant-numeric:normal;font-variant-alternates:normal;font-feature-settings:normal;text-indent:0;text-align:start;text-decoration-line:none;text-decoration-style:solid;text-decoration-color:#000;text-transform:none;text-orientation:mixed;white-space:normal;shape-padding:0;isolation:auto;mix-blend-mode:normal;solid-color:#000;solid-opacity:1"/><path fill="#fff" d="m573 84-1 1-13 12h2l12-12v-1z" color="#000" font-family="sans-serif" font-weight="400" overflow="visible" style="line-height:normal;font-variant-ligatures:normal;font-variant-position:normal;font-variant-caps:normal;font-variant-numeric:normal;font-variant-alternates:normal;font-feature-settings:normal;text-indent:0;text-align:start;text-decoration-line:none;text-decoration-style:solid;text-decoration-color:#000;text-transform:none;text-orientation:mixed;white-space:normal;shape-padding:0;isolation:auto;mix-blend-mode:normal;solid-color:#000;solid-opacity:1"/><circle cx="524" cy="110" r="2" fill="#f1b517"/><circle cx="530" cy="105" r="2" fill="#f1b517"/><circle cx="538" cy="106" r="2" fill="#f1b517"/><circle cx="545" cy="109" r="2" fill="#f1b517"/><circle cx="551" cy="109" r="2" fill="#f1b517"/><circle cx="557" cy="109" r="2" fill="#f1b517"/><circle cx="563" cy="109" r="2" fill="#f1b517"/><circle cx="548" cy="105" r="2" fill="#f1b517"/><circle cx="554" cy="105" r="2" fill="#f1b517"/><circle cx="560" cy="105" r="2" fill="#f1b517"/><path fill="#d20014" d="m536 13 1 3c2 1 4 2 4 6l1 2-5 1-1-4c-1-2-3-7-1-9z"/><path fill="#0a328c" d="M536 13v4c1 1 3 2 3 4l1 4 2-1-1-2c0-4-2-5-4-6l-1-3z"/><path fill="none" d="M535 12v4l3 5v4"/><path fill="#fff" d="m574 107 6 2c-2-3-6-2-6-2zm6 4v1l3 1-2-1-1-1z" color="#000" font-family="sans-serif" font-weight="400" overflow="visible" style="line-height:normal;font-variant-ligatures:normal;font-variant-position:normal;font-variant-caps:normal;font-variant-numeric:normal;font-variant-alternates:normal;font-feature-settings:normal;text-indent:0;text-align:start;text-decoration-line:none;text-decoration-style:solid;text-decoration-color:#000;text-transform:none;text-orientation:mixed;white-space:normal;shape-padding:0;isolation:auto;mix-blend-mode:normal;solid-color:#000;solid-opacity:1"/><path fill="#f1b517" d="M585 115c0-2 2-2 2-2l-1-1v-9l2 2c0-5-8-7-8-7 3 7 2 8 2 8l2-2v5s0 2-2 1l-5-2v1l6 3v3z"/><path d="M2173 404v2h2l-1-2h-1zm3 0 1 2h1v-1l-2-1zm5 1v2h1v-1l-1-1zm4 2v1l1 1v-2h-1zm4 2-1 1 1 1v-2zm5 12-1 2 1 1 1-2h-1v-1zm2 2v2h1v-1l-1-1zm2 1 1 2h1l-1-1-1-1zm3 1v1l1 1v-2h-1z" color="#000" font-family="sans-serif" font-weight="400" overflow="visible" style="line-height:normal;font-variant-ligatures:normal;font-variant-position:normal;font-variant-caps:normal;font-variant-numeric:normal;font-variant-alternates:normal;font-feature-settings:normal;text-indent:0;text-align:start;text-decoration-line:none;text-decoration-style:solid;text-decoration-color:#000;text-transform:none;text-orientation:mixed;white-space:normal;shape-padding:0;isolation:auto;mix-blend-mode:normal;solid-color:#000;solid-opacity:1" transform="scale(.26458)"/><path fill="#0a328c" d="M561 39s-3-2-4 0v5h7v-1z"/><path fill="#d20014" d="m558 40-2 1 1 3h6l-4-3-1-1z"/><path fill="none" d="M556 43h4l3 1"/><path fill="none" d="M561 39s-3-2-4 0v5h7v-1zm1 5v6l-1 7"/><path fill="none" d="m564 43 2 6v7l-6 1 1-3V44m-23-19 1 8m-12-20s2-2 6 0"/></g><path fill="#016a16" d="M498 270v-21l3-2 1 23z"/><path fill="#0a328c" d="m499 230-1-1v-1c0-1 1-2 2-1l4 1v9c-2 0-6-2-7-4l2-3z"/><g stroke="#000"><path fill="#f1b517" d="m1763 82 29 60 6-3 51 96 1-16-48-85 2-2-3-4-2 1-4 1z" transform="matrix(-.2285 0 0 .22244 925 265)"/><path fill="#fff" d="m1763 82 29 60 6-3-3-9zm58 86-5 3 7 13 5-2h1z" transform="matrix(-.2285 0 0 .22244 925 265)"/><path fill="none" d="m1801 128-2 1 3 5 2-2z" transform="matrix(-.2285 0 0 .22244 925 265)"/><path fill="none" d="m1763 82 29 60 6-3 51 96 1-16-48-85 2-2-3-4-2 1-4 1z" transform="matrix(-.2285 0 0 .22244 925 265)"/><path fill="#f1b517" d="m1763 82 29 60 6-3 51 96 1-16-48-85 2-2-3-4-2 1-4 1z" transform="matrix(-.22725 .02325 .02388 .22122 962 229)"/><path fill="#fff" d="m1763 82 29 60 6-3-3-9z" transform="matrix(-.22725 .02325 .02388 .22122 962 229)"/><path fill="none" d="m1801 128-2 1 3 5 2-2z" transform="matrix(-.22725 .02325 .02388 .22122 962 229)"/><path fill="none" d="m1763 82 29 60 6-3 51 96 1-16-48-85 2-2-3-4-2 1-4 1z" transform="matrix(-.22725 .02325 .02388 .22122 962 229)"/><path fill="#fff" stroke="none" d="m518 278-5 14-2-1 1-2z"/><path fill="none" stroke="none" d="M511 289v1h-1z"/><path fill="#fff" d="M1825 137c-2 0-4 2-5 3l5 13 6-2z" transform="matrix(-.2285 0 0 .22244 925 265)"/><path fill="none" stroke="none" d="m518 278-5 14-2-1-9 23v-4l9-20h-1l1-1h1z"/><path fill="#f1b517" d="m1763 82 29 60 6-3 51 96 1-16-48-85 2-2-3-4-2 1-4 1z" transform="matrix(-.22512 .03815 .03919 .21915 906 191)"/><path fill="#fff" d="m1763 82 29 60 6-3-3-9z" transform="matrix(-.22512 .03815 .03919 .21915 906 191)"/><path fill="none" d="m1801 128-2 1 3 5 2-2z" transform="matrix(-.22512 .03815 .03919 .21915 906 191)"/><path fill="none" d="m1763 82 29 60 6-3 51 96 1-16-48-85 2-2-3-4-2 1-4 1z" transform="matrix(-.22512 .03815 .03919 .21915 906 191)"/><path fill="#fff" stroke="none" d="m513 276-4 14h-2v-2z"/><path fill="none" stroke="none" d="M506 288v1h-1z"/><path fill="#fff" d="M1825 137c-2 0-4 2-5 3l5 13 6-2z" transform="matrix(-.22791 .0161 .01655 .22186 918 234)"/><path fill="none" stroke="none" d="m513 276-4 14h-2l-8 23v-4l7-20h-1l1-1h1z"/></g><path fill="none" d="m502 230-2 2m1-4-3 3m2-3s-1 2-2 1"/><path fill="#d20014" d="m498 231-1 2v1-1s5 0 7 3v1-4l-6-2z"/><path fill="none" d="m503 231-1 1"/><g transform="matrix(.86366 0 0 .84072 74 265)"><path fill="#d20014" d="M521 70v16l-20-2z"/><path fill="#0a328c" d="M561 52s-1 26-9 38l-31-4 1-16 39-27zm-29-38h-4l2 1v1"/><path fill="#d20014" d="m535 12-6-3-2 1v3l2 1 4-1"/><path fill="#0a328c" d="m529 9-2 1v2l2-1 4 2 2-1-6-3z"/><path fill="#d20014" d="m496 74 23-21 4 8-2 9-20 14-5-2v-5z"/><path fill="#d20014" d="m496 60 15-18 4 8-1 8-18 16z"/><path fill="#0a328c" d="M511 42s3 7 3 15l17-16 9-8-1-5-1-3h-1v-1l-1-2-1-2-1-3v-5 1zm53 1 2 6v7l-6 1 1-3V44z"/><path fill="#d20014" d="M562 44h-1v10l-1 3h3l1-8-2-5z"/><path fill="#f1b517" d="M585 115c0-2 2-2 2-2l-1-1v-9l2 2c0-5-8-7-8-7 3 7 2 8 2 8l2-2v5s0 2-2 1l-8-4-1 2 10 4v3z"/><path fill="none" d="M584 109v-5l-2 2s1-1-2-8c0 0 8 2 8 7l-2-2v7"/><path fill="none" d="M585 115c0-2 2-2 2-2l-1-1v-9l2 2c0-5-8-7-8-7 3 7 2 8 2 8l2-2v5s0 2-2 1l-8-4-1 2 10 4v3"/><path fill="#f1b517" d="m571 104-1 1h-1l1 1 1 1h1-1l-1-1v-1h1l2 1-1-1-1-1z" color="#000" font-family="sans-serif" font-weight="400" overflow="visible" style="line-height:normal;font-variant-ligatures:normal;font-variant-position:normal;font-variant-caps:normal;font-variant-numeric:normal;font-variant-alternates:normal;font-feature-settings:normal;text-indent:0;text-align:start;text-decoration-line:none;text-decoration-style:solid;text-decoration-color:#000;text-transform:none;text-orientation:mixed;white-space:normal;shape-padding:0;isolation:auto;mix-blend-mode:normal;solid-color:#000;solid-opacity:1"/><path fill="#f1b517" d="m571 109 3-4-2 4z"/><path fill="#f1b517" d="M572 109s0-3 2-4l-2 4z"/><circle cx="551" cy="100" r="2" fill="#f1b517"/><path fill="#d20014" d="M582 75s4 1 4 3-1 4 1 4l4 1 1 2s-3-2-5-1c-1 1-3 0-3-1l-2-3-4-1z"/><path fill="#0a328c" d="m553 48-2-24v-2l-32 32s2-3 1 10l3 4z"/><path fill="none" d="m553 48-2-24v-2"/><g fill="#f1b517"><path d="m544-1-4 10h-3l-1 1m8-11-9 7s2 1 1 2l-1 2h1"/><path d="m533 7 6 5-2 2-6-5z"/><path d="m533 8 5 4-1 1-5-4z"/></g><g fill="#f1b517"><path d="m563 11-6 10s-1-2-2-1l-1 2m9-11-9 6v2l-1 2 1 1"/><path d="m551 18 5 5-2 2-5-5z"/><path d="m551 19 5 4-2 2-4-5z"/></g><g fill="#f1b517"><path d="m576 33-8 8s0-2-2-1l-1 1m11-8-10 4s1 1-1 2l-1 1 1 1"/><path d="m563 37 4 6-2 2-4-6z"/><path d="m563 38 3 5-1 1-4-5z"/></g><path fill="#f1b517" d="m534 11-38 49 39-48zm16 12-54 51v1l55-51zm9 21-58 39v1l59-40z" color="#000" font-family="sans-serif" font-weight="400" overflow="visible" style="line-height:normal;font-variant-ligatures:normal;font-variant-position:normal;font-variant-caps:normal;font-variant-numeric:normal;font-variant-alternates:normal;font-feature-settings:normal;text-indent:0;text-align:start;text-decoration-line:none;text-decoration-style:solid;text-decoration-color:#000;text-transform:none;text-orientation:mixed;white-space:normal;shape-padding:0;isolation:auto;mix-blend-mode:normal;solid-color:#000;solid-opacity:1"/><path fill="#0a328c" d="M553 24h-7 3l-1 2s-3-1-4-4c0-3 2-3 2-3l7 5z"/><path fill="#d20014" d="m545 21-1 1 1 2v-1 1h1l1-1h3l1 1s-5-4-6-3z"/><path fill="none" d="M551 23s-6-2-6 0"/><path fill="none" d="M553 24h-7 3l-1 2s-3-1-4-4c0-3 2-3 2-3l7 5z"/><path fill="#0a328c" d="M552 24v2c2 4 4 5 3 10h2v-6l-2-2-1-2-1-2z"/><path fill="#d20014" d="M551 23v5l1 2v6h3c1-5-1-6-3-10v-2z"/><path fill="none" d="m553 24 1 2 1 2 2 2v6m0 0h-5a32 32 0 0 0-1-8v-5l2 1"/><path fill="none" d="M554 36s1-3-1-6c-2-2-2-7-1-6"/><path fill="#f1b517" d="m548 80-4 8-16 1h-2s-2 6-5 7l-21 6-1-4 12-4 5-2 9-10z"/><g stroke-width="0"><path fill="#f1b517" d="m541 62-24 40 24-40z" color="#000" font-family="sans-serif" font-weight="400" overflow="visible" style="line-height:normal;font-variant-ligatures:normal;font-variant-position:normal;font-variant-caps:normal;font-variant-numeric:normal;font-variant-alternates:normal;font-feature-settings:normal;text-indent:0;text-align:start;text-decoration-line:none;text-decoration-style:solid;text-decoration-color:#000;text-transform:none;text-orientation:mixed;white-space:normal;shape-padding:0;isolation:auto;mix-blend-mode:normal;solid-color:#000;solid-opacity:1"/><path fill="#fff" d="M540 63h2l4-6v-2c-1-1-2 0-3 2s-4 5-3 6z"/></g><path fill="#f1b517" d="m562 69 3 4-1 6-1-1-49 7-1-9 48-6 1-1z"/><path fill="#f4cf0e" d="M515 76h1m0-1 1 1m0-1 1 1m1-1v1m1-1v1m1-1v1m1-1v1m3-2v1m1-1v1m1-1v1m1-1v1m1-1v1m1-1v1m1-1v1m2-1h1m0-1 1 1m0-1 1 1m0-1 1 1m0-1 1 1m0-1 1 1m0-1 1 1m0-1h1m2-1v1m1-1v1m1-1v1m1-1v1m1-1v1m1-1v1m3-2v1m1-1v1m1-1v1m1-1v1m1-1 1 1m0-1 1 1m0-1h1m0 0h1m0-1 1 1m0-1 1 1m0-1 1 1"/><path fill="none" d="m563 73-49 7m49-6-49 7m49-6-49 7m49-6-49 6m50-6-49 7m49-6-49 7m49-7-49 7m49-6-49 7"/><path fill="#f1b517" d="M555 70a2 5-4 0 1 2 5 2 5-4 0 1-2 5 2 5-4 0 0 1-5 2 5-4 0 0-2-5 2 5-4 0 1 1 0zm-35 5a2 5-4 0 1 2 5 2 5-4 0 1-1 5 2 5-4 0 0 0-5 2 5-4 0 0-1-5zm-7 4h-3l-1 1v2h4z"/><path d="M509 80h4v2h-4v-2z"/><path fill="#f1b517" d="M514 76a1 5-4 0 0 0 4 1 5-4 0 0 1 5 1 5-4 0 1-1 0 1 5-4 0 1-1-4 1 5-4 0 1 1-5z"/><g fill="#f1b517" transform="matrix(-1 0 0 1 985 1)"><path d="m444 75 1 1v8l-6-5v-2l-3 2v1h2l6 6h-9l-1-1v3l1-1h9l-6 6h-2l3 3v-2l6-6v9l-1 1h3l-1-1v-9l6 6v2l3-3h-2l-6-6h9l1 1v-3l-1 1h-9l6-6h2v-1l-3-2v2l-6 6v-9l1-1z"/><circle cx="445" cy="86" r="2"/><path d="M445 71a15 15 0 0 0-15 15 15 15 0 0 0 15 15 15 15 0 0 0 16-15 15 15 0 0 0-16-15zm0 4a11 11 0 0 1 12 11 11 11 0 0 1-12 12 11 11 0 0 1-11-12 11 11 0 0 1 11-11z"/></g><circle cx="557" cy="100" r="2" fill="#f1b517"/><path fill="#fff" d="M498 69s6 2 7-2c0 0 3 4-2 7 0 0 3-3-5-4l-1-1h1z"/><path d="M497 70h9l-3 4s3-3-5-4h-1z"/><path fill="#fff" d="M484 69h-1l2 13h1z" color="#000" font-family="sans-serif" font-weight="400" overflow="visible" style="line-height:normal;font-variant-ligatures:normal;font-variant-position:normal;font-variant-caps:normal;font-variant-numeric:normal;font-variant-alternates:normal;font-feature-settings:normal;text-indent:0;text-align:start;text-decoration-line:none;text-decoration-style:solid;text-decoration-color:#000;text-transform:none;text-orientation:mixed;white-space:normal;shape-padding:0;isolation:auto;mix-blend-mode:normal;solid-color:#000;solid-opacity:1" transform="matrix(-1 0 0 1 984 0)"/><path fill="#fff" d="M484 69h-1v2h1z" color="#000" font-family="sans-serif" font-weight="400" overflow="visible" style="line-height:normal;font-variant-ligatures:normal;font-variant-position:normal;font-variant-caps:normal;font-variant-numeric:normal;font-variant-alternates:normal;font-feature-settings:normal;text-indent:0;text-align:start;text-decoration-line:none;text-decoration-style:solid;text-decoration-color:#000;text-transform:none;text-orientation:mixed;white-space:normal;shape-padding:0;isolation:auto;mix-blend-mode:normal;solid-color:#000;solid-opacity:1" transform="matrix(-1 0 0 1 984 0)"/><g stroke-width="0" transform="matrix(-1 0 0 1 985 0)"><ellipse cx="472" cy="105" fill="#fff" rx="4" ry="2"/><g fill="#f1b517"><path d="M473 85h-1v3a333 333 0 0 1-1 15l-2 1c0 2 1 2 3 2l4-1-2-2v-3h1c2 0 2-3 2-3v-9l-2-2-1 1h-1v-2h1-1zm2 2v1l1 1v9h-2l-1-8v-2h1z"/><path fill="none" d="m475 104-2-9v-7l2-1 1 2v8l-1 1-1-1"/></g><path fill="none" d="m470 104 2-3V86"/></g><g fill="#fff"><path d="M525 97s-3 0-4 2c-2 2-1 4 0 4 2 1 4 2 5 1 2-1 3-3 1-4-1 0-4 0-3-1l1-1z"/><path d="M524 96h1v2z"/></g><path fill="#fff" d="m570 86-13 7 1 1 12-7zm1 1-8 13 1-1 7-12z" color="#000" font-family="sans-serif" font-weight="400" overflow="visible" style="line-height:normal;font-variant-ligatures:normal;font-variant-position:normal;font-variant-caps:normal;font-variant-numeric:normal;font-variant-alternates:normal;font-feature-settings:normal;text-indent:0;text-align:start;text-decoration-line:none;text-decoration-style:solid;text-decoration-color:#000;text-transform:none;text-orientation:mixed;white-space:normal;shape-padding:0;isolation:auto;mix-blend-mode:normal;solid-color:#000;solid-opacity:1"/><path d="M584 73h-1l-13 13 1 1 13-13v-1z" color="#000" font-family="sans-serif" font-weight="400" overflow="visible" style="line-height:normal;font-variant-ligatures:normal;font-variant-position:normal;font-variant-caps:normal;font-variant-numeric:normal;font-variant-alternates:normal;font-feature-settings:normal;text-indent:0;text-align:start;text-decoration-line:none;text-decoration-style:solid;text-decoration-color:#000;text-transform:none;text-orientation:mixed;white-space:normal;shape-padding:0;isolation:auto;mix-blend-mode:normal;solid-color:#000;solid-opacity:1"/><path fill="#fff" d="m573 84-1 1-13 12h2l12-12v-1z" color="#000" font-family="sans-serif" font-weight="400" overflow="visible" style="line-height:normal;font-variant-ligatures:normal;font-variant-position:normal;font-variant-caps:normal;font-variant-numeric:normal;font-variant-alternates:normal;font-feature-settings:normal;text-indent:0;text-align:start;text-decoration-line:none;text-decoration-style:solid;text-decoration-color:#000;text-transform:none;text-orientation:mixed;white-space:normal;shape-padding:0;isolation:auto;mix-blend-mode:normal;solid-color:#000;solid-opacity:1"/><circle cx="524" cy="110" r="2" fill="#f1b517"/><circle cx="530" cy="105" r="2" fill="#f1b517"/><circle cx="538" cy="106" r="2" fill="#f1b517"/><circle cx="545" cy="109" r="2" fill="#f1b517"/><circle cx="551" cy="109" r="2" fill="#f1b517"/><circle cx="557" cy="109" r="2" fill="#f1b517"/><circle cx="563" cy="109" r="2" fill="#f1b517"/><circle cx="548" cy="105" r="2" fill="#f1b517"/><circle cx="554" cy="105" r="2" fill="#f1b517"/><circle cx="560" cy="105" r="2" fill="#f1b517"/><path fill="#d20014" d="m536 13 1 3c2 1 4 2 4 6l1 2-5 1-1-4c-1-2-3-7-1-9z"/><path fill="#0a328c" d="M536 13v4c1 1 3 2 3 4l1 4 2-1-1-2c0-4-2-5-4-6l-1-3z"/><path fill="none" d="M535 12v4l3 5v4"/><path fill="#fff" d="m574 107 6 2c-2-3-6-2-6-2zm6 4v1l3 1-2-1-1-1z" color="#000" font-family="sans-serif" font-weight="400" overflow="visible" style="line-height:normal;font-variant-ligatures:normal;font-variant-position:normal;font-variant-caps:normal;font-variant-numeric:normal;font-variant-alternates:normal;font-feature-settings:normal;text-indent:0;text-align:start;text-decoration-line:none;text-decoration-style:solid;text-decoration-color:#000;text-transform:none;text-orientation:mixed;white-space:normal;shape-padding:0;isolation:auto;mix-blend-mode:normal;solid-color:#000;solid-opacity:1"/><path fill="#f1b517" d="M585 115c0-2 2-2 2-2l-1-1v-9l2 2c0-5-8-7-8-7 3 7 2 8 2 8l2-2v5s0 2-2 1l-5-2v1l6 3v3z"/><path d="M2173 404v2h2l-1-2h-1zm3 0 1 2h1v-1l-2-1zm5 1v2h1v-1l-1-1zm4 2v1l1 1v-2h-1zm4 2-1 1 1 1v-2zm5 12-1 2 1 1 1-2h-1v-1zm2 2v2h1v-1l-1-1zm2 1 1 2h1l-1-1-1-1zm3 1v1l1 1v-2h-1z" color="#000" font-family="sans-serif" font-weight="400" overflow="visible" style="line-height:normal;font-variant-ligatures:normal;font-variant-position:normal;font-variant-caps:normal;font-variant-numeric:normal;font-variant-alternates:normal;font-feature-settings:normal;text-indent:0;text-align:start;text-decoration-line:none;text-decoration-style:solid;text-decoration-color:#000;text-transform:none;text-orientation:mixed;white-space:normal;shape-padding:0;isolation:auto;mix-blend-mode:normal;solid-color:#000;solid-opacity:1" transform="scale(.26458)"/><path fill="#0a328c" d="M561 39s-3-2-4 0v5h7v-1z"/><path fill="#d20014" d="m558 40-2 1 1 3h6l-4-3-1-1z"/><path fill="none" d="M556 43h4l3 1"/><path fill="none" d="M561 39s-3-2-4 0v5h7v-1zm1 5v6l-1 7"/><path fill="none" d="m564 43 2 6v7l-6 1 1-3V44m-23-19 1 8"/><g stroke-width="0"><path fill="#d20014" d="m522 69 2-2-1-2h-7l-1 2 2 2h2c1 0 2-2 3 0z"/><path fill="#f1b617" d="m518 76 2-7h3l1 1 1 5 1 1h-8z"/><path d="M526 75c-3 2-8 1-8 1v1h1l1-1h6z"/><path fill="none" d="M521 70h1m-1 0h1m-1 1h1m-1 0 1 1m-1 0h1m-1 1h1m-1 0h1m0-3h1m-1 1 1-1m-1 1h1m-1 1 2-1m-2 1h2m-2 1 2-1m-2 1h2m-2 1 2-1m-2 1h2m-2 1 2-1m-2 1h3"/><path fill="#d20014" d="m521 67-2 2m0-2-1 2m0-2v2m-1-2v2m-1-2 1 2m-2-2 1 2m0-2v2"/></g><path fill="none" d="M527 13s2-2 6 0"/></g><path fill="#f1b517" d="M502 270s2 46 1 63m-1-63h-4s-2 46-1 63h6"/><path d="M1862 30a284 284 0 0 0-9 1v1h20v-1l-11-1zm0 8a302 302 0 0 0-10 0v1h21v-1h-11zm0 7a324 324 0 0 0-10 0v1h22v-1h-12zm0 7a354 354 0 0 0-10 0v1h22v-1h-12zm-4 7-6 1v1h22v-1l-16-1zm0 8h-6v1h22v-1h-16zm0 7h-6v1h22v-1h-16zm0 7h-7v1a529 529 0 0 1 7-1zm0 8h-7v1h24v-1h-17zm-1 7h-6v1h24v-1h-18zm0 7h-6v1h24v-1h-18zm0 7h-6v1l24 1v-1l-18-1zm-6 8v1h24v-1h-24zm0 7v1h24v-1h-24zm-1 7v1h25v-1h-25zm0 7v1l26 1v-1l-26-1zm0 8v1h26v-1h-26zm0 7v1h26v-1h-26zm0 7v1l26 1v-1l-26-1zm0 7v1l26 1v-1l-26-1zm0 8v1h26v-1h-26zm0 7v1h26v-1h-26zm0 7v1l26 1v-1l-26-1zm0 7v1l26 1v-1l-26-1zm0 8v1h26v-1h-26zm0 7v1h26v-1h-26zm0 7v1l26 1v-1l-26-1zm0 8v1h26v-1h-26zm0 7v1h26v-1h-26zm0 7v1h26v-1h-26zm0 7v1l26 1v-1l-26-1zm0 8v1h26v-1h-26zm0 7v1h26v-1h-26zm0 7v1h26v-1h-26zm0 7 1 1 24 1v-1l-25-1zm1 8v1h24v-1h-24zm0 7v1h24v-1h-24zm0 7v1h23l1-1h-24z" color="#000" font-family="sans-serif" font-weight="400" overflow="visible" style="line-height:normal;font-variant-ligatures:normal;font-variant-position:normal;font-variant-caps:normal;font-variant-numeric:normal;font-variant-alternates:normal;font-feature-settings:normal;text-indent:0;text-align:start;text-decoration-line:none;text-decoration-style:solid;text-decoration-color:#000;text-transform:none;text-orientation:mixed;white-space:normal;shape-padding:0;isolation:auto;mix-blend-mode:normal;solid-color:#000;solid-opacity:1" transform="matrix(.2324 0 0 .22243 67 265)"/><path fill="none" stroke="#000" d="M493 79h1m-1-2h1m-1-2h1m-1-2h1m-1-2 1 1m-1-3 1 1m-1-2h1m-1-2h2m-2-2h2m-2-2h2m-2-2h2m-2-2h2m-2-2h2m-2-2h2m-2-2h2m-2-2h2m-2-2h2m-2-1h2m-2-2h2m-2-2h2m-2-2h2m-2-2h2m-2-2h2m-2-2h2m-2-2h2m-2-2h2m-2-2h2m-2-2h2m-2-2h2m-2-1h2m-2-2h1m-1-2h1m-1-2h1m-1-2h1m-2-2h2m-2-2h2m-2-2h2m-2-2h2" transform="matrix(.87833 0 0 .8407 68 264)"/><path fill="none" stroke="#000" d="M494 79h1m-1-2h1m-1-2h1m-1-2h1m-1-2h1m-1-2 1 1m-1-2h1m-2-2h2m-2-2h2m-2-2h2m-2-2h2m-2-2h2m-2-2h2m-2-2h2m-2-2h2m-2-2h2m-2-2h2m-2-2h2m-2-1h2m-2-2h2m-2-2h2m-2-2h2m-2-2h2m-2-2h2m-2-2h2m-2-2h2m-2-2h2m-1-2h1m-1-2h1m-1-2h1m-1-2h1m-1-1h2m-2-2h2m-2-2h2m-2-2h2m-2-2h2m-2-2h2m-2-2h2" transform="matrix(.87833 0 0 .8407 64 264)"/><path fill="#fff" d="m461 360-1 7c9 4 36 4 39 4s31 0 40-4l-1-7s-2 4-39 5c-37-1-38-5-38-5z"/><path fill="#fff" d="M531 360c0-2 5-2 8-1l13 1c7 0 11 2 12 2l15 7h8s-4 4-11 1c0 0 5 3 9 3 0 0-5 1-10-1h-1l-8-4c-13-4-18-1-27-4"/><path fill="none" d="m567 368 8 4m-8-5 8 4m-7-4 7 3m-7-4 7 3m-6-4 6 3m-13-2s-6-2-11-1m10 0-11-1m10 0-10-1m10 0-11-1m10 0-11-1m-5 0-5-1h-6m11 2-5-1m6 2-6-1m6 2-6-1m7 1h-7"/><path fill="#fff" d="M531 359c1 2 4 1 6 2l-6 2v-4z"/><g stroke-width="0"><path fill="#f1b517" d="M492 337h16v13h-16z"/><path fill="#d20014" d="M500 350h3m-3-1h3m-3-1h3m-3 0h3m-3-1h3m-3-1h3m-3-1h3m-3 0h3m-3-1h3m-3-1h3m-3-1h3m-3 0h3m-3-1h3m-3-1h3m-3 0 3-1"/><path fill="#fff" d="M508 349h-3m3-1-3 1m3-2-3 1m3-2-3 1m3-1h-3m3-1-3 1m3-2-3 1m3-2-3 1m3-1h-3m3-1-3 1m3-2-3 1m3-2-3 1m3-1h-3m3-1-3 1m3-2-3 1"/><path fill="none" d="m496 339-3-1m3 2-3-1m3 2-3-1m3 2-3-1m3 1-3-1m3 2-3-1m3 2-3-1m3 2-3-1m3 1-3-1m3 2-3-1m3 2-3-1m3 2-3-1m3 1-3-1m3 2-3-1m3 2-3-1"/><path fill="#d20014" d="M500 332a8 2 0 0 0-8 2 8 2 0 0 0 0 1v3h1a8 2 0 0 0 7 1 8 2 0 0 0 7-1h1v-3a8 2 0 0 0 0-1 8 2 0 0 0-8-2zm0 2a8 2 0 0 1 1 0 8 2 0 0 1 1 0 8 2 0 0 1 1 0 8 2 0 0 1 1 0 8 2 0 0 1 1 0 8 2 0 0 1 2 1 8 2 0 0 1-7 1 8 2 0 0 1-7-1 8 2 0 0 1 5-1 8 2 0 0 1 1 0 8 2 0 0 1 1 0z"/><path fill="#fff" d="M500 334a8 2 0 0 0-7 1 8 2 0 0 0 7 1 8 2 0 0 0 7-1 8 2 0 0 0-7-1z"/><path fill="#fff" d="M500 332a8 2 0 0 0-1 0v2a8 2 0 0 1 1 0zm4 1v1a8 2 0 0 1 1 0v-1a8 2 0 0 0-1 0zm-9 0v1zm10 3a8 2 0 0 1-1 0v3a8 2 0 0 0 1 0zm-7 0v3-3z"/><path fill="#d20014" d="M508 349a8 2 0 0 1-1 1 8 2 0 0 1-7 1 8 2 0 0 1-7-1 8 2 0 0 1-1-1v3h1a8 2 0 0 0 7 1 8 2 0 0 0 7-1h1v-1z"/><path fill="#d20014" d="M459 170v2l3 12a9 2 0 0 0 1 0z" color="#000" font-family="sans-serif" font-weight="400" overflow="visible" style="line-height:normal;font-variant-ligatures:normal;font-variant-position:normal;font-variant-caps:normal;font-variant-numeric:normal;font-variant-alternates:normal;font-feature-settings:normal;text-indent:0;text-align:start;text-decoration-line:none;text-decoration-style:solid;text-decoration-color:#000;text-transform:none;text-orientation:mixed;white-space:normal;shape-padding:0;isolation:auto;mix-blend-mode:normal;solid-color:#000;solid-opacity:1" transform="matrix(.86366 0 0 .84072 96 195)"/><path fill="#d20014" d="m465 171-3 13a9 2 0 0 0 1 0l3-13a9 2 0 0 1-1 0zm8-1a9 2 0 0 1 0 1l-4 14a9 2 0 0 0 1 0z" color="#000" font-family="sans-serif" font-weight="400" overflow="visible" style="line-height:normal;font-variant-ligatures:normal;font-variant-position:normal;font-variant-caps:normal;font-variant-numeric:normal;font-variant-alternates:normal;font-feature-settings:normal;text-indent:0;text-align:start;text-decoration-line:none;text-decoration-style:solid;text-decoration-color:#000;text-transform:none;text-orientation:mixed;white-space:normal;shape-padding:0;isolation:auto;mix-blend-mode:normal;solid-color:#000;solid-opacity:1" transform="matrix(.86366 0 0 .84072 96 195)"/><path fill="#d20014" d="m465 171 4 14a9 2 0 0 0 1 0l-4-14a9 2 0 0 1-1 0z" color="#000" font-family="sans-serif" font-weight="400" overflow="visible" style="line-height:normal;font-variant-ligatures:normal;font-variant-position:normal;font-variant-caps:normal;font-variant-numeric:normal;font-variant-alternates:normal;font-feature-settings:normal;text-indent:0;text-align:start;text-decoration-line:none;text-decoration-style:solid;text-decoration-color:#000;text-transform:none;text-orientation:mixed;white-space:normal;shape-padding:0;isolation:auto;mix-blend-mode:normal;solid-color:#000;solid-opacity:1" transform="matrix(.86366 0 0 .84072 96 195)"/><path fill="#d20014" d="M505 339a8 2 0 0 1-1 0l3 10h1v-1z"/><path fill="#fff" d="M508 349a8 2 0 0 1-1 0v3h1zm-13 1v3a8 2 0 0 0 1 0v-3a8 2 0 0 1-1 0zm6 1v2z"/></g><path fill="none" d="M501 269h1m-1-1h1m-1-1h1m-1 0h1m-1-1h1m-1-1h1m-1-1h1m-1 0h1m-1-1h1m-1-1h1m-1-1h1m-2 0h2m-2-1h2m-2-1h2m-2-1h2m-2 0h2m-2-1h2m-2-1h2m-2-1h2m-2 0h2m-2-1h2m-2-1h1m-1-1h1m-1 0h1"/><g fill="#016a16" stroke="#000"><path stroke="none" d="M498 245h-18s-9 3-12 8-1 7-1 7l2-5v5l1-4v2l1-4 1 4c-1-1 1-7 1-7v5c0-5 2-7 2-7-2 3-1 6-1 6 1-4 4-7 4-7-3 3-1 5-1 5 0-3 5-7 5-7-2 2-2 5-2 5 0-2 3-5 3-5l-1 4 1-1 3-3-2 3 2-1 2-2-1 1h1l1-1v1h1l1-1v1h1l1-1v1l1-1v1h2l-10 3 2 1-4 1 2 1-5 1h4l-6 1h5l-6 2h4l-5 1h5l-5 2h2c-5 5-3 8-3 8l3-5c-1 5 1 7 1 7l1-8 1 5 1-6 1 2v-5l1 3 1-5 1 5v-5l2 4v-6l1 3v-4 4l1-1 1-4 1 2v-4l1 2v-3l1 1 2-3-1 2 2-1-2 2h1-3v1h3l-4 2h3l-4 2 4-1-5 2h4c-2 0-5 3-5 3h3c-2 0-3 2-3 2h2c-2 1-2 4-2 4l3-3c-3 3-2 5-2 5l1-2-2 4 2-2c-1 6 1 6 1 6v-6c2 1 3 5 3 5l-2-6c2 1 2 3 2 3 1-2-1-6-1-6l3 4-3-6 3 4-2-6 3 3-2-4 2 2-2-4 2 2-1-5 1 3v-4l1 1v-2l1-3-1 3v2l2-2-1 4 2-2-2 4 3-3-2 5 2-2-2 3 3-2-2 5 2-3-2 4 3-3-3 6 3-1-1 1-3 4c2 0 3-3 3-3 1 2-2 6-2 6 2 0 4-5 4-5l1 6v-8l2 3-2-7 2 3-2-7 3 4-4-7 2 3c-1-5-4-5-4-5 4-1 4 4 4 4l1-3v1l1 4v-3 4l1-2 1 4 1-3v5l2-3 1 4v-3c0-3-4-8-5-9l-5-1-4-4 4 4v-4l2 4v-3l3 4-1-4 4 5-2-5 4 7c1-2-1-6-1-6l3 7v-4l3 4-1-5 3 5-1-3 2 4-1-4 3 4-2-4 2 3-5-6-10-4h-9l2-1-1-1 1 1h1v-1 1h3l-2-1 2 1h1l-1-1 2 2h2l-2-2 2 2 2 1-2-3 3 3-1-3 3 3-1-3 2 4v-3l2 4v-5l2 4v-1 3-3l1 3-1-6 3 6v-2l1 3c1-3-1-6-1-6l2 5 1-1v4c1-3-1-6-1-6 2 1 3 7 3 7l1-4 1 4-1-6c-1-2-2-3-9-5h-22 2c2-2 6 0 6 0h1l-1-2 2 1h1v-1l2 2h1l-1-3 4 3-3-3 4 3-2-2 5 2-2-2 5 2-4-3 5 4-3-5 6 5-2-4c2 0 5 5 5 5l-2-5 4 5-2-4 5 2c-3-4-8-5-9-5h-9l-10 2-4 2-1-1 1 1 2-1-2-1 3 1 1-1-2-1 2 1 3-1-3-1h5l-4-2 7 1-3-1 5 1-3-2 5 1-3-2 3 1-2-1 5 2-3-4 3 2-2-2 4 2c-1-2-4-3-5-3s-8 0-14 4c-5 4-6 7-6 7s-5-11-15-12l4 2-4 2h6l-4 2h6l-4 1 6 1-5 1 6 1-3 1 5 2s-9-4-17-5c-7-1-10 1-11 2s-4 4-4 6c0 0 2-3 6-5l-4 4 4-3-2 4s3-6 5-7l-3 5 6-5s-4 3-4 6l6-5s-3 1-3 3l4-3-2 3h1s2-3 4-3l-3 3h1l4-3-3 3h1l3-2-1 2h1l1-2-1 2h2l1-1-1 1h1l1-1v1h2v-1 1z"/><path d="m3188-1290-6 7h-1v1s-22 8-39 23a96 96 0 0 0-29 38c-2 8-2 29-2 29s3-18 5-20l1 13 2-22c1-3 1 16 5 18 0 0-1-21 1-27 0 0-1 11 1 14 0 0 3-26 10-32 0 0-8 13-3 31l1-7-2 1 3-1 2-10 3 7h1l1-7-8-1 10-1v-3l-5-1 5-1v-4h-4l4-1v-4l1 4 5-1 1-4v3h1l1-5h-1l1-1v-5l1 5h3l1-7 2 6s4-14 7-15v8h2l7-12-1 4 3-1 3-7 2 6 3-4 2 2c12-3 27-8 26-9l-8-1 1-5-2 5h-3v-4l-2 4-6-1 2-3-4 3h-8zm-13 21v5l3-5h-3zm-21 16 1 4h1v-4zm-9 8v4l4-1v-3zm0 6 1 3 2-1v-2zm-3 5 2 5v-5zm4 1v2l1-2zm-5 8v1z" transform="matrix(.2285 0 0 .22244 -239 532)"/></g><path fill="#f1b517" d="m501 234-1 8 1 2 1-1v-9h-1zm1 11z"/><path fill="#fff" d="M473 323s3-2 5 0l-1 1h-3z"/><path fill="green" d="M605 226v7h1v-7z" color="#000" font-family="sans-serif" font-weight="400" overflow="visible" style="line-height:normal;font-variant-ligatures:normal;font-variant-position:normal;font-variant-caps:normal;font-variant-numeric:normal;font-variant-alternates:normal;font-feature-settings:normal;text-indent:0;text-align:start;text-decoration-line:none;text-decoration-style:solid;text-decoration-color:#000;text-transform:none;text-orientation:mixed;white-space:normal;shape-padding:0;isolation:auto;mix-blend-mode:normal;solid-color:#000;solid-opacity:1" transform="matrix(.86627 0 0 .69822 -49 162)"/><path fill="green" d="M473 325v1c0 1 0 4 2 4 3 0 2-3 2-4l1-1v-2s-3 2-5 0z"/><path fill="#fff" d="m2287 887-1 12 1 8 2 3v1l3-1v-1h-2l-1-2v-20z" color="#000" font-family="sans-serif" font-weight="400" overflow="visible" style="line-height:normal;font-variant-ligatures:normal;font-variant-position:normal;font-variant-caps:normal;font-variant-numeric:normal;font-variant-alternates:normal;font-feature-settings:normal;text-indent:0;text-align:start;text-decoration-line:none;text-decoration-style:solid;text-decoration-color:#000;text-transform:none;text-orientation:mixed;white-space:normal;shape-padding:0;isolation:auto;mix-blend-mode:normal;solid-color:#000;solid-opacity:1" transform="matrix(.2292 0 0 .18474 -49 162)"/><path fill="#fff" stroke="#000" d="M2299 882c-10 3-16 2-21 0v1s2 0 2 2c9 5 16 1 19-2z" transform="matrix(.2292 0 0 .18474 -49 162)"/><g style="line-height:1.25;-inkscape-font-specification:&quot;Adobe Caslon Pro&quot;" word-spacing="0"><path d="M456 144h-1l-1 5h3l-2-1zm2 2 1 1v-2h-1zm5-1-1 3v1l-1 1v-1h-1v-4l-1 3 1 1 1 1h1l1-1v-4zm4 5-2-4h-1v4l1-3 2 4h1v-5zm3-4h-1v5zm5 3-1 1-1 1-1-1-1-1 1-2h2l1 2zm0 0v-2h-1l-1-1h-1l-1 1v1l-1 1h1v1l1 1h3v-2zm4 2-2-4h-1v4l1-3 2 4h1v-5h-1zm4-1h3v-1h-3v-2l3 1v-1h-3v5zm6 0v2h1l-2-5-2 5 1-2zm-2 0 1-2 1 2zm4-3v5zm1 1h2v4-4h2v-1h-4zm7-1h-1v5h4l-1-1h-2zm6 3v2h1l-2-5h-1l-1 5 1-2zm-2 0 1-2 1 2zm6-1h2v-1l-2 1v-2h3v-1l-4 1 1 4zm7-1v2l-1 1-2-1v-3h3v1zm1 0-1-1-1-1h-2v1l-1 1v2h1l1 1h2l1-1v-2zm1 1 2-1 1 1v1h1l-1-1v-3h-4l1 5h1zm0-3h3v1l-1 1h-2zm8 0-1-1h-1l-2 1v2l1 2h3v-2 1h-3v-3h1v-1l1 1h1zm5 2-3 1v-2h2v-1l-2 1-1-2h3v-1l-3 1 1 4h3z" aria-label="L'UNION FAIT LA FORCE" font-family="Helvetica" font-size="7" font-weight="400" letter-spacing="0" style="-inkscape-font-specification:Helvetica" transform="matrix(.86366 0 0 .84072 74 243)"/></g><path id="path-b7119" d="m m0 77 m0 81 m0 65 m0 65 m0 65 m0 65 m0 65 m0 65 m0 65 m0 65 m0 65 m0 65 m0 65 m0 65 m0 65 m0 65 m0 65 m0 65 m0 65 m0 65 m0 78 m0 80 m0 113 m0 104 m0 100 m0 101 m0 104 m0 47 m0 83 m0 82 m0 108 m0 118 m0 76 m0 55 m0 103 m0 77 m0 97 m0 53 m0 115 m0 49 m0 98 m0 117 m0 78 m0 97 m0 100 m0 117 m0 100 m0 75 m0 57 m0 51 m0 97 m0 43 m0 113 m0 53 m0 83 m0 88 m0 72 m0 49 m0 117 m0 121 m0 107 m0 101 m0 81 m0 77 m0 52 m0 57 m0 78 m0 100 m0 119 m0 101 m0 99 m0 98 m0 117 m0 54 m0 86 m0 76 m0 43 m0 77 m0 65 m0 117 m0 122 m0 50 m0 75 m0 68 m0 55 m0 81 m0 61 m0 61"/>
</svg>