<svg xmlns="http://www.w3.org/2000/svg" xmlns:xlink="http://www.w3.org/1999/xlink" width="1400" height="700"><defs><path id="a" stroke-miterlimit="10" d="M-1 55h2v-93c2-2 2-5 2-8 0-2 0-10-3-19-3 9-3 17-3 19 0 3 0 6 2 8z" transform="rotate(30)"/></defs><path fill="#fff" d="M0 0h900v600H0z"/><path d="M0 0h900v180H0z"/><path fill="#b00" d="M0 210h900v180H0z"/><path fill="#060" d="M0 420h900v180H0z"/><g transform="matrix(3.75 0 0 3.75 450 300)"><g id="b"><use xlink:href="#a"/><use xlink:href="#a" fill="#fff"/></g><use xlink:href="#b" transform="scale(-1 1)"/><path fill="#b00" d="M-19 24c3 8 13 24 19 24s16-16 19-24v-48C16-32 6-48 0-48s-16 16-19 24z"/><path id="c" fill="#000" d="M19 24c3-8 5-16 5-24s-2-16-5-24c-3 8-5 16-5 24s2 16 5 24z"/><use xlink:href="#c" transform="scale(-1 1)"/><g fill="#fff"><ellipse rx="4" ry="6"/><path id="d" d="M1 6s4 8 4 21-4 21-4 21z"/><use xlink:href="#d" transform="scale(-1)"/><use xlink:href="#d" transform="scale(-1 1)"/><use xlink:href="#d" transform="scale(1 -1)"/></g></g><path id="path-b7533" d="m m0 78 m0 103 m0 65 m0 65 m0 65 m0 65 m0 65 m0 65 m0 65 m0 65 m0 65 m0 65 m0 65 m0 65 m0 65 m0 65 m0 65 m0 65 m0 65 m0 65 m0 81 m0 118 m0 99 m0 57 m0 121 m0 90 m0 74 m0 90 m0 116 m0 57 m0 117 m0 110 m0 56 m0 104 m0 88 m0 90 m0 116 m0 77 m0 107 m0 112 m0 112 m0 48 m0 101 m0 102 m0 49 m0 80 m0 102 m0 43 m0 82 m0 50 m0 119 m0 120 m0 74 m0 98 m0 118 m0 111 m0 120 m0 103 m0 83 m0 72 m0 76 m0 85 m0 114 m0 77 m0 114 m0 110 m0 86 m0 90 m0 54 m0 113 m0 53 m0 88 m0 74 m0 51 m0 113 m0 100 m0 79 m0 98 m0 114 m0 82 m0 108 m0 72 m0 51 m0 102 m0 121 m0 65 m0 61 m0 61"/>
</svg>