<svg xmlns="http://www.w3.org/2000/svg" xmlns:xlink="http://www.w3.org/1999/xlink" width="900" height="450"><defs><path id="a" stroke-miterlimit="10" d="M-1 55h2v-93c2-2 2-5 2-8 0-2 0-10-3-19-3 9-3 17-3 19 0 3 0 6 2 8z" transform="rotate(30)"/></defs><path fill="#fff" d="M0 0h900v600H0z"/><path d="M0 0h900v180H0z"/><path fill="#b00" d="M0 210h900v180H0z"/><path fill="#060" d="M0 420h900v180H0z"/><g transform="matrix(3.75 0 0 3.75 450 300)"><g id="b"><use xlink:href="#a"/><use xlink:href="#a" fill="#fff"/></g><use xlink:href="#b" transform="scale(-1 1)"/><path fill="#b00" d="M-19 24c3 8 13 24 19 24s16-16 19-24v-48C16-32 6-48 0-48s-16 16-19 24z"/><path id="c" fill="#000" d="M19 24c3-8 5-16 5-24s-2-16-5-24c-3 8-5 16-5 24s2 16 5 24z"/><use xlink:href="#c" transform="scale(-1 1)"/><g fill="#fff"><ellipse rx="4" ry="6"/><path id="d" d="M1 6s4 8 4 21-4 21-4 21z"/><use xlink:href="#d" transform="scale(-1)"/><use xlink:href="#d" transform="scale(-1 1)"/><use xlink:href="#d" transform="scale(1 -1)"/></g></g><path id="path-b7389" d="m m0 82 m0 103 m0 65 m0 65 m0 65 m0 65 m0 65 m0 65 m0 65 m0 65 m0 65 m0 65 m0 65 m0 65 m0 65 m0 65 m0 65 m0 65 m0 65 m0 65 m0 78 m0 52 m0 79 m0 97 m0 67 m0 107 m0 70 m0 99 m0 117 m0 98 m0 97 m0 106 m0 66 m0 80 m0 116 m0 116 m0 121 m0 102 m0 52 m0 84 m0 53 m0 83 m0 75 m0 43 m0 78 m0 103 m0 67 m0 69 m0 47 m0 51 m0 122 m0 101 m0 51 m0 113 m0 73 m0 99 m0 114 m0 66 m0 49 m0 113 m0 76 m0 87 m0 75 m0 98 m0 80 m0 100 m0 78 m0 83 m0 99 m0 54 m0 74 m0 65 m0 77 m0 84 m0 73 m0 79 m0 48 m0 118 m0 105 m0 77 m0 70 m0 101 m0 56 m0 69 m0 117 m0 81 m0 61 m0 61"/>
</svg>