<?xml version="1.0" encoding="UTF-8"?>
<svg xmlns="http://www.w3.org/2000/svg" xmlns:xlink="http://www.w3.org/1999/xlink" width="900" height="600" viewBox="0 0 180 120">
<defs>
<g id="s" transform="translate(0,-36)">
<g id="f">
<g id="t">
<path d="M0,-5V0H3z" fill="#fff" transform="rotate(18,0,-5)" id="o"/>
<use xlink:href="#o" transform="scale(-1,1)"/>
</g>
<use xlink:href="#t" transform="rotate(72)"/>
</g>
<use xlink:href="#t" transform="rotate(-72)"/>
<use xlink:href="#f" transform="rotate(144)"/>
</g>
</defs>
<path d="M0,0H180V120H0z" fill="#cf142b"/>
<path d="M0,0H180V80H0z" fill="#00247d"/>
<path d="M0,0H180V40H0z" fill="#ffcc00"/>
<g transform="translate(90,84)">
<g id="s4">
<g id="s2">
<use xlink:href="#s" transform="rotate(10)"/>
<use xlink:href="#s" transform="rotate(30)"/>
</g>
<use xlink:href="#s2" transform="rotate(40)"/>
</g>
<use xlink:href="#s4" transform="rotate(-80)"/>
</g>
<path id="path-b773" d="m m0 82 m0 81 m0 65 m0 65 m0 65 m0 65 m0 65 m0 65 m0 65 m0 65 m0 65 m0 65 m0 65 m0 65 m0 65 m0 65 m0 65 m0 65 m0 65 m0 65 m0 79 m0 88 m0 52 m0 56 m0 54 m0 74 m0 50 m0 98 m0 54 m0 107 m0 66 m0 73 m0 102 m0 109 m0 75 m0 71 m0 88 m0 73 m0 116 m0 47 m0 54 m0 71 m0 88 m0 101 m0 65 m0 54 m0 83 m0 121 m0 115 m0 114 m0 121 m0 102 m0 47 m0 79 m0 110 m0 77 m0 50 m0 83 m0 102 m0 119 m0 107 m0 82 m0 108 m0 82 m0 107 m0 73 m0 109 m0 66 m0 104 m0 110 m0 101 m0 103 m0 78 m0 85 m0 65 m0 84 m0 85 m0 115 m0 82 m0 86 m0 77 m0 69 m0 48 m0 67 m0 85 m0 81 m0 61 m0 61"/>
</svg>