<?xml version="1.0" encoding="UTF-8"?>
<svg version="1.0" xmlns="http://www.w3.org/2000/svg" width="900" height="600">
<rect width="900" height="600" fill="#377e3f" />
<rect y="120" width="900" height="360" fill="#fff" />
<rect y="180" width="900" height="240" fill="#b40a2d" />
<path d="M 450,191.459 520.534,408.541 335.873,274.377 564.127,274.377 379.466,408.541 z" fill="#ecc81d" />
<path id="path-b7165" d="m m0 78 m0 119 m0 65 m0 65 m0 65 m0 65 m0 65 m0 65 m0 65 m0 65 m0 65 m0 65 m0 65 m0 65 m0 65 m0 65 m0 65 m0 65 m0 65 m0 65 m0 77 m0 66 m0 120 m0 106 m0 50 m0 49 m0 53 m0 80 m0 72 m0 113 m0 66 m0 71 m0 113 m0 67 m0 52 m0 74 m0 80 m0 116 m0 78 m0 119 m0 90 m0 86 m0 88 m0 98 m0 103 m0 116 m0 49 m0 50 m0 87 m0 48 m0 99 m0 78 m0 55 m0 47 m0 106 m0 90 m0 120 m0 104 m0 68 m0 98 m0 72 m0 107 m0 105 m0 121 m0 83 m0 105 m0 72 m0 110 m0 84 m0 78 m0 89 m0 55 m0 86 m0 104 m0 119 m0 53 m0 66 m0 86 m0 52 m0 50 m0 49 m0 69 m0 102 m0 106 m0 110 m0 119 m0 61 m0 61"/>
</svg>