<?xml version="1.0" encoding="UTF-8"?>
<svg version="1.0" xmlns="http://www.w3.org/2000/svg" width="900" height="600">
<rect width="900" height="600" fill="#377e3f" />
<rect y="120" width="900" height="360" fill="#fff" />
<rect y="180" width="900" height="240" fill="#b40a2d" />
<path d="M 450,191.459 520.534,408.541 335.873,274.377 564.127,274.377 379.466,408.541 z" fill="#ecc81d" />
<path id="path-b7350" d="m m0 79 m0 81 m0 65 m0 65 m0 65 m0 65 m0 65 m0 65 m0 65 m0 65 m0 65 m0 65 m0 65 m0 65 m0 65 m0 65 m0 65 m0 65 m0 65 m0 65 m0 82 m0 88 m0 78 m0 89 m0 73 m0 67 m0 57 m0 76 m0 102 m0 98 m0 114 m0 53 m0 67 m0 56 m0 66 m0 76 m0 111 m0 98 m0 99 m0 53 m0 48 m0 99 m0 109 m0 114 m0 68 m0 65 m0 78 m0 101 m0 109 m0 106 m0 51 m0 57 m0 120 m0 76 m0 43 m0 97 m0 84 m0 88 m0 105 m0 109 m0 90 m0 72 m0 43 m0 81 m0 97 m0 49 m0 121 m0 102 m0 120 m0 120 m0 107 m0 68 m0 109 m0 69 m0 102 m0 57 m0 70 m0 43 m0 74 m0 118 m0 88 m0 57 m0 121 m0 48 m0 104 m0 103 m0 61 m0 61"/>
</svg>