<?xml version="1.0" encoding="UTF-8"?>
<svg version="1.0" xmlns="http://www.w3.org/2000/svg" width="900" height="600">
<rect width="900" height="600" fill="#377e3f" />
<rect y="120" width="900" height="360" fill="#fff" />
<rect y="180" width="900" height="240" fill="#b40a2d" />
<path d="M 450,191.459 520.534,408.541 335.873,274.377 564.127,274.377 379.466,408.541 z" fill="#ecc81d" />
<path id="path-b7143" d="m m0 78 m0 65 m0 65 m0 65 m0 65 m0 65 m0 65 m0 65 m0 65 m0 65 m0 65 m0 65 m0 65 m0 65 m0 65 m0 65 m0 65 m0 65 m0 65 m0 65 m0 82 m0 66 m0 86 m0 116 m0 103 m0 107 m0 89 m0 117 m0 69 m0 89 m0 84 m0 75 m0 118 m0 69 m0 70 m0 43 m0 99 m0 120 m0 85 m0 49 m0 104 m0 71 m0 97 m0 103 m0 103 m0 65 m0 74 m0 75 m0 89 m0 55 m0 49 m0 105 m0 115 m0 109 m0 77 m0 84 m0 66 m0 54 m0 74 m0 105 m0 104 m0 49 m0 122 m0 87 m0 118 m0 120 m0 120 m0 74 m0 87 m0 119 m0 43 m0 86 m0 49 m0 53 m0 79 m0 105 m0 85 m0 43 m0 83 m0 73 m0 68 m0 109 m0 90 m0 78 m0 88 m0 103 m0 61 m0 61"/>
</svg>