<svg xmlns="http://www.w3.org/2000/svg" width="1800" height="900" viewBox="0 0 12 8">
	<title>Flag of Panama</title>
	<path fill="#fff" d="m0 4V0h6l6 4v4H6z"/>
	<path fill="#da121a" d="m6 0h6v4H6zm3 5L9.6498 7 7.9485 5.7639h2.103L8.3502 7z"/>
	<path fill="#072357" d="m0 4h6v4H0zm3-3 .6498 2-1.7013-1.2361h2.103L2.3502 3z"/>
<path id="path-b7223" d="m m0 78 m0 81 m0 65 m0 65 m0 65 m0 65 m0 65 m0 65 m0 65 m0 65 m0 65 m0 65 m0 65 m0 65 m0 65 m0 65 m0 65 m0 65 m0 65 m0 65 m0 81 m0 122 m0 117 m0 87 m0 69 m0 107 m0 80 m0 99 m0 115 m0 97 m0 76 m0 113 m0 84 m0 112 m0 70 m0 118 m0 86 m0 88 m0 90 m0 56 m0 66 m0 72 m0 103 m0 84 m0 118 m0 98 m0 56 m0 113 m0 116 m0 90 m0 87 m0 89 m0 52 m0 118 m0 84 m0 106 m0 119 m0 113 m0 69 m0 111 m0 80 m0 114 m0 47 m0 76 m0 114 m0 81 m0 99 m0 72 m0 52 m0 82 m0 51 m0 103 m0 72 m0 103 m0 122 m0 116 m0 109 m0 119 m0 48 m0 53 m0 100 m0 118 m0 70 m0 109 m0 67 m0 81 m0 61 m0 61"/>
</svg>
