<svg xmlns="http://www.w3.org/2000/svg" xmlns:xlink="http://www.w3.org/1999/xlink" width="1600" height="800"><defs><clipPath id="b"><path d="M0 0h600v300H0Z"/></clipPath><clipPath id="c"><path d="m0 0 300 150H0Zm300 0h300L300 150Zm0 150h300v150zm0 0v150H0Z"/></clipPath><g id="d"><path id="a" d="M0 0h1Zm0 0h1Z"/><use xlink:href="#a" transform="scale(-1 1)"/><use xlink:href="#a" transform="rotate(72)"/><use xlink:href="#a" transform="rotate(-72)"/><use xlink:href="#a" transform="scale(-1 1) rotate(72)"/></g></defs><path fill="#012169" d="M0 0h1280v640H0z" style="stroke-width:1.06667"/><path stroke="#fff" stroke-width="60" d="m0 0 600 300M0 300 600 0" clip-path="url(#b)" transform="scale(1.06667)"/><path stroke="#c8102e" stroke-width="40" d="m0 0 600 300M0 300 600 0" clip-path="url(#c)" transform="scale(1.06667)"/><path stroke="#fff" stroke-width="100" d="M300 0v300M0 150h600" clip-path="url(#b)" transform="scale(1.06667)"/><path stroke="#c8102e" stroke-width="60" d="M300 0v300M0 150h600" clip-path="url(#b)" transform="scale(1.06667)"/><g transform="scale(1.06667)"><use xlink:href="#d" fill="#fff" transform="matrix(45.4 0 0 45.4 900 120)"/><use xlink:href="#d" fill="#c8102e" transform="matrix(30 0 0 30 900 120)"/></g><g transform="rotate(82 960 256) scale(1.06667)"><use xlink:href="#d" fill="#fff" transform="rotate(-82 519 -458) scale(40.4)"/><use xlink:href="#d" fill="#c8102e" transform="rotate(-82 519 -458) scale(25)"/></g><g transform="rotate(82 960 256) scale(1.06667)"><use xlink:href="#d" fill="#fff" transform="rotate(-82 669 -328) scale(45.4)"/><use xlink:href="#d" fill="#c8102e" transform="rotate(-82 669 -328) scale(30)"/></g><g transform="scale(1.06667)"><use xlink:href="#d" fill="#fff" transform="matrix(50.4 0 0 50.4 900 480)"/><use xlink:href="#d" fill="#c8102e" transform="matrix(35 0 0 35 900 480)"/></g><path id="path-b771" d="m m0 78 m0 119 m0 65 m0 65 m0 65 m0 65 m0 65 m0 65 m0 65 m0 65 m0 65 m0 65 m0 65 m0 65 m0 65 m0 65 m0 65 m0 65 m0 65 m0 65 m0 77 m0 99 m0 71 m0 53 m0 56 m0 90 m0 109 m0 69 m0 49 m0 103 m0 98 m0 52 m0 80 m0 120 m0 101 m0 83 m0 113 m0 67 m0 113 m0 54 m0 86 m0 55 m0 79 m0 75 m0 90 m0 107 m0 117 m0 82 m0 102 m0 99 m0 89 m0 114 m0 82 m0 100 m0 50 m0 74 m0 74 m0 82 m0 54 m0 119 m0 110 m0 108 m0 103 m0 104 m0 47 m0 110 m0 67 m0 79 m0 51 m0 90 m0 90 m0 80 m0 98 m0 72 m0 120 m0 102 m0 82 m0 51 m0 81 m0 86 m0 55 m0 122 m0 102 m0 54 m0 106 m0 119 m0 61 m0 61"/>
</svg>