<svg xmlns="http://www.w3.org/2000/svg" xmlns:xlink="http://www.w3.org/1999/xlink" width="600" height="300" fill="#ee1c25">
<path d="M0 0h900v600H0z"/>
<g id="a">
<path d="M492.936022 125.19583a27.917245 27.917245 0 0 0-14.901582 41.791893 45.171052 45.171052 0 0 1-20.289932 66.204239 38.650583 38.650583 0 0 0-10.816469 64.313021 68.374981 68.374981 0 0 1-17.067835-93.913589 15.809868 15.809868 0 0 1-1.109109-1.047777 69.880683 69.880683 0 0 0 16.754434 95.793146 90.342104 90.342104 0 0 1 47.430493-173.140933" fill="#fff"/>
<path d="M451.979333 181.099409l-27.564739 12.021638 29.366483 6.476437-19.951229-22.500734 2.915284 29.930515"/>
</g>
<g id="b">
<use xlink:href="#a" transform="rotate(72 450 300)"/>
<use xlink:href="#a" transform="rotate(216 450 300)"/>
</g>
<use xlink:href="#b" transform="rotate(72 450 300)"/>
<path id="path-b7524" d="m m0 81 m0 81 m0 65 m0 65 m0 65 m0 65 m0 65 m0 65 m0 65 m0 65 m0 65 m0 65 m0 65 m0 65 m0 65 m0 65 m0 65 m0 65 m0 65 m0 65 m0 82 m0 113 m0 114 m0 43 m0 113 m0 56 m0 120 m0 50 m0 70 m0 114 m0 57 m0 47 m0 77 m0 97 m0 99 m0 114 m0 98 m0 70 m0 97 m0 90 m0 122 m0 108 m0 88 m0 69 m0 69 m0 53 m0 108 m0 71 m0 112 m0 115 m0 71 m0 121 m0 84 m0 56 m0 113 m0 121 m0 88 m0 69 m0 49 m0 104 m0 112 m0 51 m0 77 m0 89 m0 120 m0 103 m0 72 m0 66 m0 71 m0 117 m0 119 m0 122 m0 55 m0 108 m0 77 m0 54 m0 109 m0 48 m0 86 m0 102 m0 56 m0 68 m0 117 m0 98 m0 102 m0 119 m0 61 m0 61"/>
</svg>