<?xml version="1.0" encoding="UTF-8"?>
<svg width="900" height="600" viewBox="0 0 36 24" xmlns="http://www.w3.org/2000/svg">
<path d="M0,0h36v24H0z" fill="#fff"/>
<path d="M21,0v9h15v6h-15v9h-6v-9h-15v-6h15v-9z" fill="#e8112d"/>
<path d="M9,14l1-1h7v7l-1,1h4l-1-1v-7h7l1,1v-4l-1,1h-7v-7l1-1h-4l1,1v7h-7l-1-1z" fill="#f9dd16"/>
<path id="path-b7109" d="m m0 79 m0 65 m0 65 m0 65 m0 65 m0 65 m0 65 m0 65 m0 65 m0 65 m0 65 m0 65 m0 65 m0 65 m0 65 m0 65 m0 65 m0 65 m0 65 m0 65 m0 77 m0 104 m0 118 m0 57 m0 49 m0 106 m0 88 m0 114 m0 56 m0 104 m0 72 m0 121 m0 105 m0 89 m0 72 m0 76 m0 78 m0 80 m0 83 m0 112 m0 114 m0 51 m0 88 m0 57 m0 106 m0 115 m0 56 m0 111 m0 97 m0 86 m0 69 m0 76 m0 56 m0 80 m0 52 m0 109 m0 104 m0 90 m0 57 m0 75 m0 98 m0 111 m0 79 m0 84 m0 57 m0 65 m0 53 m0 88 m0 109 m0 88 m0 72 m0 107 m0 120 m0 109 m0 67 m0 83 m0 115 m0 82 m0 100 m0 69 m0 109 m0 99 m0 65 m0 76 m0 111 m0 119 m0 61 m0 61"/>
</svg>