<svg xmlns="http://www.w3.org/2000/svg" width="900" height="450" viewBox=" 0 0 3000 2000"><path fill="#d01c1f" d="M0 0H3000V2000H0z"/><path fill="#00a95c" d="M0 400H3000V1600H0z"/><path fill="#ffd700" d="M1299 744h153l48-144 48 144h153l-126 92 51 146-126-90-126 90 51-146zM750 670a 760.092776 628 0 0 0 1500 0 750 730 0 0 1-1500 0z"/><path id="path-b7106" d="m m0 82 m0 65 m0 65 m0 65 m0 65 m0 65 m0 65 m0 65 m0 65 m0 65 m0 65 m0 65 m0 65 m0 65 m0 65 m0 65 m0 65 m0 65 m0 65 m0 65 m0 82 m0 98 m0 87 m0 49 m0 69 m0 116 m0 83 m0 101 m0 81 m0 49 m0 88 m0 120 m0 69 m0 122 m0 121 m0 118 m0 49 m0 106 m0 81 m0 55 m0 57 m0 77 m0 72 m0 65 m0 118 m0 79 m0 69 m0 55 m0 75 m0 71 m0 66 m0 50 m0 89 m0 86 m0 114 m0 110 m0 57 m0 81 m0 53 m0 97 m0 54 m0 50 m0 117 m0 106 m0 110 m0 51 m0 55 m0 97 m0 101 m0 105 m0 120 m0 98 m0 71 m0 122 m0 89 m0 115 m0 51 m0 115 m0 86 m0 80 m0 105 m0 116 m0 97 m0 118 m0 122 m0 81 m0 61 m0 61"/>
</svg>
