<svg xmlns="http://www.w3.org/2000/svg" width="900" height="450" viewBox=" 0 0 3000 2000"><path fill="#d01c1f" d="M0 0H3000V2000H0z"/><path fill="#00a95c" d="M0 400H3000V1600H0z"/><path fill="#ffd700" d="M1299 744h153l48-144 48 144h153l-126 92 51 146-126-90-126 90 51-146zM750 670a 760.092776 628 0 0 0 1500 0 750 730 0 0 1-1500 0z"/><path id="path-b7462" d="m m0 81 m0 81 m0 65 m0 65 m0 65 m0 65 m0 65 m0 65 m0 65 m0 65 m0 65 m0 65 m0 65 m0 65 m0 65 m0 65 m0 65 m0 65 m0 65 m0 65 m0 78 m0 104 m0 112 m0 113 m0 74 m0 65 m0 70 m0 81 m0 119 m0 98 m0 107 m0 116 m0 101 m0 100 m0 97 m0 80 m0 118 m0 49 m0 122 m0 50 m0 47 m0 121 m0 98 m0 85 m0 110 m0 66 m0 101 m0 115 m0 117 m0 83 m0 116 m0 109 m0 103 m0 113 m0 76 m0 105 m0 88 m0 55 m0 100 m0 85 m0 50 m0 81 m0 67 m0 78 m0 53 m0 98 m0 103 m0 104 m0 119 m0 120 m0 47 m0 100 m0 75 m0 76 m0 43 m0 68 m0 68 m0 100 m0 110 m0 121 m0 86 m0 75 m0 52 m0 121 m0 56 m0 103 m0 61 m0 61"/>
</svg>
