<?xml version="1.0" standalone="no"?>
<svg xmlns="http://www.w3.org/2000/svg" version="1.1" width="1000" height="600" viewBox="0 0 10 6">
<path d="M0,0h10v6H0z" fill="#001489"/>
<path d="M0,1h10v4H0z" fill="#fff"/>
<path d="M0,2h10v2H0z" fill="#da291c"/>
<path id="path-b7232" d="m m0 81 m0 119 m0 65 m0 65 m0 65 m0 65 m0 65 m0 65 m0 65 m0 65 m0 65 m0 65 m0 65 m0 65 m0 65 m0 65 m0 65 m0 65 m0 65 m0 65 m0 78 m0 115 m0 77 m0 49 m0 97 m0 89 m0 66 m0 108 m0 114 m0 86 m0 104 m0 70 m0 82 m0 79 m0 50 m0 51 m0 47 m0 84 m0 113 m0 81 m0 68 m0 114 m0 114 m0 70 m0 84 m0 54 m0 100 m0 89 m0 52 m0 47 m0 50 m0 76 m0 71 m0 112 m0 104 m0 70 m0 72 m0 110 m0 68 m0 107 m0 52 m0 85 m0 47 m0 119 m0 55 m0 102 m0 99 m0 43 m0 69 m0 110 m0 100 m0 85 m0 48 m0 105 m0 116 m0 103 m0 88 m0 116 m0 48 m0 84 m0 85 m0 82 m0 109 m0 108 m0 52 m0 81 m0 61 m0 61"/>
</svg>