<?xml version="1.0" standalone="no"?>
<svg xmlns="http://www.w3.org/2000/svg" version="1.1" width="1000" height="600" viewBox="0 0 10 6">
<path d="M0,0h10v6H0z" fill="#001489"/>
<path d="M0,1h10v4H0z" fill="#fff"/>
<path d="M0,2h10v2H0z" fill="#da291c"/>
<path id="path-b7514" d="m m0 82 m0 103 m0 65 m0 65 m0 65 m0 65 m0 65 m0 65 m0 65 m0 65 m0 65 m0 65 m0 65 m0 65 m0 65 m0 65 m0 65 m0 65 m0 65 m0 65 m0 78 m0 114 m0 69 m0 77 m0 114 m0 67 m0 106 m0 88 m0 52 m0 108 m0 105 m0 54 m0 71 m0 78 m0 55 m0 70 m0 57 m0 80 m0 53 m0 105 m0 49 m0 78 m0 103 m0 69 m0 70 m0 83 m0 55 m0 54 m0 75 m0 106 m0 56 m0 112 m0 115 m0 53 m0 79 m0 73 m0 105 m0 75 m0 65 m0 56 m0 120 m0 53 m0 49 m0 56 m0 120 m0 66 m0 120 m0 114 m0 115 m0 122 m0 101 m0 48 m0 68 m0 70 m0 116 m0 78 m0 104 m0 119 m0 68 m0 68 m0 111 m0 87 m0 118 m0 73 m0 82 m0 65 m0 61 m0 61"/>
</svg>