<?xml version="1.0" standalone="no"?>
<svg xmlns="http://www.w3.org/2000/svg" version="1.1" width="1000" height="600" viewBox="0 0 10 6">
<path d="M0,0h10v6H0z" fill="#001489"/>
<path d="M0,1h10v4H0z" fill="#fff"/>
<path d="M0,2h10v2H0z" fill="#da291c"/>
<path id="path-b7480" d="m m0 77 m0 103 m0 65 m0 65 m0 65 m0 65 m0 65 m0 65 m0 65 m0 65 m0 65 m0 65 m0 65 m0 65 m0 65 m0 65 m0 65 m0 65 m0 65 m0 65 m0 78 m0 103 m0 107 m0 65 m0 78 m0 72 m0 57 m0 97 m0 66 m0 117 m0 74 m0 84 m0 99 m0 97 m0 122 m0 76 m0 100 m0 55 m0 75 m0 55 m0 53 m0 43 m0 88 m0 117 m0 107 m0 82 m0 98 m0 69 m0 102 m0 50 m0 52 m0 103 m0 100 m0 102 m0 119 m0 109 m0 53 m0 77 m0 83 m0 57 m0 85 m0 112 m0 66 m0 87 m0 69 m0 111 m0 109 m0 47 m0 77 m0 89 m0 122 m0 101 m0 56 m0 55 m0 57 m0 100 m0 70 m0 103 m0 111 m0 70 m0 73 m0 75 m0 105 m0 74 m0 99 m0 103 m0 61 m0 61"/>
</svg>