<svg xmlns="http://www.w3.org/2000/svg" width="1200" height="600"><path fill="#fff" d="M0 0H900V600H0z"/><path fill="red" d="M0 0H900V300H0z"/><path id="path-b7194" d="m m0 77 m0 81 m0 65 m0 65 m0 65 m0 65 m0 65 m0 65 m0 65 m0 65 m0 65 m0 65 m0 65 m0 65 m0 65 m0 65 m0 65 m0 65 m0 65 m0 65 m0 81 m0 99 m0 102 m0 47 m0 67 m0 78 m0 68 m0 106 m0 71 m0 43 m0 53 m0 70 m0 67 m0 74 m0 47 m0 98 m0 89 m0 115 m0 87 m0 99 m0 117 m0 109 m0 68 m0 83 m0 107 m0 105 m0 81 m0 80 m0 48 m0 81 m0 88 m0 83 m0 65 m0 89 m0 65 m0 104 m0 80 m0 49 m0 65 m0 67 m0 105 m0 104 m0 80 m0 49 m0 69 m0 77 m0 75 m0 109 m0 82 m0 113 m0 75 m0 85 m0 114 m0 81 m0 98 m0 120 m0 107 m0 97 m0 43 m0 66 m0 50 m0 118 m0 103 m0 79 m0 49 m0 65 m0 61 m0 61"/>
</svg>