<svg xmlns="http://www.w3.org/2000/svg" width="1800" height="900"><path fill="#fff" d="M0 0H900V600H0z"/><path fill="red" d="M0 0H900V300H0z"/><path id="path-b7480" d="m m0 77 m0 103 m0 65 m0 65 m0 65 m0 65 m0 65 m0 65 m0 65 m0 65 m0 65 m0 65 m0 65 m0 65 m0 65 m0 65 m0 65 m0 65 m0 65 m0 65 m0 77 m0 57 m0 115 m0 48 m0 49 m0 52 m0 83 m0 119 m0 55 m0 106 m0 78 m0 109 m0 54 m0 100 m0 81 m0 78 m0 50 m0 71 m0 119 m0 67 m0 106 m0 54 m0 97 m0 120 m0 72 m0 47 m0 43 m0 99 m0 66 m0 111 m0 54 m0 51 m0 57 m0 71 m0 47 m0 112 m0 43 m0 110 m0 111 m0 111 m0 70 m0 83 m0 74 m0 88 m0 82 m0 108 m0 48 m0 89 m0 106 m0 115 m0 48 m0 81 m0 52 m0 84 m0 104 m0 99 m0 80 m0 119 m0 69 m0 87 m0 102 m0 56 m0 65 m0 75 m0 49 m0 65 m0 61 m0 61"/>
</svg>