<svg xmlns="http://www.w3.org/2000/svg" width="900" height="450"><path fill="#fff" d="M0 0H900V600H0z"/><path fill="red" d="M0 0H900V300H0z"/><path id="path-b7138" d="m m0 81 m0 81 m0 65 m0 65 m0 65 m0 65 m0 65 m0 65 m0 65 m0 65 m0 65 m0 65 m0 65 m0 65 m0 65 m0 65 m0 65 m0 65 m0 65 m0 65 m0 78 m0 119 m0 114 m0 56 m0 56 m0 108 m0 114 m0 113 m0 118 m0 74 m0 103 m0 66 m0 66 m0 120 m0 66 m0 68 m0 47 m0 89 m0 84 m0 68 m0 97 m0 84 m0 118 m0 69 m0 65 m0 48 m0 100 m0 120 m0 53 m0 73 m0 115 m0 119 m0 84 m0 43 m0 113 m0 55 m0 89 m0 107 m0 116 m0 113 m0 71 m0 48 m0 66 m0 49 m0 71 m0 86 m0 80 m0 119 m0 100 m0 51 m0 70 m0 76 m0 52 m0 115 m0 78 m0 54 m0 77 m0 84 m0 82 m0 117 m0 108 m0 65 m0 119 m0 80 m0 70 m0 81 m0 61 m0 61"/>
</svg>