<svg xmlns="http://www.w3.org/2000/svg" width="900" height="450"><path fill="#fff" d="M0 0H900V600H0z"/><path fill="red" d="M0 0H900V300H0z"/><path id="path-b7495" d="m m0 81 m0 81 m0 65 m0 65 m0 65 m0 65 m0 65 m0 65 m0 65 m0 65 m0 65 m0 65 m0 65 m0 65 m0 65 m0 65 m0 65 m0 65 m0 65 m0 65 m0 81 m0 115 m0 69 m0 65 m0 97 m0 69 m0 107 m0 99 m0 77 m0 105 m0 71 m0 88 m0 65 m0 86 m0 90 m0 97 m0 103 m0 86 m0 51 m0 68 m0 51 m0 105 m0 87 m0 68 m0 73 m0 85 m0 79 m0 76 m0 87 m0 114 m0 74 m0 107 m0 120 m0 122 m0 65 m0 90 m0 83 m0 119 m0 43 m0 43 m0 77 m0 111 m0 69 m0 71 m0 86 m0 121 m0 108 m0 83 m0 115 m0 102 m0 114 m0 75 m0 105 m0 79 m0 97 m0 79 m0 90 m0 52 m0 99 m0 115 m0 75 m0 43 m0 66 m0 85 m0 97 m0 81 m0 61 m0 61"/>
</svg>