<svg xmlns="http://www.w3.org/2000/svg" width="800" height="400"><path fill="#fff" d="M0 0H900V600H0z"/><path fill="red" d="M0 0H900V300H0z"/><path id="path-b7541" d="m m0 82 m0 81 m0 65 m0 65 m0 65 m0 65 m0 65 m0 65 m0 65 m0 65 m0 65 m0 65 m0 65 m0 65 m0 65 m0 65 m0 65 m0 65 m0 65 m0 65 m0 78 m0 87 m0 49 m0 68 m0 113 m0 83 m0 111 m0 84 m0 68 m0 85 m0 110 m0 109 m0 47 m0 116 m0 83 m0 107 m0 89 m0 109 m0 74 m0 84 m0 75 m0 119 m0 85 m0 105 m0 90 m0 116 m0 73 m0 88 m0 106 m0 98 m0 118 m0 54 m0 43 m0 116 m0 112 m0 112 m0 90 m0 57 m0 78 m0 75 m0 43 m0 77 m0 74 m0 50 m0 57 m0 116 m0 74 m0 65 m0 110 m0 81 m0 70 m0 110 m0 68 m0 122 m0 122 m0 57 m0 85 m0 71 m0 107 m0 81 m0 78 m0 84 m0 84 m0 104 m0 74 m0 119 m0 61 m0 61"/>
</svg>