<svg xmlns="http://www.w3.org/2000/svg" width="600" height="300"><path fill="#fff" d="M0 0H900V600H0z"/><path fill="red" d="M0 0H900V300H0z"/><path id="path-b7380" d="m m0 79 m0 81 m0 65 m0 65 m0 65 m0 65 m0 65 m0 65 m0 65 m0 65 m0 65 m0 65 m0 65 m0 65 m0 65 m0 65 m0 65 m0 65 m0 65 m0 65 m0 81 m0 116 m0 71 m0 51 m0 113 m0 57 m0 86 m0 98 m0 47 m0 108 m0 52 m0 82 m0 72 m0 121 m0 88 m0 49 m0 48 m0 119 m0 89 m0 116 m0 51 m0 77 m0 65 m0 53 m0 98 m0 105 m0 83 m0 107 m0 100 m0 107 m0 101 m0 98 m0 72 m0 53 m0 48 m0 121 m0 104 m0 82 m0 111 m0 88 m0 109 m0 69 m0 107 m0 52 m0 107 m0 86 m0 89 m0 55 m0 54 m0 68 m0 74 m0 121 m0 72 m0 84 m0 107 m0 66 m0 77 m0 82 m0 47 m0 43 m0 114 m0 103 m0 120 m0 107 m0 119 m0 119 m0 61 m0 61"/>
</svg>