<svg xmlns="http://www.w3.org/2000/svg" width="300" height="150" viewBox="0 0 291 146"><clipPath id="a"><path d="M0 2126h4252V0H0z"/></clipPath><clipPath id="b"><path d="M0 2126h4252V0H0z"/></clipPath><clipPath id="c"><path d="M0 2126h4252V0H0z"/></clipPath><clipPath id="d"><path d="M1838 511h13v-85h-13z"/></clipPath><clipPath id="e"><path d="M2369 511h13v-85h-13z"/></clipPath><clipPath id="f"><path d="M0 2126h4252V0H0z"/></clipPath><clipPath id="g"><path d="M0 2126h4252V0H0z"/></clipPath><clipPath id="h"><path d="M0 2126h4252V0H0z"/></clipPath><clipPath id="i"><path d="M0 2126h4252V0H0z"/></clipPath><path fill="#0033a1" d="M0 146h291V0H0z" style="stroke-width:.068449"/><g clip-path="url(#a)" transform="matrix(.06845 0 0 -.06845 0 146)"><path fill="#dcdcdc" d="M0 0s-11 3-16 7-8-2-16-3c-8-2-18-1-24-9s-6 0-15-9-12-12-17-20c-4-8-4-7-15-9-10-2-27-7-19-12 8-4 12-6 7-13s-6-5-5-11c0-6-8-6-9-13-2-7-6-23 4-20 11 3 11 1 15 8s7 5 10 7c2 2 4 5 7-2 2-6 6-8 12 2 5 10 4 13 19 11 16-1 18 7 26 5s8-10 18-4 18 1 25-1 15-7 20-11c5-5 7-7 20-8 13 0 16-5 27 5l-3 55L17-6z" style="fill:#e8e8e8;fill-opacity:1" transform="translate(1460 620)"/><g fill="#e357b8" stroke-linecap="square" stroke-miterlimit="33"><path d="M1343 537c0 2 2 3 3 4l5 2 1-4-3-6-4-2c-2 1-3 4-2 6zm0-10-4-2c-2-3-4-6-2-9h4l5 5c2 2 5 4 4 7l-2 1-5-2zm32 10c-1 1-3-1-5-2l-3-3v-5h4l3 2 1 4v4zm-9 9h-6l-5-4v-5c0-2 2-4 4-4 2-1 5 1 6 3l1 5v5zm-8 13-3-2c-1-1-2-4-1-5 1-2 4-3 6-2 2 0 3 2 4 3 1 2 4 4 4 7l-1 1-9-2zm16 13-5 1h-6l-2-5 4-4 4-1 6 2 5 3-2 3-4 1zm8 11h-5c-2 0-2-2-2-4 1-1 3-3 5-3l3 1c1 0 4 0 4 2 1 2-3 3-5 4zm3-14-3-2a5 5 0 0 1-2-3v-4l5-1 2 1c3 2 4 5 4 8l-1 2-2 1-3-2zm-9-19c-2-2-3-4-2-7l2-2c3-1 6 0 8 1l1 4 1 7c-1 1-2 3-4 3-3 0-5-3-6-6zm13 2c-1-2-2-4-1-5 1-3 3-5 5-5 3 1 5 3 5 6 1 2-1 5-1 7l-3 4-2-1-3-6zm12 24c-2 0-4 0-5-2-2-2-3-5-1-7 1-2 6-1 8 0 3 1 4 3 5 5 1 1 2 3 1 4h-8zm7 22-6 1-6-1c-3-1-6-2-7-5l2-6 6-2 8 1c2 1 5 1 7 3 1 2 2 5 1 7s-3 1-5 2zm9 12c-1 2-4 3-6 3l-5-5 1-4c1-2 4-3 6-4l5-2c2 2 2 5 2 7s-1 4-3 5zm8 1v-7c0-3 3-6 5-7 2-2 4-2 6-2s5 0 6 2v14l-3 3-8 1c-3-1-5-2-6-4zm2-26-5-2-5-4-1-3 2-5 6-3h6l5 1c2 2 2 5 2 8 0 2 0 4-2 5-2 3-5 4-8 4v-1zm-10-26h-8c-3-1-6-5-7-8 0-2 2-3 3-4 3-1 6 0 9 1 4 1 9 2 11 5 1 2 0 4-1 5l-7 1zm17-1-4-5v-5l5-3h6c3 2 3 6 4 10l-1 11-2 2c-2 0-4-2-5-4l-2-3-1-3zm22 22c-2 0-3 2-5 3l-2 6c-1 2 0 4 2 5 1 2 4 1 6 0s3-3 3-5c1-2 2-4 1-5-1-2-3-4-5-4zm0-17-2-5c0-2-1-4 1-5 1-2 4-4 7-3s6 4 7 7c1 2 2 5 1 7 0 2-1 5-3 6h-3l-4-2-4-5zm20-11c-1-3 0-5 1-8l2-6 4-4 6 1 5 5c0 3-1 6-3 8l-5 5-5 2-5-3zm18-21v-6c1-2 3-4 5-4 3-1 7 0 8 2 2 3 0 8-3 11-2 2-6 5-9 3l-1-6zm-4 35c0 3-3 5-5 6h-8c-3-2-3-7-2-10 1-2 4-2 5-3l7 1 3 6z" style="paint-order:markers fill stroke"/><path d="M92 107v-1l1 1h-1z" style="paint-order:markers fill stroke" transform="matrix(14.609 0 0 -14.609 0 2126)"/></g><path fill="#dcdcdc" d="m0 0-38-51-23-16-2-12c-2-3-1-3 1-6s2-4-1-6c-3-3-2-1-1-6 0-5 0-4-3-6-3-3-6-5-5-12 1-8 2-8 5-11 4-3 4-1 5-7l3-12c2-7 1-4 5-6s6-4 8-7 6-5 11-8c4-2 12 4 14-3s6-6 6-12c1-7 1-9 7-13 6-3 4-5 11-10 7-4 5-5 11-3 7 1 9 6 16 0 7-5 11-6 16-8 6-2 9-5 11-2 3 3 0 7-1 11l-8 12c-4 4 0 7-7 11-6 5-13 13-16 18-4 5-8 3-8 10-1 7-6 8-3 14 2 5-3 9 0 17l11 20c6 8 11 10 14 19 2 8-3 13 1 18 4 4-1 8 4 15 4 8 3 6 4 12 0 7 1 6-3 12s3 22-9 32l-1 1z" style="fill:#e8e8e8;fill-opacity:1" transform="translate(2667 520)"/><path fill="#e357b8" d="m2614 428-1-7v-5c0-3 2-5 4-6h5c2 1 4 0 5 2 2 1 1 4 1 6 0 3-1 7-3 9l-6 3-5-2zm-4-23c-2-2 0-5 1-6 1-2 1-3 3-3l4-2c2 1 3 3 3 5l-4 5c-2 1-6 2-7 1zm19-6c-2 0-4-2-5-4v-8c2-3 4-4 7-4 3-1 6-1 8 1s2 5 3 8v6c-2 2-5 2-7 2l-6-1zm-9-20-2-4 1-5 4-2c2 0 4 1 5 3s0 5-1 7-2 5-5 5l-2-4zm12-9 1-6 1-3h5l2 2-2 4c-1 2-2 5-4 5l-3-2zm18-14c-2-3 1-6 2-8 1-1 2-3 4-3h5l2 2v5l-5 4-5 1-3-1zm17-13c-2 0-3-2-5-3l-1-2-1-4 2-3 4-1 4 2v6c-1 2-1 4-3 5zm4-2 2-9 4-5h6a6 6 0 0 1 2 8l-6 4c-3 1-6 3-8 2zm20-8v-10l4-1 3 2c1 2 0 5-1 6 0 2-2 3-4 4l-2-1zm11-4 2-4 3-4h4c2 1 0 4-1 6l-3 3-4 1-1-2zm9-13c0-2 2-3 3-4l2-1 3 2c1 2-1 3-2 3l-4 1-2-1zm-22 33-4-2c0-2 1-5 3-6 1-2 4-3 6-2l3 3-2 5c-1 2-2 4-4 4l-2-2zm-18 13c-2-1-3-3-3-5l2-5 4-2 3 2 2 3v5c-1 2-3 3-5 3l-3-1zm-5 21c-2-2-4-3-4-5l-1-5 2-6c2-1 5 0 7 1 1 1 3 2 3 4l1 8c-1 3-1 7-4 7-1 1-2 0-2-1l-2-3zm-15-3-4-1c-2 0-4-1-4-3-1-1 0-3 1-4h6c2 1 4 4 4 6l-3 2zm2-9-3-3v-3l2-4 3 1c2 2 3 4 3 7l-1 5c-2 1-3-2-4-3zm-4 26-1-4v-5h5l2 2v7c-1 2-1 4-3 4s-2-3-3-4zm13 8c-1-2 1-3 2-5l1-4h4c1 0 3 1 3 3l-2 5c-1 1-3 3-5 3l-3-2zm17 2c2-1 4-2 5-1l3 2c1 1 2 3 1 4 0 2-1 4-3 5-1 1-9 3-10 2s2-10 4-12zm-40 13c-1-1-4-2-4-4-1-2 0-5 1-7 2-2 5-3 7-2 3 0 6 1 8 3 2 3 2 6 2 9-1 2-1 5-3 5l-11-4zm-3 19-2-5v-6h5c2 1 3 2 3 4v6l-3 3-3-2zm14 6 2-7 4-5h5l4 3v7c-1 1-3 3-5 3-2 1-5 2-8 1l-2-2zm12-17c-2-2 0-6 1-9 1-1 1-3 3-3h4l2 5c0 2-2 4-4 5s-4 3-6 2zm11 10c-2-1-1-4-1-6s0-4 2-5c1-1 3-2 4-1 2 0 3 1 4 3v5l-5 4h-4zm14-2c-2-1 0-5 1-7l3-3 4 2 1 4c-1 2-5 3-7 4h-2zm-9 23c-2 1-4-2-5-4a8 8 0 0 1-2-4l1-4c1-2 4-2 6-2 2 1 3 4 4 6l-2 6-2 2zm-7 13c-2 0-2-4-2-6v-5l3-1c2 0 4 1 5 3l-2 5c-1 2-2 4-4 4zm5 21c-2-1-1-5-1-7 1-2 2-5 4-5s4 2 5 3l-2 6c-1 2-4 4-6 3zm14-7c-2 0-4-3-5-6l-1-5 3-6 4-1c2 1 4 2 4 4 2 2 1 6 0 9-1 2-2 5-5 5zm12-14c-2 1-3-3-5-4l-1-4 1-4 4-1c3 2 3 6 3 9 0 1 0 4-2 4zm-16-14c-2-2-1-5-1-8 0-2 1-5 3-6 1-1 3-2 4-1 2 0 5 2 5 4 1 3-1 5-2 7l-7 4h-2zm12 46c-3-1-2-5-3-8l1-7c1-1 2-3 4-3l6 2c2 3 1 6 0 9l-3 5c-2 2-4 3-5 2z" style="paint-order:markers fill stroke"/><path fill="#76bc21" d="M1513 522s-28-113 60-173c0 0-57 97-10 173z"/><path fill="#007935" d="M1518 520s-11-69 17-108c0 0-9 67 16 107z"/><path fill="#76bc21" d="M1564 470s1-18-2-28c-3-11-11-43 26-70 38-27 51-33 58-66 0 0 3 53-29 82s-31 40-12 59z"/><path fill="#007935" d="M1569 463s2-15-2-28c-5-12-4-45 40-61 0 0-41 45-11 73z"/><path fill="#76bc21" d="M2735 425s45 61 14 167l33 43s56-132-47-210"/><path fill="#76bc21" d="M2793 638s47-63 30-150c0 0 68 77-8 181l-16-7z"/><path fill="#007935" d="M2799 640s30-29 40-72c0 0 5 50-26 96l-12-7zm-20-13s22-71-2-115c0 0 5 48-19 88z"/><path fill="#d0362d" d="M2663 442a5 5 0 0 0-8-5 5 5 0 0 0 8 5m8-67a5 5 0 1 0-8-4 5 5 0 0 0 8 4m34 118a5 5 0 1 0-8-4 5 5 0 0 0 8 4m-11-17a5 5 0 0 0-2-6 5 5 0 1 0 2 6m1-26a5 5 0 1 0-8-5 5 5 0 0 0 8 5M1442 554a5 5 0 1 0-8-5 5 5 0 0 0 8 5m17 37a5 5 0 1 0-8-5 5 5 0 0 0 8 5m28-23a5 5 0 1 0-8-5 5 5 0 0 0 8 5m19-39a5 5 0 1 0-8-5 5 5 0 1 0 8 5m-70 80a6 6 0 1 0-7 2 6 6 0 0 0 7-2m-33-14a6 6 0 1 0-9-6 6 6 0 0 0 9 6m27-16a6 6 0 1 0-10-5 6 6 0 0 0 10 5m36-19a6 6 0 1 0-10-5 6 6 0 0 0 10 5m24-16a6 6 0 1 0-10-5 6 6 0 0 0 10 5m1157-128a6 6 0 1 0-9-6 6 6 0 0 0 9 6m-22 4a6 6 0 1 0-10-5 6 6 0 0 0 10 5m12-26a6 6 0 1 0-9-6 6 6 0 0 0 9 6M1415 609a4 4 0 1 0-6-4 4 4 0 0 0 6 4m-12-37a4 4 0 1 0-7-4 4 4 0 0 0 7 4m9-19a4 4 0 1 0-6-4 4 4 0 0 0 6 4m-16-3a4 4 0 1 0-6-4 4 4 0 0 0 6 4m-14-3a4 4 0 1 0-6-4 4 4 0 0 0 6 4m-12 23a4 4 0 1 0-6-4 4 4 0 0 0 6 4m-8-14a4 4 0 1 0-7-4 4 4 0 0 0 7 4m1-16a4 4 0 1 0-7-3 4 4 0 0 0 7 3m-12 29a4 4 0 1 0-6-4 4 4 0 0 0 6 4m1344-223a4 4 0 1 0-7-4 4 4 0 0 0 7 4m-11-12a4 4 0 1 0-7-4 4 4 0 0 0 7 4m-16 3a4 4 0 1 0-7-4 4 4 0 0 0 7 4m-7 14a4 4 0 1 0-6-4 4 4 0 0 0 6 4m17 6a4 4 0 1 0-7-4 4 4 0 0 0 7 4m2 76a4 4 0 0 0-1-5 4 4 0 0 0-5 1 4 4 0 1 0 6 4m7-21a4 4 0 1 0-7-3 4 4 0 0 0 7 3m-8 40a4 4 0 1 0-6-3 4 4 0 0 0 6 3M1382 581a3 3 0 1 0-5-2 3 3 0 0 0 5 2m4-16a3 3 0 1 0-5-3 3 3 0 0 0 5 3m-13-33a3 3 0 1 0-4-2 3 3 0 0 0 4 2m-24 5a3 3 0 1 0-5-2 3 3 0 0 0 5 2m-5-14a3 3 0 1 0-5-3 3 3 0 0 0 5 3m1295-158a3 3 0 1 0-5-3 3 3 0 0 0 5 3m-14 10a3 3 0 1 0-5-3 3 3 0 0 0 5 3m-7 25a3 3 0 1 0-5-3 3 3 0 0 0 5 3m37-7a3 3 0 1 0-5-3 3 3 0 0 0 5 3m-6-16a3 3 0 1 0-5-3 3 3 0 0 0 5 3m7-11a3 3 0 1 0-5-3 3 3 0 0 0 5 3m14 35a3 3 0 1 0-5-3 3 3 0 0 0 5 3m0 20a3 3 0 1 0-5-3 3 3 0 0 0 5 3m25 10a3 3 0 1 0-5-3 3 3 0 0 0 5 3m-54 2a3 3 0 1 0-5-2 3 3 0 0 0 5 2m61 31a3 3 0 1 0-5-2 3 3 0 0 0 5 2m-27 0a3 3 0 1 0-5-3 3 3 0 0 0 5 3m7 22a3 3 0 1 0-5-3 3 3 0 0 0 5 3m15-159a3 3 0 1 0-5-3 3 3 0 0 0 5 3m13-2a3 3 0 1 0-5-2 3 3 0 0 0 5 2m8-10a2 2 0 0 0-3-2 2 2 0 0 0 0 3 2 2 0 0 0 3-1"/></g><g clip-path="url(#b)" transform="matrix(.06845 0 0 -.06845 0 146)"><path fill="#fff" d="M0 0s14-46 40-52c27-5 73 4 69 70L96 81-12 45z" style="display:inline;fill:#fff;fill-opacity:1" transform="translate(2318 375)"/><path fill="none" stroke="#0033a1" stroke-width="5" d="M2318 375s14-46 41-52c26-5 72 4 68 70l-12 63-109-36z"/><path fill="#fff" d="m0 0-73 8 14-133L54-81z" style="fill:#fff;fill-opacity:1" transform="translate(2345 585)"/><path fill="#b1b4b3" d="M2339 420s3-47 25-57 52 3 57 31l-10 53z"/><path fill="#fff" d="M0 0s-25 24-54 7c-30-17-27-45-6-74 20-29 50-66 50-66l63 44z" style="fill:#e8e8e8;fill-opacity:1" transform="translate(2403 627)"/><path fill="none" stroke="#0033a1" stroke-width="5" d="M0 0s-25 24-54 7c-30-17-27-45-6-74 20-29 50-66 50-66l63 44z" style="fill:#fff;fill-opacity:1" transform="translate(2403 627)"/><path fill="#b1b4b3" d="M2412 518s-32 31-45 61c-13 29 5 44 31 46l48-89z"/><path fill="#fff" d="M0 0s-21 8-38 0-34-27-6-75l42-70 57 51z" style="fill:#fff;fill-opacity:1" transform="translate(2451 663)"/><path fill="none" stroke="#0033a1" stroke-width="5" d="M2451 663s-21 8-38 0-34-28-6-75l42-70 57 51z"/><path fill="#fff" d="M2405 455s-1-75 35-93c37-18 84 8 78 66l-23 67z"/><path fill="none" stroke="#0033a1" stroke-width="5" d="M0 0s-1-75 35-93c37-18 83 8 78 66L90 40z" style="fill:#fff;fill-opacity:1" transform="translate(2405 455)"/><path fill="#b1b4b3" d="M2462 545s-25 30-39 68 20 42 26 43l53-87z"/><path fill="#fff" d="m0 0 32 78-26 47c1-1-31-30-31-30l-44-80z" style="fill:#fff;fill-opacity:1" transform="translate(1895 481)"/><path fill="#fff" d="M2520 695s-31 20-60-3c-30-23-20-53-11-70 10-16 35-50 59-72l63 62z"/><path fill="none" stroke="#0033a1" stroke-width="5" d="M0 0s-31 20-60-3c-30-23-20-53-10-70 9-16 34-50 58-72l64 61z" style="fill:#fff;fill-opacity:1" transform="translate(2520 695)"/><path fill="#b1b4b3" d="M2510 576s-30 26-39 57 8 50 43 52l44-71z"/><path fill="#fff" d="M0 0s-1-22 21-43c15-14 37-22 54-11 22 14 31 48 30 96L27 79z" style="fill:#fff;fill-opacity:1" transform="translate(1787 376)"/><path fill="none" stroke="#0033a1" stroke-width="5" d="M1787 376s-2-21 21-43c14-14 37-21 53-11 23 15 31 48 31 97l-78 36z"/><path fill="#fff" d="M0 0s18 20 41 15c27-6 53-35 33-73-19-35-50-58-59-64l-73 39z" style="fill:#fff;fill-opacity:1" transform="translate(1818 618)"/><path fill="none" stroke="#0033a1" stroke-width="5" d="M1818 618s18 21 41 16c27-6 53-36 33-74-19-35-51-58-59-64l-73 39z"/><path fill="#b1b4b3" d="M1801 378s7-14 19-21 44-18 48 63l-50 16z"/><path fill="#fff" d="M0 0s0-31 24-50c23-19 48-17 61-5 14 12 38 50 30 88L30 73z" style="fill:#fff;fill-opacity:1" transform="translate(1707 414)"/><path fill="none" stroke="#0033a1" stroke-width="5" d="M1707 414s-1-31 23-50 48-17 62-5 37 50 30 87l-85 41z"/><path fill="#fff" d="M0 0s-25-5-38-19C-50-33-73-69-5-146l78 62z" style="fill:#fff;fill-opacity:1" transform="translate(2560 751)"/><path fill="none" stroke="#0033a1" stroke-width="5" d="M2560 751s-26-5-38-19c-13-14-35-50 33-127l77 62z"/><path fill="#b1b4b3" d="M2431 456s1-33 15-55 52-16 64 12l-20 74zm-712-40s4-19 18-27c15-9 29-13 45 1 15 15 21 35 23 52l-66 33zm848 206s-75 94-2 108l55-54zm-741 0s16 4 27-9c10-14 27-44-27-101l-58 28z"/><path fill="#fff" d="M0 0s-5-58 20-78c23-19 43-20 61-14 28 9 47 65 42 93L36 64z" style="fill:#fff;fill-opacity:1" transform="translate(1623 486)"/><path fill="none" stroke="#0033a1" stroke-width="5" d="M1623 486s-5-58 19-79c23-19 44-19 61-13 29 9 48 65 43 93l-87 63z"/><path fill="#fff" d="M0 0s19 4 37-10S82-66-7-129l-59 33z" style="fill:#fff;fill-opacity:1" transform="translate(1778 664)"/><path fill="none" stroke="#0033a1" stroke-width="5" d="M1778 664s18 5 37-10c17-14 45-56-45-119l-59 33z"/><path fill="#b1b4b3" d="M1631 465s4-27 30-38 48 8 54 22c5 14 8 19 11 38l-70 45z"/><path fill="#fff" d="M1555 525s-8-50 19-69c28-18 48-10 57-1 8 9 29 35 28 85l-60 53z"/><path fill="none" stroke="#0033a1" stroke-width="5" d="M0 0s-8-50 19-69c27-18 48-9 56-1 9 9 30 35 28 85L43 68z" style="fill:#fff;fill-opacity:1" transform="translate(1555 525)"/><path fill="#b1b4b3" d="M1779 640s14-4 18-26c3-21-14-47-37-66l-33 19z"/><path fill="#fff" d="M2490 493s-8-53 25-85c34-33 89-12 85 58l-23 90z"/><path fill="none" stroke="#0033a1" stroke-width="5" d="M0 0s-8-53 25-85c33-33 89-12 85 58L87 63z" style="fill:#e8e8e8;fill-opacity:1" transform="translate(2490 493)"/><path fill="#b1b4b3" d="M1569 528s-4-28 15-39 36-6 45 9c10 16 13 28 13 44l-41 38z"/><path fill="#fff" d="M0 0s9 6 19 7c9 2 32-1 43-22S85-77 7-144l-76 52z" style="fill:#fff;fill-opacity:1" transform="translate(1719 698)"/><path fill="none" stroke="#0033a1" stroke-width="5" d="M1719 698s9 6 19 8c9 2 32-2 43-22 11-22 23-63-55-129l-76 52z"/><path fill="#b1b4b3" d="M2518 504s-9-33 1-60c8-22 26-27 33-27 12 0 42 9 44 43l-15 92zm-800 185s15-6 22-13c8-7 32-43-32-97l-45 33z"/><path fill="#fff" d="M0 0s-3-35 9-49 22-17 42-17c19 0 31 7 42 19 10 12 15 33 16 51L57 61z" style="fill:#fff;fill-opacity:1" transform="translate(1500 581)"/><path fill="none" stroke="#0033a1" stroke-width="5" d="M1500 581s-3-35 9-49 22-17 41-17c20 1 32 8 42 20 11 11 16 33 16 51l-51 56z"/><path fill="#b1b4b3" d="M1508 579s-1-19 10-29c10-10 38-15 53 2 14 17 17 43 17 43l-29 29z"/><path fill="#fff" d="M0 0s-9-33 3-50 21-19 35-25c9-3 20-5 37 9 18 13 30 27 33 46L68 43z" style="fill:#fff;fill-opacity:1" transform="translate(1456 647)"/><path fill="none" stroke="#0033a1" stroke-width="5" d="M1456 647s-9-33 3-50c11-16 21-19 35-24 8-4 20-5 37 8 17 14 30 28 33 46l-40 63z"/><path fill="#fff" d="M0 0s26-1 42-29 3-68-56-115l-63 53z" style="fill:#fff;fill-opacity:1" transform="translate(1677 748)"/><path fill="none" stroke="#0033a1" stroke-width="5" d="M1677 748s26-1 42-29c15-28 3-68-57-115l-63 54z"/><path fill="#b1b4b3" d="M1460 642s-4-17 5-26c9-10 29-27 49-13 17 11 25 23 29 44l-22 31-24-34z"/><path fill="#fff" d="M0 0s-4-55 2-75c5-20 15-43 48-43 37 0 59 51 50 87L53 41z" style="fill:#fff;fill-opacity:1" transform="translate(2571 561)"/><path fill="none" stroke="#0033a1" stroke-width="5" d="M2571 561s-4-55 2-75c6-21 15-43 48-43 37-1 60 51 51 87l-48 72z"/><path fill="#b1b4b3" d="M1669 721s22-15 22-39c-1-22-12-40-38-64l-45 45z"/><path fill="#fff" d="M0 0s-10-22 6-36 35-26 53-24c18 3 33 32 38 58L63 66z" style="fill:#fff;fill-opacity:1" transform="translate(1430 687)"/><path fill="none" stroke="#0033a1" stroke-width="5" d="M1430 687s-10-22 6-36c15-14 34-26 52-23s34 31 38 57l-33 68z"/><path fill="#b1b4b3" d="M2592 560s-7-34 1-55c8-22 26-42 51-31 24 12 28 35 26 51l-45 68zM1441 674s5-14 18-20 29-5 38 7 17 32 17 32l-23 43z"/><path fill="#fff" d="M0 0s17 11 35 8c14-3 23-9 33-21 11-12 15-32 10-48-6-21-36-52-77-73l-60 87z" style="fill:#fff;fill-opacity:1" transform="translate(1605 789)"/><path fill="none" stroke="#0033a1" stroke-width="5" d="M1605 789s17 11 35 8c14-3 23-10 33-22 11-12 15-31 10-47-6-21-36-53-77-74l-60 87z"/><path fill="#fff" d="M2619 800s-26 7-45-9c-20-19-25-37-20-57 7-28 46-57 68-69l66 75z"/><path fill="none" stroke="#0033a1" stroke-width="5" d="M0 0s-27 7-45-9c-20-18-25-36-20-57 7-27 46-57 68-69l66 75z" style="fill:#fff;fill-opacity:1" transform="translate(2619 800)"/><path fill="#b1b4b3" d="M1605 784s13 3 29-8c13-10 21-25 18-43-5-22-42-52-55-59l-45 59zm1030-95s-31 10-48 41c-16 32 0 56 37 67l50-54z"/><path fill="#fff" d="M0 0s-13-42 18-61 56-16 66 4C95-36 98-19 99 6L77 64z" style="fill:#fff;fill-opacity:1" transform="translate(1397 740)"/><path fill="none" stroke="#0033a1" stroke-width="5" d="M1397 740s-13-42 18-61c31-20 56-16 67 4 10 21 14 38 15 63l-23 57z"/><path fill="#fff" d="M1570 876s23 16 42-2 34-41 10-75c-25-34-56-60-70-75l-44 84z"/><path fill="none" stroke="#0033a1" stroke-width="5" d="M0 0s23 16 42-2 34-41 10-75c-25-35-56-60-69-75l-44 84z" style="fill:#fff;fill-opacity:1" transform="translate(1570 876)"/><path fill="#b1b4b3" d="M1415 733s-13-24 0-33 33-18 48-6c16 13 25 64 25 64l-16 33z"/><path fill="#fff" d="M0 0s-1-35 8-50 22-31 45-35 63 9 55 64L52 54z" style="fill:#e8e8e8;fill-opacity:1" transform="translate(2619 600)"/><path fill="none" stroke="#0033a1" stroke-width="5" d="M2619 600s-1-35 8-50 22-31 45-35 63 9 55 64l-56 75z"/><path fill="#b1b4b3" d="M1580 869s18-15 21-26c3-10 19-26-58-95l-27 46zm1059-266s-1-26 12-43c14-16 33-21 47-17 13 4 27 14 25 34l-52 70z"/><path fill="#fff" d="M2663 648s8-35 24-57c15-22 41-33 65-15 25 18 25 36 19 59l-67 61z"/><path fill="none" stroke="#0033a1" stroke-width="5" d="M0 0s7-35 23-57c16-23 41-34 66-15 25 18 25 36 19 59L41 47z" style="fill:#fff;fill-opacity:1" transform="translate(2663 648)"/><path fill="#b1b4b3" d="M2677 653s7-31 29-45c22-15 49-11 55 23l-59 61z"/><path fill="#fff" d="M2654 872s-20 6-35-14c-15-21-19-42-4-63 18-26 63-59 63-59l42 63z"/><path fill="none" stroke="#0033a1" stroke-width="5" d="M0 0s-20 7-35-14c-15-20-19-41-4-63 18-26 63-58 63-58l42 62z" style="fill:#fff;fill-opacity:1" transform="translate(2654 872)"/><path fill="#fff" d="M0 0s11-37 39-56c24-17 80-20 71 40L27 57z" style="fill:#fff;fill-opacity:1" transform="translate(2697 691)"/><path fill="none" stroke="#0033a1" stroke-width="5" d="M2697 691s11-37 39-56c24-17 80-19 71 40l-83 73z"/><path fill="#b1b4b3" d="M2682 758s-30 19-46 43c-16 25 6 51 23 61l45-58zm29-47s4-18 14-32c9-14 27-31 53-27 26 5 15 25 15 25l-70 53z"/><path fill="#fff" d="M0 0s21 32 47 48c27 16 43-5 54-24 10-19 16-55-6-81-23-26-46-49-68-65z" style="fill:#fff;fill-opacity:1" transform="translate(1483 903)"/><path fill="none" stroke="#0033a1" stroke-width="5" d="M1483 903s20 32 47 48c27 17 43-4 54-24 10-19 16-54-7-80-22-26-46-50-67-65z"/><path fill="#fff" d="m0 0-48 59c-18 22-33 58 13 94l56-4 36-79z" style="fill:#fff;fill-opacity:1" transform="translate(2703 795)"/><path fill="none" stroke="#0033a1" stroke-width="5" d="m2703 795-48 59c-18 21-32 58 13 94l56-4 37-79z"/><path fill="#fff" d="M0 0s11-34 33-54c22-21 47-24 69-15 21 8 28 45 10 66L49 47l-29 8z" style="fill:#fff;fill-opacity:1" transform="translate(2717 736)"/><path fill="none" stroke="#0033a1" stroke-width="5" d="M2717 736s11-33 33-54 47-24 69-15c21 9 28 46 10 66l-63 50-29 8z"/><path fill="#b1b4b3" d="M1512 803s38 32 52 63c14 30 0 57-13 69-12 11-30 16-72-41zm1220-50s8-29 26-47c19-18 37-19 50-17 13 3 23 17 18 31l-81 64zm-18 66s-30 19-45 49c-15 31 4 48 22 67l41-63z"/></g><g clip-path="url(#c)" transform="matrix(.06845 0 0 -.06845 0 146)"><path fill="#c16b13" d="M1903 490s-305 66-415 387l-26-55s53-307 444-415z"/><path fill="none" stroke="#0033a1" stroke-width="5" d="M1903 490s-305 66-415 387l-26-55s53-307 444-415z"/><g clip-path="url(#d)"><path fill="#c16b13" stroke="#0033a1" stroke-width="5" d="M1840 510s16-40 5-83"/></g><g fill="#c16b13"><path stroke="#0033a1" stroke-width="5" d="M1758 464s21 37 5 83m-67 44s9-43-13-81m-65 52s21 32 19 79m-73-21s20 34 18 82m-67-12s24 25 26 72m-33 64s-2-36-30-59"/><path d="m2259 394 55 13c391 108 445 415 445 415l-27 55c-110-321-415-387-415-387l-55-13z"/></g><path fill="none" stroke="#0033a1" stroke-width="5" d="m2259 394 55 13c391 108 445 415 445 415l-27 55c-110-321-415-387-415-387l-55-13z"/><g clip-path="url(#e)"><path fill="#c16b13" stroke="#0033a1" stroke-width="5" d="M2380 510s-15-40-4-83"/></g><path fill="#c16b13" stroke="#0033a1" stroke-width="5" d="M2462 464s-21 37-5 83m67 44s-9-43 13-81m65 52s-21 32-18 79m73-21s-20 34-19 82m67-12s-24 25-25 72m32 64s2-36 30-59"/></g><g clip-path="url(#f)" transform="matrix(.06845 0 0 -.06845 0 146)"><path fill="#fff" d="M0 0s1-26 9-49c6-20 25-26 35-28 9-1 26 0 38 17s9 30 8 58z" style="fill:#fff;fill-opacity:1" transform="translate(1377 784)"/><path fill="none" stroke="#0033a1" stroke-width="5" d="M1377 784s2-26 9-49c6-20 26-26 35-27s26-1 38 16 10 30 8 58z"/><path fill="#fff" d="M0 0s-2-44 33-50c36-6 53 23 41 71L58 59l-69-18z" style="fill:#fff;fill-opacity:1" transform="translate(1401 808)"/><path fill="none" stroke="#0033a1" stroke-width="5" d="M1401 808s-3-44 33-50c35-6 52 22 41 71l-17 38-68-18z"/><path fill="#fff" d="M0 0s7-50 43-45c35 4 39 30 31 76L63 68z" style="fill:#fff;fill-opacity:1" transform="translate(1339 810)"/><path fill="none" stroke="#0033a1" stroke-width="5" d="M1339 810s7-49 44-45c34 5 38 30 31 76l-12 37z"/><path fill="#fff" d="M0 0c62-92 32-121 16-129-17-7-38-7-51 8-13 14-25 57-25 57z" style="fill:#fff;fill-opacity:1" transform="translate(1489 945)"/><path fill="none" stroke="#0033a1" stroke-width="5" d="M1489 945c62-91 32-120 16-128-17-8-38-7-51 7-13 15-25 58-25 58z"/><path fill="#fff" d="m0 0 29-72s30-27 60-7-2 75-2 75L26 57z" style="fill:#fff;fill-opacity:1" transform="translate(1334 916)"/><path fill="none" stroke="#0033a1" stroke-width="5" d="m1334 916 29-72s30-27 60-7-2 74-2 74l-61 62z"/><path fill="#fff" d="M0 0s-11-69 19-92c26-19 63-4 62 35-1 40-32 87-32 87z" style="fill:#fff;fill-opacity:1" transform="translate(1296 899)"/><path fill="none" stroke="#0033a1" stroke-width="5" d="M1296 899s-11-69 20-92c25-19 63-4 61 35-1 40-32 86-32 86z"/><path fill="#fff" d="M0 0s26-45 50-73 92-14 53 57L17 59z" style="fill:#fff;fill-opacity:1" transform="translate(1361 957)"/><path fill="none" stroke="#0033a1" stroke-width="5" d="M1361 957s26-45 50-73c24-27 92-14 53 57l-86 75z"/><path fill="#fff" d="M0 0s-12-41 2-62c12-17 44-25 61-8C83-50 77-19 76 4z" style="fill:#fff;fill-opacity:1" transform="translate(2770 789)"/><path fill="none" stroke="#0033a1" stroke-width="5" d="M2770 789s-12-41 2-62c12-17 44-25 62-8 19 20 13 51 12 74z"/><path fill="#fff" d="M0 0s-21 9-25 26c-5 16 3 31 12 42l48 28 34-36z" style="fill:#fff;fill-opacity:1" transform="translate(2724 867)"/><path fill="none" stroke="#0033a1" stroke-width="5" d="M2724 867s-21 9-26 26 3 32 13 42l48 28 34-36z"/><path fill="#fff" d="M0 0s-11-48 1-69c11-18 61-50 81 18L37-3z" style="fill:#fff;fill-opacity:1" transform="translate(2748 848)"/><path fill="none" stroke="#0033a1" stroke-width="5" d="M2748 848s-11-48 1-69c10-18 61-50 80 18l-44 48z"/><path fill="#fff" d="M2782 834s-8-16-23-19c-17-4-39-3-48 22-10 25 9 45 40 66z"/><path fill="none" stroke="#0033a1" stroke-width="5" d="M0 0s-7-15-23-19c-17-4-38-2-48 22-10 25 9 45 41 67z" style="fill:#fff;fill-opacity:1" transform="translate(2782 834)"/><path fill="#fff" d="M0 0s-2-32 7-45 21-17 36-10C58-47 68-7 68-7L26 25z" style="fill:#fff;fill-opacity:1" transform="translate(2785 856)"/><path fill="none" stroke="#0033a1" stroke-width="5" d="M2785 856s-2-31 7-44c9-14 21-18 36-10 15 7 25 47 25 47l-42 32z"/><path fill="#fff" d="M0 0s-23-39-19-73c3-34 33-42 51-29 17 12 23 39 15 64z" style="fill:#fff;fill-opacity:1" transform="translate(2835 869)"/><path fill="none" stroke="#0033a1" stroke-width="5" d="M2835 869s-22-40-19-73c4-34 34-42 51-29 18 12 23 38 16 64z"/><path fill="#fff" d="M0 0s-9-21-28-31-44-14-62 13c-19 30 9 64 30 82z" style="fill:#fff;fill-opacity:1" transform="translate(2826 865)"/><path fill="none" stroke="#0033a1" stroke-width="5" d="M2826 865s-9-21-28-31-44-15-62 13c-19 30 10 63 30 82z"/><path fill="#b1b4b3" d="m1474 930 8 8s58-87 14-113c0 0 26 23-22 105m-14-42s27 29-50 83l-3-8s60-40 53-75"/></g><g clip-path="url(#g)" transform="matrix(.06845 0 0 -.06845 0 146)"><g fill-rule="evenodd"><path fill="#b1b4b3" d="M2206 1109c44 0 29-15 38-78 9-57 12-304 55-437 3-39-3-62-3-101 12-37 12-53 16-94 20-36 19-63 19-100 11-65 0-51-63-61-29-21-31-5-32 7 0-8 1-14-2-22-31-19-37-22-61-28-58 6-62 12-62 39 0-9-1-18-10-20h-72c-8 0-42 5-36 18-16 0-24 4-39 9-35 11-41 15-77 23-23 6-13 38-13 62 0 34 5 52 13 85 13 53 10 115 10 177 42 112 47 349 49 404 3 81 0 118 38 121-25 0-37 17-55 34-20 20-30 9-62 52-31 40-33 58-36 110 22 32-31 75 31 76 24 10 33 25 58 31 35 8 59-4 91 12 2 14 60 18 80 4 25-17 45 11 76 8 26-3 38-21 64-21 15 9 33-2 50-16 11-9 28 7 37-3 13-15 11-72 11-91-2-75-33-40-28-96-14-73-51-74-85-104"/><path fill="#2d2a26" d="M2053 214h48c9 2 10 11 10 20 0-27 4-33 62-39 24 6 30 9 61 28 3 8 2 14 2 22 1-12 3-28 32-7 63 10 74-4 63 61 0 37 1 64-19 100-4 41-4 57-16 94 0 39 6 62 3 101-43 133-46 380-55 437-9 63 6 78-38 78 34 29 71 31 85 104-5 55 26 21 28 96 0 15 1 53-5 76-5 1-8-13-2-14v-18c-7-2-11-11-7-16-4-13-16-14-26-24 2-11 13-14 25-15 7-18-6-36-24-45-13-6-15-16-22-27-6-10-14-13-23-21-10-1-13-12-13-22l6 3c7-3 20-10 14-14-8-6-23 2-25-8-1-6-10-5-14-10-6-8-12-16-22-14 0-8-16-12-18-5h-8c-4-5-7-9-14-9-53 25-84-34-138-12-2 3-2 6-2 10l-19 2c-18-12-40 9-54 22-11 10-36 29-66 44 27-35 38-26 57-45 18-17 30-34 55-34-22-2-30-16-34-43 12 1 7 16 11 27 2 5 8 8 14 7 7-1 7-10 14-10 3 5 7 8 13 7 0-11 11-15 11-26v-2l1 22c10 11 25-1 39-7 39-13 63-8 103-4 15 2 24 8 39 7v-32c11 6 6 19 6 31 10-6 17-6 29-6v-61c11 8 6 19 6 32 1 6 2 9 5 13l3-75 2-285c7-19 17-25 28-42 10-17 10-29 16-48 9-28 5-47 5-77-11 4-10 3-15 12-6 8-14 12-18 20 2-44 23-42 23-42v-24c-2-7-10-10-18-10l-8 15c0-78 8-59 8-97-7 15-21 20-21 36-8-19-4-32-4-52 12-6 18-15 18-28-5-12-6-19-6-32 2 8 9 10 13 18 6 11 2 20 2 33 16 8 35-12 35-29-15-22-7-41-7-67-5-12-22 1-36-1l-2-33c-1-4-4-7-9-7-2 28 2 49-7 71-5-15-3-49-4-73-2-22-32-28-55-25-7 5-5 13-6 21-27 0-11-21-40-21-15 0-14 52-16 55-13-18-2-34-8-54-6-18-43-6-51-13"/><g fill="#fff"><path d="M0 0c-28 38-30 56-34 106 23 33-30 76 32 77l6 3c0-12-20-19-19-31 2-16 19-11 25-26 5-12 15-10 14-30-1-12-11-23-2-32 6-14-3-33 12-38 8-2 16 1 19-6 4-7-2-14-8-21-7 2-7 10-12 14-6 6-12 9-16 17-5-6-2-21-17-33" style="fill:#fff;fill-opacity:1" transform="translate(1854 1202)"/><path d="m0 0-36 9c-22 7-12 39-12 63 0 34 4 52 12 84l5 28c4-4 5-7 5-12 4 8 0 15 6 22 10 12 16 19 19 34 3-11 0-18 2-29 1-11 8-17 5-27-5-17-2-50 7-49 0-12-2-16 3-27 2-5-10-4-10-8-2-8 0-12-5-18s-12 4-16-13C-6 43-30 13 0 0" style="fill:#fff;fill-opacity:1" transform="translate(1913 254)"/><path d="M0 0c16 0 27 1 39 11 5 4 0 11 4 15s10 1 13 5c-6-1-13-2-18 2C21 47 3 58-13 49c-26 0-38 18-64 21-31 3-51-25-76-8-20 14-77 10-80-4-32-15-56-4-90-12-10-2-18-6-24-10 6-1 7-7 10-12 6-10 18-6 29-6 17 0 17 25 34 29 9-3 9-12 17-17 9-5 18-2 27 4 0-14-10-20-20-30-6-4-13-5-13-12 0-8 8-9 11-16 20-2 25-24 46-25 0-12-4-18-2-30 1-7 7-14 15-13 5 2 4 11 9 13 4-8 4-11 2-20 30 2 19 24 52 20 0-6-2-12-1-18 26 16 22 33 40 41 15-8 27-15 27-32 15 1 13 22 21 33 10 14 23 11 24 27 14 0 18 13 31 18C10-4-2-8 0 0" style="fill:#fff;fill-opacity:1" transform="translate(2234 1370)"/><path d="M0 0c29-9 16-17 20-22l20-5c0-28-7-40-1-67 3-14 10-34-5-36-14-1-22 4-37 5 0 23 6 37 0 59-3 11-12 14-16 24-3 7 1 20-1 28 7 0 10-17 16-13 0 9-3 17 4 27" style="fill:#fff;fill-opacity:1" transform="translate(1975 1090)"/></g></g><path fill="#0033a1" d="M2111 239c5-30 4-36 61-41 24 5 29 8 60 27l4 20s3-13 8-14c3-1 9-1 22 9h1l31 4c16 2 26 3 31 9 5 7 3 21-1 46v6c0 33 0 59-19 93v1l-1 13c-3 32-4 48-15 80v1c0 16 1 30 3 43 1 18 2 35 1 57-32 97-42 250-48 352a1274 1274 0 0 1-11 127c-2 29-2 35-32 35h-7l6 4c8 8 17 14 26 19 24 16 47 30 58 83-3 28 3 34 11 41 7 8 16 17 17 55v6c0 21 1 71-11 83-4 4-9 3-16 1-6-1-12-3-18 0l-1 1a9 9 0 0 0-1 1c-21 17-36 22-48 16l-1-1c-14 0-25 6-35 11-9 4-18 9-29 10-13 1-24-3-34-7-15-6-28-11-44 0-14 10-51 10-68 3-5-2-7-4-7-6l-1-1-1-1c-19-9-35-9-52-9-12 0-25 0-39-3a72 72 0 0 1-3-1h-1a72 72 0 0 1-3-1 71 71 0 0 1-3-1l-1 3 1-3c-9-3-15-8-22-12-8-6-16-11-26-15h-1c-14 0-22-3-26-8s-2-14 0-24c3-14 6-29-3-43l1-4v-13l1-2v-6l1-6v-5l1-1v-5l1-2a116 116 0 0 1 2-9 104 104 0 0 1 0-3l1-1v-2a95 95 0 0 1 1-3 104 104 0 0 1 3-6 105 105 0 0 1 2-5 117 117 0 0 1 2-4 131 131 0 0 1 2-4l1-2 1-1 1-2 1-1 1-2a135 135 0 0 1 2-3l1-2 1-2 1-1a266 266 0 0 1 2-2v-1l3-3v-1a404 404 0 0 1 3-3 258 258 0 0 1 6-8l7-9c11-13 20-17 28-21 6-3 12-6 19-12a88 88 0 0 0 2-2l9-9c14-14 23-22 44-27-33-9-32-35-34-95l-1-26-1-19c-3-77-10-283-49-385l1-31c0-42 0-82-5-119l-6-28c-8-32-12-50-12-84l-1-18c-2-19-4-38 11-42a383 383 0 0 0 52-14l26-9 8-2c10-4 18-6 30-6h4l-1-4v-4c4-7 25-11 33-11h72c5 2 9 10 10 23m62-46h-1c-31 3-45 6-53 11-5 4-8 8-9 13-2-3-4-5-9-6h-72c-6 0-32 3-38 13l-1 6c-11 0-19 3-29 6l-8 2a1055 1055 0 0 0-41 14l-36 9c-19 6-17 27-15 48l1 17c0 35 4 54 12 85a811 811 0 0 1 10 177v1c39 101 46 307 49 384l1 19 1 27c1 53 2 83 25 93-14 4-23 14-34 25l-8 8a69 69 0 0 1-2 2c-7 6-12 9-18 12-11 5-21 10-38 31l-6 8-2 4a351 351 0 0 0-3 3v1l-2 2-1 1a245 245 0 0 0-1 3l-1 1a221 221 0 0 0-2 3l-1 2-1 1a159 159 0 0 0-3 5l-1 2-1 1-1 2v1a163 163 0 0 0-2 3l-1 2a117 117 0 0 0-1 4 117 117 0 0 0-2 4 121 121 0 0 0-1 3 121 121 0 0 0-1 3 145 145 0 0 0-1 3 118 118 0 0 0-1 7l-1 1v3l-1 2v5l-1 2v5l-1 6v4a421 421 0 0 0 0 2l-1 2v4a871 871 0 0 0 0 3v1a1367 1367 0 0 0 0 4v1l-1 4v1l1 1c8 12 5 27 2 40-2 11-5 21 1 29 5 6 14 9 30 9 9 4 17 9 24 14l23 13a77 77 0 0 0 3 1h1l3 1 4 1c15 4 27 3 40 3 16 0 31 0 49 8 1 4 4 7 10 9 18 8 57 7 73-4 13-9 25-5 39 1 10 4 22 9 36 7 13-1 22-6 31-11 10-5 19-9 32-10 18 10 38-4 53-16l1-1 1-1c4-1 9 0 14 1 7 2 15 4 21-3 13-13 12-60 12-86v-6c-1-41-11-50-19-58-6-7-12-12-9-38-11-56-35-71-60-87l-21-14c28-2 28-13 30-40a1275 1275 0 0 0 11-127c6-101 16-255 48-350v-1c2-23 0-40-1-58-1-13-3-27-3-43 11-32 13-49 15-80l1-13c19-35 19-61 19-95v-6c5-26 6-41 0-49-6-7-17-9-35-11l-29-4c-13-9-21-12-27-9a10 10 0 0 0-4 3 33 33 0 0 0-1-7h-1v-1c-32-19-38-23-63-28z"/><path fill="#fff" fill-rule="evenodd" d="M0 0c0 80-9 95-4 153-9-11 1-27-12-33 0-11 4-18 1-29-2-9-11-12-11-22-1-8 3-14-1-22-11-19-35-23-35-45-5 18-5 30-2 48 3 16-10 38 7 42 19 32-16 60 0 93l-1 12 12 2c10 15 10 27 10 45 0 19-4 31 0 49 3 11 7 17 7 28-21 0-18-31-38-36-15 14 1 33 14 49 13 15 2 31 2 50 13 53 44 91 98 95 3-25 27-33 27-58-2-15-25-14-27-30-7-8-17-8-20-17-1-10 4-19-2-26 1-8 7-16 0-20 2-27 2-41 2-68s14-49-5-69c0-14 7-22 3-35-4-15-11-23-11-38C14 72 18 42 0 0" style="fill:#fff;fill-opacity:1" transform="translate(1999 254)"/><path fill="#fff" fill-rule="evenodd" d="m0 0 92-282h296L148-456l92-282L0-564l-240-174 92 282-240 174h296z" style="fill:#fff;fill-opacity:1" transform="translate(2101 1288)"/><path fill="none" stroke="#000" stroke-width="11" d="m2101 1288 91-282h297l-240-174 92-282-240 174-240-174 92 282-240 174h296z"/></g><g clip-path="url(#h)" transform="matrix(.06845 0 0 -.06845 0 146)"><path fill="#fff" d="M0 0s-17 2-29-12-11-49 24-80c23-20 28-21 46-34l41-32c8-5 39-34 49-42 9-7 38-14 56 5 19 19 13 40-14 57z" style="fill:#fff;fill-opacity:1" transform="translate(1321 1136)"/><path fill="none" stroke="#0033a1" stroke-width="5" d="M1321 1136s-17 2-29-12c-12-15-11-49 24-80 23-20 28-21 45-34l42-32c8-5 39-34 49-42 9-7 38-15 56 4 19 19 13 41-14 58z"/><path fill="#fff" d="M0 0s-24 2-35-7c0 0-20-14-12-46 7-32 30-63 91-96l21-24s18-10 36-33c19-24 48-28 69-19 22 8 31 37 15 60z" style="fill:#fff;fill-opacity:1" transform="translate(1344 1216)"/><path fill="none" stroke="#0033a1" stroke-width="5" d="M1344 1216s-25 1-35-7c0 0-20-15-13-47 8-32 31-62 91-96l22-24s17-10 36-33 48-27 69-19c21 9 30 37 15 61z"/><path fill="#fff" d="M0 0s-4-11 8-32 54-58 54-58l14-28s27-34 71-61c43-26 82-24 77 39l-59 40L37 11z" style="fill:#fff;fill-opacity:1" transform="translate(1331 1231)"/><path fill="none" stroke="#0033a1" stroke-width="5" d="M1331 1231s-4-11 8-32c12-22 54-59 54-59l15-27s26-35 70-61c43-27 83-24 77 38l-59 41-128 111z"/><path fill="#fff" d="M0 0s18-45 49-59c30-13 82-8 60 70L25 52z" style="fill:#fff;fill-opacity:1" transform="translate(1463 1141)"/><path fill="none" stroke="#0033a1" stroke-width="5" d="M1463 1141s18-45 49-59c31-13 82-8 61 71l-85 40z"/><path fill="#fff" d="M0 0s15-34 63-40c48-5 90 36 46 82L-45 143l-7-2s-31 16-69 7l-18-46z" style="fill:#fff;fill-opacity:1" transform="translate(1488 1179)"/><path fill="none" stroke="#0033a1" stroke-width="5" d="M1488 1179s15-35 63-40c48-6 90 36 46 81l-154 102-7-2s-31 16-69 6l-18-45z"/><path fill="#fff" d="M0 0s-25 7-39-8c-14-14-35-69 11-108s67-32 67-32l1-10s7 2 34-31c26-33 67-44 92-28 26 15 36 41 8 75L72-22z" style="fill:#fff;fill-opacity:1" transform="translate(1453 1431)"/><path fill="none" stroke="#0033a1" stroke-width="5" d="M1453 1431s-26 6-40-8c-13-15-35-70 11-109s67-31 67-31l2-11s7 2 33-30c27-33 67-45 93-29s36 42 8 75l-103 120z"/><path fill="#fff" d="M0 0s-30 7-49-7c-18-14-34-46-20-89 15-44 53-69 61-74l30-3s10 9 17-8 33-55 68-55 68 28 52 68l-60 47-69 87z" style="fill:#fff;fill-opacity:1" transform="translate(1516 1513)"/><path fill="none" stroke="#0033a1" stroke-width="5" d="M1516 1513s-30 7-48-7c-19-14-35-46-20-89 14-44 52-69 61-74l29-3s11 9 18-8 33-55 67-55c35 0 68 28 52 68l-59 47-70 87z"/><path fill="#fff" d="M0 0s-27 15-49-8c-21-22-18-52-2-73s36-47 54-64c19-17 30-52 36-64 5-11 15-49 58-48 43 0 57 17 63 66l-36 47-47 67z" style="fill:#fff;fill-opacity:1" transform="translate(1557 1587)"/><path fill="none" stroke="#0033a1" stroke-width="5" d="M1557 1587s-27 14-48-8c-22-22-19-52-3-73s36-47 55-64c18-17 30-52 35-64s16-50 59-49 56 18 62 67l-36 47-47 66z"/><path fill="#fff" d="M0 0s-40 39-74 15a61 61 0 0 1-23-77c8-19 35-55 61-76l28-23 15-37c6-14 17-29 37-39 20-11 26-34 50-23s30 8 30 8 11 2 12 20z" style="fill:#fff;fill-opacity:1" transform="translate(1647 1640)"/><path fill="none" stroke="#0033a1" stroke-width="5" d="M1647 1640s-40 39-74 15a61 61 0 0 1-23-77c8-19 35-55 61-76l28-23 15-37c6-14 17-29 37-39 20-11 26-34 50-23s30 8 30 8 11 2 12 20z"/><path fill="#fff" d="M1707 1705s-26 11-46-4c-20-14-36-39-15-112s116-182 116-182 20-14 42-5c22 8 29 28 25 48l-44 141z"/><path fill="none" stroke="#0033a1" stroke-width="5" d="M0 0s-26 11-46-4c-20-14-36-39-15-112S55-298 55-298s20-14 42-5c22 8 29 28 25 48L78-114z" style="fill:#fff;fill-opacity:1" transform="translate(1707 1705)"/><path fill="#fff" d="M0 0s-26 19-51 14c-24-5-72-31-54-61l66-110s8-23 9-52c1-28 17-60 40-78 24-19 90-12 85 44L65-107z" style="fill:#fff;fill-opacity:1" transform="translate(1802 1729)"/><path fill="none" stroke="#0033a1" stroke-width="5" d="M1802 1729s-26 19-51 14c-24-5-72-31-54-62l66-109s8-24 9-52c2-28 17-60 40-79 24-18 90-11 85 45l-30 136z"/><path fill="#fff" d="M0 0s-25 31-58 20c-28-10-43-31-36-75 8-44 33-69 53-92 21-22 18-33 19-50s6-67 42-89c35-22 85 3 77 50L40-43z" style="fill:#fff;fill-opacity:1" transform="translate(1885 1756)"/><path fill="none" stroke="#0033a1" stroke-width="5" d="M1885 1756s-26 32-58 20c-28-9-44-31-36-75 7-43 33-69 53-91 20-23 17-34 18-51s7-67 42-89c36-21 86 3 78 51l-57 192z"/><path fill="#fff" d="M0 0s-22 43-66 25c-45-18-49-89 19-153l18-30s11-1 8-43c-3-41 17-75 44-81s54-5 68 44l-4 111-52 31z" style="fill:#fff;fill-opacity:1" transform="translate(1972 1776)"/><path fill="none" stroke="#0033a1" stroke-width="5" d="M1972 1776s-22 44-66 25c-45-18-49-89 19-153l18-30s11-1 8-42c-3-42 17-76 44-82s54-5 68 44l-4 111-52 31z"/><path fill="#fff" d="M0 0s-17-15-6-35 25-35 55-22c30 12 66 46 82 56 15 9 73 59 73 59s72 69 0 103z" style="fill:#fff;fill-opacity:1" transform="translate(2664 983)"/><path fill="none" stroke="#0033a1" stroke-width="5" d="M2664 983s-18-15-6-35c11-20 25-34 55-22s66 46 81 56c16 10 73 59 73 59s73 69 0 103z"/><path fill="#fff" d="M0 0s-25-22-14-46C-2-71 6-79 29-74c23 4 55 33 72 47l64 54s30 19 48 53c19 33 28 71-24 93l-87-71z" style="fill:#fff;fill-opacity:1" transform="translate(2656 1047)"/><path fill="none" stroke="#0033a1" stroke-width="5" d="M2656 1047s-25-22-13-46c12-25 19-33 42-28 24 5 55 33 72 47l65 54s29 20 48 53c18 33 27 72-24 93l-88-71z"/><path fill="#fff" d="M2627 1087s-15-16 3-37c19-21 51-14 62-7 11 6 64 40 65 58l24 49s41 24 67 57c25 34 23 76-25 87l-52-77-79-73z"/><path fill="none" stroke="#0033a1" stroke-width="5" d="M0 0s-15-17 4-38c18-21 50-13 61-6 11 6 64 40 66 58l23 49s41 24 67 57c25 33 23 76-24 87l-53-77-79-73z" style="fill:#fff;fill-opacity:1" transform="translate(2627 1087)"/><path fill="#fff" d="M0 0s-16-21 0-43c16-23 34-32 53-20 19 11 41 36 55 58 14 21 19 29 33 43s42 36 54 52c13 17 33 48 30 76-4 28-30 55-65 43l-74-99z" style="fill:#fff;fill-opacity:1" transform="translate(2606 1141)"/><path fill="none" stroke="#0033a1" stroke-width="5" d="M2606 1141s-16-21 0-44c16-22 34-31 53-20 18 12 41 37 55 58 14 22 19 30 33 44s42 36 54 52c13 16 33 48 29 76-3 28-29 55-65 42l-73-98z"/><path fill="#fff" d="M2571 1213v-2c-2-9-11-55 18-73 33-20 76 13 84 31 7 18 25 57 34 73 8 15 45 64 55 80s49 90-31 118z"/><path fill="none" stroke="#0033a1" stroke-width="5" d="M0 0v-2c-3-9-12-55 18-73 33-20 76 13 83 31 8 19 26 58 35 73 8 15 45 64 55 80 9 17 49 91-31 118z" style="fill:#fff;fill-opacity:1" transform="translate(2571 1213)"/><path fill="#fff" d="M0 0v-68s7-33 46-14c39 18 53 35 61 63 7 28 24 70 42 96s40 61 39 83c0 22-10 50-38 53L32 123z" style="fill:#fff;fill-opacity:1" transform="translate(2553 1288)"/><path fill="none" stroke="#0033a1" stroke-width="5" d="M2553 1288v-68s6-33 46-15c39 19 53 36 60 64 8 28 24 70 43 96 18 26 39 61 39 83s-10 50-39 53l-117-90z"/><path fill="#fff" d="M2608 1421s26-11 22-53c-3-25-13-53-48-82-34-29-74 1-86 51l21 37 51 44z"/><path fill="none" stroke="#0033a1" stroke-width="5" d="M0 0s27-11 22-53c-3-24-12-53-47-82s-75 1-87 51l22 37 50 45z" style="fill:#fff;fill-opacity:1" transform="translate(2608 1421)"/><path fill="#fff" d="M0 0s11-53-23-85c-34-31-110-45-102 40l59 45z" style="fill:#fff;fill-opacity:1" transform="translate(2586 1429)"/><path fill="none" stroke="#0033a1" stroke-width="5" d="M2586 1429s11-53-23-85c-34-31-110-45-101 40l58 45z"/><path fill="#fff" d="M0 0s-5-28 24-44 78 8 93 37c16 30 131 93 131 93l19 25 4 16s3 46-55 50l-104-74-77-48z" style="fill:#fff;fill-opacity:1" transform="translate(2411 1424)"/><path fill="none" stroke="#0033a1" stroke-width="5" d="M2411 1424s-6-28 23-44 78 8 94 37c15 29 131 92 131 92l19 25 4 17s3 46-55 49l-104-73-77-48z"/><path fill="#fff" d="M0 0s36 38 42 69-21 54-36 59c-15 4-40 1-52-4l-84-154 39-29z" style="fill:#e8e8e8;fill-opacity:1" transform="translate(2592 1524)"/><path fill="none" stroke="#0033a1" stroke-width="5" d="M2592 1524s36 38 42 69c6 32-22 54-36 59-15 4-40 1-52-4l-84-154 39-29z"/><path fill="#fff" d="M0 0s2-35 23-44c20-9 72-17 99 53 27 69 48 82 48 82s41 47 48 67c8 20 16 44-13 69-28 25-56 5-63 0L59 112z" style="fill:#fff;fill-opacity:1" transform="translate(2346 1456)"/><path fill="none" stroke="#0033a1" stroke-width="5" d="M2346 1456s3-35 23-44 73-17 100 53c27 69 47 82 47 82s41 47 49 67c7 20 16 44-13 69s-56 5-64 0l-83-115z"/><path fill="#fff" d="M0 0s5-32 25-44c19-11 44-16 67 9 23 24 29 47 35 64 5 16 6 39 22 57 15 18 49 58 59 73s28 50-14 81c-42 32-70 3-77-6l-78-98z" style="fill:#fff;fill-opacity:1" transform="translate(2281 1489)"/><path fill="none" stroke="#0033a1" stroke-width="5" d="M2281 1489s5-32 24-44c20-11 45-16 68 9s29 47 34 64c6 16 7 39 23 57 15 19 49 58 59 73s28 50-14 82c-42 31-70 2-78-6l-77-99z"/><path fill="#fff" d="M0 0s-2-34 28-48 66-3 83 33c18 36 16 79 27 102 10 23 16 29 46 57 31 28 33 70 18 91-15 22-33 38-66 35L8 159z" style="fill:#fff;fill-opacity:1" transform="translate(2198 1519)"/><path fill="none" stroke="#0033a1" stroke-width="5" d="M2198 1519s-3-34 27-48c31-15 67-3 84 33s16 79 26 102c11 23 16 29 47 57 31 27 33 69 18 91s-34 38-67 35l-128-111z"/><path fill="#fff" d="M2126 1533s3-22 34-33c32-10 49 8 58 31 8 23 4 86 4 103-1 17 36 79 36 79l26 76s-15 44-63 8l-55-141z"/><path fill="none" stroke="#0033a1" stroke-width="5" d="M0 0s3-23 34-33c32-11 50 7 58 31 8 23 4 85 4 103-1 17 36 78 36 78l26 77s-15 43-63 7L40 123z" style="fill:#fff;fill-opacity:1" transform="translate(2126 1533)"/><path fill="#fff" d="M0 0s-12-159 58-139L95-18z" style="fill:#fff;fill-opacity:1" transform="translate(2043 1647)"/><path fill="none" stroke="#0033a1" stroke-width="5" d="M2043 1647s-12-159 57-139l37 121z"/><path fill="#fff" d="m0 0 9 27s4 95-83 67L-86-47z" style="fill:#fff;fill-opacity:1" transform="translate(2229 1738)"/><path fill="none" stroke="#0033a1" stroke-width="5" d="m2229 1738 9 26s3 96-83 68l-12-142z"/><path fill="#fff" d="M0 0s14 53 11 84c-3 32-11 66-61 61s-49-72-49-72l28-116z" style="fill:#fff;fill-opacity:1" transform="translate(2158 1712)"/><path fill="none" stroke="#0033a1" stroke-width="5" d="M2158 1712s14 53 11 85-12 66-62 61c-49-5-49-73-49-73l28-115z"/><path fill="#fff" d="M0 0s20 35 1 93-36 75-65 74c-29 0-57-28-50-80 8-53 22-72 41-100l26-27s24-20 44 7z" style="fill:#fff;fill-opacity:1" transform="translate(2078 1670)"/><path fill="none" stroke="#0033a1" stroke-width="5" d="M2078 1670s20 35 1 92-36 76-65 75-58-28-50-81 22-71 41-100l25-27s24-20 44 7z"/><path fill="#b1b4b3" d="M1498 947s-24-9-55 20l-53 50-30 23s-55 27-59 70c0 0-15-41 51-78l51-38s14-11 32-31c17-19 47-33 62-16m19 58s-31-9-54 14-27 33-48 43l6-9 31-34c13-12 40-29 65-14m-100 66 8 14s-36 7-66 27c-28 19-51 42-49 75 0 0-4-19 2-38 7-19 39-57 105-78m121-18s-33-5-57 18c-25 23-37 39-50 51l-10-6v-6s19-18 35-30c15-12 47-46 82-27m19 41s-52-2-72 47l-6-6 6-15s36-42 72-26m35 64s-55-4-80 22l-2-11s50-31 82-10m26 66s-37-7-60 17c-23 23-26 41-33 51l-14-8 21-29c7-12 43-49 86-31m-152 74 2 13s-47 17-55 83c0 0-10-69 53-96m183-6s-74 2-82 84l-10-13s20-83 92-71m-143 72s-70 44-41 118c0 0-10-65 46-96zm168-22s-41 8-54 39c-14 33-14 57-14 57l-10-15s9-96 78-81m-111 119 4 16s-51 20-50 85c0 0-24-52 46-101m7 169s-15-56 55-106l-10-12s-74 64-45 118m232-220s-36-3-65 53l-3-9s33-62 68-44m47 32s-53 15-49 111l-17-14s2-98 66-97m37 143s-13-85 49-112c0 0-65 1-61 107zm-26 31 12 5s-84 71-61 130c0 0-36-42 29-115zm40 162s-25-48 47-116l-14-3s-72 77-33 119m110-278s-38 6-34 102l-11 4s-9-102 45-106m-31 303s-16-60 50-122l-14-9s-61 65-36 131m154 33s34-40 5-120l14 6s29 86-19 114m64-15s34-11 28-62l-12-2s6 33-16 64m-17-309s25 25 17 95l15 7s10-91-32-102m61-27s56-11 57 107l24 55s10 17 38 39 9 77 9 77 36-44 6-80c-29-36-37-33-53-63 0 0-8-8-10-40s-4-56-20-78a48 48 0 0 0-51-17m89-29s45 1 57 89l29 58 6 6c20 29 62 69 49 103 0 0 16-24 5-49-12-27-54-76-54-76l-25-48s-10-90-67-83m62-40s43 4 58 48c16 43 17 50 25 68 9 18 25 32 45 57s33 37 27 77c0 0 27-33-5-69-33-36-49-57-62-85s-26-97-88-96m50-28s43-1 69 32l5-6s-35-37-74-26m57-47s38 1 67 47h10s-29-55-77-47m107 281s10-25-2-44c-13-19-43-54-43-54l20 5s63 68 25 93m50-53s11-13 4-34l9 10s1 16-13 24m-131-268s54-24 84 43l3-13s-40-71-87-30m120 76s84 19 68 103c0 0 45-85-71-133zm-81-146s39-34 82 68l9-16s-39-93-93-60zm181 174s37-42-37-104l-36-29v-15s57 32 79 74c21 43 10 63-6 74m-67-159c-17-107-86-82-86-82s14-24 50-6 46 67 52 88zm-56-144s33-13 62 26c29 38 35 59 64 88s71 68 54 115c0 0 22-32 5-61-15-25-25-38-48-61-21-20-34-40-47-60-13-21-16-25-35-44-19-18-44-22-54-3m22-42s49-17 98 59l6-15s-52-74-104-44m193 199s1-55-63-90l8-7s75 45 55 97m23-70s21-50-70-100l13-7s95 60 57 107m21-70s6-35-28-57l11-5s35 33 17 62m-225-114s22-26 68 15v-11s-53-49-68-4"/><path fill="#fde300" d="M1893 1574s0 12 5 13c3 1 7-1 11-10 1-4 4-11 5-23 1-13-13-15-17-3-3 6-4 18-4 23m-78-56s-1 13 5 14c3 1 6-1 10-10 2-4 5-11 6-23 0-13-13-15-18-3-2 6-3 18-3 22m-72-22s0 13 5 14c3 1 7-1 10-11 2-4 5-10 5-23s-13-15-17-3c-3 7-3 19-3 23m247 111s-2 12 3 14c3 1 7 0 12-9 2-4 6-10 9-22 2-13-11-17-17-5-4 6-6 18-7 22m-114 52s3-12-2-15c-2-1-6 0-12 8-3 3-8 9-12 20-4 13 9 18 16 8 5-6 9-17 10-21m83 29s4-11-1-14c-3-1-7-1-13 7-3 4-7 9-11 21s8 18 16 8c4-6 8-18 9-22m85 31s2-12-3-14c-3-1-7 0-12 9-2 4-6 10-8 22-2 13 11 17 17 5 3-6 6-18 6-22m81 14s-1-12-6-13c-3-1-6 1-10 11-1 4-4 11-4 23 0 13 13 15 17 3 3-7 3-19 3-24m205-59s-6-10-11-9c-3 1-5 4-4 14 1 5 1 12 7 23 6 12 18 7 16-6-1-7-6-18-8-22m90-50s-8-10-13-8c-2 2-4 5-1 15 1 4 3 11 10 21 8 11 20 4 16-8-3-7-10-17-12-20m77-46s-9-7-13-4c-2 1-3 5 1 13 2 4 5 10 13 18 9 9 18 0 13-10l-14-17m59-46s-8-9-12-6c-3 1-4 4-1 13 1 4 3 10 10 19 8 10 19 3 14-8-2-7-9-15-11-18m-289 54s7 10 12 8c3-1 4-5 2-14-1-4-3-11-10-21-7-11-19-4-15 8 2 7 9 16 11 19m88-43s8 9 13 7c2-1 4-5 1-14-2-4-4-11-11-21-8-10-19-3-15 9 2 7 10 16 12 19m78-41s8 9 13 7c2-2 4-5 1-14-2-5-4-11-11-21-8-10-19-3-15 9 2 7 10 16 12 19m221-98s-9-9-13-6c-3 2-4 5 0 14 2 4 4 11 12 20 9 9 20 1 15-10-3-7-11-15-14-18m-73-58s10 7 14 3c2-2 2-6-3-14-3-3-7-9-16-16-11-8-20 2-12 12 4 6 13 13 17 15m37-46s7 9 12 7c3-2 4-5 1-15-1-4-4-10-11-20-8-10-19-3-15 9 3 7 10 16 13 19m31-76s8 9 12 7c3-2 4-5 1-14-1-5-3-11-11-21s-19-3-14 9c2 7 9 16 12 19m57 89s-10-8-14-5c-2 2-3 6 2 14 2 4 6 10 15 18 9 9 19 0 13-11-4-6-13-14-16-16m50-73s-9-6-12-3c-2 1-3 4 2 12 2 3 5 8 12 14 9 7 17-1 11-10-3-5-11-11-13-13m-75-80s9 5 12 2c1-2 1-5-3-11-3-3-6-7-14-12-9-6-15 2-9 10 4 5 11 10 14 11m24-55s9 5 12 1c2-2 1-5-4-11-2-3-6-7-15-12s-16 5-8 12c4 4 12 9 15 10m100 20s-9-7-13-5c-2 2-3 5 1 13 2 4 5 10 13 17 8 8 17 0 12-10-3-5-11-13-13-15m-82-78s9 6 13 3c2-2 2-6-3-13-2-3-6-9-15-15-9-7-17 2-10 12 3 5 12 11 15 13m62 134s-9-6-12-3c-2 2-3 5 2 12 2 3 5 9 13 15 8 7 16-1 10-10-3-5-11-11-13-14m-1219 326s6-10 2-14c-2-2-6-2-14 4-3 3-9 7-15 17-7 11 3 19 13 11 5-4 12-14 14-18m62 64s7-11 4-15c-2-2-7-3-15 3-4 3-11 7-18 17-9 11 2 20 13 13 6-5 14-15 16-18m-8-159s-5 11-1 14c2 2 6 2 14-5 3-3 9-7 15-18 6-12-6-20-15-11-5 5-11 16-13 20m-44-60s-6 11-1 14c2 2 6 2 13-5 4-3 9-7 15-18s-5-19-14-10c-6 5-11 15-13 19m-60 68s7-10 3-14c-2-2-6-2-14 3-4 3-10 7-17 17-8 11 3 20 13 12 6-4 13-14 15-18m23-128s-7 10-4 14c2 2 6 2 15-3 3-2 10-6 17-15 8-11-2-20-12-13-6 4-14 13-16 17m-58 37s7-10 3-14c-2-2-6-3-14 2-4 3-10 6-18 16s2 20 13 13c6-4 13-14 16-17m12-103s-7 10-3 14c2 2 6 3 14-3 4-3 10-7 17-17 7-11-3-20-14-12l-14 18m-9-76s-6 11-2 15c2 2 6 2 14-4 4-3 9-7 16-17 7-11-4-20-13-12-6 5-13 15-15 18m-30-44s-6 10-2 13c2 2 5 2 12-4 3-2 8-6 14-14 6-10-3-17-12-10-5 4-10 12-12 15m-72 22s8-7 6-11c-2-2-5-4-13-1-4 1-10 3-18 10-9 7-3 17 8 13 6-2 14-9 17-11"/></g><g clip-path="url(#i)" style="display:inline" transform="matrix(.06845 0 0 -.06845 0 146)"><path fill="#e1261c" d="M2742 1182c-7-3-13-3-13-3s-12-19 2-47c6-12 9-28 4-40 0 0 23 0 45 10s37 28 37 28c-14 4-24 17-29 29-12 29-35 32-35 32s-4-6-11-9"/><path fill="#2d2a26" d="M2726 1189c-1 0 43-76 87-72 0 0-32-12-67 33 0 0 31-52 58-55 0 0-33-15-82 93z"/><path fill="#e1261c" d="M2698 1268c-7-3-13-3-13-3s-11-20 4-47c7-12 11-27 6-40a112 112 0 0 0 80 43c-14 3-24 15-30 27-14 28-37 29-37 29s-4-5-10-9"/><path fill="#2d2a26" d="M2683 1276s46-91 119-74c0 0-46-20-91 28 0 0 33-60 83-65 0 0-51-7-99 80 0 0 44-61 19-95 0 0 21 39-37 119z"/><path fill="#e1261c" d="M2644 1335c-5-4-10-5-10-5s-8-18 9-40c8-9 13-22 10-34a101 101 0 0 0 64 47c-12 1-23 10-30 20-15 22-35 21-35 21s-2-5-8-9"/><path fill="#2d2a26" d="M2640 1354s83-144 7-186c0 0 67 43-9 182z"/><path fill="#62a70f" d="M2462 1467s-1-8 2-63c2-55 10-160 29-254 0 0 14 108 16 159 2 50-2 114-2 114z"/><path fill="#e1261c" d="M2590 1398c-5-4-10-5-10-5s-5-19 14-37c7-8 14-19 13-31 0 0 18 6 32 20 15 13 22 31 22 31-11 0-22 7-29 15-17 20-36 16-36 16s-2-5-6-9"/><path fill="#2d2a26" d="M2590 1409s75-41 118-10c0 0-19-32-102-3 0 0 56-59 126-32 0 0-65-42-142 42z"/><path fill="#007935" d="M2467 1456s-4-89 12-173c0 0 15 99 10 157z"/><path fill="#62a70f" d="M2519 1415s15-53 18-101c2-29 9-108-1-183a441 441 0 0 0 31 260z"/><path fill="#007935" d="M2541 1401s9-37 14-65c5-25 11-75 11-75s6 80-2 127z"/><path fill="#dcdcdc" d="M0 0s5-1 6-7 2-4 9-8 6-8 12-12c6-5 6-13 15-13s9 0 12-4 11 1 14-4c3-6 12-4 15-11 3-6 3-4 7-8 4-3 7-4 11 0s17 0 22 6 7 9 12 8c6-1 6 6 12 8 5 2 11 1 15 3 3 2 9-1 12 7 4 9 8 8 16 10s23 9 24 24c0 15 0 18 9 29 10 10 8 13 19 16s7 9 15 12 1 7 4 14 5 6 2 10c-4 4-4 4-2 8s-3 6 0 13c3 8 2 11 7 15 6 4 9 3 5 7-3 4-3 3 0 6 3 2 3 5-1 9s1 5 3 7c2 3 2 4-1 8s3 13-4 12-15-11-19-17l-7-10c-1-2-10-3-9-10s-1-6-6-10l-12-10c-2-4-5-1-11-1-5 0-8-2-10-7-2-6-4-5-10-4-7 1-7 4-17 5-11 1-15 3-23-5s-10-12-22-10c-11 1-8-1-12-2l-14-3c-5-2-2 4-10 0-8-3-6 5-15 0-8-6-13-1-17-4-4-2-48-21-54-27-7-7-10-7-10-15 1-9-4-5-2-17C-8 5-4 3 0 0" style="fill:#e8e8e8;fill-opacity:1" transform="translate(2469 1451)"/><path d="M172 42h1v-1l-1 1zm-1 0v2h2l-1-2h-1zm0 2a1 1 0 0 0-1 0v1h2-1v-1zm-1 0a1 1 0 0 0-1-1v1h1z" style="display:inline;paint-order:markers fill stroke;fill:#e357b8;fill-opacity:1" transform="matrix(14.60942 0 0 -14.60942 0 2126)"/><path fill="#e1261c" d="M2432 1560c-4-7-10-11-10-11s1-27 34-44c14-7 28-20 32-36 0 0 22 17 36 41 13 25 15 53 15 53-15-6-33-1-47 7-32 19-55 6-55 6s0-8-5-16"/><path fill="#2d2a26" d="M2420 1569s50-31 107-2c0 0-30-28-80-14 0 0 48-27 96-30 0 0-40-4-83 18 0 0 24-17 20-46 0 0 0 41-60 67z"/><path fill="#e1261c" d="M2333 1611c-4-8-10-12-10-12s2-27 35-42c14-6 28-18 32-34 0 0 21 17 34 41 12 25 13 52 13 52-14-6-32-2-46 6-31 17-54 4-54 4s0-8-4-15"/><path fill="#2d2a26" d="M2314 1615h52c11-1 37-1 54-31 0 0-22 25-54 26l-44-1s134-86 109-201c0 0 18 112-121 203z"/><path fill="#e1261c" d="M2232 1653c-3-8-8-12-8-12s5-24 37-34c14-4 28-13 33-27 0 0 18 18 26 42s6 49 6 49c-13-8-30-6-43-1-31 12-50-3-50-3s1-7-1-14"/><path fill="#2d2a26" d="M2250 1651s68-15 112 22c0 0-25-38-105-29 0 0 90-42 139 2 0 0-29-54-151-2z"/><path fill="#2d2a26" d="M2243 1640s79-21 71-72c0 0 5 45-74 68z"/><path fill="#62a70f" d="M2031 1275s-27 78 29 186l39 77c6 16 9 40 9 54v25l59-3s0-24 6-50c5-27 12-54-11-117-23-62-25-113-24-141 0 0-31 47-20 102 11 54 28 82 25 121l-68-116c-24-42-35-74-44-138"/><path fill="#007935" d="M2110 1610s4-29-5-63l-16-35c-46-85-65-142-62-202 0 0 3 61 38 124 34 62 56 94 69 138 0 0 9-12 12-45 2-31-10-67-17-88-6-20-22-62 3-114 0 0-9 38 5 90 15 52 43 78 19 191z"/><path fill="#dcdcdc" d="M0 0s6-5 8-9c2-3 4-4 8-5 3 0 5-3 12 0 6 4 9 2 11 1 3-2 13-3 15 2 3 5 4 5 9 4 6-1 4-2 5-6 1-5-2-6 4-8 7-2 8-2 11-6 3-5 15-2 17 1 3 3 6 2 10 3s8 5 11 8l9 3c4 2 5 8 7 10s7 1 7 7c1 6 1 6 6 10s6 10 11 13c4 4 6 4 7 11 1 6 8 6 8 11 1 6 4 11 8 13 3 2 5 3 10 2 6 0 8-1 12 3s6 11 6 14c0 4-1 7 3 12 3 4 10 10 11 17 1 6 4 7 6 12 3 4 5 5 10 8 6 4 5 5 8 10 2 4 3 7 9 10 5 2 8 3 11 8s-1 13 2 15c3 3 9-2 10 7 0 9 9 9 6 15-4 5 2 9 0 14-2 6-1 8 3 17s5 11 5 20 10 4 4 12 0 2 1 14c0 11 4 13-4 21s1 21-6 23c-7 1-10-1-14-4-4-4-6-10-5-17 2-8 1-12-3-16s-13-8-9-14c3-6-6-7-9-6-2 1-7 5-12-4s-7-12-6-17c2-4 2-6-5-7-6-1-8-15-14-17-7-1-5 1-12-10-8-12-17-8-20-16-3-9-3-11-9-15-5-5-4-9-7-10-4-2-10 4-19-1-9-4-9-2-12-6-4-3-12 1-17-6s-10-8-13-11-13-4-19-12c-5-8 4-7-7-13-11-7-9 0-18-1s-9-5-14-3c-6 1-3 1-9-4-6-4-9-7-14 0-5 6-8-1-14-1-6-1-5-2-8-6-2-3 0-7-2-11l-8-8-8-37 7-26S-6 5 0 0" style="fill:#e8e8e8;fill-opacity:1" transform="translate(2087 1613)"/><path d="M144 28h-1v1l1 1v-2zm-1 2v1h1v-1h-1zm1 2h1l-1 1h-1l1-1z" style="display:inline;paint-order:markers fill stroke;fill:#e357b8;fill-opacity:1" transform="matrix(14.60942 0 0 -14.60942 0 2126)"/><path fill="#e1261c" d="M1995 1643c2-9 1-16 1-16s19-17 54-6c15 5 33 5 46-3 0 0 4 26-3 53-8 26-26 47-26 47-6-15-22-24-37-28-35-8-43-34-43-34s6-5 8-13"/><path fill="#2d2a26" d="M1981 1644s85 28 82 91c0 0 12-50-53-84 0 0 86 23 95 89 0 0 5-73-123-102z"/><path fill="#e1261c" d="M1886 1614c3-8 1-16 1-16s21-17 55-5c15 5 34 6 48-3 0 0 4 28-5 54-8 27-26 48-26 48-7-15-23-25-38-29-36-9-43-35-43-35s6-6 8-14"/><path fill="#2d2a26" d="M1866 1612s52 30 53 82c0 0 8-51-50-86z"/><path fill="#2d2a26" d="M1873 1596s57 74 114 50c0 0-51 20-112-55z"/><path fill="#e1261c" d="M1786 1571c3-7 2-14 2-14s21-13 51 2c12 6 29 9 42 3 0 0 0 25-10 48s-29 39-29 39c-4-14-18-24-31-30-31-12-34-36-34-36s6-5 9-12"/><path fill="#2d2a26" d="M1779 1578s150 70 131 166c0 0 43-81-127-172z"/><path fill="#2d2a26" d="M1784 1557s109 90 161 43c0 0-47 40-159-48z"/><path fill="#76bc21" d="M1649 1482s61-95 38-181c-22-87-43-154 5-195 0 0-27 58 11 145 33 75 28 127 28 127s19-26 25-43c10-26 16-77-2-140 0 0 82 102 20 206-36 61-51 120-51 120z"/><path fill="#007935" d="M1671 1181s-3 27 17 92c25 86 7 140-39 209l68 31s7-37 21-70c19-49 69-85 35-180 0 0 6 50-15 89-26 49-43 63-43 63s12-39-2-99c-13-53-31-86-42-135"/><path fill="#dcdcdc" d="M0 0s8-3 11-6 5-2 12-2l12 1c3 2 5 0 10-1 4 0 15-1 20 4s9 7 10 13 2 6 7 9 5 5 12 4c7 0 9 3 9 10l4 14c3 5 4 12 2 18-3 7-5 14-3 20s6 8 7 11c0 2 0 6 7 8 7 1 3 8-3 13s-2 4-5 9-3 8 2 15 14 14 4 20-7 8-11 11c-5 4-8 2-13 11-5 10-2 8-9 13s-8 5-6 16l2 16c-1 7 5 8 2 15s-5 2-3 11c1 10-9 3-16 7-8 4-10 5-18 5-8 1-3 13-5 16s-20 19-24 18c-4-2-6-2-11 4s-9 1-14 10c-6 9-7 7-11 7s-10 1-8-7 0-9 5-13 13-10 15-15 1-8 4-10 5-3 5-9c0-5 0-5 6-12s7-13 2-16c-5-4-3-8-6-13-2-5 0-4-4-8-4-5 1-5 3-9 2-5 1-7-3-9-3-2 0-3-5-6-5-4-6-1-8-7s-5-12-4-22c0-10-1-15 1-20s4-12 2-19c-3-6 0-5-2-10s-3-6-10-8-7-3-14-9c-7-7-16-13-13-21 2-7 5-9 5-16z" style="fill:#e8e8e8;fill-opacity:1" transform="translate(1683 1501)"/><path d="M119 37h-1l-1 1h2v-1z" style="display:inline;fill:#e357b8;fill-opacity:1;paint-order:markers fill stroke" transform="matrix(14.60942 0 0 -14.60942 0 2126)"/><path d="M116 40h-1v1l1-1zm-1-2h-1v1h2v-1h-1z" style="display:inline;paint-order:markers fill stroke;fill:#e357b8;fill-opacity:1" transform="matrix(14.60942 0 0 -14.60942 0 2126)"/><path fill="#e1261c" d="M1610 1474c5-6 7-12 7-12s24-5 46 19c9 11 23 20 37 19 0 0-9 23-27 40s-41 25-41 25c2-14-7-29-17-38-23-23-17-46-17-46s6-2 12-7"/><path fill="#2d2a26" d="M1618 1448c23 111-21 124-21 124 2 0 40-14 32-86 0 0 20 85 92 92 0 0-75-4-100-135z"/><path fill="#e1261c" d="M1545 1397c6-5 9-11 9-11s24-3 43 23c9 11 22 21 37 21 0 0-11 22-30 38s-43 22-43 22c3-14-5-29-14-40-22-24-14-47-14-47s6-1 12-6"/><path fill="#2d2a26" d="M1541 1383s34 119-33 164c0 0 60-21 43-140 0 0 53 129 0 193 0 0 51-37 17-155 0 0 26 53 81 59 0 0-70-8-103-124z"/><path fill="#e1261c" d="M1502 1322c6-3 9-8 9-8s20 1 33 25c5 10 15 20 27 22 0 0-12 17-30 27-18 11-38 13-38 13 4-12 0-25-6-35-15-23-6-41-6-41s6 0 11-3"/><path fill="#2d2a26" d="M1503 1309s25 60-21 99c0 0 41-18 31-79 0 0 39 71-6 114 0 0 59-40-2-137z"/><path fill="#e1261c" d="m1465 1244 10-7s20 3 30 28c4 11 13 22 25 25 0 0-14 16-33 25-19 8-40 8-40 8 6-11 3-25-2-35-12-25-1-42-1-42s5 1 11-2"/><path fill="#2d2a26" d="M1469 1239s22 71-15 104c0 0 32-13 25-83 0 0 18 42 12 87 0 0 19-48-19-110z"/><path fill="#dcdcdc" d="M0 0s-2 6-7 9-11 4-9 11c1 7 3 11-4 16-7 6-4 7-4 12-1 6 1 7-7 11l-28 21c-7 6-9 14-24 14-16 0-10 6-16 10-5 4-6 3-7 8s-7 6-11 10l-13 8c-6 1-7 4-11 0s-14-10-18-5-7 2-13 8c-5 6-6 4-10 5-5 1-6 1-9-2s-6-2-8-1c-2 2-5 3-9 2-3-1-6-1-10 2-4 2-16-2-20-4-5-1-9-3-5-6 3-3 6-3 10-9 3-6 5-8 11-8 5-1 4-8 12-8 8 1 8-1 12-4s8-4 10-9c3-4 4-4 7-6 3-1 14-6 14-11 0-6-2-6 0-11s1-9 3-13 9-12 5-14c-4-3-10-8-11-14l2-13c1-6 2-10 6-12 3-2 3-6 6-10s6-5 12-15c6-11 4-6 8-11 3-6 2-6 5-9 4-3 3-5 2-7s-3-4 0-8 5-4 6-9c0-4 0-4 6-8l55-42s2-3 9-2c8 0 7-4 12 1 6 4 16-2 21 0l9 4c5 2 10 0 15 7 5 6 6 8 5 13-1 4 4 7 5 11s1 11 7 18c6 6 16 18 13 22s-4 4-3 11c1 6-3 6-6 9-2 3-4 4-10 7C10-18 2-5 0 0" style="fill:#e8e8e8;fill-opacity:1" transform="translate(1483 1232)"/><g style="display:inline"><path d="M95 66h2l-1 1-1-1zm-1-3h-1l1 1 1-1h-1z" style="display:inline;fill:#e357b8;fill-opacity:1;paint-order:markers fill stroke" transform="matrix(14.60942 0 0 -14.60942 0 2126)"/><path d="M97 68v1h1l-1-1z" style="display:inline;paint-order:markers fill stroke;fill:#e357b8;fill-opacity:1" transform="matrix(14.60942 0 0 -14.60942 0 2126)"/><path d="M95 64a1 1 0 0 0 0 1v-1z" style="display:inline;fill:#e357b8;fill-opacity:1;paint-order:markers fill stroke" transform="matrix(14.60942 0 0 -14.60942 0 2126)"/><path d="M98 69h-1 1m-3-4" style="fill:#d0362d;stroke-width:.068449" transform="matrix(14.60942 0 0 -14.60942 0 2126)"/><path fill="#e1261c" d="M1399 1088c6 0 11-3 11-3s16 10 15 36c0 11 3 23 12 31 0 0-18 8-37 8-20 0-37-7-37-7 8-8 11-21 11-32-2-25 14-36 14-36s5 3 11 3"/><path fill="#2d2a26" d="M1406 1073c21 96-35 128-35 128 44-38 34-105 34-105-7 66-49 67-49 67 50-15 46-90 46-90z"/><path fill="#76bc21" d="M1371 683s-55 195 26 328l-26 43s-77-56-91-174c-12-96 12-162 31-197 0 0-22 113 15 218 0 0-11-153 45-218"/><path fill="#007935" d="M1362 704s-42 170 23 298l-11 35s-123-110-72-324c0 0-12 129 27 199 0 0-5-136 33-208"/><path fill="#e1261c" d="M1397 994c7 0 13-3 13-3s18 12 16 42c-1 12 2 27 12 36 0 0-20 9-43 8-22 0-42-10-42-10 10-9 14-23 14-36-1-29 18-41 18-41s5 4 12 4"/><path fill="#2d2a26" d="M1411 983c-7 68 26 94 26 94-30-21-30-63-30-63-7 33-33 41-33 41 34-18 33-72 33-72z"/><path fill="#e1261c" d="M1426 827h12s12 15 4 39c-4 11-4 24 2 34 0 0-19 3-39-3-19-5-34-18-34-18 11-5 18-17 20-27 7-26 26-31 26-31s3 4 9 6m-20 82c6 1 11-1 11-1s15 13 9 40c-3 11-2 25 6 35 0 0-20 5-41 1-20-4-37-16-37-16 11-6 17-19 18-30 4-27 23-34 23-34s4 3 11 5"/><path fill="#2d2a26" d="M1406 894c14 136-41 131-41 131 47-13 38-101 38-101-16 51-41 60-41 60 41-38 41-90 41-90z"/><path fill="#2d2a26" d="M1419 823c-11 111-83 135-83 135 64-39 75-113 75-113-31 69-87 66-87 66 71-13 92-90 92-90z"/></g><path fill="#dcdcdc" d="m0 0-2 2c-5 3-7 3-8 11-2 7-6 8-6 18 0 11-2 12-3 18v3c1 5 1 10-4 11l-2 1c-9 1-10 5-10 9s0 12-7 16c-6 4-6 7-1 11a63 63 0 0 0 2 1l4 5c2 4 1 9 1 20-1 14-3 12-8 17-5 4-10 9-13 17-2 8 1 8-11 24l-2 4c-4 5-7 7-10 8-4 1-8 1-13 4-9 6-12 6-18 3s-12 2-17-6-9-10-17-15c-8-4-7-11-16-19-8-7-7-8-10-16-2-8 5-11 5-19 0-7 2-11 4-14 2-2-1-7-1-7-5-12 0-9-1-18s1-10 5-19c3-8 18-3 19-16 0-13 14-10 12-18-1-8 0-12 6-18 7-6 9-12 13-21s6-14 17-13c11 2 15-4 22-12 7-9 18-19 23-23 4-3 13-6 15-14s3-3 10-13c6-9 11-5 16-5 6 0 11-4 14-3h2C9-55 6-23 0 0" style="display:inline;fill:#e8e8e8;fill-opacity:1" transform="translate(2885 894)"/><path fill="#dcdcdc" d="M3011 778c-4 9-8 7-16 8-7 1-8 0-13 7-6 7-5 8-14 9s-12 1-19 6c-6 6-14 18-18 21l-4 3-6-44 1-2c9-5 15 0 22-12 8-12 13-8 21-6 7 3 14-3 22-6 9-4 14 1 20 3s8 3 4 13"/><path fill="#007935" d="M2923 1027c-40 28-93 49-109 55l3-4c11-17 8-16 11-24s7-13 12-18c5-4 7-3 8-16 1-11 2-16-1-20a438 438 0 0 0 51-132c4-23 5-46 6-66v-49a303 303 0 0 1 16 87c5 92-28 165-28 165 16-8 48-29 62-45 13-14 5-100 5-100 33 124 14 133-36 167"/><path fill="#62a70f" d="M2929 1031c-74 48-125 59-125 59 3-1 6-3 10-8 16-6 69-27 109-55 50-34 69-43 36-167 0 0 8 86-5 100-14 16-46 37-61 45 0 0 32-73 27-165a331 331 0 0 0-16-87 662 662 0 0 0-13 149c-12 41-31 76-43 98l-4-5a63 63 0 0 1-2-1c7-11 13-22 19-37 6-1 5-6 5-11a840 840 0 0 0 19-52c6-24 9-55 10-86 2-51-1-99-1-99a453 453 0 0 1 33 123c3 32-1 57-2 77-4 40-21 84-21 84l26-19c27-19 24-27 25-44 2-18-1-104-1-104 41 134 48 157-25 205"/></g><path fill="#e357b8" d="M204 92v1-1z" style="paint-order:markers fill stroke"/><g style="display:inline"><path fill="#e357b8" d="M203 91h1-1zm-1 0v2l1-1h-1v-1zm3 1h1v1h-1v-1zm-3-1a1 1 0 0 0-1-1l-1 1h2zm-2-2v1h1v-1h-1zm-4-1v2l1-1-1-1zm1-2h-1v1h1v-1zm-2 0h-2l1 1h1v-1zm1-2v1a1 1 0 0 0 1 0v-1h-1zm-2 0a1 1 0 0 0 0 1 1 1 0 0 0 1 0 1 1 0 0 0 0-1 1 1 0 0 0-1 0zm-1 1h-1 1zm-3-1v1h1v-1h-1zm1-1 1 1a1 1 0 0 0 0-1v-1h-1v1zm2-1v1-1zm1 0a1 1 0 0 0 0 1h2v-1l-1-1h-1v1zm1-1h1v-1h-1v1zm-1-1h-1a1 1 0 0 0 0 1s-1 0 0 0v1l1-1v-1zm-3 1h1v-1a1 1 0 0 0-1 1zm-2 0v1h1v-1h-1zm4-3a1 1 0 0 0-1 1h1v-1zm1 1v1l1-1h-1v-1 1zm-3-2v2h1v-2h-1zm-1 2v1h1v-1a1 1 0 0 0-1 0zm-1-1a1 1 0 0 0 0 1v-1zm-1 0a1 1 0 0 0-1 0v1h1v-1zm-1-2h2l-1 1h-1v-1zm3 0h-1v1l1 1v-2zm4-1-1 1v1l1-1v-1zm-2 0h-1v1h1v-1zm0-2c0-1 0 0 0 0l-1 1h2v-1h-1zm-2 0v1h1v-1h-1zm-2 2h1v1l1-1-1-1-1 1zm0-2v1h1l-1-1zm-2 1a1 1 0 0 0 0 1h2l-1-1h-1zm3-2c-1 0-1 0 0 0v1-1zm1-1v1h2l-1-1h-1zm1 4h-1 1zm6 13c0-1 0 0 0 0zm-2 0h1-1zm0-5c0 1 0 1 0 0zm-8-48v1-1zm0 2h-1 1zm0 0c0 1 0 0 0 0h1-1zm0 1zm-1 0h-1v1h1l1-1h-1zm0 2h1l-1 1v-1zm-1 0h-2l1 1h1v-1zm0 2h1a1 1 0 0 0 1 0v-1h-2v1zm0 0h-2v1h2v-1zm-2-2v-1 1zm0 1h-1 1zm-2 0h-1 2-1zm1 0v2l1-1-1-1zm1 2h-1v1h1v-1zm-1 2s0-1 0 0h-1l1 1 1-1h-1zm0 1h-2v1h2v-1zm-1-2-1-1-1 1v1h1l1-1zm0-2h-1l1 1v-1zm0-2-1-1-1 1v1h1v-1h1zm-2 2h-2l1 1h1a1 1 0 0 0 0-1zm-2-1h-1v1h1v-1zm0 2h1v1h-1v-1zm2 3h1v1h-1v-1zm-2 1v2l1-1h1l-1-1h-1zm2 2-1-1v1h1zm0-1 1 1 1-1-1-1h-1v1zm-2 1-1 1h1v-1h-1zm-1-1h-1 1zm1-2h1v-1h-1v1zm-1-1h-2v2h1l1-1v-1zm-1-1h1c0 1 0 0 0 0a1 1 0 0 0 0-1h-1v1zm-1-2h-1v1h1v-1zm-1 5v1h1v-1h-1zm-1 0h-1v1h1v-1zm-1-1h2-2zm1-1h1v-1l-1 1zm6-4h-1 2-1zm-4 8v-1 1zm-12-35v1l1-1h-1zm1 1-1 1h1v-1zm0 2zm-1 0h-1v1h1v-1zm-1-1v1h1l-1-1zm-1 2v1h1l-1-1zm1 0v1h2l-1-1h-1zm0 1 1 1-1 1h-1v-1a1 1 0 0 1 1-1zm0 2h-1v1h2l-1-1zm0 2a1 1 0 0 0-1 0v1a1 1 0 0 0 1 0v-1zm-2-1h-1v2h1v-2zm0-1v-1h-1l-1 1 1 1 1-1zm-2 1h-1v1h1v-1zm1 2-1 1v1l1-1v-1zm0 1 1 1a1 1 0 0 0 1 0v-1h-2zm0 1v1-1zm-1 0h-1l-1 1 1 1 1-1c1 0 1 0 0 0v-1zm-1-1-1-1-1 1 1 1v-1h1zm-2 0h-1v1l1 1v-2zm-2 1-1-1v2h2v-1h-1zm1 2v1h1v-1h-1s0-1 0 0zm2 0v2h2v-1l-2-1zm-1 2v1h1v-1h-1zm-1 2v-1l1 1h-2 1zm0-2h-1v1h1v-1zm-4 0h3v1h-2l-1-1zm1-1h1v-1h-1v1zm0-2v-1l-1 1v1l1-1zm2 1v1-1zm-4 1h-1v1h2v-1l-1-1v1zm-2-1-1 1h1l1-1h-1zm-1 7h-1v1h1v-1zm1-3h1v1l-1 1h-1v-1l1-1zm0-1h-1l1 1 1-1h-1zm0-1-1-1-1 1 1 1 1-1zm2 2 1 1 1-1-1-1-1 1zm3 0h1l-1 1h-1v-1h1zm0 1h-1l-1 1 1 1 1-1v-1zm-3 1c0-1 0-1 0 0h-1l1 1v-1zm1 2v1l1-1-1-1v1zm3-3v1-1h1-1zm-3 1-1 1 1-1zm-35-13h-1a1 1 0 0 0 1 1h1l-1-1zm1 1v2h1v-1l-1-1zm2 1a1 1 0 0 0 0 1l1-1h-1zm0 1h-1v1l1-1zm1 2h-1l1 1h1v-2h-1v1zm-2 1v1h1v-1a1 1 0 0 0-1 0zm2 1h-1v1h1v-1zm1 0v1l1-1h-1zm0-2v1a1 1 0 0 0 1 0v-2l-1 1zm-2 3-1 1a1 1 0 0 0 0 1h2l-1-2zm-2 1a1 1 0 0 1 0 1v1l-1-1v-1h1zm1 2v1h1v-1h-1zm2-1-1 1 1 1a1 1 0 0 0 1-1l-1-1zm1-1v1h1v-1h-1zm1 1v2h1l1-1v-1h-2zm2 1v1h1v-1h-1zm-1 2h-1v1l1 1 1-1v-2l-1 1zm-1-1h-1v1h1v-1zm2 2v1h1v-1h-1zm-1 1h-2l1 1h1v-1zm-2-2-1 1v2l1-1v-2zm-2 0h-1l1 1v-1zm-1-1h-1a1 1 0 0 0 0 1v1h1v-2zm2 0h-1 1zm1-4-1 1h1v-1zm0 9v1h1v-1h-1zm3 0h-1v1l1-1zm0 2h-1a1 1 0 0 0 0 1 1 1 0 0 0 1-1zm-3 0h-1a1 1 0 0 0-1 1h3l-1-1zm0 2a1 1 0 0 0-1 0h-1l1 1h1v-1zm-3-3 1 1 1-1h-2zm0-3-1 1 1 1h1v-1l-1-1zm-2 0h1v-1a1 1 0 0 0-1 1zm-1 1h-1v1h1v-1zm3 4v1h1l-1-1zM98 67v1h1l1-1h-2zm3 1s-1 0 0 0h-1 1zm1-3h-1v1h1a1 1 0 0 0 0-1v-1 1zm-1-2 1 1v-1h-1zm-2 2h-1a1 1 0 0 0 0 1h1a1 1 0 0 0 1 0v-2l-1 1zm-5 0h-1v1h1v-1zm3-1v1a1 1 0 0 0 1 0v-1h-2zm0-3h-1v2h1v-1a2 2 0 0 0 0-1zm2 2v1l1-1a1 1 0 0 0-1-1v1zm0-2h-1 1v1l1-1v-1l-1 1zm1 0v1h1v-1h-1zm-3 0h1v-1l-1 1zm1-4v1h1v-1h-1zm0 1-1 1v1h1l1-1h-1v-1zm-2 1h-1v1h1v-2 1zm0-3 1 1a1 1 0 0 0 0-1h-1zm-1 0c0-1 0-1 0 0-1 0 0 0 0 0 1 0 1 0 0 0zm0 1h-1v1h2v-1h-1zm-1 2h-1a1 1 0 0 0-1 0v1h1l1-1zm0 1h-1v1h2v-1h-1zm0 2a1 1 0 0 1 1-1v1h-1zm-1 0h-1v1l1-1zm-1-2h-1v1h1v-1zm0-3h-1v1h1v-1zm1-2v1c-1 0-1 0 0 0v1l1-1-1-1zm1-1a1 1 0 0 1-1 1v-1h1zm-2-1-1 1h2v-1h-1zm0 2h-1a1 1 0 0 0 0 1h1v-1zm-2-1h-1v1h2v-1h-1zm-1-1h2-1v-1l-1 1zm0-1h-1v1h1v-1zm-1 1a1 1 0 0 0-1 1h1v-1zm-1-1h-1v1a1 1 0 0 0 1-1zm0 1zm6 5h-1 1zm4 0h-1 1zm1 5v-1 1z" style="paint-order:markers fill stroke"/></g><path d="M88 54h-1 1m2-1" style="fill:#d0362d"/><path d="M94 56h-1 1m0 3-1 1 1-1m4 0h-1 1m-1 3-1 1 1-1m3 3-1 1 1-1M90 54l-1 1 1-1m26-31h-1 1m2 3v1-1m-1 4-1 1 1-1m2 5-1 1 1-1m3-1-1 1 1-1m24-1-1 1 1-1m2-3h-1 1m3 4h-1 1m6-7h-1 1m-4-1-1 1 1-1m3 3-1 1 1-1m26 17-1 1 1-1m-4 2h-1 1m10 28v1-1m9 10-1 1 1-1m-5-3h-1 1m3-1-1 1 1-1m-3-4h-1 1m0-5-1 1 1-1m-2 4h-1 1m5 9-1 1 1-1m7 5h-1 1m-27-45h-1 1m1-3-1 1 1-1m9-3-1 1 1-1m-1 2v1-1m-3 0-1 1 1-1m5-4-1 1 1-1m-6 2h-1 1m-21-17h-1 1m-44 15-1 1 1-1m4 2-1 1 1-1m2-8h-1 1m-5 2h-1 1" style="fill:#d0362d;stroke-width:.16612"/><path d="m98 64-1 1 1-1m1-3v1-1m-5 0h-1 1m1-4h-1 1m-3-2-1 1 1-1m-1 5v1-1m11 5-1 1 1-1m-1-3h-1 1m16-39v1-1m3 3v1-1m3 6h-1 1m-5-4-1 1 1-1m1 14h-1 1m3-2h-1 1m-4-3v1-1m-1-3v1-1m3-1-1 1 1-1m-4-9v1-1m1 3v1-1m3 3-1 1 1-1m27 1h-1 1m6 0h-1 1m35 6h-1 1m18 55-1 1 1-1m-3 0h-1 1m-6-3h-1 1m0-4h-1 1m-3-1v1-1m-3 0v1-1m4-5h-1 1m-5 2-1 1 1-1m4-5h-1 1m-6 2-1 1 1-1m1-4h-1 1m-12-24h-1 1m-3-3h-1 1m4-1h-1 1m0-4v1-1m5 0h-1 1m-2-1h-1 1m-30-13-1 1 1-1m3 4h-1 1m0-4h-1 1m6-3-1 1 1-1m-1-4h-1 1m4-7h-1 1m-2 7-1 1 1-1m-17 10h-1 1m-24 8h-1 1" style="fill:#d0362d;stroke-width:.10752"/><path d="M123 35h-1 1m22 0h-1 1m9-10h-1 1m4 0h-1 1m-1-3v1-1m4 1-1 1 1-1m1-6v1-1m25 18v1-1m0 5h-1 1m-4 3h-1 1m-3 3h-1 1m-4-5v1-1m0 7h-1 1m-4-1h-1 1m7 2h-1 1m-9-5h-1 1m22 31-1 1 1-1m12 16h-1 1m-12-10h-1 1m4 0h-1 1m-75-42" style="fill:#d0362d;stroke-width:.074964"/><path d="m99 67-1 1 1-1m-5-2-1 1 1-1m5-7h-1 1" style="fill:#d0362d;stroke-width:.10752"/><path d="M94 54h-1 1m-2 4h-1 1m1 4h-1 1m3-3-1 1 1-1m2 2h-1 1m4 2v1-1m-1 5" style="fill:#d0362d;stroke-width:.068449"/><path d="M115 36h-1 1m1-4v1-1m4-4h-1 1" style="fill:#d0362d;stroke-width:.074964"/><path id="path-b7147" d="m m0 81 m0 103 m0 65 m0 65 m0 65 m0 65 m0 65 m0 65 m0 65 m0 65 m0 65 m0 65 m0 65 m0 65 m0 65 m0 65 m0 65 m0 65 m0 65 m0 65 m0 82 m0 66 m0 115 m0 56 m0 86 m0 57 m0 80 m0 114 m0 70 m0 116 m0 111 m0 67 m0 73 m0 66 m0 51 m0 99 m0 102 m0 55 m0 67 m0 112 m0 74 m0 106 m0 105 m0 122 m0 114 m0 107 m0 111 m0 47 m0 55 m0 118 m0 87 m0 100 m0 98 m0 114 m0 50 m0 71 m0 88 m0 88 m0 70 m0 43 m0 76 m0 81 m0 115 m0 105 m0 71 m0 81 m0 114 m0 118 m0 81 m0 79 m0 108 m0 110 m0 109 m0 49 m0 69 m0 106 m0 117 m0 67 m0 99 m0 105 m0 90 m0 54 m0 67 m0 66 m0 99 m0 119 m0 61 m0 61"/>
</svg>