<svg xmlns="http://www.w3.org/2000/svg" xmlns:xlink="http://www.w3.org/1999/xlink" width="32" height="16" viewBox="0 0 60 36" fill="#fff">
	<title>Flag of the Comoros</title>
	<path d="m0 0h60v36H0z"/>
	<path fill="#ffd100" d="m0 0h60v9H0z"/>
	<path fill="#ef3340" d="m0 18h60v18H0z"/>
	<path fill="#003da5" d="m0 27h60v9H0z"/>
	<path fill="#009639" d="m30 18L0 36V0z"/>
	<path d="m12.519 9.809a8.25 8.25 0 0 0 0 16.382 8.5 8.5 0 1 1 0-16.382z"/>
	<g id="t">
		<path id="s" d="m12.519 10.75 1.029 3.166-2.693-1.957h3.329l-2.693 1.957z"/>
		<use xlink:href="#s" y="3.75"/>
	</g>
	<use xlink:href="#t" y="7.5"/>
<path id="path-b7248" d="m m0 77 m0 65 m0 65 m0 65 m0 65 m0 65 m0 65 m0 65 m0 65 m0 65 m0 65 m0 65 m0 65 m0 65 m0 65 m0 65 m0 65 m0 65 m0 65 m0 65 m0 77 m0 74 m0 80 m0 56 m0 100 m0 115 m0 51 m0 99 m0 50 m0 115 m0 66 m0 121 m0 75 m0 82 m0 114 m0 110 m0 77 m0 112 m0 53 m0 72 m0 47 m0 53 m0 100 m0 81 m0 110 m0 122 m0 43 m0 43 m0 76 m0 47 m0 48 m0 104 m0 78 m0 68 m0 81 m0 49 m0 100 m0 115 m0 115 m0 119 m0 85 m0 81 m0 90 m0 112 m0 84 m0 74 m0 112 m0 69 m0 121 m0 79 m0 48 m0 76 m0 72 m0 84 m0 120 m0 117 m0 48 m0 43 m0 89 m0 53 m0 106 m0 75 m0 52 m0 117 m0 117 m0 103 m0 61 m0 61"/>
</svg>
