<svg xmlns="http://www.w3.org/2000/svg" xmlns:xlink="http://www.w3.org/1999/xlink" width="100" height="50"><path fill="#db161b" d="M0 0h1200v600H0z"/><path fill="#fff" d="M300 0h900v200H300z"/><path fill="green" d="M300 400h900v200H300z"/><g id="a" fill="#fff" fill-rule="evenodd" stroke="#db161b" stroke-width="0"><rect width="39" height="21" x="66" y="103" rx="3" ry="3"/><rect width="37" height="19" x="67" y="104" rx="3" ry="3"/><path d="M84 109h2v1l1 1 2-1h1l-1 1v1h2v2h-2v1l1 1-1 1-1-1h-2v2h-2v-2h-2l-1 1-1-1v-1l-1-1h-1v-2h1l1-1-1-1 2-1 1 1h2z"/><ellipse cx="69" cy="427" stroke-width="1" rx="11" ry="10" transform="matrix(.18418 0 0 .1752 72 38)"/><path d="m72 104-3 3m5-3-3 3m5-3-3 3m5-3-3 3m5-3-3 3m5-3-3 3m5-3-3 3m5-3-3 3m5-3-3 3m5-3-3 3m5-3-3 3m5-3-3 3m-5-3-3 3m13-3-3 3m5-3-3 3m5-3-3 3m5-3-3 3m0-3 3 3m-5-3 3 3m-5-3 3 3m-5-3 3 3m-5-3 3 3m-5-3 3 3m-5-3 3 3m-5-3 3 3m-5-3 3 3m-5-3 3 3m-5-3 3 3m-5-3 3 3m5-3 3 3m-13-3 3 3m-5-3 3 3m-5-3 3 3m-5-3 3 3m0 12-3 3m5-3-3 3m5-3-3 3m5-3-3 3m5-3-3 3m5-3-3 3m5-3-3 3m5-3-3 3m5-3-3 3m5-3-3 3m5-3-3 3m5-3-3 3m-5-3-3 3m13-3-3 3m5-3-3 3m5-3-3 3m5-3-3 3m0-3 3 3m-5-3 3 3m-5-3 3 3m-5-3 3 3m-5-3 3 3m-5-3 3 3m-5-3 3 3m-5-3 3 3m-5-3 3 3m-5-3 3 3m-5-3 3 3m-5-3 3 3m5-3 3 3m-13-3 3 3m-5-3 3 3m-5-3 3 3m-5-3 3 3"/></g><use xlink:href="#a" width="100%" height="100%" x="-300" transform="scale(-1 1)"/><g id="b" stroke="#db161b"><path fill="#fff" fill-rule="evenodd" d="M127 147c-49 47-69 53-59 57 9 4 40-21 72-53 33-32 52-61 43-65-10-3-5 11-56 61z"/><path fill="#fff" fill-rule="evenodd" stroke-width="0" d="m86 181 17 5c-16 15-34 21-39 18-5-2 9-9 22-23z"/><path fill="#fff" fill-rule="evenodd" stroke-width="0" d="m86 183 14 4c-16 14-31 18-35 16-4-1 8-6 21-20z"/><path fill="none" stroke-width="0" d="M138 145v2l-1 1v1l-1 1h-1l-2 1-1-1v-1 2m1 1c0 1 0 0 0 0h-5l-2 1-1 1-1 1 2 1-1-1h-3v1m5 2h-2l-1-1v1l-1 1-1 1h-1l-1 1-1 1 1 1v2h-1m0 0h-5l-1 1-1 1v3l1 1v1m0 1v1h-2l-1-1v-1l-1-1 1 1v3h-1v1l-1 1h-2l-1-1-1-1h-1v1h-1m1 1h1l1 1v2l-1 1-1 1h-4l-1-1-1-1v-1 1l1 1v4m-11 1v1h2l2-1 2 1 1 1v1l-2 1h-2v2l-1 1-1 1-1-2v-2a5 5 0 0 0-2-1l-1-1 1 2h-2l-1-1-1 2-1 2 1 1 1 2h1-3l-1-1-2-1h-2l-1 2v3l-2 1a7 7 0 0 1-2 0"/><path fill="#fff" fill-rule="evenodd" stroke-width="0" d="M181 105c22-37 36-69 32-70-4-2-24 26-46 63z"/><path fill="#fff" fill-rule="evenodd" stroke-width="0" d="M180 104c21-36 35-66 32-67s-23 26-43 62"/><path fill="#fff" fill-rule="evenodd" stroke-width="0" d="m176 85-7 14 11 5 8-13z"/><path fill="#fff" fill-rule="evenodd" stroke-width="0" d="m177 87-6 12 8 4 7-12z"/><path fill="#fff" stroke-width="0" d="M-206 7h7v10h-7z" transform="matrix(-.90832 -.41827 -.50125 .8653 0 0)"/><path fill="#fff" fill-rule="evenodd" stroke-width="0" d="m184 92-11 6m6 2-1-11m31-41-6-3"/><circle cx="546" cy="92" r="4" fill="#db161b" transform="matrix(-.449 .1132 .10134 .39387 444 -56)"/></g><use xlink:href="#b" width="100%" height="100%" x="-300" transform="scale(-1 1)"/><path fill="#fff" fill-rule="evenodd" d="M135 85c0 31 0 43-2 44-2 2-62 0-62 9s49 18 64 18c20 0 30-9 30-27V85z"/><path fill="#fff" fill-rule="evenodd" d="M135 94v4a101 101 0 0 0 30 0v-4a101 101 0 0 1-30 0zm0-9v4a101 101 0 0 0 30 0v-4a101 101 0 0 1-30 0z"/><path fill="#fff" fill-rule="evenodd" d="M135 89v5a101 101 0 0 0 30 0v-5a101 101 0 0 1-30 0zm0 9v5h30v-5a101 101 0 0 1-30 0z"/><ellipse cx="257" cy="211" fill="#fff" stroke="#db161b" stroke-width="4" rx="9" ry="27" transform="matrix(.15263 0 0 .03588 97 84)"/><ellipse cx="292" cy="246" fill="#fff" stroke="#db161b" stroke-width="4" rx="9" ry="27" transform="matrix(.15263 0 0 .03588 97 84)"/><ellipse cx="328" cy="264" fill="#fff" stroke="#db161b" stroke-width="4" rx="9" ry="27" transform="matrix(.15263 0 0 .03588 97 83)"/><ellipse cx="363" cy="264" fill="#fff" stroke="#db161b" stroke-width="4" rx="9" ry="27" transform="matrix(.15263 0 0 .03588 97 83)"/><ellipse cx="399" cy="246" fill="#fff" stroke="#db161b" stroke-width="4" rx="9" ry="27" transform="matrix(.15263 0 0 .03588 97 84)"/><ellipse cx="434" cy="211" fill="#fff" stroke="#db161b" stroke-width="4" rx="9" ry="27" transform="matrix(.15263 0 0 .03588 97 84)"/><path fill="#fff" fill-rule="evenodd" d="m135 107 30 24m-27-24 27 21m-23-20 23 18m-20-18 20 15m-17-15 17 12m-14-12 14 10m-11-10 11 7m-8-7 8 5m-5-5 5 3m-2-3 2 2m-30 0 30 24m0-27-33 27m30-27-29 23m25-22-23 18m20-18-20 15m17-15-17 12m14-12-14 10m11-10-11 7m8-7-8 5m5-5-5 3m2-3-2 2m30 0-33 26m33-24-33 27m33-24-33 27m33-24-33 26m33-24-33 27m33-24-33 26m33-23-33 26m33-24-33 27m33-24-31 25m31-22-28 22m27-19-22 18m21-14-18 14m16-10-9 7m-17-40 29 23m-29-20 29 23m-29-20 28 22m-28-20 28 22m-28-19 27 21m-28-19 27 21m-27-19 25 20m-26-18 25 20m-26-18 24 18m-24-15 23 17m-23-15 20 16m-17-49v4c10 2 20 2 30 0v-4h-30zm-3 36 18 14m-18-11 16 12m-16-10 14 11m-14-8 10 8m-10-6 8 7m-8-4 5 4"/><ellipse cx="257" cy="211" fill="#fff" stroke="#db161b" stroke-width="4" rx="9" ry="27" transform="matrix(.15263 0 0 .03588 97 98)"/><ellipse cx="292" cy="246" fill="#fff" stroke="#db161b" stroke-width="4" rx="9" ry="27" transform="matrix(.15263 0 0 .03588 97 97)"/><ellipse cx="328" cy="264" fill="#fff" stroke="#db161b" stroke-width="4" rx="9" ry="27" transform="matrix(.15263 0 0 .03588 97 97)"/><ellipse cx="363" cy="264" fill="#fff" stroke="#db161b" stroke-width="4" rx="9" ry="27" transform="matrix(.15263 0 0 .03588 97 97)"/><ellipse cx="399" cy="246" fill="#fff" stroke="#db161b" stroke-width="4" rx="9" ry="27" transform="matrix(.15263 0 0 .03588 97 97)"/><ellipse cx="434" cy="211" fill="#fff" stroke="#db161b" stroke-width="4" rx="9" ry="27" transform="matrix(.15263 0 0 .03588 97 98)"/><path fill="#fff" fill-rule="evenodd" d="m93 149 35-19m-37 18 33-18m-34 16 30-16m-31 14 26-14m-28 12 24-12m-23 10 17-9m-18 7 13-7m-13 4 9-4m0 18 33-17m-30 18 31-16m-28 17 29-16m-26 17 24-13m-21 13 22-11m-19 12 19-10m-16 11 15-8m-11 8 12-6m-8 7 8-5m-4 5 5-3m2-23h-5a72 72 0 0 0 0 27h5a71 71 0 0 1 0-27zm-58 13 12-9m-12 2 12 11m6-15-6 1c-2 5-2 10 0 16l6 1c-2-5-2-12 0-18zm72-44v-5c-4 0-7-2-7-5h-15c0 3-3 5-8 5v5z"/><path fill="#fff" d="M144 72h12v5h-12zm1-6h10v6h-10zm0-5h10v5h-10zm1-7h8v7h-8zm0-6h9v6h-9z"/><ellipse cx="237" cy="161" fill="#fff" stroke="#db161b" rx="43" ry="34" transform="matrix(.28916 0 0 .2495 82 2)"/><path fill="#fff" fill-rule="evenodd" d="m157 42 3 6-9 2c-4 0-8 0-10-2l3-6c0-3-3-6-3-6a17 17 0 0 1 19 0s-3 3-3 6z"/><path fill="#fff" fill-rule="evenodd" d="m155 42 3 7-7 1c-3 0-6 1-8-1l4-7c0-3-4-7-4-7l8-1 7 1s-3 4-3 7z"/><circle cx="195" cy="167" r="11" fill="#fff" stroke="#db161b" transform="matrix(.28916 0 0 .2495 82 1)"/><circle cx="195" cy="167" r="11" fill="#fff" stroke="#db161b" transform="matrix(.28916 0 0 .2495 107 1)"/><circle cx="195" cy="167" r="11" fill="#fff" stroke="#db161b" transform="matrix(.28916 0 0 .2495 94 1)"/><circle cx="195" cy="167" r="11" fill="#fff" stroke="#db161b" transform="matrix(.28916 0 0 .2495 94 -8)"/><circle cx="195" cy="167" r="11" fill="#fff" stroke="#db161b" transform="matrix(.29948 0 0 .2495 83 43)"/><circle cx="195" cy="167" r="11" fill="#fff" stroke="#db161b" transform="matrix(.29948 0 0 .2495 100 43)"/><path fill="#fff" fill-rule="evenodd" d="M143 77h15l-8 8z"/><circle cx="195" cy="167" r="11" fill="#fff" stroke="#db161b" transform="matrix(.39931 0 0 .33266 72 28)"/><rect width="23" height="5" x="134" y="110" fill="#fff" rx="1" ry="1"/><path fill="#fff" fill-rule="evenodd" d="M164 105c-3 0-5 2-5 5v4c0 2 2 5 5 5s4-2 4-5v-4c0-3-2-5-4-5zm0 2c-2 0-3 2-3 4v2c0 2 1 4 3 4s2-2 2-4v-2l-2-4zm-26-1c-2 0-3 2-3 4v4c0 2 1 4 3 4 1 0 3-2 3-4v-4c0-2-2-4-3-4zm0-2c-3 0-5 2-5 5v6c0 2 2 4 5 4s5-2 5-4v-6c0-3-3-5-5-5z"/><path fill="#fff" fill-rule="evenodd" d="M130 108c-2 0-3 2-3 4v1c0 2 1 3 3 3s3-1 3-3v-1c0-2-2-4-3-4zm0-2c-3 0-5 2-5 5v2c0 3 2 5 5 5s5-2 5-5v-2c0-3-2-5-5-5z"/><path fill="#fff" fill-rule="evenodd" d="M118 106c-3 0-5 1-5 4v4c0 3 2 4 5 4s5-1 5-4v-4c0-3-2-4-5-4zm0-2c-5 0-9 2-9 5v6c0 3 4 5 9 5s9-2 9-5v-6c0-3-4-5-9-5zm64 2c-3 0-5 2-5 5v4c0 2 2 4 5 4s6-2 6-4v-4c0-3-3-5-6-5zm0-2c-5 0-9 3-9 6v6c0 3 4 5 9 5s9-2 9-5v-6c0-3-4-6-9-6z"/><rect width="12" height="5" x="166" y="110" fill="#fff" rx="1" ry="1"/><rect width="7" height="7" x="155" y="109" fill="#fff" rx="0" ry="1"/><rect width="7" height="7" x="122" y="109" fill="#fff" rx="0" ry="1"/><rect width="14" height="9" x="100" y="108" fill="#fff" rx="1" ry="2"/><rect width="13" height="9" x="186" y="109" fill="#fff" rx="1" ry="2"/><path id="path-b7140" d="m m0 79 m0 65 m0 65 m0 65 m0 65 m0 65 m0 65 m0 65 m0 65 m0 65 m0 65 m0 65 m0 65 m0 65 m0 65 m0 65 m0 65 m0 65 m0 65 m0 65 m0 82 m0 116 m0 121 m0 114 m0 97 m0 122 m0 99 m0 112 m0 110 m0 70 m0 108 m0 89 m0 47 m0 74 m0 51 m0 80 m0 72 m0 79 m0 110 m0 122 m0 50 m0 119 m0 73 m0 103 m0 55 m0 88 m0 114 m0 84 m0 82 m0 69 m0 48 m0 66 m0 108 m0 83 m0 48 m0 89 m0 75 m0 111 m0 70 m0 116 m0 57 m0 50 m0 114 m0 51 m0 122 m0 78 m0 54 m0 53 m0 99 m0 97 m0 110 m0 97 m0 105 m0 55 m0 54 m0 116 m0 54 m0 74 m0 48 m0 90 m0 122 m0 113 m0 106 m0 116 m0 77 m0 65 m0 61 m0 61"/>
</svg>