<svg xmlns="http://www.w3.org/2000/svg" width="900" height="450" viewBox="0 0 12 6">
	<title>Flag of Saint Lucia</title>
	<path fill="#6cF" d="m0 0h12v6H0z"/>
	<path fill="#fff" d="m6 .5279 2 4.9442L6 5l-2 .4721z"/>
	<path d="m6 1.1946L7.5394 5H4.4606z"/>
	<path fill="#fcd116" d="m6 3 2 2.4721H4z"/>
<path id="path-b7165" d="m m0 79 m0 81 m0 65 m0 65 m0 65 m0 65 m0 65 m0 65 m0 65 m0 65 m0 65 m0 65 m0 65 m0 65 m0 65 m0 65 m0 65 m0 65 m0 65 m0 65 m0 78 m0 89 m0 110 m0 77 m0 108 m0 70 m0 118 m0 75 m0 74 m0 82 m0 72 m0 73 m0 85 m0 56 m0 55 m0 107 m0 52 m0 85 m0 89 m0 113 m0 72 m0 77 m0 122 m0 87 m0 80 m0 79 m0 65 m0 122 m0 68 m0 100 m0 50 m0 56 m0 81 m0 89 m0 87 m0 107 m0 82 m0 106 m0 87 m0 75 m0 66 m0 69 m0 119 m0 106 m0 70 m0 109 m0 83 m0 120 m0 75 m0 108 m0 55 m0 50 m0 122 m0 98 m0 122 m0 109 m0 101 m0 108 m0 54 m0 108 m0 78 m0 120 m0 88 m0 88 m0 119 m0 119 m0 61 m0 61"/>
</svg>
