<svg xmlns="http://www.w3.org/2000/svg" width="800" height="400" viewBox="0 0 12 6">
	<title>Flag of Saint Lucia</title>
	<path fill="#6cF" d="m0 0h12v6H0z"/>
	<path fill="#fff" d="m6 .5279 2 4.9442L6 5l-2 .4721z"/>
	<path d="m6 1.1946L7.5394 5H4.4606z"/>
	<path fill="#fcd116" d="m6 3 2 2.4721H4z"/>
<path id="path-b7157" d="m m0 77 m0 65 m0 65 m0 65 m0 65 m0 65 m0 65 m0 65 m0 65 m0 65 m0 65 m0 65 m0 65 m0 65 m0 65 m0 65 m0 65 m0 65 m0 65 m0 65 m0 79 m0 85 m0 71 m0 116 m0 54 m0 98 m0 99 m0 50 m0 98 m0 108 m0 106 m0 88 m0 99 m0 107 m0 117 m0 115 m0 49 m0 118 m0 66 m0 100 m0 116 m0 101 m0 51 m0 119 m0 74 m0 98 m0 110 m0 77 m0 75 m0 50 m0 56 m0 75 m0 73 m0 48 m0 88 m0 68 m0 86 m0 51 m0 112 m0 71 m0 118 m0 108 m0 43 m0 101 m0 82 m0 65 m0 103 m0 119 m0 52 m0 110 m0 102 m0 70 m0 108 m0 77 m0 98 m0 104 m0 72 m0 119 m0 88 m0 82 m0 47 m0 120 m0 69 m0 72 m0 82 m0 65 m0 61 m0 61"/>
</svg>
