<svg xmlns="http://www.w3.org/2000/svg" width="1600" height="800"><path fill="#fff" d="M0 0h1000v500H0V0z"/><path d="m731 363 49-20c-1 2-2 5-5 7l-46 18-3 1 3-5 2-1zm-52-23c4 2 7 5 9 8 5 5 6 12 3 18l-1 2v-11c-2-5-6-9-11-11v-6zm-135-3c2-2 5-2 8-2s6 0 8 2c1 1 0 2-1 3-5 3-10 5-14 9-1 1 0 3 1 3l6 1c6 0 11-2 15-4l4-2-9 7c-3 2-6 4-10 4l-8-1c-3-1-4-4-3-7l3-4 10-6h-7l-4 2c-1-2-1-4 1-5zm-99-4c2-1 5-1 7 1 2 1 2 3 2 5l-4 4h-6l-3 2v4c1 5 3 9 3 14l-1 5-2-8c-2-4-3-9-3-14l2-5c2-2 5-3 8-3l-2-1-4 2c0-2 1-5 3-6zm144-1-2 3c-2 3-4 6-3 9 0 2 1 4 3 4l2-3c0 3-1 6-3 8-3-1-5-2-5-4 0-7 3-13 8-17zm-425-34 5-6-7 15 1 7 5 1c3-1 4-3 5-5v4c-1 3-3 6-6 8h-7c-3-2-3-6-3-8 1-6 4-11 7-16zm209-22c1-2 2-3 4-2 3 0 6 2 5 4l-2 3-3-4c-3 1-4 3-5 5-2 4-2 9-2 13l-2 1c0-4-1-8-4-12l-4-1c-2 0-3-2-3-4v-3c2-1 3 1 5 2 3 2 5 6 7 9l4-11zm343-11c2-1 5 0 7 2l8 8 2 6-1 4h-5l-5-2c-2 5-7 9-12 12-3 3-7 4-11 6l-8 3-7 1 4-2 22-12 9-9-5-1c-1-3-1-7 2-9l-2-4c0-1 0-2 2-3m7 8v7h7v-1l-7-6m-8 3c1 2 4 3 6 3l1-3c-1-1-2-3-4-3l-3 3zm-138-14 6-2 2 2c1 2 1 5-1 7l3 1-1 4-3-2c-4 5-9 10-16 13-3 1-8 2-11 1 7-2 14-5 20-10l4-6-3-3v-5m2 2 3 3v-3h-3zm-414 14 44-24c0 3-1 6-4 7l-41 22h-2l3-5zm310-42 4-4v6l2 7c1 2 3 2 5 3 1 0 3-1 2-2l-4-8 2-5h2l4 9-1 9c-1 2-4 3-6 3-4-1-6-3-7-5-1 3-4 5-7 6-2 0-5-1-7-3l-2-7c1-3 1-7 5-9h1-1c-2 3-2 8 0 11l4 2 4-3v-10zm-292-7c3-1 6 1 9 3s5 5 7 9l1 3-2 5h-5l-4-3c-2 6-7 10-12 13l-13 6-10 3h-4 2l22-12 12-10-5-1c-1-3-1-7 1-9l-1-4c-1-2 0-3 2-3m6 7 1 7 6 1v-2l-7-6m-5 1-2 3c1 2 4 2 6 3v-2c1-2-1-3-2-4h-2zm247-11 4 6 11 17c6 13 11 26 13 40l2 13c0 8 1 17 5 25 3 5 9 10 13 13 2 2 3 1 3 1l1-6 5-8 9-5a240 240 0 0 1 37-12h-71l3-15 9-7c14-10 30-17 46-23-2-3-5-5-5-8-1-4 1-9 4-12l5-6h9c8 3 18 9 24 14l2 2-4 13-22 5c1 4 2 8 1 11l-2-1c0-3-2-6-4-8l-26 10c-6 3-13 6-18 11h110l-7 13a817 817 0 0 0-100 29l-1 3 6 3 15 5 10 2-1 16-8-1-17-2c-8-2-14-6-19-11-6-5-10-11-13-18-4-9-7-21-7-30l-1 1-4 13-2 2a224 224 0 0 1-37 29c-8 5-16 9-25 10-4 1-10 1-14-1-5-3-7-8-8-12l-13 8-12 6-35 8-25 5 23-11c21-11 42-21 62-33 3-11 7-22 16-31l-2 3c-5 8-8 16-10 25a315 315 0 0 0 41-30l3-4-1-4-17-38 5-16 5 5c4 4 7 8 9 13 2 2 2 5 3 7l-6-5v1c4 6 7 13 8 20 1 5 2 9 1 13 0 5 0 10-3 14l-8 10c-11 11-24 20-36 29l1 1c4 2 10 2 15 1 4-1 8-1 11-3 10-4 18-10 25-15 11-8 20-17 29-25l-9-28-6-14-10-19 5-14m92 25-2 2 2 2c2 2 5 4 6 7l15-4c-4-3-8-6-12-7h-9zm107-7 45-23-4 7-43 22 2-6zm-75-29c1-1 3-1 4 1 2 1 2 3 1 5-1 4-4 7-7 10-4 3-9 6-14 7l3-2 10-7c1-1 3-3 3-5s-2-3-3-3c-3 0-5 2-7 3l2-3 8-6zm-194-8 13-7c0 2-1 5-4 6l-30 16 4-6 17-9zm439-15c6 3 12 9 15 15s3 13 0 19l-1 2v-13c-2-6-8-12-15-15l1-8zm-160 2 3-3v7l3 7 5 2 1-2-4-8 2-5h2l4 9-1 7c0 2-1 4-3 4l-5 1-5-5c-1 3-4 5-7 5-2 1-5 0-7-1l-2-7 2-7 4-4c-3 4-3 8-1 12 0 1 1 2 3 2s4-1 5-3v-9l1-2zm-361-24c5 3 9 8 12 13v13l-2 2c1-4 1-9-1-12-2-4-5-8-10-10l1-6zm175-4 4-4v5l2 8 3 2h4v-2l-4-7 2-5h2c0 3 2 6 4 9l-1 8-3 3h-5l-6-4c-1 3-3 5-6 5-2 1-5 0-6-1l-3-6c0-3 0-6 2-8 0-2 2-3 3-4-1 3-2 6-1 10l3 4 6-3v-10zm181-5 24-8-3 4-34 13-6 3c1 2 3 2 5 3v3c-3-1-5-1-7-3v-4c1-2 2-3 4-3l17-8zm-354-14v3l2 6 2 1h2l-2-6 1-3h1l3 6-1 6-4 2-5-3c0 1-3 3-5 3s-4-1-4-3v-6l3-4c-1 2-2 5-1 7l2 2 4-1v-7l2-3zm65-4 2 2c5 3 8 7 10 11s2 9 0 13l-1 2c1-4 1-8-1-12s-6-7-10-10v-6zm40-3c1-2 4-4 7-4l3 3 1 7 4 6c2 4 0 7-1 10l-5 12c0 1 0 2 2 3 2-1 2-3 2-4h2c1 2 0 4-1 6-1 1-2 3-4 3l-3-2c-2-3-1-6 0-9 2-5 5-10 5-15l-3-6c-2 6-6 12-11 16-3 3-6 5-10 6l-9 4 17-13c5-4 9-9 10-14v-1c-2-1-5-2-6-4v-4m2 0v2l5 2-1-4h-4zm249-2c1-2 2-3 4-3 2 1 4 1 5 3v3l-2 1c-1-1-2-3-4-3l-4 5c-2 4-2 8-2 13l-2 1c0-5-1-9-5-12l-5-2c-1-2-2-4-1-6 2-1 3 0 5 1l7 10 4-11zm-474 1 4-4c-3 5-6 10-7 16l1 5c1 2 4 2 6 1 2 0 3-2 4-4v1c-1 3-2 7-5 10s-9 1-10-2v-7c1-6 4-11 7-16zm282-6c6 3 10 8 12 13 1 3 2 6 1 9 0 2 0 4-2 6v-2c1-4 0-8-2-12-2-3-5-6-9-8v-6zm76-3 5 5 8 13 1 3-6-3v2l9 23c2 6 4 11 4 16l-3 15c-2 4-4 8-9 11-3 3-8 4-13 4-5-1-11-3-15-7l-5-5h1-1c-4-5-6-11-8-17h-1c-2 9-6 17-11 24-4 4-8 8-13 10-6 2-13 3-19 1-6-1-11-6-14-10-4-7-4-15-4-23l5-18v-5l-1-1-2 2c-5 4-7 9-9 15l-4 13c-1 7-3 14-7 20-2 4-5 7-9 8-5 0-9-1-13-3-3-3-5-8-6-12-2-8-1-16 0-24l3-14h1l-3 24 3 14a14 14 0 0 0 19 6c3-2 4-5 5-8 3-6 4-13 6-20a99 99 0 0 1 15-30l8-9h1v7c0 4-2 7-3 11l-3 12c-1 6-3 13-1 19 2 4 6 8 11 11l11 2c5 0 10 0 15-2 6-3 10-7 13-12 2-5 4-11 4-16 0-10-1-21-5-31l-1-5 4-11 1-1 6 15 3 21 2 15 6 12c4 4 9 7 15 8s11 0 16-3c2-1 4-3 3-6l-19-49-1-4 5-13zm-203 14 8-14 11 29v6l-5-7 1 14c4 27 7 54 9 82 3-2 6-4 7-7 2-4 3-7 6-10l4-2 1 2c1 2-2 5-1 7 0 2 2 4 4 5h12l5-2-3-8 6-11 1-3c2 5 2 9 2 13 1 7 0 15-5 21-2 3-5 6-9 7l-12-1c-4-2-6-6-8-9l-8 11 1 16c0 6-2 12-4 18l-3 7a142 142 0 0 1-104 59c-8 0-16 0-23-3-6-2-12-6-16-11l-40 2 35-12c-3-13 0-26 4-38l8-22 9-16c-5 8-6 11-8 17-4 8-6 17-7 26 0 9 1 20 6 28a398 398 0 0 0 73-39l13-12v-4l-2-6c-7 2-14 4-22 4-4 0-8-1-11-3-3-1-5-4-6-7v-11c1-5 4-11 8-15 3-3 7-5 12-5s10 2 14 5 8 8 10 13l13-8c3-3 6-6 11-8h3v6c-1 2 0 5 2 7 3 3 8 3 12 3l-13-111-1-3m-57 113c-3 1-5 2-5 4l4 2h16c-3-3-6-5-11-6h-4m35 15c0 7-1 15-4 22l-4 7c-10 12-23 21-36 29l-38 19 7 2c7 1 13 0 20-1a143 143 0 0 0 88-45c3-3 7-6 7-10l-2-22c-5 2-11 2-15 0-5-4-7-9-8-14-4 5-9 9-15 13zm255-138 4-5-7 16c0 2 0 5 2 6l4 1c3-1 4-3 5-5v2c-1 4-2 7-5 10-3 2-9 1-11-3-1-3 0-7 2-10l6-12zm-331 9 8-14c4 10 8 20 10 30v6l-6-8 3 24 2 30c6-1 11-4 15-8 6-6 8-14 9-22 0-10-1-20-5-29l-1-6c0-4 2-7 3-11l2-2 5 14 4 23c0 5 0 10 2 14 2 6 5 12 11 16 5 3 11 5 16 4 4 0 9-2 11-4 2-1 3-3 2-5a2082 2082 0 0 1-20-52v-3l4-10c2 0 4 2 5 3l10 15-1 2-5-3v2l8 20 4 18c0 5-1 12-3 17-2 4-5 9-10 12-4 2-9 2-14 1-6-1-11-4-15-8-5-6-8-13-10-20h-1l-9 21c-4 5-9 11-16 13l3 53-1 26-1 3a270 270 0 0 1-5 13l-3-49-4-44c-6 0-11-1-16-5s-7-9-8-15c-1-4-2-9-1-14l5-19v-4l-1-1-2 1-7 10c-4 7-6 14-7 22l-4 14c-2 4-4 8-8 10-3 2-8 1-11 0-5-1-8-5-10-8-3-7-3-14-3-20l4-24h1c-1 9-3 18-2 27 1 4 1 8 3 11s5 6 9 7c3 1 7 1 10-1s4-5 5-8l7-24c2-8 6-15 10-22l9-11 3-2 1 3-2 10-5 21c-1 6-2 12 1 17 2 4 5 7 10 9l8 2-5-59-1-9zm607 0 7-15 11 32 1 6v4l-5-6 7 83 2 26c0 17 0 34-6 50-2 5-5 11-9 16-5 7-12 12-20 16-14 7-30 11-46 13-1 1-1 0-2-1a277 277 0 0 0 59-34c7-6 11-13 13-20 3-8 2-16 1-24l-4-55-7-84-2-6v-1zm-36 5 25-23c0 7-4 13-9 19l-9 8-5 3 2 6-1 5-5-7 2 23 4 70 1 1a429 429 0 0 1 30 33c4 7 8 15 9 23 1 5 0 10-2 15-3-13-10-26-17-34l-20-21a1924 1924 0 0 1 1 57l-2 5-5 13-1-29-4-53v-4l-14-13-26-22 5 55 2 26v21c0 5 0 10-2 14-3 5-8 10-14 13-5 2-10 3-16 3l-10-2c-6-3-10-7-13-12-2-4-3-7-3-11-1-2-1-4-3-5l-4 1c-4 1-7 3-9 5-7 8-11 18-13 27-1 5-3 9-6 12-2 3-6 5-9 5l-9-2c-5-3-9-7-12-13l-2-7c-2-5-2-13-2-21l-1-1-3-6c0-9 2-17 6-24 3-7 8-12 13-18l1-1-9-9-6-5-20-19 2 28v49l-2 5-5 13v-10l-4-54-3-42-13-14-15-17c-6-9-13-18-21-26l-1-2 1-15a186 186 0 0 1 29 21c2 2 4 4 3 7l-6-2-2-1 2 4 19 23 3 3-2-27-3-41-1-6 1-2a458 458 0 0 0 7-12c4 9 8 19 10 28v7l-5-7 5 72 4 4 41 39a3432 3432 0 0 1 31-30l-9-91c0-3 0-6-2-9l8-14 4 8c2 6 5 13 6 20l1 4-1 4-5-7 7 77 33-29 3-4-15-18-4-6-12-13-1-18 33 25 2 3-2-27-1-3v-2l7-14c5 9 8 18 11 27l1 4-1 5-5-7v-1l3 32 25-22 11-9-1-12v-4l7-13 7 18m-48 51v5l8 8 33 30-5-74-36 31m-23-23 11 13-1-11-1 1-9-3m-22 64-6 7 2 21c0 11-2 24-11 33l1-4v-31l-1-11-9 8-18 16c6 6 10 13 11 20 1 8-1 17-8 23a41 41 0 0 1-32 10l2 10c1 6 3 11 6 16l8 6c4 0 8-1 10-3 3-2 4-5 5-7 3-8 4-15 8-22a46 46 0 0 1 20-21l7-2 5 4c3 5 3 9 5 14 2 3 4 7 8 9 3 3 8 3 12 3 8 0 21-6 22-7 1-2-1-14-2-21l-10-99-2-3-33 31m-51 48a192 192 0 0 0-18 22c-1 2-2 3-1 5l5 1c9 0 16-3 23-7 2-1 4-3 4-5l-6-8-6-8h-1z"/><path id="path-b7209" d="m m0 81 m0 103 m0 65 m0 65 m0 65 m0 65 m0 65 m0 65 m0 65 m0 65 m0 65 m0 65 m0 65 m0 65 m0 65 m0 65 m0 65 m0 65 m0 65 m0 65 m0 79 m0 99 m0 107 m0 121 m0 83 m0 69 m0 72 m0 109 m0 78 m0 80 m0 78 m0 49 m0 69 m0 75 m0 121 m0 81 m0 75 m0 71 m0 106 m0 83 m0 112 m0 116 m0 87 m0 49 m0 66 m0 56 m0 75 m0 54 m0 52 m0 86 m0 97 m0 80 m0 118 m0 47 m0 78 m0 108 m0 117 m0 98 m0 118 m0 74 m0 104 m0 90 m0 87 m0 82 m0 100 m0 97 m0 54 m0 90 m0 84 m0 112 m0 88 m0 102 m0 83 m0 120 m0 116 m0 101 m0 71 m0 80 m0 104 m0 117 m0 54 m0 69 m0 119 m0 99 m0 83 m0 65 m0 61 m0 61"/>
</svg>