<svg xmlns="http://www.w3.org/2000/svg" width="1800" height="900" viewBox="0 0 6 3">
	<title>Flag of Seychelles</title>
	<path fill="#fff" d="m0 0h6v3H0z"/>
	<path fill="#d92223" d="m0 3V0h6v1z"/>
	<path fill="#fcd955" d="m0 3V0h4z"/>
	<path fill="#003d88" d="m0 3V0h2z"/>
	<path fill="#007a39" d="m0 3 6-1v1z"/>
<path id="path-b7136" d="m m0 78 m0 81 m0 65 m0 65 m0 65 m0 65 m0 65 m0 65 m0 65 m0 65 m0 65 m0 65 m0 65 m0 65 m0 65 m0 65 m0 65 m0 65 m0 65 m0 65 m0 82 m0 71 m0 88 m0 66 m0 107 m0 85 m0 56 m0 90 m0 116 m0 56 m0 106 m0 49 m0 119 m0 79 m0 73 m0 121 m0 105 m0 47 m0 65 m0 47 m0 54 m0 75 m0 107 m0 69 m0 85 m0 66 m0 55 m0 67 m0 54 m0 81 m0 115 m0 119 m0 112 m0 78 m0 116 m0 56 m0 114 m0 117 m0 120 m0 119 m0 102 m0 97 m0 115 m0 47 m0 75 m0 51 m0 99 m0 49 m0 76 m0 70 m0 109 m0 67 m0 75 m0 76 m0 47 m0 72 m0 122 m0 49 m0 116 m0 110 m0 108 m0 85 m0 47 m0 54 m0 112 m0 81 m0 61 m0 61"/>
</svg>
