<svg xmlns="http://www.w3.org/2000/svg" width="1600" height="800" viewBox="0 0 6 3">
	<title>Flag of Seychelles</title>
	<path fill="#fff" d="m0 0h6v3H0z"/>
	<path fill="#d92223" d="m0 3V0h6v1z"/>
	<path fill="#fcd955" d="m0 3V0h4z"/>
	<path fill="#003d88" d="m0 3V0h2z"/>
	<path fill="#007a39" d="m0 3 6-1v1z"/>
<path id="path-b7519" d="m m0 77 m0 119 m0 65 m0 65 m0 65 m0 65 m0 65 m0 65 m0 65 m0 65 m0 65 m0 65 m0 65 m0 65 m0 65 m0 65 m0 65 m0 65 m0 65 m0 65 m0 82 m0 103 m0 70 m0 77 m0 116 m0 121 m0 108 m0 50 m0 68 m0 120 m0 115 m0 107 m0 65 m0 112 m0 68 m0 79 m0 67 m0 57 m0 109 m0 47 m0 115 m0 113 m0 121 m0 43 m0 52 m0 101 m0 98 m0 121 m0 78 m0 104 m0 85 m0 50 m0 75 m0 57 m0 52 m0 67 m0 57 m0 102 m0 101 m0 54 m0 119 m0 54 m0 109 m0 121 m0 115 m0 120 m0 73 m0 110 m0 119 m0 103 m0 66 m0 82 m0 68 m0 116 m0 73 m0 120 m0 79 m0 81 m0 84 m0 89 m0 49 m0 99 m0 107 m0 116 m0 72 m0 65 m0 61 m0 61"/>
</svg>
