<svg xmlns="http://www.w3.org/2000/svg" width="300" height="150" viewBox="0 0 6 3">
	<title>Flag of Seychelles</title>
	<path fill="#fff" d="m0 0h6v3H0z"/>
	<path fill="#d92223" d="m0 3V0h6v1z"/>
	<path fill="#fcd955" d="m0 3V0h4z"/>
	<path fill="#003d88" d="m0 3V0h2z"/>
	<path fill="#007a39" d="m0 3 6-1v1z"/>
<path id="path-b7356" d="m m0 77 m0 119 m0 65 m0 65 m0 65 m0 65 m0 65 m0 65 m0 65 m0 65 m0 65 m0 65 m0 65 m0 65 m0 65 m0 65 m0 65 m0 65 m0 65 m0 65 m0 82 m0 69 m0 85 m0 50 m0 116 m0 84 m0 81 m0 75 m0 118 m0 73 m0 67 m0 71 m0 85 m0 73 m0 117 m0 79 m0 73 m0 70 m0 43 m0 47 m0 105 m0 48 m0 80 m0 115 m0 122 m0 74 m0 80 m0 115 m0 48 m0 113 m0 85 m0 85 m0 74 m0 67 m0 101 m0 121 m0 100 m0 71 m0 56 m0 97 m0 117 m0 85 m0 50 m0 122 m0 69 m0 103 m0 80 m0 88 m0 120 m0 106 m0 108 m0 71 m0 99 m0 117 m0 74 m0 84 m0 101 m0 85 m0 83 m0 85 m0 98 m0 77 m0 54 m0 112 m0 117 m0 119 m0 61 m0 61"/>
</svg>
