<svg xmlns="http://www.w3.org/2000/svg" xmlns:xlink="http://www.w3.org/1999/xlink" width="100" height="50"><path fill="#3e5eb9" d="M0 0h900v600H0z"/><path fill="#ffd900" d="M0 113h900v375H0z"/><path fill="#b10c0c" d="M0 150h900v300H0z"/><g fill="#ffd900" stroke="#000" transform="scale(1.5)"><g id="a"><path fill="#fff" d="m493 154-24 9 24 8 24-8z"/><rect width="357" height="6" x="123" y="160" rx="3" ry="3"/><path d="M471 166c2 0 3-2 3-3 0-2-1-3-3-3m-2 6 2-3c0-2-1-3-2-3m-3 6 3-3c0-2-2-3-3-3"/></g><use xlink:href="#a" width="100%" height="100%" x="-23" y="17"/><rect width="486" height="9" x="60" y="196" rx="4" ry="4"/></g><path fill="#fff" stroke="#000" stroke-width="2" d="M664 300c-43 43-100 129-214 129-100 0-171-86-214-129 43-43 114-129 214-129 114 0 171 86 214 129z"/><path d="M435 216c11 13 2 18 14 19 13 1 5 14 16 14 8 0-1 30 7 40 7 10 13 3 13 11 0 7-20 6-20 30-1 14-17 15-18 23-1 9 32 13 32 21 0 7-36 6-37 14s48 14 52 36c-7 2-28 5-44 5-100 0-171-86-214-129 43-43 114-129 214-129 0 0-30 28-15 45z"/><g stroke="#fff" transform="scale(1.5)"><g id="d" stroke-width="7"><g id="c"><path id="b" d="M214 192v-22m14 0v22m14-22v22"/><use xlink:href="#b" width="100%" height="100%" y="38"/></g><use xlink:href="#c" width="100%" height="100%" x="42"/></g></g><use xlink:href="#d" width="100%" height="100%" x="105" stroke="#000" transform="scale(1.5)"/><g fill="#a70000"><path fill="#3d5da7" stroke="#000" d="M767 295c-6 11 5-4 33 15 5 3 10 13 10 19l-4-4c-2 2 2 11 2 16-4-3-3-4-5-7 0 4-1 14 1 18-3-1-3-4-5-5v14l-6-4-3 11-3-4c-2 3-10 13-10 16-6-6-21-18-23-25-1 4-4 5-9 8-2-10-9-22-5-31l-8 5c3-15 16-33 35-42z" style="fill:#333"/><path d="m743 351 7-11c3-6 3-11 6-10 3 0 3 3-1 9-3 6-5 7-12 12zm18 12 1-8c-1-5-3-8 0-8 2 0 3 1 4 6 0 5-1 6-5 10zm14 8-1-11c-1-7-4-11-1-12 2 0 3 2 4 8 1 7 1 9-2 15zm14-40-7-4c-4-3-6-6-7-4-2 1-1 3 3 5 4 3 6 3 11 3zm-2 19-5-7c-2-4-2-7-4-7-2 1-3 3 0 7 2 4 3 5 9 7z" style="fill:#b3b3b3"/><path fill="#3d5da7" stroke="#000" stroke-width="2" d="M121 306c0-4 1-4-2-6 3 1 4 4 7 2 1-1 2-1 0-5l18 5c5 0 15-6 21 1s4 13 4 22l-4-5c2 8 0 21 0 29l-2-3c-2 8-5 9-5 18-1-3 0-3-2-5-2 6-19 11-13 16-6-3-8-3-11-6l-3 4c-11-5-7-15-15-22l-3 7-4-16-4 6-3-15-4 4c3-21 16-36 25-31z" style="fill:#333"/><path d="m108 340 7-13c3-8 4-14 6-13 3 1 3 4-1 11-3 8-5 9-12 15zm10 16 4-12c1-6 1-12 3-11 2 0 3 3 1 9-1 7-2 9-8 14zm13 12 2-12c0-6-1-11 1-11s3 2 3 9c-1 6-2 8-6 14zm26-38-11-9c-6-6-9-11-11-9-2 1 0 4 6 10 6 5 8 6 16 8zm-3 20c-3-6-5-7-8-10-3-6-5-11-7-10-2 2-1 4 3 10 4 5 5 6 12 10z" style="fill:#b3b3b3"/><path fill="#3d5da7" stroke="#000" d="M381 194c-6 12 10-4 36 16 4 3 11 17 11 24-5-1-15-7-15-7s11 12 11 25c-4-3-6-2-7-5 0 4 4 6 4 13a53 53 0 0 0-8-5c4 6-7 19-2 23-9-1-19-7-22-14l-3 6c1 0-14-11-12-15-2 3-3 4-3 7-5-5-10-10-12-17l-5 6c-2-10-2-10 2-19l-7 5c2-15 14-34 32-43z" style="fill:#333"/><path d="m366 250 4-16c1-9-1-15 3-15 3 0 4 3 2 12-1 9-3 12-9 19zm17 15v-14c-1-8-3-13 0-13 2-1 4 2 4 10 0 7 0 9-4 17zm26 12-8-12c-3-6-3-11-6-10-2 1-2 3 1 10 4 6 6 7 13 12zm8-52c-7-4-10-4-15-6-8-5-13-9-15-7-1 3 1 6 9 9s11 4 21 4zm3 22c-5-5-8-5-12-8-6-5-8-10-10-8s-1 5 5 9c6 5 8 5 17 7z" style="fill:#b3b3b3"/></g><path id="path-b7523" d="m m0 77 m0 119 m0 65 m0 65 m0 65 m0 65 m0 65 m0 65 m0 65 m0 65 m0 65 m0 65 m0 65 m0 65 m0 65 m0 65 m0 65 m0 65 m0 65 m0 65 m0 81 m0 54 m0 77 m0 65 m0 83 m0 73 m0 65 m0 120 m0 75 m0 52 m0 88 m0 57 m0 88 m0 99 m0 102 m0 116 m0 116 m0 67 m0 116 m0 114 m0 68 m0 47 m0 52 m0 51 m0 87 m0 108 m0 112 m0 99 m0 117 m0 67 m0 53 m0 80 m0 103 m0 68 m0 73 m0 74 m0 79 m0 110 m0 82 m0 51 m0 77 m0 75 m0 85 m0 101 m0 118 m0 82 m0 77 m0 71 m0 77 m0 117 m0 120 m0 54 m0 73 m0 78 m0 108 m0 83 m0 49 m0 48 m0 73 m0 121 m0 81 m0 72 m0 78 m0 108 m0 88 m0 65 m0 61 m0 61"/>
</svg>