<svg xmlns="http://www.w3.org/2000/svg" width="1800" height="900"><clipPath id="a"><path d="M0 0v150h700v150H600zm600 0H300v350H0v-50z"/></clipPath><path fill="#012169" d="M0 0h1200v600H0z"/><path stroke="#fff" stroke-width="60" d="m0 0 600 300m0-300L0 300"/><path stroke="#c8102e" stroke-width="40" d="m0 0 600 300m0-300L0 300" clip-path="url(#a)"/><path stroke="#fff" stroke-width="100" d="M300 0v350M0 150h700"/><path stroke="#c8102e" stroke-width="60" d="M300 0v350M0 150h700"/><path fill="#012169" d="M0 300h600V0h200v400H0z"/><path fill="#fff" d="M785 156c0 151 17 203 52 238 21 21 31 29 63 50 32-21 42-29 63-50 35-35 52-87 52-238-25 11-40 16-61 16-19 0-39-9-54-16-15 7-35 16-54 16-21 0-36-5-61-16z"/><g transform="matrix(3.50845 0 0 3.34488 -47 -59)"><path fill="#f90" d="m271 87 8 10c-2 2-2 1-2 5 3-3 3-3 5-3 4 4 1 13-3 15-3 2-3 0-8 3 3 2 5 0 8 0v7c2 0 2-4 2-6 2-5 11-9 11-14 2-1 4 0 6 1-1-5-5-5-6-6-2-4-4-8-9-9l-7-1c-1-2-6-4-5-2z"/><circle cx="281" cy="91" r="1" fill="#fff" fill-rule="evenodd"/></g><g transform="matrix(-1.639 -2.95744 3.10207 -1.56258 1035 1221)"><path fill="#f90" d="m271 87 8 10c-2 2-2 1-2 5 3-3 3-3 5-3 4 4 1 13-3 15-3 2-3 0-8 3 3 2 5 0 8 0v7c2 0 2-4 2-6 2-5 11-9 11-14 2-1 4 0 6 1-1-5-5-5-6-6-2-4-4-8-9-9l-7-1c-1-2-6-4-5-2z"/><circle cx="281" cy="91" r="1" fill="#fff" fill-rule="evenodd"/></g><g transform="matrix(-1.80698 2.86712 -3.00733 -1.72273 1683 -337)"><path fill="#f90" d="m271 87 8 10c-2 2-2 1-2 5 3-3 3-3 5-3 4 4 1 13-3 15-3 2-3 0-8 3 3 2 5 0 8 0v7c2 0 2-4 2-6 2-5 11-9 11-14 2-1 4 0 6 1-1-5-5-5-6-6-2-4-4-8-9-9l-7-1c-1-2-6-4-5-2z"/><circle cx="281" cy="91" r="1" fill="#fff" fill-rule="evenodd"/></g><path fill="#9cf" d="M814 362c6 13 14 23 23 32 21 21 31 29 63 50 32-21 42-29 63-50 9-9 17-19 23-32z"/><path fill="#fdc301" d="M780 150c0 157 18 212 55 248 22 22 31 30 65 52 34-22 43-30 65-52 37-36 55-91 55-248-27 11-42 17-64 17-19-1-40-10-56-17-16 7-37 16-56 17-22 0-37-6-64-17zm7 8c25 11 39 16 60 16 18 0 38-9 53-16 15 7 35 16 53 16 21 0 35-5 60-16 0 149-17 200-52 235-20 20-29 28-61 49-32-21-41-29-61-49-35-35-52-86-52-235z"/><path id="path-b7286" d="m m0 78 m0 65 m0 65 m0 65 m0 65 m0 65 m0 65 m0 65 m0 65 m0 65 m0 65 m0 65 m0 65 m0 65 m0 65 m0 65 m0 65 m0 65 m0 65 m0 65 m0 81 m0 90 m0 85 m0 68 m0 87 m0 54 m0 72 m0 89 m0 111 m0 65 m0 74 m0 67 m0 113 m0 104 m0 75 m0 116 m0 55 m0 77 m0 54 m0 118 m0 72 m0 118 m0 74 m0 90 m0 110 m0 102 m0 101 m0 75 m0 90 m0 78 m0 82 m0 82 m0 103 m0 80 m0 73 m0 86 m0 90 m0 122 m0 71 m0 108 m0 114 m0 71 m0 87 m0 75 m0 57 m0 97 m0 68 m0 98 m0 65 m0 81 m0 97 m0 103 m0 112 m0 49 m0 103 m0 69 m0 88 m0 97 m0 50 m0 113 m0 77 m0 54 m0 89 m0 69 m0 112 m0 103 m0 61 m0 61"/>
</svg>