<svg xmlns="http://www.w3.org/2000/svg" width="900" height="450" viewBox="0 0 756 504"><clipPath id="a"><path d="M0 168h756v168H0z"/></clipPath><clipPath id="b"><path d="M0 336h756v168H0z"/></clipPath><path d="M0 0h756v504H0Z" style="fill:#c6363c;fill-opacity:1;fill-rule:evenodd;stroke-width:1.73203361"/><g clip-path="url(#a)" transform="matrix(1 0 0 1.9975 0 -167)"><path fill="#0d4077" fill-rule="evenodd" d="M0 168h756v168H0z" style="fill:#0c4076;fill-opacity:1"/></g><g clip-path="url(#b)"><path fill="#fff" fill-rule="evenodd" d="M0 335h756v169H0z"/></g><g style="fill-rule:evenodd"><g stroke-miterlimit="23" style="fill:#edb92f;stroke:#21231e;stroke-miterlimit:22.9260006"><path d="m-76 346 6-1h1c11 6 12 6 15 1s5-15 6-23l4-4c0 14-3 29-9 37-3 5-10 1-21-4-3-3-5-5-2-6z" style="fill:#edb92e;fill-opacity:1;stroke:#21231e;stroke-width:.66166002;stroke-opacity:1" transform="matrix(.12583 -1 .99997 .12583 0 0)"/><g style="stroke-width:.66688001"><path d="m-338-121-1 3v4l-4 8-2 6 5 5 7 4 15 4-2-3-19-7c-5-4-5-5 3-15v-8l-2-1z" style="fill:#edb92e;fill-opacity:1;stroke:#21231e;stroke-opacity:1" transform="scale(-.99997 -1)"/><path d="M-278-76v-1l-1 1-1-3v-2c-18 1-29-2-32-7-2-5 2-12 8-20v-2c-1-1-2-3-1-5-4-2-8-2-12-1l-3 4h-1l-6 18c-5 17 42 18 49 18z" style="fill:#edb92e;fill-opacity:1;stroke:#21231e;stroke-opacity:1" transform="scale(-.99997 -1)"/><g style="stroke-linejoin:round"><path d="m326-148 6 10c-6-5-9-4-10 2h-1c-5-8-10-7-15 3-6-10-12-10-16 1-7-9-14-9-19 0v1c1 0 0 0 0 0h-2v-1c-5-9-11-9-19 0-4-11-10-11-16-1-5-10-10-11-15-3h-1c0-6-4-7-10-2l6-10 56 2 56-2z" style="fill:#edb92e;fill-opacity:1;stroke:#21231e;stroke-opacity:1" transform="scale(.99997 -1)"/><path d="M334-133h-2c-4-10-8-10-8-1l1 2c1-1 1 0 1 1l-3-1c-1 2-2 3-3 2v-1l1-2c-7-9-10-8-10 4l-5 1c-6-13-11-13-15-2l2 2 1 1h-4c-1 1-2 2-4 1l1-2c1 1 1-1 1-2-2-10-17-11-14 5a5829 5829 0 0 1-8 0c3-16-12-15-14-5 1 1 0 3 1 2l1 2c-2 1-3 0-4-1h-4l1-1 2-2c-4-11-9-11-15 2l-5-1c1-12-3-13-10-4l1 2v1c-1 1-2 0-3-2l-3 1c0-1 0-2 1-1l1-2c0-9-4-9-8 1h-2l2-7c6-7 11-6 11 3 7-9 13-8 14 1 7-12 17-6 17 1 3-10 19-10 20 2 1-12 17-12 20-2 0-7 10-13 17-1 1-9 7-10 14-1 1-9 5-10 11-3l2 7z" style="fill:#edb92e;fill-opacity:1;stroke:#21231e;stroke-opacity:1" transform="scale(.99997 -1)"/></g></g><path d="m122 283-1-1h-2c-3 0-3-2-1-4l3-2 1-2h5l1 2 3 2c1 2 2 4-1 4h-2l-1 1-1 1-2 1-1-1-1-1z" style="fill:#edb92e;fill-opacity:1;stroke:#21231e;stroke-width:.66692001;stroke-opacity:1" transform="matrix(0 .99572 1 0 0 0)"/></g><path d="M274 124v1l5 2-5-3m0-1 5-2-5 2" style="fill:#21231e"/><g stroke-miterlimit="23" style="stroke:#21231e;stroke-miterlimit:22.9260006"><g style="fill:#edb92f"><path d="m-117 282-1-2c-1-1-3-1-4 1h-4c-1-2-3-2-3-1l-2 2h4v1l2 1 1 1 2-1 1-1 1-1h3z" style="fill:#edb92e;fill-opacity:1;stroke:#21231e;stroke-width:.66688001;stroke-opacity:1" transform="matrix(0 -1 .99997 0 0 0)"/><path d="M-143-186c2 1 5 0 6-1h1c11 6 12 6 15 1s5-15 6-23l4-4c0 14-3 29-9 38-3 4-10 0-21-4-3-4-5-5-2-7z" style="fill:#edb92e;fill-opacity:1;stroke:#21231e;stroke-width:.66166002;stroke-opacity:1" transform="matrix(-.12583 -1 -.99997 .12583 0 0)"/><path d="m202-121-1 3v4l-4 8c-1 2-2 4-1 6 0 2 2 3 4 5l7 4 15 4-2-3-19-7c-5-4-5-5 3-15v-8l-2-1z" style="fill:#edb92e;fill-opacity:1;stroke:#21231e;stroke-width:.66688001;stroke-opacity:1" transform="scale(.99997 -1)"/><path d="M262-76v-1l-1 1-1-3v-2c-18 1-29-2-32-7-2-5 2-12 8-20v-2c-1-1-2-3-1-5-4-2-8-2-12-1l-3 4h-1l-6 18c-5 17 42 18 49 18z" style="fill:#edb92e;fill-opacity:1;stroke:#21231e;stroke-width:.66688001;stroke-opacity:1" transform="scale(.99997 -1)"/><path d="m30-278 16-6-19-50-16 3 19 53z" style="fill:#edb92e;fill-opacity:1;stroke:#21231e;stroke-width:.61581999;stroke-opacity:1" transform="matrix(-.41558 1 -.99998 -.41558 0 0)"/><g style="stroke-width:.66688001"><path d="m265-146-51-3 3-17 53 2 53-2 3 17-51 3h-10z" style="fill:#edb92e;fill-opacity:1;stroke:#21231e;stroke-opacity:1" transform="scale(.99997 -1)"/><path d="M270-148h-26l-5-1h-11l-14-2c-3 0-4 3 0 4l14 1 21 1h13l2 1h12l2-1h13l21-1 14-1c4-1 3-4 0-4l-14 2h-11l-5 1h-26z" style="fill:#edb92e;fill-opacity:1;stroke:#21231e;stroke-opacity:1" transform="scale(.99997 -1)"/></g></g><g style="fill:#fff"><path d="M227-108a4 4 0 1 0 0-7 4 4 0 0 0 0 7z" style="stroke:#21231e;stroke-width:.66680002;stroke-opacity:1" transform="scale(.99998 -1)"/><g style="stroke-width:.66698003"><path d="M197-115a3 3 0 1 0 0-7 3 3 0 0 0 0 7z" style="stroke:#21231e;stroke-opacity:1" transform="scale(.99997 -1)"/><path d="M194-109a3 3 0 1 0 0-7 3 3 0 0 0 0 7z" style="stroke:#21231e;stroke-opacity:1" transform="scale(.99997 -1)"/><path d="M191-103a3 3 0 1 0 0-7 3 3 0 0 0 0 7z" style="stroke:#21231e;stroke-opacity:1" transform="scale(.99997 -1)"/></g></g><path d="M270-120a4 4 0 1 0 0-8 4 4 0 0 0 0 8z" style="fill:#edb92e;fill-opacity:1;stroke:#21231e;stroke-width:.66716999;stroke-opacity:1" transform="scale(.99998 -1)"/><path d="M240-131c2 0 2-3 1-4h-1v4z" style="fill:#edb92e;fill-opacity:1;stroke:#21231e;stroke-width:.66689003;stroke-opacity:1" transform="matrix(.99925 -.06748 -.06753 -1 0 0)"/><path d="M240-132c5 0 3-8 2-10s-2-2-4 0c-1 2-2 10 2 10z" style="fill:#fff;stroke:#21231e;stroke-width:.66535997;stroke-opacity:1" transform="matrix(.99997 -.06753 -.06753 -1 0 0)"/><path d="M159-170c2 0 2-3 1-4h-1v4z" style="fill:#edb92e;fill-opacity:1;stroke:#21231e;stroke-width:.63694;stroke-opacity:1" transform="matrix(.99924 -.31799 -.3182 -1 0 0)"/><path d="M159-172c5 0 3-7 2-9s-2-2-3 0-3 9 1 9z" style="fill:#fff;stroke:#21231e;stroke-width:.63547999;stroke-opacity:1" transform="matrix(.99997 -.31822 -.31821 -1 0 0)"/><g style="stroke-width:.66688001"><path d="M260-79c-9 1-19 0-29-4-8-3-7-13 3-26l-2-6h3c-1 2 0 4 1 5v2c-6 8-10 15-8 20 3 5 14 8 32 7v2z" style="fill:#edb92e;fill-opacity:1;stroke:#21231e;stroke-linejoin:round;stroke-opacity:1" transform="scale(.99997 -1)"/><g style="fill:#fff"><path d="M214-82a3 3 0 1 0 0-6 3 3 0 0 0 0 6z" style="stroke:#21231e;stroke-opacity:1" transform="scale(.99997 -1)"/><path d="M220-79a3 3 0 1 0 0-7 3 3 0 0 0 0 7z" style="stroke:#21231e;stroke-opacity:1" transform="scale(.99997 -1)"/></g></g><g style="fill:#edb92f"><path d="m221-82 1-2c-5-3-7-6-7-9l6-17 5-5v-1c1-1-1-1-2-1l-4 5h-1l-6 18c-1 5 2 9 8 12z" style="fill:#edb92e;fill-opacity:1;stroke:#21231e;stroke-width:.66688001;stroke-opacity:1" transform="scale(.99997 -1)"/><path d="M191-135v-1h-4c2 1 3 2 4 1z" style="fill:#edb92e;fill-opacity:1;stroke:#21231e;stroke-width:.66535002;stroke-linejoin:round;stroke-opacity:1" transform="matrix(.99997 -.0678 -.0678 -1 0 0)"/><path d="M120-200v-3c-1-2 1-3 3-2h6v2c-1 2-3 3-5 3-2 1-3 5-4 0z" style="fill:#edb92e;fill-opacity:1;stroke:#21231e;stroke-width:.66750002;stroke-opacity:1" transform="matrix(0 1 -.99966 0 0 0)"/><path d="M201-120h3c0-3-1-4-4-2l-4-2-1 1c-2 3 4 4 6 3z" style="fill:#edb92e;fill-opacity:1;stroke:#21231e;stroke-width:.66701001;stroke-opacity:1" transform="scale(.99818 -1)"/></g><g style="fill:#fff"><g style="stroke-width:.66705"><path d="M257-72a3 3 0 1 0 0-6 3 3 0 0 0 0 6zm-7 0a3 3 0 1 0 0-6 3 3 0 0 0 0 6zm-7 0a3 3 0 1 0 0-7 3 3 0 0 0 0 7z" style="stroke:#21231e;stroke-opacity:1" transform="scale(.99998 -1)"/><path d="M237-73a3 3 0 1 0 0-7 3 3 0 0 0 0 7z" style="stroke:#21231e;stroke-opacity:1" transform="scale(.99998 -1)"/></g><g style="stroke-width:.66688001"><path d="M195-91a3 3 0 1 0 0-7 3 3 0 0 0 0 7z" style="stroke:#21231e;stroke-opacity:1" transform="scale(.99997 -1)"/><path d="M201-87a3 3 0 1 0 0-7 3 3 0 0 0 0 7z" style="stroke:#21231e;stroke-opacity:1" transform="scale(.99997 -1)"/><path d="M207-84a3 3 0 1 0 0-7 3 3 0 0 0 0 7zm-17-12a3 3 0 1 0 0-7 3 3 0 0 0 0 7z" style="stroke:#21231e;stroke-opacity:1" transform="scale(.99997 -1)"/></g></g><path d="m257-155 13 6 13-6-13-6z" style="fill:#edb92e;fill-opacity:1;stroke:#21231e;stroke-width:.66683;stroke-opacity:1" transform="scale(.99997 -1)"/><path d="M152 270c0 3 2 6 4 6s3-3 3-6-1-6-3-6-4 3-4 6z" style="fill:#0c4076;fill-opacity:1;stroke:#21231e;stroke-width:.66685998;stroke-opacity:1" transform="matrix(0 .99538 1 0 0 0)"/><path d="m219-170 13 6 12-6-12-6z" style="fill:#edb92e;fill-opacity:1;stroke:#21231e;stroke-width:.66558999;stroke-opacity:1" transform="matrix(.99997 -.06114 -.06114 -1 0 0)"/><path d="M-167-232c0-3-2-5-4-5s-4 2-4 5c0 4 2 6 4 6s4-2 4-6z" style="fill:#c6363c;fill-opacity:1;stroke:#21231e;stroke-width:.66562003;stroke-opacity:1" transform="matrix(-.06085 -.99538 -1 .06112 0 0)"/><g style="stroke-width:.66688001"><path d="m215-152 13-5-11-7c-3 1-5 11-2 12z" style="fill:#edb92e;fill-opacity:1;stroke:#21231e;stroke-opacity:1" transform="scale(.99997 -1)"/><path d="M215-154c3 0 6-1 6-3s-2-4-5-5c-2 0-4 2-4 4s1 4 3 4z" style="fill:#0c4076;fill-opacity:1;stroke:#21231e;stroke-opacity:1" transform="scale(.99997 -1)"/><g style="fill:#fff"><path d="M256-157a2 2 0 1 0 0-4 2 2 0 0 0 0 4zm-27-2a2 2 0 1 0 0-3 2 2 0 0 0 0 3zm-1 8a2 2 0 1 0 0-3 2 2 0 0 0 0 3zm28 1a2 2 0 1 0 0-3 2 2 0 0 0 0 3z" style="stroke:#21231e;stroke-opacity:1" transform="scale(.99997 -1)"/></g></g><g style="fill:#edb92f"><path d="M134 208c-1 2 2 4 2 4-1 1-6 0-9-3l-4-2 1-1h3l2-1c1 3 2 4 5 3z" style="fill:#edb92e;fill-opacity:1;stroke:#21231e;stroke-width:.66760999;stroke-opacity:1" transform="matrix(0 1 .99969 0 0 0)"/><path d="M123-207h2l2-1 1-1 2-1 2-1 4-1v-2l-1 1h-2l-2 1-1-1-4 2c0 2 0 2-2 3l-1 1z" style="fill:#edb92e;fill-opacity:1;stroke:#21231e;stroke-width:.66760999;stroke-linejoin:round;stroke-opacity:1" transform="matrix(0 1 -.99969 0 0 0)"/><path d="M179-155h3c3-1 4-7 0-8l-1 2-2 4v2z" style="fill:#edb92e;fill-opacity:1;stroke:#21231e;stroke-width:.66272002;stroke-opacity:1" transform="matrix(.99836 -.15239 -.15263 -1 0 0)"/><path d="M180-156c3 1 5-5 2-6-2 0-2 2-2 3s-3 2 0 3z" style="fill:#edb92e;fill-opacity:1;stroke:#21231e;stroke-width:.66226;stroke-opacity:1" transform="matrix(.99846 -.15241 -.15263 -1 0 0)"/></g><path d="M180-157c2 1 3-3 1-4l-2 2 1 2z" style="fill:#0c4076;fill-opacity:1;stroke:#21231e;stroke-width:.65924001;stroke-opacity:1" transform="matrix(.99998 -.15264 -.15264 -1 0 0)"/><path d="m-319-137 13 6 12-6-12-6z" style="fill:#edb92e;fill-opacity:1;stroke:#21231e;stroke-width:.66558999;stroke-opacity:1" transform="matrix(-.99997 -.06114 .06114 -1 0 0)"/><path d="M-134 306c0-3-2-5-4-5s-3 2-3 5c0 4 1 6 3 6s4-2 4-6z" style="fill:#c6363c;fill-opacity:1;stroke:#21231e;stroke-width:.66562003;stroke-opacity:1" transform="matrix(.06085 -.99538 1 .06112 0 0)"/><path d="m-325-152 13-5-11-7c-3 1-5 11-2 12z" style="fill:#edb92e;fill-opacity:1;stroke:#21231e;stroke-width:.66688001;stroke-opacity:1" transform="scale(-.99997 -1)"/><path d="M-325-154c3 0 6-1 6-3s-2-4-5-5c-2 0-4 2-4 4s1 4 3 4z" style="fill:#0c4076;fill-opacity:1;stroke:#21231e;stroke-width:.66688001;stroke-opacity:1" transform="scale(-.99997 -1)"/><g style="fill:#fff"><g style="stroke-width:.66688001"><path d="m-284-157 2-2a2 2 0 1 0-2 2zm-27-2a2 2 0 1 0 0-3 2 2 0 0 0 0 3zm-1 8a2 2 0 1 0 0-3 2 2 0 0 0 0 3zm28 1a2 2 0 1 0 0-3 2 2 0 0 0 0 3z" style="stroke:#21231e;stroke-opacity:1" transform="scale(-.99997 -1)"/></g><path d="M225-102a4 4 0 1 0 0-7 4 4 0 0 0 0 7z" style="stroke:#21231e;stroke-width:.66680002;stroke-opacity:1" transform="scale(.99998 -1)"/><path d="M222-96a4 4 0 1 0 0-7 4 4 0 0 0 0 7z" style="stroke:#21231e;stroke-width:.66680002;stroke-opacity:1" transform="scale(.99998 -1)"/><path d="M230-75a3 3 0 1 0 0-7 3 3 0 0 0 0 7z" style="stroke:#21231e;stroke-width:.66688001;stroke-opacity:1" transform="scale(.99997 -1)"/><g style="stroke-width:.66680002"><path d="M225-78a4 4 0 1 0 0-7 4 4 0 0 0 0 7z" style="stroke:#21231e;stroke-opacity:1" transform="scale(.99998 -1)"/><path d="M221-83a4 4 0 1 0 0-7 4 4 0 0 0 0 7z" style="stroke:#21231e;stroke-opacity:1" transform="scale(.99998 -1)"/><path d="M220-89a4 4 0 1 0 0-7 4 4 0 0 0 0 7z" style="stroke:#21231e;stroke-opacity:1" transform="scale(.99998 -1)"/></g></g><path d="M272-50a2 2 0 0 1 0 4 2 2 0 0 1-4 0 2 2 0 0 1 0-4v-3h-3a2 2 0 0 1-3 0 2 2 0 0 1 0-4 2 2 0 0 1 3 0h3v-12h4v12h3l2-1 1 1a2 2 0 0 1 0 4 2 2 0 0 1-3 0h-3Z" style="fill:#edb92e;fill-opacity:1;stroke:#21231e;stroke-width:.66688001;stroke-opacity:1" transform="scale(.99997 -1)"/><path d="M270-61a10 10 0 1 0 0-19 10 10 0 0 0 0 19z" style="fill:#0c4076;fill-opacity:1;stroke:#21231e;stroke-width:.66702002;stroke-opacity:1" transform="scale(.99998 -1)"/><path d="M270-61h2v-8h-4v8h2z" style="fill:#edb92e;fill-opacity:1;stroke:#21231e;stroke-width:.66715002;stroke-opacity:1" transform="scale(.99997 -1)"/><g style="stroke-width:.66688001"><path d="M279-69a10 10 0 0 0 0-3 279 279 0 0 1-18 2v1a264 264 0 0 0 18 0z" style="fill:#edb92e;fill-opacity:1;stroke:#21231e;stroke-opacity:1" transform="scale(.99997 -1)"/><path d="M263-76c-2 1-3-1-3-3 1-7 2-14 0-23l-1-6c3-2 5-4 4-5h14c-1 1 1 3 4 5l-1 6c-2 9 0 16 0 23 0 2-1 4-3 3-4-3-10-3-14 0z" style="fill:#edb92e;fill-opacity:1;stroke:#21231e;stroke-linejoin:round;stroke-opacity:1" transform="scale(.99997 -1)"/><g style="fill:#fff"><path d="M270-104a4 4 0 1 0 0-7 4 4 0 0 0 0 7z" style="stroke:#21231e;stroke-opacity:1" transform="scale(.99998 -1)"/><path d="M270-97a4 4 0 1 0 0-8 4 4 0 0 0 0 8z" style="stroke:#21231e;stroke-opacity:1" transform="scale(.99998 -1)"/><path d="M270-91a4 4 0 1 0 0-8 4 4 0 0 0 0 8zm0 18a4 4 0 1 0 0-8 4 4 0 0 0 0 8z" style="stroke:#21231e;stroke-opacity:1" transform="scale(.99998 -1)"/><path d="M270-79a4 4 0 1 0 0-7 4 4 0 0 0 0 7z" style="stroke:#21231e;stroke-opacity:1" transform="scale(.99998 -1)"/><path d="M270-85a4 4 0 1 0 0-7 4 4 0 0 0 0 7z" style="stroke:#21231e;stroke-opacity:1" transform="scale(.99998 -1)"/></g></g><g style="fill:#edb92f"><path d="M-194-91h5c3-5 8-10 15-15l2-1-1 2-10 8-5 7h-5v-1h-1z" style="fill:#edb92e;fill-opacity:1;stroke:#21231e;stroke-width:.49632001;stroke-linejoin:round;stroke-opacity:1" transform="matrix(-.89741 -1 -.99997 .89744 0 0)"/><path d="M74 208h6c2-5 7-10 14-15l2-1c1 1 0 1-1 2l-9 8-5 7h-6l-1-1z" style="fill:#edb92e;fill-opacity:1;stroke:#21231e;stroke-width:.49632001;stroke-linejoin:round;stroke-opacity:1" transform="matrix(.89741 -1 .99997 .89744 0 0)"/><path d="m-274-111-1-1h-2c-3 0-2-2-1-4l3-2 1-2a71 71 0 0 1 5 0l1 2 3 2c2 2 2 4-1 4h-2l-1 1-1 2h-3l-1-2z" style="fill:#edb92e;fill-opacity:1;stroke:#21231e;stroke-width:.66693997;stroke-opacity:1" transform="scale(-.99567 -1)"/></g></g><path d="M270 120h-1l-2-5 3 5m0 0h1l2-5-3 5" style="fill:#21231e"/><path stroke-miterlimit="23" d="m277-112-1-2c-1-1-3 0-4 1h-4c-1-1-3-2-4-1l-1 2h4v1l2 2h2l2-2v-1h4z" style="fill:#edb92e;fill-opacity:1;stroke:#21231e;stroke-width:.66688001;stroke-miterlimit:22.9260006;stroke-opacity:1" transform="scale(.99997 -1)"/><path stroke-miterlimit="23" d="m122-257-1-1h-2c-3 0-3-2-1-4l3-3 1-1h5l1 1 3 3c1 2 2 4-1 4h-2l-1 1-1 1-2 1-1-1-1-1z" style="fill:#edb92e;fill-opacity:1;stroke:#21231e;stroke-width:.66692001;stroke-miterlimit:22.9260006;stroke-opacity:1" transform="matrix(0 .99572 -1 0 0 0)"/><path d="M266 124v1l-5 2 5-3m0-1-5-2 5 2" style="fill:#21231e"/><path stroke-miterlimit="23" d="m-117-258-1-2c-1-1-3-1-4 1h-4c-1-2-3-2-3-1l-2 2h4v1l2 1 1 1 2-1 1-1 1-1h3z" style="fill:#edb92e;fill-opacity:1;stroke:#21231e;stroke-width:.66688001;stroke-miterlimit:22.9260006;stroke-opacity:1" transform="matrix(0 -1 -.99997 0 0 0)"/><path stroke-miterlimit="23" d="m-127 283-1-1h-2c-3 0-2-2-1-4l3-2 1-2h5l1 2 3 2c2 2 2 4-1 4h-2l-1 1-1 1-1 1-2-1-1-1z" style="fill:#edb92e;fill-opacity:1;stroke:#21231e;stroke-width:.66692001;stroke-miterlimit:22.9260006;stroke-opacity:1" transform="matrix(0 -.99572 1 0 0 0)"/><path d="m274 123 5-2-5 2m0 1v1l5 2-5-3" style="fill:#21231e"/><g stroke-miterlimit="23" style="stroke:#21231e;stroke-miterlimit:22.9260006"><g style="fill:#edb92f"><path d="m131 282-2-2c0-1-2-1-3 1h-4c-1-2-3-2-4-1l-1 2h3l1 1 1 1 2 1 1-1 2-1v-1h4z" style="fill:#edb92e;fill-opacity:1;stroke:#21231e;stroke-width:.66688001;stroke-opacity:1" transform="matrix(0 1 .99997 0 0 0)"/><path d="M270-120a4 4 0 1 0 0-8 4 4 0 0 0 0 8z" style="fill:#edb92e;fill-opacity:1;stroke:#21231e;stroke-width:.66716999;stroke-opacity:1" transform="scale(.99998 -1)"/><path d="M270-121a3 3 0 1 0 0-6 3 3 0 0 0 0 6z" style="fill:#edb92e;fill-opacity:1;stroke:#21231e;stroke-width:.66680998;stroke-opacity:1" transform="scale(.99998 -1)"/></g><path d="M270-122a2 2 0 1 0 0-4 2 2 0 0 0 0 4z" style="fill:#0c4076;fill-opacity:1;stroke:#21231e;stroke-width:.66693002;stroke-opacity:1" transform="scale(.99998 -1)"/></g><path d="M203 128v-4 4" style="fill:#21231e"/><path stroke-miterlimit="23" d="m230-113 2-2 1 1c3 1 3-2 2-4l-2-3v-2l-3-1h-2l-1 2-3 2c-2 2-3 4 0 4h1l1 2v2h3l1-1z" style="fill:#edb92e;fill-opacity:1;stroke:#21231e;stroke-width:.66688001;stroke-miterlimit:22.9260006;stroke-opacity:1" transform="scale(.99997 -1)"/><path d="m230 124-4-5c2 0 3 3 4 5m1 0 1-6-1 6" style="fill:#21231e"/><path stroke-miterlimit="23" d="m235-114-1-3c-1-1-2 0-4 1h-1l-2-1c-1-1-2-2-3-1l-2 2h3l1 2v2h3l1-1 2-2 1 1h2z" style="fill:#edb92e;fill-opacity:1;stroke:#21231e;stroke-width:.66688001;stroke-miterlimit:22.9260006;stroke-opacity:1" transform="scale(.99997 -1)"/><path stroke-miterlimit="23" d="M220-125h1l-1 2c-1 3 0 2 2 1l2-1 1-1 2-1 1-2 1-3-1-1-1-2-2-2-1 3-1 1-1 1-2 1v1l-1 2 1 1z" style="fill:#edb92e;fill-opacity:1;stroke:#21231e;stroke-width:.67549002;stroke-miterlimit:22.9260006;stroke-opacity:1" transform="scale(1 -.99584)"/><path d="M228 128a5 5 0 0 0-3 3l1-2 2-1m0-1v-1l-3-1-3-1 3 2 3 1" style="fill:#21231e"/><path stroke-miterlimit="23" d="m220-121 1-1 1-1v-4l1-2c2-2 3-3 2-4l-1-1v1l-1 2-1 1-2 1v8z" style="fill:#edb92e;fill-opacity:1;stroke:#21231e;stroke-width:.66688001;stroke-linejoin:round;stroke-miterlimit:22.9260006;stroke-opacity:1" transform="scale(.99997 -1)"/><path stroke-miterlimit="23" d="M-188 183v-1l-2-1c-2 0-2-1 0-3l3-2 1-1h2l3 1 1 1 2 3c1 2 1 4-2 3h-2l-1 1-1 1h-1l-2-1-1-1z" style="fill:#edb92e;fill-opacity:1;stroke:#21231e;stroke-width:.63440001;stroke-miterlimit:22.9260006;stroke-opacity:1" transform="matrix(-.3224 -.9955 1 -.32386 0 0)"/><path d="M234 126v-1c2 0 4-1 5-3l-5 4m1 0v1l5 2c-1-2-3-3-5-3" style="fill:#21231e"/><g stroke-miterlimit="23" style="stroke:#21231e;stroke-miterlimit:22.9260006"><g style="fill:#edb92f"><path d="m243-132-2 1v5l-1 2c-1 1-2 3-1 4l1 1 1-1v-2l2-1 1-1v-3l-1-1-1-1v-2l1-1z" style="fill:#edb92e;fill-opacity:1;stroke:#21231e;stroke-width:.67695999;stroke-opacity:1" transform="scale(1 -.99504)"/><g style="stroke-width:.66688001"><path d="M230-122c3 0 5-2 5-4 0-3-1-5-3-5s-4 2-5 4c0 3 1 5 3 5z" style="fill:#edb92e;fill-opacity:1;stroke:#21231e;stroke-opacity:1" transform="scale(.99997 -1)"/><path d="m231-123 3-3-2-4c-2 0-4 2-4 3 0 2 1 4 3 4z" style="fill:#edb92e;fill-opacity:1;stroke:#21231e;stroke-opacity:1" transform="scale(.99997 -1)"/></g></g><path d="m231-125 2-1c0-2-1-2-2-2l-2 1 2 2z" style="fill:#0c4076;fill-opacity:1;stroke:#21231e;stroke-width:.66688001;stroke-opacity:1" transform="scale(.99997 -1)"/><g style="fill:#fff"><path d="M-313-108a4 4 0 1 0 0-7 4 4 0 0 0 0 7z" style="stroke:#21231e;stroke-width:.66680002;stroke-opacity:1" transform="scale(-.99998 -1)"/><g style="stroke-width:.66698003"><path d="M-343-115a3 3 0 1 0 0-7 3 3 0 0 0 0 7z" style="stroke:#21231e;stroke-opacity:1" transform="scale(-.99997 -1)"/><path d="M-346-109a3 3 0 1 0 0-7 3 3 0 0 0 0 7z" style="stroke:#21231e;stroke-opacity:1" transform="scale(-.99997 -1)"/><path d="M-349-103a3 3 0 1 0 0-7 3 3 0 0 0 0 7z" style="stroke:#21231e;stroke-opacity:1" transform="scale(-.99997 -1)"/></g></g><path d="M-298-94c2 0 2-4 1-4h-1c-1 0-2 4 0 4z" style="fill:#edb92e;fill-opacity:1;stroke:#21231e;stroke-width:.66689003;stroke-opacity:1" transform="matrix(-.99925 -.06748 .06753 -1 0 0)"/><path d="M-297-96c4 0 2-8 1-10s-2-2-3 0-3 10 2 10z" style="fill:#fff;stroke:#21231e;stroke-width:.66535997;stroke-opacity:1" transform="matrix(-.99997 -.06753 .06753 -1 0 0)"/><path d="M-331-14v-4h-1c-1 1-1 4 1 4z" style="fill:#edb92e;fill-opacity:1;stroke:#21231e;stroke-width:.63694;stroke-opacity:1" transform="matrix(-.99924 -.31799 .3182 -1 0 0)"/><path d="M-331-15c4 0 3-8 2-10-2-2-3-2-4 0s-2 10 2 10z" style="fill:#fff;stroke:#21231e;stroke-width:.63547999;stroke-opacity:1" transform="matrix(-.99997 -.31822 .31821 -1 0 0)"/><g style="stroke-width:.66688001"><path d="M-280-79c-10 1-19 0-29-4-8-3-7-13 3-26l-2-6h3c-1 2 0 4 1 5v2c-6 8-10 15-8 20 3 5 14 8 32 7v2z" style="fill:#edb92e;fill-opacity:1;stroke:#21231e;stroke-linejoin:round;stroke-opacity:1" transform="scale(-.99997 -1)"/><g style="fill:#fff"><path d="M-326-82a3 3 0 1 0 0-6 3 3 0 0 0 0 6z" style="stroke:#21231e;stroke-opacity:1" transform="scale(-.99997 -1)"/><path d="M-320-79a3 3 0 1 0 0-7 3 3 0 0 0 0 7z" style="stroke:#21231e;stroke-opacity:1" transform="scale(-.99997 -1)"/></g></g><g style="fill:#edb92f"><path d="m-319-82 1-2c-5-3-7-6-7-9l6-17 5-5v-1c1-1-1-1-2-1l-4 5h-1l-6 18c-1 5 2 9 8 12z" style="fill:#edb92e;fill-opacity:1;stroke:#21231e;stroke-width:.66688001;stroke-opacity:1" transform="scale(-.99997 -1)"/><path d="M-347-99v-1h-4c2 2 3 2 4 1z" style="fill:#edb92e;fill-opacity:1;stroke:#21231e;stroke-width:.66535002;stroke-linejoin:round;stroke-opacity:1" transform="matrix(-.99997 -.0678 .0678 -1 0 0)"/><path d="M120 340v-3c-1-2 1-2 3-1l3-1h3v2l-5 4c-2 1-3 4-4-1z" style="fill:#edb92e;fill-opacity:1;stroke:#21231e;stroke-width:.66750002;stroke-opacity:1" transform="matrix(0 1 .99966 0 0 0)"/><path d="M-340-120h3c0-3-1-4-4-2l-4-2-1 1c-2 3 4 4 6 3z" style="fill:#edb92e;fill-opacity:1;stroke:#21231e;stroke-width:.66701001;stroke-opacity:1" transform="scale(-.99818 -1)"/></g><g style="fill:#fff"><g style="stroke-width:.66705"><path d="M-283-72a3 3 0 1 0 0-6 3 3 0 0 0 0 6zm-7 0a3 3 0 1 0 0-6 3 3 0 0 0 0 6zm-7 0a3 3 0 1 0 0-7 3 3 0 0 0 0 7z" style="stroke:#21231e;stroke-opacity:1" transform="scale(-.99998 -1)"/><path d="M-303-73a3 3 0 1 0 0-7 3 3 0 0 0 0 7z" style="stroke:#21231e;stroke-opacity:1" transform="scale(-.99998 -1)"/></g><g style="stroke-width:.66688001"><path d="M-345-91a3 3 0 1 0 0-7 3 3 0 0 0 0 7z" style="stroke:#21231e;stroke-opacity:1" transform="scale(-.99997 -1)"/><path d="M-339-87a3 3 0 1 0 0-7 3 3 0 0 0 0 7z" style="stroke:#21231e;stroke-opacity:1" transform="scale(-.99997 -1)"/><path d="M-333-84a3 3 0 1 0 0-7 3 3 0 0 0 0 7zm-17-12a3 3 0 1 0 0-7 3 3 0 0 0 0 7z" style="stroke:#21231e;stroke-opacity:1" transform="scale(-.99997 -1)"/></g></g><g style="fill:#edb92f"><path d="M134-332c-1 2 2 4 2 4-1 1-6-1-9-3 0-2-1-2-4-2l1-2 3 1 2-1c1 3 2 3 5 3z" style="fill:#edb92e;fill-opacity:1;stroke:#21231e;stroke-width:.66760999;stroke-opacity:1" transform="matrix(0 1 -.99969 0 0 0)"/><path d="M123 333h4l1-2 2-1 2-1 4-1v-1h-1l-2 1h-2l-1-1c-1 0-4 1-4 3 0 1 0 2-2 2l-1 1z" style="fill:#edb92e;fill-opacity:1;stroke:#21231e;stroke-width:.66760999;stroke-linejoin:round;stroke-opacity:1" transform="matrix(0 1 .99969 0 0 0)"/><path d="m-350-75 2 1 2-1c2-1 3-6-1-7l-1 2-2 4v1z" style="fill:#edb92e;fill-opacity:1;stroke:#21231e;stroke-width:.66272002;stroke-opacity:1" transform="matrix(-.99836 -.15239 .15263 -1 0 0)"/><path d="M-348-75c3 0 4-6 1-6-1-1-1 1-1 2 0 2-3 3 0 4z" style="fill:#edb92e;fill-opacity:1;stroke:#21231e;stroke-width:.66226;stroke-opacity:1" transform="matrix(-.99846 -.15241 .15263 -1 0 0)"/></g><path d="M-348-76c2 0 3-3 2-4-2 0-3 1-3 2l1 2z" style="fill:#0c4076;fill-opacity:1;stroke:#21231e;stroke-width:.65924001;stroke-opacity:1" transform="matrix(-.99998 -.15264 .15264 -1 0 0)"/><g style="fill:#fff"><path d="M-316-102a4 4 0 1 0 0-7 4 4 0 0 0 0 7z" style="stroke:#21231e;stroke-width:.66680002;stroke-opacity:1" transform="scale(-.99998 -1)"/><path d="M-318-96a4 4 0 1 0 0-7 4 4 0 0 0 0 7z" style="stroke:#21231e;stroke-width:.66680002;stroke-opacity:1" transform="scale(-.99998 -1)"/><path d="M-310-75a3 3 0 1 0 0-7 3 3 0 0 0 0 7z" style="stroke:#21231e;stroke-width:.66688001;stroke-opacity:1" transform="scale(-.99997 -1)"/><g style="stroke-width:.66680002"><path d="M-315-78a4 4 0 1 0 0-7 4 4 0 0 0 0 7z" style="stroke:#21231e;stroke-opacity:1" transform="scale(-.99998 -1)"/><path d="M-320-83a4 4 0 1 0 0-7 4 4 0 0 0 0 7z" style="stroke:#21231e;stroke-opacity:1" transform="scale(-.99998 -1)"/><path d="M-320-89a4 4 0 1 0 0-7 4 4 0 0 0 0 7z" style="stroke:#21231e;stroke-opacity:1" transform="scale(-.99998 -1)"/></g></g></g><path d="M337 128v-1l1-3-1 4" style="fill:#21231e"/><path stroke-miterlimit="23" d="m-310-113 1-2 2 1c3 1 3-2 2-4l-2-3v-2l-3-1h-2l-1 2-4 2c-1 2-2 4 1 4h1v2l1 2h3l1-1z" style="fill:#edb92e;fill-opacity:1;stroke:#21231e;stroke-width:.66688001;stroke-miterlimit:22.9260006;stroke-opacity:1" transform="scale(-.99997 -1)"/><path d="m310 124 4-5c-2 0-3 3-4 5m-1 0-1-6 1 6" style="fill:#21231e"/><path stroke-miterlimit="23" d="m-305-114-1-3c-1-1-2 0-4 1h-2l-1-1c-1-1-2-2-3-1l-2 2h3v2l1 2h3l1-1 1-2 2 1h2z" style="fill:#edb92e;fill-opacity:1;stroke:#21231e;stroke-width:.66688001;stroke-miterlimit:22.9260006;stroke-opacity:1" transform="scale(-.99997 -1)"/><path stroke-miterlimit="23" d="M-320-125h1l-1 2c-1 3 0 2 2 1l2-1 1-1 2-1 1-2 1-3-1-1-2-2-1-2-1 3-1 1-1 1-2 1v1l-1 2 1 1z" style="fill:#edb92e;fill-opacity:1;stroke:#21231e;stroke-width:.67549002;stroke-miterlimit:22.9260006;stroke-opacity:1" transform="scale(-1 -.99584)"/><path d="M312 128a5 5 0 0 1 3 3l-1-2-2-1m0-1 1-1 2-1 3-1-3 2-3 1" style="fill:#21231e"/><path stroke-miterlimit="23" d="m-320-121 1-1 1-1v-4l1-2c2-2 3-3 2-4l-1-1v1l-1 2-1 1-2 1v8z" style="fill:#edb92e;fill-opacity:1;stroke:#21231e;stroke-width:.66688001;stroke-linejoin:round;stroke-miterlimit:22.9260006;stroke-opacity:1" transform="scale(-.99997 -1)"/><path stroke-miterlimit="23" d="M-29-306v-1l-2-1c-2 0-2-1 0-2l3-2 1-2a68 68 0 0 1 5 1l1 1 2 3c1 2 1 4-2 3h-2l-1 1-1 1h-1l-2-1-1-1z" style="fill:#edb92e;fill-opacity:1;stroke:#21231e;stroke-width:.63440001;stroke-miterlimit:22.9260006;stroke-opacity:1" transform="matrix(.3224 -.9955 -1 -.32386 0 0)"/><path d="M306 126v-1c-2 0-3-1-5-3l5 4m-1 0v1l-5 2c1-2 3-3 5-3" style="fill:#21231e"/><g stroke-miterlimit="23" style="stroke:#21231e;stroke-miterlimit:22.9260006"><path d="m-297-132-2 1v5l-1 2c-1 1-2 3-1 4l1 1 1-1v-2l1-1 2-1v-3l-1-1-1-1v-2l1-1z" style="fill:#edb92e;fill-opacity:1;stroke:#21231e;stroke-width:.67695999;stroke-opacity:1" transform="scale(-1 -.99504)"/><g style="stroke-width:.66688001"><path d="M310-122c-3 0-5-2-5-4 0-3 1-5 3-5 3 0 5 2 5 4 0 3-1 5-3 5z" style="fill:#edb92e;fill-opacity:1;stroke:#21231e;stroke-opacity:1" transform="scale(.99997 -1)"/><path d="M310-123c-2 0-4-2-4-3 0-2 1-4 3-4l3 3-2 4z" style="fill:#edb92e;fill-opacity:1;stroke:#21231e;stroke-opacity:1" transform="scale(.99997 -1)"/><path d="m309-125-2-1c0-2 1-2 2-2l2 1-2 2z" style="fill:#0c4076;fill-opacity:1;stroke:#21231e;stroke-opacity:1" transform="scale(.99997 -1)"/><path d="m323-165 1-1-1-2h-1a620 620 0 0 0-106 2l2 1v1a619 619 0 0 0 105-1z" style="fill:#edb92e;fill-opacity:1;stroke:#21231e;stroke-opacity:1" transform="scale(.99997 -1)"/></g></g></g><g stroke-miterlimit="23" style="stroke-miterlimit:22.9260006"><path d="M231-168a591 591 0 0 0 78 0" style="fill:none;stroke:#21231e;stroke-width:.67034;stroke-linecap:round;stroke-opacity:1" transform="scale(1 -.99502)"/><path d="M231 168h13m52 0h13" style="fill:none;stroke:#21231e;stroke-width:.67034;stroke-linecap:round;stroke-opacity:1" transform="scale(1 .99502)"/><path d="M169 176h153c27 0 52 10 70 27s29 41 29 67-11 50-29 67-43 28-70 28H169z" style="fill:#c6363c;fill-opacity:1;stroke:#fff;stroke-width:1.33379996" transform="matrix(0 .99807 1 0 0 0)"/><g style="stroke:#21231e"><g style="fill-rule:evenodd"><g style="fill:#fff"><path d="M413 271v3c-1 2-6 1-9 1l-72-2v-6l72-2 9 1v3z" style="stroke:#21231e;stroke-width:.66697001;stroke-opacity:1" transform="matrix(0 .99791 1 0 0 0)"/><path d="M-280-412h3a3245 3245 0 0 0 6 80l-2 1h-1c-5-34-7-57-11-71v-9l3-1z" style="stroke:#21231e;stroke-width:.66688001;stroke-opacity:1" transform="scale(-.99997 -1)"/><path d="m-290-411 3 1c2 0 1 5 2 8 4 14 6 37 11 71h-3c-8-32-11-55-17-69-1-2-3-7-1-9l3-1z" style="stroke:#21231e;stroke-width:.66688001;stroke-opacity:1" transform="scale(-.99997 -1)"/><path d="M457-170v4h-8c-15 3-37-1-70-2v-4c33-1 54 2 70-3 2-1 7-1 8 1v3z" style="stroke:#21231e;stroke-width:.64093;stroke-opacity:1" transform="matrix(.28733 .9979 -1 .28794 0 0)"/><path d="M260-412h4l1 9 5 71-3 1h-1c-5-34-7-57-11-71v-9l4-1z" style="stroke:#21231e;stroke-width:.66688001;stroke-opacity:1" transform="scale(.99997 -1)"/><path d="m250-411 3 1c2 0 2 5 2 8 4 14 6 37 11 71h-3c-8-32-11-55-17-69-1-2-3-7-1-9l3-1z" style="stroke:#21231e;stroke-width:.66688001;stroke-opacity:1" transform="scale(.99997 -1)"/><path d="m314 329-1 3c-1 2-6 1-8 1-15 3-37-1-70-2v-4c33-1 54 2 70-3h8l1 4z" style="stroke:#21231e;stroke-width:.64093;stroke-opacity:1" transform="matrix(-.28733 .9979 1 .28794 0 0)"/><path d="m-432 100 1-3h8c14 0 36 4 67 8l-1 2v2c-31-3-52-8-67-4-3 1-7 0-8-1v-3z" style="stroke:#21231e;stroke-width:.60690999;stroke-opacity:1" transform="matrix(-.45267 -.99325 1 -.45577 0 0)"/><path d="m-433 156 2-2c1-2 5-1 8-1a4118 4118 0 0 0 69 9l-1 2c-32-1-56-6-69-2l-8-1-1-3z" style="stroke:#21231e;stroke-width:.63846999;stroke-opacity:1" transform="matrix(-.30182 -.99916 1 -.30208 0 0)"/><path d="m-419 215 1-3h8l72 4-1 3v2l-71-1c-3 1-8 1-9-1v-2z" style="stroke:#21231e;stroke-width:.6595;stroke-opacity:1" transform="matrix(-.15041 -.99831 1 -.15066 0 0)"/><path d="m-227-347 2-3h7c14 0 36 4 67 8v2l-1 2c-31-3-52-8-67-4-2 1-7 0-8-1v-3z" style="stroke:#21231e;stroke-width:.60690999;stroke-opacity:1" transform="matrix(.45267 -.99325 -1 -.45577 0 0)"/><path d="m-283-339 1-2a4069 4069 0 0 0 77 8v2c-33-1-56-6-70-2l-8-1v-3z" style="stroke:#21231e;stroke-width:.63846999;stroke-opacity:1" transform="matrix(.30182 -.99916 -1 -.30208 0 0)"/><path d="m-339-313 1-3h8l71 4v5l-72-1c-2 0-7 1-8-1v-3z" style="stroke:#21231e;stroke-width:.6595;stroke-opacity:1" transform="matrix(.15041 -.99831 -1 -.15066 0 0)"/><path d="m389 271-1 3h-8l-73-1v-6l73-1h8l1 3z" style="stroke:#21231e;stroke-width:.66689003;stroke-opacity:1" transform="matrix(0 .99304 1 0 0 0)"/><path d="m411-187-1 2-8 1h-70v-4c33 0 56 2 70-3 2-1 7 0 8 1l1 2z" style="stroke:#21231e;stroke-width:.6473;stroke-opacity:1" transform="matrix(.25239 1 -.993 .25064 0 0)"/><path d="M403-216v2h-9a5338 5338 0 0 0-71-2v-2c33-1 58 2 71-2h8l1 2z" style="stroke:#21231e;stroke-width:.65788001;stroke-opacity:1" transform="matrix(.16491 .99501 -1 .16573 0 0)"/><path d="m387-244-1 2h-8a5484 5484 0 0 0-72-3v-1l72-2h8l1 2z" style="stroke:#21231e;stroke-width:.66468;stroke-opacity:1" transform="matrix(.08204 .99884 -1 .08214 0 0)"/><path d="M282 324v2l-8 1c-14 2-37 1-70 0v-4c32 0 55 2 69-2h8l1 2z" style="stroke:#21231e;stroke-width:.6473;stroke-opacity:1" transform="matrix(-.25239 1 .993 .25064 0 0)"/><path d="m316 309-1 2-8 1a5392 5392 0 0 0-72-2v-2c34-1 58 1 72-3l8 1 1 2z" style="stroke:#21231e;stroke-width:.65788001;stroke-opacity:1" transform="matrix(-.16491 .99501 1 .16573 0 0)"/><path d="m343 292-1 2-8 1a5478 5478 0 0 0-72-3v-2l72-2 8 1 1 2z" style="stroke:#21231e;stroke-width:.66468;stroke-opacity:1" transform="matrix(-.08204 .99884 1 .08214 0 0)"/><path d="m367 271-1 2h-8a5483 5483 0 0 0-72-3v-2l72-1h8l1 2z" style="stroke:#21231e;stroke-width:.667;stroke-opacity:1" transform="matrix(0 1 .99988 0 0 0)"/></g><g style="fill:#edb92f"><path d="M352 188c0-2 1-4 6-11l15-11 1-4c1-1-1-9-1-9-3-3-1-7 1-6 1-1 5 1 4 3-2 2 0 7 0 9l2-10c0-3 3-3 5-2l1 1c2 1 2 4 0 4-2 1-4 9-5 10l9-7c1-2 1-3 5-1 0 2-1 2 1 4 0 3-1 4-4 3l-9 4-3 2c-1 1-3 8-2 9 1 3 1 5-2 5-1 0-4 1-5-1l1-4c2-3 3-4 2-5l-7 9c-8 7-12 8-15 8z" style="fill:#edb92e;fill-opacity:1;stroke:#21231e;stroke-width:.66194999;stroke-linejoin:round;stroke-opacity:1" transform="matrix(.12042 .99535 1 -.12098 0 0)"/><path d="M377 136c-2-2-2-3-1-4l-1-1c-3 2-3 5-1 7l1 1 2-3z" style="fill:#edb92e;fill-opacity:1;stroke:#21231e;stroke-width:.65947002;stroke-opacity:1" transform="matrix(.15013 .99966 1 -.15019 0 0)"/><path d="M384-144v-5c0-1 0-2-1-1-4 1-4 4-3 7l2 2 2-3z" style="fill:#edb92e;fill-opacity:1;stroke:#21231e;stroke-width:.64951998;stroke-opacity:1" transform="matrix(.21494 1 -.99442 .21375 0 0)"/><path d="m-145 396 3 6h1c3-3 3-7 0-9l-3-2-1 5z" style="fill:#edb92e;fill-opacity:1;stroke:#21231e;stroke-width:.65899003;stroke-opacity:1" transform="matrix(-.9986 .15606 .15628 1 0 0)"/><path d="m381 35 2-4c1 0 1 0 0 0-6 0-6 2-5 6l3-2z" style="fill:#edb92e;fill-opacity:1;stroke:#21231e;stroke-width:.61368001;stroke-opacity:1" transform="matrix(.42431 .99781 1 -.42524 0 0)"/></g></g><g style="fill:none"><path d="m-84-293 1 2 1-2m0 0 1 2 1-2" style="stroke:#21231e;stroke-width:.49265999;stroke-opacity:1" transform="matrix(.91227 -1 -.99998 -.91229 0 0)"/><path d="M-347-221c1 2 2 2 3 1 2-1 1-1-1-3" style="stroke:#21231e;stroke-width:.67369002;stroke-opacity:1" transform="matrix(0 -1 -.99656 0 0 0)"/><path d="M-345-224c1 2 3 2 4 2 2-1 1-2-1-4" style="stroke:#21231e;stroke-width:.67677999;stroke-opacity:1" transform="matrix(0 -1 -.99509 0 0 0)"/><path d="M-342-225c1 1 3 2 4 1s1-2-1-3" style="stroke:#21231e;stroke-width:.66894001;stroke-opacity:1" transform="matrix(0 -1 -.99883 0 0 0)"/></g><g style="fill-rule:evenodd"><path d="m-275 146 9 3c8 2 14 1 16-4-4 3-8 4-12 2l-10-4-3 3z" style="fill:#edb92e;fill-opacity:1;stroke:#21231e;stroke-width:.65454;stroke-linejoin:round;stroke-opacity:1" transform="matrix(-.99998 -.19529 -.19528 1 0 0)"/><g style="fill:#fff"><path d="M266-314v-8l-6-1c0-2 7-31 10-31 4 0 10 29 10 31l-6 1v8l-4-4-4 4z" style="stroke:#21231e;stroke-width:.66688001;stroke-opacity:1" transform="scale(.99997 -1)"/><g style="stroke-width:.66680002;stroke-linejoin:round"><path d="m330 254-3-5c1-3 7-4 12-1 6 5 11 7 16 8-5 4-9 5-14 3l-11-5z" style="stroke:#21231e;stroke-opacity:1" transform="matrix(.01547 1 .99997 -.01547 0 0)"/><path d="m325 258-3-5c2-2 8-7 13-3 6 4 11 9 15 10-4 4-9 6-13 3l-12-5z" style="stroke:#21231e;stroke-opacity:1" transform="matrix(.01547 1 .99997 -.01547 0 0)"/><path d="m321-286-3-5c2-3 8-4 13-1 6 5 10 7 15 8-4 4-9 5-13 3l-12-5z" style="stroke:#21231e;stroke-opacity:1" transform="matrix(-.01547 1 -.99997 -.01547 0 0)"/><path d="m317-282-3-5c2-2 7-7 12-3 6 5 11 9 16 11-4 3-9 5-14 2l-11-5z" style="stroke:#21231e;stroke-opacity:1" transform="matrix(-.01547 1 -.99997 -.01547 0 0)"/><path d="m323 247-3-6c2-2 8-4 13 0 6 5 10 7 15 8-4 3-9 5-14 2l-11-4z" style="stroke:#21231e;stroke-opacity:1" transform="matrix(.01547 1 .99997 -.01547 0 0)"/><path d="m315-293-3-6c1-2 7-4 12 0 6 5 11 7 16 8-5 3-9 5-14 2l-11-4z" style="stroke:#21231e;stroke-opacity:1" transform="matrix(-.01547 1 -.99997 -.01547 0 0)"/></g><g style="stroke-width:.66685998"><path d="m264 227 42-1c5-1 8-3 10-5-3-2-6-3-11-3h-39c-10 4-10 7-2 9z" style="stroke:#21231e;stroke-opacity:1" transform="matrix(0 .99513 1 0 0 0)"/><path d="m256 206 45-2c4 0 28 5 33 8-3 7-19 8-35 7s-29 0-32 1h-11v-14z" style="stroke:#21231e;stroke-opacity:1" transform="matrix(0 .99513 1 0 0 0)"/><path d="m264 197 45 1c4 0 27 6 32 9-6 8-29 6-35 5-14-2-30-2-32-1h-12l2-14z" style="stroke:#21231e;stroke-opacity:1" transform="matrix(0 .99513 1 0 0 0)"/><path d="M274 191v12c5-1 20 0 32 2 11 2 39 4 46-7-15-7-30-2-43-5s-25-4-35-2zm-18 45 42-2c5-1 8-3 10-5-3-2-7-3-11-3l-40 2c-10 4-10 6-1 8zm-27-21h36c4 0 10 2 12 4-1 2-4 4-9 4l-32 1-5-7-2-2z" style="stroke:#21231e;stroke-opacity:1" transform="matrix(0 .99513 1 0 0 0)"/><path d="M236 224h31c4 0 8 1 11 3-2 2-5 4-10 5l-24 1c-1-3-6-7-8-9zm-8-8-11-8c5-1 47-3 50-1 4 0 8 2 11 4-2 2-5 5-10 4-4-1-35 0-40 1z" style="stroke:#21231e;stroke-opacity:1" transform="matrix(0 .99513 1 0 0 0)"/><path d="m254 200 13-1 11 4c-2 2-5 5-9 4-18-1-35 1-51 3l-4-7c21-3 35-5 40-3z" style="stroke:#21231e;stroke-opacity:1" transform="matrix(0 .99513 1 0 0 0)"/><path d="m266 192 8 2c4 0 8 3 11 5-2 2-5 4-9 4-27-4-44-3-65 3 8-13 26-18 55-14z" style="stroke:#21231e;stroke-linejoin:round;stroke-opacity:1" transform="matrix(0 .99513 1 0 0 0)"/><path d="m274 193-4-12c12-1 26 1 45 4 16 3 29 1 37-1-1 12-17 18-47 11-7-1-17-3-31-2z" style="stroke:#21231e;stroke-opacity:1" transform="matrix(0 .99513 1 0 0 0)"/></g></g></g><path d="m192-328-2 23-3 28" style="fill:none;stroke:#21231e;stroke-width:.66688001;stroke-linecap:round;stroke-opacity:1" transform="scale(.99997 -1)"/><g style="fill-rule:evenodd"><g style="fill:#fff"><path d="m207-192 1-8 13 3c14 3 30 5 48 3l16-5c-1 9-9 14-23 13-17 2-30 1-39-2l-16-4z" style="stroke:#21231e;stroke-width:.66685998;stroke-linejoin:round;stroke-opacity:1" transform="matrix(0 .99513 -1 0 0 0)"/><path d="m208-188 5-3h10l12 3c15 2 34 2 46-3-1 8-8 11-22 11-12 1-26 1-41-2-4-1-7-3-10-6z" style="stroke:#21231e;stroke-width:.66685998;stroke-opacity:1" transform="matrix(0 .99513 -1 0 0 0)"/><path d="m83 253 3-7 13 4c4 2 7 5 9 8H97l-14-5z" style="stroke:#21231e;stroke-width:.58806998;stroke-opacity:1" transform="matrix(-.5338 .99821 1 .53476 0 0)"/><path d="M249 212v-7l12-1c4 0 8 0 11 2-2 2-5 4-9 5l-14 1z" style="stroke:#21231e;stroke-width:.66547;stroke-opacity:1" transform="matrix(.06514 .99756 1 -.0653 0 0)"/><path d="M259 209v-7l12-1c5 0 8 1 11 3-1 2-4 4-9 4l-14 1z" style="stroke:#21231e;stroke-width:.66355997;stroke-opacity:1" transform="matrix(.10014 .99756 1 -.10039 0 0)"/><path d="M228 225v-7l12-1c4 0 8 0 11 2-2 2-4 4-9 5l-14 1z" style="stroke:#21231e;stroke-width:.66680002;stroke-opacity:1" transform="matrix(-.0159 .99757 1 .01593 0 0)"/><path d="m217 222-3-8c5-1 22-2 29 1-2 3-5 5-10 6l-16 1z" style="stroke:#21231e;stroke-width:.66663998;stroke-opacity:1" transform="matrix(-.03259 .99785 1 .03266 0 0)"/><path d="m197 222 2-11c7-3 13-4 19-4-2 5-5 9-9 10-7 1-10 4-12 5zm0 0" style="stroke:#21231e;stroke-width:.67378998;stroke-linecap:round;stroke-linejoin:round;stroke-opacity:1" transform="matrix(-.0827 1 .99547 .08232 0 0)"/></g><g style="fill:#edb92f"><g style="stroke-width:.66311002"><path d="M-217 510c-4 5-8-6-4-20 3-10 17-6 9 8l-1-1c1-2-1-4-3-4-6 2-6 17 0 13l-1 4z" style="fill:#edb92e;fill-opacity:1;stroke:#21231e;stroke-opacity:1" transform="scale(-1 .77147)"/><path d="M232 510c-5 5-9-6-5-20 3-10 17-6 9 8l-1-1c1-2-1-4-3-4-6 2-6 17 1 13l-1 4z" style="fill:#edb92e;fill-opacity:1;stroke:#21231e;stroke-opacity:1" transform="scale(1 .77147)"/><path d="m224-465-5-8c-2-3-2-9 0-12l3-9 1-11c0-3-2-5-3-6s0-2 2-4l2-3h1l1 3c2 2 3 3 2 4l-2 6v11l3 9c2 3 3 9 0 12-2 2-4 5-4 8l-1 1v-1z" style="fill:#edb92e;fill-opacity:1;stroke:#21231e;stroke-opacity:1" transform="scale(1 -.77147)"/></g><path d="M458 221v6c0 2 1 2 2 2 2 0 3 0 3-2v-6c0-1-1-2-3-2l-2 2z" style="fill:#edb92e;fill-opacity:1;stroke:#21231e;stroke-width:.66692001;stroke-opacity:1" transform="matrix(0 .84 1 0 0 0)"/><g style="stroke-width:.66311002"><path d="M-309 510c-4 5-8-6-4-20 3-10 17-6 9 8l-1-1c1-2-1-4-3-4-6 2-6 17 1 13 1 0 0 3-2 4z" style="fill:#edb92e;fill-opacity:1;stroke:#21231e;stroke-opacity:1" transform="scale(-1 .77147)"/><path d="M323 510c-4 5-8-6-4-20 3-10 17-6 9 8l-1-1c1-2-1-4-3-4-6 2-6 17 0 13 2 0 0 3-1 4z" style="fill:#edb92e;fill-opacity:1;stroke:#21231e;stroke-opacity:1" transform="scale(1 .77147)"/><path d="M315-465c0-3-2-6-4-8-3-3-2-9 0-12l3-9 1-11-3-6c-1-1 0-2 2-4l1-3h2l1 3c2 2 3 3 2 4s-3 3-3 6l1 11 3 9c2 3 2 9 0 12l-5 8v1l-1-1z" style="fill:#edb92e;fill-opacity:1;stroke:#21231e;stroke-opacity:1" transform="scale(1 -.77147)"/></g><path d="M458 313v6l2 2c2 0 3-1 3-2v-6c0-1-1-2-3-2l-2 2z" style="fill:#edb92e;fill-opacity:1;stroke:#21231e;stroke-width:.66692001;stroke-opacity:1" transform="matrix(0 .84 1 0 0 0)"/></g><g style="fill:#fff;stroke-width:.66685998"><path d="m264-313 42-1c5-1 8-3 10-5-3-2-6-3-11-3h-39c-10 4-10 7-2 9z" style="stroke:#21231e;stroke-opacity:1" transform="matrix(0 .99513 -1 0 0 0)"/><path d="m256-334 45-2c4 0 28 5 33 8-3 7-19 8-35 7s-29 0-32 1h-11v-14z" style="stroke:#21231e;stroke-opacity:1" transform="matrix(0 .99513 -1 0 0 0)"/><path d="m264-343 45 1c4 0 27 6 32 9-6 8-29 6-35 5-14-2-30-2-32-1h-12l2-14z" style="stroke:#21231e;stroke-opacity:1" transform="matrix(0 .99513 -1 0 0 0)"/><path d="M274-349v12c5-1 20 0 32 2 11 2 39 4 46-7-15-7-30-2-43-5s-25-4-35-2zm-18 45 42-2c5-1 8-3 10-5-3-2-7-3-11-3l-40 2c-10 3-10 6-1 8zm-27-21h36c4 0 10 2 12 4-1 2-4 4-9 4l-32 1-5-7-2-2z" style="stroke:#21231e;stroke-opacity:1" transform="matrix(0 .99513 -1 0 0 0)"/><path d="M236-316h31c4 0 8 1 11 3-2 2-5 4-10 5l-24 1c-1-3-6-7-8-9zm-8-8-11-8c5-1 47-3 50-1 4 0 8 2 11 4-2 2-5 5-10 4-4-1-35 0-40 1z" style="stroke:#21231e;stroke-opacity:1" transform="matrix(0 .99513 -1 0 0 0)"/><path d="m254-340 13-1c4 0 8 2 11 3-2 3-5 6-9 5-18-1-35 1-51 3l-4-7c21-4 35-5 40-3z" style="stroke:#21231e;stroke-opacity:1" transform="matrix(0 .99513 -1 0 0 0)"/><path d="m266-348 8 2c4 0 8 3 11 5-2 2-5 4-9 3-27-3-44-2-65 4 8-13 26-18 55-14z" style="stroke:#21231e;stroke-linejoin:round;stroke-opacity:1" transform="matrix(0 .99513 -1 0 0 0)"/><path d="m274-348-4-11c12-1 26 1 45 4 16 3 29 1 37-1-1 12-17 17-47 11-7-1-17-3-31-3z" style="stroke:#21231e;stroke-opacity:1" transform="matrix(0 .99513 -1 0 0 0)"/></g></g><path d="m-348-328-2 23-3 28" style="fill:none;stroke:#21231e;stroke-width:.66688001;stroke-linecap:round;stroke-opacity:1" transform="scale(-.99997 -1)"/><g style="fill-rule:evenodd"><g style="fill:#fff"><path d="m207 348 1-8 13 3c14 3 30 5 48 3l16-5c-1 9-9 14-23 13-17 2-30 1-39-2l-16-4z" style="stroke:#21231e;stroke-width:.66685998;stroke-linejoin:round;stroke-opacity:1" transform="matrix(0 .99513 1 0 0 0)"/><path d="m208 353 5-4h10l12 3c15 2 34 2 46-3-1 8-8 11-22 11-12 1-26 1-41-2l-10-5z" style="stroke:#21231e;stroke-width:.66685998;stroke-opacity:1" transform="matrix(0 .99513 1 0 0 0)"/><path d="m308-167 3-7 13 4c4 2 7 5 9 8h-11l-14-5z" style="stroke:#21231e;stroke-width:.58806998;stroke-opacity:1" transform="matrix(.5338 .99821 -1 .53476 0 0)"/><path d="m214-326-1-7 13-1 11 2c-2 2-5 5-9 5l-14 1z" style="stroke:#21231e;stroke-width:.66547;stroke-opacity:1" transform="matrix(-.06514 .99756 -1 -.0653 0 0)"/><path d="m206-326-1-6 13-1c4-1 8 0 10 2-1 2-4 4-9 5h-13z" style="stroke:#21231e;stroke-width:.66355997;stroke-opacity:1" transform="matrix(-.10014 .99756 -1 -.10039 0 0)"/><path d="m237-315-1-7 13-1 11 2c-2 2-5 4-9 5l-14 1z" style="stroke:#21231e;stroke-width:.66680002;stroke-opacity:1" transform="matrix(.0159 .99757 -1 .01593 0 0)"/><path d="m235-318-3-7c5-1 21-3 28 1-2 2-5 4-10 5l-15 1z" style="stroke:#21231e;stroke-width:.66663998;stroke-opacity:1" transform="matrix(.03259 .99785 -1 .03266 0 0)"/><g style="stroke-linejoin:round"><path d="m242-317 2-11c7-2 13-4 18-4-1 5-4 9-9 10-7 1-10 4-11 5zm0 0" style="stroke:#21231e;stroke-width:.67378998;stroke-linecap:round;stroke-opacity:1" transform="matrix(.0827 1 -.99547 .08232 0 0)"/><path d="M301-232h2c-4 3-8 6-12 13-4 6 2 18 5 25 5 4 10 9 12 17 0 4-11 3-19-1-9-4-11-3-14-4-1-6 1-6 4-6-6-9-8-17-9-29-1 12-3 20-8 29 2 0 4 0 3 6-3 1-4 0-14 4-8 4-19 5-19 1 2-8 7-13 12-17 3-7 9-19 5-25-4-7-8-10-12-13h2l-6-3c-5 3-9 10-13 15-10 11-15 20-13 28 2 7 12 16-1 15-12-2-22-19-25-39l-3-19c7 3 10 5 12 8l-2-8c5 1 9 4 11 9l2 5h6c1-3 9-11 13-17 4-7 11-12 13-13l2 6a879 879 0 0 1 71 0c-1-3 0-6 1-6 2 1 9 6 13 13 4 6 12 14 13 17h6l2-5c2-5 6-8 11-9l-1 8c1-3 4-5 11-8l-3 19c-3 20-13 37-25 39-13 1-3-8-1-15 2-8-3-17-13-28-4-5-8-12-12-15l-7 3z" style="stroke:#21231e;stroke-width:.66688001;stroke-opacity:1" transform="scale(.99997 -1)"/></g></g><g style="fill:#edb92f"><path d="m245 248 10 3c8 2 13 0 15-5-4 3-8 4-12 2l-9-4-4 4z" style="fill:#edb92e;fill-opacity:1;stroke:#21231e;stroke-width:.65454;stroke-linejoin:round;stroke-opacity:1" transform="matrix(.99998 -.19529 .19528 1 0 0)"/><path d="M313 178c9 1 9 7 0 16-1 2-2 2-2 0-1-3-4-5-6-2-1 1-1 2-5 1-5 5-9 8-3 7l9 2-2 2h-11c-8 1 13-22 13-23-1-3 5-7 7-3z" style="fill:#edb92e;fill-opacity:1;stroke:#21231e;stroke-width:.67334998;stroke-opacity:1" transform="scale(1 .99686)"/></g></g><path d="M-313-178c1-2 2-4 5-6" style="fill:none;stroke:#21231e;stroke-width:.67295003;stroke-linecap:round;stroke-opacity:1" transform="scale(-1 -.99706)"/></g></g><path d="m315 182-1-1-1 1 1 1 1-1" style="fill:#21231e;fill-rule:evenodd"/><g stroke-miterlimit="23" style="fill:none;stroke:#21231e;stroke-miterlimit:22.9260006"><path d="M264-112h13" style="stroke:#21231e;stroke-width:.86079001;stroke-linecap:round;stroke-opacity:1" transform="matrix(.99998 .25807 .25806 -1 0 0)"/><path d="m-292 92 5 1" style="stroke:#21231e;stroke-width:.63349003;stroke-linecap:round;stroke-opacity:1" transform="matrix(-.99997 -.32891 -.3289 1 0 0)"/><path d="M224 54h6v4" style="stroke:#21231e;stroke-width:.68856001;stroke-opacity:1" transform="matrix(.81664 1 .99997 -.81667 0 0)"/></g><path d="m240 185-1-1 1-3 3 1-3 3" style="fill:#21231e;fill-rule:evenodd"/><path stroke-miterlimit="23" d="M-40-270h5c2 0 2 2 1 4" style="fill:none;stroke:#21231e;stroke-width:.68856001;stroke-miterlimit:22.9260006;stroke-opacity:1" transform="matrix(-.81664 1 -.99997 -.81667 0 0)"/><path d="m300 185 1-1c1-1 0-2-1-3l-3 1 3 3" style="fill:#21231e;fill-rule:evenodd"/><g stroke-miterlimit="23" style="stroke:#21231e;stroke-miterlimit:22.9260006"><g style="fill:none;stroke-linecap:round"><path d="M-243-243h14" style="stroke:#21231e;stroke-width:.86079001;stroke-opacity:1" transform="matrix(-.99998 .25807 -.25806 -1 0 0)"/><path d="m195 252 6 1" style="stroke:#21231e;stroke-width:.63349003;stroke-opacity:1" transform="matrix(.99997 -.32891 .3289 1 0 0)"/><g style="stroke-width:.66688001;stroke-linejoin:round"><path d="M237-232c5-2 10-1 14 2l1 2" style="stroke:#21231e;stroke-opacity:1" transform="scale(.99997 -1)"/><path d="m253-225-3-9c4 1 7 3 9 5m11-7c-3 4-5 8-5 13" style="stroke:#21231e;stroke-opacity:1" transform="scale(.99997 -1)"/><path d="M258-224c0-4 1-7 3-9 2 1 4 3 4 7" style="stroke:#21231e;stroke-opacity:1" transform="scale(.99997 -1)"/><path d="M-303-232c5-2 10-1 13 2l2 2" style="stroke:#21231e;stroke-opacity:1" transform="scale(-.99997 -1)"/><path d="m-287-225-3-9c4 1 7 3 9 5" style="stroke:#21231e;stroke-opacity:1" transform="scale(-.99997 -1)"/><path d="M-282-224c0-4 1-7 3-9 2 1 3 3 4 7m5-10c-3 4-5 8-5 13" style="stroke:#21231e;stroke-opacity:1" transform="scale(-.99997 -1)"/></g><g style="stroke-width:.66685998"><path d="M204-200a96 96 0 0 0 77 9" style="stroke:#21231e;stroke-opacity:1" transform="matrix(0 .99513 -1 0 0 0)"/><path d="M204 340a96 96 0 0 0 77 9" style="stroke:#21231e;stroke-opacity:1" transform="matrix(0 .99513 1 0 0 0)"/></g></g><path d="M-227 178c9 1 9 7 0 16-2 2-2 2-2 0-1-3-4-5-6-2-1 1-1 2-5 1-5 5-9 8-3 7l9 2-2 2h-11c-8 1 13-22 13-23-1-3 5-7 7-3z" style="fill:#edb92e;fill-opacity:1;fill-rule:evenodd;stroke:#21231e;stroke-width:.67334998;stroke-linejoin:round;stroke-opacity:1" transform="scale(-1 .99686)"/><path d="m227-178 5-6" style="fill:none;stroke:#21231e;stroke-width:.67295003;stroke-linecap:round;stroke-opacity:1" transform="scale(1 -.99706)"/></g><path d="m225 182 1-1 1 1-1 1-1-1" style="fill:#21231e;fill-rule:evenodd"/><g stroke-miterlimit="23" style="stroke:#21231e;stroke-miterlimit:22.9260006"><g style="fill-rule:evenodd"><g style="fill:#fff"><path d="m-45 349-3-4c2-2 7-4 11-1l14 7c-4 3-8 4-12 2l-10-4z" style="stroke:#21231e;stroke-width:.58688998;stroke-linejoin:round;stroke-opacity:1" transform="matrix(-.99998 .5396 .53958 1 0 0)"/><path d="m174 320 1-6h11c4 0 7 1 10 3-2 2-5 4-9 4l-13-1z" style="stroke:#21231e;stroke-width:.60295999;stroke-opacity:1" transform="matrix(-.47247 1 .99997 .47249 0 0)"/><path d="M268 293v-7h13c4 0 7 1 10 3-2 2-5 4-9 4h-14z" style="stroke:#21231e;stroke-width:.65426999;stroke-opacity:1" transform="matrix(-.19727 1 .99998 .19727 0 0)"/><path d="m344-190 1-5c1-2 7-4 12 0 6 5 11 7 15 8-4 3-9 5-13 2l-15-5z" style="stroke:#21231e;stroke-width:.65979999;stroke-linejoin:round;stroke-opacity:1" transform="matrix(.14684 1 -.99997 .14685 0 0)"/><path d="M185 317v-6h12c4 0 7 1 9 3-1 2-4 4-8 5l-13-2z" style="stroke:#21231e;stroke-width:.61830997;stroke-opacity:1" transform="matrix(-.40408 1 .99997 .4041 0 0)"/><path d="m13 298-4-6h7l4 2c5 3 8 5 12 5-4 3-7 4-11 2l-8-3z" style="stroke:#21231e;stroke-width:.51016003;stroke-linejoin:round;stroke-opacity:1" transform="matrix(-.99997 .84188 .84187 1 0 0)"/></g><g style="fill:#edb92f"><path d="M288-344c0-2 0-4 5-11 5-4 11-7 15-12l2-3-2-10c-2-2-1-6 1-5 1-1 5 1 4 3v9c2-1 2-6 2-10 0-3 3-3 6-2v1c3 1 3 4 1 4-3 1-4 8-6 10l9-8c1-1 2-3 5-1l1 4c0 4-1 4-3 4-3 0-8 3-9 4l-4 2c-1 1-3 7-2 9 2 2 1 4-2 5l-4-1c-1-2 0-3 1-5l2-4c-1-2-3 4-8 9-7 7-12 8-14 8z" style="fill:#edb92e;fill-opacity:1;stroke:#21231e;stroke-width:.66194999;stroke-linejoin:round;stroke-opacity:1" transform="matrix(-.12042 .99535 -1 -.12098 0 0)"/><path d="m297-392-1-4v-1c-4 2-4 5-2 6l2 2 1-3z" style="fill:#edb92e;fill-opacity:1;stroke:#21231e;stroke-width:.65947002;stroke-opacity:1" transform="matrix(-.15013 .99966 -1 -.15019 0 0)"/><path d="M273 376v-6c1-1 0-2-1-1-3 2-4 4-3 7l2 2 2-2z" style="fill:#edb92e;fill-opacity:1;stroke:#21231e;stroke-width:.64951998;stroke-opacity:1" transform="matrix(-.21494 1 .99442 .21375 0 0)"/><path d="m383 313 3 6c0 1 0 2 1 1 3-4 3-7 0-9l-3-2-1 4z" style="fill:#edb92e;fill-opacity:1;stroke:#21231e;stroke-width:.65899003;stroke-opacity:1" transform="matrix(.9986 .15606 -.15628 1 0 0)"/><path d="m186-422 2-4v-1c-6 0-6 3-5 6l3-1z" style="fill:#edb92e;fill-opacity:1;stroke:#21231e;stroke-width:.61368001;stroke-opacity:1" transform="matrix(-.42431 .99781 -1 -.42524 0 0)"/></g></g><g style="fill:none"><path d="m-353 2 1 2 1-2m0 0 1 2 1-2" style="stroke:#21231e;stroke-width:.49265999;stroke-opacity:1" transform="matrix(-.91227 -1 .99998 -.91229 0 0)"/><path d="M-347 321c1 2 2 2 3 1 2-1 1-1-1-3" style="stroke:#21231e;stroke-width:.67369002;stroke-opacity:1" transform="matrix(0 -1 .99656 0 0 0)"/><path d="M-345 319c1 2 3 2 4 2 2-1 1-2-1-4" style="stroke:#21231e;stroke-width:.67677999;stroke-opacity:1" transform="matrix(0 -1 .99509 0 0 0)"/><path d="M-342 316c1 1 3 2 4 1s1-2-1-4" style="stroke:#21231e;stroke-width:.66894001;stroke-opacity:1" transform="matrix(0 -1 .99883 0 0 0)"/></g><g style="fill:#fff;fill-rule:evenodd"><path d="m373 124-2-5c1-2 6-4 11 0s9 5 13 6c-4 3-8 5-12 3l-10-5z" style="stroke:#21231e;stroke-width:.58688998;stroke-linejoin:round;stroke-opacity:1" transform="matrix(.99998 .5396 -.53958 1 0 0)"/><path d="M383-121v-7h12c4 1 7 2 9 4-1 1-4 3-8 3h-13z" style="stroke:#21231e;stroke-width:.60295999;stroke-opacity:1" transform="matrix(.47247 1 -.99997 .47249 0 0)"/><path d="M371-227v-7h12c4 0 8 1 10 3-1 2-4 4-9 5l-13-1z" style="stroke:#21231e;stroke-width:.65426999;stroke-opacity:1" transform="matrix(.19727 1 -.99998 .19727 0 0)"/><path d="m266 338 1-4c2-2 7-4 12 0 6 5 11 6 16 7-5 4-9 5-14 3l-15-6z" style="stroke:#21231e;stroke-width:.65979999;stroke-linejoin:round;stroke-opacity:1" transform="matrix(-.14684 1 .99997 .14685 0 0)"/><path d="m372-147 1-7h11c4 1 8 2 10 4-2 2-4 4-8 4-5 1-9-1-14-1z" style="stroke:#21231e;stroke-width:.61830997;stroke-opacity:1" transform="matrix(.40408 1 -.99997 .4041 0 0)"/><path d="m329 32-4-6h8l3 2 12 5c-4 3-7 4-11 2l-8-3z" style="stroke:#21231e;stroke-width:.51016003;stroke-linejoin:round;stroke-opacity:1" transform="matrix(.99997 .84188 -.84187 1 0 0)"/></g><path d="M-323-236v-62a40 40 0 0 1 39-39 40 40 0 0 1 40 39v62z" style="fill:#c6363c;fill-opacity:1;stroke:#21231e;stroke-width:1.33379996;stroke-opacity:1" transform="scale(-.95223 -1)"/><g style="fill:#fff"><path d="M324-274v-16h-31v-46l-9-1-8 1v46h-32v16h32v38h17v-38z" style="stroke:#21231e;stroke-width:.66688001;stroke-opacity:1" transform="scale(.94998 -1)"/><g style="fill-rule:evenodd;stroke-linejoin:round"><path d="M-245-258h-23c-1 5-6 17 5 18 4 0 8-6 3-8-2-1-3 0-3 1-1 2 0 3 2 2-3 5-9-4-1-8 2-2 4 2 6 2 1 0 3-4 5-2 8 4 2 13-1 8 2 1 3 0 2-2 0-1-1-2-3-1-5 2-1 8 3 8 11-1 6-13 5-18z" style="stroke:#21231e;stroke-width:.67624998;stroke-opacity:1" transform="matrix(0 -1 -.99769 0 0 0)"/><g style="stroke-width:.67137998"><path d="M-245 284h-23c-1 5-6 16 5 17 4 0 8-6 3-8-2 0-3 0-3 2-1 1 0 2 2 2-3 5-9-5-1-9 2-1 4 2 6 2 1 0 3-3 5-2 8 4 2 14-1 9 2 0 3-1 2-2 0-2-1-2-3-2-5 2-1 8 3 8 11-1 6-12 5-17z" style="stroke:#21231e;stroke-opacity:1" transform="matrix(0 -1 .99769 0 0 0)"/><path d="M318-258h-22c-1 5-6 17 4 18 5 0 8-6 4-8-2-1-3 0-4 1 0 2 1 3 2 2-2 5-8-4-1-8 2-2 5 2 6 2 2 0 4-4 6-2 7 4 2 13-1 8 2 1 3 0 2-2 0-1-2-2-4-1-4 2-1 8 4 8 10-1 6-13 4-18z" style="stroke:#21231e;stroke-opacity:1" transform="matrix(0 1 -.99769 0 0 0)"/><path d="M318 284h-22c-1 5-6 16 4 17 5 0 8-6 4-8-2 0-3 0-4 2l2 2c-2 5-8-5-1-9 2-1 5 2 6 2 2 0 4-3 6-2 7 4 2 14-1 9 2 0 3-1 2-2 0-2-2-2-4-2-4 2-1 8 4 8 10-1 6-12 4-17z" style="stroke:#21231e;stroke-opacity:1" transform="matrix(0 1 .99769 0 0 0)"/></g></g></g><path d="M-323-236v-62a40 40 0 0 1 39-39 40 40 0 0 1 40 39v62z" style="fill:none;stroke:#21231e;stroke-width:1.33379996;stroke-opacity:1" transform="scale(-.95223 -1)"/></g><path id="path-b7309" d="m m0 78 m0 119 m0 65 m0 65 m0 65 m0 65 m0 65 m0 65 m0 65 m0 65 m0 65 m0 65 m0 65 m0 65 m0 65 m0 65 m0 65 m0 65 m0 65 m0 65 m0 78 m0 97 m0 55 m0 108 m0 112 m0 121 m0 84 m0 98 m0 111 m0 80 m0 54 m0 108 m0 119 m0 78 m0 79 m0 85 m0 49 m0 70 m0 65 m0 54 m0 72 m0 70 m0 108 m0 104 m0 66 m0 70 m0 75 m0 57 m0 101 m0 78 m0 47 m0 104 m0 119 m0 120 m0 100 m0 77 m0 76 m0 108 m0 110 m0 121 m0 43 m0 80 m0 118 m0 113 m0 70 m0 80 m0 110 m0 66 m0 87 m0 115 m0 108 m0 47 m0 65 m0 74 m0 49 m0 102 m0 102 m0 47 m0 49 m0 106 m0 52 m0 86 m0 79 m0 111 m0 54 m0 103 m0 61 m0 61"/>
</svg>