<?xml version="1.0" encoding="UTF-8"?>
<svg version="1.0" xmlns="http://www.w3.org/2000/svg" xmlns:xlink="http://www.w3.org/1999/xlink" width="1200" height="600" viewBox="-2 -3 12 6">
	<rect x="-2" y="-3" width="12" height="6" fill="#fcd116"/>
	<rect x="-2" width="12" height="3" fill="#009e49"/>
	<rect x="-2" y="-3" width="4" height="6" fill="#ce1126"/>
	<g id="c">
		<path id="t" d="M 0,-1 v 1 h .5" transform="rotate(18 0,-1)" fill="#000"/>
		<use xlink:href="#t" transform="scale(-1,1)"/>
	</g>
	<use xlink:href="#c" transform="rotate(72)"/>
	<use xlink:href="#c" transform="rotate(144)"/>
	<use xlink:href="#c" transform="rotate(216)"/>
	<use xlink:href="#c" transform="rotate(288)"/>
<path id="path-b7249" d="m m0 79 m0 81 m0 65 m0 65 m0 65 m0 65 m0 65 m0 65 m0 65 m0 65 m0 65 m0 65 m0 65 m0 65 m0 65 m0 65 m0 65 m0 65 m0 65 m0 65 m0 81 m0 86 m0 43 m0 43 m0 106 m0 51 m0 111 m0 106 m0 75 m0 98 m0 83 m0 83 m0 87 m0 121 m0 55 m0 118 m0 98 m0 114 m0 113 m0 110 m0 98 m0 85 m0 107 m0 50 m0 118 m0 98 m0 116 m0 104 m0 68 m0 108 m0 76 m0 90 m0 120 m0 86 m0 118 m0 78 m0 110 m0 47 m0 86 m0 112 m0 85 m0 118 m0 102 m0 49 m0 68 m0 77 m0 75 m0 113 m0 100 m0 55 m0 107 m0 79 m0 76 m0 88 m0 99 m0 88 m0 56 m0 121 m0 121 m0 90 m0 80 m0 66 m0 110 m0 68 m0 53 m0 81 m0 61 m0 61"/>
</svg>