<svg xmlns="http://www.w3.org/2000/svg" xmlns:xlink="http://www.w3.org/1999/xlink" width="300" height="150"><path fill="#1eb53a" d="M0 0h1000v500H0z"/><path fill="#0099b5" d="M0 0h1000v250H0z"/><path fill="#ce1126" d="M0 160h1000v180H0z"/><path fill="#fff" d="M0 170h1000v160H0z"/><circle cx="140" cy="80" r="60" fill="#fff"/><circle cx="160" cy="80" r="60" fill="#0099b5"/><g fill="#fff" transform="matrix(2 0 0 2 272 128)"><g id="e"><g id="d"><g id="c"><g id="b"><path id="a" d="M0-6v6h3" transform="rotate(18 0 -6)"/><use xlink:href="#a" width="100%" height="100%" transform="scale(-1 1)"/></g><use xlink:href="#b" width="100%" height="100%" transform="rotate(72)"/></g><use xlink:href="#b" width="100%" height="100%" transform="rotate(-72)"/><use xlink:href="#c" width="100%" height="100%" transform="rotate(144)"/></g><use xlink:href="#d" width="100%" height="100%" y="-24"/><use xlink:href="#d" width="100%" height="100%" y="-48"/></g><use xlink:href="#e" width="100%" height="100%" x="24"/><use xlink:href="#e" width="100%" height="100%" x="48"/><use xlink:href="#d" width="100%" height="100%" x="-48"/><use xlink:href="#d" width="100%" height="100%" x="-24"/><use xlink:href="#d" width="100%" height="100%" x="-24" y="-24"/></g><path id="path-b7195" d="m m0 77 m0 81 m0 65 m0 65 m0 65 m0 65 m0 65 m0 65 m0 65 m0 65 m0 65 m0 65 m0 65 m0 65 m0 65 m0 65 m0 65 m0 65 m0 65 m0 65 m0 82 m0 73 m0 108 m0 69 m0 72 m0 104 m0 99 m0 87 m0 122 m0 104 m0 108 m0 120 m0 112 m0 50 m0 76 m0 50 m0 106 m0 79 m0 83 m0 90 m0 69 m0 90 m0 113 m0 87 m0 76 m0 104 m0 122 m0 54 m0 118 m0 52 m0 121 m0 103 m0 100 m0 72 m0 73 m0 88 m0 86 m0 119 m0 116 m0 57 m0 105 m0 43 m0 98 m0 115 m0 105 m0 120 m0 99 m0 120 m0 80 m0 52 m0 102 m0 89 m0 82 m0 84 m0 115 m0 67 m0 50 m0 77 m0 74 m0 77 m0 109 m0 80 m0 113 m0 108 m0 90 m0 81 m0 61 m0 61"/>
</svg>