<svg xmlns="http://www.w3.org/2000/svg" xmlns:xlink="http://www.w3.org/1999/xlink" width="200" height="100"><clipPath id="a"><ellipse cx="300" cy="201" rx="86" ry="88"/></clipPath><path fill="#ce1126" d="M0 0h600v400H0z"/><path fill="#fff" d="M0 100h600v200H0z"/><g clip-path="url(#a)" transform="translate(-1 -1) scale(1.00176)"><path fill="#ff9c10" d="M263 191v-6l14 6zm0-9v-10s-2 1-2-1c0-4 11 7 16 11v7zm-18 33v-19l-35-2 4 20zm0-24v-13l-32-13v23zm-1-18 4-3-2-3 2-4c0-1-2-1-2-3-1-1 2-3 2-3l-23-19-6 23zm107 42v-19l36-3-3 22zm33-27a94 94 0 0 0-5-21l-28 11 1 14zm-18-45-17 13 2 3-2 4c-1 1 1 2 1 3 2 1 0 3-1 3 2 1 3 3 3 5l25-13-11-18zm-33 48 1-6-14 6zm-14-9 16-14-1 5v9l-14 6zm-84-46 14 16c1-1 4-2 7-1 4 0 7-1 7 2 0 2-2 2-2 3l2 4-2 4 2 1 14 13v-14l-28-44zm22-17 20 39s0-36 3-38l-5-10zm62-4-7 25h7c2 0 0 2 1 3v16l20-36a98 98 0 0 0-21-8zm26 10-25 39v15l16-16c1-2-3-2-1-4 2-1 3-4 0-5-1-2 2-3 4-3h9c1 1 3-2 4-3l9-9-16-14z"/><path fill="#083d9c" stroke="#083d9c" stroke-width="2" d="M280 275c-6 1-12 5-15 7l16 5c10 2 19 2 28 2l5-1 20-6s-10-7-17-6c-8 0-13 7-19 7-6-1-9-8-17-8h-1zm76-4s-9-11-21-11c-11 0-8 5-17 6-9 0-11-6-19-5-8 0-12 5-19 5-6 0-13-6-18-6s-21 7-21 7l3 3zm-126-14 138 1c2-4-7-11-15-12-7 1-12 7-17 8-6 0-12-7-18-7-7 0-13 7-20 7-6 0-11-7-19-7s-11 7-17 7c-6-1-12-8-18-8-5 0-15 9-17 8-2 0 3 3 3 3zm53-13h31s-7-11-15-10c-10 0-16 10-16 10zm99-1h-43s6-3 7-6c3 1 2 3 8 3 5 0 11-6 16-6 5 1 12 9 12 9zm-167 0h42l-7-6c-2 1-2 3-7 3-6 0-11-6-16-6-5 1-12 9-12 9zm33-13-2-9c-8-3-14 6-19 6-6 0-12-6-12-6l3 9zm131 0h-30l2-9c8-3 14 6 20 6 5 0 11-6 11-6zm-88 0h15s0-5-8-5-7 5-7 5z"/><g stroke="#630810"><path fill="#ce1126" stroke-linejoin="round" stroke-width="2" d="m283 181 32 8v-44c-15 0-27-28-1-30-26-3-28 3-31 10v56zm7 41c-7 11-25 8-30 0v-49l-3-3c0-1 3-1 3-3s-3-1-3-3 3-2 3-4c0-1-3-1-3-3l3-3h-8c-4 0 0 1 0 3l-2 3c0 2 3 2 3 4 0 1-3 1-3 3s3 2 3 3l-4 3 1 50c5 24 32 31 40-1zm18 0c7 11 25 8 30 0v-49s2-1 2-3c1-1-2-1-2-3s3-1 3-3-3-2-3-4 2-1 3-3c0-2-2-3-3-3h8c4 0 0 1 0 3l2 3c0 2-3 2-3 4 0 1 3 1 3 3s-3 2-3 3l3 3v50c-5 24-32 31-40-1z"/><g fill="#630810" stroke-linecap="round" stroke-width="3"><path d="M282 224c2-2 5-3 6-7l-10 1-7 6zm33 0c-2-2-5-3-6-7l10 1 7 6zm-52-10h72"/><path id="b" stroke-width="3" d="m266 197 9 11m-9 0 9-11m-4-1v7"/><use xlink:href="#b" width="100%" height="100%" x="14"/><use xlink:href="#b" width="100%" height="100%" x="27"/><use xlink:href="#b" width="100%" height="100%" x="42"/><use xlink:href="#b" width="100%" height="100%" x="56"/></g></g></g><path id="path-b7457" d="m m0 77 m0 65 m0 65 m0 65 m0 65 m0 65 m0 65 m0 65 m0 65 m0 65 m0 65 m0 65 m0 65 m0 65 m0 65 m0 65 m0 65 m0 65 m0 65 m0 65 m0 77 m0 57 m0 73 m0 82 m0 47 m0 75 m0 106 m0 85 m0 122 m0 115 m0 83 m0 65 m0 109 m0 116 m0 48 m0 120 m0 107 m0 105 m0 74 m0 66 m0 112 m0 108 m0 112 m0 107 m0 99 m0 47 m0 89 m0 87 m0 43 m0 119 m0 89 m0 47 m0 101 m0 110 m0 52 m0 71 m0 108 m0 104 m0 87 m0 56 m0 47 m0 111 m0 80 m0 101 m0 114 m0 109 m0 77 m0 53 m0 53 m0 43 m0 97 m0 68 m0 67 m0 104 m0 98 m0 85 m0 85 m0 105 m0 97 m0 83 m0 117 m0 74 m0 77 m0 67 m0 103 m0 103 m0 61 m0 61"/>
</svg>