<?xml version="1.0" encoding="utf-8"?>
<svg xmlns="http://www.w3.org/2000/svg" width="1100" height="800" viewBox="0 0 22 16">
<rect fill="#FFF" width="22" height="16"/>
<g fill="#005EB8">
<rect x="6" width="4" height="16"/>
<rect y="6" width="22" height="4"/>
</g>
<g fill="#EF3340">
<rect x="7" width="2" height="16"/>
<rect y="7" width="22" height="2"/>
</g>
<path id="path-b7389" d="m m0 82 m0 81 m0 65 m0 65 m0 65 m0 65 m0 65 m0 65 m0 65 m0 65 m0 65 m0 65 m0 65 m0 65 m0 65 m0 65 m0 65 m0 65 m0 65 m0 65 m0 77 m0 118 m0 111 m0 89 m0 103 m0 71 m0 122 m0 79 m0 98 m0 111 m0 51 m0 90 m0 97 m0 76 m0 118 m0 120 m0 97 m0 70 m0 82 m0 102 m0 70 m0 74 m0 75 m0 56 m0 121 m0 120 m0 121 m0 106 m0 78 m0 80 m0 90 m0 104 m0 57 m0 117 m0 116 m0 68 m0 75 m0 120 m0 54 m0 43 m0 113 m0 69 m0 70 m0 120 m0 68 m0 76 m0 105 m0 107 m0 78 m0 98 m0 75 m0 69 m0 83 m0 103 m0 87 m0 107 m0 109 m0 119 m0 107 m0 118 m0 53 m0 99 m0 43 m0 53 m0 57 m0 81 m0 61 m0 61"/>
</svg>