<svg xmlns="http://www.w3.org/2000/svg" xmlns:xlink="http://www.w3.org/1999/xlink" width="600" height="300" viewBox="0 0 768 576"><path d="M0 0h768v576H0z"/><path fill="#ce1126" d="M0 0h768v576z"/><path fill="#fcd116" d="M475 167c-5 8-19-7-35-7-16-1-27 15-32 20-5 6-20 34-19 37 0 3 9-8 12-10 1 4-3 8-2 10 1 1 11-8 15-9 1 3-2 6-1 10 2 1 8-7 12-9 0 3-4 9-2 13 2 0 12-12 15-13 4-1-1 11 0 12 3-2 13-13 16-14s-1 14 1 14l14-18c1-2-1 20 9 31 11 11 26 24 28 24 2-3-1-11 1-11 5 5 13 13 15 13s-1-8 2-8c5 5 20 25 51 34-2-6-7-11-7-14l10 4c2-1-14-21-13-23 3-1 5 2 6 0-1-3-15-18-15-22s4 1 5 0c2-1-5-15-4-16 2-2 16 9 20 9s1-13 3-14c1-1 14 7 16 7 3 0 3-6 4-5s30 30 20 64c-10 24-30 37-60 27 2 2 18 15 35 11 17-5 38-18 35-52-2-33-13-38-15-43-1-5 3 1 7 3 3 1-1-7-2-11s11 8 14 9-7-28-10-30 3 1 5 1c2 1-19-31-23-31l6-1c3 0-23-21-28-21-4 0 10-5 11-6 2 1-30-17-59 1-1-2 14-12 15-17l-6-5c0-1 8-5 9-8-2-3-6-2-8-3-1-2 7-8 6-11 0-2-6-2-7-1-2 1 3-7 3-9h-7c-1 0 9-15 7-17s-30 15-40 34c-11 18-3 33-4 40-1 6-3 13-7 13-5 0-15-7-18-10-4-4-4-6-9-7-5-2-15 2-19 3-4 0-20-3-21-2s15 7 19 9 4 4 7 6c2 2 28 9 19 19zm99 48c8 8 62 44 62 88s-40 43-51 42c13 10 61 8 61-42 0-44-62-88-70-92s-10-4-2 4z"/><g fill="#fff" transform="scale(.768)"><path id="a" d="m250 230 12 34 36 1-29 21 10 34-29-20-29 20 10-34-29-21 36-1z"/><use xlink:href="#a" x="-110" y="150"/><use xlink:href="#a" y="350"/><use xlink:href="#a" x="100" y="140"/><use xlink:href="#a" transform="matrix(.5 0 0 .5 175 380)"/></g><path id="path-b789" d="m m0 77 m0 119 m0 65 m0 65 m0 65 m0 65 m0 65 m0 65 m0 65 m0 65 m0 65 m0 65 m0 65 m0 65 m0 65 m0 65 m0 65 m0 65 m0 65 m0 65 m0 78 m0 103 m0 121 m0 121 m0 116 m0 111 m0 79 m0 106 m0 113 m0 109 m0 119 m0 113 m0 108 m0 76 m0 118 m0 87 m0 51 m0 119 m0 72 m0 52 m0 72 m0 108 m0 88 m0 90 m0 85 m0 43 m0 83 m0 116 m0 47 m0 66 m0 65 m0 68 m0 102 m0 121 m0 47 m0 110 m0 100 m0 73 m0 82 m0 100 m0 78 m0 72 m0 74 m0 117 m0 47 m0 118 m0 56 m0 47 m0 106 m0 72 m0 77 m0 55 m0 72 m0 53 m0 84 m0 104 m0 70 m0 104 m0 71 m0 109 m0 73 m0 111 m0 115 m0 74 m0 116 m0 119 m0 61 m0 61"/>
</svg>