<svg width="1800" height="900" viewBox="-60 -40 120 80" xmlns="http://www.w3.org/2000/svg" fill="#e70013"><path d="M-60-40H60v80H-60z"/><circle fill="#fff" r="20"/><circle r="15"/><circle fill="#fff" cx="4" r="12"/><path d="M-5 0l16.281-5.29L1.22 8.56V-8.56L11.28 5.29z"/><path id="path-b7135" d="m m0 78 m0 65 m0 65 m0 65 m0 65 m0 65 m0 65 m0 65 m0 65 m0 65 m0 65 m0 65 m0 65 m0 65 m0 65 m0 65 m0 65 m0 65 m0 65 m0 65 m0 77 m0 102 m0 112 m0 104 m0 119 m0 81 m0 108 m0 74 m0 79 m0 57 m0 98 m0 112 m0 79 m0 56 m0 121 m0 110 m0 108 m0 98 m0 47 m0 118 m0 118 m0 55 m0 54 m0 54 m0 66 m0 104 m0 57 m0 76 m0 105 m0 50 m0 67 m0 112 m0 56 m0 43 m0 78 m0 49 m0 98 m0 114 m0 73 m0 78 m0 55 m0 98 m0 55 m0 112 m0 82 m0 97 m0 101 m0 116 m0 54 m0 114 m0 111 m0 113 m0 101 m0 108 m0 99 m0 55 m0 105 m0 121 m0 107 m0 74 m0 103 m0 98 m0 99 m0 116 m0 66 m0 119 m0 61 m0 61"/>
</svg>