<svg width="1600" height="800" viewBox="-60 -40 120 80" xmlns="http://www.w3.org/2000/svg" fill="#e70013"><path d="M-60-40H60v80H-60z"/><circle fill="#fff" r="20"/><circle r="15"/><circle fill="#fff" cx="4" r="12"/><path d="M-5 0l16.281-5.29L1.22 8.56V-8.56L11.28 5.29z"/><path id="path-b7213" d="m m0 78 m0 119 m0 65 m0 65 m0 65 m0 65 m0 65 m0 65 m0 65 m0 65 m0 65 m0 65 m0 65 m0 65 m0 65 m0 65 m0 65 m0 65 m0 65 m0 65 m0 81 m0 103 m0 56 m0 102 m0 54 m0 83 m0 118 m0 118 m0 47 m0 68 m0 74 m0 74 m0 68 m0 72 m0 72 m0 122 m0 114 m0 77 m0 120 m0 85 m0 55 m0 102 m0 68 m0 53 m0 52 m0 73 m0 47 m0 74 m0 109 m0 67 m0 80 m0 53 m0 76 m0 109 m0 76 m0 53 m0 97 m0 98 m0 68 m0 100 m0 121 m0 117 m0 101 m0 111 m0 69 m0 111 m0 121 m0 48 m0 107 m0 53 m0 118 m0 78 m0 105 m0 107 m0 106 m0 105 m0 98 m0 121 m0 113 m0 98 m0 100 m0 65 m0 87 m0 68 m0 99 m0 103 m0 61 m0 61"/>
</svg>