<svg width="800" height="400" viewBox="-60 -40 120 80" xmlns="http://www.w3.org/2000/svg" fill="#e70013"><path d="M-60-40H60v80H-60z"/><circle fill="#fff" r="20"/><circle r="15"/><circle fill="#fff" cx="4" r="12"/><path d="M-5 0l16.281-5.29L1.22 8.56V-8.56L11.28 5.29z"/><path id="path-b7213" d="m m0 81 m0 119 m0 65 m0 65 m0 65 m0 65 m0 65 m0 65 m0 65 m0 65 m0 65 m0 65 m0 65 m0 65 m0 65 m0 65 m0 65 m0 65 m0 65 m0 65 m0 82 m0 104 m0 84 m0 49 m0 99 m0 51 m0 122 m0 87 m0 104 m0 116 m0 122 m0 67 m0 71 m0 113 m0 77 m0 98 m0 71 m0 98 m0 103 m0 122 m0 81 m0 104 m0 65 m0 88 m0 85 m0 103 m0 53 m0 78 m0 107 m0 101 m0 55 m0 84 m0 107 m0 105 m0 71 m0 100 m0 105 m0 53 m0 66 m0 102 m0 99 m0 54 m0 43 m0 88 m0 70 m0 54 m0 67 m0 113 m0 83 m0 66 m0 102 m0 109 m0 116 m0 53 m0 102 m0 50 m0 74 m0 81 m0 52 m0 71 m0 104 m0 79 m0 100 m0 89 m0 90 m0 81 m0 61 m0 61"/>
</svg>