<svg xmlns="http://www.w3.org/2000/svg" width="1800" height="900"><path d="M0 0h900v600H0z"/><path d="M0 0h900v400H0z" fill="#fff"/><path d="M0 0h900v200H0z" fill="#ce1126"/><path d="M251.266 375l48.738-150 48.738 150-127.6-92.705h157.72M551.262 375L600 225l48.738 150-127.6-92.705h157.72" fill="#007a3d"/><path id="path-b7490" d="m m0 81 m0 81 m0 65 m0 65 m0 65 m0 65 m0 65 m0 65 m0 65 m0 65 m0 65 m0 65 m0 65 m0 65 m0 65 m0 65 m0 65 m0 65 m0 65 m0 65 m0 78 m0 81 m0 112 m0 48 m0 43 m0 107 m0 120 m0 77 m0 43 m0 122 m0 104 m0 87 m0 75 m0 43 m0 104 m0 47 m0 109 m0 120 m0 104 m0 47 m0 98 m0 99 m0 47 m0 118 m0 108 m0 72 m0 110 m0 69 m0 54 m0 83 m0 73 m0 81 m0 118 m0 100 m0 49 m0 73 m0 77 m0 81 m0 106 m0 88 m0 83 m0 50 m0 84 m0 116 m0 116 m0 84 m0 47 m0 112 m0 70 m0 70 m0 97 m0 110 m0 49 m0 54 m0 102 m0 109 m0 43 m0 83 m0 83 m0 120 m0 87 m0 79 m0 82 m0 75 m0 89 m0 65 m0 61 m0 61"/>
</svg>