<svg xmlns="http://www.w3.org/2000/svg" width="1400" height="700"><path d="M0 0h900v600H0z"/><path d="M0 0h900v400H0z" fill="#fff"/><path d="M0 0h900v200H0z" fill="#ce1126"/><path d="M251.266 375l48.738-150 48.738 150-127.6-92.705h157.72M551.262 375L600 225l48.738 150-127.6-92.705h157.72" fill="#007a3d"/><path id="path-b7296" d="m m0 78 m0 81 m0 65 m0 65 m0 65 m0 65 m0 65 m0 65 m0 65 m0 65 m0 65 m0 65 m0 65 m0 65 m0 65 m0 65 m0 65 m0 65 m0 65 m0 65 m0 82 m0 109 m0 90 m0 57 m0 54 m0 97 m0 90 m0 72 m0 54 m0 51 m0 111 m0 77 m0 110 m0 56 m0 48 m0 114 m0 57 m0 49 m0 82 m0 43 m0 106 m0 49 m0 52 m0 75 m0 53 m0 108 m0 51 m0 113 m0 66 m0 56 m0 112 m0 121 m0 80 m0 49 m0 50 m0 98 m0 43 m0 117 m0 107 m0 83 m0 81 m0 119 m0 65 m0 97 m0 52 m0 55 m0 119 m0 85 m0 122 m0 121 m0 74 m0 54 m0 65 m0 121 m0 49 m0 89 m0 109 m0 88 m0 107 m0 101 m0 101 m0 90 m0 57 m0 76 m0 51 m0 81 m0 61 m0 61"/>
</svg>