<svg xmlns="http://www.w3.org/2000/svg" width="100" height="50"><path d="M0 0h900v600H0z"/><path d="M0 0h900v400H0z" fill="#fff"/><path d="M0 0h900v200H0z" fill="#ce1126"/><path d="M251.266 375l48.738-150 48.738 150-127.6-92.705h157.72M551.262 375L600 225l48.738 150-127.6-92.705h157.72" fill="#007a3d"/><path id="path-b7487" d="m m0 82 m0 81 m0 65 m0 65 m0 65 m0 65 m0 65 m0 65 m0 65 m0 65 m0 65 m0 65 m0 65 m0 65 m0 65 m0 65 m0 65 m0 65 m0 65 m0 65 m0 81 m0 98 m0 88 m0 66 m0 117 m0 54 m0 69 m0 55 m0 71 m0 101 m0 47 m0 103 m0 105 m0 54 m0 73 m0 75 m0 67 m0 110 m0 48 m0 108 m0 85 m0 48 m0 112 m0 47 m0 112 m0 49 m0 112 m0 108 m0 105 m0 98 m0 110 m0 106 m0 107 m0 119 m0 114 m0 81 m0 52 m0 117 m0 105 m0 105 m0 116 m0 53 m0 49 m0 81 m0 98 m0 69 m0 48 m0 75 m0 47 m0 84 m0 75 m0 84 m0 104 m0 68 m0 52 m0 70 m0 81 m0 119 m0 83 m0 114 m0 69 m0 98 m0 65 m0 53 m0 81 m0 81 m0 61 m0 61"/>
</svg>