<svg xmlns="http://www.w3.org/2000/svg" xmlns:xlink="http://www.w3.org/1999/xlink" width="900" height="450" viewBox="0 0 1050 700"><defs><linearGradient xlink:href="#a" id="f" x1="92" x2="92" y1="208" y2="186" gradientTransform="matrix(1.0629 0 0 .8398 -3 474)" gradientUnits="userSpaceOnUse"/><linearGradient xlink:href="#b" id="g" x1="49" x2="63" y1="178" y2="165" gradientTransform="matrix(.9378 0 0 .9518 4 470)" gradientUnits="userSpaceOnUse"/><linearGradient xlink:href="#c" id="h" x1="105" x2="104" y1="159" y2="166" gradientTransform="matrix(.7891 0 0 1.1312 12 448)" gradientUnits="userSpaceOnUse"/><linearGradient xlink:href="#d" id="i" x1="52" x2="65" y1="179" y2="167" gradientTransform="matrix(.9239 0 0 .9662 5 470)" gradientUnits="userSpaceOnUse"/><linearGradient xlink:href="#e" id="j" x1="44" x2="55" y1="222" y2="211" gradientTransform="matrix(1.1431 0 0 .7809 -8 461)" gradientUnits="userSpaceOnUse"/></defs><linearGradient id="a" x1="92" x2="92" y1="208" y2="186" gradientTransform="matrix(1.0629 0 0 .8398 -3 474)" gradientUnits="userSpaceOnUse"><stop offset="0" stop-color="#4A0000"/><stop offset="1" stop-color="#FFCF00"/></linearGradient><linearGradient id="b" x1="49" x2="63" y1="178" y2="165" gradientTransform="matrix(.9378 0 0 .9518 4 470)" gradientUnits="userSpaceOnUse"><stop offset="0" stop-color="#4A0000"/><stop offset="1" stop-color="#FFCF00"/></linearGradient><linearGradient id="c" x1="105" x2="104" y1="159" y2="166" gradientTransform="matrix(.7891 0 0 1.1312 12 448)" gradientUnits="userSpaceOnUse"><stop offset="0"/><stop offset="1" stop-color="#2b5df2"/></linearGradient><linearGradient id="d" x1="52" x2="65" y1="179" y2="167" gradientTransform="matrix(.9239 0 0 .9662 5 470)" gradientUnits="userSpaceOnUse"><stop offset="0" stop-color="#4A0000"/><stop offset="1" stop-color="#FFCF00"/></linearGradient><linearGradient id="e" x1="44" x2="55" y1="222" y2="211" gradientTransform="matrix(1.1431 0 0 .7809 -8 461)" gradientUnits="userSpaceOnUse"><stop offset="0" stop-color="#4A0000"/><stop offset="1" stop-color="#FFCF00"/></linearGradient><path fill="#fff" d="M0 233h286v234H0z"/><path d="M263 369c-2 2-5 2-7 1v1l3 2 5 2h8c5-3 2-8-4-8l-5 2zm13 6v4c0 9-4 18-11 26l-3 4h9c1-1 1-1 1 1 1 3 2 5 4 6l3 1c2-1 3-4 4-6l1-3 5 1h5l-3-3-7-10c-3-5-4-9-4-15l-1-6c-1-1-2-2-3 0zM94 351l-2 3-1 5v8c2 3 5 3 7 0 1-3 1-7-1-10-2-2-2-4-1-7 1-1-1-1-2 1zm7 17-3 2c-3 4 4 8 9 5s5-3 8-2h2l-8-4c-6-2-6-2-8-1zm-21 1c-2 2-5 2-7 1-1 0-2 0 0 2l3 2 5 1c3 2 6 2 8 0 5-2 2-7-4-7l-5 1zm13 6v4c-1 10-4 19-12 27l-2 3h9c1-1 1 0 1 2 1 2 2 5 4 6h3c2-1 3-3 3-6 1-2 1-3 2-2h5l4 1-2-3-8-11-4-14v-7h-3zm92-24-2 3-1 4c-2 4-2 6 0 8 2 3 5 3 6 0 2-2 1-6-1-9v-7c0-1-1-1-2 1zm6 17-2 2c-3 4 4 8 9 5s5-3 8-2h1c0-2-2-2-7-4-6-2-6-2-9-1zm-20 1c-3 2-5 2-7 1s-2 0-1 1l4 2 5 2h8c4-3 2-8-4-8l-5 2zm13 6-1 4c0 9-4 19-11 27l-3 3h9c1-1 2-1 2 1 0 3 2 5 3 7h3c2-1 4-4 4-6l1-2h10l-2-2-8-11-4-15-1-6h-2zM5 350l-1 4-2 4v8c2 3 5 3 7 0 1-2 1-6-1-9-2-2-2-5-1-7s0-1-2 0zm7 18-3 1c-3 4 4 9 9 6s6-3 8-2h2c-1-2-2-3-8-4-5-2-6-2-8-1zm263-145v3c-1 10-4 19-12 27l-2 4 9-1 1 2c1 3 2 5 4 6h3c2-1 3-3 3-6l2-2 5 1h4l-2-3-8-11-4-14v-6c-1-2-2-2-3 0zm-183 0-1 4c0 9-4 19-11 27l-3 3h9c1-1 2-1 2 1 0 3 2 5 4 7h2c2-1 4-4 4-6l1-2h10l-2-2-8-11-4-15-1-6h-2zm91 0-1 4c0 9-4 18-11 26l-3 4h9c1-1 1-1 2 1 0 3 1 5 3 6l3 1c2-2 4-4 4-7l1-2 5 1h5l-3-3-7-11c-3-4-4-8-4-14l-1-6c0-1-2-2-2 0zM4 223l-1 3c0 5-1 11-3 15v17c0 3 2 5 4 6h2c3-1 4-3 4-6l1-2 6 1h4l-2-3c-5-5-6-7-8-11l-4-14v-6c-1-2-2-2-3 0zm228 206-2 4-1 4c-2 3-2 6 0 8 2 3 5 3 6 0 2-3 1-6-1-9v-7c0-2-1-2-2 0zm6 17-2 2c-3 4 4 8 8 6 6-3 6-3 8-2 3 0 3 0 2-1l-7-4c-6-2-6-2-9-1zm-20 2c-3 1-5 2-7 1s-2-1-1 1l4 2 4 2h9c4-3 1-8-5-8-1 0-3 0-4 2zm14 5-1 4c0 9-4 19-11 26l-3 4h9c1-1 1-1 2 1 0 3 2 5 3 6l3 1c2-2 4-4 4-7l1-2 5 1h5l-2-3-8-10c-3-5-4-9-4-15l-1-6h-2zM48 430l-1 3-2 4v8c2 3 5 3 7 0 1-2 1-6-1-9-2-2-2-5-1-7s0-1-2 1zm7 17-3 1c-3 4 4 9 9 6 6-3 6-3 8-2h2c-1-2-2-3-7-4-6-2-7-2-9-1zm-21 1c-2 2-5 2-7 1v1l3 2 5 2h8c5-3 2-8-4-8l-5 2zm14 6v3c0 10-4 19-11 27l-3 3h9c1-1 1 0 1 1 1 3 2 6 4 7h3c2-1 3-3 4-6 0-2 0-3 1-2h5l5 1-3-3c-4-5-6-7-7-11-3-5-4-9-4-14l-1-6c0-2-2-2-3 0zm91-25-2 4-1 4v8c2 3 5 3 7 0 1-3 1-6-1-9s-2-5-1-7-1-1-2 0zm7 17-3 2c-3 4 4 9 9 6s5-3 8-2h2c-1-2-2-3-8-5s-6-2-8-1zm-21 2c-2 1-5 2-7 1-1-1-2 0 0 1l3 2 5 2h8c5-3 2-8-4-8l-5 2zm14 5v4c-1 10-4 19-12 27l-2 3h9c1-1 1-1 1 1l4 7h3c2-1 3-4 3-6 1-2 1-3 2-2h9l-2-2-8-11-4-14v-7h-3zm92-178-1 3-2 5v8c2 3 5 3 7 0 1-3 1-7-1-9-2-3-2-5-1-8l-2 1zm7 17-3 2c-3 4 4 8 9 6 5-3 6-3 8-3h2l-7-4c-6-2-7-2-9-1zm-21 1c-2 2-5 3-7 1v2l3 2 5 1c3 2 6 2 8 0 5-2 2-7-4-7l-5 1zm13 6v4c0 10-4 19-11 27l-3 3h9l1 2c1 2 2 5 4 6h3c2-1 3-3 4-6l1-2h5l5 1-3-3c-4-5-6-7-7-11-3-5-4-9-4-14l-1-6c-1-2-2-2-3-1zM48 275l-2 4-1 4v8c2 3 5 3 7 0 1-3 1-6-1-9s-2-5-1-7-1-1-2 0zm7 18-3 1c-3 4 4 9 9 6s5-3 8-2h2c-1-2-2-3-8-5s-6-2-8 0zm-21 1c-2 1-5 2-7 1-1-1-2 0 0 1l3 2 5 2h8c5-3 2-8-4-8l-5 2zm13 6v3c-1 10-4 19-12 27l-2 4 9-1 1 2c1 3 2 5 4 6h3c2-1 3-3 3-6l2-2 5 1h4l-2-3-8-11-4-14v-6c-1-2-2-2-3 0zm92-25-2 4-1 4c-2 3-2 6 0 8 2 3 5 3 6 0 2-3 1-7 0-9-2-3-2-5-1-8 0-1-1-1-2 1zm6 17-2 2c-3 4 4 8 9 6 5-3 5-3 8-2 2 0 2 0 1-1l-7-4c-6-2-6-2-9-1zm-20 2c-3 1-5 2-7 1s-2-1-1 1l4 2 5 2h8c4-3 2-8-4-8-2 0-3 0-5 2zm13 6-1 3c0 10-4 19-11 27l-3 3h9c1 0 2 0 2 2l3 6h3c2-1 4-3 4-6l1-2 6 1h4l-2-3c-5-5-6-7-8-11l-4-14-1-6c0-2-1-2-2 0zM4 375v4c0 5-2 10-4 15v17c1 2 2 5 4 6h3c2-1 3-3 3-6 1-2 1-3 2-2h5l4 1-2-3-8-11-4-14v-7H4z"/><g transform="matrix(.9955 0 0 .99382 1 -1)"><rect width="287" height="235" x="-1" y="1" fill="#c00" ry="0"/><path fill="#08672f" d="M287 32V1h-36L-1 206v30h35z"/><path fill="#08672f" d="M-1 32V1h35l253 205v30h-36z"/><path fill="#fff" d="M-1 95h288v47H-1z"/><path fill="#fff" d="M119-1h47v239h-47z"/></g><path fill="#c00" d="M0 700h286V467H0z"/><g id="k"><g fill="none" stroke="#650000"><path fill="#2b5df2" d="M151 666c-1 2 1 8 5 8l-2-8zm-9-6c-1 0-4 8 1 11 0-5 2-8 2-8l-2-2z" transform="matrix(.99936 0 0 1.00396 -3 -5)"/><path fill="#2b5df2" d="M141 655c-1-1-6 3-6 8 3-3 7-3 7-3zm7-4c0-2-5-4-8-1 4 1 6 4 6 4zm94 16 1 3 2 4 2-8c-1-1-5 1-5 1zm-14-3c-1 0-3 6-1 10 1-5 4-7 4-7zm-6-2c-1-1-5 3-5 7 3-3 6-3 6-3zm3-7c0-2-5 0-6 4 3-2 6 0 6 0zm-160-4c1-1-3-6-6-4 3 2 4 7 4 7zm-14 11c-1-2-6 3-6 9 3-4 7-4 7-4zm1-9c-1-2-7-2-9 4 5-2 8 1 8 1zm6 17v3l2 4 3-7h-5zm-15-72c0-2-6-5-9 0 5 0 7 4 7 4zm-6 9c-1-2-6 2-6 9 3-4 7-4 7-4zm21-10c0-2-4-7-9-4 4 2 6 7 6 7zm7 8c0-1-1-8-5-8l2 8z" transform="matrix(.99936 0 0 1.00396 -3 -5)"/><path fill="#ffcf00" d="M83 612c-3-4 0-12 4-8-2-3 1-6 2-4-1-3 2-5 3-2 0-3 4-5 5-2 0-2 4-4 4 0 1-4 5-4 6 0 1-2 4-2 4 2 2-2 5 1 5 4 2-1 4 4 2 7 5-3 6 6 3 9l3 1 6 2h10l6-2 10-1c2-1 77 1 79 1 2-1 5-3 5-5 0-3-3-5-5-5h-18l-7 4-3 3h-4l-1 1h-5c0-1 0-2-1-1l-8 1c1-1 1-1-1-1h-7c-5 2-6 0-5-1l1-4-13 2h-25c-3 0-6-3-6-7-1-6 4-7 7-8l13-2h14l11-4c3 0 12 1 16 6h-1l13-2c8-1 6 0 2 1-1 4-12 9-15 10h-13c-1 0-9 0-12-2-5-3-13-5-17-5-3 0-13 1-13 4 0 6 9 7 13 6l17-1c3-2 9-2 12-2l9 1 7-2 9-2 34-1c5 0 9 6 9 11l-2 6 7 1c2 0 6 3 7 5l-8-3h-64c13 2 23 11 25 17 2 3 7 2 9 1 2 0 5-2 6-4 2-1 4-2 6-1 2 0 3 2 2 4h2c3 0 5 1 7 4-2 1-2 0 0 0s4 4 3 5c-2 1-2 1 0 1 3 0 3 2 4 5-3 0-1 0 0 1s2 6-2 6c-1-1-1-1-1 1 0 1 0 5-3 5-3 1-6-1-6-3s0 4-5 5c-4 1-6-1-7-3h-1c-2 0-4 0-5-3 0-2 0-4 3-4l1-2c-1 0 0-4 2-3l8 2c1 2 2-1 0-2-2-2-13-6-16-4-7 3-18 3-20 2-2 0-8 1-11-7-2-9-10-13-14-14-19-1-18 0-6 1 0 1 0 4 2 5 3-1 10-2 12-1 1 2 3 3 3 6l-2 4c-1 1-1 4 2 5l5 3c1 1-1 4-2 3-2-1-2-1-2 1s-2 5-4 6l-1-2-1 3c-1 0-5 2-7 1h-1c-1 0-7 1-4-2l-2 2c-1 1-4 1-4-1l-5 1-2 1-5-2c0-2 0-1-1-1-5 3-7-1-7-2v-4c1-1-3-1-2-3 2-2 3-4 5-4 2 1 1 0 1-1h3c2 0 4 3 5 5 0 2 5 0 7 0 3 1 3-3 1-4l-6-7c-1-1 0-6 1-7 8-5 3-7 1-6-3 0-10 3-13 6l-22 16h-5c-1-2-1-1-1 2 1 8-6 11-8 11l-3-2c-1 5-5 6-9 5v-1c-1 2-5 1-8 1v-1c-1 2-3 1-6 1l1-1c-2 2-4 1-7 1 0 0 2-3 0-1-1 1-4 2-6 1-1-1 0-1 1-2h-1c-1 0-2 1-3-1l-1 2-2 2c-2 1-6 1-7-1v-4l-5 3c-5 1-6-7-4-8 3 0 2-1 1-2s-2-5 0-6c1-1 5-2 7 0 1 0 4 3 3 1l2-4c1-1 4-1 4 1 2 4 3 6 5 6l13-3c2 0 15-1 15-3-8 3-11 0-12 0l-2-1c0-2 1-2-1-1-2 0-3 0-5-2l3-6c-2-1-6 2-7 5-1-1-1 0-4 1l-5-1c-1 0-7-4-4-5h-2l-3-3v-1l-3-2-3-2-2-4c-1 0-4-2-3-3-1-1-3-3-2-4l-1-1c-1-2 0-3 1-3l-1-4c-1 0-4 2-6 0-1-1-3-5-1-8l5-4v-1c0-2 2-4 4-4 1-1 5 0 6 1s1 1 1-1l2-2c2-1 4 0 4 1 1 1 2 3 1 4-2 2-1 1 2 0 1 0 3 0 4 2 0 1 1 4-1 5-1 2-3 5-2 6l6 7c0 1 1 2 3 2l4-1c4 0 6-1 0-1 2-2 4-2 6-2-1-2 2-5 2-6z" transform="matrix(.99936 0 0 1.00396 -3 -5)"/><path d="M83 631c-3-1-11 6-8 15" transform="matrix(.99936 0 0 1.00396 -3 -5)"/><path stroke="url(#f)" d="M84 623c-4 27 22 16 22 7" transform="matrix(.99936 0 0 1.00396 -3 -5)"/><path d="M104 634c1 4 1 14-3 16-3 3-8 3-11 2" transform="matrix(.99936 0 0 1.00396 -3 -5)"/><path d="M96 640c0 3-3 12-10 11m-44-49c3 1 5 4 6 6l1 4m-4 10h4m-3 4h7" transform="matrix(.99936 0 0 1.00396 -3 -5)"/><path stroke="url(#g)" stroke-opacity="0" d="M54 635c9 0 13-13 13-13" transform="matrix(.99936 0 0 1.00396 -3 -5)"/><path stroke-opacity="0" d="M72 628c-2 7-2 7-5 9l-4 1" transform="matrix(.99936 0 0 1.00396 -3 -5)"/><path d="m62 641 6-3m-10-37c-2 2-2 7-2 7m44-7c0 5-2 7-3 7s-3 2-2 5m10-13c-2 4-3 7-2 10v3m-25 13c-4 1-6 9-4 13" transform="matrix(.99936 0 0 1.00396 -3 -5)"/><path d="M115 616h-3s-1 4-4 3h-1m-7-6c5 0 4 3 1 3 0 4-5 3-5 0-3 0-4-4 0-3m107 3c1-3 5-5 5-5m-11 5c2-4 5-6 5-6m-14 6 5-3 3-3m-15 6 5-3 2-3m-6-3c-6-2-9-6-9-6m20-3c-4 2-13 1-13 1m-63 54c1-4 4-5 7-7 3-1 7-5 5-2l-9 6c-1 1-2 3-1 4" transform="matrix(.99936 0 0 1.00396 -3 -5)"/><path stroke-linecap="round" d="M111 637c3 4 1 10-2 12" transform="matrix(.99936 0 0 1.00396 -3 -5)"/><path d="M120 621c4 2 5 6 5 9l-4-1" transform="matrix(.99936 0 0 1.00396 -3 -5)"/><path d="m118 624 5 8c0 2 0 8-7 8v-8" transform="matrix(.99936 0 0 1.00396 -3 -5)"/><path d="M117 636c0 4-3 5-4 6m-7-24c0 5-8 8-8 1m0 0c0 4-5 5-7 2l-3-4-1-3v-3" transform="matrix(.99936 0 0 1.00396 -3 -5)"/><path fill="url(#h)" d="M91 620c2 4 8 2 9 4 1 1-1 6-2 9-2 3-7 3-8 1l1-12z" transform="matrix(.99936 0 0 1.00396 -3 -5)"/><path d="m52 598-1 5v5m0 52h5m2 6 3-4m17 7v-5m6 5c2-2 2-5 2-5m3 5c2-3 1-6 1-6m7 6 1-5m57-3c-3-1-5 4-5 4m10-5-3 6m8-6-3 6m9-7-3 6m8-7-3 9m8-8v4m-35-11 4 3m-8 4c2-4 6-2 7-1m85-17h-4m12 3-5 1m9 5-4-1m8 6h-6m4 7c0-2-3-2-3-2m-18 7c1-3 4-6 6-6h2m-11-1 6-1M85 648l4-5m22-38-2 3m4 1h-3m-7-1c2-1 7 0 7 1 0 3-2 3-7 1v-2zm-6 0c0-3-5-5-6-4-2 3 2 5 3 5h1" transform="matrix(.99936 0 0 1.00396 -3 -5)"/><path stroke-opacity="0" d="M112 628c2 3 2 8 0 11" transform="matrix(.99936 0 0 1.00396 -3 -5)"/><path d="M111 618c-2 5-1 10-1 10m-22-9-3 1" transform="matrix(.99936 0 0 1.00396 -3 -5)"/><path stroke-opacity="0" d="M106 635c2 1 4 6 4 8l-1 2m-4-8c1 3 3 7 2 8v1m-7-6-1 8-1 1m0-9-2 8" transform="matrix(.99936 0 0 1.00396 -3 -5)"/><path stroke-linecap="round" stroke-opacity="0" stroke-width="2" d="m84 621-5 5" transform="matrix(.99936 0 0 1.00396 -3 -5)"/><path stroke-opacity="0" d="m82 632-3 4m5 0c-2-2-5 1-5 1m-11 4c0 2-5 3-5 3" transform="matrix(.99936 0 0 1.00396 -3 -5)"/><path stroke-linecap="round" stroke-width="2" d="M108 608v2m-13-5-1 3" transform="matrix(.99936 0 0 1.00396 -3 -5)"/></g><path fill="none" stroke="#650000" d="M79 620c-5 4-6 6-6 13" transform="matrix(.99936 0 0 1.00396 -3 -5)"/><path fill="none" stroke="#600" d="M120 611c-2 1-1 5-1 5m-35-10c2 1 1 5 1 5" transform="matrix(.99936 0 0 1.00396 -3 -5)"/><path fill="#390000" d="M69 666c0 4-4 3-5 3l1-3h1z"/><path fill="#390000" fill-opacity="0" d="M101 632v6l-2 6-1 2-5-3c1 1 0-1 1-1v-3c0-1 2-4 2-2zm-15 13 4-1 2-2 1-3h-2c0 2-2 0-2 1h-2zm94-10c-1 3-1 5-3 7-2 4-5 6-8 7l-3 1v-10l1-1c2 0 3-1 4-3s1-5 1-1z"/><path fill="none" stroke="url(#i)" stroke-opacity="0" d="M57 638c7-2 11-11 11-11" transform="matrix(.99936 0 0 1.00396 -3 -5)"/><path fill="none" stroke="url(#j)" stroke-opacity="0" d="M49 629c7 1 12-7 12-7" transform="matrix(.99936 0 0 1.00396 -3 -5)"/><path fill="none" stroke="#700" stroke-opacity="0" stroke-width="3" d="M219 650v-1c-1 2-1 1 2-1h5l6 1 3 2" transform="matrix(.99936 0 0 1.00396 -3 -5)"/><path fill="#390000" fill-opacity="0" d="m79 640 4 3 3-3v-1l-3-4-1 1-1 2-1 1v1zm32 0 2-4v-10l-4 1v6z"/><path fill-opacity="0" d="m113 622 3 1a18 18 0 0 1 5 10l-4 1-1-1-1-3-1-1z"/><path fill="#390000" fill-opacity="0" d="M107 645c1-1 2 0 2-3 1-3 0-6-1-9l-2-3-5 4 1 1 1 5c-1 1 0 2 1 2z"/><path fill="none" stroke="#700" stroke-opacity="0" stroke-width="3" d="M243 657h6l3 3m-19-17 5-1 4 2" transform="matrix(.99936 0 0 1.00396 -3 -5)"/><path fill="none" stroke="#700" stroke-opacity="0" stroke-width="2" d="M199 648h-3l-2-2m19-24h-17l-17-1m-22 7 3-1 3 1" transform="matrix(.99936 0 0 1.00396 -3 -5)"/><path fill="#390000" fill-opacity="0" d="m46 616-2 3h-3l-1-3 1-2v1l2-1c1 0 1-1 0 0z"/><path fill="none" stroke="#650000" d="M91 619c0 5-3 8-3 8m0-10v10m14-4c-1 5 2 8 2 8" transform="matrix(.99936 0 0 1.00396 -3 -5)"/><path fill="none" stroke="#650000" d="M105 622c0 5-2 9-2 9" transform="matrix(.99936 0 0 1.00396 -3 -5)"/><path fill="#390000" fill-opacity="0" d="M82 663c0 4-5 3-7 3l1-1 3-2z"/><path fill="#390000" fill-opacity="0" d="M87 661c0 6-4 4-6 4l1-1 2-2zm8 1c0 8-6 6-8 6v-2l4-4z"/><path fill="#390000" fill-opacity="0" d="M103 661c0 9-6 7-9 7l1-3 3-3zm-28 0c0 9-5 7-8 7l1-3 3-3z"/><path fill="#390000" d="m79 639-2 5-1-1c1 1-1-3-2-2l2-1v-1z"/><path fill="none" stroke="#650000" d="m121 618 4 1c-1 2-4 3-5 2" transform="matrix(.99936 0 0 1.00396 -3 -5)"/><path fill="none" stroke="#700" stroke-opacity="0" stroke-width="2" d="M183 654h-4l-3-2" transform="matrix(.99936 0 0 1.00396 -3 -5)"/><path fill="none" stroke="#700" stroke-opacity="0" stroke-width="3" d="m167 659 8 1 6-1" transform="matrix(.99936 0 0 1.00396 -3 -5)"/><path fill="none" stroke="#650000" stroke-linecap="round" d="M127 651h-6m9-2h-5m10-4c-2 1-3 2-4 1m7-3h-4" transform="matrix(.99936 0 0 1.00396 -3 -5)"/><path fill="none" stroke="#650000" d="m52 598-1 5v5m7-7c-2 2-1 7-1 7m-15-6c3 0 5 3 6 6l1 3" transform="matrix(.99936 0 0 1.00396 -3 -5)"/></g><use xlink:href="#k" width="100%" height="100%" transform="translate(0 -99)"/><path d="m277 350-1 4-2 4v8c2 3 5 3 7 0 1-2 1-6-1-9-2-2-2-5-1-7s0-1-2 0zm7 18-3 1c-3 4 4 9 9 6s6-3 8-2h2c-1-2-2-3-7-4-6-2-7-2-9-1z"/><path fill="#0092c8" d="M286 0h764v700H286z"/><path fill="#ffcf00" stroke="#000" d="M693 57c-3 3-3 5-3 8 1 4 1 4-5 3-11-2-32-1-44 2-18 4-26 4-46-2-2-1-2 0 2 7 4 8 6 9 16 13l7 2-12 3-14 3c-5 0-3 3 4 5 10 4 20 3 42-2a100 100 0 0 1 43-2c1 0-2 5-7 9-7 6-10 8-14 8l-10 1c-4 1-4 1-4 9v8l-34 32a667 667 0 0 1-44 40c-2 3 0 8 3 9 2 1 1 3-6 12-9 13-16 27-22 43l-4 10-2-8c-4-12-7-31-7-43 0-11 0-11 8-22 9-13 30-35 42-44l18-11c12-6 15-8 15-12 0-5-4-7-9-6l-39-6-33-7 3-14c3-9 5-15 7-17 5-5 5-10 1-14-8-7-18-1-17 9l1 4-10 1-27 6c-20 6-36 7-46 3l-6-2-1 4c0 6 4 11 11 15l6 3-4 1h-26c0 3 7 11 12 13 10 5 31 4 55-5 12-4 27-5 26-2l-56 42c-18 13-21 17-18 23 2 3 1 4-3 12-10 16-19 43-19 57 0 7 0 7-9 18-20 20-58 68-66 82l-3 5-3-3c-5-7-17-4-17 5 0 6 4 10 11 10 3 0 11 3 24 9l19 10-4 4c-7 7-8 13-4 18 1 3 3 3 12 3 8 0 11 1 21 6s14 8 28 23a358 358 0 0 0 140 101 256 256 0 0 0 201-12c11-6 17-8 17-7l3 10c3 8 10 20 13 21l52-7 51-8c2 0 6-16 6-28 0-13-1-14-7-26-8-15-19-27-31-32l-8-4 4-5c16-21 35-52 42-68l4-11h8l8-1-1-12-3-13h12v-33l25-48 28-51c5-4 4-11-1-15-3-3-5-3-8-1-5 2-8 7-7 11 1 1-1 4-2 7-3 4-4 5-7 4l-37-6-33-5-16 29c-9 15-16 29-15 29a1255 1255 0 0 0 74 6l-11 20-11 20h-33c-29 0-33 0-35 2a452 452 0 0 1-14-69c0-7 7-22 18-41 17-30 42-58 52-60 8-1 14-6 14-11s-2-7-8-8c-4 0-55-20-57-22-2-1 6-26 8-29 8-9-7-22-15-13-3 3-4 10-1 13 2 2 0 1-8 0-14-2-28-1-41 2-15 4-26 4-39 1l-10-2c0 4 7 13 11 16l10 4 6 1-9 3-15 4-6 2 6 2c8 4 24 4 42-1 11-3 20-4 29-4 11 0 17 1 15 3l-94 71c-12 7-13 10-13 17 0 3 0 5 4 6l4 1-5 8-10 19-5 11-3-5c-2-5-5-14-6-25-1-5 0-8 6-18a213 213 0 0 1 37-48c1-2-3-7-6-7-2 0-54-36-54-38 0-4 8-25 10-27 2-1 3-4 3-7 0-8-11-13-17-7zm29 66 20 14c0 1-38 15-39 14l5-11 5-12c0-2-14-9-18-10-3 0-4-2-2-9l2-5 4 2 23 17zm182 5-59 19 10-37a264 264 0 0 1 48 18zm-225-16-3 2 1-2c2-3 4-2 2 0zm155 20-7 20a623 623 0 0 1-62 19l38-30 37-28-6 19zm-274-3c30 6 31 7 25 8l-32 9-28 8 1-4 7-26 27 5zm-45 7-3 12-3 11-11 3a1019 1019 0 0 0-31 8 3053 3053 0 0 1 48-34zm137 6h3c0 3-27 37-29 38l-19 6-16 6 12-11a2357 2357 0 0 0 45-39h4zm13 12-4 13-11 4c-6 2-11 4-12 3a193 193 0 0 1 28-33h3zm32-4 5 3-13 4-12 3 3-9 3-8 5 2 9 5zm20 88 3 8-3 12c-5 14-8 29-10 47-1 12-3 15-8 23l-7 14c-3 9-4 2-5-18a252 252 0 0 1 20-108l2-4 2 9 6 17zm-189 0c0 9 3 25 8 38 3 9 3 12 2 17l-3 21c-3 28 2 54 14 79l7 17 1 3-4-3c-12-9-25-25-32-42-4-10-4-12-1-12 2 0 2-3 2-18v-18h-4c-4 0-5-1-7-6l-1-26c0-22 2-31 11-51 5-14 7-13 7 1zm309 27 11 54c2 8 2 9-1 16l-2 10c1 1-2 6-6 10-7 7-7 7-9 4-7-13-9-46-5-69l10-37 2 12zm-411 27 2 9-12 44-12 44-5-1c-6-1-49-20-49-23 0-5 41-58 64-83l9-9v5l3 14zm45-2-4 15-4 14h-10c-5 1-10 0-11-1-2-2 0-12 4-17 3-6 14-12 20-12l5 1zm32 21 4 7c0 1-5 2-13 2h-13l1-4 3-12 2-7 5 3 11 11zm-68 8c2 6 3 10 3 22v15h9l1 13c0 7 1 18 3 24 3 12 2 18-2 18l-18-9-19-10-4-1 11-40 11-41 5 9zm274 49c4 17 10 33 19 49l8 15c-2 1-16 4-18 3s-10-19-15-34c-6-17-12-40-11-45l7-16 6-12 1 14 3 26zm109-5c5 3 7 5 7 7 0 3 0 3 4 4 8 0 7 4-6 14l-12 10c-4 0-18-17-22-27l-5-10 4-1c8-2 22 0 30 3zm-20 30 9 9-4 2c-5 4-38 20-39 20l8-29 8-29 5 9c3 6 9 14 13 18zm-49 10-9 25c-1 2-3-9-2-17 2-11 5-20 11-27l8-8-8 27zm-159-22-7 21-8 20-6-2c-5-2-6-4-8-10-2-7-2-8 2-14 5-8 11-13 19-15s8-2 8 0zm24 2c3 1 4 3 6 13 1 7 5 17 10 27l8 15-8-1-22-4-15-3 4-11 7-24c4-13 4-14 10-12zm32 12 15 7-7 8-9 14-3 8c-3 3-19-35-19-44 0-3 6-1 23 7zm30 16c16 10 38 26 35 26l-18 2h-32l-14-1v-4c2-7 6-15 13-22l6-7 10 6z"/><path d="M692 57c-2 2-3 5-2 8v3l-7-1c-13-1-29 0-42 3-14 4-24 4-37 0l-10-2c0 3 4 10 8 14l10 6 7 2-8 3-14 3c-8 0-7 2 2 5 10 4 17 3 40-2 16-3 23-4 32-4l13 2c0 1-3 5-8 9-6 6-10 8-13 8l-10 1-5 1v16l-33 31c-18 18-36 33-39 35-5 4-6 5-6 9 0 2 1 4 3 5 2 2 2 3-6 13-9 14-13 21-21 40l-5 13-3-10c-4-13-6-26-6-41 0-12 0-12 6-21 20-27 47-50 65-58 8-3 11-6 11-10s-4-7-9-6c-2 1-70-11-71-13a106 106 0 0 1 10-31c5-5 5-10 1-14-8-7-18-1-17 9l1 4-12 2-27 6c-18 4-35 6-44 2-7-3-7-3-7 2 0 6 5 12 13 15l4 3-3 1h-27c0 3 10 12 14 14 10 4 32 2 55-6 10-4 25-5 24-2l-34 26-37 28c-5 4-5 9-2 12l-1 5c-10 14-22 49-22 63 0 7 0 8-12 21-24 26-54 63-62 77l-4 7-3-3c-4-5-10-5-14-1-6 6-1 16 8 16 3 0 11 3 24 9l19 10-5 5c-10 12-5 23 9 20 13-2 33 10 53 32a332 332 0 0 0 136 98 256 256 0 0 0 201-12c11-6 17-8 17-7l3 10c3 8 10 20 13 21l52-7 51-8c2 0 6-16 6-28 0-13-1-14-7-26-8-14-19-27-31-32-7-4-8-4-6-7l11-15c11-16 28-43 34-56l4-10h8c7 0 8 0 7-3l-4-22 7-1h5v-32l24-48 29-52c6-6 4-14-5-17-4-1-11 4-11 10l-2 9c-3 4-4 5-7 5-15-4-68-13-70-12l-31 57 5 2 34 2 33 2c4 0 4 0-8 20l-12 21h-33c-34 0-34-1-35 2h-2c-1-1-9-40-11-57l-1-15 7-18c18-36 50-78 63-80 8-1 14-6 14-11 0-4-2-7-7-7-3 0-56-21-58-23s5-25 8-30c3-4 3-8-1-12s-10-4-14 0c-3 4-4 10-2 12 4 2 1 3-4 2-10-3-32-2-44 2-15 3-28 3-40 0l-9-2 2 5c3 7 10 12 18 14l7 2-11 3-15 4-4 2 5 2c9 4 22 4 44-1 20-4 34-4 41-4 3 1-3 6-41 36l-52 39c-9 6-12 10-12 14-1 5 3 9 7 9l-1 4a228 228 0 0 0-18 33c-3 0-7-13-9-24v-12l6-12c8-14 23-33 31-41 8-6 8-10 2-13-6-2-55-35-56-37 0-3 7-24 10-28 4-5 4-10 0-14s-11-4-15 0zm12 4c3 3 1 8-4 8-5-1-7-5-5-8 3-3 7-3 9 0zm159 4c2 3 1 8-2 9s-8-2-8-5c0-5 7-8 10-4zm-175 9 10 2-3 10c-2 7-3 9-5 8l-11-3c-10-2-20-1-45 5l-22 3h-5l4-1c14-5 19-8 19-10 0-3-1-3-6-3-8 0-18-4-21-8-2-3-2-3 1-2 6 3 26 3 35 0 17-4 30-5 49-1zm-145 4c2 3-1 7-4 8-2 0-7-3-7-6 0-2 5-5 7-5l4 3zm304 3 10 2c1 2-3 19-5 19l-8-2c-11-3-24-3-45 2-11 3-22 5-26 4h-6l9-3c13-5 14-5 13-8 0-1-2-2-8-3-8-1-16-4-18-7-1-1 1-1 6-1 10 2 21 1 34-2 12-3 31-4 44-1zM535 94l-3 13-3 12-13-1c-11 0-14 0-26 4-26 9-43 10-52 4l-4-3 12-1c6 0 15-1 19-3l8-3-12-3c-10-4-18-8-16-10l11 1c11 2 15 1 43-7 12-3 36-5 36-3zm156 7-3 8-3 6c-2 0-2-1 3-14l2-2 1 2zm27 19 24 17c0 1-38 15-39 14l5-12 6-11-4-3-10-5-8-3c-1-1 2-13 3-13l23 16zm132-11-2 11-6 19c-2 8-4 11-6 12l-3-1a757 757 0 0 0 14-42c1-2 3-2 3 1zm54 19c0 1-58 20-59 19l10-37c1-1 9 1 25 8l24 10zm-225-15-3 1 1-2c2-3 3-2 2 1zm155 19-7 20a453 453 0 0 1-64 20l77-59-6 19zm-166-6c-1 11-3 12-3 2 0-6 0-8-2-8s-1 1-2 8l-1 8-2-5v-11c-2-1-1-2 5-2h6zm8-7-1 10-2 9-1-10 1-10 3 1zm-21 9-1 9c-1 0-2-4-2-9l2-8 1 8zm29-6-2 9-3 6v-4l1-9c0-3 0-4 3-4 2 0 2 0 1 2zm17 3 6 5-4 9c-2 5-4 7-5 6s0-4 2-8l3-8c0-4-3-2-6 5-4 8-4 8-5 7l1-7c3-7 3-10 1-10-1 0-4 4-5 8-3 10-5 8-2-2v-8c-1-2 6 0 14 3zm-175 2c0 4-7 28-9 29-3 2-3 1 0-8l4-16c2-8 5-11 5-5zm34 2 28 6a509 509 0 0 1-63 18l2-8a633 633 0 0 0 6-21l27 5zm360 4c0 3-3 6-13 8l-52 18-73 27c-23 8-32 11-36 10-5 0-6-1-7-3-1-5 6-9 22-15l155-47 4 2zm-407 12-4 13a282 282 0 0 1-41 11l47-35-2 11zm97-6a1030 1030 0 0 1-160 49c-1-1-2-2 0-5 2-4 2-4 35-13l66-18c58-17 57-16 58-15l1 2zm43 3c3-1 1 3-10 18l-16 19-16 6-19 7a762 762 0 0 1 56-51c0 3 3 1 5 1zm12 12-4 13-11 4-11 4c-1-1 4-8 11-17 10-14 12-16 15-17h4zm12-11c-5 18-7 22-9 22l-1-2 4-12 5-10c1 0 2 1 1 2zm74 0-39 16-80 31c-24 10-45 18-48 18-6 2-10 1-10-2 0-2 6-5 51-21l78-28c37-14 52-18 48-14zm-54 7 4 3-12 4-11 3 1-6 3-9c1-2 8 0 15 5zm190 8c-44 46-75 125-69 173a129 129 0 0 0 8 30l-7-3-7-3-7-22-6-21 7 40c1 2 0 3-4 3-6 0-4 2-13-30l-5-13 4 22 4 20-4 1c-4 1-4 1-10-21l-7-21 8 41c0 2 0 4-3 5-4 2-4 2-10-18l-5-16 3 19 4 19-3 2c-4 3-4 3-9-13-2-7-3-12-4-11l2 13c3 16 3 18 0 19-3 2-3 1-6-7-3-11-4-10-2 2 2 7 2 9 0 12-2 5-4 4-5-2-2-5-2-5-1 3 1 9-1 14-4 10-1-2-1-1-1 3 1 2 0 9-1 14l-2 8-5-11c-12-24-16-43-16-75 0-19 1-28 3-41 9-46 30-91 43-91 2 0 2 1 1 3 0 3 0 3 3-1l5-5c3-1 3-1 1 3l-1 5 2-3c6-11 11-12 7-2-3 8-3 7 4-2 2-4 6-8 7-8 3-1 3-1-1 9l-5 10 8-12 10-12c3-1 2 1-3 11l-5 11 8-12c7-10 12-15 15-15l-6 12c-14 24-13 24 2 1 6-9 12-16 13-16 2 0 2 1 0 4-10 16-18 31-17 31l14-20c8-12 14-20 16-20l3-1c1 1-5 9-11 20-20 30-19 30 3-1 13-18 19-25 21-23l-11 18c-13 21-15 24-13 23l16-22c11-16 17-23 20-24l4-1c1 1-7 13-17 28l-18 27 23-30 21-29 9-3 10-3-8 9zm-153 4a243 243 0 0 0-48 195 317 317 0 0 0 22 70l-16-12a1074 1074 0 0 1-25-84 943 943 0 0 0 19 80l-5-2c-3-2-5-6-14-39l-12-35 8 33 8 34-4-2c-5-2-5-2-17-44l-6-18 6 28 6 27-5-1c-5-2-6-3-12-28l-8-25 4 24c5 24 5 25-1 21-3-1-5-5-9-18-7-19-7-18-3 1l2 13h-5c-5-1-6-3-9-13-2-6-4-8-3-5l1 10c1 4 1 4-2 4-5 0-7-1-10-8s-3-6-1 3c1 4 0 4-4 4s-5-1-6-3c0-2-1-2-1 1s-7 6-9 3h-1c0 1-2 4-5 6l-8 9-5 6c-2 0-9-18-13-31a178 178 0 0 1 30-142c8-10 10-11 19-15l12-3 2-1c0-1 6-4 7-3l-1 4-2 4 3-3c7-10 10-12 7-4-2 6 0 6 3-1l6-7c3-1 3-1 0 5-4 10-3 10 3 0l7-9c4-2 4-2-1 10l-4 10 8-12 9-13c3-1 3-1-3 13l-5 12 8-13 10-15c6-6 5-1-2 13l-8 15 12-17c10-15 14-20 14-17l-9 17-8 17 12-19c11-16 17-23 19-21l-23 40c-5 9 2-1 16-21 13-19 18-25 20-24l-10 18-17 30 18-26c13-21 17-26 21-27l5-2-12 19-23 39 21-31c17-24 22-30 26-32 9-4 9-3 1 8zm-158-3c-24 20-45 47-58 73-10 21-14 37-14 58 0 13 0 15-2 14l-2-9-1-14c-1-7-1-7-2 4v12c-5 0-6-3-6-16 0-12 0-13-1-8l-1 13c0 5-1 6-2 5-2 0-3-5-4-15l-1-15v13l-1 14c-4 0-5-3-6-11 0-12-2-19-2-7 0 11-1 15-4 15-2 0-2-2-2-6l-1-12c-2-5-2-4-2 6 0 9 0 12-2 12s-4-4-4-15c0-7 0-7-1 3-2 13-2 15-5 15l-1-8c0-5 0-7-1-5l-2 10-1 8c-1 1-2-1-2-4 0-4 0-4-1-3l-2 7c0 5-1 9-3 6-1-1-1 0-1 4l-1 7c-3 0-8-22-9-39 0-15 0-19 3-31 4-15 14-39 20-45l7-5c3-1 3-1 3 2-1 2 0 1 3-2 4-4 9-5 6-1l1-1c4-3 12-7 12-5l-2 3-3 4c-1 2 2 0 6-4 11-10 13-10 5 2-3 4-2 3 5-3 7-8 13-12 13-9l-5 7c-10 13-10 13 2 1l14-12c2 0 1 1-9 14l-8 10 13-14c11-11 19-17 19-14l-11 15-12 14 12-12c18-19 19-20 23-21 3-1 1 1-6 10-17 21-21 27-10 15 21-23 27-29 31-30s4-1 2 2a670 670 0 0 1-13 20c20-22 26-28 33-28l-6 6zm418 46c2 6-6 10-8 4-2-4 0-7 4-7 2 0 4 1 4 3zm-277 32 4 9-4 12c-5 17-8 31-10 48-1 10-2 14-6 20l-7 13-4 7a237 237 0 0 1 15-125l4-11 2 10c1 5 3 13 6 17zm226-17 39 7-21 41c-1 0-69-3-81-5-3-1-2-2 9-23l15-26 39 6zm44-4c1 2-2 7-4 7-3 0-3-1-1-5 2-3 3-3 5-2zm-459 19c0 10 3 29 8 41 3 10 3 11 1 22-3 15-4 46 0 60 3 14 6 22 13 38 4 8 7 14 6 15 0 2-11-7-19-16-6-7-14-21-18-31-2-8-2-7 0-8 3-1 3-1 3-18v-18h-4c-4 0-5-1-6-6l-3-22c1-13 0-19 3-29 3-13 12-36 14-36 1 0 2 3 2 8zm311 41 8 38 3 14-3 9-2 9c1 1-2 5-6 9l-7 7-3-6a161 161 0 0 1 6-103l4 23zm-413 15 2 11-12 43-12 44-5-1c-6 0-49-20-49-23a494 494 0 0 1 73-89l3 15zm531-16-9 19c-10 18-10 19-15 19l-4-1c0-1 4-10 11-20 10-18 11-19 14-19 2 0 3 1 3 2zm-487 19-4 14-3 11h-11c-11 1-11 1-11-3 0-14 12-26 25-27 5 0 5 0 4 5zm12 4c-5 20-6 21-10 21-3 1-4 0-3-2 7-28 7-26 10-24 3 1 4 2 3 5zm21 14c3 3 4 6 4 7l-13 1-13-1 5-21c1-2 12 6 17 14zm-69 5c3 7 4 10 4 23v16h10v11c0 6 1 17 3 25 3 14 3 19-3 19l-16-8-19-11-5-2 11-40 11-40 4 7zm503 5 1 12 1 8h-88l3-11 4-12c1-2 10-2 40-2h39zm-419 15v13h-76v-26h76zm189 16c3 23 10 46 22 64 9 15 9 15 0 17l-10 1c-4 0-22-46-26-68-2-10-1-13 7-29l5-10v6l2 19zm221 3 2 11h-96l10-11 9-10h74zm-423 12c13 38 45 66 90 78 29 7 60 10 95 7 74-5 107-19 150-62l19-19h27l28 1c0 5-19 38-33 58-10 15-13 17-38 27a506 506 0 0 1-381-19c-26-15-41-22-54-27-14-5-26-5-31-2s-5 2-2-5c4-7 12-11 20-11 10 0 17 2 34 13 17 10 22 10 26 5s4-6 0-21l-3-24v-11h49zm10-2c9 22 26 43 43 54 25 14 58 22 105 24 68 3 134-20 173-62 6-6 11-10 13-10l3 1c0 3-30 32-41 40-36 27-79 38-147 38-28 0-43-2-65-7-49-13-80-40-92-80l-2-8h3c3 0 4 2 7 10zm305-2c5 3 3 5 5 6-1 2 0 3 3 4l6 1c1 3-3 8-15 17-9 7-10 7-20-4-5-7-15-23-15-27 0-1 6-2 17-1 9 0 13 1 19 4zm-482-2c3 3 2 7-1 8-4 1-8-1-8-4s3-6 5-6l4 2zm428 34-9 31-5 1-6 1 9-30c9-28 9-29 14-31l6-3-9 31zm19-22c2 5 8 13 13 18l9 10-10 6-33 15 8-28 7-28c0-2 2 0 6 7zm-399 14c3 0 3 1 0 2-3 2-6 1-24-8-14-7-19-11-19-12 1-2 6 0 21 7l22 11zm363 14c-4 15-8 26-9 26-2 0-3-9-2-17 2-11 5-20 12-27l7-8-8 26zm-159-21-7 21-8 20-7-2c-4-3-5-4-7-10-1-6-1-8 1-13 4-8 11-13 18-16 8-2 10-2 10 0zm13 0-7 24-8 23-4-1-4-3 7-21c8-23 8-24 12-23l4 1zm14 5 2 5c0 6 8 27 13 36l5 10c-1 1-21-2-34-5-7-1-10-3-10-4l8-24 7-21h4c3 0 5 2 5 3zm25 7c24 12 20 8 13 16-6 7-10 17-12 21-1 3-3 2-8-7s-12-28-12-33l2-4 17 7zm36 19 22 16 11 9-3 1c-5 1-59 2-61 0l1-9c2-5 5-10 10-16l8-8 12 7zm-272 4c14 5 29 13 54 27 31 18 51 26 85 35 39 10 74 13 122 13 76 0 138-11 195-36l-3 6c-3 3-8 8-13 10-12 6-37 14-59 18-18 4-19 5-10 4 19-2 42-7 65-16 2-1 1 1-3 6-6 5-8 7-20 11a392 392 0 0 1-69 14 472 472 0 0 0 75-12l-7 7c-8 7-16 9-39 13l-7 2 18-2 14-3a289 289 0 0 1-97 42c-22 5-73 5-95 0-46-10-101-37-131-65l-8-6 10 4c10 5 30 11 40 12a180 180 0 0 1-66-33l-9-9 16 7c21 10 40 17 65 24 23 6 31 6 11 0-48-14-92-35-114-55-15-13-28-19-39-19l-7-1c1-3 16-1 26 2zm459 46-7 9-5 8 9-9c10-10 13-10 6-1l-5 7 6-6c7-7 12-8 8-1-3 4-3 4 0 1l4-2 9 7c10 9 18 24 20 36 1 8 1 12-2 24l-1 6-48 8c-35 5-49 7-51 6-3-2-9-12-12-22l-2-7 13-10c8-5 23-19 36-32l22-22z"/><path d="M863 331v6h13v-13h-13zm26 0v6h13v-13h-13zm26 0v6h13v-13h-13zm-56 27v7h13v-13h-13zm42 0v7h13v-13h-13zm-48 32c0 5 0 5 7 5 6 0 6 0 6-5s0-5-6-5c-7 0-7 0-7 5zm30 0c0 5 0 5 7 5 6 0 6 0 6-5s0-5-6-5c-7 0-7 0-7 5zm-334 62v10h13v-19h-13zm220 6v10h13v-19h-13zm-108 13v10h13v-19h-13zM451 338v6h13v-13h-13zm26 0v6h13v-13h-13zm26 0v6h13v-13h-13zm276 184h4-4z"/><path fill="#0091c8" d="M1050 523v177H287V512c0 3 12 7 20 10 15 5 17 5 31-4 20-13 33-13 55 1 34 22 43 22 53 3 8-14 25-14 53 1 13 6 26 11 29 11 4 0 12-6 18-13 15-17 23-16 60 6 30 17 40 18 43 4 4-19 7-22 25-22 10 1 26 5 42 13 14 7 28 12 31 12s6-5 8-12c1-6 6-14 10-17 10-6 21-3 54 13 33 17 42 15 42-7 0-6 7-11 18-11 4 0 17 7 31 15 30 18 39 18 41 0 3-19 15-19 48-2 24 13 51 18 51 10z"/><path fill="none" stroke="#000" stroke-linecap="round" stroke-linejoin="round" stroke-width="9" d="M291 513c1 3 7 7 16 10 15 6 16 6 30-4 20-13 33-13 55 1 34 22 43 22 53 3 7-14 24-14 53 1 13 6 25 11 29 11 3 0 12-6 18-13 14-17 22-15 59 6 30 17 40 19 43 4 4-18 7-21 25-21 10 0 26 5 42 12 14 7 28 12 31 12s6-5 8-12c1-6 6-13 10-16 10-7 20-4 53 13 33 16 43 15 43-7 0-7 7-12 18-12 3 0 17 7 31 16 30 18 38 18 41-1 2-18 15-19 47-2 24 13 49 18 49 10"/><path fill="none" stroke="#fff" stroke-linecap="round" stroke-linejoin="round" stroke-width="9" d="M293 522c1 3 8 8 17 11 15 5 16 5 30-5 20-13 33-13 55 2 34 21 43 21 53 3 8-15 24-15 53 0 13 6 25 11 29 11s12-6 18-13c14-16 23-15 59 6 30 18 40 19 43 4 4-18 8-21 25-21 10 0 26 5 42 12 14 7 28 12 31 12s6-5 8-11c1-7 6-14 10-17 10-7 21-4 54 13 33 16 42 15 42-7 0-7 7-11 18-11 3 0 17 6 31 15 30 18 38 18 41 0 3-19 15-20 47-3 24 13 47 18 47 10"/><path fill="#fff" d="M359 574c-7 4-6 4 5 3 10-2 16 0 29 7 25 15 35 16 52 5 19-11 27-14 42-10 12 2 13 2 9-2-10-9-30-9-47 0-20 10-30 10-53 0-20-9-27-10-37-3zm368 9c-14 8-29 15-34 15s-20-6-34-14c-23-12-25-13-36-9-29 11-48 14-63 11-16-4-18-1-3 6 14 8 26 7 53-1 22-7 23-7 34-1 44 23 57 25 80 8 27-19 38-20 76-9 23 6 25 6 36 2l12-6h-15c-8 0-25-4-38-8-14-4-29-8-34-8-6 0-20 6-34 14zm210-1c-5 1-9 4-11 6-2 4-21 4-31 0-6-3-6-2 2 5 12 9 21 10 37 1 11-6 12-6 25-1 21 7 25 5 8-5s-19-10-30-6zm-112 41c-11 7-23 13-28 13-4 0-18-5-29-10l-21-10-14 7-23 10c-6 2-10 5-10 6 0 5 11 3 27-5 17-9 27-9 44 2 24 15 32 14 58-4 16-12 27-12 55-1 21 7 23 8 34 3l12-4h-13c-6-1-22-5-35-10-12-6-26-10-30-10-5 0-17 6-27 13zm-293 2c-16 13-27 14-45 1-16-11-26-12-48-1-12 5-14 7-10 9 4 1 11 0 17-3 16-7 24-6 44 6l21 11 17-9c25-16 30-17 54-8 22 8 29 8 40-4 4-5 4-5-3-1-12 5-20 4-41-5-25-10-29-10-46 4zm-194 20c-5 2-10 7-12 10-4 6-4 6 2 3 9-4 25-4 27 0l17 13c19 12 34 12 53 1 14-8 24-9 45-3 5 2 4 0-4-6-14-11-27-11-48 0-19 9-25 8-49-8-20-14-20-14-31-10zm255 15-18 11c-3 1-4 3-3 4s9-2 19-6c9-4 19-8 22-8 4 0 14 6 24 13 20 14 26 15 48 1 17-10 20-10 40 2s28 12 53 0c21-11 29-11 51 2 7 4 16 7 19 7 8 0 24-8 32-15l7-7-12 6c-17 9-28 8-49-3-22-11-28-11-48 0-20 12-30 12-50 0-20-11-30-12-48 0s-22 12-37 1-27-16-33-16c-3 0-10 3-17 8z"/><path id="path-b7291" d="m m0 77 m0 119 m0 65 m0 65 m0 65 m0 65 m0 65 m0 65 m0 65 m0 65 m0 65 m0 65 m0 65 m0 65 m0 65 m0 65 m0 65 m0 65 m0 65 m0 65 m0 78 m0 117 m0 73 m0 65 m0 72 m0 47 m0 82 m0 81 m0 48 m0 53 m0 43 m0 74 m0 99 m0 72 m0 118 m0 73 m0 105 m0 47 m0 104 m0 76 m0 81 m0 50 m0 86 m0 98 m0 101 m0 116 m0 102 m0 108 m0 99 m0 78 m0 81 m0 111 m0 99 m0 107 m0 90 m0 99 m0 56 m0 74 m0 80 m0 54 m0 80 m0 102 m0 82 m0 48 m0 67 m0 66 m0 116 m0 83 m0 115 m0 104 m0 84 m0 110 m0 80 m0 80 m0 74 m0 55 m0 72 m0 83 m0 68 m0 89 m0 72 m0 105 m0 80 m0 117 m0 85 m0 103 m0 61 m0 61"/>
</svg>