<svg xmlns="http://www.w3.org/2000/svg" width="1800" height="900">
<rect width="1200" height="800" fill="#005BBB"/>
<rect width="1200" height="400" y="400" fill="#FFD500"/>
<path id="path-b7278" d="m m0 77 m0 81 m0 65 m0 65 m0 65 m0 65 m0 65 m0 65 m0 65 m0 65 m0 65 m0 65 m0 65 m0 65 m0 65 m0 65 m0 65 m0 65 m0 65 m0 65 m0 78 m0 122 m0 52 m0 50 m0 73 m0 73 m0 88 m0 69 m0 69 m0 80 m0 114 m0 81 m0 106 m0 101 m0 81 m0 65 m0 81 m0 52 m0 67 m0 78 m0 122 m0 65 m0 69 m0 85 m0 72 m0 75 m0 97 m0 113 m0 51 m0 99 m0 81 m0 100 m0 120 m0 109 m0 117 m0 74 m0 89 m0 113 m0 81 m0 82 m0 101 m0 119 m0 67 m0 110 m0 71 m0 82 m0 119 m0 67 m0 51 m0 67 m0 117 m0 72 m0 53 m0 88 m0 121 m0 51 m0 71 m0 101 m0 107 m0 69 m0 83 m0 121 m0 68 m0 118 m0 97 m0 119 m0 61 m0 61"/>
</svg>