<svg xmlns="http://www.w3.org/2000/svg" width="1600" height="800">
<rect width="1200" height="800" fill="#005BBB"/>
<rect width="1200" height="400" y="400" fill="#FFD500"/>
<path id="path-b7158" d="m m0 78 m0 65 m0 65 m0 65 m0 65 m0 65 m0 65 m0 65 m0 65 m0 65 m0 65 m0 65 m0 65 m0 65 m0 65 m0 65 m0 65 m0 65 m0 65 m0 65 m0 82 m0 78 m0 47 m0 69 m0 67 m0 82 m0 103 m0 69 m0 70 m0 51 m0 86 m0 65 m0 89 m0 108 m0 66 m0 51 m0 86 m0 76 m0 84 m0 80 m0 67 m0 48 m0 50 m0 97 m0 105 m0 114 m0 47 m0 80 m0 105 m0 76 m0 87 m0 108 m0 118 m0 51 m0 81 m0 71 m0 57 m0 78 m0 48 m0 87 m0 109 m0 65 m0 51 m0 102 m0 47 m0 75 m0 66 m0 111 m0 122 m0 90 m0 88 m0 89 m0 52 m0 69 m0 47 m0 87 m0 89 m0 81 m0 70 m0 76 m0 98 m0 74 m0 69 m0 102 m0 56 m0 119 m0 61 m0 61"/>
</svg>