<svg xmlns="http://www.w3.org/2000/svg" width="1600" height="800">
<rect width="1200" height="800" fill="#005BBB"/>
<rect width="1200" height="400" y="400" fill="#FFD500"/>
<path id="path-b7403" d="m m0 78 m0 103 m0 65 m0 65 m0 65 m0 65 m0 65 m0 65 m0 65 m0 65 m0 65 m0 65 m0 65 m0 65 m0 65 m0 65 m0 65 m0 65 m0 65 m0 65 m0 77 m0 48 m0 79 m0 73 m0 73 m0 113 m0 104 m0 88 m0 74 m0 120 m0 55 m0 107 m0 113 m0 118 m0 54 m0 66 m0 55 m0 97 m0 57 m0 73 m0 73 m0 103 m0 120 m0 68 m0 104 m0 77 m0 90 m0 69 m0 115 m0 84 m0 83 m0 72 m0 113 m0 67 m0 83 m0 83 m0 71 m0 71 m0 106 m0 65 m0 53 m0 114 m0 53 m0 115 m0 57 m0 73 m0 119 m0 103 m0 52 m0 115 m0 83 m0 74 m0 73 m0 43 m0 76 m0 115 m0 102 m0 97 m0 48 m0 51 m0 76 m0 115 m0 47 m0 119 m0 106 m0 119 m0 61 m0 61"/>
</svg>