<svg xmlns="http://www.w3.org/2000/svg" width="200" height="100">
<rect width="1200" height="800" fill="#005BBB"/>
<rect width="1200" height="400" y="400" fill="#FFD500"/>
<path id="path-b7277" d="m m0 81 m0 81 m0 65 m0 65 m0 65 m0 65 m0 65 m0 65 m0 65 m0 65 m0 65 m0 65 m0 65 m0 65 m0 65 m0 65 m0 65 m0 65 m0 65 m0 65 m0 77 m0 74 m0 47 m0 103 m0 116 m0 106 m0 111 m0 115 m0 79 m0 72 m0 85 m0 55 m0 102 m0 100 m0 99 m0 109 m0 89 m0 97 m0 50 m0 48 m0 48 m0 120 m0 74 m0 117 m0 99 m0 48 m0 97 m0 111 m0 115 m0 68 m0 116 m0 110 m0 56 m0 107 m0 48 m0 107 m0 56 m0 111 m0 116 m0 47 m0 106 m0 106 m0 79 m0 77 m0 83 m0 52 m0 109 m0 100 m0 50 m0 72 m0 115 m0 70 m0 51 m0 71 m0 78 m0 84 m0 75 m0 100 m0 56 m0 119 m0 43 m0 111 m0 68 m0 56 m0 90 m0 119 m0 61 m0 61"/>
</svg>