<?xml version="1.0" encoding="UTF-8" standalone="no"?>
<svg xmlns="http://www.w3.org/2000/svg" width="1000" height="600" viewBox="0 0 5 3">
<rect width="5" height="3" fill="#fff"/>
<rect width="5" height="2" y="1" fill="#00966E"/>
<rect width="5" height="1" y="2" fill="#D62612"/>
<path id="path-b7208" d="m m0 77 m0 119 m0 65 m0 65 m0 65 m0 65 m0 65 m0 65 m0 65 m0 65 m0 65 m0 65 m0 65 m0 65 m0 65 m0 65 m0 65 m0 65 m0 65 m0 65 m0 82 m0 83 m0 117 m0 81 m0 76 m0 49 m0 84 m0 50 m0 79 m0 117 m0 113 m0 73 m0 89 m0 109 m0 47 m0 80 m0 70 m0 112 m0 77 m0 88 m0 50 m0 116 m0 56 m0 82 m0 102 m0 72 m0 74 m0 71 m0 49 m0 103 m0 113 m0 100 m0 65 m0 88 m0 117 m0 104 m0 106 m0 78 m0 112 m0 106 m0 97 m0 90 m0 88 m0 120 m0 119 m0 103 m0 89 m0 87 m0 78 m0 102 m0 80 m0 55 m0 67 m0 89 m0 52 m0 75 m0 53 m0 82 m0 122 m0 86 m0 86 m0 73 m0 86 m0 85 m0 82 m0 81 m0 61 m0 61"/>
</svg>
