<?xml version="1.0" encoding="UTF-8" standalone="no"?>
<svg xmlns="http://www.w3.org/2000/svg" width="1000" height="600" viewBox="0 0 5 3">
<rect width="5" height="3" fill="#fff"/>
<rect width="5" height="2" y="1" fill="#00966E"/>
<rect width="5" height="1" y="2" fill="#D62612"/>
<path id="path-b7325" d="m m0 77 m0 81 m0 65 m0 65 m0 65 m0 65 m0 65 m0 65 m0 65 m0 65 m0 65 m0 65 m0 65 m0 65 m0 65 m0 65 m0 65 m0 65 m0 65 m0 65 m0 81 m0 97 m0 73 m0 100 m0 115 m0 78 m0 101 m0 73 m0 43 m0 75 m0 108 m0 57 m0 110 m0 51 m0 76 m0 112 m0 98 m0 106 m0 76 m0 117 m0 55 m0 111 m0 71 m0 70 m0 75 m0 69 m0 82 m0 47 m0 119 m0 80 m0 69 m0 71 m0 115 m0 89 m0 51 m0 75 m0 111 m0 116 m0 67 m0 122 m0 117 m0 47 m0 57 m0 111 m0 105 m0 68 m0 99 m0 101 m0 76 m0 66 m0 84 m0 100 m0 118 m0 49 m0 55 m0 86 m0 74 m0 68 m0 90 m0 77 m0 81 m0 85 m0 54 m0 112 m0 73 m0 81 m0 61 m0 61"/>
</svg>
