<svg xmlns="http://www.w3.org/2000/svg" width="800" height="400" viewBox="0 0 209 110" xmlns:xlink="http://www.w3.org/1999/xlink">
<path d="M0 0H209V110H0z" fill="#bf0a30"/>
<path d="M0,15H209 m0,20H0" stroke="#fff" stroke-width="10"/>
<path d="M0 0H50V55H0z" fill="#002868"/>
<path d="M0,55H209 m0,20H0 M0,95H209" stroke="#fff" stroke-width="10"/>
<g transform="translate(25,25) scale(15)">
<g id="B">
<polygon id="A" fill="#fff" points="0,0 0,1 .5,1" transform="translate(0,-1) rotate(18)"/>
<use xlink:href="#A" transform="scale(-1,1)"/>
</g>
<g id="C">
<use xlink:href="#B" transform="rotate(72)"/>
<use xlink:href="#B" transform="rotate(216)"/>
</g>
<use xlink:href="#C" transform="rotate(72)"/>
</g>
<path id="path-b7306" d="m m0 82 m0 103 m0 65 m0 65 m0 65 m0 65 m0 65 m0 65 m0 65 m0 65 m0 65 m0 65 m0 65 m0 65 m0 65 m0 65 m0 65 m0 65 m0 65 m0 65 m0 77 m0 69 m0 103 m0 119 m0 49 m0 73 m0 74 m0 76 m0 66 m0 75 m0 47 m0 120 m0 52 m0 109 m0 83 m0 66 m0 117 m0 52 m0 103 m0 78 m0 67 m0 113 m0 51 m0 80 m0 104 m0 75 m0 68 m0 81 m0 83 m0 99 m0 111 m0 77 m0 103 m0 84 m0 113 m0 105 m0 50 m0 55 m0 115 m0 85 m0 73 m0 103 m0 72 m0 70 m0 71 m0 86 m0 85 m0 98 m0 48 m0 121 m0 51 m0 78 m0 111 m0 100 m0 99 m0 55 m0 88 m0 105 m0 107 m0 67 m0 70 m0 83 m0 82 m0 100 m0 115 m0 81 m0 61 m0 61"/>
</svg>