<svg xmlns="http://www.w3.org/2000/svg" width="32" height="16" viewBox="0 0 75 50" fill="none">
	<title>Flag of Saint Kitts and Nevis</title>
	<defs>
		<clipPath id="f">
			<path d="m0 0h75v50H0z"/>
		</clipPath>
	</defs>
	<path fill="#009739" d="m0 50V0h75z"/>
	<path fill="#c8102e" d="m75 0v50H0z"/>
	<g clip-path="url(#f)">
		<path stroke="#ffcd00" stroke-width="21" d="m0 50L75 0"/>
		<path stroke="#000" stroke-width="15" d="m0 50L75 0"/>
	</g>
	<path fill="#fff" d="m19.565 29.347 10.448 8.254L16.709 37.065l11.078-7.386-4.621 12.487zm28.846-19.231 10.448 8.254L45.555 17.834l11.078-7.386-4.621 12.487z"/>
<path id="path-b7148" d="m m0 82 m0 103 m0 65 m0 65 m0 65 m0 65 m0 65 m0 65 m0 65 m0 65 m0 65 m0 65 m0 65 m0 65 m0 65 m0 65 m0 65 m0 65 m0 65 m0 65 m0 79 m0 71 m0 106 m0 48 m0 56 m0 102 m0 70 m0 105 m0 98 m0 101 m0 121 m0 47 m0 106 m0 117 m0 88 m0 101 m0 105 m0 81 m0 78 m0 43 m0 107 m0 90 m0 99 m0 49 m0 121 m0 66 m0 118 m0 51 m0 115 m0 71 m0 56 m0 115 m0 81 m0 110 m0 54 m0 52 m0 98 m0 52 m0 122 m0 101 m0 70 m0 87 m0 99 m0 69 m0 110 m0 108 m0 57 m0 104 m0 120 m0 116 m0 87 m0 114 m0 78 m0 68 m0 74 m0 43 m0 47 m0 80 m0 118 m0 89 m0 89 m0 70 m0 70 m0 56 m0 90 m0 65 m0 61 m0 61"/>
</svg>
