<svg xmlns="http://www.w3.org/2000/svg" width="1400" height="700"><path d="M0 0h900v600H0z"/><path fill="#fff" d="M0 0h900v400H0z"/><path fill="#ce1126" d="M0 0h900v200H0z"/><path id="path-b7543" d="m m0 78 m0 65 m0 65 m0 65 m0 65 m0 65 m0 65 m0 65 m0 65 m0 65 m0 65 m0 65 m0 65 m0 65 m0 65 m0 65 m0 65 m0 65 m0 65 m0 65 m0 82 m0 97 m0 102 m0 106 m0 54 m0 119 m0 57 m0 122 m0 85 m0 65 m0 55 m0 47 m0 51 m0 53 m0 55 m0 57 m0 89 m0 78 m0 90 m0 97 m0 54 m0 82 m0 116 m0 115 m0 43 m0 55 m0 88 m0 118 m0 101 m0 47 m0 118 m0 112 m0 70 m0 86 m0 109 m0 88 m0 85 m0 97 m0 85 m0 101 m0 51 m0 55 m0 89 m0 105 m0 115 m0 89 m0 73 m0 86 m0 98 m0 113 m0 78 m0 74 m0 90 m0 113 m0 52 m0 88 m0 81 m0 116 m0 117 m0 108 m0 73 m0 51 m0 90 m0 89 m0 50 m0 65 m0 61 m0 61"/>
</svg>