<svg xmlns="http://www.w3.org/2000/svg" width="200" height="100"><path d="M0 0h900v600H0z"/><path fill="#fff" d="M0 0h900v400H0z"/><path fill="#ce1126" d="M0 0h900v200H0z"/><path id="path-b7149" d="m m0 79 m0 65 m0 65 m0 65 m0 65 m0 65 m0 65 m0 65 m0 65 m0 65 m0 65 m0 65 m0 65 m0 65 m0 65 m0 65 m0 65 m0 65 m0 65 m0 65 m0 77 m0 77 m0 70 m0 69 m0 108 m0 108 m0 88 m0 97 m0 53 m0 43 m0 74 m0 104 m0 52 m0 88 m0 75 m0 97 m0 117 m0 57 m0 88 m0 109 m0 56 m0 103 m0 54 m0 119 m0 76 m0 49 m0 65 m0 52 m0 82 m0 117 m0 71 m0 47 m0 110 m0 121 m0 115 m0 109 m0 87 m0 76 m0 43 m0 100 m0 121 m0 100 m0 104 m0 115 m0 89 m0 79 m0 52 m0 99 m0 43 m0 79 m0 83 m0 111 m0 100 m0 115 m0 76 m0 122 m0 78 m0 119 m0 100 m0 106 m0 75 m0 69 m0 52 m0 73 m0 89 m0 65 m0 61 m0 61"/>
</svg>