<svg xmlns="http://www.w3.org/2000/svg" width="1400" height="700"><path d="M0 0h900v600H0z" fill="#ce1126"/><path d="M0 0h600v600H0z" fill="#fcd116"/><path d="M0 0h300v600H0z" fill="#14b53a"/><path id="path-b7499" d="m m0 78 m0 119 m0 65 m0 65 m0 65 m0 65 m0 65 m0 65 m0 65 m0 65 m0 65 m0 65 m0 65 m0 65 m0 65 m0 65 m0 65 m0 65 m0 65 m0 65 m0 78 m0 82 m0 112 m0 69 m0 90 m0 119 m0 77 m0 115 m0 98 m0 111 m0 82 m0 107 m0 100 m0 76 m0 104 m0 74 m0 81 m0 103 m0 86 m0 72 m0 86 m0 69 m0 81 m0 83 m0 67 m0 90 m0 114 m0 51 m0 108 m0 72 m0 119 m0 114 m0 71 m0 84 m0 110 m0 112 m0 43 m0 71 m0 68 m0 82 m0 97 m0 84 m0 74 m0 83 m0 76 m0 103 m0 98 m0 99 m0 81 m0 76 m0 90 m0 77 m0 77 m0 65 m0 57 m0 78 m0 78 m0 110 m0 121 m0 107 m0 56 m0 69 m0 122 m0 80 m0 100 m0 81 m0 61 m0 61"/>
</svg>