<svg xmlns="http://www.w3.org/2000/svg" width="800" height="400"><path d="M0 0h900v600H0z" fill="#ce1126"/><path d="M0 0h600v600H0z" fill="#fcd116"/><path d="M0 0h300v600H0z" fill="#14b53a"/><path id="path-b7280" d="m m0 77 m0 103 m0 65 m0 65 m0 65 m0 65 m0 65 m0 65 m0 65 m0 65 m0 65 m0 65 m0 65 m0 65 m0 65 m0 65 m0 65 m0 65 m0 65 m0 65 m0 77 m0 67 m0 50 m0 115 m0 50 m0 56 m0 71 m0 71 m0 54 m0 120 m0 75 m0 68 m0 89 m0 73 m0 90 m0 67 m0 112 m0 114 m0 105 m0 107 m0 106 m0 65 m0 50 m0 73 m0 78 m0 53 m0 81 m0 67 m0 111 m0 105 m0 54 m0 104 m0 87 m0 68 m0 103 m0 100 m0 97 m0 112 m0 87 m0 76 m0 98 m0 73 m0 108 m0 65 m0 120 m0 51 m0 116 m0 69 m0 48 m0 70 m0 100 m0 89 m0 79 m0 118 m0 53 m0 119 m0 82 m0 83 m0 78 m0 43 m0 65 m0 83 m0 51 m0 110 m0 70 m0 103 m0 61 m0 61"/>
</svg>