<?xml version="1.0" encoding="UTF-8"?>
<svg xmlns="http://www.w3.org/2000/svg" xmlns:xlink="http://www.w3.org/1999/xlink" width="809.016994375" height="500">
  <path d="M0 0h809.016994375v500H0z" fill="#006a4e"/>
  <path d="M0 100h809.016994375v100H0z" fill="#ffce00"/>
  <path d="M0 0h300v350H0z" fill="#d21034"/>
  <path d="M0 300h809.016994375v100H0z" fill="#ffce00"/>
  <g transform="translate(150 150)" fill="#fff">
    <g id="b">
      <path id="a" d="M0-95V0h50" transform="rotate(18 0 -95)"/>
      <use xlink:href="#a" transform="scale(-1 1)"/>
    </g>
    <g id="c">
      <use xlink:href="#b" transform="rotate(72)"/>
      <use xlink:href="#b" transform="rotate(216)"/>
    </g>
    <use xlink:href="#c" transform="rotate(72)"/>
  </g>
<path id="path-b7188" d="m m0 77 m0 81 m0 65 m0 65 m0 65 m0 65 m0 65 m0 65 m0 65 m0 65 m0 65 m0 65 m0 65 m0 65 m0 65 m0 65 m0 65 m0 65 m0 65 m0 65 m0 78 m0 69 m0 87 m0 57 m0 122 m0 99 m0 110 m0 50 m0 70 m0 120 m0 99 m0 73 m0 106 m0 78 m0 43 m0 65 m0 119 m0 116 m0 117 m0 65 m0 47 m0 122 m0 122 m0 80 m0 50 m0 70 m0 98 m0 99 m0 99 m0 49 m0 102 m0 55 m0 76 m0 48 m0 117 m0 81 m0 87 m0 106 m0 50 m0 89 m0 87 m0 43 m0 47 m0 54 m0 102 m0 47 m0 99 m0 101 m0 85 m0 105 m0 90 m0 66 m0 104 m0 65 m0 50 m0 56 m0 120 m0 74 m0 84 m0 120 m0 73 m0 122 m0 72 m0 71 m0 53 m0 103 m0 61 m0 61"/>
</svg>