<svg xmlns="http://www.w3.org/2000/svg" width="1600" height="800"><path fill="#fff" d="M0 0h1005v567H0z"/><path fill="#0047ab" d="M0 378h1005v189H0zM0 0h1005v189H0z"/><path fill="#fc0" d="m463 355 1 5-4 2c-1 2 0 3 2 4l3 2 5-10-2-1-2 4-1-5-2-1zm0 7h2v1l-1 2h-1l-1-2 1-1zm-8-2 1-2-3-2 1-1 3 1 1-2-3-2 1-1 5 3-6 9-4-4 1-1 3 2m-2-13v1l-3 2h-1c-1-2-3-2-5 0-1 2-1 4 1 5l2 2 7-8zm-6 4 1 1h1l-2 2c-1-1-2-1-1-2l1-1zm-7-1-2-2 5-4c1 0 2-2 1-3-2-1-3 0-4 1l-4 4-2-2 5-4c2-2 4-2 6 0s1 4-1 6l-4 4m-4-20a2 2 0 0 0-1 0l-1 1c-1 0-2 1-1 3h-3v4l1 3 9-6-2-3-2-2zm0 2 1 1v1l-2 1v-2l1-1zm-3 3 1 1-2 2v-2l1-1zm-1-9-1-3 1-1 3 5-9 5-1-2 7-4m-1-8 1 2-10 4-1-2 10-4m-11-7v2c0 2 2 3 4 2 2 0 3-2 2-4l-1-2 2-1 1 3c1 2 0 5-3 6s-6 0-7-3l-1-3h3m5-15-10 6v2l12 2-1-2h-2l-1-4 2-1zm-3 5v2h-4zm-3-24c-3 0-5 2-5 4v4h10l1-3c0-3-2-5-5-5a6 6 0 0 0-1 0zm0 2h1c2 0 3 1 3 4l-7-1c0-2 1-3 3-3zm-2-8h3v-3h2v4h2l1-3h2l-1 6-11-3 1-5h2l-1 4m5-14 2 1 1-4 2 1-2 3 3 1 1-3 2 1-2 5-10-4 2-5h2l-1 4m10-6 1-2h2l-3 5-9-5 1-2 8 4m3-16h-2v2c1 1 3-3 6 0 2 1 2 3 1 5l-4 1v-2l3-1-1-2-2 1h-4c-2-1-2-3-1-4l3-2 1 2m4-10-1 2 5 10 2-1-1-3 2-2 2 1 2-2zm2 3 3 2-1 2zm11-2 3-2 1 1-4 4-7-9 2-1 5 7m7-7-2-7 2-2 2 12-1 1-9-7 2-2 6 5m8-12h-2l1 12 2-1v-2l3-2 2 2 2-1zm0 3 3 3-2 1zm11-7h-1l-3 1 3 10 3-1c3-1 4-3 3-6 0-3-2-4-5-4zm0 2c2 0 3 1 3 2 1 2 0 4-2 4l-1 1-1-7a5 5 0 0 1 1 0zm13-5c-3 0-5 3-5 6s3 5 6 5c3-1 5-3 5-6-1-3-3-5-6-5zm0 2c2 0 3 1 3 3l-2 4c-2 0-3-2-3-3-1-2 0-4 2-4zm9-3v11h2v-4l3 4h2l-3-5c2 0 3-1 3-2 0-3-2-4-4-4zm2 2h1l1 2-2 1zm21 3-1 2 3 1v1h-3l-1 2 3 1v2l-5-1 2-11 6 2-1 1h-3m8 0h1l3 9 3-6h1l-4 10h-1l-3-9-2 7-2-1 4-10m14 16 2 2v2l-5-3 6-9 2 1-5 7m13-2-10 6 1 2 2-2v1l3 2v2l1 2 4-11zm-2 4-1 3-2-1zm18 13-12 3 2 2 2-1 2 3-1 2 1 2 7-10zm-3 3-2 3-1-2zm8 14-7 1v-1l4-5-6 2-1-2 11-3v1l-5 6 8-1v2l-9 6-1-2 6-4m5 7-2 1 1 3-2 1-1-3-2 1 1 3-2 1-2-6 10-3 2 5-2 1-1-4m4 7-10 2v2h4l-3 3v3l4-4c1 1 2 2 3 1 3 0 3-2 3-4zm-1 3-1 2c-1 0-2 0-2-2zm-7 11v-2l10-1v2l-10 1m8 10 1-2c0-2-2-3-4-3-1 0-3 1-3 3l1 2h-3v-2c0-3 2-6 5-6s6 2 6 6l-1 2h-2m-8 2v2l2 2-1 3-2 1v2l11-3v-1zm4 5 3 1-4 1zm-4 26 2-2c1-2 0-4-2-5-1 0-3 0-4 2v3l-2-1v-3c1-3 4-4 7-3s4 5 3 7a6 6 0 0 1-1 3l-2-1m-2 5-2-1-2 3-1-1 1-3-2-1-2 3-2-1 3-5 9 5-2 5h-2l2-4m-2 8-1 1-10 1 6 4-1 2-9-7 1-1h10l-6-5 1-1 9 6m-19 6 1-1 7 6 1-2 1 1-4 5-1-1 1-2-6-6m-3 3-2 2 3 3-5-2-2 2 5 2v3c2 2 4 2 5 0l2-2-6-8zm2 6 2 3h-3c-1-1 0-2 1-3zm-9 0-2 1 1 2-4 2-2-1-2 1 10 7 1-1-2-11zm-1 5 1 4-3-2zm-11 4-2 1-1-2 5-2 4 10h-2l-4-7m50-102 3 3h1l-1-3zm-154 89h4l1 1-3 1z"/><path fill="#090" d="M484 360h5l2-3c1-1 11-6 17-7 7-1 17-5 19-6 10-5 22-14 25-18s6-14 7-19c1-2 4-12 4-19l-2-19c-1-5-10-19-15-26 0 0 12 18 14 26 2 7 2 15 2 20s-3 20-8 31c-4 8-8 9-14 14l-13 9-17 5-18 6-8 6"/><path fill="none" d="M484 360h5l2-3c1-1 11-6 17-7 7-1 17-5 19-6 10-5 22-14 25-18s6-14 7-19c1-2 4-12 4-19l-2-19c-1-5-10-19-15-26 0 0 12 18 14 26 2 7 2 15 2 20s-3 20-8 31c-4 8-8 9-14 14l-13 9-17 5-18 6-8 6z"/><path fill="#090" d="m551 326-1-3-2-3v-6l1-3 2-3 1 2v7l1 3-2 6"/><path fill="none" d="m551 326-1-3-2-3v-6l1-3 2-3 1 2v7l1 3-2 6"/><path fill="#090" d="m552 324 3-6 1-3s2-3 0-5l-1-3c-1-1-2-1-2-3l-1 4 1 3-1 3v10"/><path fill="none" d="m552 324 3-6 1-3s2-3 0-5l-1-3c-1-1-2-1-2-3l-1 4 1 3-1 3v10z"/><path fill="#090" d="M514 347h4l3-1 4-3 3-4h-2l-4 1-4 3-1 1-3 3"/><path fill="none" d="M514 347h4l3-1 4-3 3-4h-2l-4 1-4 3-1 1-3 3z"/><path fill="#090" d="m510 349 8-3 3-3 4-3 3-5c1-2-4 0-4 0-5 2-3 0-5 2l-3 3-2 5-4 4"/><path fill="none" d="m510 349 8-3 3-3 4-3 3-5c1-2-4 0-4 0-5 2-3 0-5 2l-3 3-2 5-4 4z"/><path fill="#090" d="M506 350s6-1 9-5l3-2 3-5 2-6-4 1-4 2-2 5-1 4-2 2c0 2-2 1-4 4"/><path fill="none" d="M506 350s6-1 9-5l3-2 3-5 2-6-4 1-4 2-2 5-1 4-2 2c0 2-2 1-4 4z"/><path fill="#090" d="m516 348 5-2 3-1h9l-3 3-4 1h-7l-3-1"/><path fill="none" d="m516 348 5-2 3-1h9l-3 3-4 1h-7l-3-1z"/><path fill="#090" d="m512 348 7-1h5l5 1h7l-4 4h-11l-2-2-7-2"/><path fill="none" d="m512 348 7-1h5l5 1h7l-4 4h-11l-2-2-7-2z"/><path fill="#090" d="M508 351s5-3 10-2l4 1 5 1 7 2-5 3h-11l-4-1-2-2-4-2"/><path fill="none" d="M508 351s5-3 10-2l4 1 5 1 7 2-5 3h-11l-4-1-2-2-4-2z"/><path fill="#090" d="m538 338 3-4 3-3 4-2 3-1v4l-4 2-4 2-2 1-3 1"/><path fill="none" d="m538 338 3-4 3-3 4-2 3-1v4l-4 2-4 2-2 1-3 1z"/><path fill="#090" d="m535 339 6-4 3-1 5-2 4-1-1 3-4 3-5 2-2-1-6 1"/><path fill="none" d="m535 339 6-4 3-1 5-2 4-1-1 3-4 3-5 2-2-1-6 1z"/><path fill="#090" d="m533 340 7-2 4-1h11l-2 2-4 3c-2 1-5 2-6 1h-3c-2-1-4-3-7-3"/><path fill="none" d="m533 340 7-2 4-1h11l-2 2-4 3c-2 1-5 2-6 1h-3c-2-1-4-3-7-3z"/><path fill="#090" d="M533 339v-6l1-3 1-4 2-5s3 3 3 5v2l-1 5-1 4c-1 0-4 3-5 2"/><path fill="none" d="M533 339v-6l1-3 1-4 2-5s3 3 3 5v2l-1 5-1 4c-1 0-4 3-5 2z"/><path fill="#090" d="m533 340 3-2 6-2 3-6 1-3-1-3-2-4-2 4-1 2-2 5-1 5c0 1-2 4-4 4"/><path fill="none" d="m533 340 3-2 6-2 3-6 1-3-1-3-2-4-2 4-1 2-2 5-1 5c0 1-2 4-4 4z"/><path fill="#090" d="m551 326 4-1h5l3-3 2-4 4-5s-4-1-7 1l-3 2-5 5-3 5"/><path fill="none" d="m551 326 4-1h5l3-3 2-4 4-5s-4-1-7 1l-3 2-5 5-3 5z"/><path fill="#090" d="m551 326 5-3 5-4 3-4c1-1 1-5 3-6l-5 1c-2 0-4 0-4 2l-2 3-2 4-3 7"/><path fill="none" d="m551 326 5-3 5-4 3-4c1-1 1-5 3-6l-5 1c-2 0-4 0-4 2l-2 3-2 4-3 7z"/><path fill="#090" d="M559 306c-1 1-1-6-1-7l-2-3-1-3v-5l2 1 2 2 1 2 1 3v3l-2 7"/><path fill="none" d="M559 306c-1 1-1-6-1-7l-2-3-1-3v-5l2 1 2 2 1 2 1 3v3l-2 7"/><path fill="#090" d="M558 306v-2l-2-1v-2l-1-2-1-5 2 1 2 2 1 3v4a8 8 0 0 0-1 2"/><path fill="none" d="M558 306v-2l-2-1v-2l-1-2-1-5 2 1 2 2 1 3v4a8 8 0 0 0-1 2z"/><path fill="#090" d="m563 284-1-6-4-5v6l2 2 1 2 2 1"/><path fill="none" d="m563 284-1-6-4-5v6l2 2 1 2 2 1z"/><path fill="#090" d="m563 286-1-4-2-2-2-2-3-3 1 6 2 3 2 1 1 1h2"/><path fill="none" d="m563 286-1-4-2-2-2-2-3-3 1 6 2 3 2 1 1 1h2z"/><path fill="#090" d="M559 306c0 1 0-2 3-2l6-2 2-2 2-3 1-5-3 1-2 1-2 2-2 1-2 4-2 2-1 3"/><path fill="none" d="M559 306c0 1 0-2 3-2l6-2 2-2 2-3 1-5-3 1-2 1-2 2-2 1-2 4-2 2-1 3z"/><path fill="#090" d="m560 305 3-2 3-4 2-4c1 0 2-1 1-3v-5l-1 2-3 2-2 2-1 2-1 3c0 1-2 4-1 7"/><path fill="none" d="m560 305 3-2 3-4 2-4c1 0 2-1 1-3v-5l-1 2-3 2-2 2-1 2-1 3c0 1-2 4-1 7z"/><path fill="#090" d="M563 289c0 1-2-2 1-2l6-4 1-3 1-3-1-5-2 2-2 1-1 3-2 2v4l-2 2 1 3"/><path fill="none" d="M563 289c0 1-2-2 1-2l6-4 1-3 1-3-1-5-2 2-2 1-1 3-2 2v4l-2 2 1 3z"/><path fill="#090" d="m563 288 2-3 2-4 1-4v-4l-1-4-1 3-2 2-1 2v2l-1 3c0 1-1 4 1 7"/><path fill="none" d="m563 288 2-3 2-4 1-4v-4l-1-4-1 3-2 2-1 2v2l-1 3c0 1-1 4 1 7z"/><path fill="#090" d="m560 270-2-1-3-3-2-2-2-5a526 526 0 0 0 6 3l2 2 1 3v3"/><path fill="none" d="m560 270-2-1-3-3-2-2-2-5a525 525 0 0 0 6 3l2 2 1 3v3z"/><path fill="#090" d="m560 269 1-3-1-5-5-4-1 3 2 4 4 5"/><path fill="none" d="m560 269 1-3-1-5-5-4-1 3 2 4 4 5z"/><path fill="#090" d="m561 270 1-3 1-3v-3s-3-3-2-4l-2 3v7l2 3"/><path fill="none" d="m561 270 1-3 1-3v-3s-3-3-2-4l-2 3v7l2 3z"/><path fill="#090" d="m553 255-1-1h-4l-2-2-2-2-1-2h3l5 3 2 4"/><path fill="none" d="m553 255-1-1h-4l-2-2-2-2-1-2h3l5 3 2 4z"/><path fill="#090" d="m553 255-3-2-2-2-2-2v-5l3 2 1 1 1 2c1 1 3 2 2 6"/><path fill="none" d="m553 255-3-2-2-2-2-2v-5l3 2 1 1 1 2c1 1 3 2 2 6z"/><path fill="#090" d="m554 255-3-3-1-2-1-3 1-3 2 1 1 3 1 2v5"/><path fill="none" d="m554 255-3-3-1-2-1-3 1-3 2 1 1 3 1 2v5"/><path fill="#e60000" d="m531 337-1-1h2l-1 1"/><path fill="none" d="m531 337-1-1h2l-1 1"/><path fill="#e60000" d="M536 343h-1l1-1 1 1h-1"/><path fill="none" d="M536 343h-1l1-1 1 1h-1"/><path fill="#e60000" d="M547 324v-2l1 1-1 1"/><path fill="none" d="M547 324v-2l1 1-1 1"/><path fill="#e60000" d="m555 328-1-1 1-1 1 1-1 1"/><path fill="none" d="m555 328-1-1 1-1 1 1-1 1"/><path fill="#e60000" d="m556 306-1-1 1-1 1 1a1 1 0 0 1-1 1"/><path fill="none" d="m556 306-1-1 1-1 1 1a1 1 0 0 1-1 1"/><path fill="#e60000" d="m562 308-1-1 1-1 1 1-1 1"/><path fill="none" d="m562 308-1-1 1-1 1 1-1 1"/><path fill="#e60000" d="m559 288-1-1 1-1 1 1-1 1"/><path fill="none" d="m559 288-1-1 1-1 1 1-1 1"/><path fill="#e60000" d="m564 271-1-1 1-1 1 1-1 1"/><path fill="none" d="m564 271-1-1 1-1 1 1-1 1"/><path fill="#e60000" d="m557 272-1-1 1-1 1 1-1 1"/><path fill="none" d="m557 272-1-1 1-1 1 1-1 1"/><path fill="#e60000" d="M551 257h-1l1-1 1 1a1 1 0 0 1-1 0"/><path fill="none" d="M551 257h-1l1-1 1 1a1 1 0 0 1-1 0"/><path fill="#e60000" d="m556 253-1-1 1-1 1 1-1 1"/><path fill="none" d="m556 253-1-1 1-1 1 1-1 1"/><path fill="#e60000" d="M546 243a1 1 0 0 1-1-1l1-1 1 1-1 1"/><path fill="none" d="M546 243a1 1 0 0 1-1-1l1-1 1 1-1 1"/><path fill="#e60000" d="M567 288h-1l1-1a1 1 0 0 1 0 1"/><path fill="none" d="M567 288h-1l1-1a1 1 0 0 1 0 1m-37 53 1-4h-1m1 5h4v1m13-15v-4l-2-1m5 4h3v1m1-23 1 1 2 4 3-2h1m5-20h-1l-3 3-4-3h-1m6-18-1 1-1 3-4-2h-1m0-19h-1s-2 2-1 4h-5m-4-14h-1m-24 104 11-1m-16 2 9 2h6l5-2m-27 3 6 1 8 2h11m-6-15-5 3-4 3m9-11-8 7-8 7m11-16-6 6-2 3-3 5-4 3m43-21-7 6m9-3-7 5-10 2m-2 2h7l7-1 6-1m-11-18v5c0 1-3 5-2 6l-3 6m-1-16 1 4-2 4-1 4v4l-2 2m35-26-5 3c0 2-1 2-2 2m-10-9-1 6 1 4 1 5m1-19 1 4v10m12-10-5 4-5 6-3 5m19-31-4 4-2 3m-11-6 1 3 1 4 2 3m-3-16 1 4 1 3 1 8m10-15-1 3-3 3-3 7-2 3m11-31-1 3-3 5m-9-7 1 3 1 2 1 2m-6-5 2 4 2 3c1 0 4 2 3 3m5-16-1 4-1 4-1 4-1 3m-11-25 3 3 4 6m-4-11 3 5v2m2-7v7l1 4m-18-20 6 3m-3-7 3 5 1 1m0-7 1 4 2 5"/><path fill="#e60000" d="m472 337 1-1h-1v1"/><path fill="none" d="m472 337 1-1h-1v1"/><path fill="#e60000" d="M467 343h1l-1-1v1"/><path fill="none" d="M467 343h1l-1-1v1"/><path fill="#e60000" d="m456 324 1-1-1-1-1 1 1 1"/><path fill="none" d="m456 324 1-1-1-1-1 1 1 1"/><path fill="#e60000" d="m449 328 1-1a1 1 0 0 0-1-1l-1 1 1 1"/><path fill="none" d="m449 328 1-1a1 1 0 0 0-1-1l-1 1 1 1"/><path fill="#e60000" d="M447 306a1 1 0 0 0 1-1l-1-1-1 1 1 1"/><path fill="none" d="M447 306a1 1 0 0 0 1-1l-1-1-1 1 1 1"/><path fill="#e60000" d="m441 308 1-1-1-1a1 1 0 0 0-1 1l1 1"/><path fill="none" d="m441 308 1-1-1-1a1 1 0 0 0-1 1l1 1"/><path fill="#e60000" d="m444 288 1-1a1 1 0 0 0-1-1l-1 1 1 1"/><path fill="none" d="m444 288 1-1a1 1 0 0 0-1-1l-1 1 1 1"/><path fill="#e60000" d="m439 271 1-1-1-1-1 1 1 1"/><path fill="none" d="m439 271 1-1-1-1-1 1 1 1"/><path fill="#e60000" d="m446 272 1-1-1-1a1 1 0 0 0-1 1l1 1"/><path fill="none" d="m446 272 1-1-1-1a1 1 0 0 0-1 1l1 1"/><path fill="#e60000" d="M453 257h1l-1-1a1 1 0 0 0-1 1h1"/><path fill="none" d="M453 257h1l-1-1a1 1 0 0 0-1 1h1"/><path fill="#e60000" d="m447 253 1-1-1-1a1 1 0 0 0 0 1v1"/><path fill="none" d="m447 253 1-1-1-1a1 1 0 0 0 0 1v1"/><path fill="#e60000" d="m458 243 1-1-1-1-1 1 1 1"/><path fill="none" d="m458 243 1-1-1-1-1 1 1 1"/><path fill="#e60000" d="M437 288h1a1 1 0 0 0-1-1 1 1 0 0 0-1 1h1"/><path fill="none" d="M437 288h1a1 1 0 0 0-1-1 1 1 0 0 0-1 1h1m36 53v-4m-1 5h-4v1m-13-15 1-4 1-1m-5 4h-2l-1 1m-1-23v1l-3 4-3-2h-1m-5-20h1l4 3 3-3h1m-5-18v1l2 3 3-2h1m1-19h1s2 2 0 4h5m4-14h1"/><path fill="#090" d="M519 360h-4l-3-3c0-1-10-6-17-7l-18-6c-11-5-23-14-26-18s-6-14-7-19c0-2-4-12-4-19l2-19 15-26s-11 18-13 26l-3 20c0 5 4 20 9 31 4 8 7 9 13 14l13 9 18 5 17 6 8 6"/><path fill="none" d="M519 360h-4l-3-3c0-1-10-6-17-7l-18-6c-11-5-23-14-26-18s-6-14-7-19c0-2-4-12-4-19l2-19 15-26s-11 18-13 26l-3 20c0 5 4 20 9 31 4 8 7 9 13 14l13 9 18 5 17 6 8 6z"/><path fill="#090" d="m452 326 1-3 2-3v-6l-1-3-2-3v2l-1 3v7a891 891 0 0 0 1 6"/><path fill="none" d="m452 326 1-3 2-3v-6l-1-3-2-3v2l-1 3v7a891 891 0 0 0 1 6"/><path fill="#090" d="m452 324-4-6v-3c-1 0-3-3-1-5l2-3 1-3 1 4v9l1 7"/><path fill="none" d="m452 324-4-6v-3c-1 0-3-3-1-5l2-3 1-3 1 4v9l1 7z"/><path fill="#090" d="M489 347h-4l-3-1-4-3-3-4h3l4 1 3 3 2 1c0 1 0 2 2 3"/><path fill="none" d="M489 347h-4l-3-1-4-3-3-4h3l4 1 3 3 2 1c0 1 0 2 2 3z"/><path fill="#090" d="m493 349-8-3-2-3-5-3-3-5c0-2 5 0 5 0l5 2 2 3 2 5 4 4"/><path fill="none" d="m493 349-8-3-2-3-5-3-3-5c0-2 5 0 5 0l5 2 2 3 2 5 4 4z"/><path fill="#090" d="M497 350s-6-1-9-5l-2-2-4-5-2-6 4 1 4 2c2 1 2 4 3 5l1 4 1 2c0 2 2 1 4 4"/><path fill="none" d="M497 350s-6-1-9-5l-2-2-4-5-2-6 4 1 4 2c2 1 2 4 3 5l1 4 1 2c0 2 2 1 4 4z"/><path fill="#090" d="m488 348-6-2-2-1h-9l2 3 4 1h7l4-1"/><path fill="none" d="m488 348-6-2-2-1h-9l2 3 4 1h7l4-1z"/><path fill="#090" d="m491 348-7-1h-4l-6 1h-6c-1 0 2 4 4 4h11l2-2 6-2"/><path fill="none" d="m491 348-7-1h-4l-6 1h-6c-1 0 2 4 4 4h11l2-2 6-2z"/><path fill="#090" d="M496 351s-6-3-10-2l-4 1-5 1-8 2 6 3h10l4-1 2-2 5-2"/><path fill="none" d="M496 351s-6-3-10-2l-4 1-5 1-8 2 6 3h10l4-1 2-2 5-2"/><path fill="#090" d="m466 338-4-4-3-3-3-2-4-1 1 4 3 2 4 2 2 1 4 1"/><path fill="none" d="m466 338-4-4-3-3-3-2-4-1 1 4 3 2 4 2 2 1 4 1z"/><path fill="#090" d="m469 339-7-4-3-1-5-2-4-1 1 3 4 3 5 2 2-1 7 1"/><path fill="none" d="m469 339-7-4-3-1-5-2-4-1 1 3 4 3 5 2 2-1 7 1z"/><path fill="#090" d="m470 340-7-2-4-1h-11c-1 0 1 2 3 2l3 3c3 1 5 2 6 1h3c2-1 4-3 7-3"/><path fill="none" d="m470 340-7-2-4-1h-11c-1 0 1 2 3 2l3 3c3 1 5 2 6 1h3c2-1 4-3 7-3z"/><path fill="#090" d="M471 339v-6l-2-3-1-4-2-5s-3 3-2 5v2c-1 1 0 4 1 5l1 4 4 2"/><path fill="none" d="M471 339v-6l-2-3-1-4-2-5s-3 3-2 5v2c-1 1 0 4 1 5l1 4 4 2z"/><path fill="#090" d="m470 340-3-2-5-2-4-6-1-3 1-3 3-4 1 4 1 2 2 5 1 5 4 4"/><path fill="none" d="m470 340-3-2-5-2-4-6-1-3 1-3 3-4 1 4 1 2 2 5 1 5 4 4z"/><path fill="#090" d="m452 326-3-1h-6l-3-3-2-4c0-2-4-5-4-5s4-1 7 1l3 2 6 5 2 5"/><path fill="none" d="m452 326-3-1h-6l-3-3-2-4c0-2-4-5-4-5s4-1 7 1l3 2 6 5 2 5z"/><path fill="#090" d="m452 326-5-3-5-4-2-4-3-6 4 1c2 0 4 0 5 2 0 2 1 3 2 3l1 4 3 7"/><path fill="none" d="m452 326-5-3-5-4-2-4-3-6 4 1c2 0 4 0 5 2 0 2 1 3 2 3l1 4 3 7z"/><path fill="#090" d="m445 306 1-7 1-3 1-3v-5l-2 1-2 2-1 2-1 3 1 3 2 7"/><path fill="none" d="m445 306 1-7 1-3 1-3v-5l-2 1-2 2-1 2-1 3 1 3 2 7"/><path fill="#090" d="M445 306v-2l2-1 1-2 1-2v-5l-2 1-2 2-1 3v4l1 2"/><path fill="none" d="M445 306v-2l2-1 1-2 1-2v-5l-2 1-2 2-1 3v4l1 2z"/><path fill="#090" d="m441 284 1-6c1-1 1-3 4-5v6l-2 2-2 2-1 1"/><path fill="none" d="m441 284 1-6c1-1 1-3 4-5v6l-2 2-2 2-1 1z"/><path fill="#090" d="m441 286 1-4 1-2 2-2 3-3v6c-1 2-1 3-3 3l-1 1-2 1h-1"/><path fill="none" d="m441 286 1-4 1-2 2-2 3-3v6c-1 2-1 3-3 3l-1 1-2 1h-1z"/><path fill="#090" d="M444 306c0 1 1-2-2-2l-7-2-2-2-2-3v-5l2 1 3 1 1 2 3 1 1 4 2 2 1 3"/><path fill="none" d="M444 306c0 1 1-2-2-2l-7-2-2-2-2-3v-5l2 1 3 1 1 2 3 1 1 4 2 2 1 3z"/><path fill="#090" d="m444 305-3-2-4-4-2-4-1-3v-5l1 2 3 2c1 0 2 0 2 2l1 2 1 3 2 7"/><path fill="none" d="m444 305-3-2-4-4-2-4-1-3v-5l1 2 3 2c1 0 2 0 2 2l1 2 1 3 2 7z"/><path fill="#090" d="M441 289c0 1 1-2-2-2-3-1-5-3-5-4l-1-3-1-3v-5l2 2 2 1 1 3 2 2 1 4 1 2v3"/><path fill="none" d="M441 289c0 1 1-2-2-2-3-1-5-3-5-4l-1-3-1-3v-5l2 2 2 1 1 3 2 2 1 4 1 2v3z"/><path fill="#090" d="m441 288-2-3-3-4-1-4v-4l2-4 1 3 1 2 2 2v12"/><path fill="none" d="m441 288-2-3-3-4-1-4v-4l2-4 1 3 1 2 2 2v12z"/><path fill="#090" d="m443 270 2-1 3-3 2-2 2-5-3 1-3 2-2 2-1 3v3"/><path fill="none" d="m443 270 2-1 3-3 2-2 2-5-3 1-3 2-2 2-1 3v3z"/><path fill="#090" d="M443 269v-3c0-1-1-3 1-5l5-4v3l-2 4-4 5"/><path fill="none" d="M443 269v-3c0-1-1-3 1-5l5-4v3l-2 4-4 5"/><path fill="#090" d="m442 270-1-3-1-3 1-3 2-4 1 3v3l1 4-3 3"/><path fill="none" d="m442 270-1-3-1-3 1-3 2-4 1 3v3l1 4-3 3z"/><path fill="#090" d="m450 255 1-1h4l2-2 2-2 2-2h-4l-4 3-3 4"/><path fill="none" d="m450 255 1-1h4l2-2 2-2 2-2h-4l-4 3-3 4z"/><path fill="#090" d="M450 255c1 1 3-1 4-2a155 155 0 0 0 1-2l2-2v-5l-2 2-2 1-1 2c0 1-3 2-2 6"/><path fill="none" d="M450 255c1 1 3-1 4-2a155 155 0 0 0 1-2l2-2v-5l-2 2-2 1-1 2c0 1-3 2-2 6"/><path fill="#090" d="m450 255 2-3 1-2c1-1 2-2 1-3v-3l-2 1-1 3-2 2 1 3v2"/><path fill="none" d="m450 255 2-3 1-2c1-1 2-2 1-3v-3l-2 1-1 3-2 2 1 3v2z"/><path fill="none" d="m482 347-11-1m17 2-10 2h-6l-4-2m26 3-6 1-7 2h-11m6-15 4 3 4 3m-8-11 7 7 8 7m-10-16 5 6 2 3 3 5 4 3m-43-21 7 6m-9-3 8 5 9 2m2 2h-7l-6-1-7-1m11-18v5l3 6 2 6m1-16v4l1 4 1 4v4l2 2m-35-26 5 3 2 2m10-9 1 6v4l-1 5m-2-19v4l-1 4v6m-12-10 5 4 5 6 4 5m-20-31 4 4 3 3m11-6-2 3-1 4-1 3m3-16-1 4-1 3-2 8m-10-15 2 3 2 3 3 7 2 3m-10-31v3l3 5m9-7v3l-2 2v2m5-5-2 4-2 3-3 3m-4-16v4l2 4v4l1 3m12-25-3 3-5 6m4-11-2 5-1 2m-2-7v7l-1 4m18-20-5 3m2-7-3 5-1 1m1-7-2 4-2 5"/><path fill="#004bb3" d="M501 348s1-2 2 0l1 4h-3v-4"/><path fill="#004bb3" d="m503 347 1-6c1 0 4-2 6-1 1 2 0 8-1 9 0 0-1 2-5 2v-2l3-1 1-1-1-5h-2l-2 6v-1m-2 5s-6 3-3 9l-2-2v4s-4-4-1-9c3-4 6-4 6-4v2"/><path fill="none" d="M501 352s-6 3-3 9l-2-2v4s-4-4-1-9c3-4 6-4 6-4v2"/><path fill="#004bb3" d="M501 349s-3-2-6-1c0 0-2-5-1-7v-1s-1-1-1 4l2 7 6-1v-1"/><path fill="none" d="M501 349s-3-2-6-1c0 0-2-5-1-7v-1s-1-1-1 4l2 7 6-1v-1z"/><path fill="#004bb3" d="M501 349s-5-9-7-9l2-1c2 0 3 0 4 2l2 6-1 2"/><path fill="none" d="M501 349s-5-9-7-9l2-1c2 0 3 0 4 2l2 6-1 2z"/><path fill="#003" d="m501 349-4-2-1-5-2-2-1 3 2 5s2-1 6 1"/><path fill="none" d="m501 349-4-2-1-5-2-2-1 3 2 5s2-1 6 1z"/><path fill="#004bb3" d="M504 352s2 1 2 3 1 6 3 7l1-2 2 2-1-2-2-5c0-1-2-3-5-4v1"/><path fill="none" d="M504 352s2 1 2 3 1 6 3 7l1-2 2 2-1-2-2-5c0-1-2-3-5-4v1z"/><path fill="#003" d="m505 341-2 7 1 1 1-1 1-6h-1"/><path fill="none" d="m505 341-2 7 1 1 1-1 1-6h-1z"/><path fill="#00004b" d="m501 351-4 3 4-3m3 0 3 2-3-1v-1m-3-2-5 1h5v-1m7-2 1 2 1-6-1-2-1 3v3m-5 1 1 4c-2 0 0 0 0-3l-2-2 1 1"/><path fill="none" d="M501 348s1-2 2 0l1 4h-3v-4zm2-1 1-6c1 0 4-2 6-1 1 2 0 8-1 9 0 0-1 2-5 2v-2l3-1 1-1-1-5h-2l-2 6v-1z"/><path fill="#004bb3" d="m497 241-1-9 4-11 1-1v-1l2 4-1 5-2 5v2l-3 6"/><path fill="#fff" d="M502 232v1l1-5v-5l-1 5-2 5v2l2-3"/><path fill="#004bb3" d="m502 233 2-5v7l-2-2"/><path fill="none" d="M504 235v-7l-1-5-2-4v1l-1 1-4 11 1 9"/><path fill="#fc0" d="m502 219-1-1 1 1 2 1-1 2-1-2v-1"/><path fill="none" d="m502 219-1-1 1 1 2 1-1 2-1-2v-1z"/><path fill="none" d="M502 219h1l1 2m-2-2 2 2"/><path fill="#fc0" d="m501 219 1-1v1l-1 3-2-1 1-2h1"/><path fill="none" d="m501 219 1-1v1l-1 3-2-1 1-2h1z"/><path fill="none" d="m502 218-1 1v2m0-2-1 2"/><path fill="#fc0" d="m502 218 2-1 1 1h-3l2 1 1-1-1-1-2 1"/><path fill="none" d="m502 218 2-1 1 1h-3l2 1 1-1-1-1-2 1z"/><path fill="#fc0" d="m502 218-3-1v1h3-1l-1 1-2-1 2-1 2 1"/><path fill="none" d="m502 218-3-1v1h3-1l-1 1-2-1 2-1 2 1z"/><path fill="#fc0" d="M502 218h-1 1"/><path fill="none" d="M502 218h-1 1"/><path fill="#fc0" d="m502 212 1 4-1 2-2-2 2-4"/><path fill="none" d="m502 212 1 4-1 2-2-2 2-4m0 2v2h-1l1-2"/><path fill="#fff" d="m529 277 3-12-1-17-7 9v5l-1 5 6 10"/><path fill="#004bb3" d="m523 267 1-5v-5l-5 5 4 5m18 7v-18c0-4-2-9-1-14v-3l-9 9 1 17-3 12 1 3 11-6"/><path fill="#fc0" d="m518 261 21-23h1l-21 24-1-1"/><path fill="none" d="m518 261 21-23h1l-21 24-1-1zm21-17s-2 15-7 14"/><path fill="none" d="M532 258c3 0 4-3 5-7 2-3 2-7 2-7"/><path fill="none" d="M532 258c3 0 4-4 5-7 2-3 2-7 2-7"/><path fill="none" d="M532 258c3 0 4-4 5-7l2-7"/><path fill="none" d="M532 258c3 0 4-4 5-7l2-7"/><path fill="none" d="M532 258c2-1 4-5 5-7l2-7"/><path fill="none" d="M532 258c2-1 4-5 5-7l2-7"/><path fill="none" d="M532 258c2-1 4-5 5-7l2-7"/><path fill="none" d="M532 258c2-1 4-5 5-7l2-7"/><path fill="none" d="m532 258 5-7 2-7"/><path fill="none" d="m532 258 5-7 2-7"/><path fill="none" d="m532 258 5-7 2-7"/><path fill="none" d="m532 258 5-8 2-6"/><path fill="none" d="m539 244-2 6-5 8m7-17s-5 12-8 10"/><path fill="none" d="M531 251c1 1 3-1 5-4l3-6"/><path fill="none" d="M531 251c1 1 3-1 5-4l3-6"/><path fill="none" d="M531 251c1 1 3-1 5-4l3-6"/><path fill="none" d="M531 251c1 0 3-1 5-4l3-6"/><path fill="none" d="m531 251 5-5 3-5"/><path fill="none" d="m531 251 5-5 3-5"/><path fill="none" d="m531 251 5-5 3-5"/><path fill="none" d="m531 251 5-5 3-5"/><path fill="none" d="m539 241-3 5-5 5m-7 8-4 2m3 2-3-1m4-3-4 2m4-2-5 2m5-1-5 1m5-1-5 1m5-1-5 1m5-1-5 1m5-1-5 1m5-1-5 1m5 0h-5m4 2-4-1m4 0h-4m4 0h-4m4 0h-4m4 0h-4m4 0h-4m4-1-4 1m4-1-4 1m4-1-4 1m4-1-4 1"/><path fill="none" d="M541 274v-18c0-4-2-9-1-14v-3l-21 23"/><path fill="none" d="m541 262-1 4-7 7"/><path fill="none" d="m533 273 5-5 2-2 1-4"/><path fill="none" d="m533 273 5-5 2-2 1-4"/><path fill="none" d="m533 273 5-5 1-2 2-4"/><path fill="none" d="m532 273 6-5 1-2 2-4"/><path fill="none" d="m532 273 6-5 1-2 2-4"/><path fill="none" d="m532 273 5-5 2-2 2-5"/><path fill="none" d="m532 273 5-5a16 16 0 0 0 2-2l2-5"/><path fill="none" d="m532 273 5-5 2-2 2-5"/><path fill="none" d="m532 273 5-5 2-3 2-4"/><path fill="none" d="m532 273 5-5 1-3 3-4"/><path fill="none" d="m532 273 5-5 1-3 3-4"/><path fill="none" d="m532 273 5-5 1-3 3-4"/><path fill="none" d="m541 261-4 6-5 6m9 1-10 6-2-3 1-2"/><path fill="none" d="m540 274-9 6h-1l-1-3v-1l1-1"/><path fill="none" d="m540 274-9 6h-1l-1-3v-1l1-1"/><path fill="none" d="m540 274-9 6h-1l-1-3v-1l1-1"/><path fill="none" d="m540 274-9 6h-1l-1-3v-1l1-1"/><path fill="none" d="m540 274-9 6-1-1-1-2v-1l1-1"/><path fill="none" d="m540 274-9 5h-1l-1-2v-1l1-1"/><path fill="none" d="m540 274-9 5h-1l-1-3 1-1"/><path fill="none" d="m540 274-9 5h-1v-3s-1 0 0 0v-1"/><path fill="none" d="m540 274-9 5h-1v-3s-1 0 0 0v-1"/><path fill="none" d="m540 274-9 5h-1v-4"/><path fill="none" d="m540 274-9 5h-1v-4"/><path fill="none" d="m540 274-9 5h-1v-4"/><path fill="none" d="m540 274-10 5v-4"/><path fill="none" d="m540 274-10 5v-4"/><path fill="none" d="m540 273-10 5v-3"/><path fill="none" d="m540 273-10 5v-3"/><path fill="none" d="m540 273-10 5v-3"/><path fill="none" d="m540 273-10 5 1-3h-1"/><path fill="none" d="m540 273-10 5 1-3h-1"/><path fill="none" d="m540 273-10 5 1-3h-1"/><path fill="none" d="m540 273-10 5v-1l1-2h-1"/><path fill="none" d="m540 273-10 5v-1l1-2h-1"/><path fill="none" d="M540 273c-1 1-7 5-10 4l1-2h-1c1 0 0 0 0 0"/><path fill="none" d="M540 273c0 1-7 5-10 4l1-2s-1 0 0 0h-1"/><path fill="none" d="M540 273c0 1-7 5-10 4l1-3v1h-1"/><path fill="none" d="M540 273c0 1-8 5-10 4l1-3v1h-1"/><path fill="none" d="M540 273s-8 5-10 4l1-3s0 1 0 0l-1 1"/><path fill="none" d="M540 273s-8 5-10 4l2-3h-1l-1 1"/><path fill="none" d="M540 273s-8 5-10 4v-1l2-2h-1l-1 1"/><path fill="none" d="M540 273s-8 5-10 4v-1l2-2h-1l-1 1"/><path fill="none" d="M540 273s-9 6-10 3l2-2h-1l-1 1"/><path fill="#fc0" d="m539 238-1-2h-1l1 2h1-2l-1-2h2l2 2h-1"/><path fill="none" d="m539 238-1-2h-1l1 2h1-2l-1-2h2l2 2h-1z"/><path fill="#fc0" d="m540 238 2 1v1l-2-1v-1h-1 1v2h2v-2h-3 1"/><path fill="none" d="m540 238 2 1v1l-2-1v-1h-1 1v2h2v-2h-3 1z"/><path fill="#fc0" d="m540 238-1 1v-1h1"/><path fill="none" d="m540 238-1 1v-1h1"/><path fill="#fc0" d="m544 234-4 2v2l2-1 2-3"/><path fill="none" d="m544 234-4 2v2l2-1 2-3z"/><path fill="none" d="m542 235-2 1v1h1l1-2z"/><path fill="#fc0" d="m540 240-1-1v3h2v-1l-1-1"/><path fill="none" d="m540 240-1-1v3h2v-1l-1-1z"/><path fill="none" d="M539 239v3m0-2 1 2h-1m1-1v1"/><path fill="#fff" d="M502 327h-1l-1-1v-4l2-8 1 8v4l-1 1"/><path fill="#004bb3" d="m502 314 1 8v4h2v-1h1l1-1v-3l-1-2v-1h-1l-1-1-1-1v-2h-1"/><path fill="none" d="m502 314 2 5c1 1 3 3 1 6"/><path fill="none" d="m502 314 2 5c0 1 3 3 1 6"/><path fill="none" d="m502 314 2 5c0 1 3 3 1 6"/><path fill="none" d="m502 314 2 5c0 1 2 3 1 6"/><path fill="none" d="m502 314 2 5c0 1 2 4 1 7"/><path fill="none" d="m502 314 1 6c1 1 3 3 2 6"/><path fill="none" d="m502 314 2 5c1 1 3 3 1 6"/><path fill="none" d="m503 314 1 5c1 1 3 3 2 6"/><path fill="none" d="m503 314 1 5c1 1 3 3 2 6"/><path fill="none" d="m503 314 1 5c1 1 3 3 2 6"/><path fill="none" d="m503 314 2 5c0 1 2 3 1 6"/><path fill="#004bb3" d="m502 314-2 8v4h-1a2 2 0 0 0-1-1h-1l-1-1v-2l1-1v-2h1v-1h1v-1l1-1v-2h2"/><path fill="none" d="m501 314-2 5c0 1-2 3-1 6"/><path fill="none" d="m501 314-1 5c-1 1-3 3-2 6"/><path fill="none" d="m501 314-1 5c-1 1-3 3-2 6"/><path fill="none" d="m501 314-1 5c-1 1-3 3-1 6"/><path fill="none" d="m501 314-1 5c-1 1-3 4-1 7"/><path fill="none" d="m501 314-1 6c-1 1-3 3-1 6"/><path fill="none" d="m501 314-2 5c0 1-3 3-1 6"/><path fill="none" d="m501 314-2 5c0 1-3 3-1 6"/><path fill="none" d="m501 314-2 5c0 1-3 3-1 6"/><path fill="none" d="m501 314-2 5c-1 1-3 3-1 6"/><path fill="none" d="m500 314-1 5c-1 1-3 3-1 6"/><path fill="none" d="m498 318-1 1v1l-1 1v2l1 2h2v1h2l1 1v-1h2l1-1h1l1-2v-1a3 3 0 0 0 0-1 6 6 0 0 0 0-1l-1-1-1-1"/><path fill="#fff" d="m544 273-8 5v5l-2 4 7 11c2-3 3-9 3-10v-15z"/><path fill="#004bb3" d="m534 287 2-4v-5l-5 3 3 6"/><path fill="#fc0" d="m531 280 23-15v1l-23 15v-1"/><path fill="none" d="m531 280 23-15v1l-23 15v-1"/><path fill="#004bb3" d="m548 311 2-3 1-3 1-3 1-6 2-13-1-13v-4l-10 7v15c0 1-1 7-3 10l7 13"/><path fill="none" d="m541 298 8 12 1-2 1-3 1-3 2-6m0-1-2 6-1 4-1 3-1 2-8-12"/><path fill="none" d="m554 295-2 6-1 4-1 3-1 2-8-12m13-3-2 6-1 4-1 3-1 2-8-12"/><path fill="none" d="m554 295-2 6-1 3-1 4-1 2-8-12m13-3-2 6-1 3-1 4-1 2-8-12"/><path fill="none" d="m554 295-2 6-1 3-1 4-1 2-8-12m13-3-2 6-1 3-1 4-1 2-8-12"/><path fill="none" d="m554 295-2 6-1 3-1 3-1 2-8-11m13-3-2 6-1 3-1 3-1 2-8-11m13-3-2 6-1 3-1 3-1 2-8-11"/><path fill="none" d="m554 295-2 6-1 3-1 3-1 2-8-11m13-3-2 6-1 3-1 3-1 2-8-11"/><path fill="none" d="m554 295-2 6-1 3-1 3-1 2-8-11m13-3-2 6-1 3-1 3-1 2-8-11"/><path fill="none" d="m554 295-2 6-1 3-1 3-1 1c-1 1-7-10-8-10m13-3-2 6-1 2-1 3-1 2-8-10"/><path fill="none" d="m554 295-2 6-1 2-1 3-1 2-8-10m13-3-2 5-1 3-1 3-1 2-8-10m13-3-2 5-1 3-1 3-1 2-8-10"/><path fill="none" d="m554 295-2 5-1 3-1 3-1 2-8-10m13-3-2 5-1 3-1 3-1 2-8-10"/><path fill="none" d="m554 295-2 5-1 3-1 3-1 1c-1 1-7-9-8-9m13-3-2 5-1 3-1 3-1 1-8-9"/><path fill="none" d="m554 295-2 5-1 3-1 2-1 2-8-9m13-3-2 5-1 3-1 2-1 2-8-9"/><path fill="none" d="m554 295-2 5-1 3-1 2-1 2-8-9m13-3-2 5-1 3-1 2-2 2-7-9m13-3-2 5-1 2-1 3-2 2-7-9"/><path fill="none" d="m554 295-2 5-1 2-1 3-2 1-7-8m13-3-2 5-1 2-1 3-2 1-7-8"/><path fill="none" d="m554 295-2 5-1 2-1 3-2 1-7-8m13-3-2 5-1 2-1 3-2 1-7-8"/><path fill="none" d="m554 295-2 5-1 2-1 2-2 2-7-8m13-3-2 5-1 2-1 2-2 2-7-8"/><path fill="none" d="m554 295-2 4-1 3-1 2-2 2-7-8m13-3-2 4-1 3-1 2-2 2-7-8m13-3-2 4-1 3-1 2-2 1-7-7"/><path fill="none" d="m554 295-2 4-1 3-1 2-2 1-7-7m13-3-2 4-1 2-1 3-2 1-7-7"/><path fill="none" d="m554 295-2 4-1 2-1 3-2 1-7-7m13-3-2 4-1 2-1 2-2 2-7-7"/><path fill="none" d="m554 295-2 4-1 2-1 2-2 2-7-7m13-3-2 4-1 2-1 2-2 2-7-7"/><path fill="none" d="m554 295-2 4-1 2-1 2-2 1c-1 1-6-5-7-6m13-3-2 4-1 2-1 2-2 1c-1 1-6-5-7-6m13-3-2 4-1 2-1 2-2 1-7-6"/><path fill="none" d="m554 295-2 4-1 2-1 2-2 1-7-6m13-3-2 4-1 2-1 2-2 1-7-6"/><path fill="none" d="m554 295-2 4-1 2-1 2-2 1-7-6m13-3-2 4-1 1-1 2-2 2-7-6"/><path fill="none" d="m554 295-2 4-1 1-1 2-2 1c-1 1-5-4-7-5m13-3-2 4-1 1-1 2-2 1c-1 1-5-4-7-5"/><path fill="none" d="m554 295-2 3-1 2-1 2-2 1c-1 1-5-4-7-5m13-3-2 3-1 2-1 2-2 1-7-5m13-3-2 3-1 2-1 2-2 1-7-5"/><path fill="none" d="m554 295-2 3-1 2-1 2-2 1-7-5m13-3-2 3a17 17 0 0 1-1 2l-1 2-2 1-7-5"/><path fill="none" d="m554 295-2 3-1 2-1 1-2 1c-1 1-5-3-7-4m13-3-2 3-1 2-1 1a6 6 0 0 1-2 1c-1 1-5-3-7-4"/><path fill="none" d="m554 295-2 3-1 2-1 1-2 1c-1 1-5-3-7-4m13-3-2 3-1 2-1 1-2 1-7-4"/><path fill="none" d="m554 295-2 3-1 1-1 2-2 1-7-4m13-3-2 3-1 1-1 2-2 1-7-4m13-3-2 3-1 1-1 2-2 1-7-4"/><path fill="none" d="m554 295-2 3-1 1-1 2-2 1-7-4m13-3-2 3-1 1-1 2h-2c-1 1-5-2-7-3"/><path fill="none" d="m554 295-2 3-1 1-1 1-2 1c-1 1-5-2-7-3m13-3-2 3-1 1-1 1-2 1c-1 1-5-2-7-3"/><path fill="none" d="m554 295-2 3a8 8 0 0 1-1 1l-1 1-2 1-7-3m13-3-2 2-1 2-1 1-2 1-7-3"/><path fill="none" d="m554 295-2 2-1 2-1 1-2 1-7-3m13-3-2 2-1 2-1 1-2 1-7-3m13-3-2 2a7 7 0 0 1-1 1l-1 2h-2c-1 1-5-1-7-2"/><path fill="none" d="m554 295-2 2-1 1-1 2h-2c-1 1-5-1-7-2m13-3-2 2-1 1-1 1-2 1c-1 1-5-1-7-2"/><path fill="none" d="m554 295-2 2a11 11 0 0 1-1 1l-1 1a8 8 0 0 1-2 1c-1 1-5-1-7-2m13-3-2 2a7 7 0 0 1-1 1l-1 1-2 1-7-2"/><path fill="none" d="m554 295-2 2-1 1-1 1-2 1-7-2m13-3-2 2a16 16 0 0 1-1 1l-2 1-1 1-7-2"/><path fill="none" d="m554 295-2 2-1 1-2 1h-1c-2 1-5 0-7-1m13-3-2 2-1 1-2 1h-1c-2 1-5 0-7-1m13-3-2 2-1 1-2 1h-1c-2 1-5 0-7-1"/><path fill="none" d="m554 295-2 2-1 1h-2l-1 1c-2 1-5 0-7-1m13-3-2 2h-1l-2 1-1 1-7-1"/><path fill="none" d="m554 295-2 2h-1l-2 1-1 1-7-1m13-3-2 2h-1l-2 1-1 1-7-1"/><path fill="none" d="m554 295-2 2h-1l-2 1h-8m13-3-2 1-1 1-2 1h-8"/><path fill="none" d="m554 295-2 1-1 1-2 1h-8m13-3s-7 5-13 3m13-22-2 9c0 1-3 5-7 6"/><path fill="none" d="m554 276-2 9c0 1-3 5-7 6"/><path fill="none" d="m554 276-2 9c-1 1-3 5-7 6"/><path fill="none" d="m554 276-2 9c-1 1-3 5-7 6"/><path fill="none" d="m554 276-2 9c-1 1-3 4-7 6"/><path fill="none" d="m554 276-2 9c-1 1-3 4-7 6"/><path fill="none" d="m554 276-2 9c-1 1-2 4-7 6"/><path fill="none" d="m554 276-3 8c0 2-1 4-6 7"/><path fill="none" d="m554 276-3 8c0 1-1 4-6 7"/><path fill="none" d="m554 276-3 8c0 1-1 4-6 7"/><path fill="none" d="m554 276-3 8c0 1-1 3-6 7"/><path fill="none" d="m554 276-3 8c-1 1-1 3-6 7"/><path fill="none" d="m554 276-3 8c-1 1-1 3-6 7m8-20s-1 11-9 14"/><path fill="none" d="m553 271-2 7c-1 3-3 6-7 7"/><path fill="none" d="m553 271-2 7c-1 2-3 6-7 7"/><path fill="none" d="M553 271s0 4-2 7c-1 2-3 5-7 7"/><path fill="none" d="m553 271-2 7c-1 2-3 5-7 7"/><path fill="none" d="m553 271-2 7c-1 2-3 5-7 7"/><path fill="none" d="m553 271-2 7c-1 2-3 5-7 7"/><path fill="none" d="m553 271-2 7c-1 1-3 5-7 7"/><path fill="none" d="m553 271-2 7c-1 1-3 5-7 7"/><path fill="none" d="m553 271-3 7c0 1-2 5-6 7"/><path fill="none" d="m553 271-3 7c0 1-2 5-6 7"/><path fill="none" d="M553 271s-1 5-3 6c0 1-2 5-6 8"/><path fill="none" d="m553 271-3 6c0 1-2 5-6 8m9-17s-2 9-9 11"/><path fill="none" d="m553 268-3 6c-1 2-3 4-6 5"/><path fill="none" d="m553 268-3 6c-1 2-3 4-6 5"/><path fill="none" d="m553 268-3 6-6 5"/><path fill="none" d="m553 268-3 6-6 5"/><path fill="none" d="m553 268-3 6-6 5"/><path fill="none" d="m553 268-3 6c-2 2-4 5-6 5"/><path fill="none" d="m553 268-3 6c-2 2-4 5-6 5"/><path fill="none" d="m553 268-3 6-6 5"/><path fill="none" d="m553 268-3 6-6 5"/><path fill="none" d="m553 268-3 5-6 6"/><path fill="none" d="m553 268-3 5-6 6"/><path fill="none" d="m553 268-4 5c-1 3-4 6-5 6"/><path fill="none" d="m553 268-4 5-5 6"/><path fill="none" d="m553 267-4 6-5 6m-8 1-5 1m4 3-4-2m5-2-4 1m4-1-5 1m5 0h-5m5 0h-5m5 0h-5m5 0h-5m5 0h-5m5 0h-5m5 1-5-1m5 2-5-1m5 1-5-1m5 1-5-1m5 1-5-1m5 1-5-2m5 1-5-1m5 1-5-1m5 1-5-1m5 1-5-1m5 1-5-1"/><path fill="none" d="m548 311 2-3 1-3 1-3 1-6 2-13-1-13v-4l-23 15"/><path fill="#fc0" d="m554 265-1-2h-1l1 2h1l-2-1v-1h2v2"/><path fill="none" d="m554 265-1-2h-1l1 2h1l-2-1v-1h2v2z"/><path fill="#fc0" d="m555 265 2 1v1l-1 1-1-2v-1h-1v1l1 1 1 1 1-2-3-1h1"/><path fill="none" d="m555 265 2 1v1l-1 1-1-2v-1h-1v1l1 1 1 1 1-2-3-1h1"/><path fill="#fc0" d="M555 265v1h-1v-1h1"/><path fill="none" d="M555 265v1h-1v-1h1z"/><path fill="#fc0" d="m560 262-5 1v2h2l3-3"/><path fill="none" d="m560 262-5 1v2h2l3-3z"/><path fill="none" d="M558 263h-2v1h1l1-1z"/><path fill="#fc0" d="m555 267-1-1v1l-1 2h2v-2"/><path fill="none" d="m555 267-1-1v1l-1 2h2v-2z"/><path fill="none" d="M554 266v1l-1 2m1-2v3l-1-1m1-1v2"/><path fill="#004bb3" d="m532 314-6 3-6 2h-6l-2-1-3-1-3-1-1-2h-2l1 2v1l1 1h1l1 1 4 1 2 1h2l2 1h9l5-1 7-3 1-1 5-3h-12"/><path fill="#fff" d="m519 314-6 3h-4l3 1 2 1h6l6-2 6-3h-14"/><path fill="#004bb3" d="M519 314h-14l1 2 3 1h4c4-1 4-2 5-3"/><path fill="none" d="M532 314h12m-12 0h12m-12 0 2 1 10-1"/><path fill="none" d="m532 314 2 1 10-1"/><path fill="none" d="m532 314 2 1 10-1"/><path fill="none" d="m532 314 2 1 10-1"/><path fill="none" d="m532 314 2 1h9"/><path fill="none" d="m532 314 2 1h9m-11 0h11m-11 0 3 1 8-1"/><path fill="none" d="m532 315 3 1 8-1m1-1h-12"/><path fill="none" d="m543 315-8 1-4-1m-1 5h-10m10 0h-9m9-1-5 1h-4"/><path fill="none" d="m531 319-6 1h-4"/><path fill="none" d="m531 319-6 1h-4"/><path fill="none" d="m531 319-6 1h-2l-1-1"/><path fill="none" d="m531 319-6 1h-2l-1-1"/><path fill="none" d="m532 319-7 1h-2l-1-1m8 1h-10"/><path fill="none" d="m532 319-7 1-3-1m-11 0-5-1c-2-1-2-4-2-4m7 5-3-2c-4-1-3-3-3-3"/><path fill="none" d="m511 319-3-2h-2l-1-2v-1"/><path fill="none" d="m511 319-3-1-2-1-1-1-1-2"/><path fill="none" d="m512 319-4-1-2-1-1-1-1-2"/><path fill="none" d="m512 319-4-1-2-1-1-1-1-2"/><path fill="none" d="m511 319-4-1-3-2v-2"/><path fill="none" d="m511 319-5-1-1-2-1-2"/><path fill="none" d="m512 320-6-2-1-2-1-2"/><path fill="none" d="m512 320-6-3-1-1-1-2"/><path fill="none" d="m512 320-6-3-1-1-1-2m1 0h13m-13 0h13m-13 0 3 1 10-1"/><path fill="none" d="m505 314 3 1 10-1"/><path fill="none" d="m505 314 3 1 10-1"/><path fill="none" d="m505 314 3 1 10-1"/><path fill="none" d="m505 314 3 1h10"/><path fill="none" d="m505 314 3 1h10m-13 0h12m-12 0 3 1 9-1"/><path fill="none" d="m505 315 3 1 9-1m1-1h-13"/><path fill="none" d="m517 315-8 1-4-1"/><path fill="none" d="m503 314 1 2v1h1l1 1 1 1 4 1 2 1h2l2 1h9l5-1c1-2 5-2 7-3l1-1 5-3"/><path fill="#fff" d="M475 277c-2-3-3-11-3-12l1-17 7 9v5l1 5-6 10"/><path fill="#004bb3" d="m481 267-1-5v-5l4 5-3 5m-18 7-1-4v-14l2-14v-3l9 9-1 17c0 1 1 9 3 12l-2 3-10-6"/><path fill="#fc0" d="m485 261-21-23 20 24 1-1"/><path fill="none" d="m485 261-21-23 20 24 1-1m-21-17s2 15 8 14"/><path fill="none" d="M472 258c-3 0-5-3-6-7l-2-7"/><path fill="none" d="M472 258c-3 0-5-4-6-7l-2-7"/><path fill="none" d="M472 258c-3 0-5-4-6-7l-2-7"/><path fill="none" d="M472 258c-3 0-5-4-6-7l-2-7"/><path fill="none" d="M472 258c-3-1-5-5-6-7l-2-7"/><path fill="none" d="M472 258c-3-1-5-5-6-7l-2-7"/><path fill="none" d="M472 258c-3-1-5-5-6-7l-2-7"/><path fill="none" d="M472 258c-3-1-5-5-6-7l-2-7"/><path fill="none" d="m472 258-6-7-2-7"/><path fill="none" d="m472 258-6-7-2-7"/><path fill="none" d="m472 258-6-7-2-7"/><path fill="none" d="M472 258c-3-2-5-7-6-8l-2-6"/><path fill="none" d="m464 244 3 6 5 8m-8-17s5 12 8 10"/><path fill="none" d="M472 251c-1 1-3-1-5-4l-3-6"/><path fill="none" d="M472 251c-1 1-3-1-5-4a77 77 0 0 1-3-6"/><path fill="none" d="M472 251c-1 1-3-1-5-4l-2-6"/><path fill="none" d="M472 251c-1 0-3-1-4-4l-3-6"/><path fill="none" d="M472 251s-3-2-4-5l-3-5"/><path fill="none" d="M472 251s-3-2-4-5l-3-5"/><path fill="none" d="M472 251s-3-2-4-5l-3-5"/><path fill="none" d="M472 251s-3-2-4-5l-3-5"/><path fill="none" d="m465 241 3 5 4 5m8 8 4 2m-4 2 4-1m-4-3 4 2m-4-2 4 2m-4-1 4 1m-4-1 4 1m-4-1 4 1m-4-1 4 1m-4-1 4 1m-4-1 4 1m-4 0h4m-4 2 4-1m-4 0h4m-4 0h4m-4 0h4m-4 0h4m-4 0h4m-4-1 4 1m-4-1 4 1m-4-1 4 1m-4-1 4 1"/><path fill="none" d="m463 274-1-3v-15l2-14v-3l20 23"/><path fill="none" d="m463 262 1 4c0 2 3 5 7 7"/><path fill="none" d="M471 273a28 28 0 0 1-7-7l-1-4"/><path fill="none" d="M471 273a28 28 0 0 1-7-7l-1-4"/><path fill="none" d="M471 273a28 28 0 0 1-7-7l-1-4"/><path fill="none" d="m471 273-5-5-2-2-1-4"/><path fill="none" d="m471 273-5-5-2-2-1-4"/><path fill="none" d="m471 273-5-5a12 12 0 0 1-2-2l-1-5"/><path fill="none" d="m471 273-5-5a17 17 0 0 1-2-2l-1-5"/><path fill="none" d="m471 273-5-5-1-2-2-5"/><path fill="none" d="m471 273-5-5-1-3-2-4"/><path fill="none" d="m471 273-5-5-1-3-2-4"/><path fill="none" d="m471 273-4-5-2-3-2-4"/><path fill="none" d="m471 273-4-5-2-3-2-4"/><path fill="none" d="m463 261 4 6 5 6m-9 1 10 6 2-3-1-2"/><path fill="none" d="m463 274 10 6 2-3-1-1a25 25 0 0 1 0-1"/><path fill="none" d="m463 274 10 6 1-3v-2"/><path fill="none" d="m463 274 10 6 1-3v-2"/><path fill="none" d="m463 274 10 6 1-3v-2"/><path fill="none" d="m463 274 10 6v-1l1-2v-2"/><path fill="none" d="m463 274 10 5 1-2v-2"/><path fill="none" d="m463 274 10 5 1-3v-1"/><path fill="none" d="m463 274 10 5 1-3v-1"/><path fill="none" d="m463 274 10 5 1-3v-1"/><path fill="none" d="m463 274 10 5 1-3v-1"/><path fill="none" d="m463 274 10 5 1-3v-1"/><path fill="none" d="M463 274a75 75 0 0 0 10 5v-3h1v-1"/><path fill="none" d="m463 274 10 5v-3l1-1c-1 0 0 0 0 0"/><path fill="none" d="m463 274 10 5v-4h1"/><path fill="none" d="m463 273 10 5v-3"/><path fill="none" d="m463 273 10 5v-3h1"/><path fill="none" d="m463 273 10 5v-3h1"/><path fill="none" d="m463 273 10 5v-3h1"/><path fill="none" d="m463 273 10 5v-3h1"/><path fill="none" d="m463 273 10 5v-3"/><path fill="none" d="m463 273 10 5v-3"/><path fill="none" d="m463 273 10 5v-1l-1-2h1"/><path fill="none" d="M463 273c1 1 7 5 10 4l-1-2h1"/><path fill="none" d="M463 273c1 1 7 5 10 4l-1-2h1"/><path fill="none" d="M463 273c1 1 8 5 10 4l-1-3 1 1c0-1 0 0 0 0"/><path fill="none" d="M463 273c1 1 8 5 10 4l-1-3 1 1c0-1 0 0 0 0"/><path fill="none" d="M463 273c1 0 8 5 10 4l-1-3h1v1"/><path fill="none" d="M463 273s8 5 10 4l-1-3h1v1"/><path fill="none" d="M463 273s8 5 10 4v-1l-1-2 1 1"/><path fill="none" d="M463 273s8 5 10 4v-1l-1-2 1 1"/><path fill="none" d="M463 273s10 6 10 3l-1-2 1 1"/><path fill="#fc0" d="m464 238 1-2h2l-2 2h-1 2l1-2h-2l-1 2"/><path fill="none" d="m464 238 1-2h2l-2 2h-1 2l1-2h-2l-1 2z"/><path fill="#fc0" d="m464 238-2 1h-1l1 1 1-1 1-1-1 2h-2l1-2h2"/><path fill="none" d="m464 238-2 1h-1l1 1 1-1 1-1-1 2h-2l1-2h2z"/><path fill="#fc0" d="M464 238h-1l1 1 1-1h-1"/><path fill="none" d="M464 238h-1l1 1 1-1h-1"/><path fill="#fc0" d="m460 234 4 2v2l-3-1-1-3"/><path fill="none" d="m460 234 4 2v2l-3-1-1-3z"/><path fill="none" d="m461 235 2 1v1h-1l-1-2z"/><path fill="#fc0" d="m463 240 1-1v3h-2l1-1v-1"/><path fill="none" d="m463 240 1-1v3h-2l1-1v-1z"/><path fill="none" d="M464 239v3m0-2v2m0-1v1h-1"/><path fill="#fff" d="m502 327 1-1v-4l-1-8-2 8v4l1 1h1"/><path fill="#004bb3" d="m502 314-2 8v4h-1a2 2 0 0 0-1-1h-1l-1-1v-2l1-1v-2h1v-1l1-1 1-1v-2h2"/><path fill="none" d="m501 314-2 5c0 1-2 3-1 6"/><path fill="none" d="m501 314-1 5c-1 1-3 3-2 6"/><path fill="none" d="m501 314-1 5c-1 1-3 3-2 6"/><path fill="none" d="m501 314-1 5c-1 1-3 3-1 6"/><path fill="none" d="m501 314-1 5c-1 1-3 4-1 7"/><path fill="none" d="m501 314-1 6c-1 1-3 3-1 6"/><path fill="none" d="m501 314-2 5c0 1-3 3-1 6"/><path fill="none" d="m501 314-2 5c0 1-3 3-1 6"/><path fill="none" d="m501 314-2 5c0 1-3 3-1 6"/><path fill="none" d="m501 314-2 5c-1 1-3 3-1 6"/><path fill="none" d="m500 314-1 5c-1 1-3 3-1 6"/><path fill="#004bb3" d="m502 314 1 8v4h1l1-1h1l1-1v-3l-1-2v-1h-1v-1l-2-1v-2h-1"/><path fill="none" d="m502 314 2 5c1 1 3 3 1 6"/><path fill="none" d="m502 314 2 5c0 1 3 3 1 6"/><path fill="none" d="m502 314 2 5c0 1 3 3 1 6"/><path fill="none" d="m502 314 2 5c0 1 2 3 1 6"/><path fill="none" d="m502 314 2 5c0 1 2 4 1 7"/><path fill="none" d="m502 314 1 6c1 1 3 3 2 6"/><path fill="none" d="m502 314 2 5c1 1 3 3 1 6"/><path fill="none" d="m503 314 1 5c1 1 3 3 2 6"/><path fill="none" d="m503 314 1 5c1 1 3 3 2 6"/><path fill="none" d="m503 314 1 5c1 1 3 3 2 6"/><path fill="none" d="m503 314 2 5c0 1 2 3 1 6"/><path fill="none" d="M505 317v1l1 1 1 2v3l-1 1h-1v1h-1a3 3 0 0 1-1 0l-1 1h-1l-1-1h-1a2 2 0 0 0-1-1h-1l-1-1v-2l1-1v-2l1-1"/><path fill="#fff" d="M459 273v15l3 10 7-11-1-4-1-5z"/><path fill="#004bb3" d="m469 287-1-4-1-5 5 3-3 6"/><path fill="#fc0" d="m473 280-23-15-1 1 23 15 1-1"/><path fill="none" d="m473 280-23-15-1 1 23 15 1-1z"/><path fill="#004bb3" d="m455 311-2-3-1-3v-3l-2-6c0-5-2-8-1-13v-17l10 7v15l3 10-7 13"/><path fill="none" d="m462 298-7 12-2-2-1-3v-3l-2-6m0-1 2 6v4l1 3 2 2 7-12"/><path fill="none" d="m450 295 2 6v4l1 3 2 2 7-12m-12-3 2 6v4l1 3 2 2 7-12"/><path fill="none" d="m450 295 2 6v3l1 4 2 2 7-12m-12-3 2 6v3l1 4 2 2 7-12"/><path fill="none" d="m450 295 2 6v3l1 4 2 2 7-12m-12-3 2 6v3l1 4 2 2 7-12"/><path fill="none" d="m450 295 2 6v3l1 3 2 2 7-11m-12-3 2 6v3l1 3 2 2 7-11m-12-3 2 6v3l1 3 2 2 7-11"/><path fill="none" d="m450 295 2 6v3l1 3 2 2 7-11m-12-3 2 6v3l1 3 2 2 7-11"/><path fill="none" d="m450 295 2 6v3l1 3 2 2 7-11m-12-3 2 6v3l1 3 2 2 7-11"/><path fill="none" d="m450 295 2 6v3l1 3 2 1 7-10m-12-3 2 6v2l1 3 2 2 7-10"/><path fill="none" d="m450 295 2 6v2l1 3 2 2 7-10m-12-3 2 5v3a240 240 0 0 0 3 5l7-10m-12-3 2 5v3l1 3 2 2 7-10"/><path fill="none" d="m450 295 2 5v3l1 3 2 2 7-10m-12-3 2 5v3l1 3 2 2 7-10"/><path fill="none" d="m450 295 2 5v3l1 3 2 1 7-9m-12-3 2 5v3l1 3 2 1 7-9"/><path fill="none" d="m450 295 2 5v3l1 2 2 2 7-9m-12-3 2 5v3l1 2 2 2 7-9"/><path fill="none" d="m450 295 2 5v3l1 2 2 2 7-9m-12-3 2 5v3l1 2 2 2 7-9m-12-3 2 5v2l1 3 2 2 7-9"/><path fill="none" d="m450 295 2 5v2l1 3 2 1c1 1 6-7 7-8m-12-3 2 5v2l1 3 2 1c1 1 6-7 7-8"/><path fill="none" d="m450 295 2 5v2l1 3 2 1 7-8m-12-3 1 5 1 2 1 3 2 1 7-8"/><path fill="none" d="m450 295 1 5 1 2 1 2 2 2 7-8m-12-3 1 5 1 2 1 2 2 2 7-8"/><path fill="none" d="m450 295 1 4 1 3 1 2 2 2 7-8m-12-3 1 4 1 3 1 2 2 2 7-8m-12-3 1 4 1 3 1 2 2 1c1 1 6-6 7-7"/><path fill="none" d="m450 295 1 4 1 3 1 2 2 1 7-7m-12-3 1 4 1 2 1 3 2 1 7-7"/><path fill="none" d="m450 295 1 4 1 2 1 3 2 1 7-7m-12-3 1 4 1 2 1 2 2 2 7-7"/><path fill="none" d="m450 295 1 4 1 2 1 2 2 2 7-7m-12-3 1 4 1 2 1 2 2 2 7-7"/><path fill="none" d="m450 295 1 4 1 2 1 2 2 1c1 1 6-5 7-6m-12-3 1 4 1 2 1 2 2 1c1 1 6-5 7-6m-12-3 1 4 1 2 1 2 2 1 7-6"/><path fill="none" d="m450 295 1 4 1 2 1 2 2 1 7-6m-12-3 1 4 1 2 1 2 2 1 7-6"/><path fill="none" d="m450 295 1 4 1 2 2 2 1 1 7-6m-12-3 1 4 1 1 2 2 1 2 7-6"/><path fill="none" d="m450 295 1 4 1 1 2 2 1 1c1 1 6-4 7-5m-12-3 1 4 1 1 2 2 1 1c1 1 6-4 7-5"/><path fill="none" d="m450 295 1 3 1 2 2 2 1 1c1 1 6-4 7-5m-12-3 1 3 1 2 2 2 1 1 7-5m-12-3 1 3 1 2 2 2 1 1 7-5"/><path fill="none" d="m450 295 1 3 1 2 2 2 1 1 7-5m-12-3 1 3 1 2 2 2 1 1 7-5"/><path fill="none" d="m450 295 1 3 1 2 2 1 1 1c1 1 5-3 7-4m-12-3 1 3 1 2 2 1 1 1c1 1 5-3 7-4"/><path fill="none" d="m450 295 1 3 1 2 2 1 1 1c1 1 5-3 7-4m-12-3 1 3 1 2 2 1 1 1 7-4"/><path fill="none" d="m450 295 1 3 1 1 2 2 1 1 7-4m-12-3 1 3 1 1 2 2 1 1 7-4m-12-3 1 3 1 1 2 2 1 1 7-4"/><path fill="none" d="m450 295 1 3 1 1 2 2 1 1 7-4m-12-3 1 3 1 1 2 2h1c2 1 5-2 7-3"/><path fill="none" d="m450 295 1 3 1 1 2 1 1 1c2 1 5-2 7-3m-12-3 1 3 1 1 2 1 1 1c2 1 5-2 7-3"/><path fill="none" d="m450 295 1 3 1 1 2 1 1 1 7-3m-12-3 1 2 1 2 2 1 1 1 7-3"/><path fill="none" d="m450 295 1 2 1 2 2 1 1 1 7-3m-12-3 1 2 1 2 2 1 1 1 7-3m-12-3 1 2 1 1 2 2a5 5 0 0 0 1 0c2 1 5-1 7-2"/><path fill="none" d="m450 295 1 2 1 1 2 2h1c2 1 5-1 7-2m-12-3 1 2 1 1 2 1 1 1c2 1 5-1 7-2"/><path fill="none" d="m450 295 1 2 1 1 2 1 1 1c2 1 5-1 7-2m-12-3 1 2 1 1 2 1 1 1 7-2"/><path fill="none" d="m450 295 1 2 1 1 2 1 1 1 7-2m-12-3 1 2 1 1 2 1 1 1 7-2"/><path fill="none" d="m450 295 1 2 1 1 2 1a5 5 0 0 0 1 0c2 1 5 0 7-1m-12-3 1 2 1 1 2 1h1c2 1 5 0 7-1m-12-3 1 2 1 1 2 1h1c2 1 5 0 7-1"/><path fill="none" d="m450 295 1 2 1 1h2l1 1c2 1 5 0 7-1m-12-3 1 2h1l2 1 1 1 7-1"/><path fill="none" d="m450 295 1 2h1l2 1 1 1 7-1m-12-3 1 2h1l2 1 1 1 7-1"/><path fill="none" d="m450 295 1 2a13 13 0 0 1 1 0l2 1h8m-12-3 1 1 2 1 1 1h8"/><path fill="none" d="m450 295 1 1 2 1 1 1h8m-12-3s6 5 12 3m-12-22 1 9c1 1 3 5 7 6"/><path fill="none" d="m450 276 1 9c1 1 3 5 7 6"/><path fill="none" d="m450 276 1 9c1 1 3 5 7 6"/><path fill="none" d="m450 276 2 9c0 1 2 5 6 6"/><path fill="none" d="m450 276 2 9c0 1 2 4 6 6"/><path fill="none" d="m450 276 2 9c0 1 2 4 6 6"/><path fill="none" d="m450 276 2 9c0 1 2 4 6 6"/><path fill="none" d="m450 276 2 8c0 2 2 4 6 7"/><path fill="none" d="m450 276 2 8c1 1 2 4 6 7"/><path fill="none" d="m450 276 2 8c1 1 2 4 6 7"/><path fill="none" d="m450 276 2 8 6 7"/><path fill="none" d="m450 276 2 8 6 7"/><path fill="none" d="m450 276 2 8 6 7m-8-20s1 11 9 14"/><path fill="none" d="m450 271 2 7c1 3 3 6 7 7"/><path fill="none" d="m450 271 2 7c1 2 3 6 7 7"/><path fill="none" d="m450 271 2 7c1 2 3 5 7 7"/><path fill="none" d="m450 271 2 7c1 2 3 5 7 7"/><path fill="none" d="m450 271 2 7 7 7"/><path fill="none" d="m450 271 3 7c0 2 3 5 6 7"/><path fill="none" d="m450 271 3 7 6 7"/><path fill="none" d="m450 271 3 7 6 7"/><path fill="none" d="m450 271 3 7 6 7"/><path fill="none" d="m450 271 3 7 6 7"/><path fill="none" d="m450 271 3 6 6 8"/><path fill="none" d="m450 271 3 6 6 8m-9-17s2 9 9 11"/><path fill="none" d="m450 268 3 6 6 5"/><path fill="none" d="m450 268 3 6 6 5"/><path fill="none" d="m450 268 3 6 6 5"/><path fill="none" d="m450 268 3 6 6 5"/><path fill="none" d="m450 268 3 6 6 5"/><path fill="none" d="m450 268 3 6 6 5"/><path fill="none" d="m450 268 4 6 5 5"/><path fill="none" d="m450 268 4 6 5 5"/><path fill="none" d="m450 268 4 6 5 5"/><path fill="none" d="m450 268 4 5 5 6"/><path fill="none" d="m450 268 4 5 5 6"/><path fill="none" d="m450 268 4 5 5 6"/><path fill="none" d="m450 268 4 5 5 6"/><path fill="none" d="m450 267 4 6 5 6m8 1 5 1m-4 3 4-2m-5-2 5 1m-5-1 5 1m-5 0h5m-5 0h5m-5 0h5m-5 0h5m-5 0h5m-5 0h5m-4 1 4-1m-4 2 4-1m-4 1 4-1m-4 1 4-1m-4 1 4-1m-4 1 4-2m-4 1 4-1m-4 1 4-1m-4 1 4-1m-4 1 4-1m-4 1 4-1"/><path fill="none" d="m455 311-2-3-1-3v-3l-2-6c0-5-2-8-1-13v-17l23 15"/><path fill="#fc0" d="m449 265 1-2h1c1 1 0 1-1 2h-1l2-1v-1h-2v2"/><path fill="none" d="m449 265 1-2h1c1 1 0 1-1 2h-1l2-1v-1h-2v2z"/><path fill="#fc0" d="m449 265-2 1v2l2-2v-1a1 1 0 0 0 0 1l-1 1-1 1v-2l2-1"/><path fill="none" d="m449 265-2 1v2l2-2v-1a1 1 0 0 0 0 1l-1 1-1 1v-2l2-1"/><path fill="#fc0" d="M449 265v1-1"/><path fill="none" d="M449 265v1-1z"/><path fill="#fc0" d="m444 262 4 1 1 2h-3l-2-3"/><path fill="none" d="m444 262 4 1 1 2h-3l-2-3z"/><path fill="none" d="M446 263h1l1 1h-1l-1-1z"/><path fill="#fc0" d="M449 267v-1l1 1v2h-2v-1l1-1"/><path fill="none" d="M449 267v-1l1 1v2h-2v-1l1-1z"/><path fill="none" d="M449 266v1h1v2m-1-2 1 3v-1m-1-1 1 2h-1"/><path fill="#004bb3" d="m471 314 6 3 6 2h6l2-1 3-1 4-1v-2h2v2l-1 1v1h-1l-1 1-4 1-2 1h-3l-2 1h-8l-5-1-8-3-1-1-5-3h13"/><path fill="#fff" d="m485 314 5 3h4l-3 1-2 1h-6l-6-2-6-3h14"/><path fill="#004bb3" d="M485 314h13v2l-4 1h-4c-4-1-4-2-5-3"/><path fill="none" d="M472 314h-13m13 0h-12m12 0-3 1-9-1"/><path fill="none" d="m472 314-3 1-9-1"/><path fill="none" d="m472 314-3 1-9-1"/><path fill="none" d="m472 314-3 1-9-1"/><path fill="none" d="m472 314-3 1h-9"/><path fill="none" d="m472 314-3 1h-9m12 0h-12m12 0-3 1-9-1"/><path fill="none" d="m472 315-3 1-9-1m-1-1h13"/><path fill="none" d="m460 315 9 1 3-1m1 5h10m-10 0h10m-10-1 5 1h4"/><path fill="none" d="m473 319 5 1h4"/><path fill="none" d="m472 319 6 1h4"/><path fill="none" d="m472 319 6 1h2l2-1"/><path fill="none" d="m472 319 6 1h2l2-1"/><path fill="none" d="m472 319 6 1h2l1-1m-7 1h9"/><path fill="none" d="m471 319 7 1 3-1m12 0 4-1 3-4m-8 5 3-2c4-1 4-3 4-3"/><path fill="none" d="m492 319 3-2h2l1-2 1-1"/><path fill="none" d="m492 319 3-1 2-1 1-1 1-2"/><path fill="none" d="m492 319 3-1 2-1 2-1v-2"/><path fill="none" d="m491 319 4-1 2-1 2-1v-2"/><path fill="none" d="m492 319 5-1 2-2 1-2"/><path fill="none" d="m492 319 5-1 2-2 1-2"/><path fill="none" d="m492 320 5-2 2-2v-2"/><path fill="none" d="m491 320 6-3 2-1v-2"/><path fill="none" d="m491 320 6-3 2-1v-2m-1 0h-13m13 0h-13m13 0-3 1-10-1"/><path fill="none" d="m498 314-3 1-10-1"/><path fill="none" d="m498 314-3 1-9-1"/><path fill="none" d="m498 314-3 1-9-1"/><path fill="none" d="m498 314-3 1h-9"/><path fill="none" d="m498 314-3 1h-9m12 0h-12m12 0-3 1-9-1"/><path fill="none" d="m498 315-3 1-9-1m-1-1h13"/><path fill="none" d="m486 315 9 1 3-1"/><path fill="none" d="M500 314v2l-1 1-1 1-1 1-4 1-2 1h-3l-2 1h-8l-5-1c-2-2-6-2-8-3l-1-1-5-3"/><path fill="#fc0" stroke="#000" d="m551 314-49-82-49 82Z"/><path fill="#fff" d="m546 312-44-74-45 74Z"/><g fill="none"><path d="M494 251c2-2 5-3 8-3s5 1 7 3"/><path d="M494 251c2-2 5-3 8-3s6 1 7 3"/><path d="M494 251c2-2 5-3 8-3s6 1 8 3"/><path d="M494 251c2-2 5-3 8-3s6 1 8 3"/><path d="M494 251c2-2 5-3 8-3s6 1 8 3"/><path d="M494 251c2-2 4-3 8-3 3 0 6 1 8 3"/><path d="M494 251c2-2 4-3 8-3 3 0 6 1 8 3"/><path d="M493 252c2-3 5-3 9-3s7 1 9 4"/><path d="M493 252c2-2 5-3 9-3s7 1 9 4"/><path d="M493 252c2-3 5-3 9-3 3 0 7 1 8 3"/><path d="M493 252c2-3 5-3 9-3 3 0 6 1 8 3"/><path d="M493 252c2-3 5-3 9-3 3 0 6 1 8 3"/><path d="M493 251c2-2 5-3 9-3 3 0 6 1 8 4"/><path d="M493 251c2-2 5-3 9-3 3 0 6 1 8 4"/><path d="M494 251c1-2 4-3 8-3 3 0 6 1 8 4m-13-6 5-2 4 2"/><path d="m497 246 5-2 4 2"/><path d="m497 246 5-2 5 2"/><path d="m497 246 5-1 5 1"/><path d="m497 246 5-1 5 1"/><path d="m497 246 5-1 5 1"/><path d="m497 246 5-1 5 1"/><path d="m496 246 6-1 5 1"/><path d="m496 246 6-1 5 1"/><path d="m496 246 6-1 5 1"/><path d="M496 247c2-2 4-2 6-2l5 1m-12 2 7-1 6 1"/><path d="m495 248 7-2 6 2"/><path d="m495 248 7-2 6 2"/><path d="m495 248 7-2 6 2"/><path d="m495 248 7-2 6 2"/><path d="m496 248 6-2 6 2"/><path d="m496 248 6-2 6 2"/><path d="m496 248 6-2 6 2"/><path d="M496 248c1-2 4-2 6-2s4 0 6 2"/><path d="m496 247 6-1 6 1"/><path d="m496 247 6-1 5 1"/><path d="m496 247 6-1 5 1"/><path d="m496 247 6-1 5 1"/><path d="m496 247 6-2 5 2"/><path d="m496 247 6-2 5 2"/><path d="m496 247 6-2 5 2"/><path d="m496 247 6-2 5 2m-12 2c2-2 4-2 7-2 2 0 5 0 6 2"/><path d="M495 249c2-2 4-2 7-2 2 0 5 0 6 2"/><path d="M495 249c2-2 4-2 7-2l6 2"/><path d="M495 249c2-2 4-2 7-2l7 2"/><path d="m495 249 7-2 7 2"/><path d="m495 249 7-2 7 2"/><path d="m495 249 7-2 7 2"/><path d="M495 250c2-2 4-3 7-3l7 2"/><path d="M494 250c3-2 5-3 8-3 2 0 5 1 7 3"/><path d="M494 250c2-2 5-2 8-2 2 0 5 0 7 2"/><path d="M494 250c2-2 5-2 8-2 2 0 5 0 7 2"/><path d="M494 250c2-2 5-2 8-2 2 0 5 0 7 2"/><path d="M494 250c2-2 5-2 8-2 2 0 5 0 7 2"/><path d="M494 250c3-2 5-3 8-3 2 0 5 1 7 3"/><path d="M494 250c3-2 5-3 8-3 2 0 5 1 7 3"/><path d="M494 250c3-2 5-3 8-3 2 0 5 1 7 3"/><path d="M494 250c3-2 5-3 8-3 2 0 5 1 7 3m-3-4-4-2-5 2"/><path d="M511 253c-2-3-5-4-9-4s-7 1-9 3"/><path d="M509 250c-2-2-4-2-7-2s-6 0-8 2"/><path d="M510 251c-2-2-5-3-8-3s-6 1-8 3"/><path d="M508 249c-1-2-4-2-6-2-3 0-5 0-7 2m12-2-5-2-6 2"/><path d="M509 250c-2-2-5-3-7-3-3 0-5 1-8 3"/></g><path fill="#0088e8" d="m471 290-14 22h89l-13-22h-62"/><g fill="none"><path d="M504 302h4l6-1 6 2 6-2h4c2 1 3 2 7 2"/><path stroke="#fff" d="M470 306c1-2 4-2 6-2l7 2 5-2 7 1a9 9 0 0 0 3 0l3-1h5l3 1h4l6-1 6 2 6-2h4c2 1 3 2 7 2m-77-3 6-1 7 1 5-1 7 1a9 9 0 0 0 3 0l3-1h5l3 1h4c2-1 4-2 6-1l6 1 6-1h4l7 1m-77 7 6-1 7 1 6-1 7 1h2l3-1h5l3 1h4l6-2 7 2 6-1h4c2 0 3 2 6 1"/><path stroke="#fff" d="m462 306 6-1 6 1h3"/><path d="m475 302 3-1 5 1 3-1m31 10 4-1h4l4 1h4l6-1 6 1"/><path stroke="#fff" d="m523 302 6-2h4l6 2"/><path d="M460 311c2-1 5-2 7-1l6 1 6-2c4 0 4 1 7 2a8 8 0 0 0 2 0l3-1 5-1 4 1"/><path stroke="#000" d="m466 307 6-1 7 1 6-1 6 1a9 9 0 0 0 3 0l3-1h5l3 1h4l6-1 7 1 5-1h5c1 1 2 2 6 1"/></g><g fill="none"><path d="m493 252 9-2 9 3 9 16c0 10-8 18-18 18-11 0-19-8-19-18l10-17z"/><path d="m502 251 9 2 9 16c0 10-8 18-18 18-11 0-19-8-19-18l10-16c3-2 5-3 9-3z"/><path d="m502 251 9 2 9 16c0 10-8 18-18 18s-18-8-19-18l10-16 9-2z"/><path d="m502 251 8 2 9 16c0 9-8 18-17 18-10 0-18-8-18-18l9-16 9-2z"/><path d="M502 251c3 0 6 1 8 3l9 15c0 9-8 17-17 17-10 0-18-7-18-17l9-16 9-2m0 0c3 0 6 2 8 3l9 15c0 9-8 17-17 17-10 0-18-8-18-17l9-15 9-3"/><path d="m502 252 8 2 9 15c0 9-8 17-17 17-10 0-17-8-17-17l8-15c3-2 6-2 9-2z"/><path d="m502 252 8 2 9 15c0 9-8 17-17 17-10 0-17-8-17-17l8-15 9-2z"/><path d="m502 252 8 3 8 14c0 9-7 16-16 16-10 0-17-7-17-16l9-15 8-2z"/><path d="m502 252 8 3 8 14c0 9-7 16-16 16s-17-7-17-16l9-15 8-2z"/><path d="m502 253 8 2 8 14c0 8-8 16-16 16-9 0-16-7-16-16l8-14c2-2 5-2 8-2z"/><path d="m502 253 8 2 8 14c0 8-8 16-16 16-9 0-16-7-16-16l8-14 8-2"/><path d="m502 253 7 2 8 14c0 8-7 15-15 15-9 0-16-7-16-15l8-14 8-2z"/><path d="M502 253c2 0 5 1 7 3l8 13c0 8-7 15-15 15a15 15 0 0 1-16-15l8-14 8-2"/><path d="m502 254 7 2 8 13c0 8-7 15-15 15-9 0-15-7-16-15l8-14 8-1zm0 0 7 2 8 13c0 8-7 15-15 15-9 0-15-7-15-15l7-13 8-2"/><path d="m502 254 7 2 7 13c0 8-6 14-14 14s-15-6-15-14l8-13 7-2z"/><path d="m502 254 7 2 7 13c0 8-6 14-14 14s-15-6-15-14l8-13 7-2z"/><path d="m502 255 7 2 7 12c0 7-7 14-14 14-8 0-14-6-15-14l8-13 7-1z"/><path d="m502 255 7 2 7 12c0 7-7 14-14 14-8 0-14-7-14-14l7-12 7-2z"/><path d="m502 255 6 2 7 12c0 7-6 13-13 13-8 0-14-6-14-13l7-12 7-2zm0 0 6 2 7 12c0 7-6 13-13 13-8 0-14-6-14-13l7-12 7-2z"/><path d="M502 256c2 0 4 0 6 2l7 11c0 7-6 13-13 13-8 0-14-6-14-13l7-12 7-1z"/><path d="m502 256 6 2 7 11c0 7-6 13-13 13s-13-6-13-13l6-12 7-1"/><path d="m502 256 6 2 6 11c0 7-5 12-12 12s-13-5-13-12l6-11 7-2z"/><path d="m502 256 6 2 6 11c0 7-6 12-12 12-7 0-13-5-13-12l7-11 6-2z"/><path d="m502 257 6 1 6 11c0 6-6 12-12 12-7 0-13-6-13-12l7-11 6-1z"/><path d="m502 257 6 2c1 0 6 8 6 10 0 6-6 12-12 12-7 0-12-6-12-12l6-11 6-1z"/><path d="m502 257 5 2c1 0 6 8 6 10 0 6-5 11-11 11a12 12 0 0 1-12-11c0-2 5-10 6-10l6-2"/><path d="m502 257 5 2c1 1 6 8 6 10 0 6-5 11-11 11-7 0-12-5-12-11 0-2 5-10 6-10l6-2z"/><path d="m502 258 5 1c1 1 6 8 6 10 0 6-5 11-11 11-7 0-12-5-12-11 0-2 5-9 6-10l6-1zm0 0 5 1 5 10c0 6-4 11-10 11s-11-5-11-11l5-10 6-1z"/><path d="m502 258 5 2 5 9c0 6-5 10-10 10-6 0-11-4-11-10l5-10 6-1z"/><path d="m502 258 5 2 5 9c0 5-5 10-10 10a10 10 0 0 1-11-10c0-2 4-9 6-9l5-2z"/><path d="m502 259 5 1 5 9c0 5-5 10-10 10-6 0-11-5-11-10 0-2 4-8 6-9l5-1z"/><path d="m502 259 5 1 5 9c0 5-5 10-10 10-6 0-10-5-10-10l5-9 5-1z"/><path d="m502 259 4 1c2 1 5 7 5 9 0 5-4 9-9 9-6 0-10-4-10-9l5-9 5-1zm0 0 4 2c2 0 5 6 5 8 0 5-4 9-9 9-6 0-10-4-10-9 0-2 4-8 5-8l5-2z"/><path d="m502 260 4 1c1 1 5 6 5 8a9 9 0 1 1-19 0c0-2 4-7 5-8l5-1z"/><path d="m502 260 4 1c1 1 5 6 5 8 0 5-5 9-9 9-5 0-9-4-9-9l4-8 5-1z"/><path d="m502 260 4 1 4 8c0 4-4 8-8 8a9 9 0 0 1-9-8l4-8 5-1z"/><path d="m502 260 4 2 4 7c0 4-4 8-8 8-5 0-9-4-9-8l4-8a9 9 0 0 1 5-1z"/><path d="m502 261 4 1 4 7a8 8 0 1 1-17 0c0-2 3-7 5-7l4-1"/><path d="m502 261 4 1 4 7c0 4-4 8-8 8a8 8 0 0 1-8-8c0-2 2-6 4-7l4-1z"/><path d="m502 261 3 1c2 1 4 5 4 7 0 4-3 7-7 7a8 8 0 0 1-8-7c0-2 2-6 4-7l4-1z"/><path d="m502 261 3 1c2 1 4 5 4 7 0 4-3 7-7 7a7 7 0 0 1-8-7c0-2 2-6 4-7a7 7 0 0 1 4-1z"/><path d="m502 262 3 1c2 1 4 4 4 6 0 4-3 7-7 7s-8-3-8-7c0-2 2-6 4-7h4m0 0 3 1c2 1 3 4 3 6 0 4-3 7-6 7a7 7 0 0 1-7-7l3-6 4-1z"/><path d="M502 262a6 6 0 0 1 3 1c2 1 3 4 3 6a7 7 0 1 1-13 0l3-6 4-1z"/><path d="m502 262 3 1c2 1 3 4 3 6 0 3-3 6-6 6-4 0-7-3-7-6l3-6 4-1z"/><path d="M502 263h3l3 6c0 3-3 6-6 6-4 0-7-3-7-6 0-2 2-5 4-6h3z"/><path d="M502 275a6 6 0 0 0 5-6c0-4-2-6-5-6-4 0-6 2-6 6 0 3 2 6 6 6"/><path d="M502 275c3 0 6-3 6-6s-3-6-6-6c-4 0-6 3-6 6s2 6 6 6"/></g><path fill="#fff" d="M502 275c3 0 6-3 6-6s-3-6-6-6c-4 0-6 3-6 6s2 6 6 6"/><path fill="none" d="m503 263 1-3m-2 3 1-3m-1 3v-3m-1 3v-3m-1 3v-3m0 3-1-3m0 3-1-3m1 4-2-3m1 3-2-3m2 3-3-2m2 3-2-2m2 2-3-2m2 3-2-2m2 2-3-1m3 2-3-1m3 1h-3m3 1h-4m4 1h-4m4 0-4 1m4 0-3 1m3 0-3 1m3-1-3 1m3 0-3 2m4-2-7 5m7-4-7 6m8-6-7 7m7-6-5 6m6-6-5 8m5-8-3 6m4-5-3 8m3-8-1 5m2-5-1 8m2-8 1 3m0-3 2 8m-2-8 2 4m-1-5 4 8m-3-8 4 7m-4-7 6 7m-5-8 5 6m-5-6 8 7m-8-8 5 3m-4-3 3 1m-3-2 3 2m-3-2 3 1m-2-2 3 1m-3-2 3 1m-3-1h3m-3-1h3m-3 0 3-1m-4 0 3-1m-3 0 3-1m-3 1 3-2m-4 1 3-2m-3 2 3-2m-3 1 2-2m-3 2 2-3m-2 3 1-3m-2 2 1-3m-1 3 1-3m-3-5v-2m-3 3-1-3m-2 3-1-2m-1 4-2-2m0 4-2-2m0 4-2-1m1 4-3-1m2 3h-2m2 3h-2m3 3-3 1m27 2 3 1m-1-4 2 1m-2-4 3 1m-3-4h3m-3-2 2-1m-4-2 3-1m-4-1 2-2m-4 0 1-2m-4 0 1-2m-4 2 1-3"/><path fill="#e60000" d="m505 272-1-1h-4l-1 1 2 1 3-1h1z"/><path fill="#e60000" d="m499 271 2-4-1 1h-1v-1l1-1 1-1 2 1 1 2 1 3v1l-1-1h-4l-1 1v-1z"/><path fill="none" d="m499 271 3-1 3 1"/><path fill="#fc0" d="M502 280v-9 15-6z"/><path fill="#090" d="m467 295 2-1 1-1 2-1 4-4c2-3 4-5 7-6h4l5 3c2 0 2 1 4 3a10 10 0 0 0 2 1v1l3 1 4 4v1l3 2 4 2-33 1h-4l-11-1 3-5"/><path fill="none" d="M482 282h1m-2 1h1m-2 0h2m-2 1h1m-2 1h2m-3 0h2m-2 1h1m-2 1h2m-3 1h2m-14 12h8m4-13h2m-3 2h2m0 0h-2m1 1h-2m-1 1h3m-3 0h2m-3 1h3m0 0h-4m3 1h-4m0 1h4m-5 0h2l2 1m-5 0h5m-5 0h5m-6 1h6m-6 0 4 1a9 9 0 0 0 1 0m-6 0h6m-6 1h6m-7 1h7m-7 0h3l2 1 2-1m8-8h1m-1 0h1m-1 0 1 1m-2 0h2-1m-1 1h1m-1 0h1m-2 1h2m-2 0h2m-2 1h2m-3 0h3m-3 1h3m-3 0h2m-3 1h3m-3 0 2 1h1m-4 0a2 2 0 0 1 1 0h3m-4 1h4m-5 0 4 1h1m-5 0h5m3-8h1m-1 1h1m-1 0h1m-1 1h1m-1 0h1m-1 1h1m-2 0h2m-2 1h2m-2 1h2m-2 0h2m-2 1h2m-3 1 4-1m-4 1h4m-4 1h5m-5 0h6m-14 0h2m5 0h1m6 0h5m-5 0h5m-11 0h-1m-5-1h-2m15-13v-1m0 1h1m-1 1h1m0 0h-1m2 1h-1m0 1 1-1m0 1h-1m0 1h1m1 0h-2m1 1h1m0 0h-1v1m0 1 1-1h1m0 1h-2m0 1 2-1m-2 1h3m0 0-2 1m0 1 2-1m1 1h-3m0 1 3-1m1 1h-4m1 1h3m0 0h-3m0 1h4m0 0h-1l-3 1m1 0h3m-3 0h4m0 0h5m-5 0h5m-1-3h1m-1 0h1m0 1h1m-1 1h1m-1 1 2-1m-2 1h3m-3 1 4-1m0 0a80 80 0 0 1 6 0m-7 0h7"/><path fill="none" d="m467 295 2-1 1-1 2-1 4-4c2-3 4-5 7-6h4l5 3c2 0 2 1 4 3l2 1v1l3 1 4 4v1l3 2 4 2-33 1h-4l-11-1"/><path fill="#090" d="m511 300-2-2c-2 0-3-1-3-2l-1-1-4-4-2-1-1-1a9 9 0 0 1-2-1l-2-3 1-1 3 1h1l4 2 3 2 2 2 2 2a108 108 0 0 1 3 3h1l2 2 3 2h-8"/><path fill="none" d="M495 287h2m-1 0h1m-1 1h2m-1 0h1m1 0-2 1m1 0h1m1 0-1 1m0 0h2m0 0h-1m1 1h1m1 0h-2m1 1h1m1 0h-1l-1 1m3 1h-1m0 0h2m0 2h3m0 0h-2l-1 1m1 0h3m1 0h-2l-2 1m1 0h4m0 0h-3m1 1h4m0 0h-4m1 1h3m-3 0h4m-20-13h1v-1m-2 0h2m7 7h1c-1 0 0 0 0 0h1m0 2 2-1m1 1-3 1m-9-11-2 1"/><path fill="none" d="m511 300-2-2c-2 0-3-1-3-2l-1-1-4-4-2-1-1-1a9 9 0 0 1-2-1l-2-3 1-1 3 1h1l4 2 3 2 2 2 2 2a108 108 0 0 1 3 3h1l2 2 3 2h-8z"/><path fill="#090" d="m501 286 1 1 4 2 2 2 2 2a107 107 0 0 1 3 3h1l2 2 2 2h7l-3-2-2-2a89 89 0 0 0-3-3l-2-2h-1l-1-1-3-2a13 13 0 0 1-5-2l-2-1-2 2"/><path fill="none" d="m504 288 1-1m-1 1h1m0 0h1m-1 1h2m0 0h-2m1 1 1-1m1 1h-1m0 0h2m0 1h-1m0 0h2m0 0-1 1m1 0h1m1 0-2 1m3 1h-2m1 0h2m-1 2h3m1 0h-3m0 1h3m1 0h-3m0 1h1l3-1m0 1h-3m1 1 2-1h2m0 1h-4m1 0h3m-2 1h2v-1m-18-12h2m-2 0h1m7 6h1m0 2 2-1m1 1h-2m-9-9-2 1"/><path fill="none" d="m501 286 1 1 4 2 2 2 2 2a107 107 0 0 1 3 3h1l2 2 2 2h7l-3-2-2-2a89 89 0 0 0-3-3l-2-2h-1l-1-1-3-2a13 13 0 0 1-5-2l-2-1-2 2z"/><path fill="#090" d="m512 289 1 1 2 1 2 2 3 3 2 2 2 1h7l-2-1-2-2-2-3-2-1-1-1-3-2-3-1-2-1-2 2"/><path fill="none" d="M513 290h1m-1 0h1m-1 0h1m0 1 1-1m0 1h-1m1 0h1m0 0h-1m0 1h2m0 0h-1m0 1 2-1m0 1h-1m0 0h1m1 0-1 1m2 0h-2m1 1h1m0 1h2m1 0h-3m1 1h2m1 0h-3m1 1v-1h2m1 1h-3m1 0h3m0 0h-1l-2 1m1 0h2m-2 0h2m-14-10h2m-2 0h1m5 5h1c-1 0 0 0 0 0m0 1h2m1 0-2 1m-7-7h-1"/><path fill="none" d="m512 289 1 1 2 1 2 2 3 3 2 2 2 1h7l-2-1-2-2-2-3-2-1-1-1-3-2-3-1-2-1-2 2z"/><path fill="#090" d="m531 299-2-1-2-2-2-2-2-1v-1l-1-1-2-1 1-1h2l3 1 2 2 1 1 1 1 2 2h1l1 1 2 2h-5"/><path fill="none" d="M521 290h1m-1 0h1m-1 1 1-1m0 1h1m0 0h-1m0 1 1-1m1 1h-1m0 0h1m1 0h-2m1 1h1m0 0h-1m1 0h1m0 1h-1m2 0h-1m0 1h2m-1 1h2m1 0h-2m0 1 2-1m1 1h-3m1 0h2m1 0h-2l-1 1m1 0h3m0 0h-3m1 0h2m-2 1h2m-13-9h2m-2 0v-1h1m4 5h2m0 1h1m1 0-2 1m-6-7h-1"/><path fill="none" d="m531 299-2-1-2-2-2-2-2-1v-1l-1-1-2-1 1-1h2l3 1 2 2 1 1 1 1 2 2h1l1 1 2 2h-5z"/><path fill="#e60000" d="m511 273 2 2v-2l-1 1-1-1zm2 0 1-1-1-1 1 1h-1l-1-1-1 1 1-1v1l1 1zm-1-3h2v-1h-2v1zm2 0h-1l1-1v1zm-2 0v-1h1l-1 1zm0-2 2-1h-2zm-1-3v-1l1-1v2-2h1v1-1l-3 1zm0-3v-2l-2 2h2zm0 0h-2l2-2v2zm-3-1v-1h-2l1-1 1 1v-1h-1v-1l2 1v-1h-2l-1 2zm-2-1v-1l-1-1h1l-1-1-1-1v3-1h1v1zm0-2h-2l1-1 1 1zm-3 0v-1l-1-1h-1v3h1l1-1zm0-1h-1 1zm0 1-1 1v-1h1zm-2 1-1-3-1 3-1-2v2h1l-1-2 1 2h1v-2 2zm-3 1v-1l-2 1v-1h1v-1l-1 1-1-1h2v-1l-2 1 1 2zm-2 1-2-2 1 2zm-3-1v-1l-1 2h1l1 1h1l-2-2zm-1 2h-1l-1 1 3 2v-1h-1v-2zm0 0v2l-1-1v-1h1zm0 3v1h-1v-1 1h-1v-2l-1 2 3 1zm-1 2-1 1v1l-1-1h1v-1l-1 1 1 1 1-1v1l1-1-1-1zm0 4-1 1h1-1v-1h-1l1 2 1-1v-1h1l-1 1h1v-1h-1zm2 2-3 1 1 1v-1l2-1z"/><path fill="none" d="m546 312-44-74-45 74Z"/><path fill="#fff" d="M476 330v-2h2l-3-1-1 1 1 2h1z"/><path fill="#fff" d="M476 328v2l4-1-2-1zm52 2v-2h-3l3-1 1 1v2h-1z"/><path fill="#fff" d="M528 328v2l-5-1 2-1z"/><path fill="#fff" d="m502 336 9-2 14-6 3-1c0-1-2-3-5-3s-2 0-5 2c-2 1-7 4-16 4s-15-3-17-4c-2-2-1-2-4-2s-5 2-6 3l3 1 14 6 10 2z"/><path d="m520 329-1-2 1-1h1l1 1v1l-1 1zm0 0h1v-1h1v-1l-1-1h-1v1h-1zm-3-2 3 2v1l-1-1h-1v2h-1v-4zm1 1v1zm-3 1h-1l2-1-1 1 2 2h-1l-1-2zm-2 0h2v1h-1v1l1 1-1-1h-1l1 1zm0 1v1l1-1v-1h-1zm-2 0 1-1v1h-1v1h2-2l1 1h1l-2 1zm-3 0h2v2h1v1h-2zm1 1v1l1-1h-1zm0 1v1h1v-1h-1zm-1-1v2zm-2 0 1 3 1-1v1h-2zm-4 3v-3l2 2v-2 3l-2-2v2zm-2-3 1 1 1 1-1 1h-2v-3h1zm0 1q0-1 0 0h-1v2h2v-2h-1zm-2-1v3zm-3 2v-3l2 3v-2h1l-1 3-2-3v2zm-2-3v2q-1 0 0 0v1h1v-3h1l-1 2v1h-2v-1zm-4 1 1 1v-3h1v1l-1-1v2h1v1h-2v-1zm-1-3 1 1v1l-1 1h-1l-1-1v-1l1-1h1zm0 1-1-1v1h-1v1l1 1h1l1-1v-1h-1zm-2-2v1l-1 2zm-4 2 1-3h1l1 1v2h-2zm0 0h2l1-1-1-1v-1z"/><path id="path-b7530" d="m m0 77 m0 119 m0 65 m0 65 m0 65 m0 65 m0 65 m0 65 m0 65 m0 65 m0 65 m0 65 m0 65 m0 65 m0 65 m0 65 m0 65 m0 65 m0 65 m0 65 m0 77 m0 102 m0 50 m0 115 m0 87 m0 83 m0 74 m0 120 m0 99 m0 80 m0 78 m0 86 m0 115 m0 121 m0 89 m0 78 m0 112 m0 43 m0 101 m0 114 m0 55 m0 111 m0 122 m0 98 m0 78 m0 98 m0 51 m0 118 m0 122 m0 67 m0 118 m0 81 m0 76 m0 105 m0 80 m0 86 m0 121 m0 104 m0 54 m0 76 m0 72 m0 57 m0 77 m0 102 m0 114 m0 56 m0 82 m0 73 m0 43 m0 78 m0 116 m0 106 m0 72 m0 55 m0 89 m0 111 m0 53 m0 85 m0 116 m0 109 m0 109 m0 56 m0 76 m0 72 m0 83 m0 65 m0 61 m0 61"/>
</svg>