<svg xmlns="http://www.w3.org/2000/svg" width="200" height="100" viewBox="0 0 9600 4800">
	<title>Flag of Canada (Pantone colours)</title>
	<path fill="#d52b1e" d="m0 0h2400l99 99h4602l99-99h2400v4800h-2400l-99-99h-4602l-99 99H0z"/>
	<path fill="#fff" d="m2400 0h4800v4800h-4800zm2490 4430-45-863a95 95 0 0 1 111-98l859 151-116-320a65 65 0 0 1 20-73l941-762-212-99a65 65 0 0 1-34-79l186-572-542 115a65 65 0 0 1-73-38l-105-247-423 454a65 65 0 0 1-111-57l204-1052-327 189a65 65 0 0 1-91-27l-332-652-332 652a65 65 0 0 1-91 27l-327-189 204 1052a65 65 0 0 1-111 57l-423-454-105 247a65 65 0 0 1-73 38l-542-115 186 572a65 65 0 0 1-34 79l-212 99 941 762a65 65 0 0 1 20 73l-116 320 859-151a95 95 0 0 1 111 98l-45 863z"/>
<path id="path-b7203" d="m m0 82 m0 65 m0 65 m0 65 m0 65 m0 65 m0 65 m0 65 m0 65 m0 65 m0 65 m0 65 m0 65 m0 65 m0 65 m0 65 m0 65 m0 65 m0 65 m0 65 m0 77 m0 116 m0 88 m0 49 m0 79 m0 115 m0 116 m0 113 m0 54 m0 119 m0 57 m0 105 m0 52 m0 56 m0 101 m0 77 m0 115 m0 69 m0 70 m0 84 m0 76 m0 76 m0 107 m0 80 m0 118 m0 112 m0 108 m0 75 m0 43 m0 75 m0 84 m0 84 m0 104 m0 104 m0 48 m0 43 m0 108 m0 76 m0 100 m0 51 m0 69 m0 83 m0 82 m0 56 m0 57 m0 117 m0 48 m0 100 m0 111 m0 106 m0 66 m0 68 m0 80 m0 98 m0 81 m0 82 m0 98 m0 103 m0 97 m0 103 m0 70 m0 55 m0 82 m0 54 m0 43 m0 81 m0 61 m0 61"/>
</svg>
