<?xml version="1.0" encoding="UTF-8"?>
<svg version="1.0" xmlns="http://www.w3.org/2000/svg" width="900" height="600">
	<rect width="900" height="600" fill="#d7141a"/>
	<rect width="900" height="300" fill="#fff"/>
	<path d="M 450,300 0,0 V 600 z" fill="#11457e"/>
<path id="path-b7480" d="m m0 78 m0 103 m0 65 m0 65 m0 65 m0 65 m0 65 m0 65 m0 65 m0 65 m0 65 m0 65 m0 65 m0 65 m0 65 m0 65 m0 65 m0 65 m0 65 m0 65 m0 82 m0 110 m0 87 m0 101 m0 68 m0 48 m0 104 m0 53 m0 89 m0 48 m0 87 m0 105 m0 68 m0 77 m0 75 m0 77 m0 109 m0 119 m0 71 m0 104 m0 112 m0 75 m0 89 m0 99 m0 69 m0 117 m0 106 m0 86 m0 86 m0 79 m0 78 m0 77 m0 51 m0 86 m0 118 m0 73 m0 87 m0 48 m0 115 m0 70 m0 85 m0 56 m0 51 m0 51 m0 82 m0 73 m0 57 m0 77 m0 85 m0 65 m0 52 m0 83 m0 117 m0 78 m0 48 m0 78 m0 68 m0 98 m0 69 m0 86 m0 51 m0 99 m0 56 m0 120 m0 122 m0 81 m0 61 m0 61"/>
</svg>