<?xml version="1.0" encoding="UTF-8"?>
<svg version="1.0" xmlns="http://www.w3.org/2000/svg" xmlns:xlink="http://www.w3.org/1999/xlink" width="900" height="600">
	<rect width="900" height="600" fill="#00853f"/>
	<rect x="300" width="600" height="600" fill="#fdef42"/>
	<rect x="600" width="300" height="600" fill="#e31b23"/>
	<g transform="translate(450,300)" fill="#00853f">
		<g id="c">
			<path id="t" d="M 0,-100 v 100 h 50 z" transform="rotate(18 0,-100)"/>
			<use xlink:href="#t" transform="scale(-1,1)"/>
		</g>
		<use xlink:href="#c" transform="rotate(72)"/>
		<use xlink:href="#c" transform="rotate(144)"/>
		<use xlink:href="#c" transform="rotate(216)"/>
		<use xlink:href="#c" transform="rotate(288)"/>
	</g>
<path id="path-b7259" d="m m0 78 m0 119 m0 65 m0 65 m0 65 m0 65 m0 65 m0 65 m0 65 m0 65 m0 65 m0 65 m0 65 m0 65 m0 65 m0 65 m0 65 m0 65 m0 65 m0 65 m0 79 m0 99 m0 115 m0 66 m0 69 m0 73 m0 102 m0 48 m0 76 m0 102 m0 50 m0 87 m0 72 m0 120 m0 77 m0 83 m0 88 m0 99 m0 54 m0 82 m0 97 m0 66 m0 76 m0 48 m0 114 m0 49 m0 75 m0 121 m0 80 m0 100 m0 110 m0 109 m0 65 m0 100 m0 69 m0 122 m0 109 m0 49 m0 56 m0 74 m0 106 m0 82 m0 98 m0 47 m0 90 m0 68 m0 113 m0 99 m0 89 m0 57 m0 112 m0 100 m0 79 m0 107 m0 78 m0 117 m0 110 m0 103 m0 82 m0 99 m0 66 m0 78 m0 77 m0 118 m0 119 m0 103 m0 61 m0 61"/>
</svg>