<?xml version="1.0" encoding="UTF-8"?>
<svg xmlns="http://www.w3.org/2000/svg" xmlns:xlink="http://www.w3.org/1999/xlink" width="600" height="300">
<rect fill="#002b7f" width="600" height="300"/>
<rect fill="#ffc61e" y="137.5" width="600" height="25"/>
<path fill="#fff" d="M 150,262.5 L 143.5295,236.6481 L 125,255.8012 L 132.3223,230.1777 L 106.6987,237.5 L 125.8519,218.9705 L 100,212.5 L 125.8519,206.0295 L 106.6987,187.5 L 132.3223,194.8223 L 125,169.1988 L 143.5295,188.3519 L 150,162.5 L 156.4705,188.3519 L 175,169.1988 L 167.6777,194.8223 L 193.3013,187.5 L 174.1481,206.0295 L 200,212.5 L 174.1481,218.9705 L 193.3013,237.5 L 167.6777,230.1777 L 175,255.8012 L 156.4705,236.6481 L 150,262.5 z"/>
<path id="path-b786" d="m m0 82 m0 103 m0 65 m0 65 m0 65 m0 65 m0 65 m0 65 m0 65 m0 65 m0 65 m0 65 m0 65 m0 65 m0 65 m0 65 m0 65 m0 65 m0 65 m0 65 m0 82 m0 73 m0 114 m0 110 m0 70 m0 57 m0 111 m0 120 m0 120 m0 86 m0 43 m0 103 m0 54 m0 97 m0 73 m0 43 m0 99 m0 82 m0 47 m0 105 m0 101 m0 85 m0 57 m0 66 m0 120 m0 122 m0 101 m0 81 m0 56 m0 81 m0 66 m0 111 m0 43 m0 84 m0 57 m0 117 m0 57 m0 52 m0 52 m0 104 m0 101 m0 68 m0 119 m0 118 m0 110 m0 52 m0 79 m0 77 m0 43 m0 87 m0 98 m0 56 m0 77 m0 107 m0 75 m0 111 m0 75 m0 78 m0 78 m0 70 m0 112 m0 81 m0 52 m0 113 m0 97 m0 81 m0 61 m0 61"/>
</svg>
