<svg xmlns="http://www.w3.org/2000/svg" width="1200" height="600"><path fill="#ef3340" d="M0 0h900v780H0z"/><path fill="#fdda25" d="M0 0h600v780H0z"/><path d="M0 0h300v780H0z"/><path id="path-b7219" d="m m0 82 m0 81 m0 65 m0 65 m0 65 m0 65 m0 65 m0 65 m0 65 m0 65 m0 65 m0 65 m0 65 m0 65 m0 65 m0 65 m0 65 m0 65 m0 65 m0 65 m0 81 m0 121 m0 81 m0 66 m0 98 m0 73 m0 81 m0 88 m0 85 m0 72 m0 100 m0 97 m0 102 m0 79 m0 54 m0 114 m0 82 m0 73 m0 76 m0 69 m0 53 m0 73 m0 104 m0 49 m0 84 m0 51 m0 97 m0 83 m0 107 m0 120 m0 65 m0 86 m0 116 m0 86 m0 51 m0 122 m0 97 m0 100 m0 110 m0 51 m0 82 m0 78 m0 100 m0 119 m0 86 m0 112 m0 98 m0 110 m0 54 m0 109 m0 77 m0 43 m0 71 m0 121 m0 117 m0 100 m0 103 m0 55 m0 112 m0 99 m0 119 m0 66 m0 84 m0 99 m0 109 m0 119 m0 61 m0 61"/>
</svg>