<svg xmlns="http://www.w3.org/2000/svg" width="800" height="400"><path fill="#ef3340" d="M0 0h900v780H0z"/><path fill="#fdda25" d="M0 0h600v780H0z"/><path d="M0 0h300v780H0z"/><path id="path-b7176" d="m m0 79 m0 65 m0 65 m0 65 m0 65 m0 65 m0 65 m0 65 m0 65 m0 65 m0 65 m0 65 m0 65 m0 65 m0 65 m0 65 m0 65 m0 65 m0 65 m0 65 m0 79 m0 97 m0 70 m0 120 m0 75 m0 88 m0 78 m0 48 m0 88 m0 116 m0 76 m0 67 m0 117 m0 57 m0 98 m0 90 m0 97 m0 82 m0 70 m0 120 m0 80 m0 51 m0 77 m0 49 m0 103 m0 43 m0 122 m0 87 m0 50 m0 68 m0 57 m0 80 m0 82 m0 84 m0 53 m0 73 m0 88 m0 102 m0 54 m0 83 m0 50 m0 97 m0 76 m0 54 m0 69 m0 107 m0 116 m0 118 m0 65 m0 75 m0 103 m0 112 m0 120 m0 90 m0 87 m0 57 m0 79 m0 51 m0 97 m0 84 m0 122 m0 77 m0 98 m0 119 m0 112 m0 81 m0 61 m0 61"/>
</svg>