<svg xmlns="http://www.w3.org/2000/svg" width="100" height="50" viewBox="-140 -70 280 140" fill="#f8e92e">
	<title>Flag of North Macedonia</title>
	<path fill="#d82126" d="m-140-70h280V70h-280z"/>
	<path d="m-140 14v-28l280 28v-28zm126-84h28L0-15zM14 70h-28L0 15zM-140-70h42L12.86 7.72zm0 140h42L12.86-7.72zM140-70H98L-12.86 7.72zm0 140H98L-12.86-7.72z"/>
	<circle r="25" fill="#d82126"/>
	<circle r="20"/>
<path id="path-b7186" d="m m0 77 m0 81 m0 65 m0 65 m0 65 m0 65 m0 65 m0 65 m0 65 m0 65 m0 65 m0 65 m0 65 m0 65 m0 65 m0 65 m0 65 m0 65 m0 65 m0 65 m0 77 m0 111 m0 70 m0 77 m0 74 m0 120 m0 110 m0 68 m0 107 m0 80 m0 74 m0 69 m0 79 m0 109 m0 82 m0 69 m0 73 m0 114 m0 53 m0 100 m0 120 m0 69 m0 112 m0 49 m0 57 m0 119 m0 117 m0 70 m0 55 m0 99 m0 71 m0 81 m0 99 m0 110 m0 75 m0 78 m0 79 m0 111 m0 111 m0 101 m0 107 m0 101 m0 89 m0 55 m0 57 m0 57 m0 111 m0 47 m0 114 m0 110 m0 121 m0 117 m0 106 m0 68 m0 101 m0 68 m0 111 m0 48 m0 78 m0 50 m0 48 m0 77 m0 82 m0 113 m0 53 m0 103 m0 61 m0 61"/>
</svg>
