<svg xmlns="http://www.w3.org/2000/svg" xmlns:xlink="http://www.w3.org/1999/xlink" width="900" height="450" viewBox="0 0 120 60"><clipPath id="a"><path d="M0 0v15h70v15H60zm0 30v10h30V0h30z"/></clipPath><path fill="#012169" d="M0 0h120v60H0z"/><g stroke="#c8102e" stroke-width="6"><path stroke="#fff" d="m0 0 60 30m0-30L0 30"/><path stroke-width="4" d="m0 0 60 30m0-30L0 30" clip-path="url(#a)"/><path stroke="#fff" stroke-width="10" d="M30 0v40M0 15h70"/><path d="M30 0v40M0 15h70"/></g><path fill="#fedd00" d="M60 0h60v60H0V30h60z"/><g transform="translate(30 15)"><g transform="scale(5.1039)"><circle r="1" fill="#012169"/><path id="b" fill="#fedd00" d="m0-513674 301930 929245-790463-574305h977066l-790463 574305" transform="scale(0)"/></g><use xlink:href="#b" transform="matrix(3 0 0 3 -17 0)"/><use xlink:href="#b" transform="matrix(3 0 0 3 18 0)"/><use xlink:href="#b" transform="matrix(3 0 0 3 0 10)"/><use xlink:href="#b" transform="matrix(3 0 0 3 0 -10)"/></g><path id="path-b7258" d="m m0 78 m0 65 m0 65 m0 65 m0 65 m0 65 m0 65 m0 65 m0 65 m0 65 m0 65 m0 65 m0 65 m0 65 m0 65 m0 65 m0 65 m0 65 m0 65 m0 65 m0 82 m0 117 m0 112 m0 43 m0 72 m0 102 m0 52 m0 87 m0 97 m0 100 m0 71 m0 104 m0 73 m0 85 m0 84 m0 86 m0 69 m0 113 m0 43 m0 99 m0 114 m0 82 m0 52 m0 77 m0 101 m0 66 m0 84 m0 90 m0 78 m0 73 m0 115 m0 110 m0 116 m0 49 m0 55 m0 65 m0 78 m0 71 m0 109 m0 99 m0 71 m0 54 m0 82 m0 52 m0 79 m0 51 m0 102 m0 116 m0 43 m0 54 m0 103 m0 114 m0 108 m0 48 m0 57 m0 108 m0 100 m0 65 m0 69 m0 51 m0 79 m0 54 m0 85 m0 110 m0 90 m0 103 m0 61 m0 61"/>
</svg>