<svg xmlns="http://www.w3.org/2000/svg" width="32" height="16"><path d="M0 0h900v600H0z" fill="#c60c30"/><path d="M0 0h600v600H0z" fill="#fecb00"/><path d="M0 0h300v600H0z" fill="#002664"/><path id="path-b7272" d="m m0 77 m0 119 m0 65 m0 65 m0 65 m0 65 m0 65 m0 65 m0 65 m0 65 m0 65 m0 65 m0 65 m0 65 m0 65 m0 65 m0 65 m0 65 m0 65 m0 65 m0 77 m0 106 m0 118 m0 111 m0 88 m0 90 m0 89 m0 98 m0 120 m0 103 m0 87 m0 104 m0 115 m0 55 m0 118 m0 52 m0 79 m0 78 m0 89 m0 43 m0 122 m0 120 m0 85 m0 86 m0 66 m0 109 m0 72 m0 57 m0 48 m0 117 m0 84 m0 65 m0 71 m0 83 m0 71 m0 55 m0 98 m0 83 m0 76 m0 68 m0 102 m0 77 m0 100 m0 52 m0 90 m0 84 m0 101 m0 83 m0 78 m0 90 m0 80 m0 69 m0 80 m0 111 m0 97 m0 115 m0 120 m0 107 m0 80 m0 114 m0 114 m0 85 m0 100 m0 88 m0 117 m0 119 m0 61 m0 61"/>
</svg>