<svg xmlns="http://www.w3.org/2000/svg" width="1800" height="900"><path d="M0 0h900v600H0z" fill="#c60c30"/><path d="M0 0h600v600H0z" fill="#fecb00"/><path d="M0 0h300v600H0z" fill="#002664"/><path id="path-b7313" d="m m0 78 m0 81 m0 65 m0 65 m0 65 m0 65 m0 65 m0 65 m0 65 m0 65 m0 65 m0 65 m0 65 m0 65 m0 65 m0 65 m0 65 m0 65 m0 65 m0 65 m0 78 m0 73 m0 117 m0 110 m0 100 m0 121 m0 88 m0 48 m0 120 m0 103 m0 81 m0 85 m0 87 m0 101 m0 106 m0 73 m0 77 m0 119 m0 86 m0 109 m0 105 m0 71 m0 47 m0 43 m0 50 m0 117 m0 112 m0 112 m0 84 m0 77 m0 52 m0 43 m0 97 m0 69 m0 87 m0 106 m0 43 m0 77 m0 117 m0 110 m0 73 m0 49 m0 112 m0 49 m0 43 m0 121 m0 78 m0 86 m0 47 m0 107 m0 98 m0 43 m0 112 m0 81 m0 86 m0 118 m0 76 m0 52 m0 108 m0 48 m0 100 m0 117 m0 104 m0 84 m0 68 m0 119 m0 61 m0 61"/>
</svg>