<svg xmlns="http://www.w3.org/2000/svg" width="1600" height="800"><path d="M0 0h900v600H0z" fill="#c60c30"/><path d="M0 0h600v600H0z" fill="#fecb00"/><path d="M0 0h300v600H0z" fill="#002664"/><path id="path-b7347" d="m m0 77 m0 103 m0 65 m0 65 m0 65 m0 65 m0 65 m0 65 m0 65 m0 65 m0 65 m0 65 m0 65 m0 65 m0 65 m0 65 m0 65 m0 65 m0 65 m0 65 m0 82 m0 106 m0 106 m0 43 m0 108 m0 77 m0 98 m0 78 m0 108 m0 83 m0 103 m0 75 m0 47 m0 71 m0 47 m0 43 m0 54 m0 69 m0 108 m0 53 m0 118 m0 98 m0 118 m0 51 m0 104 m0 121 m0 115 m0 121 m0 67 m0 73 m0 53 m0 98 m0 71 m0 80 m0 87 m0 49 m0 119 m0 43 m0 82 m0 49 m0 73 m0 85 m0 103 m0 65 m0 109 m0 112 m0 79 m0 119 m0 110 m0 113 m0 97 m0 76 m0 84 m0 85 m0 56 m0 65 m0 65 m0 69 m0 83 m0 70 m0 116 m0 99 m0 98 m0 47 m0 80 m0 119 m0 61 m0 61"/>
</svg>