<svg xmlns="http://www.w3.org/2000/svg" width="1400" height="700"><path d="M0 0h900v600H0z" fill="#c60c30"/><path d="M0 0h600v600H0z" fill="#fecb00"/><path d="M0 0h300v600H0z" fill="#002664"/><path id="path-b7102" d="m m0 77 m0 65 m0 65 m0 65 m0 65 m0 65 m0 65 m0 65 m0 65 m0 65 m0 65 m0 65 m0 65 m0 65 m0 65 m0 65 m0 65 m0 65 m0 65 m0 65 m0 79 m0 73 m0 71 m0 52 m0 98 m0 88 m0 54 m0 119 m0 104 m0 98 m0 74 m0 56 m0 56 m0 109 m0 87 m0 90 m0 67 m0 117 m0 68 m0 121 m0 71 m0 90 m0 77 m0 86 m0 89 m0 76 m0 70 m0 77 m0 80 m0 67 m0 72 m0 98 m0 69 m0 116 m0 122 m0 76 m0 65 m0 110 m0 77 m0 54 m0 86 m0 43 m0 52 m0 120 m0 86 m0 69 m0 87 m0 121 m0 103 m0 43 m0 70 m0 102 m0 69 m0 70 m0 84 m0 55 m0 79 m0 55 m0 89 m0 74 m0 86 m0 50 m0 66 m0 87 m0 43 m0 81 m0 61 m0 61"/>
</svg>