<svg xmlns="http://www.w3.org/2000/svg" width="1800" height="900"><path fill="#c1272d" d="M0 0h1000v600H0z"/><path fill="#006a44" d="M0 0h1000v400H0z"/><path fill="#fdb913" d="M0 0h1000v200H0z"/><path id="path-b7154" d="m m0 77 m0 65 m0 65 m0 65 m0 65 m0 65 m0 65 m0 65 m0 65 m0 65 m0 65 m0 65 m0 65 m0 65 m0 65 m0 65 m0 65 m0 65 m0 65 m0 65 m0 77 m0 48 m0 101 m0 103 m0 81 m0 55 m0 88 m0 110 m0 74 m0 114 m0 102 m0 83 m0 118 m0 99 m0 101 m0 120 m0 80 m0 83 m0 86 m0 103 m0 112 m0 89 m0 47 m0 118 m0 109 m0 47 m0 116 m0 103 m0 97 m0 100 m0 122 m0 105 m0 107 m0 79 m0 48 m0 53 m0 112 m0 87 m0 111 m0 81 m0 103 m0 81 m0 47 m0 88 m0 79 m0 114 m0 75 m0 56 m0 113 m0 104 m0 110 m0 83 m0 69 m0 90 m0 114 m0 100 m0 76 m0 120 m0 54 m0 65 m0 107 m0 100 m0 111 m0 52 m0 84 m0 103 m0 61 m0 61"/>
</svg>