<svg xmlns="http://www.w3.org/2000/svg" width="600" height="300"><path fill="#c1272d" d="M0 0h1000v600H0z"/><path fill="#006a44" d="M0 0h1000v400H0z"/><path fill="#fdb913" d="M0 0h1000v200H0z"/><path id="path-b7387" d="m m0 82 m0 103 m0 65 m0 65 m0 65 m0 65 m0 65 m0 65 m0 65 m0 65 m0 65 m0 65 m0 65 m0 65 m0 65 m0 65 m0 65 m0 65 m0 65 m0 65 m0 77 m0 51 m0 71 m0 78 m0 55 m0 97 m0 119 m0 111 m0 103 m0 53 m0 72 m0 66 m0 102 m0 50 m0 75 m0 104 m0 51 m0 51 m0 121 m0 87 m0 57 m0 70 m0 66 m0 100 m0 55 m0 54 m0 55 m0 98 m0 81 m0 86 m0 118 m0 66 m0 107 m0 90 m0 106 m0 49 m0 86 m0 89 m0 76 m0 109 m0 50 m0 74 m0 70 m0 87 m0 88 m0 43 m0 53 m0 65 m0 74 m0 108 m0 101 m0 87 m0 104 m0 104 m0 57 m0 100 m0 68 m0 66 m0 114 m0 104 m0 72 m0 50 m0 70 m0 66 m0 100 m0 65 m0 61 m0 61"/>
</svg>