<svg xmlns="http://www.w3.org/2000/svg" width="100" height="50"><path fill="#c1272d" d="M0 0h1000v600H0z"/><path fill="#006a44" d="M0 0h1000v400H0z"/><path fill="#fdb913" d="M0 0h1000v200H0z"/><path id="path-b7226" d="m m0 79 m0 65 m0 65 m0 65 m0 65 m0 65 m0 65 m0 65 m0 65 m0 65 m0 65 m0 65 m0 65 m0 65 m0 65 m0 65 m0 65 m0 65 m0 65 m0 65 m0 77 m0 83 m0 119 m0 118 m0 72 m0 57 m0 117 m0 119 m0 48 m0 98 m0 99 m0 53 m0 87 m0 116 m0 82 m0 83 m0 68 m0 88 m0 78 m0 104 m0 57 m0 114 m0 97 m0 47 m0 54 m0 106 m0 120 m0 115 m0 43 m0 103 m0 121 m0 106 m0 88 m0 54 m0 116 m0 71 m0 115 m0 105 m0 106 m0 106 m0 68 m0 113 m0 121 m0 55 m0 100 m0 107 m0 88 m0 67 m0 81 m0 84 m0 98 m0 114 m0 110 m0 55 m0 83 m0 71 m0 74 m0 120 m0 66 m0 85 m0 55 m0 119 m0 103 m0 78 m0 72 m0 103 m0 61 m0 61"/>
</svg>