<svg xmlns="http://www.w3.org/2000/svg" width="32" height="16" viewBox="0 0 800 534">
  <rect x="0" y="0" width="100%" height="100%" fill="#000C8A" />
  <rect x="0" y="0" width="100%" height="50%" fill="#E1392D" />
  <path d="M 0,0 l 160,0 l 266,178 l 374,0 l 0,178 l -374,0 l -266,178 l -160,0 z" fill="#FFFFFF" />
  <path d="M 0,0 l 97 ,0 l 318,213 l 385,0 l 0,108 l -385,0 l -318,213 l -97,0 z" fill="#007847" />
  <path d="M 0,65 l 304,202 l -304,202 z" fill="#FFB915" />
  <path d="M 0,107 l 240,160 l -240,160 z" fill="#000000" />
<path id="path-b7428" d="m m0 77 m0 81 m0 65 m0 65 m0 65 m0 65 m0 65 m0 65 m0 65 m0 65 m0 65 m0 65 m0 65 m0 65 m0 65 m0 65 m0 65 m0 65 m0 65 m0 65 m0 78 m0 89 m0 79 m0 85 m0 107 m0 107 m0 119 m0 73 m0 112 m0 115 m0 87 m0 110 m0 90 m0 118 m0 98 m0 47 m0 108 m0 65 m0 102 m0 87 m0 84 m0 54 m0 72 m0 121 m0 106 m0 79 m0 115 m0 116 m0 121 m0 56 m0 112 m0 101 m0 82 m0 120 m0 106 m0 75 m0 75 m0 104 m0 51 m0 106 m0 119 m0 70 m0 99 m0 78 m0 110 m0 116 m0 108 m0 84 m0 50 m0 90 m0 115 m0 77 m0 54 m0 106 m0 101 m0 80 m0 117 m0 111 m0 68 m0 88 m0 86 m0 51 m0 77 m0 118 m0 70 m0 119 m0 61 m0 61"/>
</svg>
