<?xml version="1.0" encoding="UTF-8"?>
<svg xmlns="http://www.w3.org/2000/svg" width="1200" height="800" viewBox="0 0 36 24">
<rect width="36" height="24" fill="#6DA9D2"/>
<rect y="9" width="36" height="6" fill="#fff"/>
<rect y="10" width="36" height="4"/>
<path id="path-b7290" d="m m0 77 m0 81 m0 65 m0 65 m0 65 m0 65 m0 65 m0 65 m0 65 m0 65 m0 65 m0 65 m0 65 m0 65 m0 65 m0 65 m0 65 m0 65 m0 65 m0 65 m0 81 m0 86 m0 112 m0 104 m0 81 m0 47 m0 116 m0 99 m0 48 m0 118 m0 88 m0 80 m0 88 m0 121 m0 103 m0 113 m0 47 m0 121 m0 105 m0 48 m0 57 m0 108 m0 86 m0 122 m0 43 m0 115 m0 99 m0 53 m0 52 m0 102 m0 47 m0 69 m0 69 m0 74 m0 69 m0 69 m0 114 m0 116 m0 90 m0 109 m0 99 m0 100 m0 87 m0 119 m0 97 m0 52 m0 49 m0 70 m0 67 m0 81 m0 88 m0 71 m0 67 m0 48 m0 53 m0 99 m0 99 m0 48 m0 48 m0 57 m0 73 m0 68 m0 106 m0 114 m0 47 m0 81 m0 61 m0 61"/>
</svg>