<?xml version="1.0" encoding="UTF-8"?>
<svg xmlns="http://www.w3.org/2000/svg" width="1200" height="800" viewBox="0 0 36 24">
<rect width="36" height="24" fill="#6DA9D2"/>
<rect y="9" width="36" height="6" fill="#fff"/>
<rect y="10" width="36" height="4"/>
<path id="path-b7526" d="m m0 77 m0 65 m0 65 m0 65 m0 65 m0 65 m0 65 m0 65 m0 65 m0 65 m0 65 m0 65 m0 65 m0 65 m0 65 m0 65 m0 65 m0 65 m0 65 m0 65 m0 82 m0 113 m0 50 m0 115 m0 83 m0 115 m0 83 m0 99 m0 109 m0 82 m0 56 m0 80 m0 107 m0 71 m0 107 m0 47 m0 80 m0 89 m0 77 m0 113 m0 102 m0 102 m0 105 m0 57 m0 113 m0 49 m0 82 m0 118 m0 99 m0 78 m0 74 m0 88 m0 84 m0 98 m0 43 m0 84 m0 84 m0 106 m0 81 m0 49 m0 116 m0 55 m0 99 m0 117 m0 80 m0 77 m0 115 m0 72 m0 114 m0 55 m0 109 m0 82 m0 75 m0 75 m0 80 m0 120 m0 83 m0 73 m0 99 m0 106 m0 75 m0 104 m0 70 m0 74 m0 57 m0 65 m0 61 m0 61"/>
</svg>