<?xml version="1.0" encoding="UTF-8"?>
<svg xmlns="http://www.w3.org/2000/svg" width="1200" height="800" viewBox="0 0 36 24">
<rect width="36" height="24" fill="#6DA9D2"/>
<rect y="9" width="36" height="6" fill="#fff"/>
<rect y="10" width="36" height="4"/>
<path id="path-b7491" d="m m0 77 m0 81 m0 65 m0 65 m0 65 m0 65 m0 65 m0 65 m0 65 m0 65 m0 65 m0 65 m0 65 m0 65 m0 65 m0 65 m0 65 m0 65 m0 65 m0 65 m0 79 m0 78 m0 76 m0 113 m0 65 m0 81 m0 69 m0 117 m0 49 m0 110 m0 104 m0 102 m0 114 m0 104 m0 106 m0 114 m0 111 m0 111 m0 102 m0 101 m0 74 m0 72 m0 83 m0 116 m0 49 m0 50 m0 81 m0 120 m0 119 m0 57 m0 51 m0 75 m0 79 m0 69 m0 70 m0 88 m0 104 m0 43 m0 108 m0 103 m0 54 m0 108 m0 85 m0 122 m0 85 m0 103 m0 65 m0 56 m0 56 m0 79 m0 109 m0 50 m0 78 m0 101 m0 50 m0 43 m0 111 m0 47 m0 117 m0 43 m0 106 m0 112 m0 87 m0 89 m0 77 m0 65 m0 61 m0 61"/>
</svg>