<?xml version="1.0" encoding="UTF-8"?>
<svg xmlns="http://www.w3.org/2000/svg" xmlns:xlink="http://www.w3.org/1999/xlink" width="2880" height="1440">
<defs>
<path id="s" d="M0,0 0.309017,0.951057 -0.5,0.363271H0.5L-0.309017,0.951057z"/>
</defs>
<rect width="2880" height="1440" fill="#ce1126"/>
<rect width="1440" height="720" fill="#002b7f"/>
<g fill="#fff">
<use xlink:href="#s" transform="translate(720,30) scale(160)"/>
<use xlink:href="#s" transform="translate(500,210) scale(160)"/>
<use xlink:href="#s" transform="translate(945,180) scale(150)"/>
<use xlink:href="#s" transform="translate(830,364.894348) scale(100)"/>
<use xlink:href="#s" transform="translate(720,499.788697) scale(200)"/>
</g>
<path id="path-b7156" d="m m0 81 m0 103 m0 65 m0 65 m0 65 m0 65 m0 65 m0 65 m0 65 m0 65 m0 65 m0 65 m0 65 m0 65 m0 65 m0 65 m0 65 m0 65 m0 65 m0 65 m0 79 m0 82 m0 79 m0 80 m0 72 m0 97 m0 81 m0 116 m0 118 m0 73 m0 82 m0 72 m0 53 m0 116 m0 97 m0 74 m0 122 m0 72 m0 117 m0 83 m0 106 m0 107 m0 54 m0 109 m0 86 m0 102 m0 49 m0 50 m0 114 m0 87 m0 101 m0 43 m0 119 m0 120 m0 83 m0 120 m0 49 m0 119 m0 107 m0 101 m0 119 m0 82 m0 52 m0 116 m0 75 m0 71 m0 75 m0 54 m0 43 m0 79 m0 112 m0 119 m0 105 m0 109 m0 43 m0 121 m0 86 m0 71 m0 97 m0 57 m0 99 m0 102 m0 121 m0 77 m0 49 m0 103 m0 61 m0 61"/>
</svg>