<svg xmlns="http://www.w3.org/2000/svg" xmlns:xlink="http://www.w3.org/1999/xlink" width="200" height="100" viewBox="-35 -30 200 100"><clipPath id="a"><path d="M-35-30h200V70H-35z"/></clipPath><path fill="#215b33" d="M-35-30h200V70H-35z"/><path fill="#0051ba" d="M-35 70V-30h200"/><path stroke="#fcd116" stroke-width="9" d="M165-30-35 70" clip-path="url(#a)"/><g id="d" fill="#fff" transform="scale(10)"><g id="c"><path id="b" d="M0 0v1h1z" transform="rotate(18 3 -1)"/><use xlink:href="#b" transform="scale(-1 1)"/></g><use xlink:href="#c" transform="rotate(72)"/><use xlink:href="#c" transform="rotate(-72)"/><use xlink:href="#c" transform="rotate(144)"/><use xlink:href="#c" transform="rotate(-144)"/></g><use xlink:href="#d" transform="translate(20 -17)"/><use xlink:href="#d" transform="translate(20 17)"/><use xlink:href="#d" transform="translate(-20 17)"/><use xlink:href="#d" transform="translate(-20 -17)"/><path id="path-b7506" d="m m0 82 m0 81 m0 65 m0 65 m0 65 m0 65 m0 65 m0 65 m0 65 m0 65 m0 65 m0 65 m0 65 m0 65 m0 65 m0 65 m0 65 m0 65 m0 65 m0 65 m0 82 m0 79 m0 53 m0 105 m0 107 m0 57 m0 66 m0 49 m0 102 m0 118 m0 115 m0 68 m0 99 m0 116 m0 83 m0 85 m0 65 m0 106 m0 57 m0 78 m0 84 m0 107 m0 80 m0 100 m0 115 m0 121 m0 72 m0 55 m0 68 m0 116 m0 81 m0 83 m0 109 m0 105 m0 112 m0 66 m0 84 m0 76 m0 90 m0 116 m0 68 m0 102 m0 43 m0 48 m0 85 m0 75 m0 84 m0 79 m0 106 m0 85 m0 82 m0 104 m0 90 m0 104 m0 99 m0 47 m0 99 m0 88 m0 100 m0 120 m0 107 m0 110 m0 116 m0 80 m0 50 m0 81 m0 61 m0 61"/>
</svg>