<?xml version="1.0" encoding="UTF-8"?>
<svg xmlns="http://www.w3.org/2000/svg" xmlns:xlink="http://www.w3.org/1999/xlink" width="900" height="600" viewBox="-36 -24 72 48">
<title>Flag of South Korea</title>
<path d="M-36-24h72v48h-72z" fill="#fff"/>
<g transform="rotate(-56.3099325)"><!--arctan(-3/2)-->
<g id="b2"><path id="b" d="M-6-26H6v2H-6zm0 3H6v2H-6zm0 3H6v2H-6z"/>
<use xlink:href="#b" y="44"/></g>
<path stroke="#fff" d="M0,17v10"/>
<path fill="#cd2e3a" d="M0-12A12 12 0 0 1 0 12z"/>
<path fill="#0047a0" d="M0-12A12 12 0 0 0 0 12 6 6 0 0 0 0 0z"/>
<circle cy="-6" fill="#cd2e3a" r="6"/></g>
<g transform="rotate(-123.6900675)"><use xlink:href="#b2"/>
<path stroke="#fff" d="M0-23.5v3M0,17v3.5M0,23.5v3"/></g><path id="path-b7340" d="m m0 82 m0 65 m0 65 m0 65 m0 65 m0 65 m0 65 m0 65 m0 65 m0 65 m0 65 m0 65 m0 65 m0 65 m0 65 m0 65 m0 65 m0 65 m0 65 m0 65 m0 82 m0 101 m0 66 m0 57 m0 69 m0 104 m0 113 m0 87 m0 74 m0 66 m0 80 m0 119 m0 112 m0 108 m0 53 m0 54 m0 87 m0 100 m0 117 m0 121 m0 54 m0 57 m0 69 m0 82 m0 119 m0 98 m0 119 m0 110 m0 76 m0 113 m0 98 m0 100 m0 113 m0 66 m0 116 m0 111 m0 56 m0 108 m0 47 m0 73 m0 66 m0 100 m0 99 m0 111 m0 89 m0 48 m0 112 m0 43 m0 119 m0 51 m0 116 m0 72 m0 69 m0 113 m0 50 m0 102 m0 110 m0 86 m0 49 m0 100 m0 105 m0 117 m0 52 m0 117 m0 120 m0 65 m0 61 m0 61"/>
</svg>
