<svg xmlns="http://www.w3.org/2000/svg" xmlns:xlink="http://www.w3.org/1999/xlink" width="300" height="150" viewBox="0 0 168 84">
	<title>Flag of São Tomé and Príncipe</title>
	<path fill="#009739" d="m0 0h168v84H0z"/>
	<path fill="#ffd100" d="m0 24h168v36H0z"/>
	<path fill="#ef3340" d="m42 42L0 84V0z"/>
	<path id="s" d="m84 29L92.448 55 70.331 38.931h27.338L75.552 55z"/>
	<use xlink:href="#s" x="42"/>
<path id="path-b7110" d="m m0 82 m0 65 m0 65 m0 65 m0 65 m0 65 m0 65 m0 65 m0 65 m0 65 m0 65 m0 65 m0 65 m0 65 m0 65 m0 65 m0 65 m0 65 m0 65 m0 65 m0 77 m0 50 m0 47 m0 55 m0 111 m0 56 m0 110 m0 110 m0 90 m0 103 m0 79 m0 87 m0 108 m0 54 m0 85 m0 85 m0 69 m0 122 m0 107 m0 70 m0 107 m0 84 m0 88 m0 86 m0 116 m0 83 m0 53 m0 99 m0 52 m0 98 m0 75 m0 114 m0 100 m0 79 m0 111 m0 114 m0 79 m0 108 m0 71 m0 86 m0 48 m0 108 m0 102 m0 107 m0 68 m0 77 m0 65 m0 76 m0 114 m0 75 m0 112 m0 51 m0 54 m0 104 m0 78 m0 102 m0 56 m0 101 m0 69 m0 117 m0 43 m0 111 m0 80 m0 113 m0 110 m0 103 m0 61 m0 61"/>
</svg>
