<svg xmlns="http://www.w3.org/2000/svg" xmlns:xlink="http://www.w3.org/1999/xlink" width="1600" height="800"><clipPath id="a"><path d="M0 0v475l420-195h480v-85H420z"/></clipPath><path fill="#009543" d="M0 0h900v475H0z"/><path fill="#d21034" d="M0 0h900v238H0z"/><g clip-path="url(#a)"><path stroke="#fdce12" stroke-width="110" d="m0 0 420 195h480v85H420L0 475"/><path fill="none" stroke="#000" stroke-width="60" d="m0 0 420 195h480m0 85H420L0 475"/></g><g fill="#fdce12"><path d="M107 283v27c23 0 70-18 70-76s-50-69-64-69c-15 0-61 11-61 58s45 52 54 52 42-8 38-44c0 11-12 32-36 32s-39-18-39-36c0-17 15-41 40-41 26 0 44 23 44 45 0 23-18 52-46 52z"/><g id="b"><path stroke="#fdce12" d="m86 248 2 1s11-26 41-44c-4 2-24 12-43 43z"/><path d="M89 243s-3-7 0-10 1 8 1 8l2-1s-2-9 0-11 1 8 1 8l1-1s-1-9 1-10c2-2 1 8 1 8l2-2s-2-8 1-10 1 7 1 7l1-2s0-7 2-9c2-1 0 7 0 7l2-1s-1-7 2-9c2-1 0 7 0 7l1-2s0-7 3-8-1 6-1 6l2-1s1-8 3-9c3-1-1 7-1 7l2-1s1-7 3-8c3-1-1 6-1 6l1-1s2-7 5-8c2-1-3 7-3 7l2-1s3-7 5-7c2-1-3 5-3 5l2-1s4-7 5-5c2 2-5 5-5 5l-2 1s8-3 9-1c1 1-11 3-11 3l-1 1s7-2 6 0-8 1-8 1l-2 1h7l-9 2-2 1s8-2 7 1c-1 2-10 2-10 2l-2 2s8-3 7-1c0 2-9 3-9 3l-2 2s8-3 6 0c-3 3-9 3-9 3l-2 3s8-5 7-2-9 5-9 5l-2 2s7-5 7-2c-1 2-9 5-9 5l-1 2s9-6 8-3-9 5-9 5l-1 1s8-4 8-2-10 4-10 4v-2z"/></g><use xlink:href="#b" transform="matrix(-1 0 0 1 220 0)"/></g><path id="path-b7138" d="m m0 78 m0 65 m0 65 m0 65 m0 65 m0 65 m0 65 m0 65 m0 65 m0 65 m0 65 m0 65 m0 65 m0 65 m0 65 m0 65 m0 65 m0 65 m0 65 m0 65 m0 82 m0 89 m0 74 m0 72 m0 97 m0 70 m0 85 m0 50 m0 47 m0 66 m0 65 m0 97 m0 89 m0 48 m0 70 m0 69 m0 97 m0 74 m0 84 m0 108 m0 81 m0 104 m0 78 m0 74 m0 87 m0 105 m0 97 m0 88 m0 70 m0 43 m0 55 m0 117 m0 57 m0 87 m0 89 m0 98 m0 120 m0 114 m0 97 m0 89 m0 70 m0 76 m0 80 m0 87 m0 102 m0 108 m0 75 m0 50 m0 106 m0 51 m0 117 m0 107 m0 104 m0 68 m0 114 m0 49 m0 54 m0 71 m0 110 m0 109 m0 56 m0 54 m0 75 m0 69 m0 86 m0 103 m0 61 m0 61"/>
</svg>