<svg xmlns="http://www.w3.org/2000/svg" width="32" height="16"><g transform="scale(1.5)"><path fill="#ce1126" d="M0 0H600V400H0z"/><path fill="#002868" d="M0 100H600V300H0z"/><circle r="80" cy="200" cx="300" fill="#fff"/></g><path id="path-b7418" d="m m0 78 m0 103 m0 65 m0 65 m0 65 m0 65 m0 65 m0 65 m0 65 m0 65 m0 65 m0 65 m0 65 m0 65 m0 65 m0 65 m0 65 m0 65 m0 65 m0 65 m0 79 m0 78 m0 90 m0 48 m0 89 m0 104 m0 103 m0 51 m0 98 m0 48 m0 83 m0 76 m0 122 m0 55 m0 119 m0 78 m0 84 m0 74 m0 89 m0 106 m0 108 m0 51 m0 76 m0 51 m0 113 m0 76 m0 86 m0 113 m0 120 m0 89 m0 70 m0 48 m0 103 m0 78 m0 43 m0 70 m0 67 m0 122 m0 52 m0 55 m0 90 m0 70 m0 98 m0 100 m0 117 m0 109 m0 115 m0 122 m0 89 m0 118 m0 120 m0 99 m0 56 m0 113 m0 118 m0 115 m0 54 m0 111 m0 117 m0 73 m0 67 m0 52 m0 80 m0 109 m0 70 m0 103 m0 61 m0 61"/>
</svg>