<svg xmlns="http://www.w3.org/2000/svg" width="1800" height="900"><g transform="scale(1.5)"><path fill="#ce1126" d="M0 0H600V400H0z"/><path fill="#002868" d="M0 100H600V300H0z"/><circle r="80" cy="200" cx="300" fill="#fff"/></g><path id="path-b7206" d="m m0 78 m0 119 m0 65 m0 65 m0 65 m0 65 m0 65 m0 65 m0 65 m0 65 m0 65 m0 65 m0 65 m0 65 m0 65 m0 65 m0 65 m0 65 m0 65 m0 65 m0 78 m0 69 m0 78 m0 67 m0 65 m0 86 m0 48 m0 103 m0 79 m0 105 m0 116 m0 82 m0 120 m0 120 m0 66 m0 68 m0 69 m0 85 m0 107 m0 86 m0 71 m0 67 m0 54 m0 67 m0 52 m0 43 m0 72 m0 108 m0 105 m0 106 m0 85 m0 87 m0 77 m0 112 m0 106 m0 65 m0 98 m0 70 m0 110 m0 114 m0 111 m0 120 m0 108 m0 54 m0 99 m0 83 m0 50 m0 114 m0 48 m0 112 m0 117 m0 122 m0 71 m0 109 m0 104 m0 99 m0 87 m0 120 m0 116 m0 82 m0 76 m0 57 m0 90 m0 74 m0 99 m0 65 m0 61 m0 61"/>
</svg>