<svg xmlns="http://www.w3.org/2000/svg" width="800" height="400"><g transform="scale(1.5)"><path fill="#ce1126" d="M0 0H600V400H0z"/><path fill="#002868" d="M0 100H600V300H0z"/><circle r="80" cy="200" cx="300" fill="#fff"/></g><path id="path-b7408" d="m m0 77 m0 119 m0 65 m0 65 m0 65 m0 65 m0 65 m0 65 m0 65 m0 65 m0 65 m0 65 m0 65 m0 65 m0 65 m0 65 m0 65 m0 65 m0 65 m0 65 m0 81 m0 100 m0 47 m0 52 m0 76 m0 107 m0 116 m0 119 m0 66 m0 76 m0 112 m0 97 m0 68 m0 80 m0 74 m0 117 m0 98 m0 65 m0 88 m0 47 m0 47 m0 120 m0 89 m0 68 m0 53 m0 100 m0 80 m0 97 m0 79 m0 112 m0 65 m0 66 m0 113 m0 70 m0 79 m0 66 m0 51 m0 90 m0 53 m0 50 m0 89 m0 97 m0 84 m0 49 m0 108 m0 98 m0 99 m0 97 m0 114 m0 79 m0 107 m0 65 m0 47 m0 118 m0 48 m0 80 m0 47 m0 114 m0 47 m0 83 m0 85 m0 72 m0 67 m0 99 m0 114 m0 103 m0 61 m0 61"/>
</svg>