<svg xmlns="http://www.w3.org/2000/svg" xmlns:xlink="http://www.w3.org/1999/xlink" width="1600" height="800" fill="#00f" viewBox="0 0 240 120"><path fill="red" d="M0 0h240v120H0Z"/><path d="M0 0h240v80H0Z"/><path fill="#fff" d="M0 0h240v40H0Z"/><g transform="translate(60 60) scale(.3914)"><path d="M-37-94a92 92 0 0 1 74 0Q43-12 0-1q-43-11-37-93Z"/><path id="a" fill="#ff0" d="m0-84 1 2h3l-2 2 2 2H1l-1 3-1-3h-3l2-2-2-2h3"/><use xlink:href="#a" x="-11" y="-14"/><use xlink:href="#a" x="11" y="-14"/><path fill="#fff" d="m0-70 9 18 6-8 15 20a10 10 0 0 1 0 3A46 46 0 0 1 0-6a46 46 0 0 1-30-31 10 10 0 0 1 0-3l15-20 6 8z"/><path id="b" d="M-30-37a10 10 0 0 0 15 6 10 10 0 0 1 10 0 10 10 0 0 0 10 0 10 10 0 0 1 10 0 10 10 0 0 0 15-6v7a10 10 0 0 0-5 2 10 10 0 0 1-10 0 10 10 0 0 0-10 0 10 10 0 0 1-10 0 10 10 0 0 0-10 0 10 10 0 0 1-10 0 10 10 0 0 0-5-2v-7"/><use xlink:href="#b" y="6"/><path fill="red" d="M-40-93a92 92 0 0 1 3-1l3 47A49 49 0 0 0 0-3a49 49 0 0 0 34-44l3-47a92 92 0 0 1 3 1l-3 46A52 52 0 0 1 0 0a52 52 0 0 1-37-47Z"/></g><path id="path-b7199" d="m m0 81 m0 81 m0 65 m0 65 m0 65 m0 65 m0 65 m0 65 m0 65 m0 65 m0 65 m0 65 m0 65 m0 65 m0 65 m0 65 m0 65 m0 65 m0 65 m0 65 m0 82 m0 69 m0 54 m0 121 m0 114 m0 117 m0 89 m0 71 m0 80 m0 119 m0 121 m0 77 m0 68 m0 74 m0 51 m0 120 m0 121 m0 43 m0 47 m0 117 m0 67 m0 113 m0 105 m0 88 m0 97 m0 110 m0 110 m0 114 m0 108 m0 119 m0 68 m0 76 m0 118 m0 117 m0 100 m0 106 m0 53 m0 65 m0 88 m0 105 m0 102 m0 52 m0 86 m0 116 m0 84 m0 115 m0 116 m0 105 m0 51 m0 99 m0 89 m0 57 m0 111 m0 54 m0 110 m0 52 m0 76 m0 66 m0 90 m0 106 m0 89 m0 79 m0 116 m0 72 m0 82 m0 65 m0 61 m0 61"/>
</svg>