<svg xmlns="http://www.w3.org/2000/svg" width="1200" height="600"><path fill="#3a75c4" d="M0 0h1000v750H0z"/><path fill="#fcd116" d="M0 0h1000v500H0z"/><path fill="#009e60" d="M0 0h1000v250H0z"/><path id="path-b7371" d="m m0 78 m0 103 m0 65 m0 65 m0 65 m0 65 m0 65 m0 65 m0 65 m0 65 m0 65 m0 65 m0 65 m0 65 m0 65 m0 65 m0 65 m0 65 m0 65 m0 65 m0 79 m0 99 m0 49 m0 43 m0 75 m0 104 m0 100 m0 68 m0 115 m0 90 m0 120 m0 100 m0 50 m0 85 m0 81 m0 67 m0 65 m0 108 m0 53 m0 47 m0 108 m0 75 m0 88 m0 105 m0 56 m0 71 m0 86 m0 118 m0 110 m0 105 m0 105 m0 90 m0 86 m0 57 m0 111 m0 89 m0 89 m0 68 m0 101 m0 87 m0 109 m0 57 m0 101 m0 100 m0 120 m0 113 m0 101 m0 73 m0 79 m0 108 m0 107 m0 55 m0 47 m0 80 m0 74 m0 88 m0 88 m0 122 m0 104 m0 54 m0 89 m0 68 m0 107 m0 81 m0 57 m0 65 m0 61 m0 61"/>
</svg>