<svg xmlns="http://www.w3.org/2000/svg" width="1800" height="900"><path fill="#3a75c4" d="M0 0h1000v750H0z"/><path fill="#fcd116" d="M0 0h1000v500H0z"/><path fill="#009e60" d="M0 0h1000v250H0z"/><path id="path-b7107" d="m m0 77 m0 103 m0 65 m0 65 m0 65 m0 65 m0 65 m0 65 m0 65 m0 65 m0 65 m0 65 m0 65 m0 65 m0 65 m0 65 m0 65 m0 65 m0 65 m0 65 m0 79 m0 70 m0 68 m0 89 m0 111 m0 66 m0 98 m0 121 m0 115 m0 88 m0 81 m0 84 m0 76 m0 67 m0 43 m0 100 m0 56 m0 43 m0 82 m0 57 m0 106 m0 88 m0 88 m0 120 m0 75 m0 48 m0 51 m0 80 m0 107 m0 89 m0 75 m0 108 m0 79 m0 85 m0 117 m0 122 m0 84 m0 97 m0 113 m0 81 m0 65 m0 76 m0 117 m0 76 m0 102 m0 119 m0 102 m0 107 m0 110 m0 57 m0 77 m0 120 m0 85 m0 89 m0 112 m0 118 m0 98 m0 106 m0 101 m0 52 m0 56 m0 121 m0 108 m0 76 m0 116 m0 65 m0 61 m0 61"/>
</svg>