<svg xmlns="http://www.w3.org/2000/svg" width="1600" height="800"><path fill="#3a75c4" d="M0 0h1000v750H0z"/><path fill="#fcd116" d="M0 0h1000v500H0z"/><path fill="#009e60" d="M0 0h1000v250H0z"/><path id="path-b7498" d="m m0 78 m0 103 m0 65 m0 65 m0 65 m0 65 m0 65 m0 65 m0 65 m0 65 m0 65 m0 65 m0 65 m0 65 m0 65 m0 65 m0 65 m0 65 m0 65 m0 65 m0 77 m0 80 m0 109 m0 79 m0 88 m0 119 m0 43 m0 43 m0 113 m0 113 m0 65 m0 86 m0 82 m0 110 m0 121 m0 122 m0 77 m0 53 m0 53 m0 73 m0 50 m0 68 m0 111 m0 57 m0 85 m0 109 m0 114 m0 43 m0 66 m0 72 m0 110 m0 77 m0 50 m0 118 m0 47 m0 106 m0 72 m0 57 m0 76 m0 78 m0 81 m0 49 m0 56 m0 122 m0 82 m0 99 m0 84 m0 88 m0 69 m0 97 m0 68 m0 103 m0 47 m0 77 m0 86 m0 78 m0 114 m0 110 m0 69 m0 82 m0 78 m0 53 m0 90 m0 102 m0 114 m0 119 m0 61 m0 61"/>
</svg>