<svg xmlns="http://www.w3.org/2000/svg" width="900" height="450"><path fill="#3a75c4" d="M0 0h1000v750H0z"/><path fill="#fcd116" d="M0 0h1000v500H0z"/><path fill="#009e60" d="M0 0h1000v250H0z"/><path id="path-b7444" d="m m0 79 m0 81 m0 65 m0 65 m0 65 m0 65 m0 65 m0 65 m0 65 m0 65 m0 65 m0 65 m0 65 m0 65 m0 65 m0 65 m0 65 m0 65 m0 65 m0 65 m0 81 m0 98 m0 65 m0 101 m0 73 m0 103 m0 57 m0 121 m0 57 m0 69 m0 79 m0 87 m0 113 m0 113 m0 82 m0 84 m0 50 m0 55 m0 75 m0 80 m0 120 m0 82 m0 66 m0 97 m0 86 m0 55 m0 106 m0 102 m0 65 m0 105 m0 47 m0 105 m0 78 m0 80 m0 108 m0 49 m0 52 m0 75 m0 115 m0 49 m0 55 m0 49 m0 102 m0 122 m0 97 m0 71 m0 100 m0 90 m0 109 m0 50 m0 99 m0 81 m0 105 m0 100 m0 106 m0 82 m0 77 m0 109 m0 122 m0 47 m0 67 m0 104 m0 73 m0 79 m0 74 m0 119 m0 61 m0 61"/>
</svg>