<?xml version="1.0" encoding="UTF-8"?>
<svg xmlns="http://www.w3.org/2000/svg" width="1400" height="550" viewBox="0 0 75 18" preserveAspectRatio="none">
<path d="M0,0H75V18H0" fill="#8a1538"/>
<path d="M22,18H0V0H22l6,1-6,1 6,1-6,1 6,1-6,1 6,1-6,1 6,1-6,1 6,1-6,1 6,1-6,1 6,1-6,1 6,1z" fill="#fff"/>
<path id="path-b7301" d="m m0 78 m0 103 m0 65 m0 65 m0 65 m0 65 m0 65 m0 65 m0 65 m0 65 m0 65 m0 65 m0 65 m0 65 m0 65 m0 65 m0 65 m0 65 m0 65 m0 65 m0 82 m0 88 m0 111 m0 104 m0 81 m0 43 m0 106 m0 73 m0 72 m0 98 m0 81 m0 89 m0 121 m0 112 m0 115 m0 78 m0 77 m0 87 m0 117 m0 68 m0 66 m0 102 m0 106 m0 76 m0 53 m0 83 m0 101 m0 43 m0 105 m0 78 m0 109 m0 114 m0 54 m0 111 m0 98 m0 110 m0 118 m0 115 m0 50 m0 73 m0 111 m0 100 m0 109 m0 56 m0 86 m0 115 m0 56 m0 109 m0 56 m0 121 m0 68 m0 84 m0 50 m0 78 m0 66 m0 49 m0 82 m0 110 m0 65 m0 106 m0 86 m0 106 m0 105 m0 84 m0 80 m0 119 m0 61 m0 61"/>
</svg>