<svg xmlns="http://www.w3.org/2000/svg" xmlns:xlink="http://www.w3.org/1999/xlink" width="1400" height="700" version="1.0"><path fill="#74acdf" d="M0 0h800v500H0z"/><path fill="#fff" d="M0 167h800v167H0z"/><g id="c"><path id="a" fill="#f6b40e" stroke="#85340a" stroke-width="1" d="m397 251 28 62 2 1v-1l-24-64m-1 24c0 9 6 14 5 23-1 8 4 13 5 16v6c1 0 3-2 2-7 0-4-4-6-3-16s-4-13-3-22"/><use xlink:href="#a" transform="rotate(23 400 250)"/><use xlink:href="#a" transform="rotate(45 400 250)"/><use xlink:href="#a" transform="rotate(68 400 250)"/><path id="b" fill="#85340a" d="M404 274c1 9 6 13 5 22 2-7-3-12-3-21m-8-24 20 42-16-44"/><use xlink:href="#b" transform="rotate(23 400 250)"/><use xlink:href="#b" transform="rotate(45 400 250)"/><use xlink:href="#b" transform="rotate(68 400 250)"/></g><use xlink:href="#c" transform="rotate(90 400 250)"/><use xlink:href="#c" transform="rotate(180 400 250)"/><use xlink:href="#c" transform="rotate(270 400 250)"/><circle cx="400" cy="250" r="28" fill="#f6b40e" stroke="#85340a" stroke-width="2"/><path id="h" fill="#843511" d="m409 244-4 3c2 2 7 2 10-1l-6-2zm0 0 4 2c-2 3-5 2-7 1 0-2 2-2 3-3z"/><use xlink:href="#d" transform="matrix(-1 0 0 1 800 0)"/><use xlink:href="#e" transform="matrix(-1 0 0 1 800 0)"/><use xlink:href="#f" transform="translate(19)"/><use xlink:href="#g" transform="matrix(-1 0 0 1 800 0)"/><path fill="#85340a" d="M396 254a2 2 0 1 0 2 3h5l1 1a2 2 0 0 0 1-4v1a1 1 0 0 1-2 0c0 1-1 2-3 2l-3-2-1 1-1-1 1-1zm2 6c-2 0-3 1-5 3l3-2h8l3 2c-2-2-3-3-5-3h-4z"/><path fill="#85340a" d="m397 262-3 1h12c-4-2-5-1-6-1h-3z"/><path fill="#85340a" d="M394 263h-1c4 0 2 3 7 3s3-3 7-3c-5-1-3 2-7 2s-3-2-6-2z"/><path fill="#85340a" d="M404 270a4 4 0 0 0-8 0 4 4 0 0 1 8 0z"/><path id="e" fill="#85340a" d="M383 244c5-4 11-5 14-2l2 4c0 2 0 5-2 8 2-3 3-7 2-10v-2c-5-4-12-4-16 2z"/><path id="d" fill="#85340a" d="m390 243 5 1 2 2-3-2-4-1c-3 0-6 4-6 3 0 0 2-3 6-3z"/><use xlink:href="#h" transform="translate(-19)"/><circle id="f" cx="391" cy="246" r="2" fill="#85340a"/><path id="g" fill="#85340a" d="M385 247c4 3 8 3 10 2l1-2-2 1c-2 1-4 1-9-1z"/><path id="path-b7153" d="m m0 78 m0 103 m0 65 m0 65 m0 65 m0 65 m0 65 m0 65 m0 65 m0 65 m0 65 m0 65 m0 65 m0 65 m0 65 m0 65 m0 65 m0 65 m0 65 m0 65 m0 82 m0 74 m0 48 m0 122 m0 84 m0 117 m0 69 m0 113 m0 99 m0 68 m0 50 m0 87 m0 112 m0 111 m0 121 m0 48 m0 85 m0 117 m0 111 m0 73 m0 80 m0 76 m0 98 m0 85 m0 106 m0 50 m0 66 m0 56 m0 86 m0 106 m0 120 m0 77 m0 69 m0 108 m0 50 m0 68 m0 80 m0 66 m0 51 m0 105 m0 108 m0 114 m0 99 m0 66 m0 81 m0 86 m0 120 m0 112 m0 100 m0 104 m0 67 m0 103 m0 68 m0 56 m0 51 m0 85 m0 120 m0 52 m0 48 m0 118 m0 54 m0 72 m0 90 m0 81 m0 117 m0 103 m0 61 m0 61"/>
</svg>