<?xml version="1.0" encoding="UTF-8"?>
<svg xmlns="http://www.w3.org/2000/svg" width="1200" height="600">
   <rect fill="#169b62" width="1200" height="600" />
   <rect fill="#fff" x="400" width="800" height="600" />
   <rect fill="#ff883e" x="800" width="400" height="600" />
<path id="path-b7237" d="m m0 77 m0 119 m0 65 m0 65 m0 65 m0 65 m0 65 m0 65 m0 65 m0 65 m0 65 m0 65 m0 65 m0 65 m0 65 m0 65 m0 65 m0 65 m0 65 m0 65 m0 77 m0 109 m0 51 m0 102 m0 119 m0 106 m0 100 m0 67 m0 89 m0 98 m0 105 m0 70 m0 107 m0 84 m0 57 m0 69 m0 55 m0 77 m0 67 m0 104 m0 109 m0 115 m0 87 m0 56 m0 79 m0 84 m0 84 m0 79 m0 121 m0 53 m0 103 m0 106 m0 75 m0 69 m0 84 m0 71 m0 111 m0 55 m0 48 m0 120 m0 86 m0 82 m0 80 m0 104 m0 71 m0 86 m0 65 m0 83 m0 84 m0 102 m0 89 m0 74 m0 118 m0 53 m0 106 m0 57 m0 115 m0 68 m0 55 m0 85 m0 82 m0 108 m0 50 m0 56 m0 122 m0 81 m0 61 m0 61"/>
</svg>