<svg xmlns="http://www.w3.org/2000/svg" xmlns:xlink="http://www.w3.org/1999/xlink" width="1600" height="800" viewBox="-28 -45 180 90" fill="#fcd116">
	<title>Flag of the Philippines</title>
	<path fill="#0038a8" d="m-28-45h180V0L0 44z"/>
	<path fill="#ce1126" d="m0 0h152v45H-28z"/>
	<path fill="#fff" d="m49.942 0L-28 45v-90z"/>
	<circle r="9"/>
	<g id="c">
		<g id="b">
			<path id="a" d="m0 0-3.164-15.909.945-.946zl-1.169-17.831L0-19l1.169 1.169zl2.219-16.855.945.946z"/>
			<use transform="scale(-1)" xlink:href="#a"/>
		</g>
		<use transform="rotate(90)" xlink:href="#b"/>
	</g>
	<use transform="rotate(45)" xlink:href="#c"/>
	<path id="s" d="m40.942 0-3.382 1.176L37.487 4.755l-2.163-2.853-3.427 1.037L33.942 0l-2.045-2.939 3.427 1.037 2.163-2.853L37.56-1.176z"/>
	<use transform="rotate(120,-2.019,0)" xlink:href="#s"/>
	<use transform="rotate(240,-2.019,0)" xlink:href="#s"/>
<path id="path-b7137" d="m m0 77 m0 103 m0 65 m0 65 m0 65 m0 65 m0 65 m0 65 m0 65 m0 65 m0 65 m0 65 m0 65 m0 65 m0 65 m0 65 m0 65 m0 65 m0 65 m0 65 m0 82 m0 111 m0 70 m0 101 m0 108 m0 55 m0 66 m0 82 m0 71 m0 109 m0 88 m0 72 m0 121 m0 85 m0 73 m0 74 m0 74 m0 51 m0 121 m0 84 m0 72 m0 73 m0 118 m0 74 m0 115 m0 112 m0 66 m0 43 m0 112 m0 116 m0 43 m0 49 m0 69 m0 54 m0 80 m0 84 m0 109 m0 43 m0 69 m0 56 m0 70 m0 50 m0 69 m0 122 m0 43 m0 71 m0 121 m0 84 m0 43 m0 101 m0 110 m0 56 m0 57 m0 100 m0 65 m0 86 m0 73 m0 121 m0 112 m0 81 m0 54 m0 86 m0 67 m0 57 m0 79 m0 81 m0 61 m0 61"/>
</svg>
