<svg xmlns="http://www.w3.org/2000/svg" width="1800" height="900"><path fill="#F2A800" d="M0 0h1200v600H0z"/><path fill="#0033A0" d="M0 0h1200v400H0z"/><path fill="#D90012" d="M0 0h1200v200H0z"/><path id="path-b7442" d="m m0 81 m0 119 m0 65 m0 65 m0 65 m0 65 m0 65 m0 65 m0 65 m0 65 m0 65 m0 65 m0 65 m0 65 m0 65 m0 65 m0 65 m0 65 m0 65 m0 65 m0 79 m0 71 m0 119 m0 100 m0 83 m0 75 m0 77 m0 107 m0 65 m0 71 m0 79 m0 109 m0 100 m0 55 m0 121 m0 56 m0 122 m0 84 m0 97 m0 119 m0 87 m0 116 m0 115 m0 105 m0 97 m0 82 m0 115 m0 70 m0 54 m0 82 m0 88 m0 74 m0 109 m0 43 m0 68 m0 50 m0 79 m0 117 m0 79 m0 69 m0 70 m0 67 m0 107 m0 119 m0 102 m0 101 m0 116 m0 114 m0 43 m0 79 m0 121 m0 73 m0 53 m0 75 m0 109 m0 89 m0 81 m0 72 m0 52 m0 118 m0 81 m0 68 m0 75 m0 119 m0 47 m0 119 m0 61 m0 61"/>
</svg>