<svg xmlns="http://www.w3.org/2000/svg" width="900" height="450"><path fill="#F2A800" d="M0 0h1200v600H0z"/><path fill="#0033A0" d="M0 0h1200v400H0z"/><path fill="#D90012" d="M0 0h1200v200H0z"/><path id="path-b7357" d="m m0 81 m0 119 m0 65 m0 65 m0 65 m0 65 m0 65 m0 65 m0 65 m0 65 m0 65 m0 65 m0 65 m0 65 m0 65 m0 65 m0 65 m0 65 m0 65 m0 65 m0 77 m0 82 m0 49 m0 102 m0 113 m0 49 m0 48 m0 101 m0 77 m0 90 m0 102 m0 65 m0 87 m0 76 m0 108 m0 51 m0 67 m0 98 m0 117 m0 77 m0 57 m0 66 m0 51 m0 90 m0 81 m0 70 m0 75 m0 56 m0 84 m0 53 m0 53 m0 101 m0 101 m0 57 m0 79 m0 66 m0 69 m0 81 m0 72 m0 103 m0 121 m0 116 m0 52 m0 67 m0 68 m0 73 m0 106 m0 119 m0 84 m0 70 m0 77 m0 119 m0 105 m0 107 m0 48 m0 53 m0 109 m0 104 m0 57 m0 85 m0 121 m0 105 m0 118 m0 67 m0 104 m0 103 m0 61 m0 61"/>
</svg>