<svg xmlns="http://www.w3.org/2000/svg" width="200" height="100"><path fill="#F2A800" d="M0 0h1200v600H0z"/><path fill="#0033A0" d="M0 0h1200v400H0z"/><path fill="#D90012" d="M0 0h1200v200H0z"/><path id="path-b796" d="m m0 77 m0 65 m0 65 m0 65 m0 65 m0 65 m0 65 m0 65 m0 65 m0 65 m0 65 m0 65 m0 65 m0 65 m0 65 m0 65 m0 65 m0 65 m0 65 m0 65 m0 78 m0 109 m0 74 m0 101 m0 57 m0 54 m0 102 m0 109 m0 112 m0 88 m0 77 m0 65 m0 113 m0 97 m0 119 m0 85 m0 107 m0 100 m0 102 m0 108 m0 75 m0 77 m0 55 m0 73 m0 82 m0 65 m0 77 m0 43 m0 52 m0 115 m0 108 m0 81 m0 105 m0 75 m0 102 m0 82 m0 80 m0 70 m0 55 m0 51 m0 88 m0 47 m0 76 m0 48 m0 98 m0 118 m0 75 m0 100 m0 80 m0 122 m0 104 m0 47 m0 104 m0 57 m0 101 m0 122 m0 48 m0 75 m0 113 m0 111 m0 71 m0 78 m0 65 m0 115 m0 112 m0 81 m0 61 m0 61"/>
</svg>