<?xml version="1.0" encoding="utf-8"?>
<svg xmlns="http://www.w3.org/2000/svg" width="900" height="600" viewBox="0 0 27 18">
<path fill="#418fde" d="M0,0h27v18H0V0z"/>
<path fill="#ffd100" d="M0,12h27v1H0v1h27v1H0V12z"/>
<polygon fill="#EF3340" stroke="#FFF" stroke-width="0.2" stroke-miterlimit="10" points="4.625,3.375 4,1.349609 3.375,3.375 1.349609,4 3.375,4.625 4,6.650391 4.625,4.625 6.650391,4"/>
<path id="path-b7511" d="m m0 79 m0 81 m0 65 m0 65 m0 65 m0 65 m0 65 m0 65 m0 65 m0 65 m0 65 m0 65 m0 65 m0 65 m0 65 m0 65 m0 65 m0 65 m0 65 m0 65 m0 82 m0 74 m0 77 m0 88 m0 81 m0 115 m0 47 m0 74 m0 100 m0 49 m0 97 m0 69 m0 66 m0 49 m0 74 m0 67 m0 75 m0 81 m0 111 m0 50 m0 98 m0 103 m0 107 m0 121 m0 87 m0 77 m0 57 m0 119 m0 103 m0 102 m0 77 m0 119 m0 84 m0 54 m0 98 m0 78 m0 54 m0 72 m0 77 m0 87 m0 108 m0 112 m0 112 m0 120 m0 72 m0 82 m0 56 m0 66 m0 47 m0 65 m0 81 m0 85 m0 107 m0 76 m0 56 m0 84 m0 83 m0 83 m0 110 m0 69 m0 79 m0 66 m0 79 m0 51 m0 102 m0 119 m0 61 m0 61"/>
</svg>