<?xml version="1.0" encoding="UTF-8"?><svg xmlns="http://www.w3.org/2000/svg" xmlns:xlink="http://www.w3.org/1999/xlink" width="900" height="450" viewBox="0 0 16 8"><rect width="16" height="8" fill="#002395"/><path d="m4.24,0h8v8z" fill="#fecb00"/><g id="g"><path d="M2.353283,0.5248529 2.8,-0.85 3.246717,0.524853 2.077197,-0.324853H3.522803z" fill="#fff" id="s"/><use xlink:href="#s" x="1" y="1"/><use xlink:href="#s" x="2" y="2"/></g><use xlink:href="#g" x="3" y="3"/><use xlink:href="#g" x="6" y="6"/><path id="path-b7320" d="m m0 77 m0 81 m0 65 m0 65 m0 65 m0 65 m0 65 m0 65 m0 65 m0 65 m0 65 m0 65 m0 65 m0 65 m0 65 m0 65 m0 65 m0 65 m0 65 m0 65 m0 77 m0 47 m0 74 m0 48 m0 113 m0 73 m0 51 m0 109 m0 73 m0 90 m0 57 m0 77 m0 106 m0 115 m0 88 m0 77 m0 51 m0 79 m0 88 m0 120 m0 84 m0 114 m0 90 m0 70 m0 115 m0 117 m0 85 m0 103 m0 78 m0 121 m0 78 m0 109 m0 121 m0 104 m0 106 m0 71 m0 77 m0 107 m0 73 m0 109 m0 102 m0 114 m0 69 m0 81 m0 48 m0 100 m0 103 m0 116 m0 116 m0 51 m0 107 m0 120 m0 77 m0 106 m0 114 m0 74 m0 111 m0 86 m0 54 m0 121 m0 104 m0 80 m0 72 m0 116 m0 121 m0 103 m0 61 m0 61"/>
</svg>
