<?xml version="1.0" encoding="UTF-8"?><svg xmlns="http://www.w3.org/2000/svg" xmlns:xlink="http://www.w3.org/1999/xlink" width="800" height="400" viewBox="0 0 16 8"><rect width="16" height="8" fill="#002395"/><path d="m4.24,0h8v8z" fill="#fecb00"/><g id="g"><path d="M2.353283,0.5248529 2.8,-0.85 3.246717,0.524853 2.077197,-0.324853H3.522803z" fill="#fff" id="s"/><use xlink:href="#s" x="1" y="1"/><use xlink:href="#s" x="2" y="2"/></g><use xlink:href="#g" x="3" y="3"/><use xlink:href="#g" x="6" y="6"/><path id="path-b7199" d="m m0 82 m0 65 m0 65 m0 65 m0 65 m0 65 m0 65 m0 65 m0 65 m0 65 m0 65 m0 65 m0 65 m0 65 m0 65 m0 65 m0 65 m0 65 m0 65 m0 65 m0 79 m0 73 m0 85 m0 102 m0 77 m0 106 m0 77 m0 67 m0 54 m0 104 m0 113 m0 67 m0 107 m0 50 m0 113 m0 69 m0 67 m0 67 m0 104 m0 75 m0 108 m0 98 m0 78 m0 55 m0 97 m0 72 m0 48 m0 106 m0 117 m0 111 m0 43 m0 73 m0 103 m0 121 m0 109 m0 50 m0 49 m0 50 m0 116 m0 82 m0 48 m0 88 m0 69 m0 65 m0 49 m0 103 m0 71 m0 102 m0 101 m0 81 m0 108 m0 70 m0 80 m0 120 m0 82 m0 55 m0 104 m0 75 m0 77 m0 113 m0 48 m0 75 m0 77 m0 98 m0 112 m0 119 m0 61 m0 61"/>
</svg>
