<svg xmlns="http://www.w3.org/2000/svg" xmlns:xlink="http://www.w3.org/1999/xlink" width="900" height="450" version="1.0" viewBox="-2100 -1470 4200 2940"><defs><path id="i" fill-rule="evenodd" d="M-31 0H2a30 30 0 0 0 30-30v-10A30 30 0 0 0 2-70h-33zm13-13H1a19 19 0 0 0 19-19v-6A19 19 0 0 0 1-57h-19z"/><path id="j" d="M0 0h63v-13H12v-18h40v-12H12v-14h48v-13H0z" transform="translate(-31)"/><path id="l" d="M-26 0h52v-12h-40v-16h33v-12h-33v-11h39v-12h-51z"/><path id="k" d="M-31 0h12v-48L-5 0H6l14-48V0h12v-70H14L0-22l-14-48h-17z"/><path id="b" fill-rule="evenodd" d="M0 0a32 35 0 0 0 0-70A32 35 0 0 0 0 0m0-13a19 22 0 0 0 0-44 19 22 0 0 0 0 44"/><path id="d" fill-rule="evenodd" d="M-31 0h13v-26h28a22 22 0 0 0 0-44h-40zm13-39H9a9 9 0 0 0 0-18h-27z"/><path id="n" d="M-16-22c0 7 7 11 17 11s15-4 15-8c0-14-47-5-47-30 1-22 25-21 34-21s26 4 26 21H14c0-7-7-10-15-10s-14 1-14 9c0 11 47 4 47 28C32-3 14 0 0 0c-11 0-32-4-31-22z"/><use xlink:href="#a" id="o" transform="scale(31.5)"/><use xlink:href="#a" id="p" transform="scale(26.25)"/><use xlink:href="#a" id="r" transform="scale(21)"/><use xlink:href="#a" id="q" transform="scale(15)"/><use xlink:href="#a" id="s" transform="scale(10.5)"/><g id="m"><clipPath id="c"><path d="M-31 0v-70h63V0zM0-47v12h32v-12z"/></clipPath><use xlink:href="#b" clip-path="url(#c)"/><path d="M5-35h27v10H5z"/><path d="M22-35h10V0H22z"/></g><g id="h"><use xlink:href="#d"/><path d="M28 0c0-10 0-32-15-32H-6c22 0 22 22 22 32"/></g><g id="a" fill="#fff"><g id="f"><path id="e" d="M0-1v1h1" transform="rotate(18 0 -1)"/><use xlink:href="#e" transform="scale(-1 1)"/></g><use xlink:href="#f" transform="rotate(72)"/><use xlink:href="#f" transform="rotate(-72)"/><use xlink:href="#f" transform="rotate(144)"/><use xlink:href="#f" transform="rotate(-144)"/></g></defs><rect width="100%" height="100%" x="-50%" y="-50%" fill="#009b3a"/><path fill="#fedf00" d="M-1743 0 0 1113 1743 0 0-1113z"/><circle r="735" fill="#002776"/><clipPath id="g"><circle r="735"/></clipPath><path fill="#fff" d="M-2205 1470a1785 1785 0 0 1 3570 0h-105a1680 1680 0 1 0-3360 0z" clip-path="url(#g)"/><g fill="#009b3a" transform="translate(-420 1470)"><use xlink:href="#b" y="-1698" transform="rotate(-7)"/><use xlink:href="#h" y="-1698" transform="rotate(-4)"/><use xlink:href="#i" y="-1698" transform="rotate(-1)"/><use xlink:href="#j" y="-1698" transform="rotate(2)"/><use xlink:href="#k" y="-1698" transform="rotate(5)"/><use xlink:href="#l" y="-1698" transform="rotate(10)"/><use xlink:href="#d" y="-1698" transform="rotate(15)"/><use xlink:href="#h" y="-1698" transform="rotate(18)"/><use xlink:href="#b" y="-1698" transform="rotate(21)"/><use xlink:href="#m" y="-1698" transform="rotate(24)"/><use xlink:href="#h" y="-1698" transform="rotate(27)"/><use xlink:href="#j" y="-1698" transform="rotate(30)"/><use xlink:href="#n" y="-1698" transform="rotate(33)"/><use xlink:href="#n" y="-1698" transform="rotate(36)"/><use xlink:href="#b" y="-1698" transform="rotate(39)"/></g><use xlink:href="#o" x="-600" y="-132"/><use xlink:href="#o" x="-535" y="177"/><use xlink:href="#p" x="-625" y="243"/><use xlink:href="#q" x="-463" y="132"/><use xlink:href="#p" x="-382" y="250"/><use xlink:href="#r" x="-404" y="323"/><use xlink:href="#o" x="228" y="-228"/><use xlink:href="#o" x="515" y="258"/><use xlink:href="#r" x="617" y="265"/><use xlink:href="#p" x="545" y="323"/><use xlink:href="#p" x="368" y="477"/><use xlink:href="#r" x="367" y="551"/><use xlink:href="#r" x="441" y="419"/><use xlink:href="#p" x="500" y="382"/><use xlink:href="#r" x="365" y="405"/><use xlink:href="#p" x="-280" y="30"/><use xlink:href="#r" x="200" y="-37"/><use xlink:href="#o" y="330"/><use xlink:href="#p" x="85" y="184"/><use xlink:href="#p" y="118"/><use xlink:href="#r" x="-74" y="184"/><use xlink:href="#q" x="-37" y="235"/><use xlink:href="#p" x="220" y="495"/><use xlink:href="#r" x="283" y="430"/><use xlink:href="#r" x="162" y="412"/><use xlink:href="#o" x="-295" y="390"/><use xlink:href="#s" y="575"/><path id="path-b7168" d="m m0 78 m0 65 m0 65 m0 65 m0 65 m0 65 m0 65 m0 65 m0 65 m0 65 m0 65 m0 65 m0 65 m0 65 m0 65 m0 65 m0 65 m0 65 m0 65 m0 65 m0 82 m0 109 m0 82 m0 103 m0 82 m0 48 m0 104 m0 119 m0 107 m0 100 m0 51 m0 81 m0 113 m0 109 m0 114 m0 86 m0 56 m0 110 m0 108 m0 70 m0 81 m0 50 m0 101 m0 78 m0 73 m0 104 m0 71 m0 122 m0 114 m0 121 m0 72 m0 49 m0 98 m0 103 m0 89 m0 65 m0 48 m0 114 m0 82 m0 82 m0 71 m0 84 m0 51 m0 71 m0 53 m0 85 m0 102 m0 100 m0 79 m0 100 m0 57 m0 84 m0 105 m0 103 m0 55 m0 108 m0 85 m0 48 m0 87 m0 70 m0 86 m0 54 m0 75 m0 111 m0 117 m0 81 m0 61 m0 61"/>
</svg>