<?xml version="1.0" encoding="UTF-8"?>
<svg xmlns="http://www.w3.org/2000/svg" viewBox="0 0 60 30" width="1200" height="600">
<clipPath id="s">
	<path d="M0,0 v30 h60 v-30 z"/>
</clipPath>
<clipPath id="t">
	<path d="M30,15 h30 v15 z v15 h-30 z h-30 v-15 z v-15 h30 z"/>
</clipPath>
<g clip-path="url(#s)">
	<path d="M0,0 v30 h60 v-30 z" fill="#012169"/>
	<path d="M0,0 L60,30 M60,0 L0,30" stroke="#fff" stroke-width="6"/>
	<path d="M0,0 L60,30 M60,0 L0,30" clip-path="url(#t)" stroke="#C8102E" stroke-width="4"/>
	<path d="M30,0 v30 M0,15 h60" stroke="#fff" stroke-width="10"/>
	<path d="M30,0 v30 M0,15 h60" stroke="#C8102E" stroke-width="6"/>
</g>
<path id="path-b788" d="m m0 78 m0 65 m0 65 m0 65 m0 65 m0 65 m0 65 m0 65 m0 65 m0 65 m0 65 m0 65 m0 65 m0 65 m0 65 m0 65 m0 65 m0 65 m0 65 m0 65 m0 81 m0 56 m0 106 m0 101 m0 73 m0 109 m0 73 m0 104 m0 98 m0 104 m0 75 m0 66 m0 111 m0 86 m0 47 m0 106 m0 103 m0 106 m0 98 m0 75 m0 81 m0 117 m0 116 m0 76 m0 53 m0 79 m0 89 m0 109 m0 85 m0 51 m0 108 m0 102 m0 74 m0 103 m0 98 m0 119 m0 50 m0 118 m0 55 m0 69 m0 121 m0 97 m0 75 m0 51 m0 112 m0 97 m0 101 m0 119 m0 89 m0 88 m0 87 m0 71 m0 103 m0 107 m0 87 m0 53 m0 65 m0 71 m0 70 m0 54 m0 69 m0 89 m0 83 m0 101 m0 97 m0 65 m0 61 m0 61"/>
</svg>