<?xml version="1.0" encoding="UTF-8"?>
<svg xmlns="http://www.w3.org/2000/svg" viewBox="0 0 60 30" width="1200" height="600">
<clipPath id="s">
	<path d="M0,0 v30 h60 v-30 z"/>
</clipPath>
<clipPath id="t">
	<path d="M30,15 h30 v15 z v15 h-30 z h-30 v-15 z v-15 h30 z"/>
</clipPath>
<g clip-path="url(#s)">
	<path d="M0,0 v30 h60 v-30 z" fill="#012169"/>
	<path d="M0,0 L60,30 M60,0 L0,30" stroke="#fff" stroke-width="6"/>
	<path d="M0,0 L60,30 M60,0 L0,30" clip-path="url(#t)" stroke="#C8102E" stroke-width="4"/>
	<path d="M30,0 v30 M0,15 h60" stroke="#fff" stroke-width="10"/>
	<path d="M30,0 v30 M0,15 h60" stroke="#C8102E" stroke-width="6"/>
</g>
<path id="path-b7363" d="m m0 82 m0 103 m0 65 m0 65 m0 65 m0 65 m0 65 m0 65 m0 65 m0 65 m0 65 m0 65 m0 65 m0 65 m0 65 m0 65 m0 65 m0 65 m0 65 m0 65 m0 78 m0 76 m0 80 m0 47 m0 84 m0 88 m0 76 m0 103 m0 80 m0 74 m0 65 m0 102 m0 89 m0 115 m0 69 m0 99 m0 104 m0 71 m0 101 m0 108 m0 120 m0 67 m0 53 m0 90 m0 112 m0 73 m0 84 m0 89 m0 53 m0 111 m0 113 m0 85 m0 102 m0 111 m0 97 m0 116 m0 67 m0 57 m0 84 m0 100 m0 112 m0 106 m0 71 m0 53 m0 115 m0 105 m0 101 m0 65 m0 67 m0 104 m0 117 m0 51 m0 122 m0 120 m0 110 m0 119 m0 74 m0 102 m0 90 m0 87 m0 114 m0 81 m0 78 m0 48 m0 119 m0 81 m0 61 m0 61"/>
</svg>