<svg xmlns="http://www.w3.org/2000/svg" width="1400" height="700"><path fill="#006a4e" d="M0 0h1000v600H0z"/><circle cx="450" cy="300" r="200" fill="#f42a41"/><path id="path-b7290" d="m m0 82 m0 65 m0 65 m0 65 m0 65 m0 65 m0 65 m0 65 m0 65 m0 65 m0 65 m0 65 m0 65 m0 65 m0 65 m0 65 m0 65 m0 65 m0 65 m0 65 m0 77 m0 112 m0 115 m0 117 m0 73 m0 51 m0 88 m0 120 m0 73 m0 66 m0 50 m0 81 m0 110 m0 43 m0 79 m0 112 m0 101 m0 43 m0 90 m0 50 m0 85 m0 74 m0 54 m0 53 m0 81 m0 114 m0 87 m0 87 m0 43 m0 99 m0 106 m0 56 m0 97 m0 82 m0 78 m0 111 m0 72 m0 103 m0 75 m0 118 m0 80 m0 76 m0 120 m0 87 m0 76 m0 99 m0 74 m0 50 m0 88 m0 78 m0 79 m0 52 m0 47 m0 110 m0 107 m0 67 m0 86 m0 69 m0 51 m0 98 m0 119 m0 69 m0 56 m0 69 m0 119 m0 103 m0 61 m0 61"/>
</svg>