<svg xmlns="http://www.w3.org/2000/svg" width="900" height="450"><path fill="#006a4e" d="M0 0h1000v600H0z"/><circle cx="450" cy="300" r="200" fill="#f42a41"/><path id="path-b7255" d="m m0 78 m0 81 m0 65 m0 65 m0 65 m0 65 m0 65 m0 65 m0 65 m0 65 m0 65 m0 65 m0 65 m0 65 m0 65 m0 65 m0 65 m0 65 m0 65 m0 65 m0 78 m0 85 m0 53 m0 49 m0 84 m0 43 m0 73 m0 65 m0 112 m0 97 m0 103 m0 87 m0 43 m0 52 m0 55 m0 98 m0 79 m0 70 m0 49 m0 111 m0 107 m0 122 m0 53 m0 57 m0 86 m0 122 m0 43 m0 109 m0 82 m0 49 m0 86 m0 107 m0 85 m0 102 m0 73 m0 112 m0 72 m0 84 m0 49 m0 100 m0 66 m0 83 m0 49 m0 121 m0 98 m0 85 m0 50 m0 81 m0 106 m0 80 m0 68 m0 71 m0 111 m0 77 m0 54 m0 122 m0 69 m0 47 m0 101 m0 49 m0 119 m0 121 m0 111 m0 90 m0 72 m0 103 m0 61 m0 61"/>
</svg>