<svg xmlns="http://www.w3.org/2000/svg" width="800" height="400"><path fill="#006a4e" d="M0 0h1000v600H0z"/><circle cx="450" cy="300" r="200" fill="#f42a41"/><path id="path-b7118" d="m m0 77 m0 103 m0 65 m0 65 m0 65 m0 65 m0 65 m0 65 m0 65 m0 65 m0 65 m0 65 m0 65 m0 65 m0 65 m0 65 m0 65 m0 65 m0 65 m0 65 m0 77 m0 56 m0 121 m0 54 m0 116 m0 117 m0 85 m0 107 m0 47 m0 68 m0 103 m0 77 m0 73 m0 121 m0 80 m0 89 m0 47 m0 75 m0 83 m0 99 m0 72 m0 116 m0 56 m0 121 m0 121 m0 114 m0 73 m0 88 m0 56 m0 114 m0 108 m0 107 m0 87 m0 117 m0 111 m0 71 m0 88 m0 68 m0 122 m0 54 m0 115 m0 111 m0 102 m0 97 m0 54 m0 108 m0 75 m0 109 m0 121 m0 43 m0 80 m0 70 m0 65 m0 115 m0 115 m0 56 m0 109 m0 83 m0 57 m0 82 m0 115 m0 122 m0 47 m0 68 m0 89 m0 81 m0 61 m0 61"/>
</svg>