<?xml version="1.0" ?><svg xmlns="http://www.w3.org/2000/svg"  width="1800" height="900" viewBox="0 0 25 18">	<path d="M0 0H25V18H0Z" fill="#02529C"/>	<path d="M0 9H25M9 0V18" stroke-width="4" stroke="#FFF"/>	<path d="M0 9H25M9 0V18" stroke-width="2" stroke="#DC1E35"/><path id="path-b7319" d="m m0 78 m0 81 m0 65 m0 65 m0 65 m0 65 m0 65 m0 65 m0 65 m0 65 m0 65 m0 65 m0 65 m0 65 m0 65 m0 65 m0 65 m0 65 m0 65 m0 65 m0 79 m0 88 m0 114 m0 56 m0 87 m0 56 m0 70 m0 122 m0 120 m0 88 m0 83 m0 80 m0 79 m0 90 m0 103 m0 57 m0 56 m0 97 m0 55 m0 98 m0 50 m0 68 m0 113 m0 116 m0 74 m0 70 m0 76 m0 48 m0 66 m0 73 m0 115 m0 69 m0 106 m0 114 m0 103 m0 79 m0 109 m0 98 m0 83 m0 53 m0 50 m0 57 m0 104 m0 68 m0 75 m0 121 m0 116 m0 81 m0 118 m0 99 m0 47 m0 83 m0 68 m0 99 m0 50 m0 51 m0 43 m0 80 m0 72 m0 103 m0 100 m0 97 m0 104 m0 111 m0 50 m0 81 m0 61 m0 61"/>
</svg>