<?xml version="1.0" ?><svg xmlns="http://www.w3.org/2000/svg"  width="900" height="450" viewBox="0 0 25 18">	<path d="M0 0H25V18H0Z" fill="#02529C"/>	<path d="M0 9H25M9 0V18" stroke-width="4" stroke="#FFF"/>	<path d="M0 9H25M9 0V18" stroke-width="2" stroke="#DC1E35"/><path id="path-b7308" d="m m0 81 m0 81 m0 65 m0 65 m0 65 m0 65 m0 65 m0 65 m0 65 m0 65 m0 65 m0 65 m0 65 m0 65 m0 65 m0 65 m0 65 m0 65 m0 65 m0 65 m0 81 m0 85 m0 47 m0 70 m0 113 m0 53 m0 53 m0 65 m0 55 m0 108 m0 109 m0 80 m0 70 m0 118 m0 108 m0 78 m0 99 m0 49 m0 66 m0 118 m0 118 m0 85 m0 97 m0 78 m0 85 m0 68 m0 52 m0 100 m0 84 m0 112 m0 100 m0 104 m0 88 m0 112 m0 101 m0 98 m0 100 m0 117 m0 102 m0 54 m0 121 m0 97 m0 83 m0 101 m0 82 m0 86 m0 115 m0 84 m0 116 m0 98 m0 90 m0 74 m0 100 m0 101 m0 86 m0 50 m0 71 m0 57 m0 72 m0 69 m0 75 m0 101 m0 82 m0 56 m0 109 m0 65 m0 61 m0 61"/>
</svg>