<?xml version="1.0" ?><svg xmlns="http://www.w3.org/2000/svg"  width="800" height="400" viewBox="0 0 25 18">	<path d="M0 0H25V18H0Z" fill="#02529C"/>	<path d="M0 9H25M9 0V18" stroke-width="4" stroke="#FFF"/>	<path d="M0 9H25M9 0V18" stroke-width="2" stroke="#DC1E35"/><path id="path-b7376" d="m m0 82 m0 103 m0 65 m0 65 m0 65 m0 65 m0 65 m0 65 m0 65 m0 65 m0 65 m0 65 m0 65 m0 65 m0 65 m0 65 m0 65 m0 65 m0 65 m0 65 m0 78 m0 80 m0 55 m0 54 m0 75 m0 90 m0 75 m0 85 m0 73 m0 50 m0 109 m0 109 m0 56 m0 56 m0 122 m0 71 m0 54 m0 53 m0 108 m0 101 m0 114 m0 114 m0 85 m0 89 m0 66 m0 69 m0 84 m0 53 m0 119 m0 109 m0 76 m0 120 m0 80 m0 111 m0 80 m0 109 m0 76 m0 86 m0 76 m0 106 m0 88 m0 57 m0 116 m0 65 m0 67 m0 87 m0 97 m0 117 m0 100 m0 54 m0 104 m0 113 m0 66 m0 49 m0 49 m0 70 m0 71 m0 68 m0 48 m0 55 m0 120 m0 111 m0 106 m0 77 m0 72 m0 103 m0 61 m0 61"/>
</svg>