<svg xmlns="http://www.w3.org/2000/svg" xmlns:xlink="http://www.w3.org/1999/xlink" width="32" height="16"><path fill="#5eb6e4" d="M0 0h800v600H0z"/><path fill="#fff" d="M0 0h800v300H0z"/><g fill="none" stroke="#000"><g fill="#fff"><circle cx="459" cy="171" r="4"/><circle cx="462" cy="157" r="5"/><circle cx="376" cy="142" r="4"/><circle cx="338" cy="157" r="5"/><circle cx="362" cy="143" r="4"/><circle cx="341" cy="171" r="4"/><circle cx="347" cy="147" r="5"/><circle cx="424" cy="142" r="4"/><circle cx="438" cy="143" r="4"/><circle cx="453" cy="147" r="5"/></g><circle cx="459" cy="171" r="4"/><circle cx="462" cy="157" r="6"/><circle cx="376" cy="142" r="4"/><circle cx="338" cy="157" r="6"/><circle cx="362" cy="143" r="5"/><circle cx="341" cy="171" r="4"/><circle cx="347" cy="147" r="5"/><circle cx="424" cy="142" r="4"/><circle cx="438" cy="143" r="5"/><circle cx="453" cy="147" r="5"/><g fill="#000" stroke-linecap="round" stroke-linejoin="round"><path d="M392 132c-13 16-37 8-47 14-19 11 1 36 5 40l21-5c-8-6-23-16-19-25 5-8 30 1 41-18 2-3 0-7-1-6z"/><path fill="#f1bf31" d="M392 132c-13 16-36 9-47 15-18 10 3 35 7 39l17-5c-7-6-22-17-17-25s30 0 41-18c2-4 0-6-1-6z"/><path d="M394 134c-15 19-37 9-46 17-11 9 5 26 12 33l1-1c-6-5-24-23-12-32 8-6 31 2 45-17z"/><path fill="#d99f31" stroke="none" d="m358 171-1 4c-7-8-11-16-6-22 4-6 15-3 26-7 6-2 11-4 15-10l-1 4c-12 15-35 8-39 16-3 5 1 10 6 15z"/><path stroke="none" d="m352 170 3-2 1 1-2 2-3 1-1-2h2zm-3-6 3-1v1l-2 1h-3l-1-1h3zm2-5-6-2 1-2c1 1 2 3 5 3v1zm2-4-4-4h1l3 3v1zm4-6 2 3h-1l-2-3h1zm7-1 2 3h-1l-2-3h1zm7-1 2 3h-1l-2-2 1-1zm6-1 3 2-1 1-3-3h1zm6-2 3 1-1 1-3-2h1zm5-3 2 1h-1l-2-1h1z"/><path fill="none" d="m394 134-1 4c-11 18-37 10-41 18-5 8 9 19 17 25l-4 1-2 1h-2c-6-5-24-22-12-32 8-6 31 3 45-17z"/><path d="M408 132c13 16 37 8 47 14 19 11-1 36-5 40l-20-5c7-6 22-16 18-25-5-8-30 1-41-18-2-3 0-7 1-6z"/><path fill="#f1bf31" d="M408 132c13 16 36 9 47 15 19 10-3 35-6 39l-18-5c7-6 22-17 17-25-4-8-30 0-40-18-3-4-1-6 0-6z"/><path d="M439 183c6-5 24-23 13-32-9-6-32 2-46-17h0c15 19 37 9 46 17 11 9-5 26-12 33z"/><path fill="#d99f31" stroke="none" d="m442 171 2 4c6-8 11-16 6-22s-16-3-27-7c-6-2-11-4-15-10l1 4c12 15 35 8 39 16 3 5-1 10-6 15z"/><path stroke="none" d="m448 171-3-2-1 1 2 1 3 1 1-1h-2zm3-7-3-1v1l2 1h3l1-1h-3zm-2-5 6-2-1-2c0 1-2 3-5 3v1zm-1-4 3-4h-1l-3 3 1 1zm-4-6-3 3h2l1-3zm-8-1-2 3h1l2-3h-1zm-6-1-3 3h1l2-2v-1zm-7-1-3 2 1 1 3-3h-1zm-6-2-3 1 1 1 3-2h-1zm-4-3-3 1h1l2-1z"/><path fill="none" d="m406 134 2 4c10 18 36 10 40 18 5 8-9 19-17 25l4 1 2 1h2c6-5 24-22 12-32-8-6-31 3-45-17z"/></g><path fill="#000" d="M400 167h-7v-11l-3-11 3-11h14l3 11-3 11v11h-7z"/><path fill="#f1bf31" stroke="none" d="M400 167h-7v-11c0-4-3-7-3-10 0-5 4-12 4-12h12s4 7 4 12c0 3-3 6-3 10v11h-7z"/><path fill="#d99f31" stroke="none" d="M390 144h1l2 1 7-1 7 1 2-1h1v2c0 3-3 6-3 10l-1 7-6 3-6-3-1-7c0-4-3-7-3-10v-2z"/><path fill="#000" stroke="none" d="m407 147-1 4-1 4 1 12-2-12 2-8v-7l-3-6h1l3 6v7zm-13 20 1-12-1-4-1-4c-1-3 0-6 1-9l2-4h1s-4 7-3 13l2 8-2 12z"/><path d="M400 167h-7v-11c0-4-3-7-3-10 0-5 4-12 4-12h12s4 7 4 12c0 3-3 6-3 10v11h-7z"/><circle cx="400" cy="141" r="3" fill="#fff"/><ellipse cx="400" cy="140" rx="4" ry="3"/><circle cx="400" cy="148" r="4" fill="#fff"/><circle cx="400" cy="148" r="4"/><path d="m360 204-1-2v-2l-4-6 8-8 17-4 20-2 20 2 17 4 8 8-4 6v2l-1 2-19-6-21-1-21 1-19 6z"/><path fill="#f1bf31" d="m361 204-1-2-1-3-4-5 8-8 17-4 20-2 21 2 16 4 8 8-4 5-1 3-1 2-18-6-21-1-21 1-18 6z"/><path fill="#000" d="M359 207a41 13 0 1 1 82 0 41 11 0 1 1-82 0z"/><path fill="#f1bf31" d="M360 207a40 12 0 1 1 80 0 40 11 0 1 1-80 0z"/><ellipse cx="400" cy="208" fill="#d99f31" rx="37" ry="9"/><path d="M437 210c-7 3-21 4-37 4s-30-1-36-4m72-4c-7 3-20 4-36 4s-29-1-36-4"/><path d="M432 204c-7 2-19 3-32 3s-25-1-32-3"/><path d="M427 202a148 148 0 0 1-54 0m46-2a176 176 0 0 1-38 0"/><ellipse cx="400" cy="208" rx="36" ry="9"/><path fill="#000" stroke-linejoin="round" d="M355 193c-4-5-7-8-15-11l5-2c3-1 6-1 8 1-2-6 1-12 1-12s5 0 10 4c0-7 2-10 2-10s5 0 10 6c1-7 5-11 5-11s6 2 10 8c2-9 9-13 9-13s7 4 9 13c4-6 10-8 10-8s4 3 5 11c5-6 10-6 10-6s2 3 2 10c5-4 10-2 10-2s3 4 1 10c2-2 5-2 8-1l5 2c-7 2-11 6-15 11-3-7-21-15-45-15s-42 8-45 15z"/><path fill="#f1bf31" stroke-linejoin="round" d="M355 192c-3-5-8-8-12-10l5-2 5 1c-1-5 1-11 1-11s5 0 10 4c0-7 3-10 3-10s4 1 10 6c1-7 4-11 4-11s7 2 10 8c2-9 9-13 9-13s7 4 9 13c4-6 10-8 10-8s4 3 5 11c5-5 10-6 10-6s2 3 2 10c5-4 10-3 10-3s2 5 1 10l6-1 5 2c-5 2-10 5-13 10-3-7-21-14-45-14s-42 7-45 14z"/><path fill="#000" d="M353 194c0-9 21-16 47-16s46 8 46 15c0 2-1 4-3 5v-2c0-7-17-14-43-14s-43 7-43 14l1 2c-3-1-5-2-5-4z"/><path fill="#f1bf31" d="M354 193c0-6 20-15 46-15s46 9 46 15c0 2-2 2-2 2-3-7-18-13-44-13s-41 6-44 13c0 0-2 0-2-2z"/><path fill="#000" stroke="none" d="M400 172v-8l1 8v6h-2l1-6zm38 14a85 85 0 0 0 3-7l-2 4-2 2zm-13-5 2-4 3-5-2 5-2 4zm-11-2a168 168 0 0 1 3-11 301 301 0 0 0-2 11zm-40 2-2-4-2-5a79 79 0 0 0 5 9zm11-2a530 530 0 0 0 2 0zm-23 7-1-3-2-4a132 132 0 0 0 4 6z"/><g stroke-linecap="round" stroke-linejoin="round"><path fill="#d99f31" d="M362 197c-1-1-2-3-4-3-1 0-3 2-2 4 0 2 2 4 4 3l2-4z"/><path fill="#f1bf31" stroke="none" d="M359 195a2 2 0 0 1-3 4v-1l2-3h1z"/><path d="m361 197-3-2-2 3 3 3c2 0 2-2 2-4z"/><path fill="#d99f31" d="M375 193v-4l-3-1-4 1-4 2-1 1 1 4 1 1 9-2 1-2z"/><path fill="#f1bf31" stroke="none" d="m365 195 8-2v-4l-1-1-8 3 1 4z"/><path d="m365 195 8-2v-4m2 4-2-1"/><path fill="#f1bf31" stroke="none" d="M386 189a2 2 0 1 1 3 0 2 2 0 0 1-3 0zm-4 3a2 2 0 1 1 3 0 2 2 0 0 1-3 0zm-3-2 1-2 2 1-2 2-1-1zm3-4a2 2 0 1 1 3 0 2 2 0 0 1-3 0z"/><path fill="#d99f31" stroke="none" d="M386 189a2 2 0 0 1 3 0 2 2 0 0 1-3 0zm-4-2a2 2 0 0 0 3 0 2 2 0 0 0-3 0zm-3 3 1 1 1-1-1-1-1 1zm3 3a2 2 0 0 0 3 0 2 2 0 0 0-3 0z"/><path d="M386 189a2 2 0 1 1 3 0 2 2 0 0 1-3 0zm-4 3a2 2 0 1 1 3 0 2 2 0 0 1-3 0zm-3-2 1-2 2 1-2 2-1-1zm3-4a2 2 0 1 1 3 0 2 2 0 0 1-3 0z"/><path fill="#d99f31" stroke="none" d="M393 190v-4l2-2h10l2 2v4l-2 2h-10z"/><path fill="#f1bf31" stroke="none" d="m405 185-1 1v4h-8v-4l-1-1z"/><path d="M393 190v-4l2-2h10l2 2v4l-2 2h-10z"/><path d="m393 190 3-1m11 1-3-1m-9 3 1-2m9 2-1-2m0-4v4h-8v-4"/><path fill="#f1bf31" stroke="none" d="M414 189a2 2 0 1 0-3 0 2 2 0 0 0 3 0zm4 3a2 2 0 1 0-3 0 2 2 0 0 0 3 0zm3-2-1-2-1 1c-1 1 0 2 1 2l1-1zm-3-4a2 2 0 1 0-3 0 2 2 0 0 0 3 0z"/><path fill="#d99f31" stroke="none" d="M414 189a2 2 0 0 0-3 0 2 2 0 0 0 3 0zm1-2a2 2 0 0 0 3 0 2 2 0 0 0-3 0zm4 3 1 1 1-1-1-1-1 1zm-4 3a2 2 0 0 0 3 0 2 2 0 0 0-3 0z"/><path d="M414 189a2 2 0 1 0-3 0 2 2 0 0 0 3 0zm4 3a2 2 0 1 0-3 0 2 2 0 0 0 3 0zm3-2-1-2-1 1c-1 1 0 2 1 2l1-1zm-3-4a2 2 0 1 0-3 0 2 2 0 0 0 3 0z"/><path fill="#d99f31" d="M425 193v-4l3-1 4 1 4 2 1 1-1 4-1 1-9-2-1-2z"/><path fill="#f1bf31" stroke="none" d="m435 195-8-2v-1l1-3v-1l8 3-1 4z"/><path d="m435 195-8-2v-4m-1 5 1-1"/><path fill="#d99f31" d="M438 197c1-1 2-3 4-3 1 0 3 2 2 4 0 2-2 4-4 3l-2-4z"/><path fill="#f1bf31" stroke="none" d="m440 197 1-2a2 2 0 0 1 1 0l2 3v1a2 2 0 0 1-4-2z"/><path d="m439 197 3-2 2 3-3 3c-2 0-2-2-2-4zm-15-4 1-4 2-1 5 1 5 2v1l-1 4-1 2-10-3-1-2zm-32-7 3-2h10l3 2v5l-3 2h-10l-3-2v-5zm-16 7-1-4-2-1-5 1-4 2-1 1 1 4 1 2 10-3 1-2z"/></g><g stroke-linecap="round" stroke-linejoin="round"><path fill="#d99f31" d="M408 96c2 0 3 1 3 3s-1 4-3 4-6-3-5-1v1l1 10h-8l2-10v-1c0-2-4 1-6 1s-3-2-3-4 1-3 3-3l5 1c2-1 0-4 0-6s1-3 3-3 4 1 4 3-3 4-1 6l5-1z"/><path fill="#f1bf31" stroke="none" d="M397 92v-1c0-2 2-3 3-3l2 1-2 1c-1 1-2 3-3 2zm1 5-4 2-4-1c0-1 1-2 3-2 1 0 3 2 5 1zm3 0 1-2 1 2c1 1 3-1 5-1l2 2-4 1c-3 0-5-1-5-2z"/><path d="m408 96 3 3c0 2-2 3-3 3s-6-3-6 0v1l1 10h-6l1-10v-1c0-3-4 0-5 0-2 0-4-1-4-3 0-1 2-3 4-3 1 0 3 2 5 1 1-1-1-4-1-6 0-1 1-3 3-3s3 2 3 3c0 2-2 5 0 6 1 1 3-1 5-1z"/><circle cx="400" cy="116" r="8" fill="#f1f1f2" stroke-width="2"/><path fill="#000" stroke="none" d="m401 121 2-2c0-1 1 0 0 0l-1 3zm-8-4v-1h1v-1l-1 1zm0 1v1l2-2-1-1a14 14 0 0 0-1 2zm0 2h1l2-2v-1l-3 3zm11 1 1-2h1l-1 2zm-6 1 3-4-1 3-1 1zm-2-2 2-2v1l-1 2z"/><path fill="#d99f31" d="M406 134h-12c-1 1-4 3-7 1-2-1-2-3-2-3s5 0 5-4c0-5 3-8 6-7l4 2 4-2c4-1 6 2 6 7 0 4 5 4 5 4l-2 3c-3 2-6 0-7-1z"/><path fill="#d99f31" stroke="none" d="m406 134-6 2-6-2s-4 3-7 0l-1-2s5 0 5-4c0-5 2-7 5-7l4 2 4-2c3 0 6 2 6 7 0 4 5 4 5 4l-2 2c-3 3-7 0-7 0z"/><path stroke="#f1bf31" d="M391 125v3l-1 3c-1 2-4 2-4 2m23-8v3l1 3c1 2 4 2 4 2"/><path fill="#f1bf31" stroke="none" d="M400 136c-6-2-7-5-7-5s2 3 7 4c5-1 7-4 7-4s-1 3-7 5zm-8-11c0-2 3-3 6-3l2 1 2-1c3 0 6 1 6 3 0 3-4 5-8 5s-8-2-8-5z"/><path d="M406 134h0l-6 2-6-2h0s-4 3-7 0l-1-2s5 0 5-4c0-5 2-7 5-7l4 2 4-2c3 0 6 2 6 7 0 4 5 4 5 4l-2 2c-3 3-7 0-7 0z"/><path fill="#000" d="M408 131s-1 5-8 6c-7-1-7-6-7-6s0 4 7 5c7-1 8-5 8-5z"/></g></g><g stroke-linecap="round" stroke-linejoin="round"><path fill="#a0cfeb" d="M399 227c13 0 72-10 72 71 0 78-71 108-71 108s-71-29-71-113c0-76 70-66 70-66z"/><path fill="#94bb79" d="M422 348a29 29 0 0 1 35 6c-21 37-57 52-57 52s-35-14-56-52a29 29 0 0 1 37-5 29 29 0 0 1 41-1z"/><path fill="#658d5c" d="M434 345c4 1 10 4 13 8l-10 14c-5-8-16-19-16-18l1-1 3-1 7-2h2zm-24 51-10 5-10-5c-8-7-26-24-39-47 4-3 9-4 14-4l3 1c8 4 18 14 14 16-2 2-10 0-10 2-1 2 14 9 22 16 6 6 17 15 16 16zm17-7c-9-9-29-27-46-40 4-5 11-8 18-9h1c9 2 18 12 15 14s-11-1-11 2l16 13 14 13-7 7z"/><path d="m422 348 3 3-1 1-3-3c-3-3-8-7-12-7l-1-1h1s6 1 13 7zm-35 5v1l-8-5h2l6 4z"/><path fill="none" stroke="#000" d="M422 348c4-2 9-4 14-4 8 0 15 4 21 10m-113-1c6-5 13-9 21-9 6 0 11 2 16 5 5-5 12-10 21-10 7 0 15 4 20 9"/><path fill="none" stroke="#4c819a" d="M368 231h67m-76 3h84m-90 4h96m-101 4h105m-109 3h112m-115 4h118m-120 4h122m-124 4h126m-128 3h130m-131 4h132m-133 4h134m-135 3h136m-50 4h51m-138 0h51m52 4h35m-139 0h36m75 3h29m-140 0h29m88 4h23m-140 0h23m100 4h17m-140 0h17m111 4h13m-141 0h13m119 3h9m-141 0h8"/><g fill="none"><path fill="#000" d="M357 300v-7l7-3 8 2v8z"/><path fill="#fff" d="m373 333 4 14-12-2-1-58 3 1v6l4 1v-6l6 2v9l-4 5v28z"/><path fill="#bdbfc1" d="M364 332v-45l-3 2v6l-4 1v-6l-5 2v10l4 4v28l-4 14 12-3v-13z"/><path stroke="#000" d="m364 332-8 2m-2 8 10-2 11 1m-11-5-9 2m18-25-9-1-8 2m17 3-9-1-8 2m0-8 8-2 9 1m-17 13 8-2 9 1m-17 5 8-2 9 1m-17 5 8-2 9 1m-3-24v4m-3-1v4m3 1v4m-8-5v4m0 5v3m-4 2v3m0-19v4m4-10v4m2-11 13 3m-13-3-12 5m12 43v-58"/><path fill="#000" d="m371 335-4-1v-12l2-2 2 3z"/><path stroke="#000" d="m373 333 4 14a29 29 0 0 0-25 1l4-14v-28l-4-4v-10l5-2v6l4-1v-6l3-2 3 1v6l4 1v-6l6 2v9l-4 5v28zm3 14a30 30 0 0 0-24 0l4-13v-28s0 0 0 0l-4-4v-9l5-2v5h1l3-1h1v-6l2-1h3v6s0 0 0 0l4 1h1v-5l4 1v9l-3 5s0 0 0 0v28l3 14zm2 0h-1a28 28 0 0 0-25 1h-1l5-14v-27l-4-5s0 0 0 0v-10s0 0 0 0l5-2h1v6l3-2v-6l3-1s0 0 0 0l4 1s0 0 0 0v6l3 1v-6s0 0 0 0l6 1v11l-3 5v27l4 14zm-14-43 9 1m-9-1-8 2"/></g><g fill="none"><path fill="#000" d="M392 295v-7l7-3 8 2v8z"/><path fill="#fff" d="m408 328 4 14a29 29 0 0 0-13-2v-58l3 1v6l4 1v-6l6 2v10l-4 4v28z"/><path fill="#bdbfc1" d="M399 340v-58l-3 1v6l-4 1v-6l-5 3v9l4 5v27l-4 16 12-4z"/><path stroke="#000" d="m399 331-9 1m20 4-11-1-10 2m4-21v4m4 3v4m0-28v4m-4 1v4m4-1v4m8-3v3m-3-8v4m3-7v3m-14 21 8-1 9 1m-17-7 8-3 9 2m-17-3 8-3 9 2m-17-3 8-3 9 2m-17-3 8-3 9 2m0 16-9-2-8 2m8 7-8 1m21-32-13-4-12 4m21 4-9-2-8 3m8 39v-58"/><path fill="#000" d="M405 329h-3v-12l1-2c2 0 2 1 2 2z"/><path stroke="#000" d="M411 341a30 30 0 0 0-24 2l4-15v-27s0 0 0 0l-4-5v-9l5-2v6l4-2s0 0 0 0v-6l3-1 3 1v6s0 0 0 0l4 1h1v-6l4 2v9l-3 5s0 0 0 0v28l3 13zm1 1h-1a28 28 0 0 0-24 2h-1l5-16-1-27-3-5s0 0 0 0v-10l5-2h1v6l3-1v-6s0 0 0 0l3-2s0 0 0 0l3 2h1v6l3 1v-6s0 0 0 0l6 1v11s0 0 0 0l-4 4v28l4 14zm-4-14 4 14a29 29 0 0 0-25 2l4-16v-27l-4-5v-9l5-3v6l4-1v-6l3-1 3 1v6l4 1v-6l6 2v10l-4 4v28z"/></g><g fill="none"><path fill="#000" d="M426 301v-9l8-2 8 3v8z"/><path fill="#fff" d="m443 334 3 13a29 29 0 0 0-12-2v-58l3 1v6l4 2v-6l5 1v10l-3 5v28z"/><path fill="#bdbfc1" d="M434 332v-45l-3 1v6l-4 1v-6l-5 2v10l4 5v27l-4 15 12-3v-13z"/><path stroke="#000" d="m424 342 10-2 11 2m-11-6-9 2m7-34v4m-4 1v4m0 12v4m4-9v4m0-12v4m8-3v4m-4-9v4m4-7v4m-14 20 8-1 9 2m-17-12 8-2 8 2m0 4-8-2-8 2m16-8-8-2-8 2m16-4-8-2-8 2m17-4-9-2-8 2m-4-5 12-4 12 4m-12 31-8 1m0-7 8-2 9 2m-9 19v-58"/><path fill="#000" d="m440 335-3-1v-11l1-3c2 0 2 2 2 3z"/><path stroke="#000" d="M446 346a30 30 0 0 0-24 2l4-15v-27s0 0 0 0l-4-5v-10l5-1v6l4-1v-7h6v7l4 1s0 0 0 0v-6l5 2v9l-3 5s0 0 0 0v28l3 12zm-3-12 3 13a29 29 0 0 0-24 1l4-15v-27l-4-5v-10l5-2v6l4-1v-6l3-1 3 1v6l4 2v-6l5 1v10l-3 5v28zm4 13h-1a28 28 0 0 0-24 1h-1l4-15v-27l-3-5s0 0 0 0v-10s0 0 0 0l5-2s0 0 0 0v6l4-1v-6s0 0 0 0l3-1s0 0 0 0l3 1h1v6l3 1v-6l5 2h1v10s0 0 0 0l-4 5v27l4 14z"/></g><g id="a" fill="#000" stroke="#000"><path d="M369 269c0-3-1-7-4-6 0 4 6 21-1 22h0c0-8-8-16-6-23 1-4 4-7 8-7 9 0 10 10 4 14h-1z"/><path fill="#fff" d="M370 268c-1-3-2-7-6-6h0c0 5 6 19 0 22 0-8-7-14-6-22 1-2 3-5 5-5l3-1c8 0 10 8 4 12z"/><path stroke="none" d="M360 265c0-2 2-4 4-4l1 1h-1v1l-4 2c0 1-1 1 0 0z"/><path d="m360 265 4-2m-4 4 5-2m-4 3 4-2m-4 4 4-2m-2 3 3-1m-1 2h1"/><path stroke="none" d="M369 260c-2-4-8-2-9 0h-1l2-2c2-2 7-2 9 1v1h-1z"/></g><use xlink:href="#a" x="35" y="-5"/><use xlink:href="#a" x="71"/><g stroke="#000"><path d="M446 241c4 2 15 8 17 45 3 72-58 114-58 114s77-33 77-114h0c0-34-13-71-40-71h-15l-21 10c-1-2-4-3-6-3s-4 1-5 3l-22-10h-15c-27 0-40 37-40 71h0c0 81 77 114 77 114s-61-42-58-114c2-37 14-43 17-45l18 6 23-14c1 2 3 3 5 3 3 0 4-1 6-3l22 14z"/><path fill="#d99f31" d="m431 214-31 14-31-14-11 1c-27 0-40 37-40 71v0c0 81 77 114 77 114s-62-42-58-114c1-37 13-44 16-46l20 5 27-16 27 16 20-5c3 2 15 9 17 46 3 72-59 114-59 114s77-33 77-114h0c0-34-13-71-40-71z"/><path stroke="none" d="M437 229c-3 0-6 3-6 7l2 6-1 1c-1-2-3-5-2-7 0-5 3-8 7-8zm-74-1c4 0 7 3 7 8 1 2-1 5-2 7l-1-1 2-6c0-4-3-7-6-7zm-9 7c-5 4-10 10-13 17l-1 1v-1c3-7 8-14 14-18v1zm7-13c-13 0-23 10-29 27h-1c6-18 16-28 30-28 6 0 12 2 16 5v2c-4-4-10-6-16-6zm0 4c-11 0-20 10-26 24h-1c6-15 15-25 27-25 6 0 12 2 16 6v1c-4-4-10-6-16-6zm14 13c-3-7-7-10-14-10-10 0-17 9-23 22 0 0 0 1 0 0h-1c6-14 14-23 24-23 8 0 12 3 14 10v1zm51 0-1-1c2-7 6-10 14-10 12 0 22 14 27 32v1l-1-1c-5-18-15-31-26-31-7 0-11 3-13 10zm43 21v1h-1c-5-21-15-35-29-35-6 0-12 2-16 6v-1c4-4 10-6 16-6 15 0 25 15 30 35zm4 1-1 1v-1c-5-22-16-39-33-39-7 0-12 3-16 6v-1c4-4 10-6 16-6 18 0 29 18 34 40zm-32-28c10 1 18 12 22 27l-1 1v-1c-4-16-13-25-21-26v-1z"/><path fill="none" d="M419 241c0-1-3-4-3-11m0 9c-1-1-2-4-2-9m-1 7c-1-1-2-3-2-7m-1 5-1-5m-28 11c1-1 3-4 3-11m0 9c1-1 3-4 3-9m1 7 1-7m2 5 1-5"/><circle cx="400" cy="229" r="6" fill="#d99f31" stroke="none"/><path fill="none" d="M394 228a6 6 0 0 1 12-1m0 4a6 6 0 0 1-12 1m8 1h-2c-2 0-4-1-4-4m8 2-2 2m-1-2a2 2 0 0 1-3-2m-2-1 1-1"/><path fill="none" d="M394 228c0-3 3-6 6-6s6 2 6 5m0 4c0 3-3 5-6 5-2 0-6-2-6-4"/><path d="M423 242c4 5 9 7 14 7 8 0 13-4 13-12 0-4-2-8-9-8-4 0-7 4-7 8 0 2 0 3 2 5-6-2-10-5-10-11 0-7 5-11 12-12 23-2 37 24 40 60 4 51-24 92-65 115l-13 7v6c16-6 35-17 46-28 22-20 43-54 40-100-2-29-11-48-22-58-19-16-45-10-45 10 0 4 2 8 4 11zm-46 0c-4 5-9 7-14 7-8 0-13-4-13-12 0-4 3-8 9-8 4 0 7 4 7 8 0 2 0 3-2 5 6-2 10-5 10-11 0-7-5-11-12-12-23-2-37 24-40 60-4 51 24 92 66 115l12 7v6c-16-6-34-17-46-28-22-20-43-54-40-100 2-29 11-48 22-58 19-16 45-10 45 10 0 4-2 8-4 11z"/><path fill="#f1bf31" d="M400 407c-16-6-34-19-46-29-22-20-42-54-38-99 2-29 10-48 21-57 19-17 43-9 43 9 0 10-8 18-17 18-6 0-13-5-12-12a7 7 0 0 1 15 0l-3 6c6-1 11-6 11-12 0-7-5-12-12-13-23-2-38 25-41 61a121 121 0 0 0 79 122l13-6c41-23 69-65 66-116-3-36-18-63-41-61-7 1-12 6-12 13 0 6 5 11 12 12-2-2-4-4-4-6a7 7 0 0 1 15 0c1 7-6 12-12 12-9 0-17-8-17-18 0-18 24-26 43-9 11 9 19 28 21 57 4 45-16 79-38 99-11 10-30 23-46 29z"/></g></g><g stroke="#000" stroke-linecap="round" stroke-linejoin="round"><path d="m302 358-4-2c-3-2-9-9-15-12-10-6-19-4-28-8 2 9 8 17 18 21 9 4 22 1 23 1l7 2-1-2zm-35 11h0l16-3c11-3 17-1 26 5l2 2h4l2 1v1h-6c-3 0-10 7-18 7-11 0-19-5-26-13z"/><path fill="#658d5c" d="m316 374-5 1c-5 1-10 6-18 6-10 1-17-4-24-11 10-2 18-8 29-4 5 1 12 8 17 7l1 1z"/><path stroke="none" d="m310 373-15 1c-9 0-23-3-23-3s14 4 23 4l15-1v-1z"/><path fill="none" d="m285 263-1-1v-2l-1-1-1-2 2-1a7 7 0 0 0 2 4s0 0 0 0l-1 3s-1 0 0 0z"/><path d="M338 389c0-2 0-1 2 0 1 0 1 0 0 0-1 1-2 3-3 2s0-1 1-2z"/><path d="M289 255c-6 15-8 42-6 55 7 38 38 73 66 79 25 5 40 16 50 28 7 8 10 11 19 27 4 5-2 6-4 2-7-13-10-19-19-29a81 81 0 0 0-48-25c-27-5-60-41-66-79-2-12 0-42 6-57l2-1"/><path d="M330 387c-4 1-7 7-11 11-8 7-21 8-29 3v-1c10-2 11-16 32-14h6l2 1zm-16-64h0l6 22c1 5 0 10-2 16l-2 5 1 4 2 2c-6-5-3-2-5-6l-4-7c-6-12-6-26 4-36zm41 67c-3-1-6-2-7-5-3-5-2-8-5-13-5-9-14-10-19-19-1 8-2 20 10 28 4 3 11 4 13 5l2 3 6 1z"/><path fill="#658d5c" d="m349 389-3-3c-2-2-8-2-12-5-5-4-8-8-10-15v-11c5 7 14 8 19 17 3 5 2 14 8 17h-2z"/><path d="M300 347v2c-1 1 1 3 1 2v-3l-1-1z"/><path fill="#658d5c" d="m302 358-4-2c-3-1-8-8-15-12-9-5-17-4-26-7 2 10 7 16 16 20s22 0 23 1l7 2-1-2z"/><path fill="#466343" d="M315 369c0-3-3-7-5-10l-4-13c-1-9 2-14 8-21l1 4c2 9 6 15 5 24l-4 13 1 4-2-1z"/><path d="M292 343c-7-11-23-6-33-15-5-5-7-12-8-18l-1-12h1c3 4 7 6 11 8 9 7 13 13 18 23 6 13 12 5 12 14z"/><path stroke="none" d="m313 328-2 19c0 7 4 18 4 18h-1l-4-18c0-8 3-19 3-19z"/><path fill="#658d5c" d="m282 336-12-3c-4-1-8-3-11-6-5-4-6-10-7-17l-1-10 2 2 10 6 7 6 7 10 5 10z"/><path fill="#a48253" d="m282 334 7 3 2 4v0l-9-5z"/><circle cx="272" cy="305" r="4" fill="#d99f31"/><path fill="#f1bf31" stroke="none" d="M272 301v2c0 2 1 3 3 3h1v-1c0-2-2-4-4-4z"/><circle cx="272" cy="305" r="5" fill="none"/><path d="m285 303 4-13c5-11 13-11 17-20 2 6 4 14 0 22-5 10-17 16-17 16l-4-5z"/><path fill="#466343" d="M306 272c6 16-2 28-17 36l-4-5c3-11 5-16 13-23 3-3 6-4 8-8z"/><path fill="#a48253" d="M289 256c-6 15-8 42-6 54 6 38 38 73 66 79 25 5 40 16 50 28l12 15 7 13-3 1-7-13-14-16a76 76 0 0 0-46-26c-28-5-60-40-66-78-2-12-1-41 5-56l2-1z"/><path d="m286 330-4-4c-12-11-9-31 3-41l1 1 3 12c4 10 4 16 1 24-2 6 0 10 0 10l-4-2zm39 49c-7-2-15-2-21-8-6-7-8-18-6-24 0 0 0 0 0 0l5 4c7 6 15 8 18 16l2 5c2 6 5 7 9 10l-7-3z"/><path fill="#658d5c" d="M330 382c-6-5-18-3-25-11-6-6-8-14-7-22 7 6 14 7 20 13 6 8 1 13 13 20h-1z"/><path d="M295 342h0c2-2 0-8 0-10l-1-12c1-5 4-9 7-13l5-9c0-1 0-1 0 0 2 3 3 7 3 10a30 30 0 0 1-7 27c-1 1-5 4-5 6v4l-2-3zm-11-64 1-1c1 0 2-1 2-3 1-1 4-12 8-18 5-8 10-11 17-17 1 6 1 16-4 24-5 7-17 13-18 13-2 1-4 1-5 3l-2 3 1-4zm-2 1-1-1-1-4c0-3 3-13 1-20-2-14-7-19-7-24-1-2-12 14-8 28 1 8 10 16 11 17l4 4v5l1-5zm7-24 3-5c3-3 12-9 15-13 6-11 5-23 4-25-5 4-10 8-16 16-5 7-6 20-7 23l-1 6 2-2z"/><path fill="#658d5c" d="M284 280v-2l4-4c2-6 4-12 8-18 5-8 10-11 15-15 0 7 2 14-4 23-3 5-12 10-17 12-3 1-5 2-6 4z"/><path d="M261 266c9 8 11 11 14 22l2 7 3 4 1 4s0 0 0 0l-4-5-8-2c-5-2-9-6-12-11-3-6-4-14-3-20l1-5s0 0 0 0l6 6z"/><path fill="#658d5c" d="M280 299v2c-4-5-5-3-11-6-5-2-9-6-11-10-5-6-5-16-3-24 3 5 11 9 15 15l4 12 2 8 4 3zm15 43c2-2 1-8 0-11v-11c1-7 5-12 9-17l2-4c4 13 6 25-4 35-1 2-5 5-5 7l-1 3-1-2z"/><path fill="#a48253" d="m331 385-3 1 2 2v-1l5 1"/><path fill="#466343" d="M328 386c-2 0-10-1-16 1-10 2-14 11-21 14 11 5 19 4 28-4 3-2 6-8 11-9z"/><path fill="none" d="m405 431 2-2 2 1"/><path fill="#a48253" d="m340 389-1 1-1 1h-1l1-2v-1l2 1z"/><path fill="#658d5c" stroke="none" d="m288 256 2-16c2-10 5-13 13-21l7-5 1 8c-2 15-8 19-19 28-2 1-2 4-4 6z"/><path fill="#a48253" stroke="none" d="M288 254h1l-1 2v-2z"/><path fill="none" d="m288 256 2-16c2-10 5-13 13-21l7-5 1 8c-2 15-8 19-19 28-2 1-2 4-4 6z"/><path stroke="none" d="m288 256 1-3c1-1 1 1 1 1l-1 1-1 1z"/><path fill="#658d5c" stroke="none" d="m282 279-1 2c0-3-2-4-4-6-10-10-14-20-10-33 1-5 3-7 6-10l4 9c4 9 5 14 4 25-1 4-3 9 0 12l1 1z"/><path fill="none" d="m282 279-1 2c0-3-2-4-4-6-10-10-14-20-10-33 1-5 3-7 6-10l4 9c4 9 5 14 4 25-1 4-3 9 0 12l1 1z"/><path fill="#a48253" stroke="none" d="M282 284v-3l-1-2h1v5zm4-24c-1 1-2-2-3-4v1c0 2 3 5 2 6l1-3z"/><path fill="none" d="M286 260c-1 1-2-2-3-4v1l2 6"/><circle cx="281" cy="254" r="4" fill="#d99f31" stroke="none"/><path fill="#f1bf31" stroke="none" d="M282 253c-1-1-2-2-1-3h3l1 3h-3z"/><circle cx="281" cy="254" r="5" fill="none"/><circle cx="304" cy="344" r="5" fill="#d99f31" stroke="none"/><path fill="#f1bf31" stroke="none" d="M303 344v-4c1 0 3 0 4 2v3c-1 1-3 0-4-1z"/><circle cx="304" cy="344" r="5" fill="none"/><path fill="none" d="m407 433 1-2c2-1 3 1 3 1m7 15c-3 1-5-3-4-4h4c2 1 1 4 0 4z"/><path fill="#a48253" stroke="none" d="M418 447c-3 1-5-2-4-3h3c2 1 2 3 1 3z"/><path fill="none" d="M418 447c-3 1-5-2-4-3h3c2 1 2 3 1 3z"/><path stroke="none" d="M287 256c4-9 5-15 11-24l10-15-10 15-10 23-1 1zm-14-20s-2 14 0 23l7 20-1-4-5-16c-2-9-1-23-1-23zm-14 37 4 8c4 8 8 13 16 18v-1c-8-5-11-9-16-17l-4-8zm27 4s10-9 14-16c4-5 9-16 9-16l-8 17-13 15h-2zm9 66 7-17c2-8 4-12 4-22 0 10-1 13-3 21l-6 17-2 1zm-5-42s7-6 10-12c4-7 5-13 5-13s0 6-4 13c-3 6-10 13-10 13l-1-1zm-8 34-9-7c-12-10-20-25-20-25s7 16 20 26l9 7v-1z"/><path fill="none" d="M283 336v-1"/><path stroke="none" d="M329 380a110 110 0 0 1-27-23l5 7c7 7 15 13 21 16h1zm19 7s-11-8-15-14l-6-10 7 10c4 6 14 13 14 13v1zm-52 13c15-2 21-11 35-13h-3c-11 2-19 11-32 13z"/><circle cx="315" cy="382" r="5" fill="#d99f31" stroke="none"/><path fill="#f1bf31" stroke="none" d="M319 381v1h-4c-2-1-2-2-2-4h2c2 0 4 1 4 3z"/><circle cx="315" cy="382" r="5" fill="none"/><path fill="#a48253" stroke="none" d="M331 384v1l1 1 2 1a16 16 0 0 1 3 1l-3-2-3-2z"/><path stroke="none" d="m298 358-20-7c-11-4-18-11-18-11s7 7 18 11l20 6v1z"/><circle cx="335" cy="395" r="5" fill="#d99f31"/><path fill="#f1bf31" stroke="none" d="M338 398c-1 1-3 0-4-2v-6h1a5 5 0 0 1 3 8z"/><circle cx="335" cy="395" r="5" fill="none"/><path fill="#a48253" stroke="none" d="m290 333 1 2v2h-1l-1-4h1z"/><path fill="#658d5c" stroke="none" d="m289 333-7-7c-4-3-6-8-6-12-2-12 1-20 9-28 1 9 6 15 7 23 1 12-6 14-1 26l-2-2z"/><path fill="#a48253" stroke="none" d="M288 331v1l1 1 1 1v-2l-2-1z"/><path fill="none" d="m289 333-7-7c-4-3-6-8-6-12-2-12 1-20 9-28 1 9 6 15 7 23 1 12-6 14-1 26"/><path stroke="none" d="M289 331c-3-5-4-7-5-13-3-9-3-21-1-26-2 5-3 17 0 26 1 6 2 9 5 14l1-1z"/><path fill="none" d="M289 333c-1-1 0-3 1-1"/></g><g stroke="#000" stroke-linecap="round" stroke-linejoin="round"><path d="M515 258v-2l1-3 2 1-2 6v1l-1-3z"/><path d="m519 275 2-4-2-8 1-2c1-2-4-5-2-8 0-2 2-1 3-4 0-2-2-5 1-7 1-1 3 0 4-2 0-2 0-6 3-6 4-1 5 8 5 8h3c3 1 0 7-1 9 7 0 1 4-1 7l3 2-1 2-6 3h0c0 1 2 3-1 4-5 1-8 2-9 7l-1 5-1-6z"/><path fill="#658d5c" d="m520 279-1-4h1l1-5-2-7 2-2c0-2-4-5-3-8l3-3c1-3-1-6 1-8 2 0 4 1 4-2 1-2 0-5 3-5 4 0 4 7 5 8h3l1 4-2 3v1l2 1c1 2-2 4-2 5-1 1 1 1 1 3s-6 4-7 5c0 1 2 2 0 3-5 2-10 5-10 11z"/><path stroke="none" d="M519 276s7-12 9-20l2-15-2 15c-1 9-8 21-8 21l-1-1z"/><path d="M520 287s0 0 0 0l2-3v-1s0 0 0 0h3v1l-2 2-2 4-1-1v-2z"/><path fill="#a48253" d="m520 289 3-3 2-2-2-1-1 2-2 2v2z"/><path d="m512 247 5 14c5 17 5 40 3 52-6 38-41 73-68 79-23 5-37 14-47 25-7 9-10 14-17 28-2 4-9 5-6-1 5-9 10-18 18-27 10-12 25-23 50-28 29-6 61-41 68-79 2-13 1-39-6-57v-6m-15-7s-8 0-4-6c-4-2-8-5-3-8-1-1-3-2-3-4l2-2c-1-1-4-6-3-7 2-2 6 0 8 1l2-1c2-2 3 3 3 4h4c3 1 2 5 2 7l3-1c4 0 2 7 1 10 7-1 2 5 2 11 0 2 0 5-1 4-4-4-15-3-13-8z"/><path d="m496 265-5-2c-1-3 2-3 2-3-1-2-5-2-5-4l1-3c0-2-3-4-2-5 1-2 4 0 5 0l3-1c2 0 3 3 4 3l1-1c3-1 3 2 4 3 1 3 2 0 4 0 4 2 2 10 3 11l3 2v8l5 6v3l-5-7c-3-2-8 0-9-2l-1-3h-4c-3 0-5-2-4-5z"/><path fill="#658d5c" d="M519 278v3c-7-10-12-6-14-8v-3c-1-1-7 1-9-3v-3l-4-1v-2l1-1c1-1-5-2-5-4s2-2 1-3c0-1-2-3-1-5 1-1 3 1 4 1l3-2c2 0 2 3 4 3 1 0 2-2 4 0 0 1 0 4 3 3h1c4 1 3 7 4 10l3 2v9c1 1 3 4 5 4z"/><path d="M520 308h0c2 0 2-3 3-4 1-4-1-10 3-10l2-7h3c1-2 1-5 4-5l2 1c1 0 1-4 3-4l3 1 1-2c3-2 5-3 5 1l-1 4 2 1c1 2-2 3-3 5h2c2 3-4 6-5 8l1 3c-1 4-8 3-9 3l-1 3c-2 3-10 0-12 2l-3 5c0 1 0 1 0 0v-5z"/><path fill="#658d5c" d="m521 308 2-4 1-4c0-2-1-6 2-6l2-6 3-1c2-1 1-4 3-4h3c1 0 1-3 3-3h3c1-1 2-3 4-3 2 1 1 4 1 5-1 1 0 2 1 2 1 2-2 4-2 5l1 1c2 2-2 5-3 6l-2 1 1 3c-1 4-6 2-8 3l-2 3c-2 2-9 0-11 2l-3 4 1-4z"/><path stroke="none" d="m522 307 14-12 9-13-9 13-14 13v-1z"/><path d="M524 284c-2-1-2-7 1-10s10 5 7 8c-1 1-6 4-8 2z"/><path d="M532 281c-1 1-4-1-5-2-2-2-3-4-2-5 2-2 7-5 9-3s0 9-2 10z"/><path fill="#a48253" d="M532 281c-1 2-6 4-8 3s-2-7 1-10c2-2 9 5 7 7z"/><path fill="#d99f31" d="M533 272c2 1 0 7-1 8s-3 0-5-2c-1-1-2-3-1-4 1-2 5-4 7-2z"/><path fill="#f1bf31" stroke="none" d="m532 272-1 2 2 4v-6h-1z"/><path d="M494 287c-1-2-4-3-4-5l1-3c-1-2-3-4-2-6 2-2 4 0 6 1l2-2c3 0 5 5 6 5 3 1 5-3 6 6h3c3 5 1 14 6 17h0l-1 3-4-5c-3 0-13 4-13-1v-2c0-1-7-1-7-4-1-2 0-3 1-4z"/><path fill="#658d5c" d="M518 302c-4-6-6-4-12-3-1 0-6 0-6-2l1-2c-1-2-6-1-7-4v-5c-1-2-4-3-3-6v-1c1-1-2-4-1-5 1-2 4-1 5 0l2-1 4 2 2 2 4 1 2 5h0l2 1c3 4 2 13 7 16v2z"/><path stroke="none" d="M517 302s-7-12-13-18a116 116 0 0 0 0 1c6 6 12 17 12 17h1z"/><path d="M510 319h1c3 1-1 10-1 12v2l-1 4v-5l-6-1c-3 0-1-3-2-3-2-1-7 0-7-3v-3c-1-2-5-2-4-5l1-3c0-1-3-3-2-5l1-1c0-1-2-5 0-6 3-1 5 2 7 2 1 0 1-2 3-1l2 3h2c4-1 3 4 4 6h1l1 2v5zm20 8c1 6-7 0-12 2l-4 3 1-3h2l3-4 1-7c1-2 3 0 4 0 1-2 2-7 5-7l2 1 2-3h3c1 0 3-5 5-4 3 1 1 5 1 6l1 1c2 3-1 5-2 7l1 1c1 3-4 3-5 4l1 1c-1 3-8 2-9 2zm-52 20c0-1-3-3-2-5l4-1c0-2-1-5 2-5 2-1 2 1 3 2l1 3 3-1 1 5 2 1v5l2 2c0 3-2 3-4 5 0 0 0 0 0 0 2 3 1 4-1 6-3 2-7 3-6 7l-1 2v-4c0-2-5-4-6-6l2-2c0-1-4-3-4-5l2-3c0-1-5-5 0-6h2z"/><path fill="#658d5c" d="M482 373v-4c-1-2-5-4-5-6l1-2c0-2-4-3-3-5l2-3c-1-1-3-3-2-4 0-2 2-1 3-2s-2-3-1-4l3-2c1-1-1-4 2-5 2 0 3 4 4 5h2c2 0 1 3 1 4l3 1v5l1 2c0 3-2 3-3 4v2c2 2 1 3-1 5-3 2-7 3-5 7l-2 2z"/><path d="M531 337c2 0 4-2 5-1 3 3-2 6-3 9l2 2c-1 3-4 2-6 3l1 2c0 3-6 2-8 3-1 0 0 2-2 3h-4l-4-1h-2s0 0 0 0l6-19 4 1 2-2c1-1 2 1 3 1s4-6 6-1zm-31 3-2 2a48 48 0 0 0 5 3v-1s-3-2-3-4zm-2-7v2l-1 1c-1 2-5 4-6 3s-4-9-2-10c2-2 7 1 9 4z"/><path d="m491 336 2-2c1-1 4-3 6-2 2 2 3 8 0 10-2 2-7-1-9-3l1-3z"/><path fill="#a48253" d="M493 334c2-1 4-2 5-1 3 2 3 7 1 8-1 1-5 1-8-3-1-1 0-2 2-4z"/><path fill="#d99f31" d="M498 332c1 2-5 8-7 6-1-1-3-7-2-9 2-1 8 2 9 3z"/><path fill="#f1bf31" stroke="none" d="M491 330h-2l4 1 4 2-1-2-2-1a9 9 0 0 0-3 0z"/><path fill="#466343" d="M512 357h7c3 0 1-2 3-3 1 0 7 1 7-2v-2c0-1 5 0 5-3l-1-2c0-1 5-6 3-8s-5 1-5 0l-2-2c-1 0-2 3-4 3l-2-1c-2 0-2 2-3 2l-3-1-7 19h2z"/><path fill="none" d="m515 350 10-5 8-5m-18 10 10-4 8-6"/><path d="m477 379 4-1 1 1 1-2h-4l-2 2z"/><path fill="none" d="M463 400c-2-2 4-8 7-6 1 1 3 6 2 7-2 2-7 1-9-1z"/><path d="M460 393h0l-4-3s0 0 0 0l2-1 2 1 2 1-2 2z"/><path fill="none" d="M460 391c1-1 6-1 9 1 2 2 1 5-1 6-2 2-5 3-6 2-3-3-3-7-2-9z"/><path fill="#658d5c" d="m513 333 5-4c4-2 11 2 12 0v-2c1 0 8 1 8-2v-2c1 0 5-1 5-3l-1-1c0-1 4-4 2-6l-1-2c0-2 1-5-1-5-2-1-4 3-5 4l-3-1-2 3-2-1c-3 0-3 5-5 7h-2c-2 0-1 5-3 7l-4 4h-1l-2 4z"/><path fill="#a48253" d="m455 390 3 1h3l-1-1-2-1-3 1zm5 2c2-2 6-2 9 1 2 1 1 3-1 5l-5 2c-3-3-4-7-3-8z"/><path fill="#d99f31" d="M464 400c-1-1 0-3 1-5l4-1c2 2 4 5 2 7-1 2-6 1-7-1z"/><path fill="#f1bf31" stroke="none" d="M469 394v1c-2 0-2 2-2 4l1 2h3v-3l-2-4z"/><path fill="#a48253" d="m516 260 1-6 1-2h-2v1l-1 5 1 2z"/><path fill="#658d5c" d="m513 255-3-7-6-3c-2-1-6-1-6-3l-1-2c-2-1-5-1-4-4v-3c-1 0-5-2-5-4 1-2 3-2 2-3l-2-4 1-2c0-1-4-5-1-7 1-1 5 1 6 2 1 0 2-2 3-1l2 3c1 2 3 0 4 0 2 2 2 6 2 7h4c2 1 0 7 0 8l2 1c3 2 0 7 0 11l1 4 1 7z"/><path d="m497 399 2 3c1 2 0 4-2 3h-2l-4 2c-3 0-4-3-6-5l-3 2c-3-1-3-5-4-7l-3-1c-3-1-1-7-4-8-2-2-7-1-7-1l3-1h16c2 0 1 2 2 2h0c2 0 5 0 7 2 2 1 0 3 0 3h0l2 1 3 2v3z"/><path fill="#466343" d="M467 386h16c2 0 1 2 2 2 0 1 9 0 7 4l-1 1h0c1 1 5 1 6 3 1 1-1 3-1 3 2 2 6 7-1 5-2 0-4 5-8 1l-1-3c-2-1-3 1-4 1-2 0-3-5-3-6l-4-1c-3-2 1-10-10-9l2-1z"/><path stroke="none" d="M466 386s10 2 15 5c6 3 12 9 12 9l-11-9-15-5h-1z"/><path d="M491 376c3 3-1 10-4 10-5-1-7-6-6-8 1-3 7-4 10-2z"/><path fill="none" d="M487 385c-2-1-1-4 0-6s2-3 4-3c3 1 6 6 5 8-1 3-8 2-9 1z"/><path fill="#a48253" d="M491 376c2 3-1 10-4 9-4-1-6-5-5-7 0-2 6-4 9-2z"/><path d="m506 382-2 1c-4 0-4-3-6-5h-2c-2 0-2-5-5-6-1 0-5 0-7 2l4-3c3 1 7-6 11-5l2 1c3 0 6-2 10-1 2 1-1 3 2 3 1 0 4 0 4 2v2c0 1 7 3 4 5 0 1 3 2 1 4-1 2-4 0-5 1v1c-1 2-4-1-5-2-2 5-4 3-6 0z"/><path fill="#658d5c" d="M491 372c3 1 3 5 5 6l2-1c1 1 2 6 6 5l2-1s1 3 3 3c3 0 2-2 2-2l5 2 2-2h4c1-2-2-4-2-4l1-1-4-3v-3c0-2-3-2-4-2-3 1-1-2-3-3-3-1-8 1-10 1l-2-1c-3 0-6 4-8 5l1 1z"/><path stroke="none" d="M490 371s10-1 16 1l11 7s-7-5-12-6c-6-2-15-1-15-1v-1zm-8 1 2-21-1-12 1 13-1 19-1 1z"/><path d="M473 371c0 1 2 1 1 3 0 3-3 2-5 3v4l-6 1c-1 1 1 3-1 4-3 2-9-1-13 2l-2 2-6 1c3-1 8-2 9-5v-7c1-3 3-1 4-2 0-1-1-5 2-7 1-1 3 0 4-2 2-1 0-4 3-5 1-1 3 1 4 1s2-4 5-3c2 0 1 3 1 5 4 0 2 3 0 5z"/><path fill="#658d5c" d="m441 391 9-5c1-3 0-7 2-8l2-1c1-1 0-5 2-7l4-1c2-2 0-5 3-6 1 0 3 2 4 1 1 0 2-3 5-3v4l2 2c1 1-1 3-2 4l2 3c0 2-4 2-5 3-2 0 0 2-1 3-2 2-5 1-6 1 0 1 1 3-1 4-1 2-8 1-9 1l-5 2-6 3z"/><path stroke="none" d="M450 386s9-6 14-12l6-8-6 8-14 13v-1zm67-57c4-2 10-5 15-10l8-9-8 9c-5 5-12 9-15 11v-1z"/><path fill="#466343" d="m510 333-1 3c0-4 0-5-4-5h-2c-3-1-1-2-2-3 0-1-6 0-7-3l1-3c-2-2-5-3-5-5 0-1 2-2 1-3l-2-5 2-1c0-1-2-4 0-5s4 1 6 1l3-1 2 3h2c3-1 3 5 4 6h1c2 1 0 7 1 8h1c2 0 1 4 0 5 0 2-2 6-1 8z"/><path stroke="none" d="M510 333s-3-11-7-17c-3-5-10-11-10-11l10 11 6 17h1zm6-57-12-16-13-10s8 5 12 10l12 16h1z"/><path fill="#a48253" d="m513 250 4 11c4 19 5 40 3 52-7 38-41 73-68 78a81 81 0 0 0-58 41l-8 13s0 0 0 0 0 0 0 0a14 14 0 0 1-4 0h0l1-1 7-13 11-14c10-12 24-23 49-28 29-6 62-41 68-79 2-13 2-34-6-57l1-3z"/><path stroke="none" d="m512 248-8-15c-4-7-13-17-13-17l13 17 9 21-1-6z"/><path fill="#a48253" stroke="none" d="M513 254v-1l-1-4a730 730 0 0 0 2 5h-1z"/><path d="M514 317c-1-1-6-6-6-8 0-3 2-3 3-3 0-1-4-4-2-6 1-2 3-1 4-2 0-2-2-6 0-9h2l1-3c0-1 0-2 2-2 2-1 3 2 5 4l1-1c3-1 2 8 2 9h2c3 2-2 11-3 13 0 1 3 0 0 3l-5 5h-6z"/><path fill="#658d5c" d="M515 324c1-3 1-6-1-7-3-2-6-6-6-8 0-3 3-1 3-3 0-1-3-4-2-6l4-2c1-1-2-6 0-9h3s-1-4 2-4c2-1 4 4 4 3h3l1 8h2c2 2-2 10-3 12s2 2 0 4c-2 3-7 7-7 11"/><path stroke="none" d="m518 322 2-18v-13 13l-3 21 1-3z"/><path d="M492 364c1-2-2-10 0-11s2 1 4-1c1-1-1-7 2-9 1-1 3 1 4-1 1-1 1-5 4-5 2-1 3 0 4 1 2 0 6-7 9-5s0 5 0 7c-1 1 2 1 2 3l-2 5s2 1 2 3c0 3-5 3-7 4 0 1 2 3 0 5-1 2-6 1-7 1l-1 5c-2 2-9 0-11 1-4 0-5 1-7 4l4-7z"/><path fill="#658d5c" d="m488 368 3-3 1-4c0-2-1-7 1-8h3c2-2-1-8 2-10 1-1 3 1 5-1 1-1 1-4 3-5l4 1c2 0 6-6 9-4l1 2-1 4c-1 2 1 2 1 3l-2 5 2 3c0 3-6 3-6 4v5c-2 2-6 0-7 1-2 0-1 3-2 4-2 4-12-1-17 5v-2z"/><path stroke="none" d="m488 369 18-17 11-15s-6 10-11 15c-5 7-16 16-16 16l-2 1z"/><path fill="#a48253" stroke="none" d="M487 369h2l-1 1h-1v-1z"/><path fill="#d99f31" d="M487 385v-6c1-2 3-3 4-2 2 1 5 5 4 7s-7 2-8 1z"/><path fill="#f1bf31" stroke="none" d="M491 378c-1 1-1 3 1 5l2 1h1l-1-4-3-2z"/><path d="M517 255c-3-1-4-6-3-9 1-4 10-3 9 2 0 3-4 7-6 7z"/><path d="M523 246c0 3-3 3-5 3-1-1-4-2-4-4 1-4 4-7 6-7s4 5 3 8z"/><path fill="#a48253" d="M517 254c-2 0-4-5-3-8 1-4 9-2 9 2-1 3-4 6-6 6z"/><path fill="#d99f31" d="M520 239c2 0 3 4 3 7 0 2-3 2-5 2l-4-3c1-4 5-7 6-6z"/><path fill="#f1bf31" stroke="none" d="M520 239v3l2 4v-5l-2-2z"/><path fill="none" d="M382 447c-1-1 1-5 5-4 2 0 1 2-1 3s-3 2-4 1z"/><path fill="#a48253" d="M382 447c-1-1 1-4 4-4 2 0 2 2 0 3s-3 2-4 1z"/><path fill="none" d="m395 431-2-2-2 1m2 3-1-2-2 1"/></g><path fill="#fff" d="m402 427 20-2c-2 5-5 15 7 15 10 0 19-5 28 0 21 10 36 3 48-11 0 0-9 2-18 1 0 0 7-6 8-14-7 5-13 6-19 6s-10-4-18-5l1-10c1-4 0-8-6-8-14-2-27 6-51 6s-41-8-55-6c-6 0-7 4-6 8l1 10c-8 1-12 5-18 5s-12-1-18-6c0 8 7 14 7 14-9 1-18-1-18-1 12 14 27 21 48 11 9-5 19 0 28 0 12 0 9-10 7-15l24 2z"/><path d="M338 427h-1l6-3 1 1-6 2zm0 3c-1 1-1 0 0 0a30 30 0 0 1 6-3l1 1h-1l-6 2zm33 6-14-3a30 30 0 0 0-18 3h-1l1-1c6-3 12-3 18-3l14 2c2 1 4 0 5-1l1 1c-1 2-4 2-6 2zm-34-11h-1v-1h1l6-2h1l-1 1-6 2zm-1-3v-1l7-2v1l-7 2zm35 9-9-2h-1l1-1 9 2 3-1v1l-3 1zm-14 5a30 30 0 0 0-18 3v-1h1c7-4 13-4 17-3l13 2h1l-1 1-13-2zm14-3-19-3 1-1 18 3 4-1c1-1 2 0 1 1l-5 1zm-32 0c-1 0-2 0-1-1l8-2h1l-1 1-7 2zm123-6h1l-6-3-1 1h1l5 2zm0 3c1 1 1 0 0 0a30 30 0 0 0-6-3v1l6 2zm-32 6 13-3a30 30 0 0 1 18 3h1v-1h-1c-6-3-12-3-18-3l-14 2c-2 1-4 0-5-1l-1 1c2 2 4 2 7 2zm33-11h1v-1h-1l-6-2v1l6 2zm1-3v-1l-7-2v1l7 2zm-34 9 8-2h1l-1-1-9 2-2-1-1 1 4 1zm13 5a30 30 0 0 1 18 3v-1c-8-4-13-4-18-3l-13 2h-1l1 1 13-2zm-13-3 18-3v-1l-19 3-4-1c-1-1-1 0-1 1l6 1zm31 0c1 0 2 0 1-1l-8-2h-1l1 1 7 2z"/><g stroke="#000" stroke-linecap="round" stroke-linejoin="round"><path d="M400 427c-10 0-17-1-26-3-22-4-26-1-26 3l1 1 1-1-1-1c1-3 6-4 25-1 9 2 16 3 26 3v-1zm0 0c10 0 17-1 26-3 22-4 27-1 27 3l-2 1-1-1 1-1c0-3-6-4-25-1-9 2-16 3-26 3v-1z"/><path d="m342 417-9 3c-9 3-19 3-27-3 1 4 2 7 5 10l2 3v1l-17-1c14 15 28 19 47 9 9-4 18 1 28 1s9-7 7-15l1 1c2 4 4 16-8 15-10-1-18-6-28-1-15 7-26 7-40-3l-9-8 1-1c5 2 13 2 17 2-4-4-7-9-7-14h1c7 4 10 5 18 5 5 0 15-5 18-5v1zm116 0 9 3c9 3 19 3 27-3-1 4-2 7-5 10l-2 3v1l17-1c-14 15-28 19-46 9-10-4-19 1-29 1s-9-7-7-15l-1 1c-2 4-4 16 8 15 10-1 18-6 28-1 15 7 27 7 40-3l9-8-1-1c-5 2-13 2-16 2 3-4 6-9 6-14h-1c-7 4-10 5-18 5-5 0-15-5-18-5v1z"/><path d="M399 405c-11 0-21-2-30-4-7-1-15-3-22-2-5 0-7 3-6 8l3 19c1 4 3 5 6 4 5-1 21-5 25 0 4 4 0 8-5 8v-1c5 0 8-2 5-7-3-4-18-1-24 1-4 1-7 0-8-5l-3-19c-4-15 22-8 29-6l31 4 31-4c7-2 33-9 29 6l-3 19c-1 5-4 6-8 5-6-2-21-5-24-1-3 5 0 7 5 7v1c-5 0-9-4-5-8 4-5 20-1 25 0 3 1 5 0 6-4l3-19c1-5-1-8-6-8-7-1-15 1-22 2-9 2-19 4-30 4h-2z"/></g><path d="M362 417h-5l-1-13h3l1 10 3 1h3v3l-4-1zm6 1v-12h3v12zm10-6h1c1 1 2 0 2-1l-2-1h-1v2zm0 5h1c2 1 3 0 3-1l-3-1-1-1v3zm2 3-5-1v-12l4 1c3 0 5 1 5 4l-1 2c1 0 2 1 2 3s-2 4-5 3zm12 2-5-1v-12h7v3l-4-1v3h4v3l-4-1v3a51 51 0 0 0 6 0v3h-4zm10-7c2 0 2-1 2-2l-2-1h-1v3h1zm7 7c-3 0-4-2-5-3l-2-2h-1v5h-3v-13h5c2 0 4 1 4 4l-1 4 1 1 2 1v3zm0-10v-3l11-1v2l-4 1v10h-3v-10zm18-3-2 4h3l-1-4zm3 9-1-3h-2l-2 1-2 3-3 1 4-11-1 1v-3l8-1v2h-1l3 10h-3zm8-1h-4l1-3 3 1 3-1-1-1-3-1c-1-1-3-2-3-4s3-4 5-4l4 1-1 2h-3l-2 1 1 1 2 1c2 1 4 1 4 4 0 2-3 3-6 3z"/><path id="path-b7455" d="m m0 82 m0 103 m0 65 m0 65 m0 65 m0 65 m0 65 m0 65 m0 65 m0 65 m0 65 m0 65 m0 65 m0 65 m0 65 m0 65 m0 65 m0 65 m0 65 m0 65 m0 78 m0 119 m0 69 m0 55 m0 117 m0 67 m0 115 m0 54 m0 115 m0 100 m0 70 m0 84 m0 47 m0 43 m0 69 m0 52 m0 89 m0 107 m0 68 m0 76 m0 75 m0 53 m0 69 m0 101 m0 50 m0 73 m0 72 m0 86 m0 53 m0 48 m0 66 m0 111 m0 54 m0 86 m0 57 m0 117 m0 111 m0 107 m0 115 m0 104 m0 122 m0 57 m0 47 m0 53 m0 74 m0 51 m0 54 m0 68 m0 49 m0 53 m0 88 m0 84 m0 90 m0 118 m0 56 m0 67 m0 70 m0 109 m0 80 m0 86 m0 52 m0 72 m0 75 m0 104 m0 106 m0 65 m0 61 m0 61"/>
</svg>