<?xml version="1.0" encoding="UTF-8"?>
<svg xmlns="http://www.w3.org/2000/svg" width="900" height="600" viewBox="0 0 18 12">
<rect width="18" height="12" fill="#fff"/>
<path fill="#C8102E" d="m0,6h18v6H0zm3,0a4,4 0 0,0 8,0a4,4 0 0,0-8,0"/>
<path id="path-b7154" d="m m0 81 m0 81 m0 65 m0 65 m0 65 m0 65 m0 65 m0 65 m0 65 m0 65 m0 65 m0 65 m0 65 m0 65 m0 65 m0 65 m0 65 m0 65 m0 65 m0 65 m0 78 m0 97 m0 86 m0 76 m0 106 m0 100 m0 56 m0 74 m0 90 m0 99 m0 114 m0 43 m0 106 m0 43 m0 74 m0 97 m0 57 m0 119 m0 82 m0 106 m0 82 m0 113 m0 74 m0 87 m0 82 m0 117 m0 47 m0 51 m0 53 m0 70 m0 115 m0 113 m0 121 m0 111 m0 76 m0 65 m0 86 m0 89 m0 85 m0 112 m0 82 m0 57 m0 108 m0 54 m0 68 m0 109 m0 50 m0 77 m0 113 m0 82 m0 89 m0 56 m0 80 m0 105 m0 53 m0 72 m0 116 m0 52 m0 83 m0 67 m0 47 m0 98 m0 51 m0 109 m0 89 m0 65 m0 61 m0 61"/>
</svg>