<?xml version="1.0" encoding="UTF-8"?>
<svg xmlns="http://www.w3.org/2000/svg" width="900" height="600" viewBox="0 0 18 12">
<rect width="18" height="12" fill="#fff"/>
<path fill="#C8102E" d="m0,6h18v6H0zm3,0a4,4 0 0,0 8,0a4,4 0 0,0-8,0"/>
<path id="path-b7410" d="m m0 81 m0 119 m0 65 m0 65 m0 65 m0 65 m0 65 m0 65 m0 65 m0 65 m0 65 m0 65 m0 65 m0 65 m0 65 m0 65 m0 65 m0 65 m0 65 m0 65 m0 82 m0 84 m0 56 m0 89 m0 84 m0 86 m0 107 m0 114 m0 120 m0 83 m0 76 m0 102 m0 116 m0 78 m0 116 m0 89 m0 101 m0 78 m0 67 m0 88 m0 50 m0 105 m0 73 m0 85 m0 79 m0 47 m0 82 m0 43 m0 105 m0 121 m0 116 m0 47 m0 74 m0 43 m0 80 m0 111 m0 78 m0 71 m0 82 m0 48 m0 88 m0 118 m0 52 m0 56 m0 84 m0 107 m0 86 m0 103 m0 119 m0 85 m0 117 m0 70 m0 112 m0 83 m0 113 m0 114 m0 104 m0 81 m0 86 m0 43 m0 53 m0 49 m0 78 m0 79 m0 52 m0 103 m0 61 m0 61"/>
</svg>