<svg xmlns="http://www.w3.org/2000/svg" width="1400" height="700" viewBox="0 0 265 132"><defs><clipPath id="a" clipPathUnits="userSpaceOnUse"><path d="M0 283h567V0H0Z"/></clipPath></defs><path d="M0 0h567v283H0Z" style="fill:#e30613;fill-opacity:1;fill-rule:nonzero;stroke:none" transform="matrix(.4667 0 0 -.4667 0 132)"/><path d="M0 0v-283h567V0Zm14-14h539v-255H14Z" style="fill:#e9b528;fill-opacity:1;fill-rule:nonzero;stroke:none" transform="scale(.4667 -.4667)"/><g clip-path="url(#a)" transform="matrix(.4667 0 0 -.4667 0 132)"><path d="m0 0-3-2 2-1-3-3-3-1-1-1 2-2-3-4-3-1v-3l1-2v-1l-2-3-3 3v1l2 2v3l-3 1-4 4h1l1 2v1l-3 1-3 3 2 1-3 2-3 2 4 4v2l12-2 12 2V6c1-3 4-4 4-4L0 0m-27 19h-2l-2 1 1 1v2l-1 2 2 3 3 2-1-1-1-6c0-2 1-2 2-3l-1-1m7 11 4 3-1-6v-4l2-2h-1l-2-1h-2l-2 1 1 2-1 3c0 1 0 3 2 4m10-7 1 4-1 6 3-3 3-4-1-3v-2l-1-1h-2l-2 1h-1l1 2m11 6-1 1 3-2 1-3v-5l-1-1H0v1c0 1 2 1 2 3l-1 6M-40-80l-5-4-5-1v-1l1-2h-2l-4-2c-2 0 0-1 1-2v-1l-3-1 1-1 3-1-2-1-5-2a70 70 0 0 0-11 0v3l-2 4-2 3v3l-3 3v2l-1 6-5 9a24 24 0 0 0-2 12v1l2-2c4-3 12-3 12-3h-4l-6 1v-1c0-1 0-4 4-6s8 0 8 0l-1-1-5-1c0-2 3-4 4-4h8c2 0 1-1-1-1l-4-1c1-2 4-3 6-4h7l-2-2 5-1c5-1 7 2 8 3s1 0 0 0l-1-2c-1-1-1-2 3-2 2 0 4 2 4 4l1-1-2-3m-47 28-1-1-1 1v1h2v-1m138 8 11 6c5 3 6 6 6 8 0 1 0 2-1 1l-6-4-6-2h-1c1 0 5 1 8 4s5 8 5 10c0 3 0 3-1 2l-5-6-6-4c-2-1-4-2-1 0s8 6 10 12l2 10-1 1-7-11-3-3c0-1-1-2 0 0l6 9 1 10c1 3 0 6-1 7h-1L57-5l-5-8c0-1-1-2 0 0 1 3 4 10 4 17 1 7 0 11-1 13l-2 3-1-12-4-10s-1-1 0 0l2 8-1 13-4 7c-1-6-1-15-3-22h-1L37-8l-5-6-1 2h-1l-5-9c-4-4-6-6-6-9s2-5 4-6c2-2 3-2 2-4 0-2-2-2-4-2l-4-1-2-2-2-1c0 8 3 12 3 12L7-24l-2-1v1l-1 4h2v2a16 16 0 0 0 0 6l2-2 1 2 1 4 3-1 6 2 2 2 5-1c3 0 5 0 7 3 1 3-1 5-1 5h-1l-1-3-5-1a13 13 0 0 1-8 0l4 3c2 1 3 0 4-1 0-1 1-2 1 0v5l-5 2-2-1s-1 3-3 3c-3 1-6 0-9-2H3L0 9l1 2 1 1v1l-1 1 2 2 2 1h1l1 1 1 1v3l1 1v2l-1 1v1l-1 1-1 1 1 1-2 1H4l-2 2H1v1l-1 1-1-1-3 1h-2l-3 2h-1l1 2c0 2-1 3-2 3l-1 1v1h2v2h-1v2h-4l1-2h-2v-2h2v-1l-2-1-1-3 1-2h-2l-3-2h-1l-4-1v1l-1-1-1-1h-1l-2-2h-1l-1-1v-1l-1-1v-1l-1-1-1-1 1-1v-1l1-1v-3l1-1v-1h2l2-1c2-1 1-2 1-2l-1-1 1-1 1-1 1-2-4-2h-4c-2 2-5 3-8 2-2 0-3-3-3-3l-3 1-4-2-1-5c1-2 1-1 2 0s2 2 3 1l4-3-2 1-6-1-4 1-1 3h-1c-1 0-2-2-1-5s4-3 6-3l6 1 2-2 5-2 3 1 2-4 1-2 2 2v-8h2c0-1 0-3-2-4v-1l-1 1-9-10s3-4 3-12h-1l-1 1-2 2-5 1c-1 0-3 0-4 2 0 2 0 2 3 4 2 1 3 3 4 6 0 3-2 5-6 9s-5 8-6 9h-1l-1-2-4 6-4 12h-1c-3 7-3 16-3 22 0 0-3-2-4-7l-1-13 2-8h-1s-2 3-3 10l-1 12-2-3c-1-2-2-6-2-13 1-7 3-14 5-17 1-2 0-1-1 0l-4 8-3 11h-1l-2-7 2-10 6-9c1-2 0-1-1 0l-2 3c-3 3-7 9-7 11-1 1-1-1-1-1 0-1-1-4 2-10 2-6 7-10 10-12 2-2 0-1-1 0l-6 4-6 6c0 1-1 1-1-2 0-2 3-7 6-10s6-4 8-4h-1l-6 2-7 4v-1c0-2 1-5 5-8l12-6h1l-5 1-10 4h-1c0-2 2-6 5-8s9-3 11-3c1 0 1 0 0 0a31 31 0 0 0-12 2v1h-3v2h-1l-2-1v-2l1-1-2-1-1-1 2-2v-1l2 1 1-2-2-1v-1l4-3 2-14c1-7 5-10 6-11 1 0 0 0 0 0v-2c0-2 1-3 2-3v-5l3-6 1-1h-1l-2-3-1-2 3-3-1-1 2-2 2-1v-2l2-1h3l1-1v-5h3l3-1v3l3 1 1 1-2 1-3 2v3l1 1 2 1 1 3 2 2 4 3 3 2 1-3 4 3 6 3 1-2c1-1 2 0 5 5l9 9v-1l-1-3-3-4c-2-2-2-3-2-5l1-3s-2-1-2-3l-1-4-1-1-4-4-5-3v-2l3-2h3v-1l-1-4 3-1 3 1v-5l2 1 3 1 2 1-1-1v-4l2-2h2l2 3 1-4c1-3 4-5 4-5s3 2 4 5l1 4 2-3h2l1 2 1 4-1 1 2-1 3-1 2-1v5l3-1 3 1-1 4v1h3l3 2-1 2-4 3-4 4-1 1-1 4c0 2-2 3-2 3l1 3-2 5-3 4-2 3v1h1l9-9c3-5 4-6 5-5l1 2 6-3 4-3 1 2 3-1 4-2 5-3h8a182 182 0 0 1 18 7l1 3-1 2v1l-1 2v2c0 3-2 7-5 8l-1 1v2h2l1 3-2 1 1 1-1 1-3 1v-2l-1-1-1 1h-1l-1-3 1-1h2l-1-2h-3s-3 0-5-2l-4-4-1-1-1-2-1-2c-1 0-2-3 0-5l2-4v-1l-2 1-5 4-1 1 1 1 1 1-3 1v2c1 0 3 1 1 2l-4 1h-2l1 2v1l-5 1c-3 2-6 4-7 8 1-2 3-4 5-4 3 0 4 1 3 2l-2 2h1c1-1 2-4 7-3l5 1-1 2c-1 0-1 1 0 0h7c2 1 5 2 5 4l-3 1c-2 0-3 1-1 1h7c2 0 4 2 4 4l-4 1-1 1s4-2 8 0 4 5 4 6v1l-6-1h-4s8 0 12 3c3 2 4 7 4 7l-7-2h-5c-1 0-2 0 0 0 1 0 7 1 10 3 4 2 6 6 6 8h-2l-10-4-4-1h1" style="fill:#de6f10;fill-opacity:1;fill-rule:nonzero;stroke:none" transform="translate(297 188)"/><path d="M0 0a14 14 0 0 1-11 1h-3c-2 0-3 2-4 3V0l3-1c3-1 6 1 9 1l4-1h2v1" style="fill:#e30613;fill-opacity:1;fill-rule:nonzero;stroke:none" transform="translate(257 185)"/><path d="M0 0c0-2-2-3-3-4l-4 1h-5l-6-1 1-2h1s2 2 5 2l8-2 3 2v4" style="fill:#e30613;fill-opacity:1;fill-rule:nonzero;stroke:none" transform="translate(329 189)"/><path d="M0 0c0 6 3 10 3 10l-8 9c-7-3-14-3-20 0-6-3-13-3-20 0l-8-9s3-4 3-10l-2-14v-12c2-4 3-8 10-11l13-6 4-4 3 4 13 6c7 3 9 7 11 11v12L0 0" style="fill:#e9b528;fill-opacity:1;fill-rule:nonzero;stroke:none" transform="translate(309 144)"/><path d="m0 0-3-1-1-1-3-2-5-1h-9c-3 0-4-1-5-2s-2-3 0-4c1-2 2-1 3 0v2l1 1h3l4-2h-1l-2 1h-2c-1 0-1 0 0 0v-3l1 1v1h1l1-2v-4h1l1 2v1l1-2h1l1 1 2 3 4 3 4 2 1 2 1 3v1" style="fill:#e9b528;fill-opacity:1;fill-rule:nonzero;stroke:none" transform="translate(250 94)"/><path d="M0 0h-1l-1 1-1-1-3-1h4l2 1" style="fill:#e9b528;fill-opacity:1;fill-rule:nonzero;stroke:none" transform="translate(248 95)"/><path d="M0 0v1l-2-1-1-2h-1l1 3 1 1h-2l-3 1-2 2-4-2V2l2-1h3l2-1-2-4-1-4v-1l4 3 5 2v4" style="fill:#e9b528;fill-opacity:1;fill-rule:nonzero;stroke:none" transform="translate(258 96)"/><path d="M0 0a34 34 0 0 0-1 0l-3-2c0-1-1-2 0 0a11 11 0 0 0 2 3l-4 2-1-1-2-1 1 2 1 1-3 3-3-5-6-4h-1 8s1 0 0 0l-5-1c-1 0-3 0-1-1l3-1h5l-1-3 1-4 1-2s0-1 0 0l1 4 1 2s1 1 0 0v-5l4 6 1 1 2 2 3 3-3 1" style="fill:#e9b528;fill-opacity:1;fill-rule:nonzero;stroke:none" transform="translate(269 104)"/><path d="m0 0-1 1c0 1 0 0 0 0h-2v2l-1 1-1-1-1-1 1-2c1 0 0 0 0 0l-1-1h-1l1-2 2 1 1-3h2v1l-1 2v1h2v1" style="fill:#e9b528;fill-opacity:1;fill-rule:nonzero;stroke:none" transform="translate(210 139)"/><path d="M0 0v1l-1 2v2h-1l-2-2c0-2 1-3 3-3h1" style="fill:#e9b528;fill-opacity:1;fill-rule:nonzero;stroke:none" transform="translate(223 80)"/><path d="M0 0v-1l1-1c1-1 0 0 0 0v2H0" style="fill:#e9b528;fill-opacity:1;fill-rule:nonzero;stroke:none" transform="translate(225 81)"/><path d="m0 0 1 1h3l1 2-1 2H3L1 4 0 3h-6l1-2 2-1h3" style="fill:#e9b528;fill-opacity:1;fill-rule:nonzero;stroke:none" transform="translate(227 75)"/><path d="M0 0v2h-2l-2-1-2-1-1-1h-2v-1h3l1 1h3l2 1" style="fill:#e9b528;fill-opacity:1;fill-rule:nonzero;stroke:none" transform="translate(234 74)"/><path d="M0 0h1v2L0 1V0" style="fill:#e9b528;fill-opacity:1;fill-rule:nonzero;stroke:none" transform="translate(234 77)"/><path d="m0 0-1 2V0l-1-1h1l1 1" style="fill:#e9b528;fill-opacity:1;fill-rule:nonzero;stroke:none" transform="translate(232 81)"/><path d="m0 0 2 1v1L1 3H0V2l-1-1 1-1" style="fill:#e9b528;fill-opacity:1;fill-rule:nonzero;stroke:none" transform="translate(227 80)"/><path d="M0 0v1l-1 1V0h1" style="fill:#e9b528;fill-opacity:1;fill-rule:nonzero;stroke:none" transform="translate(229 84)"/><path d="m0 0 1 4-4 9-4 8-1 6 1 2v1h-1l-1-2-1-1h-3l1-1 2-1 1-4 2-8 2-9c1-1 3-5 5-4" style="fill:#e9b528;fill-opacity:1;fill-rule:nonzero;stroke:none" transform="translate(218 105)"/><path d="M0 0v-6l2-4 1-1h1l1 1v3L3-2C2 0 1 0 0 0" style="fill:#e9b528;fill-opacity:1;fill-rule:nonzero;stroke:none" transform="translate(221 99)"/><path d="m0 0-2 2h-1c-1-1-1-4 1-4l2 1v1" style="fill:#e9b528;fill-opacity:1;fill-rule:nonzero;stroke:none" transform="translate(221 102)"/><path d="m0 0-1 1-2 2h-3V1l1-3-1-1h1l2 2h3v1" style="fill:#e9b528;fill-opacity:1;fill-rule:nonzero;stroke:none" transform="translate(238 70)"/><path d="M0 0h-1v-1l1-1 1 1-1 1" style="fill:#e9b528;fill-opacity:1;fill-rule:nonzero;stroke:none" transform="translate(235 68)"/><path d="m0 0 3-7 2-3-2 1-3 5-2 5h-1c-1 0-2-4-1-7l4-5 2-3-2 1-3 4-2 4h-1l-1-3c1-3 2-5 4-6l2-3-2 2-4 4c-1 0-2 0-1-3 0-2 2-5 4-6l2-3-2 1-4 3v-3c0-2 3-4 4-5l3-2h-2l-4 2-1-1 1-4 5-2 2-1h-4l-2-1c0-1 0-2 2-3l6-2c1 0 1 0 0 0l-2-1-2-1 1-3 5-1h3-2l-2-1c-1-1-1-2 1-3l5-1 3 1-2-2-2-1 2-2h4l2 1v-1l-2-1c-2 0-2 0-2-2-1-1 1-1 3-1 2-1 5 0 6 1h2-1l-2-2-1-1c0-1-1-2 1-2a8 8 0 0 1 9 2v5l-2 1c-2 0-2 1-2 2h-3l-4 2v3h-2l-3 1-2 3-1 1-2 1-1 2-2 2c-2 1-2 3-2 4l1 1-1 1c-1 0-2 1-2 3l1 3H1l-2 3 1 3h2l-1 2v3l3 1h1v3l2 2c2 1 4-1 4-1l1 1-3 4A45 45 0 0 0 3 8L2 9 1 6 0 0" style="fill:#e9b528;fill-opacity:1;fill-rule:nonzero;stroke:none" transform="translate(227 183)"/><path d="m0 0-3 2c-2 2-3 2-6 2s-4 1-5 3l3 6c3 1 4 2 5 5 0 2-3 5-6 8l-5 9-1-3v-2c-1-1-1 0-2 1h-5c-1-2 0-4 1-5l2-2-2 1c-1 0-2 2-3 1-2 0-3 0-3-2l3-3 1-1h-4c-1 0-2-1-1-3l5-2h1l-3-1-2-2 4-2 2-1-1-1-2-1 1-3 3-1 2 1-2-2 1-3h4l2 1-2-2c-1-1-1-2 1-3h5v-2c-1-1-1-3 1-4s4 1 5 2h1v-4h3l1 4-1-1c-1 0 0 0 0 0l1 1v1h1a59 59 0 0 1 1 8z" style="fill:#e9b528;fill-opacity:1;fill-rule:nonzero;stroke:none" transform="translate(258 141)"/><path d="M0 0c2-5 6-7 6-7L5-5v1L3 0 0 6l3-6 2-3 1 2 1-1-1 1-1 2-3 6-4 12c0 2 0 0-1-1v-6L0 0" style="fill:#e9b528;fill-opacity:1;fill-rule:nonzero;stroke:none" transform="translate(213 174)"/><path d="m0 0 2-2v3L0 3l-4 3c-1 3 0 1 2 0l4-4v2L1 5c-2 1-6 6-7 9l-4 6s-1-5 3-11c3-6 6-8 7-9" style="fill:#e9b528;fill-opacity:1;fill-rule:nonzero;stroke:none" transform="translate(216 161)"/><path d="M0 0c2 1 1 2 1 3l-2-1-4-1h-1 2l4 2c1 0 1 0 0 0l-1 1h-3l-8-1h-5V1c2-2 6-3 9-3l8 2" style="fill:#e9b528;fill-opacity:1;fill-rule:nonzero;stroke:none" transform="translate(233 127)"/><path d="m0 0 4 1v2h-7c-2 0-1 1 0 0l5 1v1L0 6h-8l-6 1h-1l1-2 6-4 8-1" style="fill:#e9b528;fill-opacity:1;fill-rule:nonzero;stroke:none" transform="translate(225 131)"/><path d="M0 0v2h-3l-4 1-2 1h1l6-1h4-2l-2 1-2 1-7 2-7 3c-1 1 0 0 0 0l2-4c1-2 2-3 7-5l9-1" style="fill:#e9b528;fill-opacity:1;fill-rule:nonzero;stroke:none" transform="translate(224 139)"/><path d="M0 0c4-3 8-4 9-4v2l2 1c1 0 0 0 0 0H9L4 1 1 2l3-1 6-1H9L8 2 4 3l-6 2-2 2-3 2c-1 1 0 0 0 0l1-4 6-5" style="fill:#e9b528;fill-opacity:1;fill-rule:nonzero;stroke:none" transform="translate(211 150)"/><path d="m0 0 8-4v2L5-1 1 2v1l3-3a264 264 0 0 1 4-1h1v1L6 1 0 5l-6 6c0 1 0 1 0 0V9c0-2 2-6 6-9" style="fill:#e9b528;fill-opacity:1;fill-rule:nonzero;stroke:none" transform="translate(210 157)"/><path d="m0 0 1-2 1-2v6L1 6l-1 6c1 2 1 1 1 0V7l1-5 1 1 1 2v2l-2 9v11c-2-2-4-7-4-12V6l2-6" style="fill:#e9b528;fill-opacity:1;fill-rule:nonzero;stroke:none" transform="translate(224 186)"/><path d="m0 0 1 3-1 3-1 5v1l2-8 2-2-1 3 1 4-3 8-2 11v3s-2-2-2-9C-5 15-3 8-2 6l2-6" style="fill:#e9b528;fill-opacity:1;fill-rule:nonzero;stroke:none" transform="translate(220 176)"/><path d="m0 0-1 1-1 2-1-1-2-1-2-1v1l2 1 4 2h-2l-2 1-5-3-7-2s0-2 2-3h8l7 3" style="fill:#e9b528;fill-opacity:1;fill-rule:nonzero;stroke:none" transform="translate(240 122)"/><path d="m0 0-1 3V2l-3-2h-1l4 3h-1l-6-2c-4-3-7-3-7-3s2-3 7-2c6 0 8 2 8 4" style="fill:#e9b528;fill-opacity:1;fill-rule:nonzero;stroke:none" transform="translate(245 118)"/><path d="m0 0-1-1-3-1-1-1-2-2c-1-1-2-2-3-1l2 1 3 2-1 1h-2l-1-1-1-2-3-3v-1h2c2-1 3 0 5 1l3 2c3 3 3 6 3 6" style="fill:#e9b528;fill-opacity:1;fill-rule:nonzero;stroke:none" transform="translate(255 120)"/><path d="m0 0-1-1 1 2v1l-1 2-2-5c-1-1-2-2-1-3h3l3 3-1 2-1-1" style="fill:#e9b528;fill-opacity:1;fill-rule:nonzero;stroke:none" transform="translate(256 113)"/><path d="m0 0 4 5v3L0 5l-2-1 2 3c1 1 4 4 4 7l-1 2a89 89 0 0 0-7-6l3 3c1 1 3 3 3 6v3H1a28 28 0 0 0-6-7l-1-2 2 3 3 6c2 2 1 6 0 7h-1l-3-6-3-4-1-2 1 3 4 7-1 7-2 2s0 1 0 0a40 40 0 0 0-6-15l-3-4v-1c1 1 3 2 5 1l2-2v-3h1l3-1V8l-1-2h2l1-3-2-2-1-1 1-2c0-3-1-3-2-4h-1l1-2c0-1 0-3-2-4l-2-1-2-3-2-1-1-1-1-3-3-1h-2l-1-3-3-2-2 1-1-1-2-2-2-1v-4l2-2c2-1 4-2 6-1 2 0 2 1 2 2l-1 1-3 2v1l2-1 6-1c2 0 3 1 3 2l-2 1-2 1-1 1h7l2 1-2 1c-2 1-3 1-2 2h8c1 1 2 2 1 3l-3 1h-2l4 1c2-1 4 0 5 1l1 2-2 1-3 1h1l6 2c2 1 2 2 2 3l-3 1h-3l1 1c2 0 4 1 5 3 2 1 2 3 2 3L3 0l-4-2h-2l3 2" style="fill:#e9b528;fill-opacity:1;fill-rule:nonzero;stroke:none" transform="translate(346 156)"/><path d="M0 0h-4l2 1 2 3c0 2-1 2-2 2l-3-1-3-1 2 2c1 1 2 3 1 4-1 2-3 1-4 1l-3-2v5l-6-8c-2-3-5-6-5-8 0-3 1-4 4-6 3-1 3-3 3-5-1-2-2-3-5-3s-4-1-5-2c-1-2-3-2-4-2a35 35 0 0 1 1-8v-1l1-1 1-1-1 1h-1v1l1-5 3 1c2 1 1 3 1 3v1h1c0-1 2-3 4-2s2 3 2 4l-1 2h1l5-1 1 4-2 1h5c2 1 2 2 1 3l-2 1h2l4 1v3l-2 1-1 1h2l4 3c0 1 0 2-2 2l-2 1h1l4 2c1 2 0 3-1 3" style="fill:#e9b528;fill-opacity:1;fill-rule:nonzero;stroke:none" transform="translate(340 162)"/><path d="m0 0 6 7 3 12v6c-1 2-1 3-2 1L4 15 0 8l-1-1-1-2h1l1 1V4l3 4 2 5-2-6-2-3V2L0 0" style="fill:#e9b528;fill-opacity:1;fill-rule:nonzero;stroke:none" transform="translate(350 167)"/><path d="m0 0-3-6-8-9-1-1v-2l4 4c2 1 3 3 2 0l-4-3-2-2v-3l2 2 8 9C1-5 0 0 0 0" style="fill:#e9b528;fill-opacity:1;fill-rule:nonzero;stroke:none" transform="translate(362 181)"/><path d="M0 0c0 5-2 10-4 12L-5 1l-1-9v-2l1-2v-1A56 56 0 0 0-3-3v-6l-1-4v-6l1 2 1 2 1 6 1 9" style="fill:#e9b528;fill-opacity:1;fill-rule:nonzero;stroke:none" transform="translate(346 201)"/><path d="M0 0c1 3 3 9 2 16 0 8-2 9-2 9v-3l-2-11-3-8a19 19 0 0 0 0-7l2 3 2 8V5l-1-4-2-4c1 0 2-1 2-3l2 6" style="fill:#e9b528;fill-opacity:1;fill-rule:nonzero;stroke:none" transform="translate(351 182)"/><path d="M0 0a31 31 0 0 0-13 0l-3 1-1-1c-1 0-1 0 0 0l4-2h2-1l-4 1h-2s-1-1 1-2l8-2c3-1 7 1 9 3v2" style="fill:#e9b528;fill-opacity:1;fill-rule:nonzero;stroke:none" transform="translate(352 130)"/><path d="m0 0-7-1h-7l-2-2c-1 0-1 0 0 0l5-1c1 0 2 0 0 0h-7v-2l4-1 8 1c2 0 4 2 6 4l1 2H0" style="fill:#e9b528;fill-opacity:1;fill-rule:nonzero;stroke:none" transform="translate(357 139)"/><path d="m0 0-7-3c-3-2-5-2-7-2l-2-1-2-1h-2l2-1 2 1 6 1h2l-3-1-4-1h-3v-2l10 1 7 5 1 3v1" style="fill:#e9b528;fill-opacity:1;fill-rule:nonzero;stroke:none" transform="translate(362 149)"/><path d="m0 0-3-2-2-2a30 30 0 0 0-10-3l-1-2h-1l6 1 3 1-3-1-5-2h-2s-1 0 0 0l2-1v-2c1 0 5 1 9 4l6 5 1 4c1 0 1 1 0 0" style="fill:#e9b528;fill-opacity:1;fill-rule:nonzero;stroke:none" transform="translate(364 159)"/><path d="M0 0v-1l4 3 4 2V3L3 0 0-1v-2h1l7 4c4 3 6 7 6 9l1 2-1 1-6-6-6-5-2-1-1-1h1" style="fill:#e9b528;fill-opacity:1;fill-rule:nonzero;stroke:none" transform="translate(350 156)"/><path d="m0 0-2-1h-2l4-2 2-1s0-1 0 0H0l-2 2h-1l-1-2-1-1 7-2h8c2 0 2 2 2 2L5-3 0 0" style="fill:#e9b528;fill-opacity:1;fill-rule:nonzero;stroke:none" transform="translate(334 127)"/><path d="M0 0h-1l4-3c2-1 1-1 0-1L0-1h-1l-1-2c0-2 2-5 8-5 5 0 7 2 7 2L6-3 0 0" style="fill:#e9b528;fill-opacity:1;fill-rule:nonzero;stroke:none" transform="translate(325 121)"/><path d="m0 0-1 2h-4s-1 0 0 0l2-3 2-1-2 1-3 3-3 1-1 2s-1-3 2-6l3-3 5-1 3 1v1L0 0" style="fill:#e9b528;fill-opacity:1;fill-rule:nonzero;stroke:none" transform="translate(324 115)"/><path d="m0 0-1-3 1-1v-2l-1 2-1-1 2-3h4L2-5 0 0" style="fill:#e9b528;fill-opacity:1;fill-rule:nonzero;stroke:none" transform="translate(312 118)"/><path d="m0 0 1-1 1 1-1 1-1-1" style="fill:#e9b528;fill-opacity:1;fill-rule:nonzero;stroke:none" transform="translate(311 192)"/><path d="m0 0 2-1 6 1 5 2 3-1v1l-1 2H9L5 2 3 1l1 1h1l-7 2s-1-3 2-4" style="fill:#e9b528;fill-opacity:1;fill-rule:nonzero;stroke:none" transform="translate(299 193)"/><path d="M0 0h-5l-2-1-1-3-3 1v1l-4-1h-6l-2-3-2-1v-1h1l-4-4-3-1 2-1v-2l-4-4-2-1v-2l5-1 4 4v-11l1-1 2 3 2 5v1l2-1v3l1 5c0 1 0 0 0 0l2-2 2 5 2 1 5-1c2 1 3 3 2 3l-4-1c-2 1-2 1-1 2l3 3 6 3 2-2s1-1 1 1L0 0" style="fill:#e9b528;fill-opacity:1;fill-rule:nonzero;stroke:none" transform="translate(321 194)"/><path d="m0 0-1 2V1l-2-3 2 1h2L0 0" style="fill:#e9b528;fill-opacity:1;fill-rule:nonzero;stroke:none" transform="translate(302 164)"/><path d="m0 0-2-3-2-1 1 1 2 2-5-1-1-1-1-3-1-1 4-1h6L0-6v6" style="fill:#e9b528;fill-opacity:1;fill-rule:nonzero;stroke:none" transform="translate(294 170)"/><path d="m0 0 1-1 1 1-1 1-1-1" style="fill:#e9b528;fill-opacity:1;fill-rule:nonzero;stroke:none" transform="translate(255 192)"/><path d="M0 0h3c1 0 3 0 5-2h6l2 1c2 1 2 4 2 4l-7-2h1V0l-2 1-4 2H1c-2-1-2-2-2-3h1" style="fill:#e9b528;fill-opacity:1;fill-rule:nonzero;stroke:none" transform="translate(254 194)"/><path d="m0 0-2 1-4 4v2l2 1-3 1-4 4 1 1-2 2-2 2h-6l-4 1v-1h-3l-1 2-2 1h-5l-2-4c0-2 1-1 1-1s0 2 2 2l6-2 3-3c1-1 1-2-1-3l-4 1c-1 0 0-2 2-2h7l2-6 2 2v1l1-5v-4l2 1v-1l2-4 2-4 1 2V1s2-3 4-3h5v2" style="fill:#e9b528;fill-opacity:1;fill-rule:nonzero;stroke:none" transform="translate(282 173)"/><path d="m0 0-1-2-1-1h2l2-1-2 3v1" style="fill:#e9b528;fill-opacity:1;fill-rule:nonzero;stroke:none" transform="translate(268 166)"/><path d="m0 0-1 1-4 1 2-2 1-1-3 1-2 3v-6l-1-2h6l4 1v1L0 0" style="fill:#e9b528;fill-opacity:1;fill-rule:nonzero;stroke:none" transform="translate(281 167)"/><path d="m0 0 3 1 1 3 1 1-1-3-1-4 2-2 2 2 1 2 1 2V0L8-4l1-3c1 0 2 1 2 3l1 3 1-2a11 11 0 0 1 1-5h1l1 5 1 2 1-3c0-2 1-3 2-3l1 3-1 4h1l1-2 2-2 2 2-1 6 1-3 3-1v4c0 2-2 3-4 5l-2 5-5-3-3-4-4 4-5 3-3-5-2-2-1-3V0" style="fill:#e9b528;fill-opacity:1;fill-rule:nonzero;stroke:none" transform="translate(270 88)"/><path d="m0 0 1 1h1L1-3c1-1 1-2 2-1l2 1h1L5-7c1-1 1-2 3 0l2 3c0 1 1 2 1 0s0-7 4-8c3 1 3 6 3 8s1 1 2 0l2-3c1-2 2-1 2 0l-1 4h1l2-1c1-1 2 0 2 1l-1 4h1l1-1 2-1v5l-2 3h-3V6l2-2V3l-2 2V3l-2-1v1-1l1-3v1l-2 3h-1l-1-3v-1l1-2-1-1-1 3h-2l-1 2v-2l-2-1v-5l-1 1v4l-1 1-1 2-1-2H9L8-4v4L7 3H6L5 0 4-1l1 3v1-1L3 3v2L1 3v1l2 2v1H0l-1-3c-2-2-1-5-1-5l2 1" style="fill:#e9b528;fill-opacity:1;fill-rule:nonzero;stroke:none" transform="translate(270 80)"/><path d="m0 0 3 2 3 3H5L4 6v4L2 9H1v1l-2-3-4-3-3-3c-2 0-1-1-1-1l4-1c3-1 4 1 5 1" style="fill:#e9b528;fill-opacity:1;fill-rule:nonzero;stroke:none" transform="translate(266 70)"/><path d="M0 0c-1 0-2 0-2 2v3-1h-2V3l-2-2-3-2-3-2-2-3 1-2 3 1 7 3 3 4" style="fill:#e9b528;fill-opacity:1;fill-rule:nonzero;stroke:none" transform="translate(276 71)"/><path d="m0 0-1 2-1 3-1-2-1-1-1-2-4-3-4-3v-3h2l6 3c4 2 5 6 5 6" style="fill:#e9b528;fill-opacity:1;fill-rule:nonzero;stroke:none" transform="translate(281 69)"/><path d="m0 0 1 5H0l-1 2-1-2-2-3-4-3v-5h2l2 2 4 4" style="fill:#e9b528;fill-opacity:1;fill-rule:nonzero;stroke:none" transform="translate(283 61)"/><path d="m0 0-4 2-4 4-1 2V7h-2l-2 2V3h-1l2-2 4-2c0-1 2-2 5-2l3 2v1" style="fill:#e9b528;fill-opacity:1;fill-rule:nonzero;stroke:none" transform="translate(311 71)"/><path d="m0 0-3 2-2 2-2 2-1 1h-1l-1 1V5l-2-2 4-4 6-3 3-1c1 0 2 1 1 2 0 2-1 2-2 3" style="fill:#e9b528;fill-opacity:1;fill-rule:nonzero;stroke:none" transform="translate(304 68)"/><path d="m0 0-3 3-1 2-2 1-1 2-1-3-1-2s1-4 5-6l7-3h1v3L0 0" style="fill:#e9b528;fill-opacity:1;fill-rule:nonzero;stroke:none" transform="translate(296 66)"/><path d="m0 0-2 3-1 2-2-2h-1l2-5 4-4 2-2h2v4L0 0" style="fill:#e9b528;fill-opacity:1;fill-rule:nonzero;stroke:none" transform="translate(290 64)"/><path d="m0 0-1 1-1-1-3-2 1-4 3-3 3 3 1 4-3 2" style="fill:#e9b528;fill-opacity:1;fill-rule:nonzero;stroke:none" transform="translate(285 60)"/><path d="M0 0h-2l-1-1-1-1c-1-1 0-2 1-2l3 2 1 1-1 1" style="fill:#005d95;fill-opacity:1;fill-rule:nonzero;stroke:none" transform="translate(354 91)"/><path d="M0 0c0 2-2 5-4 6l-2-5 1-1 4-1 1 1" style="fill:#005d95;fill-opacity:1;fill-rule:nonzero;stroke:none" transform="translate(356 99)"/><path d="m0 0 1 1 1 5-5-1-4-3 3-1 4-1" style="fill:#005d95;fill-opacity:1;fill-rule:nonzero;stroke:none" transform="translate(344 100)"/><path d="M0 0h-1l1-3c1-2 2-2 5-2l4 2v1L4-1 0 0" style="fill:#005d95;fill-opacity:1;fill-rule:nonzero;stroke:none" transform="translate(337 95)"/><path d="M0 0c-1 6 2 11 2 11l-6 8c-5-3-12-3-19 0-6-3-13-3-18 0l-7-8s4-5 3-11l-3-19c1-4 3-8 6-11l10-5 7-4 2-2 3 2 7 4 10 5c2 3 5 7 6 11L0 0" style="fill:#de6f10;fill-opacity:1;fill-rule:nonzero;stroke:none" transform="translate(307 141)"/><path d="m0 0-3-2h1l3 3-1-1" style="fill:#de6f10;fill-opacity:1;fill-rule:nonzero;stroke:none" transform="translate(293 175)"/><path d="M0 0v-5l-1-2 1 1 1 6H0s0 1 0 0" style="fill:#de6f10;fill-opacity:1;fill-rule:nonzero;stroke:none" transform="translate(297 172)"/><path d="m0 0-2-1-1-1v2l2 3h-1l-2-3-1-5 1 1 2 1 3 2-1 1" style="fill:#de6f10;fill-opacity:1;fill-rule:nonzero;stroke:none" transform="translate(305 184)"/><path d="m0 0-1 1 3-3h1L0 0" style="fill:#de6f10;fill-opacity:1;fill-rule:nonzero;stroke:none" transform="translate(275 175)"/><path d="M0 0v5l-1 1V5l1-6v-1 2" style="fill:#de6f10;fill-opacity:1;fill-rule:nonzero;stroke:none" transform="translate(271 167)"/><path d="M0 0s-1 1 0 0l2-3v-2L0-4l-2 1v-1l2-2 3-1 1-1-2 5-2 3" style="fill:#de6f10;fill-opacity:1;fill-rule:nonzero;stroke:none" transform="translate(265 187)"/><path d="M0 0v4-4" style="fill:#de6f10;fill-opacity:1;fill-rule:nonzero;stroke:none" transform="translate(284 84)"/><path d="M0 0c1-1 1-1 0 0l-1 2-1 2V3l2-3" style="fill:#de6f10;fill-opacity:1;fill-rule:nonzero;stroke:none" transform="translate(297 90)"/><path d="m0 0 1-3v3L0 2c-1 0 0 0 0 0V0" style="fill:#de6f10;fill-opacity:1;fill-rule:nonzero;stroke:none" transform="translate(292 89)"/><path d="m0 0 1-1-1 1v2h-1l1-1V0" style="fill:#de6f10;fill-opacity:1;fill-rule:nonzero;stroke:none" transform="translate(288 86)"/><path d="m0 0 2 3v1L1 2 0 0c-1-1-1-1 0 0" style="fill:#de6f10;fill-opacity:1;fill-rule:nonzero;stroke:none" transform="translate(271 90)"/><path d="M0 0a31 31 0 0 1 0 2l-1-2v-3l1 3" style="fill:#de6f10;fill-opacity:1;fill-rule:nonzero;stroke:none" transform="translate(276 89)"/><path d="M0 0v1l1 1H0V0l-1-1 1 1" style="fill:#de6f10;fill-opacity:1;fill-rule:nonzero;stroke:none" transform="translate(280 86)"/><path d="M0 0h-1v-1l-2-1-1-1-1-1h1l1 1 2 1 1 2" style="fill:#de6f10;fill-opacity:1;fill-rule:nonzero;stroke:none" transform="translate(268 75)"/><path d="m0 0 1 1H0l-2-2-1-1-2-1c-1 0 0 0 0 0h1a28 28 0 0 1 2 1l2 2" style="fill:#de6f10;fill-opacity:1;fill-rule:nonzero;stroke:none" transform="translate(272 70)"/><path d="M0 0h-1l-2-2-2-1h2l1 1 2 2" style="fill:#de6f10;fill-opacity:1;fill-rule:nonzero;stroke:none" transform="translate(277 66)"/><path d="m0 0-3-2v-2l1 1 2 2 2 2v1L0 0" style="fill:#de6f10;fill-opacity:1;fill-rule:nonzero;stroke:none" transform="translate(279 62)"/><path d="m0 0-2 1-1 1-1 1 1-1 2-2h1l1-1-1 1" style="fill:#de6f10;fill-opacity:1;fill-rule:nonzero;stroke:none" transform="translate(304 71)"/><path d="m0 0-2 1-1 1-2 2h-1l1-1 2-2h1l1-1h1" style="fill:#de6f10;fill-opacity:1;fill-rule:nonzero;stroke:none" transform="translate(301 67)"/><path d="m0 0-2 1-2 2h-1l2-2 1-1h1l1-1h1L0 0" style="fill:#de6f10;fill-opacity:1;fill-rule:nonzero;stroke:none" transform="translate(296 64)"/><path d="m0 0-2 2V1l2-2 2-2 1-1v2L0 0" style="fill:#de6f10;fill-opacity:1;fill-rule:nonzero;stroke:none" transform="translate(289 62)"/><path d="M0 0v-2l1 2v2H0V0" style="fill:#de6f10;fill-opacity:1;fill-rule:nonzero;stroke:none" transform="translate(284 57)"/><path d="M0 0c-1 6 2 12 2 12l-6 6c-5-2-11-2-18 1-7-3-13-3-18-1l-6-6s3-6 2-12-3-14-2-18v-1h5l1 1h1l1 2h2l1 2 1 3v2l-1 1v2l1 1h-1s-3 0-4 2l-1 5c-1 0-2 0-2 2l-1 2 1 1 1-2v4l-1 1 1 1 1-1v1l1 1 1-2 1 1s0 1 0 0V3l2-3h1l2 3h2l1 1h-1l-2 1v1l-2 2-1 1 1 1 1-2 1 1v2l3 1h1l2 1h4l1-1 2-1V9h-1V8h1V6l-1-1s-1 0 0 0l1-2h1V2h-1l-2-1 1-2h8l2-1h4l1 2-2 1-5 1c-1 0-4 1-4 3-1 2 1 3 2 3l3 2h7c1 0 2 0 1-1l-2-2h-8c-1 0-2-1-1-2l6-2c1 0 5 1 6-1s0-5-1-5l-3-1h-1v-3l2-1 2-1 1-3v-3l-1-1-1-3h6v1L0 0" style="fill:#005d95;fill-opacity:1;fill-rule:nonzero;stroke:none" transform="translate(306 140)"/><path d="M0 0c1-3 4-7 7-9l12-5c5-3 4-4 4-4l5 4 12 5c3 2 6 6 7 9z" style="fill:#618d33;fill-opacity:1;fill-rule:nonzero;stroke:none" transform="translate(261 119)"/><path d="m0 0 2-1 1-1 1-3c0-2 2-2 2-2l1 2-1 1-1 1-1 4v4c0 1 0 0 0 0L3 6H2V4v1H1V3l1-2H0V0" style="fill:#e9b528;fill-opacity:1;fill-rule:nonzero;stroke:none" transform="translate(265 144)"/><path d="m0 0-1 1V0h1z" style="fill:#e9b528;fill-opacity:1;fill-rule:nonzero;stroke:none" transform="translate(265 146)"/><path d="M0 0v1h-1l1-1" style="fill:#e9b528;fill-opacity:1;fill-rule:nonzero;stroke:none" transform="translate(266 149)"/><path d="M0 0s1 0 0 0v1-1" style="fill:#e9b528;fill-opacity:1;fill-rule:nonzero;stroke:none" transform="translate(267 151)"/><path d="M0 0v1-1" style="fill:#e9b528;fill-opacity:1;fill-rule:nonzero;stroke:none" transform="translate(269 150)"/><path d="m0 0 2 2c1 1 1 0 1-1l1-3 1 1v1h1l1-2 1 1v2h1l1-1 1 1v2l1-1 1 1-1 2-1 2h3l-1 1-1 1h-2v1L9 9C8 9 9 9 9 9v1l1 1H8v1c-1 0 0 0 0 0l1 1h2v3h-1l-1-2v2l-1 1-2-1H4l-2-1v-1h1l-1-1 2-1 1-1-2-1h2l1-1V8H5V7H2C0 6 0 4 0 4l1 1 2 1V5l1-1 1 1h1L5 4c0-2 2-1 2 0V3L6 2 5 3v1H3c0-1 0-1 0 0-1 0 0 0 0 0H2L0 3l-1-1 1-2" style="fill:#e9b528;fill-opacity:1;fill-rule:nonzero;stroke:none" transform="translate(273 136)"/><path d="M0 0h1l1 1h-3V0h1" style="fill:#e9b528;fill-opacity:1;fill-rule:nonzero;stroke:none" transform="translate(282 152)"/><path d="M0 0h1l1 1-1 1-1-1V0c-1 0 0 0 0 0" style="fill:#e9b528;fill-opacity:1;fill-rule:nonzero;stroke:none" transform="translate(284 150)"/><path d="m0 0-2-1 1-1v-1h1l1 1h2L2-1 0 0" style="fill:#e9b528;fill-opacity:1;fill-rule:nonzero;stroke:none" transform="translate(284 149)"/><path d="m0 0 1 1H0l-4 2 1-2 3-1" style="fill:#e9b528;fill-opacity:1;fill-rule:nonzero;stroke:none" transform="translate(276 147)"/><path d="M0 0h3l1 3 1 4-1 1v2H3V9L2 6 0 2h-2l-1-1 1-1 1 1h1V0" style="fill:#e9b528;fill-opacity:1;fill-rule:nonzero;stroke:none" transform="translate(270 122)"/><path d="M0 0h1-1" style="fill:#e9b528;fill-opacity:1;fill-rule:nonzero;stroke:none" transform="translate(267 122)"/><path d="M0 0h-1 2-1" style="fill:#e9b528;fill-opacity:1;fill-rule:nonzero;stroke:none" transform="translate(269 122)"/><path d="M0 0h-1v-1h1v1" style="fill:#e9b528;fill-opacity:1;fill-rule:nonzero;stroke:none" transform="translate(284 123)"/><path d="M0 0h-1 1" style="fill:#e9b528;fill-opacity:1;fill-rule:nonzero;stroke:none" transform="translate(285 122)"/><path d="M0 0v2h-1l-3-1-1-2v-1l1 1 1-2v-1l-1-2h-3v-1h1v-1h3l1 1 1 1 1 2-1 1v2l1 1" style="fill:#e9b528;fill-opacity:1;fill-rule:nonzero;stroke:none" transform="translate(292 130)"/><path d="M0 0v-1h-3v-2h-2l-1-2h-1l-1 1h-1l-1-1-1 2-1 1-1-2-1 1-1-1 1-2 1 1h1l1-2 1-1 1 1 1 2 1-1 1-1 1 2v-1s0-1 0 0l5 1h3l2 1h1-5l1 1h4l1-1v-4l3-1c1-1 1 0 0 0h3l1-1v-2l-2-2h-1l-1-1v-1l2 1v-1h3a75 75 0 0 1 1 4v5l-1 1-3 2v3L8 1H0V0" style="fill:#e9b528;fill-opacity:1;fill-rule:nonzero;stroke:none" transform="translate(286 138)"/><path d="M0 0h1-1" style="fill:#e9b528;fill-opacity:1;fill-rule:nonzero;stroke:none" transform="translate(295 122)"/><path d="M0 0h1-1" style="fill:#e9b528;fill-opacity:1;fill-rule:nonzero;stroke:none" transform="translate(297 122)"/><path d="M0 0v-1h48v1z" style="fill:#e9b528;fill-opacity:1;fill-rule:nonzero;stroke:none" transform="translate(260 121)"/><path d="m0 0 8-1c3-1 3-3 2-4L5-6h3l3 1v3L7 0H2l-3 2c0 2 1 2 2 2l3 1 4-1 3 2H6L2 5C1 5-1 5-2 3l2-3" style="fill:#e9b528;fill-opacity:1;fill-rule:nonzero;stroke:none" transform="translate(292 144)"/><path d="m0 0-1-1 1-1 1 1-1 1" style="fill:#de6f10;fill-opacity:1;fill-rule:nonzero;stroke:none" transform="translate(280 152)"/><path d="M0 0h-3 1l2-1 2 1H0" style="fill:#de6f10;fill-opacity:1;fill-rule:nonzero;stroke:none" transform="translate(299 149)"/><path d="m0 0 9-2h2l1 1v1l1 1h1l1-3 3-2 1 1 1 3-1 1-6 1v1l1 6-4 1-2-6H7L0 5l-1-1V1l1-1" style="fill:#e9b528;fill-opacity:1;fill-rule:nonzero;stroke:none" transform="translate(337 96)"/><path d="M0 0h-2l-1-4-4-2c-2 0-3 1-2 2 0 2 2 3 3 4l-1 2-2 1-1-3-2-3-6-1-3 3-2 6h-2l-1-3 1-2 2-3v-3l-3 1-6 5-1 1-6 2 1-4 1-2 5-2 6-4 6-2 10 3 8 3 3 3-1 2" style="fill:#e9b528;fill-opacity:1;fill-rule:nonzero;stroke:none" transform="translate(358 91)"/><path d="M0 0h1l1-1-1-2 2-1v3h3v2H4a148 148 0 0 0 1 2L3 4V2L2 1 1 2H0V0c-1 0 0 0 0 0" style="fill:#e9b528;fill-opacity:1;fill-rule:nonzero;stroke:none" transform="translate(347 110)"/><path d="M0 0c-1 1 1 1 2 1h3l2 1c1 1 0 1-1 1L3 5 1 3l-4-1h-2l1-1 2-3h-1l-2 3h-1V0l-1-3 1-1a51 51 0 0 0 8-5l1 1-1 4-2 4" style="fill:#e9b528;fill-opacity:1;fill-rule:nonzero;stroke:none" transform="translate(317 96)"/><path d="M0 0h4l4 1c1 1 0 1-2 1L1 3C0 3 1 3 1 3l3-1 5 1c1 0 0 0 0 0L2 7l-3 5-3-3 1-2 1-2-2 2-1 1-4-2V5c1-1 2-1 2-3 1-1 0-1 0 0a10 10 0 0 1-3 3 47 47 0 0 0-3-1l2-3 2-2 1-1 5-6v1a85 85 0 0 1-1 4l1-2 1-4h1v2l1 4-1 3h1" style="fill:#e9b528;fill-opacity:1;fill-rule:nonzero;stroke:none" transform="translate(310 100)"/><path d="M0 0h-2v-1l2-1h3L1 0H0" style="fill:#e9b528;fill-opacity:1;fill-rule:nonzero;stroke:none" transform="translate(323 95)"/><path d="M0 0v-2l1-1v1L0 0z" style="fill:#e9b528;fill-opacity:1;fill-rule:nonzero;stroke:none" transform="translate(350 97)"/><path d="M0 0h1c0-1 0-1 0 0v1H0V0" style="fill:#e9b528;fill-opacity:1;fill-rule:nonzero;stroke:none" transform="translate(356 93)"/><path d="M0 0h1v3-1L0 1V0" style="fill:#e9b528;fill-opacity:1;fill-rule:nonzero;stroke:none" transform="translate(334 97)"/><path d="m0 0-2-1h1l2 1v1L0 0" style="fill:#de6f10;fill-opacity:1;fill-rule:nonzero;stroke:none" transform="translate(246 126)"/><path d="m0 0-1-1h-1l-1-1h1l2 2s1 0 0 0" style="fill:#de6f10;fill-opacity:1;fill-rule:nonzero;stroke:none" transform="translate(252 123)"/><path d="m0 0 1-1-1 1v1l-1 1V1l1-1" style="fill:#de6f10;fill-opacity:1;fill-rule:nonzero;stroke:none" transform="translate(226 168)"/><path d="m0 0 1-1h1L1 0H0l-1 1 1-1" style="fill:#de6f10;fill-opacity:1;fill-rule:nonzero;stroke:none" transform="translate(224 164)"/><path d="M0 0h1a14 14 0 0 0-2 2h-1l1-1 1-1" style="fill:#de6f10;fill-opacity:1;fill-rule:nonzero;stroke:none" transform="translate(225 157)"/><path d="M0 0h-1l-1 1 1-1h1" style="fill:#de6f10;fill-opacity:1;fill-rule:nonzero;stroke:none" transform="translate(227 151)"/><path d="M0 0h-2 1l2-1 1 1H0" style="fill:#de6f10;fill-opacity:1;fill-rule:nonzero;stroke:none" transform="translate(227 145)"/><path d="M0 0h-5l2-1 2 1h1" style="fill:#de6f10;fill-opacity:1;fill-rule:nonzero;stroke:none" transform="translate(234 139)"/><path d="M0 0h-3v-1h2l2 1H0" style="fill:#de6f10;fill-opacity:1;fill-rule:nonzero;stroke:none" transform="translate(237 134)"/><path d="m0 0-1-1h-1l-1-1h1l2 1 1 1H0" style="fill:#de6f10;fill-opacity:1;fill-rule:nonzero;stroke:none" transform="translate(242 131)"/><path d="m0 0 1-1c1-2 0 0 0 0l-2 3 1-2" style="fill:#de6f10;fill-opacity:1;fill-rule:nonzero;stroke:none" transform="translate(233 176)"/><path d="m0 0-1 1-1 2-1 1 1-2 1-2h1" style="fill:#de6f10;fill-opacity:1;fill-rule:nonzero;stroke:none" transform="translate(231 170)"/><path d="M0 0h-2l-1 1h-1l1-1h3" style="fill:#de6f10;fill-opacity:1;fill-rule:nonzero;stroke:none" transform="translate(234 159)"/><path d="m0 0 2-1s0-1 0 0c1 0 0 0 0 0L1 0H0s-1 1 0 0" style="fill:#de6f10;fill-opacity:1;fill-rule:nonzero;stroke:none" transform="translate(231 165)"/><path d="m0 0-1 1V0l2-1-1 1" style="fill:#de6f10;fill-opacity:1;fill-rule:nonzero;stroke:none" transform="translate(237 169)"/><path d="M0 0h-1v-1l2 1h1-2" style="fill:#de6f10;fill-opacity:1;fill-rule:nonzero;stroke:none" transform="translate(233 153)"/><path d="M0 0h1l1 1h1-1L1 0H0" style="fill:#de6f10;fill-opacity:1;fill-rule:nonzero;stroke:none" transform="translate(234 148)"/><path d="M0 0v1-1h-1l-1-1h-1 1l2 1" style="fill:#de6f10;fill-opacity:1;fill-rule:nonzero;stroke:none" transform="translate(242 144)"/><path d="m0 0 1 1s1 0 0 0H0l-2-2c-1 0 0 0 0 0h1l1 1" style="fill:#de6f10;fill-opacity:1;fill-rule:nonzero;stroke:none" transform="translate(245 140)"/><path d="m0 0 1 1 1 1-1-1-1-1h-1c0-1 0-1 0 0h1" style="fill:#de6f10;fill-opacity:1;fill-rule:nonzero;stroke:none" transform="translate(250 135)"/><path d="m0 0-2 1-1 1 1-1 1-1h1" style="fill:#de6f10;fill-opacity:1;fill-rule:nonzero;stroke:none" transform="translate(324 125)"/><path d="M0 0h-1l-1 1-1 1 1-1 2-1h1-1" style="fill:#de6f10;fill-opacity:1;fill-rule:nonzero;stroke:none" transform="translate(319 121)"/><path d="m0 0 1 1v1L0 1V0l-1-1 1 1" style="fill:#de6f10;fill-opacity:1;fill-rule:nonzero;stroke:none" transform="translate(342 168)"/><path d="m0 0 1 1h1v1L1 1 0 0" style="fill:#de6f10;fill-opacity:1;fill-rule:nonzero;stroke:none" transform="translate(342 162)"/><path d="M0 0h-1v-1l-2-1h1l1 1 1 1" style="fill:#de6f10;fill-opacity:1;fill-rule:nonzero;stroke:none" transform="translate(345 159)"/><path d="M0 0h-1v-1l1 1h1-1" style="fill:#de6f10;fill-opacity:1;fill-rule:nonzero;stroke:none" transform="translate(343 152)"/><path d="M0 0h-2l1-1 2 1h1-2" style="fill:#de6f10;fill-opacity:1;fill-rule:nonzero;stroke:none" transform="translate(341 145)"/><path d="M0 0h-4 5-1" style="fill:#de6f10;fill-opacity:1;fill-rule:nonzero;stroke:none" transform="translate(338 139)"/><path d="M0 0h-3l-1 1 1-1h3" style="fill:#de6f10;fill-opacity:1;fill-rule:nonzero;stroke:none" transform="translate(334 134)"/><path d="M0 0h-1l-1 1-1 1 1-1 2-1s0-1 0 0" style="fill:#de6f10;fill-opacity:1;fill-rule:nonzero;stroke:none" transform="translate(328 129)"/><path d="m0 0 1 1a115 115 0 0 0 1 2L0 0s-1-1 0 0" style="fill:#de6f10;fill-opacity:1;fill-rule:nonzero;stroke:none" transform="translate(334 175)"/><path d="M0 0v-1l-2-2-1-1 1 1 1 1 1 2" style="fill:#de6f10;fill-opacity:1;fill-rule:nonzero;stroke:none" transform="translate(340 174)"/><path d="M0 0h3l1 1H3L2 0H0" style="fill:#de6f10;fill-opacity:1;fill-rule:nonzero;stroke:none" transform="translate(335 159)"/><path d="M0 0h-1l-1-1v-1l1 1 1 1c1 0 0 0 0 0" style="fill:#de6f10;fill-opacity:1;fill-rule:nonzero;stroke:none" transform="translate(337 165)"/><path d="m0 0 1 1 1 1-1-1-1-1" style="fill:#de6f10;fill-opacity:1;fill-rule:nonzero;stroke:none" transform="translate(330 168)"/><path d="M0 0h2-1L0 1l-1-1h1" style="fill:#de6f10;fill-opacity:1;fill-rule:nonzero;stroke:none" transform="translate(334 153)"/><path d="m0 0-1 1h-1V0h3-1" style="fill:#de6f10;fill-opacity:1;fill-rule:nonzero;stroke:none" transform="translate(334 148)"/><path d="M0 0h-1l-1 1h-1 1l2-1 1-1-1 1" style="fill:#de6f10;fill-opacity:1;fill-rule:nonzero;stroke:none" transform="translate(329 144)"/><path d="m0 0-3 2V1h1l1-1h1" style="fill:#de6f10;fill-opacity:1;fill-rule:nonzero;stroke:none" transform="translate(325 139)"/><path d="M0 0h-1l-1 2h-1l1-1 1-1h1s1 0 0 0" style="fill:#de6f10;fill-opacity:1;fill-rule:nonzero;stroke:none" transform="translate(319 135)"/><path d="m0 0-10 1h-2c4-2 7-2 12-2s8 0 12 2h-2L0 0" style="fill:#e9b528;fill-opacity:1;fill-rule:nonzero;stroke:none" transform="translate(284 196)"/><path d="m0 0-2 2v1l3 1c1 0 0 0 0 0l-4 1h-19l-4-1s-1 0 0 0l3-1V2l-2-2v-1l2 1A58 58 0 0 0-2 0l2-1v1" style="fill:#e9b528;fill-opacity:1;fill-rule:nonzero;stroke:none" transform="translate(297 199)"/><path d="m0 0-2-1 2-1 2 1z" style="fill:#e9b528;fill-opacity:1;fill-rule:nonzero;stroke:none" transform="translate(271 202)"/><path d="m0 0-2-1 2-1 2 1z" style="fill:#e9b528;fill-opacity:1;fill-rule:nonzero;stroke:none" transform="translate(298 202)"/><path d="m0 0-8 1-9-1 9-1 8 1" style="fill:#e9b528;fill-opacity:1;fill-rule:nonzero;stroke:none" transform="translate(293 198)"/><path d="M0 0h-1v4l-3-1h-5l-1-1-2-2-1-4v-2h7l1 1 1 1 1 1h2l1 1v1h1L0 0" style="fill:#005d95;fill-opacity:1;fill-rule:nonzero;stroke:none" transform="translate(288 127)"/><path d="M0 0v1h-1l-1-1h-2l-2 1-1 1h-1V0l1-2-1-2-1-2h3l1 1 1 1 1 1 2 1h1v2" style="fill:#005d95;fill-opacity:1;fill-rule:nonzero;stroke:none" transform="translate(299 127)"/><path d="M0 0h2v2l2-1v2H2v2H0V3h-2V1l2 1z" style="fill:#e9b528;fill-opacity:1;fill-rule:nonzero;stroke:none" transform="translate(283 231)"/><path d="M0 0h-2v2a4 4 0 0 1-2 0V0h-2a3 3 0 0 1-1-1h7a3 3 0 0 1 0 1" style="fill:#e9b528;fill-opacity:1;fill-rule:nonzero;stroke:none" transform="translate(287 229)"/><path d="m0 0 3 2h-6l3-2" style="fill:#005d95;fill-opacity:1;fill-rule:nonzero;stroke:none" transform="translate(284 225)"/><path d="M0 0v-1h2L0 0" style="fill:#005d95;fill-opacity:1;fill-rule:nonzero;stroke:none" transform="translate(286 231)"/><path d="m0 0-2-1h2Z" style="fill:#005d95;fill-opacity:1;fill-rule:nonzero;stroke:none" transform="translate(283 231)"/><path d="m0 0-2 1-2-1-1-1v-1l3-1 3 1v1L0 0" style="fill:#de6f10;fill-opacity:1;fill-rule:nonzero;stroke:none" transform="translate(286 203)"/><path d="m0 0 2-2-2-2-2 2 2 2" style="fill:#de6f10;fill-opacity:1;fill-rule:nonzero;stroke:none" transform="translate(291 204)"/><path d="m0 0 2-2-2-2-2 2 2 2" style="fill:#de6f10;fill-opacity:1;fill-rule:nonzero;stroke:none" transform="translate(278 204)"/><path d="m0 0 2-1 2 1-2 1Z" style="fill:#e9b528;fill-opacity:1;fill-rule:nonzero;stroke:none" transform="translate(282 203)"/><path d="m0 0-1-1 1-1 1 1-1 1" style="fill:#e9b528;fill-opacity:1;fill-rule:nonzero;stroke:none" transform="translate(291 204)"/><path d="m0 0-1-1 1-1 1 1-1 1" style="fill:#e9b528;fill-opacity:1;fill-rule:nonzero;stroke:none" transform="translate(278 204)"/><path d="M0 0h1v1L0 2l-1 1V1l1-1" style="fill:#e9b528;fill-opacity:1;fill-rule:nonzero;stroke:none" transform="translate(273 209)"/><path d="M0 0v-1 1" style="fill:#e9b528;fill-opacity:1;fill-rule:nonzero;stroke:none" transform="translate(274 208)"/><path d="M0 0v-1h2L1 0H0" style="fill:#e9b528;fill-opacity:1;fill-rule:nonzero;stroke:none" transform="translate(272 208)"/><path d="m0 0-3 1-2-2h6v2L0 0" style="fill:#e9b528;fill-opacity:1;fill-rule:nonzero;stroke:none" transform="translate(273 206)"/><path d="m0 0-2 1V0l1-1 1 1c1 0 1 0 0 0" style="fill:#e9b528;fill-opacity:1;fill-rule:nonzero;stroke:none" transform="translate(268 207)"/><path d="m0 0-1 1v-2l1-1 1 1-1 1" style="fill:#e9b528;fill-opacity:1;fill-rule:nonzero;stroke:none" transform="translate(265 209)"/><path d="M0 0v-1 1" style="fill:#e9b528;fill-opacity:1;fill-rule:nonzero;stroke:none" transform="translate(265 207)"/><path d="m0 0 1 6 4 3 1 1 3 2-3-1-2-1-4-2a1 1 0 0 0-1-2h-1l-1-3 1-1-1-1V0l1-1 2-2v3" style="fill:#e9b528;fill-opacity:1;fill-rule:nonzero;stroke:none" transform="translate(266 211)"/><path d="M0 0v1h-1V0h1" style="fill:#e9b528;fill-opacity:1;fill-rule:nonzero;stroke:none" transform="translate(271 221)"/><path d="M0 0v1h-1V0h1" style="fill:#e9b528;fill-opacity:1;fill-rule:nonzero;stroke:none" transform="translate(266 218)"/><path d="m0 0-1 1-1-1 1-1 1 1" style="fill:#e9b528;fill-opacity:1;fill-rule:nonzero;stroke:none" transform="translate(264 214)"/><path d="m0 0-2-1 1-1-1-1-2 1h-1l-4-5c-1-3-2-5-1-7l2-2v3h1l1-1 1-1v4c-1 1 0 3 1 5l4 3 1 1v1L0 0" style="fill:#e9b528;fill-opacity:1;fill-rule:nonzero;stroke:none" transform="translate(280 225)"/><path d="m0 0 1 1h-2l1-1" style="fill:#e9b528;fill-opacity:1;fill-rule:nonzero;stroke:none" transform="translate(278 222)"/><path d="M0 0h2v1h-3l1-1" style="fill:#e9b528;fill-opacity:1;fill-rule:nonzero;stroke:none" transform="translate(281 207)"/><path d="m0 0-1-1-2 1-1 1-1-1h-3l2-1h6v1c0 1 0 0 0 0" style="fill:#e9b528;fill-opacity:1;fill-rule:nonzero;stroke:none" transform="translate(283 206)"/><path d="M0 0h1l1 1h-3l1-1" style="fill:#e9b528;fill-opacity:1;fill-rule:nonzero;stroke:none" transform="translate(276 207)"/><path d="M0 0v-1h2L1 0H0" style="fill:#e9b528;fill-opacity:1;fill-rule:nonzero;stroke:none" transform="translate(285 208)"/><path d="M0 0h-2l-1 1-1-1h-3l-1 1 1-1 1-1h5l2 1v1L0 0" style="fill:#e9b528;fill-opacity:1;fill-rule:nonzero;stroke:none" transform="translate(292 206)"/><path d="M0 0h-1v-1h2v1H0" style="fill:#e9b528;fill-opacity:1;fill-rule:nonzero;stroke:none" transform="translate(292 208)"/><path d="M0 0v1l-2-1v-1h1l1 1" style="fill:#e9b528;fill-opacity:1;fill-rule:nonzero;stroke:none" transform="translate(296 210)"/><path d="M0 0h-1 1" style="fill:#e9b528;fill-opacity:1;fill-rule:nonzero;stroke:none" transform="translate(294 208)"/><path d="M0 0h1l1 1H0V0" style="fill:#e9b528;fill-opacity:1;fill-rule:nonzero;stroke:none" transform="translate(295 207)"/><path d="m0 0-3-1-1 1v-2h2l2-1 2 1-2 2" style="fill:#e9b528;fill-opacity:1;fill-rule:nonzero;stroke:none" transform="translate(298 207)"/><path d="m0 0-2-1h1l2 1H0" style="fill:#e9b528;fill-opacity:1;fill-rule:nonzero;stroke:none" transform="translate(301 207)"/><path d="m0 0-1-1 1-1 1 1v2L0 0" style="fill:#e9b528;fill-opacity:1;fill-rule:nonzero;stroke:none" transform="translate(304 209)"/><path d="M0 0v-1 1" style="fill:#e9b528;fill-opacity:1;fill-rule:nonzero;stroke:none" transform="translate(303 207)"/><path d="m0 0 1 1-1 2-1 1-2 1 1 1-4 2V7l-2 2-3 1 3-2 1-1 4-4 1-5v-3l2 2 1 1v1L0 0" style="fill:#e9b528;fill-opacity:1;fill-rule:nonzero;stroke:none" transform="translate(304 213)"/><path d="M0 0h1v1H0V0" style="fill:#e9b528;fill-opacity:1;fill-rule:nonzero;stroke:none" transform="translate(297 221)"/><path d="M0 0h1v1H0V0" style="fill:#e9b528;fill-opacity:1;fill-rule:nonzero;stroke:none" transform="translate(302 218)"/><path d="m0 0-1-1 1-1 1 1-1 1" style="fill:#e9b528;fill-opacity:1;fill-rule:nonzero;stroke:none" transform="translate(305 214)"/><path d="m0 0 1-1 4-3 2-5-1-3v-1l1 1 1 1h1v-3l2 2c1 2 0 4-1 6-1 3-2 4-4 5L5 0 4-2 2 0l1 1-2 1-1-1V0" style="fill:#e9b528;fill-opacity:1;fill-rule:nonzero;stroke:none" transform="translate(287 223)"/><path d="M0 0v-1l-1-1 1-1 1 1-1 1v1" style="fill:#e9b528;fill-opacity:1;fill-rule:nonzero;stroke:none" transform="translate(284 211)"/><path d="M0 0v-1 1" style="fill:#e9b528;fill-opacity:1;fill-rule:nonzero;stroke:none" transform="translate(284 208)"/><path d="M0 0a9 9 0 0 0 1 2l1-1 1-1 1 2v13l-3-1-2 1V9l-1-7 2-2" style="fill:#e9b528;fill-opacity:1;fill-rule:nonzero;stroke:none" transform="translate(283 210)"/><path d="m0 0 1-1 1 1-1 1-1-1" style="fill:#e9b528;fill-opacity:1;fill-rule:nonzero;stroke:none" transform="translate(290 223)"/><path d="m0 0 2-2-2-1-2 1 2 2" style="fill:#de6f10;fill-opacity:1;fill-rule:nonzero;stroke:none" transform="translate(272 216)"/><path d="M0 0h-2v-2h2v2" style="fill:#de6f10;fill-opacity:1;fill-rule:nonzero;stroke:none" transform="translate(275 220)"/><path d="m0 0-1-1 1-1 1 1-1 1" style="fill:#e9b528;fill-opacity:1;fill-rule:nonzero;stroke:none" transform="translate(272 216)"/><path d="M0 0h-1v-1c1-1 2 1 1 1" style="fill:#e9b528;fill-opacity:1;fill-rule:nonzero;stroke:none" transform="translate(274 220)"/><path d="m0 0-2-2 2-1 2 1-2 2" style="fill:#de6f10;fill-opacity:1;fill-rule:nonzero;stroke:none" transform="translate(284 216)"/><path d="m0 0 2-2-2-1-2 1 2 2" style="fill:#de6f10;fill-opacity:1;fill-rule:nonzero;stroke:none" transform="translate(284 220)"/><path d="m0 0 2-2-2-1-2 1 2 2" style="fill:#de6f10;fill-opacity:1;fill-rule:nonzero;stroke:none" transform="translate(284 223)"/><path d="m0 0-2-2 2-1 2 1-2 2" style="fill:#de6f10;fill-opacity:1;fill-rule:nonzero;stroke:none" transform="translate(296 216)"/><path d="M0 0h-2v-2h2v2" style="fill:#de6f10;fill-opacity:1;fill-rule:nonzero;stroke:none" transform="translate(295 220)"/><path d="m0 0-1-1 1-1 1 1-1 1" style="fill:#e9b528;fill-opacity:1;fill-rule:nonzero;stroke:none" transform="translate(296 216)"/><path d="M0 0c-1 0 0-2 1-1v1H0" style="fill:#e9b528;fill-opacity:1;fill-rule:nonzero;stroke:none" transform="translate(294 220)"/><path d="m0 0-1-1 1-1 1 1-1 1" style="fill:#e9b528;fill-opacity:1;fill-rule:nonzero;stroke:none" transform="translate(284 215)"/><path d="m0 0 1 1-1 1-1-1 1-1" style="fill:#e9b528;fill-opacity:1;fill-rule:nonzero;stroke:none" transform="translate(284 218)"/><path d="m0 0 1 1h-2l1-1" style="fill:#e9b528;fill-opacity:1;fill-rule:nonzero;stroke:none" transform="translate(284 221)"/><path d="M0 0a1 1 0 1 1 0-3 1 1 0 0 1 0 3" style="fill:#de6f10;fill-opacity:1;fill-rule:nonzero;stroke:none" transform="translate(338 100)"/><path d="M0 0a1 1 0 1 1 0-3 1 1 0 0 1 0 3" style="fill:#de6f10;fill-opacity:1;fill-rule:nonzero;stroke:none" transform="translate(342 99)"/><path d="M0 0a1 1 0 1 1 0-3 1 1 0 0 1 0 3" style="fill:#de6f10;fill-opacity:1;fill-rule:nonzero;stroke:none" transform="translate(354 97)"/><path d="M0 0a1 1 0 1 1 0-3 1 1 0 0 1 0 3" style="fill:#de6f10;fill-opacity:1;fill-rule:nonzero;stroke:none" transform="translate(346 98)"/><path d="M0 0a1 1 0 1 1 0-3 1 1 0 0 1 0 3" style="fill:#de6f10;fill-opacity:1;fill-rule:nonzero;stroke:none" transform="translate(347 102)"/><path d="M0 0a1 1 0 1 1 0-3 1 1 0 0 1 0 3" style="fill:#de6f10;fill-opacity:1;fill-rule:nonzero;stroke:none" transform="translate(349 105)"/><path d="M0 0a1 1 0 1 0 0-1 1 1 0 0 0 0 1" style="fill:#e9b528;fill-opacity:1;fill-rule:nonzero;stroke:none" transform="translate(339 100)"/><path d="M0 0a1 1 0 1 1 0-1 1 1 0 0 1 0 1" style="fill:#e9b528;fill-opacity:1;fill-rule:nonzero;stroke:none" transform="translate(343 99)"/><path d="M0 0a1 1 0 0 1 0-1 1 1 0 0 1 0 1" style="fill:#e9b528;fill-opacity:1;fill-rule:nonzero;stroke:none" transform="translate(354 96)"/><path d="M0 0a1 1 0 1 1 0-1 1 1 0 0 1 0 1" style="fill:#e9b528;fill-opacity:1;fill-rule:nonzero;stroke:none" transform="translate(347 98)"/><path d="M0 0a1 1 0 0 1 0-1 1 1 0 0 1 0 1" style="fill:#e9b528;fill-opacity:1;fill-rule:nonzero;stroke:none" transform="translate(348 101)"/><path d="M0 0a1 1 0 1 1 0-1 1 1 0 0 1 0 1" style="fill:#e9b528;fill-opacity:1;fill-rule:nonzero;stroke:none" transform="translate(349 105)"/></g><path id="path-b7345" d="m m0 79 m0 65 m0 65 m0 65 m0 65 m0 65 m0 65 m0 65 m0 65 m0 65 m0 65 m0 65 m0 65 m0 65 m0 65 m0 65 m0 65 m0 65 m0 65 m0 65 m0 77 m0 51 m0 102 m0 104 m0 120 m0 66 m0 47 m0 87 m0 105 m0 47 m0 50 m0 119 m0 76 m0 114 m0 103 m0 69 m0 49 m0 85 m0 68 m0 122 m0 90 m0 53 m0 112 m0 89 m0 99 m0 65 m0 76 m0 102 m0 81 m0 52 m0 87 m0 113 m0 73 m0 109 m0 120 m0 72 m0 119 m0 73 m0 99 m0 55 m0 72 m0 53 m0 108 m0 55 m0 100 m0 88 m0 57 m0 55 m0 50 m0 75 m0 89 m0 50 m0 102 m0 111 m0 47 m0 81 m0 52 m0 66 m0 80 m0 115 m0 115 m0 73 m0 97 m0 97 m0 97 m0 119 m0 61 m0 61"/>
</svg>