<svg xmlns="http://www.w3.org/2000/svg" width="1600" height="800" viewBox="0 0 6 3">
	<title>Flag of the Bahamas</title>
	<path fill="#00778b" d="m0 0h6v3H0z"/>
	<path fill="#ffc72c" d="m1 1h5v1H1z"/>
	<path d="m2.5981 1.5L0 3V0z"/>
<path id="path-b7226" d="m m0 82 m0 65 m0 65 m0 65 m0 65 m0 65 m0 65 m0 65 m0 65 m0 65 m0 65 m0 65 m0 65 m0 65 m0 65 m0 65 m0 65 m0 65 m0 65 m0 65 m0 79 m0 79 m0 65 m0 56 m0 67 m0 53 m0 109 m0 119 m0 55 m0 78 m0 53 m0 82 m0 67 m0 78 m0 97 m0 65 m0 118 m0 85 m0 55 m0 84 m0 100 m0 101 m0 84 m0 82 m0 68 m0 75 m0 75 m0 114 m0 72 m0 78 m0 79 m0 49 m0 73 m0 76 m0 111 m0 112 m0 122 m0 107 m0 71 m0 65 m0 72 m0 49 m0 114 m0 88 m0 53 m0 118 m0 110 m0 122 m0 66 m0 79 m0 73 m0 43 m0 89 m0 43 m0 107 m0 104 m0 121 m0 56 m0 51 m0 51 m0 47 m0 65 m0 57 m0 102 m0 48 m0 119 m0 61 m0 61"/>
</svg>
