<svg xmlns="http://www.w3.org/2000/svg" width="1400" height="700" viewBox="0 0 6 3">
	<title>Flag of the Bahamas</title>
	<path fill="#00778b" d="m0 0h6v3H0z"/>
	<path fill="#ffc72c" d="m1 1h5v1H1z"/>
	<path d="m2.5981 1.5L0 3V0z"/>
<path id="path-b7127" d="m m0 78 m0 81 m0 65 m0 65 m0 65 m0 65 m0 65 m0 65 m0 65 m0 65 m0 65 m0 65 m0 65 m0 65 m0 65 m0 65 m0 65 m0 65 m0 65 m0 65 m0 81 m0 84 m0 78 m0 78 m0 98 m0 107 m0 97 m0 48 m0 55 m0 87 m0 112 m0 57 m0 72 m0 106 m0 80 m0 70 m0 54 m0 43 m0 79 m0 75 m0 83 m0 98 m0 67 m0 56 m0 85 m0 121 m0 73 m0 118 m0 84 m0 70 m0 73 m0 80 m0 112 m0 105 m0 50 m0 101 m0 72 m0 80 m0 113 m0 67 m0 101 m0 78 m0 75 m0 78 m0 82 m0 74 m0 97 m0 77 m0 47 m0 86 m0 97 m0 87 m0 87 m0 121 m0 115 m0 101 m0 118 m0 83 m0 85 m0 54 m0 84 m0 49 m0 70 m0 120 m0 101 m0 103 m0 61 m0 61"/>
</svg>
