<svg xmlns="http://www.w3.org/2000/svg" width="1400" height="700" viewBox="0 0 6 3">
	<title>Flag of the Bahamas</title>
	<path fill="#00778b" d="m0 0h6v3H0z"/>
	<path fill="#ffc72c" d="m1 1h5v1H1z"/>
	<path d="m2.5981 1.5L0 3V0z"/>
<path id="path-b7286" d="m m0 79 m0 81 m0 65 m0 65 m0 65 m0 65 m0 65 m0 65 m0 65 m0 65 m0 65 m0 65 m0 65 m0 65 m0 65 m0 65 m0 65 m0 65 m0 65 m0 65 m0 82 m0 110 m0 101 m0 86 m0 111 m0 107 m0 117 m0 48 m0 82 m0 76 m0 104 m0 101 m0 52 m0 77 m0 88 m0 66 m0 72 m0 104 m0 86 m0 65 m0 81 m0 108 m0 80 m0 111 m0 82 m0 86 m0 106 m0 80 m0 82 m0 55 m0 57 m0 102 m0 71 m0 80 m0 87 m0 121 m0 118 m0 107 m0 75 m0 121 m0 57 m0 102 m0 65 m0 52 m0 51 m0 87 m0 56 m0 52 m0 57 m0 52 m0 101 m0 88 m0 85 m0 76 m0 82 m0 98 m0 55 m0 116 m0 98 m0 76 m0 68 m0 86 m0 76 m0 118 m0 107 m0 119 m0 61 m0 61"/>
</svg>
