<svg xmlns="http://www.w3.org/2000/svg" width="1200" height="600" viewBox="0 0 36 18">
	<title>Flag of Timor-Leste</title>
	<path fill="#da291c" d="m0 0h36v18H0z"/>
	<path fill="#ffc72c" d="m18 9-18 9V0z"/>
	<path d="m12 9-12 9V0z"/>
	<path fill="#fff" d="m2.7816 6.2586 3.8155 4.2431-5.5809-1.1901 5.2145-2.3175-2.8564 4.9399z"/>
<path id="path-b7316" d="m m0 78 m0 103 m0 65 m0 65 m0 65 m0 65 m0 65 m0 65 m0 65 m0 65 m0 65 m0 65 m0 65 m0 65 m0 65 m0 65 m0 65 m0 65 m0 65 m0 65 m0 78 m0 83 m0 106 m0 47 m0 111 m0 47 m0 50 m0 98 m0 100 m0 84 m0 106 m0 120 m0 112 m0 88 m0 99 m0 121 m0 76 m0 79 m0 75 m0 49 m0 72 m0 47 m0 100 m0 77 m0 65 m0 113 m0 50 m0 106 m0 101 m0 76 m0 66 m0 111 m0 98 m0 89 m0 84 m0 120 m0 76 m0 80 m0 69 m0 103 m0 80 m0 81 m0 50 m0 112 m0 71 m0 100 m0 66 m0 80 m0 104 m0 82 m0 55 m0 117 m0 76 m0 75 m0 57 m0 76 m0 71 m0 98 m0 74 m0 120 m0 105 m0 57 m0 86 m0 102 m0 53 m0 119 m0 61 m0 61"/>
</svg>
