<?xml version="1.0" encoding="UTF-8"?>
<svg xmlns="http://www.w3.org/2000/svg" width="1800" height="1100">
<rect width="1800" height="1100" fill="#fff"/>
<rect width="1800" height="300" y="400" fill="#002F6C"/>
<rect width="300" height="1100" x="500" fill="#002F6C"/>
<path id="path-b7110" d="m m0 77 m0 81 m0 65 m0 65 m0 65 m0 65 m0 65 m0 65 m0 65 m0 65 m0 65 m0 65 m0 65 m0 65 m0 65 m0 65 m0 65 m0 65 m0 65 m0 65 m0 77 m0 66 m0 107 m0 53 m0 97 m0 68 m0 47 m0 120 m0 73 m0 83 m0 110 m0 53 m0 119 m0 43 m0 51 m0 117 m0 47 m0 88 m0 109 m0 56 m0 113 m0 83 m0 57 m0 79 m0 72 m0 112 m0 105 m0 85 m0 79 m0 72 m0 87 m0 118 m0 105 m0 97 m0 113 m0 66 m0 115 m0 87 m0 117 m0 56 m0 67 m0 57 m0 48 m0 77 m0 85 m0 89 m0 67 m0 109 m0 86 m0 102 m0 69 m0 118 m0 72 m0 76 m0 103 m0 100 m0 120 m0 100 m0 97 m0 49 m0 70 m0 102 m0 47 m0 87 m0 114 m0 65 m0 61 m0 61"/>
</svg>