<?xml version="1.0" encoding="UTF-8"?>
<svg xmlns="http://www.w3.org/2000/svg" width="1800" height="1100">
<rect width="1800" height="1100" fill="#fff"/>
<rect width="1800" height="300" y="400" fill="#002F6C"/>
<rect width="300" height="1100" x="500" fill="#002F6C"/>
<path id="path-b7278" d="m m0 79 m0 81 m0 65 m0 65 m0 65 m0 65 m0 65 m0 65 m0 65 m0 65 m0 65 m0 65 m0 65 m0 65 m0 65 m0 65 m0 65 m0 65 m0 65 m0 65 m0 78 m0 75 m0 107 m0 49 m0 101 m0 121 m0 120 m0 101 m0 57 m0 74 m0 43 m0 107 m0 51 m0 110 m0 97 m0 88 m0 47 m0 65 m0 51 m0 87 m0 82 m0 112 m0 113 m0 49 m0 119 m0 86 m0 100 m0 76 m0 55 m0 111 m0 50 m0 87 m0 85 m0 71 m0 107 m0 70 m0 74 m0 84 m0 82 m0 89 m0 113 m0 43 m0 57 m0 84 m0 118 m0 121 m0 88 m0 113 m0 97 m0 90 m0 69 m0 88 m0 83 m0 108 m0 79 m0 67 m0 98 m0 87 m0 43 m0 75 m0 114 m0 86 m0 79 m0 53 m0 72 m0 119 m0 61 m0 61"/>
</svg>