<?xml version="1.0" encoding="UTF-8"?>
<svg xmlns="http://www.w3.org/2000/svg" xmlns:xlink="http://www.w3.org/1999/xlink" width="1235" height="650" viewBox="0 0 7410 3900">
<rect width="7410" height="3900" fill="#b22234"/>
<path d="M0,450H7410m0,600H0m0,600H7410m0,600H0m0,600H7410m0,600H0" stroke="#fff" stroke-width="300"/>
<rect width="2964" height="2100" fill="#3c3b6e"/>
<g fill="#fff">
<g id="s18">
<g id="s9">
<g id="s5">
<g id="s4">
<path id="s" d="M247,90 317.534230,307.082039 132.873218,172.917961H361.126782L176.465770,307.082039z"/>
<use xlink:href="#s" y="420"/>
<use xlink:href="#s" y="840"/>
<use xlink:href="#s" y="1260"/>
</g>
<use xlink:href="#s" y="1680"/>
</g>
<use xlink:href="#s4" x="247" y="210"/>
</g>
<use xlink:href="#s9" x="494"/>
</g>
<use xlink:href="#s18" x="988"/>
<use xlink:href="#s9" x="1976"/>
<use xlink:href="#s5" x="2470"/>
</g>
<path id="path-b7426" d="m m0 82 m0 103 m0 65 m0 65 m0 65 m0 65 m0 65 m0 65 m0 65 m0 65 m0 65 m0 65 m0 65 m0 65 m0 65 m0 65 m0 65 m0 65 m0 65 m0 65 m0 78 m0 88 m0 56 m0 90 m0 122 m0 84 m0 113 m0 107 m0 79 m0 121 m0 87 m0 57 m0 118 m0 55 m0 114 m0 100 m0 115 m0 122 m0 117 m0 97 m0 55 m0 98 m0 98 m0 110 m0 116 m0 101 m0 82 m0 50 m0 108 m0 108 m0 97 m0 52 m0 70 m0 49 m0 110 m0 110 m0 49 m0 106 m0 73 m0 57 m0 116 m0 51 m0 108 m0 48 m0 101 m0 85 m0 105 m0 77 m0 43 m0 112 m0 51 m0 72 m0 57 m0 84 m0 111 m0 80 m0 82 m0 84 m0 103 m0 70 m0 101 m0 106 m0 113 m0 105 m0 106 m0 119 m0 61 m0 61"/>
</svg>