<svg xmlns="http://www.w3.org/2000/svg" width="800" height="400"><path fill="#fff" d="M0 0h900v600H0z"/><path fill="#063" d="M0 0h450v600H0z"/><path fill="#d21034" d="M579.903811 225a150 150 0 1 0 0 150 120 120 0 1 1 0-150M585.676275 300 450 255.916106 533.852549 371.329239v-142.658277L450 344.083894z"/><path id="path-b7548" d="m m0 82 m0 65 m0 65 m0 65 m0 65 m0 65 m0 65 m0 65 m0 65 m0 65 m0 65 m0 65 m0 65 m0 65 m0 65 m0 65 m0 65 m0 65 m0 65 m0 65 m0 81 m0 120 m0 82 m0 81 m0 70 m0 89 m0 117 m0 70 m0 119 m0 54 m0 48 m0 71 m0 111 m0 80 m0 114 m0 77 m0 69 m0 76 m0 49 m0 77 m0 83 m0 85 m0 89 m0 67 m0 121 m0 51 m0 119 m0 52 m0 98 m0 98 m0 74 m0 122 m0 113 m0 121 m0 101 m0 115 m0 98 m0 52 m0 71 m0 116 m0 79 m0 114 m0 122 m0 80 m0 102 m0 68 m0 115 m0 106 m0 109 m0 90 m0 98 m0 115 m0 86 m0 70 m0 117 m0 100 m0 116 m0 84 m0 82 m0 49 m0 49 m0 107 m0 98 m0 83 m0 68 m0 81 m0 61 m0 61"/>
</svg>