<svg xmlns="http://www.w3.org/2000/svg" width="900" height="450"><defs><clipPath id="a"><path fill="#00f" fill-rule="evenodd" d="M0 0h1260v630H0z"/></clipPath></defs><path fill="#006400" d="M0 0h1260v630H0z"/><path fill="#ffd200" d="M0 90h1260v450H0z"/><path fill="#d40000" d="M0 180h1260v270H0z"/><path d="M0 270h1260v90H0z"/><path stroke="#000" stroke-width="30" d="M0 0v630l420-315z" clip-path="url(#a)"/><path fill="#fff" d="M0 0v630l420-315z"/><path fill="#d40000" d="m160 157 83 256L25 254h269L77 413z"/><path fill="#ffd200" fill-rule="evenodd" d="M153 216a14 14 0 0 0-23 2h-8a8 8 0 0 0-6 11l9-1c3 3 5 6 6 10l1 35c-2 4-3 7-3 11l1 14c1 5-1 9-4 13l-13 17c-3 5-2 11 1 15l10 39h75l4-33c2-14 9-26 21-34l3 1a4 4 0 0 0 4-7l-71-55-1-24c-1-5-3-10-6-14"/><path d="m152 216 1-1zm0 0-1-1 1-1 1 1zm0-2h-1zm-1 1-2-1 1-1 2 1zm-2-1-8-2v-2l9 3zm-8-2v-2zm-1-2h1v1zm1 2h-2v-2h1zm-2 0-2 1v-2l2-1zm-2 1-7 5-1-1c2-3 4-5 8-6zm-7 5v1-1zm0 1-1-1v-1h1v2zm-1-1zm0 0h-1v-1h1zm-1 0-1 1v-2h1zm-1 1h-5v-2h5zm-5 0v-2 2zm0-2v1-1zm0 2h-1v-2h1zm-1 0-1 1v-2l1-1zm-1-1v1zm0 2-3 3-2-1 5-4zm-5 2h1zm2 1-2-1zm-2-1h1-1zm2 1h-2v-1zm-2 0h1-1zm2 0-1 1h-1v-1zm-2 1zm1 0 1 5h-2v-5zm0 6-1-1h1zm0-2h9v1l-9 1zm9 0zm0 0-1 1 1-1zm0 0 2 1-1 1-2-1zm2 1 1 1-1 1-1-1zm1 1c2 2 3 5 3 8h-1l-3-7zm3 8 1 35h-1l-1-35zm1 35zm0 0v1l-2-1h1zm-2 0h1-1zm2 1v1h-2v-2zm-2 1h1zm2 0-1 2-2-1 1-1zm-1 2-1 7h-2l1-8 2 1zm-1 7v1h-2v-1h2zm0 1v2h-2v-2h2zm0 2v2h-2v-2zm0 2 1 9h-2l-1-9zm1 9h-2zm0 0h-1zm0 0v2h-2v-2h2zm0 2v2h-2v-2h2zm0 2c0 4-2 7-4 9l-2-1c3-2 4-5 4-8zm-4 9h-1zm0 0-2-1zm0 0h-1zm0 0-2 3-2-2 2-2zm-4 1 1 1zm2 2-2 2-2-1 2-3zm-4 1h1-1zm2 1-9 12h-2l9-13zm-11 12h1-1zm2 0v1l-2-1zm0 1-1 1h-2l1-2zm-1 1-1 3-2-1 1-2zm-1 3c0 3 1 7 3 10l-2 1-3-12zm3 10h-1zm0 0 10 38-2 1-10-39zm9 40-1-1h1zm0-2h75v2h-75zm76 1-1 1v-1zm-2-1 4-32h2l-4 33zm6-32h-1zm-2 0h2-2zm2 0h-1 1zm-2 0 1-6h2l-1 6zm1-6 2-6 2 1-2 5zm2-6c4-9 10-17 19-22l1 1c-9 5-15 13-18 22zm19-22 1-1-1 1zm1-1 3 1-1 2-3-1zm3 1-1 1zm0 0-1 2zm-1 2v-1zm1-2v2h-1zm0 0h1v2h-1zm1 0 2-1h2c-1 2-2 3-4 3zm4-1h-1zm-2 0h2zm0 0 1-1 1 1zm2 0v-1zm-1-1v-1l2 1-1 1zm2 0-1-1zm-2-1-2-2 2-2 2 5zm-2-2-70-56 1-1 71 55zm-70-56zm0 0-2-24h2l1 23zm-2-24h2zm2 0h-1zm-2 0-1-2h2l1 2zm-1-2v-2h2v2zm0-2-5-10 1-1c3 3 5 7 6 11m-7 53-1-1 1 1zm0 0h-1zm0 0v1h-2l1-2zm0 1v2h-2v-2zm0 2c-1 3 0 5 1 8l-1 1c-2-3-3-6-2-9zm1 8-1 1 1-1zm0 0 1 1-2 1v-1zm1 1 1 1-1 2-2-2zm1 1 7 5-1 2-7-5"/><path d="m161 254-29 20-1-1 29-20m-16-30h2zm0 0-1-2 2-1 1 3zm-1-2-2-1v-2l4 2-2 1zm-2-3v1zm0 2v-2zm0 0v-2zm0 0-2 1-1-1 3-2zm-2 1-1 2h-1l1-3 1 1zm-2 2zm1 0h-1zm0 0h-1zm0 0 1 2-1 1-1-3zm1 2 2 1v2l-3-2 1-1zm2 3v-1zm0-2v2zm0 0v2zm0 0 2-1 2 1-4 2zm2-1 1-2h2l-1 3-2-1zm3-2h-1zm-2 0h2m-9 91 1 1-1-1zm1 1zm-1-1 3-2 1 2-3 1zm3-2 2-1 1 1-2 2zm2-1c3-3 4-8 4-12h2c0 5-2 9-5 13m8-19-1 1v-2l1 1zm-1-1v1zm0 2-1-2h1zm0 0-1 1-1-2 1-1zm-1 1-1 4h-2c0-2 0-4 2-6m13 29v-2zm0 0-3 1-1-2 4-1zm-3 1-3 1-1-2 3-1zm-3 1-15 7-1-2 15-7m7-2v2zm0 2v-1zm0-2 3-2 1 2-4 2zm3-2 3-2 1 2-3 2zm3-2c4-3 7-8 8-14h2c-1 6-4 12-9 16"/><path d="M151 324h62v2h-62m14 10h1zm0 0-2-4 1-1c2 1 2 3 2 5zm-1-5h-1 1zm-1 1-5-2v-2c3 0 5 1 6 3zm-5-2v-2zm0 0v-2zm0 0-4 2-1-1c1-2 3-3 5-3zm-4 2-2 4h-2c0-2 1-4 3-5zm-2 4h-2zm0 0v1h-2v-1zm0 1 2 4-1 1c-2-1-3-3-3-5zm2 4 4 2v2c-2 0-4-1-5-3zm4 2v2zm0 0v2zm0 0 5-2 1 1c-1 2-3 3-6 3zm6-1h-1 1zm-1-1 2-4h1c0 2 0 4-2 5zm2-4v-1h1v1m27-1h2zm0 0c0-1 0-3-2-4l2-1 2 5zm0-5h-1 1zm-2 1-4-2v-2l6 3zm-4-2v-2zm0 0v-2zm0 0-4 2-2-1 6-3zm-4 2c-2 1-2 3-2 4h-2l2-5zm-2 4h-2zm0 0v1h-2v-1zm0 1c0 1 0 3 2 4l-2 1-2-5zm2 4 4 2v2l-6-3zm4 2v2zm0 0v2zm0 0 4-2 2 1-6 3zm6-1h-1 1zm-2-1c2-1 2-3 2-4h2l-2 5zm2-4v-1h2v1m-23-26h1v2h-1zm1 0 2 1v2l-2-1zm2 1h1v2h-1zm1 0 8 1v2l-8-1m8-1h1v1l-1 1v-2zm1 0v1-1zm0 0 1-1 1 2h-2zm1-1h2l1 1-2 1zm2 0c2-1 4-3 5-6l2 1c-1 3-4 5-6 6"/><path d="m224 316-63-17 1-2 63 17m-110 33h88v2h-88m21 17h65v2h-65"/><path d="m166 360-8 7-1-1 8-8"/><path d="m152 358 8 8-2 1-8-7"/><path d="m153 360-8 7-1-1 8-8"/><path d="m139 358 8 8-2 1-7-7m41 0-8 7-1-1 7-8"/><path d="m165 358 7 8-1 1-8-7m29 0-8 7-1-1 7-8"/><path d="m177 358 8 8-1 1-8-7m26 2-5 5-2-1 6-5"/><path d="m190 358 8 8-1 1-8-7m-23-10-8 8-1-2 8-7"/><path d="m152 349 8 7-2 2-8-8"/><path d="m153 350-8 8-1-2 8-7"/><path d="m139 349 8 7-2 2-7-8m41 0-8 8-1-2 7-7"/><path d="m165 349 7 7-1 2-8-8m29 0-8 8-1-2 7-7"/><path d="m177 349 8 7-1 2-8-8m27 1-6 7-2-2 7-6"/><path d="m190 349 8 7-1 2-8-8m-56-121h-8v-1l8-1m5 88-1-1 1 1zm-1-1 1 1zm1 1-4 3-1-1 4-3zm-4 3-4 4-2-1 5-4zm-4 4c-6 6-9 16-7 25h-2c-2-9 1-19 7-26m12 10-1-1v-1zm-1-1zm1 1-3 2-1-2 3-1zm-3 2-2 1-1-1 2-2zm-2 1c-3 4-5 8-4 13h-2c-1-5 1-10 5-14"/><path d="m117 338 1 1-2 1-1-2zm1 1v2h-1l-1-1zm0 2 5 5-1 2-5-7"/><path d="m117 338-2 6-2-1 2-5m8 9h-2l1 1zm-2 0 1-2 2 1-1 1zm1-2 1-1 2 1-1 1zm1-1 3-7h1l-2 8"/><path d="M126 337h1zm3 10 2-1v1zm0 0-1-1 2-1 1 1zm-1-1v-2h2v1zm2-2h-1 1zm-2 0-2-7h1l3 7m5 38v-15h2v15m-2-15-7-19h2l7 19"/><path d="m140 360-5 5-1-2 5-5m1-8-7 7-2-1 8-7"/></svg>