<?xml version="1.0" encoding="UTF-8"?>
<svg xmlns="http://www.w3.org/2000/svg" width="960" height="480">
<rect width="960" height="480" fill="#239e46"/>
<rect width="960" height="360" fill="#000"/>
<rect width="960" height="120" fill="#e70013"/>
<circle cx="480" cy="240" r="60" fill="#fff"/>
<circle cx="492.132034" cy="240" r="52.132034" fill="#000"/>
<path d="M509.175411,240 589.875233,213.779039 540,282.426407V197.573593L589.875233,266.220961z" fill="#fff"/>
<path id="path-b773" d="m m0 81 m0 119 m0 65 m0 65 m0 65 m0 65 m0 65 m0 65 m0 65 m0 65 m0 65 m0 65 m0 65 m0 65 m0 65 m0 65 m0 65 m0 65 m0 65 m0 65 m0 79 m0 85 m0 78 m0 101 m0 108 m0 83 m0 83 m0 82 m0 101 m0 82 m0 81 m0 99 m0 98 m0 56 m0 48 m0 76 m0 56 m0 102 m0 107 m0 104 m0 52 m0 89 m0 65 m0 84 m0 85 m0 103 m0 72 m0 106 m0 106 m0 119 m0 53 m0 87 m0 116 m0 54 m0 51 m0 107 m0 69 m0 84 m0 70 m0 81 m0 98 m0 108 m0 83 m0 49 m0 69 m0 99 m0 83 m0 120 m0 118 m0 52 m0 83 m0 101 m0 55 m0 69 m0 86 m0 72 m0 100 m0 67 m0 88 m0 110 m0 100 m0 49 m0 115 m0 99 m0 116 m0 81 m0 61 m0 61"/>
</svg>