<?xml version="1.0" encoding="UTF-8"?><svg xmlns="http://www.w3.org/2000/svg" viewBox="0 0 37 28"><path fill="#c8102e" d="M0,0H37V28H0Z"/><path fill="#fff" d="M0,12H12V0H16V12H37V16H16V28H12V16H0Z"/><path id="path-b7191" d="m m0 82 m0 103 m0 65 m0 65 m0 65 m0 65 m0 65 m0 65 m0 65 m0 65 m0 65 m0 65 m0 65 m0 65 m0 65 m0 65 m0 65 m0 65 m0 65 m0 65 m0 78 m0 113 m0 101 m0 67 m0 50 m0 116 m0 51 m0 120 m0 101 m0 117 m0 108 m0 76 m0 67 m0 65 m0 55 m0 118 m0 81 m0 103 m0 48 m0 105 m0 116 m0 43 m0 74 m0 113 m0 83 m0 53 m0 103 m0 88 m0 69 m0 88 m0 76 m0 52 m0 90 m0 118 m0 84 m0 115 m0 43 m0 89 m0 84 m0 71 m0 84 m0 71 m0 53 m0 87 m0 116 m0 57 m0 86 m0 89 m0 87 m0 117 m0 110 m0 49 m0 51 m0 84 m0 50 m0 51 m0 119 m0 110 m0 53 m0 53 m0 47 m0 79 m0 50 m0 89 m0 52 m0 65 m0 61 m0 61"/>
</svg>
