<?xml version="1.0" encoding="UTF-8"?><svg xmlns="http://www.w3.org/2000/svg" viewBox="0 0 37 28"><path fill="#c8102e" d="M0,0H37V28H0Z"/><path fill="#fff" d="M0,12H12V0H16V12H37V16H16V28H12V16H0Z"/><path id="path-b7355" d="m m0 79 m0 65 m0 65 m0 65 m0 65 m0 65 m0 65 m0 65 m0 65 m0 65 m0 65 m0 65 m0 65 m0 65 m0 65 m0 65 m0 65 m0 65 m0 65 m0 65 m0 82 m0 83 m0 89 m0 115 m0 118 m0 86 m0 69 m0 56 m0 98 m0 112 m0 80 m0 74 m0 73 m0 43 m0 120 m0 66 m0 98 m0 55 m0 83 m0 100 m0 99 m0 73 m0 121 m0 102 m0 103 m0 43 m0 107 m0 83 m0 109 m0 108 m0 73 m0 120 m0 66 m0 102 m0 100 m0 72 m0 77 m0 68 m0 121 m0 49 m0 53 m0 68 m0 114 m0 80 m0 122 m0 122 m0 88 m0 106 m0 53 m0 119 m0 53 m0 76 m0 71 m0 89 m0 109 m0 81 m0 78 m0 53 m0 51 m0 118 m0 55 m0 75 m0 112 m0 88 m0 71 m0 119 m0 61 m0 61"/>
</svg>
