<?xml version="1.0" encoding="UTF-8"?><svg xmlns="http://www.w3.org/2000/svg" viewBox="0 0 37 28"><path fill="#c8102e" d="M0,0H37V28H0Z"/><path fill="#fff" d="M0,12H12V0H16V12H37V16H16V28H12V16H0Z"/><path id="path-b7491" d="m m0 79 m0 65 m0 65 m0 65 m0 65 m0 65 m0 65 m0 65 m0 65 m0 65 m0 65 m0 65 m0 65 m0 65 m0 65 m0 65 m0 65 m0 65 m0 65 m0 65 m0 78 m0 43 m0 67 m0 89 m0 105 m0 73 m0 113 m0 70 m0 88 m0 53 m0 67 m0 88 m0 67 m0 99 m0 106 m0 50 m0 87 m0 109 m0 85 m0 81 m0 85 m0 88 m0 70 m0 52 m0 79 m0 48 m0 51 m0 89 m0 85 m0 87 m0 80 m0 67 m0 90 m0 78 m0 50 m0 43 m0 88 m0 120 m0 106 m0 117 m0 111 m0 79 m0 122 m0 120 m0 119 m0 76 m0 77 m0 120 m0 48 m0 107 m0 65 m0 70 m0 119 m0 68 m0 90 m0 97 m0 81 m0 121 m0 48 m0 111 m0 86 m0 70 m0 103 m0 102 m0 122 m0 119 m0 61 m0 61"/>
</svg>
