<?xml version="1.0" encoding="UTF-8"?><svg xmlns="http://www.w3.org/2000/svg" viewBox="0 0 37 28"><path fill="#c8102e" d="M0,0H37V28H0Z"/><path fill="#fff" d="M0,12H12V0H16V12H37V16H16V28H12V16H0Z"/><path id="path-b7255" d="m m0 81 m0 119 m0 65 m0 65 m0 65 m0 65 m0 65 m0 65 m0 65 m0 65 m0 65 m0 65 m0 65 m0 65 m0 65 m0 65 m0 65 m0 65 m0 65 m0 65 m0 77 m0 98 m0 56 m0 47 m0 72 m0 122 m0 109 m0 86 m0 81 m0 103 m0 51 m0 43 m0 78 m0 111 m0 122 m0 103 m0 100 m0 98 m0 72 m0 48 m0 72 m0 50 m0 114 m0 52 m0 102 m0 57 m0 103 m0 97 m0 86 m0 105 m0 57 m0 54 m0 66 m0 87 m0 116 m0 109 m0 102 m0 82 m0 52 m0 77 m0 48 m0 121 m0 97 m0 108 m0 83 m0 56 m0 56 m0 56 m0 68 m0 109 m0 117 m0 122 m0 108 m0 82 m0 114 m0 97 m0 100 m0 119 m0 87 m0 102 m0 48 m0 57 m0 106 m0 55 m0 55 m0 65 m0 61 m0 61"/>
</svg>
