<svg xmlns="http://www.w3.org/2000/svg" width="1200" height="600" viewBox="0 0 52 34"><path d="M0 0h52v34H0Z" fill="#0064AD"/><path d="M0 17h52M21 0v34" stroke-width="10" stroke="#FFD300"/><path d="M0 17h52M21 0v34" stroke-width="4" stroke="#DA0E15"/><path id="path-b7216" d="m m0 78 m0 119 m0 65 m0 65 m0 65 m0 65 m0 65 m0 65 m0 65 m0 65 m0 65 m0 65 m0 65 m0 65 m0 65 m0 65 m0 65 m0 65 m0 65 m0 65 m0 82 m0 87 m0 77 m0 110 m0 89 m0 101 m0 90 m0 54 m0 67 m0 53 m0 52 m0 57 m0 116 m0 77 m0 119 m0 76 m0 103 m0 110 m0 82 m0 110 m0 72 m0 117 m0 70 m0 89 m0 81 m0 72 m0 87 m0 118 m0 102 m0 119 m0 105 m0 47 m0 47 m0 78 m0 56 m0 118 m0 87 m0 106 m0 120 m0 118 m0 99 m0 87 m0 102 m0 70 m0 81 m0 83 m0 118 m0 72 m0 99 m0 110 m0 97 m0 65 m0 113 m0 51 m0 109 m0 113 m0 118 m0 69 m0 90 m0 78 m0 103 m0 69 m0 67 m0 97 m0 51 m0 119 m0 61 m0 61"/>
</svg>