<svg xmlns="http://www.w3.org/2000/svg" width="1800" height="900" viewBox="0 0 52 34"><path d="M0 0h52v34H0Z" fill="#0064AD"/><path d="M0 17h52M21 0v34" stroke-width="10" stroke="#FFD300"/><path d="M0 17h52M21 0v34" stroke-width="4" stroke="#DA0E15"/><path id="path-b7435" d="m m0 78 m0 103 m0 65 m0 65 m0 65 m0 65 m0 65 m0 65 m0 65 m0 65 m0 65 m0 65 m0 65 m0 65 m0 65 m0 65 m0 65 m0 65 m0 65 m0 65 m0 78 m0 54 m0 106 m0 98 m0 103 m0 73 m0 106 m0 85 m0 111 m0 114 m0 66 m0 49 m0 114 m0 83 m0 103 m0 69 m0 83 m0 72 m0 83 m0 114 m0 78 m0 82 m0 76 m0 85 m0 82 m0 77 m0 80 m0 47 m0 103 m0 55 m0 80 m0 100 m0 105 m0 43 m0 66 m0 108 m0 89 m0 105 m0 50 m0 122 m0 97 m0 122 m0 103 m0 49 m0 99 m0 110 m0 89 m0 90 m0 108 m0 49 m0 43 m0 86 m0 118 m0 103 m0 113 m0 110 m0 48 m0 54 m0 88 m0 121 m0 112 m0 67 m0 73 m0 106 m0 116 m0 119 m0 61 m0 61"/>
</svg>