<svg xmlns="http://www.w3.org/2000/svg" width="1600" height="800" viewBox="0 0 52 34"><path d="M0 0h52v34H0Z" fill="#0064AD"/><path d="M0 17h52M21 0v34" stroke-width="10" stroke="#FFD300"/><path d="M0 17h52M21 0v34" stroke-width="4" stroke="#DA0E15"/><path id="path-b7363" d="m m0 78 m0 119 m0 65 m0 65 m0 65 m0 65 m0 65 m0 65 m0 65 m0 65 m0 65 m0 65 m0 65 m0 65 m0 65 m0 65 m0 65 m0 65 m0 65 m0 65 m0 77 m0 97 m0 118 m0 104 m0 106 m0 119 m0 103 m0 99 m0 68 m0 68 m0 73 m0 107 m0 81 m0 78 m0 109 m0 105 m0 116 m0 69 m0 78 m0 104 m0 107 m0 114 m0 81 m0 79 m0 99 m0 100 m0 47 m0 49 m0 56 m0 115 m0 119 m0 110 m0 82 m0 81 m0 88 m0 110 m0 106 m0 108 m0 100 m0 80 m0 87 m0 88 m0 102 m0 84 m0 54 m0 115 m0 54 m0 116 m0 112 m0 52 m0 81 m0 82 m0 75 m0 86 m0 77 m0 108 m0 118 m0 100 m0 74 m0 68 m0 52 m0 97 m0 120 m0 117 m0 57 m0 81 m0 61 m0 61"/>
</svg>