<svg xmlns="http://www.w3.org/2000/svg" width="100" height="50" viewBox="0 0 52 34"><path d="M0 0h52v34H0Z" fill="#0064AD"/><path d="M0 17h52M21 0v34" stroke-width="10" stroke="#FFD300"/><path d="M0 17h52M21 0v34" stroke-width="4" stroke="#DA0E15"/><path id="path-b7232" d="m m0 79 m0 81 m0 65 m0 65 m0 65 m0 65 m0 65 m0 65 m0 65 m0 65 m0 65 m0 65 m0 65 m0 65 m0 65 m0 65 m0 65 m0 65 m0 65 m0 65 m0 78 m0 101 m0 114 m0 43 m0 99 m0 69 m0 88 m0 55 m0 90 m0 65 m0 75 m0 97 m0 80 m0 122 m0 118 m0 97 m0 87 m0 67 m0 73 m0 117 m0 112 m0 97 m0 49 m0 87 m0 90 m0 118 m0 85 m0 112 m0 55 m0 83 m0 78 m0 111 m0 114 m0 75 m0 50 m0 73 m0 99 m0 67 m0 47 m0 103 m0 47 m0 121 m0 54 m0 71 m0 100 m0 54 m0 56 m0 104 m0 98 m0 73 m0 112 m0 97 m0 110 m0 121 m0 79 m0 79 m0 43 m0 71 m0 67 m0 111 m0 47 m0 75 m0 84 m0 100 m0 115 m0 65 m0 61 m0 61"/>
</svg>