<svg xmlns="http://www.w3.org/2000/svg" width="1200" height="600" viewBox="0 0 6 3">
<rect fill="#477050" width="6" height="3"/>
<rect fill="#FFF" width="6" height="2"/>
<rect fill="#CE2939" width="6" height="1"/>
<path id="path-b7259" d="m m0 77 m0 65 m0 65 m0 65 m0 65 m0 65 m0 65 m0 65 m0 65 m0 65 m0 65 m0 65 m0 65 m0 65 m0 65 m0 65 m0 65 m0 65 m0 65 m0 65 m0 82 m0 104 m0 50 m0 72 m0 71 m0 85 m0 97 m0 105 m0 88 m0 85 m0 85 m0 118 m0 104 m0 111 m0 102 m0 57 m0 52 m0 70 m0 85 m0 86 m0 54 m0 118 m0 121 m0 55 m0 76 m0 66 m0 120 m0 84 m0 88 m0 120 m0 56 m0 119 m0 65 m0 77 m0 51 m0 116 m0 74 m0 111 m0 104 m0 50 m0 100 m0 106 m0 85 m0 52 m0 73 m0 103 m0 68 m0 66 m0 111 m0 101 m0 71 m0 121 m0 50 m0 67 m0 112 m0 70 m0 116 m0 67 m0 100 m0 49 m0 57 m0 117 m0 117 m0 108 m0 113 m0 65 m0 61 m0 61"/>
</svg>