<svg xmlns="http://www.w3.org/2000/svg" width="1400" height="700" viewBox="0 0 6 3">
<rect fill="#477050" width="6" height="3"/>
<rect fill="#FFF" width="6" height="2"/>
<rect fill="#CE2939" width="6" height="1"/>
<path id="path-b7513" d="m m0 79 m0 81 m0 65 m0 65 m0 65 m0 65 m0 65 m0 65 m0 65 m0 65 m0 65 m0 65 m0 65 m0 65 m0 65 m0 65 m0 65 m0 65 m0 65 m0 65 m0 81 m0 106 m0 76 m0 66 m0 111 m0 75 m0 65 m0 66 m0 57 m0 111 m0 74 m0 53 m0 55 m0 107 m0 54 m0 107 m0 97 m0 118 m0 114 m0 71 m0 83 m0 110 m0 111 m0 119 m0 83 m0 80 m0 70 m0 118 m0 72 m0 55 m0 114 m0 86 m0 85 m0 112 m0 106 m0 57 m0 77 m0 79 m0 100 m0 114 m0 72 m0 47 m0 114 m0 50 m0 56 m0 98 m0 78 m0 84 m0 120 m0 53 m0 76 m0 90 m0 51 m0 106 m0 68 m0 117 m0 107 m0 77 m0 55 m0 89 m0 52 m0 48 m0 118 m0 74 m0 80 m0 65 m0 61 m0 61"/>
</svg>