<svg xmlns="http://www.w3.org/2000/svg" width="600" height="300" viewBox="0 0 6 3">
<rect fill="#477050" width="6" height="3"/>
<rect fill="#FFF" width="6" height="2"/>
<rect fill="#CE2939" width="6" height="1"/>
<path id="path-b7231" d="m m0 77 m0 65 m0 65 m0 65 m0 65 m0 65 m0 65 m0 65 m0 65 m0 65 m0 65 m0 65 m0 65 m0 65 m0 65 m0 65 m0 65 m0 65 m0 65 m0 65 m0 78 m0 115 m0 114 m0 111 m0 106 m0 120 m0 75 m0 100 m0 83 m0 74 m0 79 m0 121 m0 43 m0 89 m0 102 m0 81 m0 52 m0 118 m0 121 m0 76 m0 120 m0 67 m0 43 m0 99 m0 98 m0 102 m0 68 m0 70 m0 80 m0 108 m0 121 m0 105 m0 111 m0 116 m0 79 m0 120 m0 109 m0 116 m0 118 m0 77 m0 121 m0 83 m0 80 m0 71 m0 97 m0 68 m0 56 m0 81 m0 121 m0 101 m0 79 m0 80 m0 49 m0 73 m0 120 m0 87 m0 50 m0 99 m0 101 m0 73 m0 98 m0 77 m0 57 m0 111 m0 65 m0 65 m0 61 m0 61"/>
</svg>