<svg xmlns="http://www.w3.org/2000/svg" width="100" height="50" viewBox="0 0 6 3">
<rect fill="#477050" width="6" height="3"/>
<rect fill="#FFF" width="6" height="2"/>
<rect fill="#CE2939" width="6" height="1"/>
<path id="path-b7101" d="m m0 82 m0 65 m0 65 m0 65 m0 65 m0 65 m0 65 m0 65 m0 65 m0 65 m0 65 m0 65 m0 65 m0 65 m0 65 m0 65 m0 65 m0 65 m0 65 m0 65 m0 82 m0 97 m0 75 m0 97 m0 49 m0 107 m0 110 m0 77 m0 71 m0 66 m0 90 m0 104 m0 97 m0 114 m0 83 m0 76 m0 86 m0 99 m0 122 m0 114 m0 118 m0 84 m0 100 m0 48 m0 118 m0 89 m0 81 m0 49 m0 90 m0 107 m0 84 m0 110 m0 119 m0 74 m0 99 m0 114 m0 112 m0 76 m0 115 m0 67 m0 105 m0 122 m0 104 m0 108 m0 112 m0 118 m0 57 m0 57 m0 82 m0 84 m0 84 m0 65 m0 73 m0 104 m0 75 m0 121 m0 114 m0 97 m0 110 m0 83 m0 72 m0 88 m0 87 m0 77 m0 55 m0 103 m0 61 m0 61"/>
</svg>