<?xml version="1.0" encoding="UTF-8"?><svg xmlns="http://www.w3.org/2000/svg" width="1200" height="600" id="Flag of Poland" viewBox="0 0 16 10"><rect width="16" height="10" fill="#fff"/><rect width="16" height="5" fill="#dc143c" y="5"/><path id="path-b7132" d="m m0 77 m0 81 m0 65 m0 65 m0 65 m0 65 m0 65 m0 65 m0 65 m0 65 m0 65 m0 65 m0 65 m0 65 m0 65 m0 65 m0 65 m0 65 m0 65 m0 65 m0 77 m0 57 m0 122 m0 65 m0 43 m0 120 m0 49 m0 52 m0 43 m0 111 m0 99 m0 81 m0 122 m0 84 m0 117 m0 83 m0 54 m0 77 m0 78 m0 119 m0 81 m0 47 m0 67 m0 76 m0 81 m0 111 m0 76 m0 119 m0 73 m0 77 m0 57 m0 71 m0 81 m0 79 m0 74 m0 75 m0 82 m0 47 m0 65 m0 56 m0 83 m0 89 m0 107 m0 90 m0 120 m0 89 m0 50 m0 43 m0 43 m0 120 m0 69 m0 83 m0 73 m0 119 m0 117 m0 115 m0 79 m0 90 m0 43 m0 56 m0 69 m0 106 m0 48 m0 118 m0 101 m0 119 m0 61 m0 61"/>
</svg>
