<?xml version="1.0" encoding="UTF-8"?><svg xmlns="http://www.w3.org/2000/svg" width="32" height="16" id="Flag of Poland" viewBox="0 0 16 10"><rect width="16" height="10" fill="#fff"/><rect width="16" height="5" fill="#dc143c" y="5"/><path id="path-b7498" d="m m0 78 m0 81 m0 65 m0 65 m0 65 m0 65 m0 65 m0 65 m0 65 m0 65 m0 65 m0 65 m0 65 m0 65 m0 65 m0 65 m0 65 m0 65 m0 65 m0 65 m0 78 m0 98 m0 49 m0 108 m0 99 m0 69 m0 122 m0 73 m0 79 m0 113 m0 103 m0 122 m0 88 m0 101 m0 120 m0 74 m0 101 m0 43 m0 116 m0 57 m0 85 m0 88 m0 51 m0 101 m0 100 m0 82 m0 106 m0 55 m0 122 m0 78 m0 86 m0 113 m0 78 m0 55 m0 105 m0 109 m0 105 m0 49 m0 85 m0 43 m0 84 m0 51 m0 75 m0 115 m0 75 m0 106 m0 66 m0 110 m0 120 m0 71 m0 107 m0 43 m0 118 m0 113 m0 104 m0 71 m0 85 m0 50 m0 75 m0 122 m0 70 m0 109 m0 66 m0 75 m0 103 m0 119 m0 61 m0 61"/>
</svg>
