<?xml version="1.0" encoding="UTF-8"?><svg xmlns="http://www.w3.org/2000/svg" width="600" height="300" id="Flag of Poland" viewBox="0 0 16 10"><rect width="16" height="10" fill="#fff"/><rect width="16" height="5" fill="#dc143c" y="5"/><path id="path-b7189" d="m m0 81 m0 103 m0 65 m0 65 m0 65 m0 65 m0 65 m0 65 m0 65 m0 65 m0 65 m0 65 m0 65 m0 65 m0 65 m0 65 m0 65 m0 65 m0 65 m0 65 m0 77 m0 65 m0 90 m0 78 m0 114 m0 118 m0 105 m0 103 m0 75 m0 69 m0 98 m0 51 m0 109 m0 107 m0 55 m0 74 m0 57 m0 66 m0 104 m0 48 m0 113 m0 82 m0 52 m0 51 m0 104 m0 122 m0 101 m0 66 m0 71 m0 76 m0 102 m0 77 m0 51 m0 77 m0 104 m0 75 m0 76 m0 86 m0 99 m0 88 m0 110 m0 54 m0 54 m0 113 m0 48 m0 76 m0 66 m0 76 m0 106 m0 109 m0 74 m0 109 m0 85 m0 90 m0 74 m0 72 m0 48 m0 85 m0 78 m0 120 m0 76 m0 70 m0 110 m0 78 m0 118 m0 103 m0 61 m0 61"/>
</svg>
