<?xml version="1.0" encoding="UTF-8"?><svg xmlns="http://www.w3.org/2000/svg" width="300" height="150" id="Flag of Poland" viewBox="0 0 16 10"><rect width="16" height="10" fill="#fff"/><rect width="16" height="5" fill="#dc143c" y="5"/><path id="path-b7469" d="m m0 81 m0 81 m0 65 m0 65 m0 65 m0 65 m0 65 m0 65 m0 65 m0 65 m0 65 m0 65 m0 65 m0 65 m0 65 m0 65 m0 65 m0 65 m0 65 m0 65 m0 77 m0 111 m0 49 m0 98 m0 86 m0 43 m0 88 m0 51 m0 79 m0 87 m0 57 m0 116 m0 113 m0 67 m0 71 m0 97 m0 84 m0 56 m0 104 m0 114 m0 118 m0 75 m0 50 m0 118 m0 104 m0 67 m0 43 m0 81 m0 54 m0 67 m0 53 m0 47 m0 79 m0 50 m0 51 m0 109 m0 104 m0 110 m0 77 m0 69 m0 106 m0 88 m0 108 m0 120 m0 86 m0 78 m0 122 m0 115 m0 90 m0 85 m0 69 m0 71 m0 82 m0 108 m0 76 m0 72 m0 105 m0 102 m0 113 m0 70 m0 112 m0 104 m0 71 m0 122 m0 69 m0 65 m0 61 m0 61"/>
</svg>
