<svg xmlns="http://www.w3.org/2000/svg" xmlns:xlink="http://www.w3.org/1999/xlink" width="200" height="100"><path fill="#012169" d="M0 0h1200v600H0z"/><path fill="#012169" d="M0 300h600V0h600v600H0z"/><path fill="#012169" d="M0 0h600v300H0z"/><path fill="#fff" d="M0 0v34l533 266h67v-34L67 0Zm600 0v34L67 300H0v-34L533 0Z"/><path fill="#fff" d="M250 0v300h100V0zM0 100v100h600V100z"/><path fill="#c8102e" d="M0 120v60h600v-60zM270 0v300h60V0zM0 300l200-100h45L45 300zM0 0l200 100h-45L0 22zm355 100L555 0h45L400 100zm245 200L400 200h45l155 78z"/><path fill="#500" stroke="#500" stroke-linejoin="round" d="M745 487c-4-1-8-3-13-8l-2-2-3 1c-14 5-31 8-50 8-26 1-48-3-61-9l-4-1-2 2c-5 5-10 7-15 8-5 0-12-2-16-6l-2-5-3-9-3-3c-5-6-5-6-3-8 1-3 4-5 7-5h2l-1-2-2-5 3-2c6-4 7-7 9-15l2-6c2-2 5-4 9-4l8 2c6 3 13 8 18 15l3 3v3a65 65 0 0 1-4 20l12 4a156 156 0 0 0 85-4v-2c-2-3-3-9-3-15v-5l2-3 10-10 10-6c6-2 12-1 15 2l2 6c3 9 5 11 10 14l3 2-2 4-2 4 1 1c3 0 8 2 9 5 1 2 1 2-1 4a5388 5388 0 0 0-8 14c-1 6-1 6-3 7l-9 5-8 1z" color="#000" style="isolation:auto;mix-blend-mode:normal;paint-order:markers stroke fill" transform="translate(16 -160) scale(1.31831)"/><g color="#000"><path fill="none" d="m440 585 8-7c0-4-2-7-5-8-2-1-5-1-8 2 1 6 2 9 5 13z" style="isolation:auto;mix-blend-mode:normal;paint-order:markers stroke fill" transform="translate(407 -335) scale(1.31831)"/><path fill="#951b1d" d="m449 597 3 4h2c-1 3 1 7 1 7l-16 8-7-8-3-4 5-2 12-5z" style="isolation:auto;mix-blend-mode:normal;paint-order:markers stroke fill" transform="translate(407 -335) scale(1.31831)"/><path fill="#e2a950" d="M452 601c7 1 15 2 15 9 1 5-10 10-16 10-5 0-10-2-15-7 5-2 16-6 16-12z" style="isolation:auto;mix-blend-mode:normal;paint-order:markers stroke fill" transform="translate(407 -335) scale(1.31831)"/><path fill="none" d="M467 610c1 5-10 10-16 10-8 0-14-4-19-12l-8-13c-4-7-5-16-5-25 4-6 10-12 18-17 4-2 9-4 15-2 4 1 5 4 6 8-1 13-2 26-9 38l3 4c7 1 15 2 15 9z" style="isolation:auto;mix-blend-mode:normal;paint-order:markers stroke fill" transform="translate(407 -335) scale(1.31831)"/><path fill="#c98c26" d="m437 580 2 5-16 8h-1v-2l-1-1v-1c5-4 10-6 16-9z" style="isolation:auto;mix-blend-mode:normal;paint-order:markers stroke fill" transform="translate(407 -335) scale(1.31831)"/><path fill="#ab1e2b" d="M460 602c4 2 7 3 7 8 1 5-10 10-16 10l-8-2s7-1 10-3l5-6 2-6v-1z" style="isolation:auto;mix-blend-mode:normal;paint-order:markers stroke fill" transform="translate(407 -335) scale(1.31831)"/><path fill="#c47645" d="m460 602 2 1 1 5-2 4-4 4-6 2-6 1-2-1 4-1 5-2 3-3 3-3 2-7z" style="isolation:auto;mix-blend-mode:normal;paint-order:markers stroke fill" transform="translate(407 -335) scale(1.31831)"/><path fill="#ca6b5b" d="M435 555a61 61 0 0 1 0 5v13l1 7 3 5-10 5-6 3h-1c-2-6-3-16-3-23 4-5 9-11 16-15z" style="isolation:auto;mix-blend-mode:normal;paint-order:markers stroke fill" transform="translate(407 -335) scale(1.31831)"/><path fill="#e2b269" d="M435 563a398 398 0 0 0 0 10l2 8-16 8v-2h-1v-2a53 53 0 0 1-1-6v-4z" style="isolation:auto;mix-blend-mode:normal;paint-order:markers stroke fill" transform="translate(407 -335) scale(1.31831)"/><path fill="#f2d196" d="m435 570 1 8-16 7v-3l-1-3v-1z" style="isolation:auto;mix-blend-mode:normal;paint-order:markers stroke fill" transform="translate(407 -335) scale(1.31831)"/><path fill="#951b1d" d="m438 583 1 2-16 8-1-2z" style="isolation:auto;mix-blend-mode:normal;paint-order:markers stroke fill" transform="translate(407 -335) scale(1.31831)"/><path fill="none" d="M435 555c1 10-2 21 4 30l-16 8c-4-6-4-15-4-23 4-5 9-11 16-15z" style="isolation:auto;mix-blend-mode:normal;paint-order:markers stroke fill" transform="translate(407 -335) scale(1.31831)"/><path fill="#faecbd" d="m448 577 3-4c3-3 5-7 6-10a10 10 0 0 0 0-5l-2-5-4-2-5-1-8 3-3 2v9a194 194 0 0 0 1 8l2-2h5c2 1 4 3 4 5a9 9 0 0 1 1 2z" style="isolation:auto;mix-blend-mode:normal;paint-order:markers stroke fill" transform="translate(407 -335) scale(1.31831)"/><g stroke-linejoin="round"><path fill="#ae4c33" d="m436 572 3-2h1a1773 1773 0 0 1 1-18c-1-1-4 1-5 2l-1 2a321 321 0 0 1 1 16z" style="isolation:auto;mix-blend-mode:normal;paint-order:markers stroke fill" transform="translate(407 -335) scale(1.31831)"/><path fill="#dba35a" d="M443 570a3311 3311 0 0 1 3-20h-3l-1 1-1 1-1 17v1h3z" style="isolation:auto;mix-blend-mode:normal;paint-order:markers stroke fill" transform="translate(407 -335) scale(1.31831)"/><path fill="#e9be79" d="M449 576c3-4 6-7 7-11 1-3 2-6 1-8-1-3-2-5-6-6a14 14 0 0 0-5-1 422 422 0 0 0-2 18l-1 2 1 1 4 5v1l1-1z" style="isolation:auto;mix-blend-mode:normal;paint-order:markers stroke fill" transform="translate(407 -335) scale(1.31831)"/></g><path fill="#012169" stroke="#500" stroke-linejoin="round" d="m1340 242 5-3 2-2v-1c0-3-2-5-4-6-3-1-5 0-7 2l-1 1v1c1 4 1 7 3 9h1l1-1z" style="isolation:auto;mix-blend-mode:normal;paint-order:markers stroke fill" transform="translate(-779 113) scale(1.31831)"/></g><g color="#000"><path fill="none" d="m308 585-9-8c0-3 2-6 5-7s5-1 8 2c0 5-1 8-4 13z" style="isolation:auto;mix-blend-mode:normal;paint-order:markers stroke fill" transform="translate(407 -335) scale(1.31831)"/><path fill="#951b1d" d="m298 596-3 4h-1l-2 7 16 8 8-8 2-4-5-2-12-4z" style="isolation:auto;mix-blend-mode:normal;paint-order:markers stroke fill" transform="translate(407 -335) scale(1.31831)"/><path fill="#e2a950" d="M295 600c-7 1-15 2-15 9 0 6 10 10 16 10 6 1 11-2 15-6-5-3-15-6-16-13z" style="isolation:auto;mix-blend-mode:normal;paint-order:markers stroke fill" transform="translate(407 -335) scale(1.31831)"/><path fill="none" d="M280 609c0 6 10 10 16 10 8 0 14-4 20-12l8-13c4-6 4-16 5-24-5-7-11-13-19-18-4-2-9-4-15-2-4 2-5 5-5 8 0 13 1 26 8 38l-3 4c-7 1-15 2-15 9z" style="isolation:auto;mix-blend-mode:normal;paint-order:markers stroke fill" transform="translate(407 -335) scale(1.31831)"/><path fill="#c98c26" d="m311 579-3 5 17 8 1-2v-2l-15-9z" style="isolation:auto;mix-blend-mode:normal;paint-order:markers stroke fill" transform="translate(407 -335) scale(1.31831)"/><path fill="#eed3a6" d="M290 558c-2 12-8 15-14 18 0 0 18 43 98 43 68 0 90-26 97-44-12-6-11-11-14-17 3 11-21 42-83 42-71 0-85-36-84-42z" style="isolation:auto;mix-blend-mode:normal;paint-order:markers stroke fill" transform="translate(407 -335) scale(1.31831)"/><path fill="#e6ba74" d="M459 563v1c-5 10-10 14-16 19a105 105 0 0 1-48 17 200 200 0 0 1-51-1 131 131 0 0 1-30-10l-14-8-8-9-4-8c-3 7-7 10-12 12 0 0 18 43 98 43 68 0 90-26 97-44-8-4-10-8-12-12z" style="isolation:auto;mix-blend-mode:normal;paint-order:markers stroke fill" transform="translate(407 -335) scale(1.31831)"/><path fill="#e2a950" d="M288 564c-3 7-7 10-12 12 0 0 6 15 26 27l-1-15-1-7-8-9-4-8z" style="isolation:auto;mix-blend-mode:normal;paint-order:markers stroke fill" transform="translate(407 -335) scale(1.31831)"/><path fill="#c98c26" d="m464 571 6 4s-1 5-5 10l-2-2-1-5 1-6 1-1z" style="isolation:auto;mix-blend-mode:normal;paint-order:markers stroke fill" transform="translate(407 -335) scale(1.31831)"/><path fill="none" d="M290 558c-2 12-8 15-14 18 0 0 18 43 98 43 68 0 90-26 97-44-12-6-11-11-14-17 3 11-21 42-83 42-71 0-85-36-84-42z" style="isolation:auto;mix-blend-mode:normal;paint-order:markers stroke fill" transform="translate(407 -335) scale(1.31831)"/><path fill="#ab1e2b" d="M287 602c-4 1-7 3-7 7 0 6 10 10 16 10 3 0 6 0 9-2-1 0-7-1-10-3-3-1-5-5-6-6l-2-6z" style="isolation:auto;mix-blend-mode:normal;paint-order:markers stroke fill" transform="translate(407 -335) scale(1.31831)"/><path fill="#c47645" d="m17 580-2 1-1 5 2 3 4 4 6 3 6 1 3-1-5-2-5-2-3-2-2-3-3-7z" style="isolation:auto;mix-blend-mode:normal;paint-order:markers stroke fill" transform="translate(764 -307) scale(1.31831)"/><path fill="#ca6b5b" d="M312 554a61 61 0 0 0 0 5v13l-1 7-3 5 11 6 6 2 4-22c-5-6-10-12-17-16z" style="isolation:auto;mix-blend-mode:normal;paint-order:markers stroke fill" transform="translate(407 -335) scale(1.31831)"/><path fill="#e2b269" d="M312 562a398 398 0 0 1 0 10l-2 8 16 8 1-1v-3a53 53 0 0 0 1-6v-4z" style="isolation:auto;mix-blend-mode:normal;paint-order:markers stroke fill" transform="translate(407 -335) scale(1.31831)"/><path fill="#f2d196" d="m312 569-1 8 16 8v-1l1-2v-4z" style="isolation:auto;mix-blend-mode:normal;paint-order:markers stroke fill" transform="translate(407 -335) scale(1.31831)"/><path fill="#c98c26" d="m283 572-6 4s1 4 6 10l1-2v-10l-1-2z" style="isolation:auto;mix-blend-mode:normal;paint-order:markers stroke fill" transform="translate(407 -335) scale(1.31831)"/></g><g color="#000"><path fill="#f9e7d9" d="m289 612-4-11 7 4v5l-1 1z" style="isolation:auto;mix-blend-mode:normal;paint-order:markers stroke fill" transform="translate(407 -335) scale(1.31831)"/><path fill="#e6ba74" d="M573 674v2l6 7 2 7c0-1 4-4 6-4 2-1 5 1 5 3l-3 4c6-1 3-7 2-9l-3-5-2-9c-7-3-11 0-13 4z" style="isolation:auto;mix-blend-mode:normal;paint-order:markers stroke fill" transform="matrix(1.5221 0 0 1.5916 -108 -631)"/><path fill="#f9e7d9" d="M9 562c-3 0-5 1-7 3l8 14-6-14c2-2 5-3 8-2v-1l-3-1z" style="isolation:auto;mix-blend-mode:normal;paint-order:markers stroke fill" transform="translate(764 -307) scale(1.31831)"/><path fill="#c47645" d="M13 562a2627 2627 0 0 1 3 20c3 0 6 1 6 4 0 1-1 4-3 4 6-1 3-8 2-11l-3-5-2-11-3-1zm6 28-1 1 1-1z" style="isolation:auto;mix-blend-mode:normal;paint-order:markers stroke fill" transform="translate(764 -307) scale(1.31831)"/><path fill="#ab1e2b" d="m13 562 5 20c2 0 4 2 4 4 0 1-1 4-3 4 6-1 3-8 2-11l-3-5-2-11-3-1z" style="isolation:auto;mix-blend-mode:normal;paint-order:markers stroke fill" transform="translate(764 -307) scale(1.31831)"/><path fill="none" d="M573 674v2l6 7 2 7c0-1 4-4 6-4 2-1 5 1 5 3l-3 4c6-1 3-7 2-9l-3-5-2-9c-7-3-11 0-13 4z" style="isolation:auto;mix-blend-mode:normal;paint-order:markers stroke fill" transform="matrix(1.5221 0 0 1.5916 -108 -631)"/></g><g color="#000"><path fill="#951b1d" d="m39 561-1 1c5 4 11 6 17 9v-2z" style="isolation:auto;mix-blend-mode:normal;paint-order:markers stroke fill" transform="translate(764 -307) scale(1.31831)"/><path fill="none" d="M312 554c-1 10 2 21-4 30l17 8c3-6 3-15 4-22-5-6-10-12-17-16z" style="isolation:auto;mix-blend-mode:normal;paint-order:markers stroke fill" transform="translate(407 -335) scale(1.31831)"/><path fill="#faecbd" d="M177 560c-29 20-94 31-139 3v21c15 8 36 13 66 13 35 0 58-7 73-16z" style="isolation:auto;mix-blend-mode:normal;paint-order:markers stroke fill" transform="translate(764 -307) scale(1.31831)"/></g><path d="M330 717q-1 2-3 2h-4l-2-2 2-2 2-3 1-3h1q6 4 3 8zm-1-1v-3l-2-2-4 6q4 2 6-1zm7 7-1 2-5-2 2-3 1-4 1-3 5 3-1 1-2-1-1-1-1 3 3 2-2 1-1-2-2 3 2 1h2zm7 2-2 2h-2l-2-1 1-2v1l1 1h2l1-1-1-2-1-2v-2l2-2h2l1 1v2l-1-1h-3l1 2 1 2v2zm4 4h-2l1-3 1-4 1-3 2 1-1 3-2 4v2zm10 3h-2l-2-6-1 2v3l-2-1 1-3 1-4v-2h1l3 1q2 1 1 3 0 2-2 2l2 5zm-1-7q0-2-2-3l-1 4h2l1-1zm9 7-1 2-5-1 1-4v-3l1-3 5 1-1 1-2-1h-1v4h3l-1 2-3-1v3h4zm15-7v2l-2-1h-1v9h-3l1-3v-6h-3v-2zm11 10h-3v-4h-4v4h-2v-10h2v4h4v-4h2v7l1 3zm9-2-1 2h-5v-7l-1-3 6-1-1 2h-3v3h4l-1 2-3-1 1 4h2l2-1zm17-1-2 1-5-4v1l1 3-2 1v-3l-1-5-1-3h4q2 0 2 2 1 2-1 3l5 4zm-5-6q-1-2-3-2l1 4 1-1 1-1zm8 5-2 1v-3l-1-5-1-2 2-1v3l1 5 1 2zm10-8v1l1 1v2l-3 2h-4l-3-3 1-5q1-2 3-2l3-1v2h-3l-2 2v3q0 2 2 2l2 1 2-1v-2l-1-2zm12 0-2 1-1-2-1-2-4 1 1 2 1 2-2 1-1-2-1-4-2-3 2-1 1 3 1 1 4-2-1-1-2-3h2l1 2 2 4 2 3zm3-14 1 1-2 1h-1l3 5 2 3-2 1-1-3-3-5-2 1-1 1v-1z" aria-label="DESIRE THE RIGHT" style="font-feature-settings:normal;font-variant-caps:normal;font-variant-ligatures:normal;font-variant-numeric:normal" transform="matrix(1.60215 -.01667 .01796 1.62571 271 -712)"/><g color="#000"><path fill="#faecbd" d="m29 554-3-3c-3-4-5-7-6-11a10 10 0 0 1 0-4c0-3 1-4 2-5l4-3h5l8 3 3 1v10a193 193 0 0 1-1 8l-2-2h-5c-2 1-3 2-4 5a9 9 0 0 0-1 2v-1z" style="isolation:auto;mix-blend-mode:normal;paint-order:markers stroke fill" transform="translate(764 -307) scale(1.31831)"/><g stroke-linejoin="round"><path fill="#ae4c33" d="m41 549-3-1v-1a1772 1772 0 0 0-1-18l5 3v1a321 321 0 0 0-1 16z" style="isolation:auto;mix-blend-mode:normal;paint-order:markers stroke fill" transform="translate(764 -307) scale(1.31831)"/><path fill="#dba35a" d="M34 548a3311 3311 0 0 0-3-20h3l2 1h1v18h1-1l-2 1h-1z" style="isolation:auto;mix-blend-mode:normal;paint-order:markers stroke fill" transform="translate(764 -307) scale(1.31831)"/><path fill="#e9be79" d="m28 554-7-11c-1-3-2-6-1-8 1-4 2-5 6-7a14 14 0 0 1 5 0 422 422 0 0 1 3 18v2h-1c-2 1-3 3-4 6v1l-1-1z" style="isolation:auto;mix-blend-mode:normal;paint-order:markers stroke fill" transform="translate(764 -307) scale(1.31831)"/></g></g><path fill="#012169" stroke="#500" stroke-linejoin="round" d="M1207 243a57 57 0 0 1-8-7c1-3 3-5 5-6 3-1 5-1 7 1l1 1v1a24 24 0 0 1-4 11l-1-1zm-17 18-2-6-1-4 1 1a80 80 0 0 0 8 7l-1 1a40 40 0 0 1-5 1z" color="#000" style="isolation:auto;mix-blend-mode:normal;paint-order:markers stroke fill" transform="translate(-779 113) scale(1.31831)"/><g color="#000"><path fill="#f9e7d9" d="m289 612-4-11 7 4v5l-1 1z" style="isolation:auto;mix-blend-mode:normal;paint-order:markers stroke fill" transform="matrix(-1.3183 0 0 1.3183 1393 -334)"/><path fill="#e6ba74" d="M573 674v2l6 7 2 7c0-1 4-4 6-4 2-1 5 1 5 3l-3 4c6-1 3-7 2-9l-3-5-2-9c-7-3-11 0-13 4z" style="isolation:auto;mix-blend-mode:normal;paint-order:markers stroke fill" transform="matrix(-1.5221 0 0 1.5916 1908 -630)"/><path fill="#f9e7d9" d="M9 562c-3 0-5 1-7 3l8 14-6-14c2-2 5-3 8-2v-1l-3-1z" style="isolation:auto;mix-blend-mode:normal;paint-order:markers stroke fill" transform="matrix(-1.3183 0 0 1.3183 1036 -306)"/><path fill="#c47645" d="M13 562a2627 2627 0 0 1 3 20c3 0 6 1 6 4 0 1-1 4-3 4 6-1 3-8 2-11l-3-5-2-11-3-1zm6 28-1 1 1-1z" style="isolation:auto;mix-blend-mode:normal;paint-order:markers stroke fill" transform="matrix(-1.3183 0 0 1.3183 1036 -306)"/><path fill="#ab1e2b" d="m13 562 5 20c2 0 4 2 4 4 0 1-1 4-3 4 6-1 3-8 2-11l-3-5-2-11-3-1z" style="isolation:auto;mix-blend-mode:normal;paint-order:markers stroke fill" transform="matrix(-1.3183 0 0 1.3183 1036 -306)"/><path fill="none" d="M573 674v2l6 7 2 7c0-1 4-4 6-4 2-1 5 1 5 3l-3 4c6-1 3-7 2-9l-3-5-2-9c-7-3-11 0-13 4z" style="isolation:auto;mix-blend-mode:normal;paint-order:markers stroke fill" transform="matrix(-1.5221 0 0 1.5916 1908 -630)"/></g><path fill="#012169" stroke="#500" stroke-linejoin="round" d="m1356 262 3-5 1-4v-1l-1 1a77 77 0 0 1-8 7l1 1a34 34 0 0 0 4 1z" color="#000" style="isolation:auto;mix-blend-mode:normal;paint-order:markers stroke fill" transform="translate(-779 113) scale(1.31831)"/><path fill="#2a7fff" fill-rule="evenodd" d="M899 442s-127-33-127-156l1-163h252l1 162c0 123-127 157-127 157z"/><path fill="#333" stroke="#333" stroke-width="3" d="m346 143-1-1s0-1 0 0l-1-1 1-2 2-2v-2a114 114 0 0 0 2-10c-1 0-2-3-4-3-3 0-4-4-4-5-2 0-5-1-8-4-3-2-3-3-4-6l-2-3-1-2v-3l-1-5v-6l1-5v-3l-2-1-2-5c0-4-1-7-4-7h-5c-5 0-7 1-7-1v-2l-1-2v-3a146 146 0 0 1 16-17l2-2 2-1h3l3-1 3 1 3 1 2 1 2 1 6 3 3 2a42 42 0 0 1 11 9l2 1 1 1h3a137 137 0 0 0 35 0l17-1 8 1c3 1 8 4 10 7a35 35 0 0 1 7 20c0 3-1 3-2 1l-1-2v4l1 5 1 2v7h-1l-1 2c0 2-1 5-3 7l-1 1 1 9 1 6-2 5-1 1v2l1 2-1 1h-6l1-2 2-7v-4l-4-7-3-3-1-1-1 2-2 2-1 2 1 4 1 2-1 2-2 3-2 4v3l1 2-1 1h-5l-1-1v-2l3-9 1-3-1-1-4-8h-1l-2-2-1-1-2 1-3 1h-2l-2 1c-1 1-1 2-2 1l-1-1-1 1h-4l-2 1-2-1h-12l-2-1h-2c-1-2-2-1-2 2l-2 2h-1l-1 1-1 2v3l-1 7v3l1 2 1 2-1 1-5 1-2-1-1-1 1-2c2-2 2-3 2-8l-1-9-1 2s-2 0-2 3c0 5-1 6-2 9l-1 2 1 2c1 2 1 2-1 3h-5z" color="#000" style="isolation:auto;mix-blend-mode:normal;paint-order:markers stroke fill" transform="translate(403 83) scale(1.31831)"/><g color="#000"><path fill="#c27e50" d="M68 61v3l-1 3h2v-6z" style="isolation:auto;mix-blend-mode:normal;paint-order:markers stroke fill" transform="translate(535 -59) scale(4.82918)"/><path fill="#ab612e" d="M261 232h-5l1 2 3 3v6l-1 5-1 5h1l2-5 1-5v-11z" style="isolation:auto;mix-blend-mode:normal;paint-order:markers stroke fill" transform="translate(535 -59) scale(1.27772)"/><path d="m67 67-1 1h3v-1z" style="isolation:auto;mix-blend-mode:normal;paint-order:markers stroke fill" transform="translate(535 -59) scale(4.82918)"/><path fill="#a1a1a1" d="m68 67-1 1h2-2z" style="isolation:auto;mix-blend-mode:normal;paint-order:markers stroke fill" transform="translate(535 -59) scale(4.82918)"/></g><g color="#000"><path fill="#acacac" d="m339 116 3 4 2 2 1 1 4 2h4l4-1 1-2 1-4v-10h-5l-5 1-5-1-2 3z" style="isolation:auto;mix-blend-mode:normal;paint-order:markers stroke fill" transform="translate(403 83) scale(1.31831)"/><g fill="#e2c773" stroke="#000" stroke-linejoin="round" stroke-width="0" style="paint-order:markers stroke fill"><path fill="#d7b5a0" stroke="#7d5035" stroke-width="1" d="m-239-8-3-4-4-7c-1-3-2-5-4-6-2-2-4-4-7-4a36 36 0 0 0-28 4l-6 6-3 3-6 5-5 6-2 2-2 3-1 2v3l1 6 2 2c6 0 12 1 12-3-1 3-7 6-12 3v2l1 3 9 2 8-2c2 0 10 0 13 4 3 3 7 12 6 15h33V-2z" style="isolation:auto;mix-blend-mode:normal;paint-order:markers stroke fill" transform="translate(1001 160) scale(.63366)"/><path fill="#d0a386" stroke="none" d="m-285-25-2 3-6 6c-3 3-6 4-4 6 3 1 2 2 2 3l2 5c1 3 7 4 7 4s4 1 5-1c0-2-2-5 1-5s4 2 6-1c2-2 1-6 4-8l3-3-6 1c-2 0-7-1-7-3l-1-8z" style="isolation:auto;mix-blend-mode:normal;paint-order:markers stroke fill" transform="translate(1001 160) scale(.63366)"/><path fill="#000" stroke="none" d="m-310 5 2-2 2 1h1V2l2 2c0 1-1 2-3 2-1 0-3 1-3 3l-1-4z" style="isolation:auto;mix-blend-mode:normal;paint-order:markers stroke fill" transform="translate(1001 160) scale(.63366)"/><g stroke="none"><path fill="#dec7b7" d="M-297-12c2 1 3 1 3 4v3l4 5v6l1 3s-2 0-3-2-1-1-3-2c-13 18-6-6-7-7l-3-2 8-8z" style="isolation:auto;mix-blend-mode:normal;paint-order:markers stroke fill" transform="translate(1001 160) scale(.63366)"/><path fill="#d0a386" d="m-263-7-3 4-8 2c-1 0-3-2-4 0l-2 5-4 3-2 4v5s2-4 4-4l4-1c3 0 5 0 7-2 1-2 4-3 6-3 2-1 4-1 5-4 1-2 2-2 1-4 0-2-4-5-4-5zm-13-15h4l3 2c0 1 0 2 2 2l2 1s1 2 2 1v-4l-1-4-3-1-2-1-3 1h-2l-2 3z" style="isolation:auto;mix-blend-mode:normal;paint-order:markers stroke fill" transform="translate(1001 160) scale(.63366)"/></g></g><path fill="#662900" d="m319 50 1-1h2l1 1 1 1h-1l-1 1h-2l-1-1v1l-1 1v1l-1-1v-1l1-1z" style="isolation:auto;mix-blend-mode:normal;paint-order:markers stroke fill" transform="translate(403 83) scale(1.31831)"/></g><g color="#000"><path fill="#c27e50" d="M70 62v5h2l-1-1a35 35 0 0 0 1-3l-1-1z" style="isolation:auto;mix-blend-mode:normal;paint-order:markers stroke fill" transform="translate(535 -59) scale(4.82918)"/><path fill="#ab612e" d="M70 63v1h1l1 1v-2l-1-2h-1v2z" style="isolation:auto;mix-blend-mode:normal;paint-order:markers stroke fill" transform="translate(535 -59) scale(4.82918)"/><path d="M70 67v1h2v-1z" style="isolation:auto;mix-blend-mode:normal;paint-order:markers stroke fill" transform="translate(535 -59) scale(4.82918)"/><path fill="#a1a1a1" d="m71 67-1 1h2-2z" style="isolation:auto;mix-blend-mode:normal;paint-order:markers stroke fill" transform="translate(535 -59) scale(4.82918)"/></g><g color="#000"><path fill="#c27e50" d="m84 59 1 3 1 2v3l1-1 1-1v-6z" style="isolation:auto;mix-blend-mode:normal;paint-order:markers stroke fill" transform="translate(535 -59) scale(4.82918)"/><path fill="#ab612e" d="m332 222-10 1 3 6 3 5 2 5 2 3 1-1v-1l-1-4v-14z" style="isolation:auto;mix-blend-mode:normal;paint-order:markers stroke fill" transform="translate(535 -59) scale(1.27772)"/><path d="M86 67v1h1v-2l-1 1-1 1h1z" style="isolation:auto;mix-blend-mode:normal;paint-order:markers stroke fill" transform="translate(535 -59) scale(4.82918)"/><path fill="#8a8a8a" d="M87 67v1h-1l1-1z" style="isolation:auto;mix-blend-mode:normal;paint-order:markers stroke fill" transform="translate(535 -59) scale(4.82918)"/></g><path fill="#acacac" d="m405 110 3 4 2 2 1 1 4 2h4l4-1 1-2 1-4v-10h-5l-5 1-5-1-2 3z" color="#000" style="isolation:auto;mix-blend-mode:normal;paint-order:markers stroke fill" transform="translate(403 83) scale(1.31831)"/><g color="#000"><path fill="#c27e50" d="m89 60 1 2 1 1v3h1v-1l1-1v-1l-1-2v-1h-1z" style="isolation:auto;mix-blend-mode:normal;paint-order:markers stroke fill" transform="translate(535 -59) scale(4.82918)"/><path fill="#ab612e" d="m89 60 2 1v3h2v-1l-1-1v-2l-1-1z" style="isolation:auto;mix-blend-mode:normal;paint-order:markers stroke fill" transform="translate(535 -59) scale(4.82918)"/><path d="M91 66v1h1v-1h-1l-1 1h1z" style="isolation:auto;mix-blend-mode:normal;paint-order:markers stroke fill" transform="translate(535 -59) scale(4.82918)"/><path fill="#8a8a8a" d="M92 66v1h-1 1z" style="isolation:auto;mix-blend-mode:normal;paint-order:markers stroke fill" transform="translate(535 -59) scale(4.82918)"/></g><g color="#000"><path fill="#c9c9c9" d="m316 46 3-2 2-2v-2h3l1-2 2 1 1-1h5l2 1 3 1 1 1 3 1 2 1h1l3 3a52 52 0 0 0 5 2 198 198 0 0 0 6 5l1 2 2 1 1 2h33l20-2 12 1 11 8 3 6 3 7c1 7-1 12-2 7-1 1-3-6-2-6l-1-4 1 7 1 4-1 3v-2 3l3 4v2h-1v6h-2v5l-1 3-3 1v4h-3l-2 1-2-1h-2l-3-1-2 1h-2l-3-3h-4l-2 1-2-1-3 1-1 1-3 1h-2l-2 1-2 2-2-2-1 1h-3l-2 1h-4l-2-1-2 1-4-1h-1l-3-1-2 1h-1l-1-1-1-1v1c1 1 0 0-1 1l1 1c0 1 0 2-2 2h-1l-1 1-2 1v2l-2 1-2-1-1-2-3-1-2-3h-6l-8-1-5-4-4-4-1-3-1-2-2-3v-6l-1-3 1-5 1-2-1-3v-2l-2-3-1-2v-3l-1-3v-1l5-3h4c2-1 3-3 3-5s-3-3-4-4v-7l-1-2-2-2-4-1z" style="isolation:auto;mix-blend-mode:normal;paint-order:markers stroke fill" transform="translate(403 83) scale(1.31831)"/><path fill="#acacac" d="M328 92h6l4-1-2 2-3 2h2c2-1 5-2 2 0l-3 4-1 3h3l-3 2-2 3s-2-1-2-5l-1-8v-2z" style="isolation:auto;mix-blend-mode:normal;paint-order:markers stroke fill" transform="translate(403 83) scale(1.31831)"/><path fill="#959595" d="m330 105-1-1h-2l1 2 1 3 4 4 5 4 8 1h3v-2l-3-3-3-3c-1-2-4-1-4-1l-5-1-1-2c-1-1-2 2-3-1z" style="isolation:auto;mix-blend-mode:normal;paint-order:markers stroke fill" transform="translate(403 83) scale(1.31831)"/></g><path fill="#e5e5e5" d="m836 134-2 3-3 1-3 2h5l4 3 3 7-2-7 6 2v4l-3 5c0 2 5 5 5 5v-4l6-4 5-3 3 2 4 6-1 2-8 10c-1 6-10 2-4-2l6-7c-4 1-9 1-12 3l-15 10h4c7-1 3 5-2 4-6 0 1 3 4 2 4 0 12 0 6 5 7 3 13-3 18-6 2 2-5 7-7 9-4 5-9 5-14 4-2 3 3 2 5 2 0 4-15 2-9 8 6 1 13 1 18-1 5-1 1 2 0 4 2 3 8-3 12-3 2 5-8 6-11 9 3 0 14 0 18-5 4-4 6 2 2 5s-10 7-16 7c-7-5-6 4-11 7 9 1 1 3 4 5 7 1 11-7 17-3 5 5 1-9 5-6-1-7 7-5 7 0 1 5 4 3 3-1 1-3 0-6-2-9-2-5 8-3 6 2 2 9 1-9 4-6 4 5 2 13 7 16 4-2 8 5 11 2 4-5 0-12 1-18 3-4 4 3 3 6v14c2-1 4-7 4-10 1-4-2-12 5-10 0 4 2 7 5 10 5 5-1-9 4-5 2 2 6 13 5 7 2-6-1-11-1-17 3-1 6 6 6 9 3 0-3-10-1-10 5 3 8 8 10 14 3 7 0-4-1-6l9 16-2-11c-1-8 4-1 6 3 4 4 5 9 8 15 1 4 1 0 3-2 4-5-1-11-1-17 1-6 3 4 3 6 3 1 4 11 4 7l1-2v-9c9 8 5-12-1-24-3-5 2 0 2 3 5 1-1-10 3-8 3 7 1-4 0-6-4-4-8-12-15-12v1l2 1h-1 1l6 8c2 7-6-2-8-1 3 5-2 2-4 0-4-4-6-11-11-12-3 2 5 6 7 9 1 1 6 10 3 9l-1-1-12-9c-4-6-1 1 2 3 0 3 5 13-1 10-5-4-7-11-11-17-1 1 2 9 1 13 1 7-3 1-4-2-4-2-2-11-6-10-1 4-1 0-3-2l-1 12c1 8-3-1-4-4 0-4-2-4-3 0 0 9-5-1-5-4 2-5-7-9-6-3 2 5 3 12 0 17 1-6-6-10-5-17-2-6-4-1-4 2 0 6-2 10-5 14-4 5-3-2-4-4-2-9 0 4-3 6-2-3-2-10-2-15 2-6-2 1-3 1v1c-3 8-3-2-3-6-1-4-1 0-1 2-1 2-1 14-4 8-2-2-1-12-2-7 0 8-5-2-3-6 0-6 0 2-1 3-3-3-2-7-1-11l-2 1-1-2v-5h-3l-4-1-8-6-2-2-1 2s-3-1-4-4c-2-3-2-1-2-1s-3 3-4 1l-2-4zm127 46 2 1-2-1zm8-12zm9 54-1 3 1-3zm-123-63c1-1 3-2 3-5l-3 5z"/><g color="#000"><path fill="#2c1c12" d="M334 56v-4c0-1 2-3 4-3s6 0 7 2 1 3-2 4c-2 1-4 4-6 4l-3-3z" style="isolation:auto;mix-blend-mode:normal;paint-order:markers stroke fill" transform="translate(403 83) scale(1.31831)"/><path fill="#d6b39d" d="M334 56v-4c0-2 2-3 4-3s6 0 7 2c0 2 1 3-2 4l-6 4-3-3z" style="isolation:auto;mix-blend-mode:normal;paint-order:markers stroke fill" transform="translate(403 83) scale(1.31831)"/><path fill="#181818" d="m336 55 1 1 5-3c1-2-6-3-6 2z" style="isolation:auto;mix-blend-mode:normal;paint-order:markers stroke fill" transform="translate(403 83) scale(1.31831)"/></g><path fill-rule="evenodd" d="m228 162-1 1h-1v1l-1 1-1 1 1-1 1-1h1l-1-1 2 2 2-2-2-1z" style="paint-order:markers stroke fill" transform="translate(535 -59) scale(1.27772)"/><g color="#000"><path fill="#794d2f" d="M-1037-72a13 11 0 0 0-11 6l-1 1-1 2c6 2 19 2 26 1l-1-2v-1l-1-1a13 11 0 0 0-11-6z" style="isolation:auto;mix-blend-mode:normal;paint-order:markers stroke fill" transform="translate(1001 160) scale(.16766)"/><path d="M-276-16v1h3v-1h-3z" style="isolation:auto;mix-blend-mode:normal;paint-order:markers stroke fill" transform="translate(1001 160) scale(.63366)"/><path fill="#e6c74d" d="m228 165-1-1-1-1h1a12 12 0 0 0 3 0v1l-2 1zm1-1v-1h-2v1h2z" style="isolation:auto;mix-blend-mode:normal;paint-order:markers stroke fill" transform="translate(535 -59) scale(1.27772)"/></g><g color="#000"><path fill="#d4d4d4" d="M309 67h-3v-3 1h2l1-1a4 4 0 0 1-4 0l-1-1 1-1 1-1 1-1v-1 1h-1l-1-1v1a20 20 0 0 0-1 0v-1l2-3h2v1l1 1 1 1h1l1 1 2 1v6h-5z" style="isolation:auto;mix-blend-mode:normal;paint-order:markers stroke fill" transform="translate(403 83) scale(1.31831)"/><path fill="#c99472" d="m334 54 3-4h5l1 2-2-1-4 1-3 2z" style="isolation:auto;mix-blend-mode:normal;paint-order:markers stroke fill" transform="translate(403 83) scale(1.31831)"/><path fill="#acacac" d="M324 75h6l1 1 2 2h6s-1 2-3 2h-6l-3 2 1 1h-2l1-4-2-2zm30-21 1 3 1 2v1h2l1 3s0-4 2-4c2 1 1-1 2 1l2 5s-2-2 1-3l4 1-1 2v3l1-2c1 0 1-1 2 2l1 3 1-3v-5c1-2 2-4 4-3s2-1 3 4l2 5-1-4v-5l-3-1-6 1-5-1-8-2-5-2zm33 6h12c5 0 6-2 8-2h7c3 0 3-2 9-1l7 3 5 3 4 4-5-4-7-2s-1-1-1 1l2 3 4 3 2 2-4-3h-2v3l-3-4-2-4-4-2s-5-2-5 0l2 3 4 4c3 4 3 5 1 3l-3-4c-1-2-2-3-4-3-1 0-1-2-1 0v2l1 4 3 6-3-2-2-6-2-4h-3l-1 1v2l1 5c0 3 0 1-1-1l-2-5-1-3-2 1-1-1h-2l-1 4v6l-1-4-1-4-3 2v2l-1-3-4-5z" style="isolation:auto;mix-blend-mode:normal;paint-order:markers stroke fill" transform="translate(403 83) scale(1.31831)"/><path fill="#c9c9c9" d="m379 76-1 6v7l2 11c0 2 0 5 0 0 1-6-1-9-1-10V75zm9-4-1 6v7l1 8v3-21zm7 4v9l1 8 1 5s2-2 0-6-2-8-2-10v-6zm7-6v17-4l1-5-1-2v-3zm9 5v7c0 2-1 2 1 5l3 5 2 6-1-7-3-5-1-3-1-8zm10 1 1 6 1 6 2 6 2 4 2 6 1-2-2-6-3-6-2-4-1-6v-2zm-56-4-1 6 1 8 1 4 1 3-1-9-1-5v-7zm-26-1 6-2 4-5 2-4-1 5c-2 3 1 2-3 3l-4 2-4 1zm-1 12c2-1 6-1 7-3l3-4 3-3 3-4-2 5s-2-1-3 2l-1 4-2 1-6 2zm10 4c2 0 3-1 5-4l3-5 3-4-1 4-3 2v2l-1 2-2 2-2 1zm79-11 2 6 4 7 2 7v-4l-1-4-2-5-2-3-3-4zm3-2h2l3 1 3 3v1l-2-2-3-2-2-1z" style="isolation:auto;mix-blend-mode:normal;paint-order:markers stroke fill" transform="translate(403 83) scale(1.31831)"/><path fill="#acacac" d="M345 111c2 0 2 2 6 2s7-2 7-3l1-5 2 4c1 0 2 2 3 0l2-3c0-1 0-4 1-3l2 5s0-4 1-3l2 4 2-4 4 3 4 1c2 1 0-2 3-2l2 3c2 1 2-1 2-1l3-3c1-1 0-7 1-3l4 4 1 1 3-1h2l2-2 2-2s0-2 3-2c2-1 3 5 4 5 2 0-2-6 1-4l3 5c7 10 1 2 2 2l2 2v5c-2 0-2-2-2-2s-4-4-6-4-3-2-7 0l-6 2-6 2-7 1h-4c-4 1-8 2-11 1h-3c-1-2 1-2 1-3l-5 1c-2 3 0 3-2 4l-4 4-2-2c-2-3 1-1-3-2l-4-2-2-1z" style="isolation:auto;mix-blend-mode:normal;paint-order:markers stroke fill" transform="translate(403 83) scale(1.31831)"/><path fill="#959595" d="M413 98v3h-4c-3 1-2 3-2 3l-2 3-1 1-4 1-4-1-2-2-3 2-4 3-2-3-1 2-3-1h-3l-4-3-1 4c0 3-2 3-3 6l-1 1h4l3 1 1-1 4 1 2-1 2 1h4l2-1 3 1 1-2 2 2 2-2h5l2-1 1-1 3-1 2 1 2-1h4l2 2h2c0-1-4-2-5-5l-2-5c-2-3-2-7-2-7zm-57 16 3-1c0-1 0-2 1-1l1 1 3-1-3 3-1 2-1-2-3-1z" style="isolation:auto;mix-blend-mode:normal;paint-order:markers stroke fill" transform="translate(403 83) scale(1.31831)"/><path d="M307 65h-1a2 2 0 0 1 0-1 5 5 0 0 0 3 0l-1 1h-1z" style="isolation:auto;mix-blend-mode:normal;paint-order:markers stroke fill" transform="translate(403 83) scale(1.31831)"/><path fill="#959595" d="m444 94-2 1 1 4-3 2-1 4-1 4-3 3 1 3h1v-4l3-1 1-3v-5h2v-6h1v-2z" style="isolation:auto;mix-blend-mode:normal;paint-order:markers stroke fill" transform="translate(403 83) scale(1.31831)"/><path fill="#e5e5e5" d="m344 108 5 3 2 3 4 3 4 1c1 1 0 2 2 1l1-2 3-3 1-3v-3l-4-7-2-3-4 2-4 3-4 3-4 2z" style="isolation:auto;mix-blend-mode:normal;paint-order:markers stroke fill" transform="translate(403 83) scale(1.31831)"/><path fill="#c9c9c9" d="m346 106 4-1h4l5-1 4-4-3 4c-2 2-3 2-5 2l-4-1-7 1zm4 3 4 1 5-1 3-2-2 2-3 1h-4l-3-1zm5 5h3l4-2 2-1-3 2-4 1z" style="isolation:auto;mix-blend-mode:normal;paint-order:markers stroke fill" transform="translate(403 83) scale(1.31831)"/></g><g color="#000"><path fill="#3d6c1e" d="M35 37h2l-1-3 2 2-1-3 1 2 1-2v2l1-2 1 3v-2l1 2 1-1v1l1-1v1l2-2-1 2 3-2v1l2-2v2l2-2-1 2 2-1v1l3-2-2 2 3-1-1 1h2v-1l1 1v-2l1 2 1-2v2l2-1v1l2-1-1 1 2-1-1 1 4-2-2 2h3l-3 1 3 2v2H35z" style="isolation:auto;mix-blend-mode:normal;paint-order:markers stroke fill" transform="translate(656 92) scale(4.82918)"/><path fill="#294814" d="M38 37h1v-1h1l-1-1h1v1h3v1l1-1v1h1v-1h1v1h1v-1h1l1-1 1 1h1c1 1 1-1 1-1l3 3-1-1h1l-1-1h1v-1l1 1h1s0-1 0 0h2v-1 1h1l1-1 1 1v-1h1v1h1l1-1h2v1l1 1v3h-9l-13-1h-8v-1h1z" style="isolation:auto;mix-blend-mode:normal;paint-order:markers stroke fill" transform="translate(656 92) scale(4.82918)"/><path fill="#98b432" d="m40 37 1 3 1 1h3v-1h-1v-1h-1v-1h-1v-1 1l-1-1v1zm16 0v1h-1l1 2 1 1h3-1l1-1v-1h-1v-1l-1 1v-1h-1v-1 1-1h-1zm4 2 2 1 2-1v-2h-2v1l-1-1v1h-1 1z" style="isolation:auto;mix-blend-mode:normal;paint-order:markers stroke fill" transform="translate(656 92) scale(4.82918)"/><path fill="#3d6c1e" d="M37 35v1l1 1h-1 1l-1-1v-1z" style="isolation:auto;mix-blend-mode:normal;paint-order:markers stroke fill" transform="translate(656 92) scale(4.82918)"/><path fill="#98b432" d="M37 35v1l1 1-1-1v-1zm0-1 1 1v1zm2-1-1 1 1 1zm1 1v1-1zm1 0v2-2zm2 1v1-1zm1 0v1-1zm2-1v1l-1 1v1-2h1zm2 0v1h-1v1l-1 1v-1h1v-1l1-1zm2 0-1 1h-1 1l1-1zm2-1v1h-1v1h-1 1v-1zm1 1v1h-1l1-1zm3-1v1h-1v1h-1l-1 1 1-1h1v-1l1-1zm1 1h-1v1-1h1zm1 0v1-1zm2 0h-1v1h1v1-2zm1 0h-1v1-1h1zm2 0v1h-1l1-1zm1 0v1-1zm2 0v1h-1 1v-1c0-1 0 0 0 0zm3-1-1 1v1h-1l1-1 1-1zm1 2h-2l-1 1h1l1-1h1z" style="isolation:auto;mix-blend-mode:normal;paint-order:markers stroke fill" transform="translate(656 92) scale(4.82918)"/></g><path fill="#fff" fill-rule="evenodd" d="M814 267c-18 0-24 16-42 16v32c3-1 30-16 42-16s30 16 42 16 30-16 42-16 35 16 49 16c18 0 26-16 42-16 12 0 26 15 36 16l1-30v-2c-6 0-19-16-37-16s-30 16-46 15c-16 0-27-15-45-15s-24 16-42 16-24-16-42-16zm0 65c-12 0-32 17-34 17l16 25s5-3 18-5c12-2 25 11 39 14 15 2 33-14 45-14s28 17 44 14 22-20 37-20c15 1 21 6 21 6l18-21s-18-14-33-15-21 15-39 15c-24 0-30-16-48-16s-24 16-42 16-29-16-42-16zm86 74h-2c-18 0-25 16-50 16 0 1 44 21 50 21 7 0 61-23 50-21-24 0-31-16-48-16z"/><path fill="#280b0b" stroke="#280b0b" d="M371 258c-12-3-21-9-28-19-3-5-6-11-6-16-1-2-1-2-4-2l-3-1-2-2v-2l-1-2-4-3-4-2v10l-1-2-2-9-10-4-12-8a143 143 0 0 1 22 10l-1-4v-5l2 4 1 5 20 10a192 192 0 0 1 9 3 48 48 0 0 0 0-14l-1-2-1-1-2 1c-1 1-3 1-4-1h-2l-2-1 2-1 2-1-1-2c-3-3-4-5-4-9l1-5 1-3-1-1 10-3 2-2-1-3-2-1-1 1h-4c-2-2-2-2 4-4l4-1v-1c0-2-1-3-4-4-1-1-2 0-4 1h-5c-2-2-3-3-5-2-3 0-3 0 0-1l5-1 5-1h8v-1h-1l3-1h2v10l3-1 4-1 1 1v1l-1 1c-1 2-3 2-4 1 0 0-4 4-4 6l1 1a533 533 0 0 1 11 0l-2 4-2 6c0 3 1 6 4 9l1 1-2 1-2 2c0 2-2 3-4 2l-2 2-2 2v17c-1 2 0 2 1 4a32 32 0 0 0 14 11h3a29 29 0 0 1 5 2h2l-1-30-1-5c-1-2-1-2-2-1h-7l-1-1c-1-1 0-1 1-1h1l-2-6-1-8 1-7c2-3 2-4 1-4 0 1 0 0 0 0l1-2 5-1 4-1v-3l-2-1h-6c-2-2-1-3 5-4l3-2c0-2 0-2-2-3-4-2-5-2-8 0-2 1-3 1-6-1-2-2-2-2-5-2h-2l2-1h6l5-1c3-2 5-2 8-1h2c-1-1 0-1 2-1h2v10l4-1 5-1s-1 4-3 5h-5l-1 4v2l6-2 7-1v1l-5 11 1 6 3 8h1l-1 2-1 1-2 3c-2 2-3 2-5 1h-2l-1 3-1 18v17h2a28 28 0 0 0 11-2l1-1h1l1-1 8-4 1-6-1-16 1-3-1-1-1-1h-6l-3-1-2-1 2-1c2 0 2 0 0-5l-1-6v-6l1-4c1 0 1 0 0 0l-2-1 7-2 6-2v-2l-1-1-2-1-1-1-2 1c-2 0-4-2-4-3l5-1 4-2 1-1c0-2 0-2-2-3h-4c-2 1-3 1-4-1l-3-1-2 1 2-1 3-1h3l4-1h2v-1h4v8l8-2 1 1-3 4-3 1-2 2-1 4 11-3c1-1 1 1-1 4-3 8-4 10-1 16l2 3 1 1-2 2-2 2-5 3c-1-1-1 0-2 1l-1 1v14c0 9 0 9 1 8l1-1v-1l1-1v-2h1l1-2-1-2v-2l-1-1 1-2 13-3h2v-4l-1-4h-3l-3-1h-2l-1-1h3l3-1h5v5c0 6-1 6 6 4l7-1 2 1-1 2c-2 2-2 11-1 12l1 3h-13l-1 4c-4 11-13 22-24 27-3 2-8 4-12 4-4 1-15 2-20 1zm-26-60 2-2v-2l-5 4c-1 1-1 1 0 0h3zm27-1 3-1v-3l-7 4h4zm28 0 4-2-1-2-6 4h3zm-44-2 4-2h-10v1c0 2 1 2 6 1zm32-2c2-1 0-1-5-1h-4v3l4-1 5-1zm24 1 4-1h-9v2l5-1z" color="#000" style="isolation:auto;mix-blend-mode:normal;paint-order:markers stroke fill" transform="translate(403 83) scale(1.31831)"/><path fill="#fff" fill-rule="evenodd" stroke="#000" d="M901 444s-132-29-131-152V118h258l2 173c1 123-129 153-129 153zm0-5s-127-30-126-153l1-163h247l2 162c0 123-124 154-124 154z"/><g fill="none" stroke-linecap="round" stroke-linejoin="round"><g stroke-width="0"><path d="m413 472 8-27 2-5m-6 30 6-30m-3 28 3-23v-5" style="paint-order:markers stroke fill" transform="matrix(1.48121 0 0 1.55817 311 -343)"/><path d="m405 325 5 1m-4-5 4 1m-3-4h4m-3-4h3" style="paint-order:markers stroke fill" transform="matrix(1.48121 0 0 1.55817 327 -129)"/><path d="m420 447 3 1" style="paint-order:markers stroke fill" transform="matrix(1.48121 0 0 1.55817 311 -343)"/><path d="m406 323 4 1m-3-4h4m-3-4h3m-2-4 3 1" style="paint-order:markers stroke fill" transform="matrix(1.48121 0 0 1.55817 327 -129)"/></g><path d="m405 327 5 1m-6 1 5 1" style="paint-order:markers stroke fill" transform="matrix(1.48121 0 0 1.55817 327 -129)"/></g><g fill="none" stroke-linecap="round" stroke-linejoin="round"><path d="m422 502 10 6 2 6" style="paint-order:markers stroke fill" transform="matrix(1.48121 0 0 1.54883 312 -491)"/><g stroke-width="0" style="paint-order:markers stroke fill"><path d="m414 468 7-23 2-5m-6 29 6-29m-4 29 4-24v-5" style="paint-order:markers stroke fill" transform="matrix(1.8014 0 0 1.895 138 -491)"/><path d="m405 325 5 1m-4-5 4 1m-3-4h4m-3-4h3" style="paint-order:markers stroke fill" transform="matrix(1.8014 0 0 1.895 157 -231)"/><path d="m420 447 3 1" style="paint-order:markers stroke fill" transform="matrix(1.8014 0 0 1.895 138 -491)"/><path d="m406 323 4 1m-3-4h4m-3-4h3m-2-4 3 1m-7 14 5 1m-6 1 5 1" style="paint-order:markers stroke fill" transform="matrix(1.8014 0 0 1.895 157 -231)"/></g><g stroke-width="0"><path d="M344 547c12-14 20-28 28-43" style="paint-order:markers stroke fill" transform="matrix(1.48121 0 0 1.54883 312 -491)"/><path d="m327 539 37-25c6-5 8-11 8-11m1 1 9 6 1 6m57 31-34-42-9-6-7 10" style="paint-order:markers stroke fill" transform="matrix(1.48121 0 0 1.54883 312 -491)"/></g><g style="paint-order:markers stroke fill"><path d="m414 471 7-27 2-4m-7 32 6-28 1-4m-4 31 5-26-1-5m-9 27 6 1" style="paint-order:markers stroke fill" transform="matrix(1.25475 0 0 1.21478 331 -190)"/><path d="m380 326 5 1m-4-5h5m-4-4h5m-3-4h3" style="paint-order:markers stroke fill" transform="matrix(1.25475 0 0 1.1691 376 -8)"/><path d="m420 447 4 1" style="paint-order:markers stroke fill" transform="matrix(1.25475 0 0 1.21478 331 -190)"/><path d="M384 312h4m-5 4h4m-5 4h4" style="paint-order:markers stroke fill" transform="matrix(1.25475 0 0 1.1691 376 -8)"/></g></g><g color="#000"><path fill="#fff" stroke="#512007" stroke-linecap="round" stroke-linejoin="round" d="m388 263-6-1-6 2-5-1-4 2 4-1 5 4 6-2 6 2z" style="isolation:auto;mix-blend-mode:normal;paint-order:markers stroke fill" transform="matrix(.8932 0 0 .93398 589 43)"/><path fill="#a00" d="M65 496v2l-6 3-6-2-5 1 4-1c3 1 4 3 7 3l6-2v2h2v-2l6 2v-2l-6-2v-2h-2z" style="isolation:auto;mix-blend-mode:normal;paint-order:markers stroke fill" transform="translate(884 -63) scale(.70632)"/><g transform="matrix(1.48121 0 0 1.54883 324 -124)"><path fill="#dd8b59" stroke="#512007" stroke-linecap="round" stroke-linejoin="round" d="M388 262h2v73h-2z" style="isolation:auto;mix-blend-mode:normal;paint-order:markers stroke fill"/><path fill="#e6ab87" d="M388 262h2v73h-2z" style="isolation:auto;mix-blend-mode:normal;paint-order:markers stroke fill"/><path fill="#efc9b2" d="M389 262h1v73h-1z" style="isolation:auto;mix-blend-mode:normal;paint-order:markers stroke fill"/><rect width="4" height="1" x="387" y="261" fill="#dd8b59" stroke="#512007" stroke-linecap="round" stroke-linejoin="round" rx="0" ry="0" style="isolation:auto;mix-blend-mode:normal;paint-order:markers stroke fill"/></g><g transform="matrix(1.48121 0 0 1.54883 324 -124)"><path fill="#dd8b59" stroke="#512007" stroke-linecap="round" stroke-linejoin="round" d="M363 267h2v73h-2z" style="isolation:auto;mix-blend-mode:normal;paint-order:markers stroke fill"/><rect width="4" height="1" x="362" y="266" fill="#dd8b59" stroke="#512007" stroke-linecap="round" stroke-linejoin="round" rx="0" ry="0" style="isolation:auto;mix-blend-mode:normal;paint-order:markers stroke fill"/><path fill="#e6ab87" d="M364 267h1v73h-1z" style="isolation:auto;mix-blend-mode:normal;paint-order:markers stroke fill"/><path fill="#efc9b2" d="M364 267h1v73h-1z" style="isolation:auto;mix-blend-mode:normal;paint-order:markers stroke fill"/></g><g fill="#dd8b59" stroke="#512007" stroke-linecap="round" stroke-linejoin="round" transform="matrix(1.48121 0 0 1.54883 324 -124)"><path d="M413 266h2v73h-2z" style="isolation:auto;mix-blend-mode:normal;paint-order:markers stroke fill"/><rect width="4" height="1" x="412" y="265" rx="0" ry="0" style="isolation:auto;mix-blend-mode:normal;paint-order:markers stroke fill"/></g></g><path fill="#e6ab87" d="M413 266h2v73h-2z" color="#000" style="isolation:auto;mix-blend-mode:normal;paint-order:markers stroke fill" transform="matrix(1.48121 0 0 1.54883 324 -124)"/><path fill="none" d="m332 541 11-2 16 15-13 2z" style="paint-order:markers stroke fill" transform="matrix(1.48121 0 0 1.54883 312 -491)"/><path fill="#efc9b2" d="M414 266h1v73h-1z" color="#000" style="isolation:auto;mix-blend-mode:normal;paint-order:markers stroke fill" transform="matrix(1.48121 0 0 1.54883 324 -124)"/><g fill="none" stroke-linecap="round" stroke-linejoin="round" style="paint-order:markers stroke fill"><path d="m414 471 7-27 2-4m-7 32 6-28 1-4m-4 31 5-26-1-5m-9 27 6 1" style="paint-order:markers stroke fill" transform="matrix(-1.25475 0 0 1.21478 1469 -192)"/><path d="m380 326 5 1m-4-5h5m-4-4h5m-3-4h3" style="paint-order:markers stroke fill" transform="matrix(-1.25475 0 0 1.1691 1425 -10)"/><path d="m420 447 4 1" style="paint-order:markers stroke fill" transform="matrix(-1.25475 0 0 1.21478 1469 -192)"/><path d="M384 312h4m-5 4h4m-5 4h4m-5 4 5 1" style="paint-order:markers stroke fill" transform="matrix(-1.25475 0 0 1.1691 1425 -10)"/></g><path fill="#e98e01" fill-rule="evenodd" stroke="#512007" stroke-linecap="round" stroke-linejoin="round" d="M453 557v-7l1-4-25 4-1 7z" style="paint-order:markers stroke fill" transform="matrix(1.48121 0 0 1.54883 312 -491)"/><path fill="#e9b001" fill-rule="evenodd" stroke="#512007" stroke-linecap="round" stroke-linejoin="round" d="M440 312v7h3v-7zm-5 1v6h3v-6zm-4 6v-5l3-1v6zm-5 0v-4l3-1v5zm-5 0 1-4h3v4z" style="paint-order:markers stroke fill" transform="matrix(1.48121 0 0 1.54883 324 -124)"/><g fill-rule="evenodd" stroke="#512007" stroke-linecap="round" stroke-linejoin="round"><path fill="#dd8b59" d="m342 538 4 19 1-1-4-18h-1z" style="paint-order:markers stroke fill" transform="matrix(1.48121 0 0 1.54883 312 -491)"/><path fill="#dd8b59" d="m323 304 25 11v1l-25-11-8-5 8 4z" style="paint-order:markers stroke fill" transform="matrix(1.48121 0 0 1.54883 324 -124)"/><path fill="#fec618" d="M362 523s-3 3-2 8 4 9 4 9c1 0 4-4 8-5h12s-4-5-4-9c1-5 5-8 5-8l-23 5z" style="paint-order:markers stroke fill" transform="matrix(1.48121 0 0 1.54883 312 -491)"/></g><path fill="none" d="m453 545-18-29" style="paint-order:markers stroke fill" transform="matrix(1.48121 0 0 1.54883 312 -491)"/><path fill="#fec618" fill-rule="evenodd" stroke="#512007" stroke-linecap="round" stroke-linejoin="round" d="M388 518c0 1-4 5-3 10 0 4 3 11 3 11s5-5 9-5h12l-3-11c0-3 5-11 5-11z" style="paint-order:markers stroke fill" transform="matrix(1.48121 0 0 1.54883 312 -491)"/><g color="#000"><path fill="#fed65b" d="m400 281-22 5-1 3v5l21-5v-3l2-5z" style="isolation:auto;mix-blend-mode:normal;paint-order:markers stroke fill" transform="matrix(1.48121 0 0 1.54883 324 -124)"/><path fill="#fedf82" d="m399 283-22 5v5l21-5v-2l1-3z" style="isolation:auto;mix-blend-mode:normal;paint-order:markers stroke fill" transform="matrix(1.48121 0 0 1.54883 324 -124)"/></g><g transform="matrix(1.4716 -.1685 .1762 1.53877 277 -56)"><use xlink:href="#a" width="100%" height="100%" stroke-linecap="round" stroke-linejoin="round" transform="matrix(.99572 .08841 -.09667 .99572 28 -28)"/><path fill="red" stroke="#512007" d="m120 166-1-1h-1l1-1-1-2 1 1 1-2v2h2l-1 1 1 1h-2z" color="#000" style="isolation:auto;mix-blend-mode:normal;paint-order:markers stroke fill" transform="matrix(.67942 -.0362 .03785 .64976 306 185)"/><path fill="red" stroke="#512007" d="m120 166-1-1h-1l1-1-1-2 1 1 1-2v2h2l-1 1 1 1h-2z" color="#000" style="isolation:auto;mix-blend-mode:normal;paint-order:markers stroke fill" transform="matrix(.67942 -.0362 .03785 .64976 295 186)"/></g><g fill="none" stroke-linecap="round" stroke-linejoin="round" stroke-width="0"><path d="M414 540s3 9 6 13l8 4" style="paint-order:markers stroke fill" transform="matrix(1.48121 0 0 1.54883 312 -491)"/><path d="M390 440s4 18 11 23l13 8" style="paint-order:markers stroke fill" transform="matrix(1.48121 0 0 1.54883 308 -337)"/><path d="M390 441s8 13 15 18l15 9m-54-28c2 3 2 10 4 12l6 8m-9-20 6 13 17 17" style="paint-order:markers stroke fill" transform="matrix(1.48121 0 0 1.54883 308 -337)"/></g><path fill="#e96a01" fill-rule="evenodd" stroke="#512007" stroke-linecap="round" stroke-linejoin="round" d="m428 551 27-4v-3l-27 5z" style="paint-order:markers stroke fill" transform="matrix(1.48121 0 0 1.54883 312 -491)"/><g stroke="#512007" color="#000" transform="matrix(1.48121 0 0 1.54883 324 -124)"><path id="a" fill="red" fill-opacity="1" stroke="#512007" stroke-opacity="1" stroke-width="1" d="m120 166-1-1h-1l1-1-1-2 1 1 1-2v2h2l-1 1 1 1h-2z" color-rendering="auto" image-rendering="auto" shape-rendering="auto" style="isolation:auto;mix-blend-mode:normal;paint-order:markers stroke fill" transform="matrix(.673 -.09611 .1005 .64363 292 188)"/><path fill="red" d="m120 166-1-1h-1l1-1-1-2 1 1 1-2v2h2l-1 1 1 1h-2z" style="isolation:auto;mix-blend-mode:normal;paint-order:markers stroke fill" transform="matrix(.66993 -.11412 .11932 .64068 289 200)"/><rect width="4" height="1" x="412" y="265" fill="#dd8b59" stroke-linecap="round" stroke-linejoin="round" rx="0" ry="0" style="isolation:auto;mix-blend-mode:normal;paint-order:markers stroke fill"/></g><g stroke="#512007" stroke-linecap="round" stroke-linejoin="round"><path fill="#fec618" fill-rule="evenodd" d="m405 276 3 1 2-1s1 3 5 2l3-4 1 1c3 0 5-4 4-4l-18 5z" style="paint-order:markers stroke fill" transform="matrix(1.48121 0 0 1.54883 324 -124)"/><path fill="#dd8b59" d="M315 367h20v1h-20z" color="#000" style="isolation:auto;mix-blend-mode:normal;paint-order:markers stroke fill" transform="matrix(1.43443 -.3862 .4014 1.49088 324 -124)"/><path fill="#fec618" fill-rule="evenodd" d="M380 274s1 2 3 1l1-2s2 3 4 2c3 0 4-3 4-3s1 2 4 1c2-1 3-4 2-4l-18 5z" style="paint-order:markers stroke fill" transform="matrix(1.48121 0 0 1.54883 324 -124)"/><path fill="#dd8b59" d="M291 359h20v1h-20z" color="#000" style="isolation:auto;mix-blend-mode:normal;paint-order:markers stroke fill" transform="matrix(1.43443 -.3862 .4014 1.49088 324 -124)"/><path fill="#fec618" fill-rule="evenodd" d="M355 278s0 2 2 2c3-1 3-3 3-3s1 3 4 3c3-1 5-5 5-5l2 1c2 0 2-3 2-3l-18 5z" style="paint-order:markers stroke fill" transform="matrix(1.48121 0 0 1.54883 324 -124)"/><path fill="#dd8b59" d="M266 357h20v1h-20z" color="#000" style="isolation:auto;mix-blend-mode:normal;paint-order:markers stroke fill" transform="matrix(1.43443 -.3862 .4014 1.49088 324 -124)"/></g><g color="#000"><path fill="#fff" stroke="#512007" stroke-linecap="round" stroke-linejoin="round" d="m388 263-6-1-6 2-5-1-4 2 4-1 5 4 6-2 6 2z" style="isolation:auto;mix-blend-mode:normal;paint-order:markers stroke fill" transform="matrix(1.48121 0 0 1.54883 324 -124)"/><path fill="#a00" d="M65 496v2l-6 3-6-2-5 1 4-1c3 1 4 3 7 3l6-2v2h2v-2l6 2v-2l-6-2v-2h-2z" style="isolation:auto;mix-blend-mode:normal;paint-order:markers stroke fill" transform="translate(813 -300) scale(1.1713)"/></g><g color="#000"><path fill="#fff" stroke="#512007" stroke-linecap="round" stroke-linejoin="round" d="m388 263-6-1-6 2-5-1-4 2 4-1 5 4 6-2 6 2z" style="isolation:auto;mix-blend-mode:normal;paint-order:markers stroke fill" transform="matrix(1.29798 0 0 1.35724 358 -66)"/><path fill="#a00" d="M65 496v2l-6 3-6-2-5 1 4-1c3 1 4 3 7 3l6-2v2h2v-2l6 2v-2l-6-2v-2h-2z" style="isolation:auto;mix-blend-mode:normal;paint-order:markers stroke fill" transform="translate(787 -221) scale(1.02641)"/></g><g fill="#dd8b59" stroke="#512007" stroke-linecap="round" stroke-linejoin="round" color="#000"><path d="M261 365h26v1h-26zm27 1h26v1h-26z" style="isolation:auto;mix-blend-mode:normal;paint-order:markers stroke fill" transform="matrix(1.43443 -.3862 .4014 1.49088 324 -124)"/><path d="M288 366h26v1h-26zm19 29h20v1h-20z" style="isolation:auto;mix-blend-mode:normal;paint-order:markers stroke fill" transform="matrix(1.43443 -.3862 .4014 1.49088 324 -124)"/><path d="M307 395h20v1h-20z" style="isolation:auto;mix-blend-mode:normal;paint-order:markers stroke fill" transform="matrix(1.43443 -.3862 .4014 1.49088 324 -124)"/></g><path fill="#dd8b59" fill-rule="evenodd" stroke="#512007" stroke-linecap="round" stroke-linejoin="round" d="M21 566a2 2 0 0 0-1 4v1l2 2s0 0 0 0c0 2 1 3 3 3l1-1 4 1c-2 3 9 44 51 41 43-2 51-41 51-41h-19s-15 18-33 18c-19-1-24-5-28-9l-8-10-21-9h-2z" style="paint-order:markers stroke fill" transform="translate(813 -300) scale(1.1713)"/><path fill="#fecf3e" d="M390 339c-9 0-19-4-24-8l-4-5v-2l-4-1-7-2v-1h-1v2l-2-1v-1l1-1v-1 1h-3l1-1 1-2h-1 1l-1 1-2-1v-1l2-1 18 8 5 6c4 4 7 5 12 6s13 2 16 1l11-4 8-6 2-3h4l-1 2c-7 8-15 13-23 15h-9z" color="#000" style="isolation:auto;mix-blend-mode:normal;paint-order:markers stroke fill" transform="matrix(1.48121 0 0 1.54883 324 -124)"/><g fill="none" stroke-linecap="round" stroke-linejoin="round" stroke-width="0"><path d="m414 471 7-26 2-5m-6 29 6-29m-3 26 3-21v-5" style="paint-order:markers stroke fill" transform="matrix(-1.48121 0 0 1.55817 1490 -344)"/><path d="m405 325 5 1m-4-5 4 1m-3-4h4m-3-4h3" style="paint-order:markers stroke fill" transform="matrix(-1.48121 0 0 1.55817 1474 -130)"/><path d="m420 447 3 1" style="paint-order:markers stroke fill" transform="matrix(-1.48121 0 0 1.55817 1490 -344)"/><path d="m406 323 4 1m-3-5 4 1m-3-4h3m-2-4 3 1" style="paint-order:markers stroke fill" transform="matrix(-1.48121 0 0 1.55817 1474 -130)"/></g><path fill="#fec618" fill-rule="evenodd" stroke="#512007" stroke-linecap="round" stroke-linejoin="round" d="M356 305c-1 0 0 2 2 2l2-2s1 2 5 1c3 0 4-4 4-4l2 1c2 0 3-3 3-3l-18 5z" style="paint-order:markers stroke fill" transform="matrix(1.48121 0 0 1.54883 324 -124)"/><path fill="#dd8b59" stroke="#512007" stroke-linecap="round" stroke-linejoin="round" d="M256 382h26v1h-26z" color="#000" style="isolation:auto;mix-blend-mode:normal;paint-order:markers stroke fill" transform="matrix(1.43443 -.3862 .4014 1.49088 324 -124)"/><g style="paint-order:markers stroke fill"><path fill="#fec618" stroke="#512007" stroke-linecap="round" stroke-linejoin="round" d="m388 263-6-1-6 2-5-1-4 2 4-1 5 4 6-2 6 2z" color="#000" style="isolation:auto;mix-blend-mode:normal;paint-order:markers stroke fill" transform="matrix(.66587 0 0 .69627 707 159)"/></g><path fill="#fec618" fill-rule="evenodd" stroke="#512007" stroke-linecap="round" stroke-linejoin="round" d="m413 521-3 7c0 4 4 11 4 11l8-5h11l-3-9 5-10z" style="paint-order:markers stroke fill" transform="matrix(1.48121 0 0 1.54883 312 -491)"/><g stroke="#512007" stroke-linecap="round" stroke-linejoin="round" color="#000"><path fill="#dd8b59" d="M310 375h26v1h-26z" style="isolation:auto;mix-blend-mode:normal;paint-order:markers stroke fill" transform="matrix(1.43443 -.3862 .4014 1.49088 324 -124)"/><path fill="none" stroke="none" d="M350 322v-2m-4-2c2 1 2-2 2-2m-1 4c2 0 2-2 1-2" style="isolation:auto;mix-blend-mode:normal;paint-order:markers stroke fill" transform="matrix(1.48121 0 0 1.54883 324 -124)"/></g><g stroke="#512007" stroke-linecap="round" stroke-linejoin="round"><g fill="none" stroke="none" stroke-width="0" style="paint-order:markers stroke fill"><path d="m414 468 7-23 2-5m-6 28 6-28m-3 29 3-24v-5" style="paint-order:markers stroke fill" transform="matrix(-1.8014 0 0 1.895 1663 -491)"/><path d="m405 325 5 1m-4-5 4 1m-3-4h4m-3-4h3" style="paint-order:markers stroke fill" transform="matrix(-1.8014 0 0 1.895 1643 -231)"/><path d="m420 447 3 1" style="paint-order:markers stroke fill" transform="matrix(-1.8014 0 0 1.895 1663 -491)"/><path d="m406 323 4 1m-3-4h4m-3-4h3m-2-4 3 1m-7 14 5 1m-6 1 5 1" style="paint-order:markers stroke fill" transform="matrix(-1.8014 0 0 1.895 1643 -231)"/></g><path fill="#fec618" fill-rule="evenodd" d="M380 304s1 2 3 2c2-1 2-3 2-3s2 4 5 3 4-4 4-4 1 2 4 1c2-1 3-5 3-5l-21 6z" style="paint-order:markers stroke fill" transform="matrix(1.48121 0 0 1.54883 324 -124)"/><path fill="#dd8b59" d="M281 388h26v1h-26z" color="#000" style="isolation:auto;mix-blend-mode:normal;paint-order:markers stroke fill" transform="matrix(1.43443 -.3862 .4014 1.49088 324 -124)"/><path fill="none" stroke="none" d="M414 540s1 11 5 16c1 2 7 5 7 5" style="paint-order:markers stroke fill" transform="matrix(1.48121 0 0 1.54883 312 -491)"/></g><g stroke="#512007" stroke-linecap="round" stroke-linejoin="round"><path fill="#fec618" fill-rule="evenodd" d="m405 304 3 2 2-2c1 1 1 3 5 2 3-1 2-3 3-3h1c3 1 5-4 5-4l-19 5z" style="paint-order:markers stroke fill" transform="matrix(1.48121 0 0 1.54883 324 -124)"/><path fill="#dd8b59" d="M304 394h26v1h-26z" color="#000" style="isolation:auto;mix-blend-mode:normal;paint-order:markers stroke fill" transform="matrix(1.43443 -.3862 .4014 1.49088 324 -124)"/><path fill="#e96a01" fill-rule="evenodd" d="M426 559h28v-2h-28z" style="paint-order:markers stroke fill" transform="matrix(1.48121 0 0 1.54883 312 -491)"/></g><g color="#000"><path fill="#e6ab87" d="M110 413h25l-1 1h-24z" style="isolation:auto;mix-blend-mode:normal;paint-order:markers stroke fill" transform="matrix(1.43454 -.38572 .88164 1.24459 324 -124)"/><path fill="#efc9b2" d="m352 304 24-6v1l-23 6z" style="isolation:auto;mix-blend-mode:normal;paint-order:markers stroke fill" transform="matrix(1.48121 0 0 1.54883 324 -124)"/><path fill="#e6ab87" d="m352 286 24-6h1l-24 7z" style="isolation:auto;mix-blend-mode:normal;paint-order:markers stroke fill" transform="matrix(1.48121 0 0 1.54883 324 -124)"/><path fill="#efc9b2" d="m353 286 23-6-23 6z" style="isolation:auto;mix-blend-mode:normal;paint-order:markers stroke fill" transform="matrix(1.48121 0 0 1.54883 324 -124)"/><path fill="#e6ab87" d="m355 277 18-4-18 5z" style="isolation:auto;mix-blend-mode:normal;paint-order:markers stroke fill" transform="matrix(1.48121 0 0 1.54883 324 -124)"/><path fill="#efc9b2" d="m355 277 18-4-18 5z" style="isolation:auto;mix-blend-mode:normal;paint-order:markers stroke fill" transform="matrix(1.48121 0 0 1.54883 324 -124)"/><path fill="#e6ab87" d="m380 273 18-5v1l-18 4z" style="isolation:auto;mix-blend-mode:normal;paint-order:markers stroke fill" transform="matrix(1.48121 0 0 1.54883 324 -124)"/><path fill="#efc9b2" d="m380 273 18-5v1l-18 4z" style="isolation:auto;mix-blend-mode:normal;paint-order:markers stroke fill" transform="matrix(1.48121 0 0 1.54883 324 -124)"/><path fill="#e6ab87" d="m405 275 18-5v1l-18 4z" style="isolation:auto;mix-blend-mode:normal;paint-order:markers stroke fill" transform="matrix(1.48121 0 0 1.54883 324 -124)"/><path fill="#efc9b2" d="m405 275 18-5v1l-18 4z" style="isolation:auto;mix-blend-mode:normal;paint-order:markers stroke fill" transform="matrix(1.48121 0 0 1.54883 324 -124)"/><path fill="#e6ab87" d="m379 281 24-6-24 6z" style="isolation:auto;mix-blend-mode:normal;paint-order:markers stroke fill" transform="matrix(1.48121 0 0 1.54883 324 -124)"/><path fill="#efc9b2" d="m379 281 23-6-23 6z" style="isolation:auto;mix-blend-mode:normal;paint-order:markers stroke fill" transform="matrix(1.48121 0 0 1.54883 324 -124)"/><path fill="#e6ab87" d="m402 284 24-6-24 7z" style="isolation:auto;mix-blend-mode:normal;paint-order:markers stroke fill" transform="matrix(1.48121 0 0 1.54883 324 -124)"/><path fill="#efc9b2" d="m403 284 23-6-23 6z" style="isolation:auto;mix-blend-mode:normal;paint-order:markers stroke fill" transform="matrix(1.48121 0 0 1.54883 324 -124)"/><path fill="#e6ab87" d="m378 303 24-6v1l-24 6z" style="isolation:auto;mix-blend-mode:normal;paint-order:markers stroke fill" transform="matrix(1.48121 0 0 1.54883 324 -124)"/><path fill="#efc9b2" d="m378 304 24-7v1l-24 6z" style="isolation:auto;mix-blend-mode:normal;paint-order:markers stroke fill" transform="matrix(1.48121 0 0 1.54883 324 -124)"/><path fill="#fed65b" d="m55 528-28 7v5l2 5 25-6-1-7 2-4z" style="isolation:auto;mix-blend-mode:normal;paint-order:markers stroke fill" transform="translate(813 -300) scale(1.1713)"/><path fill="#fedf82" d="m54 530-27 7v3l1 4 26-7a10 10 0 0 1 0-7z" style="isolation:auto;mix-blend-mode:normal;paint-order:markers stroke fill" transform="translate(813 -300) scale(1.1713)"/><path fill="#fed65b" d="m119 525-27 7-1 4 2 7 24-7-1-4 3-7z" style="isolation:auto;mix-blend-mode:normal;paint-order:markers stroke fill" transform="translate(813 -300) scale(1.1713)"/><path fill="#fedf82" d="m118 528-26 6-1 2 1 4 25-6-1-2 2-4z" style="isolation:auto;mix-blend-mode:normal;paint-order:markers stroke fill" transform="translate(813 -300) scale(1.1713)"/><path fill="#e6ab87" d="m402 304 24-6-24 7z" style="isolation:auto;mix-blend-mode:normal;paint-order:markers stroke fill" transform="matrix(1.48121 0 0 1.54883 324 -124)"/><path fill="#efc9b2" d="m402 304 24-6-24 6z" style="isolation:auto;mix-blend-mode:normal;paint-order:markers stroke fill" transform="matrix(1.48121 0 0 1.54883 324 -124)"/></g><g fill="#520" fill-rule="evenodd" stroke="#2b1100" stroke-linecap="round" stroke-linejoin="round" transform="matrix(1.48121 0 0 1.54883 324 -124)"><circle cx="391" cy="337" r="1" style="paint-order:markers stroke fill"/><circle cx="368" cy="329" r="1" style="paint-order:markers stroke fill"/><circle cx="415" cy="329" r="1" style="paint-order:markers stroke fill"/><circle cx="377" cy="334" r="1" style="paint-order:markers stroke fill"/><circle cx="406" cy="334" r="1" style="paint-order:markers stroke fill"/></g><g color="#000"><g fill="none" stroke-linecap="round" stroke-linejoin="round"><path d="m289 682 9 3c2 10 22 16 34 15 11-1 20-9 27-18" style="isolation:auto;mix-blend-mode:normal;paint-order:markers stroke fill" transform="matrix(1.48121 0 0 1.54883 419 -682)"/><path d="M296 685c1 6 10 18 34 18 23 0 32-21 32-21" style="isolation:auto;mix-blend-mode:normal;paint-order:markers stroke fill" transform="matrix(1.48121 0 0 1.54883 419 -682)"/><path d="M294 684c0 8 8 24 36 24 26 0 36-25 36-25" style="isolation:auto;mix-blend-mode:normal;paint-order:markers stroke fill" transform="matrix(1.48121 0 0 1.54883 419 -682)"/><path d="M291 683c0 6 9 30 39 29 26 0 36-23 39-29" style="isolation:auto;mix-blend-mode:normal;paint-order:markers stroke fill" transform="matrix(1.48121 0 0 1.54883 419 -682)"/><g stroke-width="0"><path d="M76 603c-10 0-19-3-26-7l-5-4a23 23 0 0 1-7-13h1l1 1 2 4c2 3 4 5 8 7a59 59 0 0 0 36 8c9-1 16-6 24-13l7-9 1-1h3l-1 2-8 12a42 42 0 0 1-36 13z" style="isolation:auto;mix-blend-mode:normal;paint-order:markers stroke fill" transform="translate(813 -300) scale(1.1713)"/><path d="M78 610a63 63 0 0 1-23-6 35 35 0 0 1-20-25v-1h1l1 1h1v1l1 2c2 7 8 14 17 17l14 4 16 1a52 52 0 0 0 35-26l1-2h4l-2 5a62 62 0 0 1-14 18 45 45 0 0 1-32 11z" style="isolation:auto;mix-blend-mode:normal;paint-order:markers stroke fill" transform="translate(813 -300) scale(1.1713)"/><path d="M77 615a46 46 0 0 1-44-35l-1-3 2 1h1v1l2 7c3 9 11 16 21 20a58 58 0 0 0 28 4 46 46 0 0 0 31-17l9-15 1-2h1l2 1-5 9c-5 9-11 16-18 21a47 47 0 0 1-30 8z" style="isolation:auto;mix-blend-mode:normal;paint-order:markers stroke fill" transform="translate(813 -300) scale(1.1713)"/><path d="m75 617-12-2c-12-3-22-12-29-24l-4-14-1-1h1l1 1h1v1c0 5 3 12 7 17 7 12 19 19 33 20 19 3 35-4 47-19l11-18v-1h2c-1 4-3 9-6 13a53 53 0 0 1-44 27h-7z" style="isolation:auto;mix-blend-mode:normal;paint-order:markers stroke fill" transform="translate(813 -300) scale(1.1713)"/></g></g><path fill="#fec413" d="M77 603c-11 0-21-3-28-8-3-3-7-6-9-10l-1-6 1 1 3 5 9 8c7 4 17 6 27 7 10 0 18-3 27-10a105 105 0 0 0 11-12l1-2h3l-1 2c-3 6-9 14-15 18a42 42 0 0 1-28 7z" style="isolation:auto;mix-blend-mode:normal;paint-order:markers stroke fill" transform="translate(813 -300) scale(1.1713)"/><path fill="#e9b001" d="m78 610-19-4-7-3-10-9a36 36 0 0 1-7-16l2 1h1v1c1 3 2 7 5 9 3 4 7 8 12 10a59 59 0 0 0 33 4c10-1 19-7 26-15l7-11 1-1h3l1 1-4 7c-3 5-6 10-10 13a45 45 0 0 1-34 13z" style="isolation:auto;mix-blend-mode:normal;paint-order:markers stroke fill" transform="translate(813 -300) scale(1.1713)"/><path fill="#e98e01" d="m74 615-16-4a46 46 0 0 1-25-28v-6a59 59 0 0 0 2 1v1c0 4 1 7 3 10l7 9c7 7 18 12 32 12 7 0 12 0 18-2 9-3 17-9 24-18l7-12 1-2 2 1v2l-7 12a49 49 0 0 1-48 24z" style="isolation:auto;mix-blend-mode:normal;paint-order:markers stroke fill" transform="translate(813 -300) scale(1.1713)"/><path fill="#d05f01" d="m75 617-12-2c-7-2-13-5-19-11a52 52 0 0 1-14-27v-1l1 1h1v1c0 4 2 8 4 12 5 10 13 18 24 22a52 52 0 0 0 32 2c11-2 20-9 28-19a86 86 0 0 0 10-17v-1h2a48 48 0 0 0-1 3c-3 9-8 16-14 22-8 9-19 14-33 15h-9z" style="isolation:auto;mix-blend-mode:normal;paint-order:markers stroke fill" transform="translate(813 -300) scale(1.1713)"/></g><path id="path-b7120" d="m m0 78 m0 119 m0 65 m0 65 m0 65 m0 65 m0 65 m0 65 m0 65 m0 65 m0 65 m0 65 m0 65 m0 65 m0 65 m0 65 m0 65 m0 65 m0 65 m0 65 m0 78 m0 107 m0 86 m0 86 m0 66 m0 121 m0 57 m0 55 m0 120 m0 114 m0 57 m0 87 m0 47 m0 104 m0 108 m0 51 m0 112 m0 81 m0 72 m0 81 m0 66 m0 88 m0 121 m0 77 m0 113 m0 122 m0 82 m0 121 m0 108 m0 99 m0 54 m0 105 m0 75 m0 102 m0 105 m0 48 m0 108 m0 55 m0 104 m0 89 m0 52 m0 47 m0 102 m0 88 m0 53 m0 66 m0 83 m0 107 m0 55 m0 68 m0 122 m0 104 m0 78 m0 50 m0 76 m0 69 m0 116 m0 87 m0 86 m0 73 m0 53 m0 43 m0 82 m0 65 m0 104 m0 103 m0 61 m0 61"/>
</svg>