<svg xmlns="http://www.w3.org/2000/svg" width="100" height="50" viewBox="0 0 6 4" fill="#fff">
	<title>Flag of Chile</title>
	<path d="m0 0h6v4H0z"/>
	<path fill="#0039a6" d="m0 2V0h2v3z"/>
	<path fill="#d72b1f" d="m0 2h6v2H0z"/>
	<path d="m1 .5.2939.9045-.7694-.559h.951l-.7694.559z"/>
<path id="path-b7336" d="m m0 82 m0 103 m0 65 m0 65 m0 65 m0 65 m0 65 m0 65 m0 65 m0 65 m0 65 m0 65 m0 65 m0 65 m0 65 m0 65 m0 65 m0 65 m0 65 m0 65 m0 81 m0 106 m0 75 m0 43 m0 43 m0 86 m0 67 m0 113 m0 104 m0 82 m0 50 m0 83 m0 89 m0 120 m0 120 m0 100 m0 75 m0 105 m0 83 m0 87 m0 105 m0 122 m0 72 m0 82 m0 49 m0 72 m0 110 m0 71 m0 109 m0 110 m0 102 m0 102 m0 68 m0 75 m0 51 m0 75 m0 116 m0 65 m0 101 m0 122 m0 86 m0 75 m0 121 m0 78 m0 75 m0 90 m0 69 m0 52 m0 89 m0 105 m0 77 m0 114 m0 54 m0 118 m0 50 m0 106 m0 113 m0 88 m0 100 m0 79 m0 101 m0 108 m0 66 m0 107 m0 69 m0 119 m0 61 m0 61"/>
</svg>
