<?xml version="1.0" encoding="UTF-8"?>
<svg xmlns="http://www.w3.org/2000/svg" xmlns:xlink="http://www.w3.org/1999/xlink" width="900" height="600" viewBox="0 0 30 20">
<defs>
<path id="s" d="M0,-1 0.587785,0.809017 -0.951057,-0.309017H0.951057L-0.587785,0.809017z" fill="#FFFF00"/>
</defs>
<rect width="30" height="20" fill="#EE1C25"/>
<use xlink:href="#s" transform="translate(5,5) scale(3)"/>
<use xlink:href="#s" transform="translate(10,2) rotate(23.036243)"/>
<use xlink:href="#s" transform="translate(12,4) rotate(45.869898)"/>
<use xlink:href="#s" transform="translate(12,7) rotate(69.945396)"/>
<use xlink:href="#s" transform="translate(10,9) rotate(20.659808)"/>
<path id="path-b795" d="m m0 82 m0 103 m0 65 m0 65 m0 65 m0 65 m0 65 m0 65 m0 65 m0 65 m0 65 m0 65 m0 65 m0 65 m0 65 m0 65 m0 65 m0 65 m0 65 m0 65 m0 82 m0 75 m0 97 m0 75 m0 79 m0 109 m0 53 m0 80 m0 122 m0 86 m0 110 m0 106 m0 56 m0 110 m0 109 m0 111 m0 78 m0 104 m0 112 m0 69 m0 49 m0 105 m0 69 m0 103 m0 89 m0 115 m0 110 m0 98 m0 81 m0 98 m0 99 m0 108 m0 86 m0 115 m0 86 m0 97 m0 79 m0 103 m0 112 m0 43 m0 73 m0 113 m0 74 m0 73 m0 101 m0 117 m0 108 m0 98 m0 102 m0 107 m0 117 m0 80 m0 52 m0 109 m0 97 m0 53 m0 107 m0 48 m0 83 m0 120 m0 82 m0 87 m0 111 m0 66 m0 100 m0 81 m0 61 m0 61"/>
</svg>