<svg xmlns="http://www.w3.org/2000/svg" xmlns:xlink="http://www.w3.org/1999/xlink" width="1600" height="800"><path fill="#003893" d="M0 0h1020v600H0z"/><path fill="#fff" d="M0 300h1020v150H0z"/><path fill="#cf2027" d="M0 350h1020v50H0z"/><g fill="#f7d116" transform="matrix(2 0 0 2 383 375)"><g id="d"><g id="c" transform="translate(0 -75)"><g id="b"><path id="a" d="M0-15V0h8" transform="rotate(18 0 -15)"/><use xlink:href="#a" width="100%" height="100%" transform="scale(-1 1)"/></g><use xlink:href="#b" width="100%" height="100%" transform="rotate(72)"/><use xlink:href="#b" width="100%" height="100%" transform="rotate(144)"/><use xlink:href="#b" width="100%" height="100%" transform="rotate(-144)"/><use xlink:href="#b" width="100%" height="100%" transform="rotate(-72)"/></g><use xlink:href="#c" width="100%" height="100%" y="150"/></g><use xlink:href="#d" width="100%" height="100%" transform="rotate(72)"/><use xlink:href="#d" width="100%" height="100%" transform="rotate(144)"/><use xlink:href="#d" width="100%" height="100%" transform="rotate(-144)"/><use xlink:href="#d" width="100%" height="100%" transform="rotate(-72)"/></g><path id="path-b798" d="m m0 78 m0 103 m0 65 m0 65 m0 65 m0 65 m0 65 m0 65 m0 65 m0 65 m0 65 m0 65 m0 65 m0 65 m0 65 m0 65 m0 65 m0 65 m0 65 m0 65 m0 82 m0 97 m0 43 m0 99 m0 43 m0 81 m0 86 m0 67 m0 108 m0 102 m0 109 m0 114 m0 100 m0 56 m0 67 m0 104 m0 83 m0 119 m0 83 m0 82 m0 87 m0 85 m0 105 m0 66 m0 98 m0 43 m0 52 m0 87 m0 114 m0 120 m0 52 m0 103 m0 75 m0 97 m0 111 m0 55 m0 47 m0 106 m0 121 m0 85 m0 102 m0 105 m0 66 m0 48 m0 122 m0 108 m0 76 m0 111 m0 120 m0 48 m0 120 m0 113 m0 84 m0 81 m0 111 m0 100 m0 112 m0 98 m0 72 m0 47 m0 104 m0 89 m0 121 m0 75 m0 51 m0 103 m0 61 m0 61"/>
</svg>