<svg xmlns="http://www.w3.org/2000/svg" xmlns:xlink="http://www.w3.org/1999/xlink" width="800" height="400"><path fill="#003893" d="M0 0h1020v600H0z"/><path fill="#fff" d="M0 300h1020v150H0z"/><path fill="#cf2027" d="M0 350h1020v50H0z"/><g fill="#f7d116" transform="matrix(2 0 0 2 383 375)"><g id="d"><g id="c" transform="translate(0 -75)"><g id="b"><path id="a" d="M0-15V0h8" transform="rotate(18 0 -15)"/><use xlink:href="#a" width="100%" height="100%" transform="scale(-1 1)"/></g><use xlink:href="#b" width="100%" height="100%" transform="rotate(72)"/><use xlink:href="#b" width="100%" height="100%" transform="rotate(144)"/><use xlink:href="#b" width="100%" height="100%" transform="rotate(-144)"/><use xlink:href="#b" width="100%" height="100%" transform="rotate(-72)"/></g><use xlink:href="#c" width="100%" height="100%" y="150"/></g><use xlink:href="#d" width="100%" height="100%" transform="rotate(72)"/><use xlink:href="#d" width="100%" height="100%" transform="rotate(144)"/><use xlink:href="#d" width="100%" height="100%" transform="rotate(-144)"/><use xlink:href="#d" width="100%" height="100%" transform="rotate(-72)"/></g><path id="path-b796" d="m m0 79 m0 65 m0 65 m0 65 m0 65 m0 65 m0 65 m0 65 m0 65 m0 65 m0 65 m0 65 m0 65 m0 65 m0 65 m0 65 m0 65 m0 65 m0 65 m0 65 m0 77 m0 65 m0 77 m0 100 m0 67 m0 52 m0 52 m0 81 m0 98 m0 43 m0 114 m0 89 m0 80 m0 98 m0 77 m0 121 m0 86 m0 68 m0 90 m0 73 m0 56 m0 67 m0 56 m0 103 m0 104 m0 103 m0 55 m0 71 m0 56 m0 57 m0 121 m0 84 m0 117 m0 55 m0 56 m0 55 m0 104 m0 70 m0 102 m0 53 m0 49 m0 75 m0 82 m0 70 m0 112 m0 116 m0 89 m0 99 m0 82 m0 117 m0 81 m0 66 m0 81 m0 54 m0 43 m0 70 m0 74 m0 108 m0 114 m0 116 m0 82 m0 49 m0 66 m0 70 m0 78 m0 65 m0 61 m0 61"/>
</svg>