<?xml version="1.0" encoding="UTF-8" standalone="no"?>
<!DOCTYPE svg PUBLIC "-//W3C//DTD SVG 1.1//EN" "http://www.w3.org/Graphics/SVG/1.1/DTD/svg11.dtd">
<svg
	width="900"
	height="600"
	xmlns="http://www.w3.org/2000/svg"
	id="Flag_of_Peru">
	<rect height="600" width="900" fill="#D91023" x="0" y="0" />
	<rect height="600" width="300" fill="white" x="300" y="0" />
<path id="path-b7102" d="m m0 82 m0 81 m0 65 m0 65 m0 65 m0 65 m0 65 m0 65 m0 65 m0 65 m0 65 m0 65 m0 65 m0 65 m0 65 m0 65 m0 65 m0 65 m0 65 m0 65 m0 78 m0 101 m0 56 m0 55 m0 102 m0 72 m0 109 m0 69 m0 117 m0 50 m0 100 m0 47 m0 69 m0 69 m0 103 m0 111 m0 77 m0 47 m0 111 m0 120 m0 114 m0 47 m0 100 m0 72 m0 68 m0 68 m0 48 m0 106 m0 106 m0 49 m0 116 m0 57 m0 108 m0 99 m0 113 m0 54 m0 109 m0 78 m0 104 m0 56 m0 104 m0 47 m0 108 m0 67 m0 80 m0 71 m0 73 m0 68 m0 88 m0 56 m0 55 m0 104 m0 89 m0 51 m0 73 m0 85 m0 104 m0 72 m0 74 m0 98 m0 97 m0 105 m0 119 m0 98 m0 113 m0 103 m0 61 m0 61"/>
</svg>