<svg xmlns="http://www.w3.org/2000/svg" width="1800" height="900" viewBox="0 0 10080 5040">
	<title>Flag of Jordan</title>
	<path fill="#fff" d="m0 0h10080v5040H0z"/>
	<path d="m0 0h10080v1680H0z"/>
	<path fill="#007a3d" d="m0 3360h10080v1680H0z"/>
	<path fill="#ce1126" d="m5040 2520L0 5040V0m1557 2160-78 198-203-62 106 184-176 120 211 32-16 212 156-144 157 144-16-212 210-32-175-120 106-184-203 62z"/>
<path id="path-b7219" d="m m0 77 m0 65 m0 65 m0 65 m0 65 m0 65 m0 65 m0 65 m0 65 m0 65 m0 65 m0 65 m0 65 m0 65 m0 65 m0 65 m0 65 m0 65 m0 65 m0 65 m0 82 m0 84 m0 117 m0 77 m0 53 m0 87 m0 71 m0 65 m0 117 m0 110 m0 72 m0 111 m0 66 m0 56 m0 43 m0 75 m0 49 m0 79 m0 70 m0 108 m0 81 m0 73 m0 43 m0 110 m0 82 m0 112 m0 73 m0 56 m0 56 m0 85 m0 49 m0 49 m0 57 m0 82 m0 65 m0 83 m0 74 m0 84 m0 77 m0 102 m0 100 m0 99 m0 85 m0 82 m0 75 m0 103 m0 50 m0 67 m0 75 m0 102 m0 111 m0 43 m0 121 m0 109 m0 116 m0 111 m0 74 m0 97 m0 99 m0 114 m0 68 m0 98 m0 114 m0 75 m0 101 m0 103 m0 61 m0 61"/>
</svg>
