<svg xmlns="http://www.w3.org/2000/svg" width="32" height="16"><path fill="#c8102e" d="M0 0h1000v500H0z"/><path fill="#012169" d="M0 0h500v250H0z"/><path fill="#fff" d="M0 0v28l444 222h56v-28L56 0zm500 0v28L56 250H0v-28L444 0z"/><path fill="#fff" d="M208 0v250h84V0zM0 83v84h500V83z"/><path fill="#c8102e" d="M0 100v50h500v-50zM225 0v250h50V0zM0 250l167-83h37L37 250zM0 0l167 83h-38L0 19zm296 83L463 0h37L333 83zm204 167-167-83h38l129 64z"/><path fill="#fff" d="M865 107v211c0 57-113 75-113 75s-113-18-113-75V107z"/><path fill="#2f8f22" d="M865 318c0 57-113 75-113 75s-113-18-113-75c0 0 0-4 3-7 0 0-2 10 6 17 0 0-6-10-1-20 0 0-2 13 6 20 0 0-4-11 1-22 0 0-3 19 6 23 0 0 2-11-1-18 0 0 6 2 6 18l2-14s0 13 5 16c0 0 1-1-1-7s1-8 1-8-1 7 5 12c0 0-3-11 1-12 0 0-1 9 6 11l-1-6v-6s2 8 5 10c0 0-2-5 0-10 0 0 0 7 6 10 0 0-4-5-2-11l37 2 20 1 58-4 10-9s4 5-2 14c0 0 6-1 8-11 0 0 3 6-1 12 0 0 7-7 8-15 0 0 3 8-4 16 0 0 6-2 9-11 0 0 2 5-4 13 0 0 11-6 10-18 0 0 5 7 0 16 0 0 5-5 6-12 0 0 3 3-1 12 0 0 7-6 8-13 0 0 1 6-4 14 0 0 4-1 7-9 0 0 1 3-2 9 0 0 4-1 6-8l-1 8s3-2 4-9l1 5v1z"/><g stroke="#000"><path fill="#c8102e" stroke-linejoin="round" d="M807 196s-4 1-9-1h-8s2-4-3-7c0 0 1 4-1 6 0 0-1 1-2-1l-4-3s4-1 4-6-3-4-5-5v3s-4-2 2-6 5-6 4-8l-5-4 1 3c0 1-3 3-2 0v-5s5 2 7-4c0 0 3-5-4-8v4s-1 3-3 0-3-2-3-5c0 0 7 1 5-6 0 0-1 4-9-2 0 0 5-5 3-10 0 0-1-2-6-1 0 0 5-3 2-6 0 0-1-1-5 1 0 0 2-3-3-7l-5 4-5-6s-4 1-5 6c0 0-1-2-5-3 0 0-2 3 0 6l-5-1s-4-2-3 1l2 5s-9-2-9 3l4 8s-4 6-8 2c0 0-2 1 1 5 0 0 3 4 1 6 0 0-4 2-5-3 0 0-6 6 1 10 0 0 4 2 8-2 0 0-1 11-5 9 0 0-3-2 2-4 0 0-6-1-7 5 0 0-1 5 4 7 0 0 4 1 0 4 0 0-3 3-1 6 0 0 2 4-4 4h-4s-2 2-1 5c0 0-3-2-10 0l-6 2-2 3 3 4v5l1 1 15-6 14-7h12l7 2 10 1 6-4h10l11 5 13 8 7 1h5v-10z"/><path fill="#c8102e" stroke-linejoin="round" d="M693 208s5 3 8-1c0 0 3-5-4-7 0 0 4-5 0-9 0 0-2-2-6 0 0 0-1-3-4-3 0 0-3 0-4 3 0 0-5-2-7 1 0 0-4 4 2 7l3 1 4-2 4 1s-1 5 4 9z"/><path fill="#64b4d1" d="M815 198c7-1 9 5 9 5 4 8-4 12-4 12l1 4c10 2 9 13 9 13l-4-2c-6-3-12 2-16 11s-3 12-2 23c1 10 17 16 17 16l-13 33c-5 13-15 7-18 4-3-2-4-1-6 0s7 8-8 14-18 11-21 13-13 1-14-1l-4-4-18-8c-8-3-8-8-8-9s3-8-6-2-16-3-16-3a250 250 0 0 1-14-37l6-3c7-4 9-10 11-16s0-16-1-18c0-2-5-12-11-14s-10 3-10 3-2-11 9-13v-4s-7-4-3-12c0 0 2-6 8-5l-1 3s-2 16 23 5 23-13 37-6h10s15-7 19-4l22 12s16 7 19-5z"/></g><path fill="#fff" stroke="#012169" stroke-miterlimit="10" d="m742 270-1-9s-2-5 1-8l4-5s2-3 5-3l3-1s4-6 11 0c0 0 3-4 6-5 0 0 5-1 6 2 0 0 5-3 9 2 0 0 5-3 9 3 0 0 6-2 9 3s2 8 2 8l3 9 8 10-20 8h-9l-17 5-32 2-9-10z"/><g stroke="#000"><path fill="#c8102e" stroke-linejoin="round" d="m715 323-7 1-7 5h-7s-9-2-9 5c0 0-12 1-7 11 0 0 3 8 10 3 0 0-4 6 4 8 0 0 5 1 7-5 0 0 1-2-1-5 0 0 3 0 5-3 0 0-6 7 0 10 0 0 8 2 9-7 0 0-1-4 2-5 0 0 7-1 10-9 0 0-10-5-9-9zm-19-75s-7-4-11 0c0 0-5-3-10 0l-8 6s-2 2-1 9v6s-2 0-5 4c0 0-4 5-7 1 0 0 1 5 7 4 0 0-3 3 0 10 0 0 2 4-1 10 0 0 6-2 5-9 0 0 0-5 2-8 0 0-2 3 2 9 0 0 3 5 1 10 0 0 5-2 5-9s-4-5-2-11l2 5c1 2 4 4 3 9 0 0 4-4 3-9l-2-5 11-7 6-10z"/><path fill="none" stroke-miterlimit="10" d="M679 276s-4-1-5-4m-8-3 3 2 3 1"/></g><path d="m686 262-4-1s-1-1-2 1c0 0-1 2 1 3 0 0 3 1-1 4 0 0 5-2 3-5 0 0-3-1-2-2h5z"/><path fill="#784421" stroke="#000" d="m760 274-18-63 16 64z"/><path d="M697 345s-4-3-8 0l3-2s2-4 6-4l-4 4s2 0 3 2z"/><path fill="#64b4d1" stroke="#012169" stroke-miterlimit="3" d="M682 355s-7-5-3-12c0 0 1-2 3-1 0 0 4 1 1 7 0 0-2 4-1 6zm14 7s-10-5-7-12c0 0 1-3 3-3 0 0 4 0 3 5 0 0-1 5 1 10z"/><path d="m694 333-5 4-2-2h2l5-2z"/><path fill="#64b4d1" stroke="#012169" stroke-miterlimit="3" d="M702 360s8-2 6-10c0 0 0-4-4-3 0 0-3 1-1 6 0 0 2 3-1 7z"/><path fill="#f5ce00" stroke="#000" stroke-miterlimit="3" d="m737 193 7 3s7 3 16 0l7-3-4 7-1 4 3 4s-1 1-7-2c0 0-6-5-12 0l-7 2 4-5-2-4z"/><path fill="#fff" d="m705 350-1 3 1 2v1-6z"/><g stroke="#000"><path fill="#c8102e" stroke-linejoin="round" d="M811 208s-6 3-8-1c0 0-3-5 3-7 0 0-3-5 1-9 0 0 2-2 5 0 0 0 2-3 5-3 0 0 3 0 4 3 0 0 4-2 7 1 0 0 3 4-2 7l-4 1-3-2-5 1s1 5-3 9z"/><path fill="#f5ce00" stroke-miterlimit="3" d="m767 203-1 2-2-1v-1l2-4s3-3 10 0l9 5 10 6s4 2 11 2c0 0 8 1 12-6 0 0 3-4 0-7l-3-1-3 1s-1 2 1 4c0 0 2 1 2-2h1l-1 4s-5 8-20 0l-18-11s-10-4-15 3c0 0-5 6 1 11 0 0 4 2 7-2 0 0 2-4-1-6 0 0-3-1-5 2s3 4 3 1z"/><path fill="#e4cb5e" stroke-miterlimit="3" d="M693 236v-12l1-3c1-1 3-3 5 2l6-5s2-2 4 1l4-4s4-3 4 5l4-3s2-2 5 1l5 6 1 4 2 4 3 1s3 0 4 4c0 0 1-1 3 14v28l-19 23-31-9-12-5-2-9 11-7 7-17-2-12z"/><path fill="#784421" d="m776 251 2-2 3-3 5 17v4s8 2 10 14l-7 12-10-6-3-2v-34z"/></g><path fill="#fff" d="M680 345v-1l-1 1s-2 2 0 5l1 1v-1s-2-3 0-5z"/><g stroke="#000"><path fill="none" stroke-miterlimit="10" d="m711 343-1-3v-1m7-119 1 6 4 8"/><path fill="#c8102e" stroke-linejoin="round" d="m788 323 8 1 7 5h7s9-2 9 5c0 0 12 1 7 11 0 0-3 8-10 3 0 0 4 6-4 8 0 0-6 1-7-5 0 0-1-2 1-5 0 0-3 0-5-3 0 0 6 7 0 10 0 0-9 2-9-7 0 0 1-4-2-5 0 0-7-1-10-9 0 0 9-5 8-9z"/><path fill="none" stroke-miterlimit="10" d="m714 234 7 62m-6-63 9 59m-7-59 10 58"/><path fill="#784421" d="m736 285-19-63 16 64z"/><path fill="none" stroke-miterlimit="10" d="m723 231 18 46m-20-45 18 48"/></g><path fill="#fff" d="M692 357s-2-2-2-6v-1 1s-1 4 2 6z"/><g stroke="#000"><path fill="none" stroke-miterlimit="10" d="m723 230 19 43m-24-40 12 57"/><path fill="#f5ce00" stroke-miterlimit="3" d="M813 275c-8-5-10-15-10-15-2-10 2-19 2-19 6-11 15-13 15-13s-9 6-12 15c0 0-2 7-1 14l3 10z"/><path fill="#784421" stroke="none" d="m778 249-35 11-2 15c-9 12-25 14-25 14l13 14 25 6 13-11 12-11-1-14 1-5s-2-15-1-19z"/><g fill="none" stroke-miterlimit="10"><path d="m741 271 37-13m-48 26s29-5 49-16l7-5"/><path d="m786 267-8 6s-32 14-56 15m56-5s-24 13-38 13"/></g><path fill="#c8102e" stroke-linejoin="round" d="M808 248s7-4 11 0c0 0 5-3 10 0l8 6s2 2 1 9v6s2 0 5 4c0 0 4 5 7 1 0 0-1 5-7 4 0 0 3 3 0 10 0 0-2 4 1 10 0 0-6-2-5-9 0 0 0-5-2-8 0 0 2 3-2 9 0 0-3 5-1 10 0 0-5-2-5-9 1-8 4-5 2-11l-2 5c-2 2-4 4-3 9 0 0-4-4-3-9l2-5-11-7-6-10z"/></g><path fill="#fff" stroke="#012169" stroke-miterlimit="10" d="M683 287s1-5 6-3c0 0 1-8 10-8 8 0 9 8 9 9 0 0 2-4 6-3 0 0 8-1 5 11l1 1s6-13 17-9c0 0 11 3 4 14 0 0 5 7 10 6s9-2 13-10 16-9 18-9 5 2 6 4c0 0 5-19 25-16l9 5 3 1-5 13-11 25-9 3-9-5-3 1v8l-12 8-8 4-9 6-2 5s-5-2-10 0l-2-4-5-5-21-10-3-12-4-1-4 5h-6l-9-6z"/><g stroke="#000"><g stroke-miterlimit="3"><path fill="none" d="M771 195s-7 0-7 8"/><path fill="#f5ce00" d="M823 281c-14-5-18-19-18-19-2-11 2-21 2-21 6-14 17-14 17-14 5 0 5 4 5 4 1 4-1 5-1 5-4 2-6-1-6-1-2-2 0-4 0-4h2c2 0 2 2 2 2s0-2-2-3c0 0-4 0-9 5 0 0-6 8-6 19 0 0-1 19 19 24l-6 15s-4 15-8 22c0 0-6 12-18 7 0 0-8-3-8-8 0 0 0-5 4-6 0 0 4 0 4 4 0 0 0 4-4 3l-2-2s1-2 3-1h-2l-1 1 1 2h2s2 3 4 3c4 2 8 0 10-1l4-6 6-17 5-12z"/><path fill="#f5ce00" d="M784 317s3 0 3 2c0 0 0 4-4 3 0 0-4-1-3-5 0 0 1-3 5-3 0 0 4 0 5 5 0 0 1 4-1 8s-8 6-11 8c0 0-11 4-14 7 0 0-6 4-3 7l2 1s1 1 2-1l-1 1h-3v-3s1-2 5-1c0 0 2 1 1 4 0 0-1 3-4 3 0 0-3 0-4-2-3-2-3-8-1-10 0 0 2-3 7-5l11-5c4-1 7-3 9-5 0 0 2-2 2-5 0 0 1-3-1-3l-2-1z"/><path fill="none" d="M785 317s2 0 4 3l1 4m1-12s-3 0-1 4c1 4 4 5 5 6"/><path fill="#f5ce00" d="m737 203 1 2 2-1v-1l-2-4s-3-3-10 0l-9 5-10 6s-4 2-11 2c0 0-8 1-12-6 0 0-3-4 0-7l3-1 2 1s2 2 0 4c0 0-2 1-3-2l1 4s5 8 19 0l19-11s10-4 15 3c0 0 5 6-1 11 0 0-4 2-7-2 0 0-2-4 1-6 0 0 3-1 5 2s-3 4-3 1zm-46 72c8-5 10-15 10-15 2-10-2-19-2-19-6-11-15-13-15-13s9 6 12 15c0 0 2 7 0 14l-2 10z"/><path fill="none" d="M732 195s8 0 8 8"/><path fill="#f5ce00" d="M681 281c14-5 18-19 18-19 2-11-2-21-2-21-6-14-17-14-17-14-5 0-6 4-6 4 0 4 2 5 2 5 4 2 6-1 6-1v-4h-2c-2 0-2 2-2 2s0-2 2-3c0 0 4 0 9 5 0 0 6 8 6 19 0 0 1 19-19 24l6 15s4 15 8 22c0 0 6 12 18 7 0 0 8-3 8-8 0 0 0-5-4-6 0 0-5 0-4 4 0 0-1 4 4 3l2-2s-1-2-3-1h2l1 1-1 2h-2s-2 3-5 3c-4 2-7 0-9-1l-4-6-7-17-4-12z"/><path fill="#f5ce00" d="M719 317s-2 0-2 2c0 0 0 4 4 3 0 0 4-1 3-5 0 0-1-3-5-3 0 0-4 0-5 5 0 0-1 4 1 8s8 6 11 8c0 0 11 4 14 7 0 0 6 4 3 7l-2 1s-1 1-2-1l1 1h3v-3s-2-2-5-1c0 0-2 1-1 4 0 0 1 3 4 3 0 0 3 0 4-2 3-2 3-8 1-10l-7-5-12-5-8-5s-2-2-2-5c0 0-1-3 1-3l2-1h-1z"/><path fill="none" d="M719 317s-3 0-4 3l-1 4m-1-12s2 0 1 4-4 5-5 6m36-120s7-4 14 1m-52 41s1-4-4-11l-4-10m10-4 3 9 4 9"/></g><path fill="none" stroke-miterlimit="10" d="M710 248s3 3 2 7m-10-10s2 1 2 9c0 0 0 5 4 8m-7 2s9-1 10 4c0 0 0 5 3 6 0 0 4 0 5 5m-15-9 3 3m8-9 3 5m7-46 4 5m4 12s5 2 4 13c0 0-1 7 1 10"/><path fill="#784421" d="M713 232v2s8 0 12-5v-1s-7-1-12 4z"/><path fill="none" stroke-miterlimit="10" d="m741 274 37-12"/><path fill="#784421" stroke="none" d="m738 224 13-5-13 6z"/></g><g fill="none" stroke-miterlimit="10"><path stroke="#000" d="m739 224 9 44m-7-44 10 43m-9-44 11 43m-6-45 15 33m-13-34 16 33m-15-33 18 32m-21 16 7-2m-12-2 35-12m-35 14s25-7 35-12m-27 33 1 4 4-1-2-4m7-2 1 4 4-1-1-4m-21-23-1-6 34-10 2 5m-22 1 2 5m10-9 2 5m1-6 2 5m1-5 2 4m0-5 3-2 2 4m-3-3 1 4"/><g stroke="#012169"><path d="M695 307s-7-7 0-14c0 0-7-3-6-9m17 28s-6 1-4-12l-4 7c-1 2 0 6 2 7s8 3 10-1m-11-21s-3 2-1 7m4-7s0 5 2 7m0-9s0 6 3 9m-2-10s0 6 5 9m17-1s3-5 7-4c0 0-2 1-2 3 0 0 0 4 4 4 0 0 3 1 5-1"/><path d="M739 320s-12-6-11-14c0 0 1-4 5-7"/><path d="M731 304s-1 4 1 6m2-8s-2 4 1 7m1-9s-1 3 1 6m-11 15s6 5 11 5m-13-4 9 6m-11-4s7 6 11 7m18 5s-7 4-1 8m-3-12 12-6m-9 8 15-8m-9 9 15-10m-9 10 14-10m3-7s-4-5-15 0l12-6m12-22-1 7m-18 13s3-3 9-5c0 0 1 4 6 3 0 0 7-1 5-9 0 0-2-6-10-6m24-10s8 2 8 8c0 0 1 10-10 12"/><path d="M810 287s2-5 7-7m-6-2 4 4m-5-2 2 3m-3 0 2 2m-44-40s2-3 6-2m16 21s2-11 11-7"/><path d="M797 256s0-4-2-7m-4 7v4"/></g></g><path fill="#64b4d1" stroke="#012169" stroke-miterlimit="3" d="M808 362s10-5 7-12c0 0-1-3-3-3 0 0-4 0-3 5 0 0 1 5-1 10z"/><path fill="#fff" d="M812 357s2-2 2-6v-1 1s1 4-2 6z"/><path fill="#64b4d1" stroke="#012169" stroke-miterlimit="3" d="M822 355s7-5 3-12c0 0-1-2-3-1 0 0-4 1-1 7 0 0 2 4 1 6z"/><path fill="#fff" d="M824 345v-1 1s2 2 1 5l-1 1v-1s2-3 0-5z"/><path fill="#64b4d1" stroke="#012169" stroke-miterlimit="3" d="M802 360s-8-2-7-10c0 0 1-4 4-3 0 0 4 1 2 6 0 0-2 3 1 7z"/><path fill="#fff" d="M799 350v6-6z"/><path d="M807 345s4-3 8 0l-3-2s-2-4-6-4l4 4s-2 0-3 2zm3-12 4 4 3-2h-3l-4-2z"/><path fill="none" stroke="#000" stroke-miterlimit="10" d="m793 343 1-3v-1m31-63s4-1 5-4m8-3-3 2-3 1"/><path d="m818 262 4-1s1-1 2 1c0 0 1 2-1 3 0 0-3 1 1 4 0 0-5-2-3-5 0 0 3-1 2-2h-5z"/><path fill="#64b4d1" stroke="#012169" stroke-miterlimit="3" d="m821 205 1-6c0-5 3-5 5-3v4c-1 1-2 3-6 5z"/><path fill="#fff" d="M823 202v-5h1s1 3-1 5c0 0 0 1 0 0 0 0-1 0 0 0z"/><path fill="#64b4d1" stroke="#012169" stroke-miterlimit="3" d="m820 203-3-4c-3-3-1-6 1-6 0 0 2 0 3 3l-1 7z"/><path fill="#fff" d="M819 200s1-3-2-5c0 0 0-1 0 0 0 0 3 2 3 5h-1z"/><path fill="#64b4d1" stroke="#012169" stroke-miterlimit="3" d="m816 202-5-3c-4-2-3-4-1-5 0 0 2-1 3 1s3 4 3 7z"/><path fill="#fff" d="M814 199s-1-2-4-2v-1s4 1 5 3v1l-1-1z"/><path fill="#64b4d1" stroke="#012169" stroke-miterlimit="3" d="m818 204-6-2c-4-2-5 1-5 3 0 0 1 2 4 2l7-3z"/><path fill="#fff" d="M809 205h5s-3 2-6 0h1z"/><path fill="none" stroke="#000" stroke-miterlimit="3" d="M812 191s2 1 2 3"/><path fill="none" stroke="#000" stroke-miterlimit="10" d="M821 191v4"/><path fill="#64b4d1" stroke="#012169" stroke-miterlimit="3" d="m683 205-1-6c1-5-3-5-5-3v4c1 1 2 3 6 5z"/><path fill="#fff" d="m681 202-1-5s0-1 0 0c0 0-1 3 1 5 0 0 0 1 0 0z"/><path fill="#64b4d1" stroke="#012169" stroke-miterlimit="3" d="m684 203 3-4c3-3 0-6-1-6 0 0-2 0-3 3 0 2-1 4 1 7z"/><path fill="#fff" d="M684 200s0-3 3-5c0 0 0-1 0 0 0 0-3 2-3 5z"/><path fill="#64b4d1" stroke="#012169" stroke-miterlimit="3" d="m688 202 4-3c3-2 3-4 2-5 0 0-2-1-4 1l-2 7z"/><path fill="#fff" d="M690 199s0-2 4-2v-1s-4 1-5 3v1l1-1z"/><path fill="#64b4d1" stroke="#012169" stroke-miterlimit="3" d="m686 204 5-2c4-2 6 1 5 3 0 0 0 2-3 2-2 0-5-1-7-3z"/><path fill="#fff" d="M695 205h-6 1s3 2 5 0c0 0 1 0 0 0z"/><path fill="none" stroke="#000" stroke-miterlimit="3" d="M691 191s-2 1-1 3"/><path fill="none" stroke="#000" stroke-miterlimit="10" d="M683 191v4"/><path d="M770 168v7c0 3 1 4 2 4 1 1 3 0 3-2 0 0 3 5-2 8 0 0-4 2-7-1l-1-6v-7s2 2 1 6c0 0-1 8 5 7 0 0 4 0 4-4l-4 1-2-4 1-9zm-7 13s0 6-6 7v-4l-1-4s-2 1 0 5v5s9-1 7-9zm-7-6-1-5c0-4-1-4-2-5l1 5v4s-3 0-5-4c-1-4-3-4-4-4l3 4c2 4 3 5 8 5zm-14-9 2 6s-4-1-5-5c0 0-5 2-3 7 0 0-4-2-6-5l4 3s0-4 5-6c0 0 1 4 4 5l-1-5zm7-7s1 2 4 2l4-2s0 3-4 3c0 0-4 0-4-3zm-18 24 3 2s1 2 2 0c0 0 2-3 4-3l-3 4-2 1-2-1-2-3zm22-39c-4 0-1 4-1 4 0 5-4 6-7 5-3-2 0-5 0-5s-4 2-2 5 8 2 10-1c2 3 7 4 9 1s-1-5-1-5 2 3 0 5c-3 1-8 0-7-5 0 0 3-4-1-4zm2-5s2 2 2 6c0 0 1-4-2-6zm-13 6s0-3-3-3c0 0 3 1 3 3zm21 0s1-3 3-3l-3 3zm-25 4s2 1 4-1l-4 1zm-7-17s3 0 5 3l-3 2 1-2s0-2-3-3zm42 0s-2 0-5 3l3 2-1-2s0-2 3-3zm-19 3 5-1s3-2 5 0c0 0-2-1-5 1 0 0-4 2-5 0z"/><path fill="#fff" d="M756 137s2-3 8-3c0 0-2 5-8 3z"/><circle cx="760" cy="136" r="1" fill="#784421"/><circle cx="760" cy="136" r="1"/><path d="m744 130 5 1s3 2 6 0l4-4-6 3-2-3 3-3s-4 1-4 4l2 3-3-1h-5zm9 22c-3 3 0 2 0 2s3 1 0-2zm-2-17-5-1s-3-2-6 0c0 0 2-1 6 1 0 0 4 2 5 0z"/><path fill="#fff" d="M749 137s-2-3-8-3c0 0 2 5 8 3z"/><circle cx="745" cy="136" r="1" fill="#784421"/><circle cx="745" cy="136" r="1"/><path fill="none" stroke="#000" stroke-width="2" d="M866 107v211c0 57-113 75-113 75s-113-18-113-75V107z"/><path id="path-b7496" d="m m0 77 m0 65 m0 65 m0 65 m0 65 m0 65 m0 65 m0 65 m0 65 m0 65 m0 65 m0 65 m0 65 m0 65 m0 65 m0 65 m0 65 m0 65 m0 65 m0 65 m0 79 m0 88 m0 56 m0 56 m0 117 m0 50 m0 78 m0 51 m0 101 m0 75 m0 100 m0 49 m0 53 m0 75 m0 120 m0 76 m0 81 m0 116 m0 117 m0 50 m0 50 m0 57 m0 97 m0 100 m0 99 m0 106 m0 117 m0 89 m0 73 m0 69 m0 56 m0 49 m0 119 m0 50 m0 74 m0 82 m0 118 m0 53 m0 109 m0 49 m0 112 m0 50 m0 51 m0 72 m0 119 m0 116 m0 53 m0 113 m0 98 m0 114 m0 68 m0 65 m0 69 m0 113 m0 88 m0 68 m0 75 m0 75 m0 69 m0 77 m0 52 m0 81 m0 116 m0 90 m0 70 m0 119 m0 61 m0 61"/>
</svg>