<?xml version="1.0"?>
<svg width="512" height="512" viewBox="0 0 32 32" xmlns="http://www.w3.org/2000/svg">
<path d="m0 0h32v32h-32z" fill="#f00"/>
<path d="m13 6h6v7h7v6h-7v7h-6v-7h-7v-6h7z" fill="#fff"/>
<path id="path-b7172" d="m m0 82 m0 81 m0 65 m0 65 m0 65 m0 65 m0 65 m0 65 m0 65 m0 65 m0 65 m0 65 m0 65 m0 65 m0 65 m0 65 m0 65 m0 65 m0 65 m0 65 m0 78 m0 121 m0 77 m0 66 m0 65 m0 77 m0 99 m0 111 m0 114 m0 43 m0 100 m0 74 m0 67 m0 99 m0 73 m0 48 m0 49 m0 106 m0 86 m0 98 m0 56 m0 48 m0 98 m0 106 m0 84 m0 77 m0 47 m0 103 m0 75 m0 68 m0 87 m0 87 m0 65 m0 122 m0 90 m0 43 m0 43 m0 66 m0 70 m0 110 m0 48 m0 75 m0 48 m0 65 m0 57 m0 105 m0 47 m0 98 m0 50 m0 105 m0 70 m0 103 m0 48 m0 57 m0 71 m0 97 m0 79 m0 122 m0 111 m0 83 m0 122 m0 54 m0 71 m0 51 m0 113 m0 119 m0 61 m0 61"/>
</svg>
