<svg xmlns="http://www.w3.org/2000/svg" xml:space="preserve" width="1400" height="700" style="enable-background:new 0 0 1000 700"><path d="M0 0h1000v700H0V0z" style="fill:#d50032"/><path d="M0 0h680v700H0V0z" style="fill:#fedd00"/><path d="M0 0h320v700H0V0z" style="fill:#10069f"/><path d="M469 188c12 0 17 11 29 11 8 0 12-3 19-6 4-3 7-4 12-4 6 0 9 1 12 6l2 10-5 13-2 7c0 6 9 9 15 9 1 0 12 0 19-7-4 0-8-3-8-6 0-5 3-7 7-9l3 1 1-3 6-2 4 1 1 1 5-1 3 1c1 0 1 2 3 2l5-1c4 0 5 1 8 4l1 2a10 10 0 0 1 8 4l1 3 3 1c3 2 4 4 5 8l-1 3c-3 10-10 13-17 22-3 4-6 7-6 12l2 4c0-2 1-5 3-5 4 0 6 2 7 6l-1 2 6-2h3c6 0 11 3 15 6 11 9 12 23 11 26-1 9 0 23-21 29 4 2 6 5 6 9 1 4-3 7-7 7l-5-2c-4 4-5 9-5 15l2 9c2 4 3 6 6 8 2-2 3-4 6-4s5 1 6 4l1 2 2 2v4l2 2 1 4c0 5-4 8-9 8h-4l7 7a28 28 0 0 1 5 16c0 7-1 11-5 18-3 6-5 9-11 13-8 6-14 8-25 10l-17 2-22 1c-11 1-19 3-27 11 4 2 7 5 7 10s-3 8-8 9l-3 1-2 3-6 1c-4 0-7-1-10-4l-8 8-4 2c-2 0-3-2-5-3l-7-7c-4 3-6 4-10 4l-6-1-2-3-4-1c-5-2-8-5-8-11 0-4 3-7 7-9-7-8-15-9-26-10l-22-1-17-2-13-3c-16-8-26-18-28-36l-1-3c0-10 4-15 11-22h-5c-4-1-7-4-7-9l1-4 2-2v-4l2-2c2-3 3-5 7-5 2 0 4 2 5 4 3-1 4-3 5-6 3-4 4-7 4-12l-1-9c-1-2-1-4-3-5l-6 2c-4 0-8-4-7-8-1-4 1-6 4-8l-7-4c-4-2-6-5-8-9l-3-7a29 29 0 0 1-2-13c1-7 3-12 7-18 3-4 5-6 9-8l10-2h3l5 1 1 1v-2c0-4 2-7 5-7s4 2 5 4l1-3c0-5-3-8-6-12-7-10-17-14-17-25 0-4 2-6 5-8l3-1 1-2 2-2c2-2 4-1 5-3l2-2c2-2 4-4 7-4l4 1 2 1 2-2 4-1 4 1 2-1 4-1 4 1 3 3 3 1c4 1 7 4 7 8l-2 5c-2 2-3 1-5 2 6 4 11 6 18 6 6 0 14-3 14-10l-2-7c-3-5-4-8-4-14 0-4 1-7 3-10 3-4 6-5 10-5z" style="fill:#c6aa76"/><path d="M426 223c0 2 2 4 3 4 3 1 5 0 6-2a7 7 0 0 0-1-10l-8 8z" style="fill:none;stroke:#713f2a;stroke-width:1.041;stroke-linejoin:round"/><path d="M627 344c-2-5-7-3-7 0-1 6 4 7 8 6 1 0 3-1 3-3 1-1 2-3 1-5l-3-5-5-1c-9 0-17 10-19 21-2 6-2 13-1 19 2 7 5 13 9 18a39 39 0 0 0 16 9h6c5-1 8-6 5-11-2-4-8-6-11-1l-1 2 2 4c2 1 5 1 5-3" style="fill:none;stroke:#713f2a;stroke-width:1.0369999;stroke-linecap:round"/><path d="M600 403c2-3 6-5 10-6 5 0 9 1 13 3a29 29 0 0 1 17 27c0 6-2 12-3 15-2 2-5 14-24 22-11 4-29 5-40 6-17 0-32 1-40 12" style="fill:none;stroke:#713f2a;stroke-width:1.276"/><path d="M604 421c-1-1 0-3 1-5 2-2 6-3 9-1l4 3 2 3 2 3c4 11-3 23-11 28-6 4-13 5-22 6l-10 1h-26l-12 1-9 2h-3l-2 1a62 62 0 0 0-19 9l-2 2c-3 3-6 6-7 11v2c0 3 3 7 9 8m8-266c2 2 2 4 2 6-1 3-3 5-6 5-6 0-10-8-7-12 5-9 15-4 23 0l-1-5c1-7 5-10 7-16 1-4 2-7-1-9-2-3-5-3-8-1-6 2-13 9-26 9-12 0-20-7-26-9-3-2-5-2-8 1-2 2-2 5-1 9 2 6 7 9 7 16l-1 5c9-4 19-9 24 0 2 4-1 12-7 12-3 0-5-2-6-5-1-2 0-4 1-6" style="fill:none;stroke:#713f2a;stroke-width:1.1210001"/><path d="M492 225c2 2 4 4 3 8 0 4-1 5-4 7m4-6c0 2-2 4-4 5" style="fill:none;stroke:#713f2a;stroke-width:1.1210001;stroke-linecap:round"/><path d="m432 214 1 1 2 2v1l1 1v3l-1 2v1l-1 1h-2l-1 1h-2l-1-1-2-1-1-1v-2l7-8z" style="fill:#c6aa76"/><path d="M430 221c0-3-3-4-5-2-1 2 0 6 4 7 2 1 4 0 6-2a7 7 0 0 0-2-9c-5-4-11-3-14 3-3 7 4 12 10 16 7 5 15 6 22 6 14-1 25-7 32-11h4v4" style="fill:none;stroke:#713f2a;stroke-width:1.041;stroke-linecap:round"/><path d="m388 414-4 2-3 2-1 2-2 3-1 2v3l-1 2m30-15v2l-1 2-1 4-2 3-3 1-1 1-3 1" style="fill:none;stroke:#713f2a;stroke-width:1.057"/><path d="M500 489c-1 3-3 6-9 7h-1" style="fill:none;stroke:#713f2a;stroke-width:1.197"/><path d="M632 407a28 28 0 0 1 8 21c0 5-1 11-3 14-1 3-5 14-24 22-11 5-28 6-40 6-16 1-31 2-39 12" style="fill:none;stroke:#713f2a;stroke-width:1.3559999"/><path d="M605 417c2-2 6-4 9-2l4 3" style="fill:none;stroke:#713f2a;stroke-width:.929"/><path d="m628 403 2 1h6c4-2 7-6 5-11l-3-3" style="fill:none;stroke:#713f2a;stroke-width:1.3559999"/><path d="M375 287c-3 2-5 2-7 5l-4 11m72-81c0 3-2 4-5 5" style="fill:none;stroke:#713f2a;stroke-width:1.041;stroke-linecap:round"/><path d="M620 275c8 0 29 6 30 31 0 25-16 29-22 31" style="fill:none;stroke:#713f2a;stroke-width:.997"/><path d="M622 275c13-1 26 9 27 32 0 19-13 27-19 29" style="fill:none;stroke:#713f2a;stroke-width:1.0369999"/><path d="m615 363 1-2v-4l2-3 1-3 2-2m12-5v2l-1 2-1 1-1 1-2 1h-3m-23-83 1-2 1-3 2-2 2-3 2-3 4-3 2-3 2-2 3-3 2-3 1-3 1-3v-6m-20 200h3l2-1 1-1 1-1v-4m-247-19 2 1 2-1 3-1m7-57v4h-1l-1 1-1 1h-3m16-24-1 3v2l-2 1-2 2-2 1-3 1m24-63-1 3-1 1-1 2-2 1-2 1h-2m0-9v1" style="fill:none;stroke:#713f2a;stroke-width:.881"/><path d="m397 325-3 2m235 70h1c2 2 7 0 5-3" style="fill:none;stroke:#713f2a;stroke-width:.987;stroke-linecap:round"/><path d="M622 349c1 2 4 3 6 2 2 0 3-1 4-3 1-1 2-4 1-5l-1-3-3-2v-1m10 53c0-2 0-4-2-5l-1-1m0 0c0-3-2-5-5-5m-6 4-3-2c-4-4-6-10-6-16 0-7 2-13 5-16m-88 132 3-2 2-2 3-2 4-1 2-1 5-1 6-1m-46 30c-2 3-7 8-12 10-5-2-10-7-12-10" style="fill:none;stroke:#713f2a;stroke-width:.987"/><path d="m491 495-3 6" style="fill:none;stroke:#713f2a;stroke-width:.987;stroke-linecap:round"/><path d="m492 491-1 4m-4 6-1 2-3 1-3 1m-9-278 1-4c0-6-5-9-7-15-1-4-1-7 1-9 2-3 5-3 8-2 6 3 13 10 26 10-13 0-20-7-26-10-3-1-6-1-8 1-3 3-2 6-1 10 2 6 7 9 7 15l-1 4m29-21c13 0 23-9 27-9 3-1 5-1 7 1-2-2-5-2-8-1-6 3-13 10-26 10m125 176c-6-4-10-11-10-19 0-7 2-13 5-16M511 501c-2 3-7 8-12 9-5-1-10-6-12-9" style="fill:none;stroke:#713f2a;stroke-width:.987"/><path d="m479 231 4-2h4v4" style="fill:none;stroke:#713f2a;stroke-width:.987;stroke-linecap:round"/><path d="M460 239c9-1 16-5 21-8m51 256 1 2v1a3 3 0 0 1-3 4c-2 1-4-1-5-3m-65-252c9-2 16-6 21-9m152 167h-4l-3-1c-4-3-9-6-13-15a29 29 0 0 1-3-22c1-5 3-10 7-14 1-2 3-4 6-4m-224-61c3 2 4 5 4 9 0 5-4 13-14 15-3 1-7 1-10-1" style="fill:none;stroke:#713f2a;stroke-width:.987"/><path d="M400 296c2 1 3 3 3 5l-3 6c-3 4-8 6-14 6-3 1-6 0-9-2s-5-5-6-9m29 5c2 2 3 4 3 7 0 4-2 7-6 11l-3 2m202-34v5m0-7v8m0-25v11m0-13v14m-3 128c-2 4-4 7-7 9-2 3-5 5-9 6l-10 4-11 1h-10l-10-1a83 83 0 0 0-18 0l-8 2-10 6-10-6-8-2-9-1-9 1-10 1a74 74 0 0 1-21-1 39 39 0 0 1-20-11m66 83h3m47-4h3l2-1 2-1 3-3v-1l1-3v-1m73-214c1-4 0-8-4-8m-206 73c-1 3-3 5-6 7m6-73c-1 3-3 5-6 6-3 2-6 0-8-1" style="fill:none;stroke:#713f2a;stroke-width:.987"/><path d="M381 291c2 1 5 0 4-3 0-2-2-4-4-4" style="fill:none;stroke:#713f2a;stroke-width:.987;stroke-linecap:round"/><path d="m391 423 1 1c1 0 2 1 3-1 1-1 1-4-1-6s-6-3-9-1l-4 3-2 2-1 4c-3 9 0 19 6 25" style="fill:none;stroke:#713f2a;stroke-width:.987"/><path d="m532 487 1 1v2a3 3 0 0 1-3 4c-2 0-5-1-5-3" style="fill:none;stroke:#713f2a;stroke-width:.987;stroke-linecap:round"/><path d="M609 217c5 1 9 5 9 11 0 7-2 9-6 14-4 6-16 15-16 26 0 7 2 11 6 13 3 2 7 0 9-1 4-4 2-10-2-11-5-1-6 7-1 7m28 108a6 6 0 0 0-12 0l2 5m-26-109c-3 2-4 5-4 9 0 5 4 13 14 15h9m-243-16-8 5a26 26 0 0 0-3 20l3 9a12 12 0 0 0 4 3m100 144c7 3 13 6 18 13l1 8c0 4-1 9-5 12-3 2-6 4-10 3-3 0-6-2-7-4m-72-176c4 4 6 7 6 12s-2 9-6 12" style="fill:none;stroke:#713f2a;stroke-width:.987"/><path d="M393 344c6 8 10 13 10 22s-3 15-8 22" style="fill:none;stroke:#713f2a;stroke-width:.987;stroke-linecap:round"/><path d="m515 240 3-4-1-6c2 2 2 4 1 6l-2 4m80 134v25a38 38 0 0 1 0 7m0-34v27a38 38 0 0 1-1 8m1-67v23m0-21v18m0-42v14m0-15v17m0-30v5m0-6v8m-3 102v1l-7 9-9 6c-3 2-7 3-10 3l-11 2-10-1-11-1a83 83 0 0 0-17 0c-3 1-6 1-8 3-5 1-9 4-10 6-1-2-6-5-10-6l-8-3h-18l-11 1a74 74 0 0 1-20-1 39 39 0 0 1-23-14m-4-5c1 5 0 9-3 12-1 2-4 4-8 4-6 0-8-4-8-5" style="fill:none;stroke:#713f2a;stroke-width:.987"/><path d="M399 411c2 1 3 2 3 4 2 2 1 7 0 9v1m-32 28c4 4 9 8 17 11 11 5 28 6 40 6 16 1 30 2 39 11m27-6c3 3 6 5 7 9m-12 18c-3 3-7 4-11 4-3 0-5-2-7-4m-8-5v1c2 2 5 4 8 4m42 0c-2 3-7 7-12 9-5-2-10-6-12-9v-1m24 1 1 1c3 2 7 3 11 3 2 0 5-2 6-4l1-1" style="fill:none;stroke:#713f2a;stroke-width:.987"/><path d="m530 501-1 2-2 1-3 1-2 1" style="fill:none;stroke:#713f2a;stroke-width:.987"/><path d="m536 483 4 5v3c1 3 0 5-2 7a12 12 0 0 1-9 4m0-1c-3 0-6-1-8-3m100-106a37 37 0 0 1-10-17l-1-5a40 40 0 0 1 7-24l3-4m-2-118c4 0 8 4 8 9 0 6-2 8-7 14-4 5-17 14-16 23l2 4m-5 6 3 2c2 1 4 1 6-1m-33-67 4 4c3 7-4 12-9 16-4 3-9 5-13 5" style="fill:none;stroke:#713f2a;stroke-width:.987"/><path d="M570 227c-2 0-4 0-5-2l-1-1m-24 7-2-1c-1-2-2-5-1-7 1-3 6-11 6-17 0-9-3-14-8-16" style="fill:none;stroke:#713f2a;stroke-width:.987"/><path d="m543 204-1 3v4l-2 4-1 3-2 3-1 2v3m60 197 1 2c1 1 5 4 8 4 6 0 8-4 8-5 0-4-1-5-3-7h-3" style="fill:none;stroke:#713f2a;stroke-width:.987;stroke-linecap:round"/><path d="M370 404h-6c-4-2-8-6-6-11m21-50 1 2c1 6-4 7-8 6-2 0-4-2-5-3l-1-4m35-37 2 3m-2-13 2 2" style="fill:none;stroke:#713f2a;stroke-width:.987"/><path d="m403 304-3 4c-3 4-8 6-13 6a16 16 0 0 1-16-12" style="fill:none;stroke:#713f2a;stroke-width:.987;stroke-linecap:round"/><path d="m399 280 4 5" style="fill:none;stroke:#713f2a;stroke-width:.987"/><path d="M403 293c-2 6-7 10-14 12-3 1-8 0-10-2" style="fill:none;stroke:#713f2a;stroke-width:.987;stroke-linecap:round"/><path d="M375 291c0 5 3 8 8 8 8 0 12-11 6-18" style="fill:none;stroke:#713f2a;stroke-width:.987"/><path d="m359 327 3 4 9 5m9 1c6-1 10-6 9-11 0-5-4-8-7-8" style="fill:none;stroke:#713f2a;stroke-width:.987;stroke-linecap:round"/><path d="M390 269a4 4 0 0 1 5 5" style="fill:none;stroke:#713f2a;stroke-width:.987"/><path d="M390 230c1 4 4 7 8 9m225 48c3 4 1 11-7 11-2 0-5-1-6-4" style="fill:none;stroke:#713f2a;stroke-width:.987;stroke-linecap:round"/><path d="M596 239v25" style="fill:none;stroke:#713f2a;stroke-width:.987"/><path d="M381 291c2 2 5-1 4-4-1-2-4-4-8-1s-3 12 6 12c7 0 11-11 5-18s-18-6-25 0a33 33 0 0 0-12 26c0 7 2 13 5 19l2 2 3 3c5 4 10 6 17 6s11-5 10-11c0-6-6-9-10-6-3 1-4 7 1 9 2 0 5-3 3-5m202-112c5-3 8-2 10 1 3 3 3 7 3 11-1 5-2 6-6 9" style="fill:none;stroke:#713f2a;stroke-width:.987;stroke-linecap:round"/><path d="M595 213c4-4 10-2 12 2 3 3 3 6 3 10 0 6-4 11-9 14" style="fill:none;stroke:#713f2a;stroke-width:.987;stroke-linecap:round"/><path d="M617 224c4 0 7 4 7 8 0 6-1 8-6 14-4 5-17 14-16 23 0 3 3 6 5 7" style="fill:none;stroke:#713f2a;stroke-width:.987"/><path d="M618 291c-3 2-5-1-4-4 1-2 3-4 7-1s3 12-5 12c-7 0-12-10-5-18 6-7 18-6 26 0 3 3 9 9 10 19 2 11 2 24-9 33-5 3-11 4-17 4-7 0-11-5-11-11 1-6 7-9 11-6 4 2 3 8-1 9-3 0-5-3-3-5" style="fill:none;stroke:#713f2a;stroke-width:.987;stroke-linecap:round"/><path d="M614 287c1-5 6-6 10-6 10 1 17 13 17 25 0 15-6 23-17 24-3 0-8-1-8-5" style="fill:none;stroke:#713f2a;stroke-width:.987"/><path d="M620 285c11 2 15 12 15 21 0 8-1 18-16 22" style="fill:none;stroke:#713f2a;stroke-width:.987;stroke-linecap:square"/><path d="M638 390a6 6 0 1 0-10 3" style="fill:none;stroke:#713f2a;stroke-width:.987"/><path d="m616 380 10 10m-2 16c-5-3-15-8-24-3-3 1-5 3-6 6-2 6-1 11 3 15 1 2 4 4 7 5 6 0 8-5 8-5 1-5-2-6-3-7-1 0-5 0-5 2v3" style="fill:none;stroke:#713f2a;stroke-width:.987;stroke-linecap:round"/><path d="M532 488c2 4 0 5-2 5-4 1-6-2-6-4a7 7 0 0 1 7-8c3 1 6 3 8 6l1 4-3 6c-2 2-5 4-8 4-7 0-12-6-12-12 0-12 18-19 25-21 9-2 14-2 28-3l16-1 14-2c7-2 14-5 20-10 4-4 7-7 9-13 2-5 3-14-2-22-4-5-10-9-16-10s-11 1-14 7c-2 3-1 8 0 10 1 3 4 4 7 5 6 0 8-5 8-5 1-5-2-6-3-7-1 0-5 0-5 2v3" style="fill:none;stroke:#713f2a;stroke-width:.987;stroke-linecap:round"/><path d="M527 469c-8 3-13 6-18 13l-2 8c0 4 2 9 5 12 3 2 7 4 11 3 3 0 6-2 6-4" style="fill:none;stroke:#713f2a;stroke-width:.987;stroke-linecap:round"/><path d="M602 325c-4 1-6 7-6 12-1 5 2 9 6 12" style="fill:none;stroke:#713f2a;stroke-width:.987"/><path d="M606 344c-7 8-10 13-10 22-1 9 2 15 8 22" style="fill:none;stroke:#713f2a;stroke-width:.987;stroke-linecap:round"/><path d="M572 213v-1c3-4 7-5 11-3 4 4 5 9 4 14-1 4-3 7-6 9" style="fill:none;stroke:#713f2a;stroke-width:.987"/><path d="M414 211c-4-2-7-2-10 1-3 4-3 9-2 11 1 5 2 6 5 9" style="fill:none;stroke:#713f2a;stroke-width:.987;stroke-linecap:round"/><path d="M404 213c-5-4-10-2-13 2-2 3-3 6-2 10 0 6 3 11 9 14" style="fill:none;stroke:#713f2a;stroke-width:.987"/><path d="M390 217c-5 0-9 5-9 10 0 7 1 10 5 15 4 6 17 15 17 26 0 7-2 11-7 13-3 2-6 0-8-1-4-4-3-10 2-11s6 7 1 7" style="fill:none;stroke:#713f2a;stroke-width:.987"/><path d="M381 224c-4 0-8 3-8 8 0 6 3 8 8 14 4 5 15 14 15 23 0 3-2 7-4 7" style="fill:none;stroke:#713f2a;stroke-width:.987"/><path d="M372 344c2-5 7-3 7 0 1 6-4 7-8 6-2 0-3-1-4-3a8 8 0 0 1 1-8l2-2 5-1c9 0 16 10 19 21 1 6 2 13 0 19-1 7-4 13-9 18a39 39 0 0 1-15 9h-6c-5-2-8-6-5-11 1-4 8-6 11-1l1 2-2 4c-2 1-6 1-6-3" style="fill:none;stroke:#713f2a;stroke-width:.987;stroke-linecap:round"/><path d="M365 397h5l3-1c4-3 8-6 13-15a29 29 0 0 0 2-22c-1-5-3-10-6-14-2-2-3-4-7-4m-14 49a6 6 0 1 1 9 3" style="fill:none;stroke:#713f2a;stroke-width:.987"/><path d="M363 384a6 6 0 0 1 11 1l-1 4m1-6a24 24 0 0 0 4-35" style="fill:none;stroke:#713f2a;stroke-width:.987"/><path d="M382 380c-2 4-5 7-9 10" style="fill:none;stroke:#713f2a;stroke-width:.987;stroke-linecap:round"/><path d="M398 403c-2-4-5-5-9-6-5 0-9 1-13 3a29 29 0 0 0-17 27l3 15c2 2 5 13 24 21 11 5 28 6 40 6 17 1 32 2 40 12" style="fill:none;stroke:#713f2a;stroke-width:.987"/><path d="M375 406c5-3 14-8 23-3 3 1 6 3 7 6 2 6 0 11-3 15-1 2-4 4-8 5-6 0-7-5-7-5-1-5 2-6 3-7 1 0 4 0 5 2v3" style="fill:none;stroke:#713f2a;stroke-width:.987;stroke-linecap:round"/><path d="m395 421-1-5c-3-2-7-3-10-1l-4 3-1 3-2 3c-4 11 2 23 10 28 7 4 14 6 23 6l10 1h26l12 1 8 2h3l2 1a62 62 0 0 1 19 9l2 2c3 3 6 6 7 11v2c0 3-2 7-8 8" style="fill:none;stroke:#713f2a;stroke-width:.987"/><path d="M467 488c-2 4 0 5 2 5 3 1 5-2 5-4a7 7 0 0 0-6-8c-4 1-7 3-8 6l-1 4 2 6c2 2 6 4 9 4 6 0 11-6 11-12 0-12-17-19-24-21-9-2-14-2-28-3l-16-1-14-2c-8-2-14-5-20-10-5-4-7-7-9-13-2-5-3-14 2-22 3-5 9-9 16-10 6-1 11 1 14 7v10c-2 3-5 4-8 5-6 0-7-5-7-5-1-5 2-6 3-7 1 0 4 0 5 2v3" style="fill:none;stroke:#713f2a;stroke-width:.987"/><path d="m427 213-1-1c-2-4-7-5-10-3-4 4-5 9-4 14 1 4 3 7 6 9" style="fill:none;stroke:#713f2a;stroke-width:.987;stroke-linecap:round"/><path d="M573 224c-6 7-13 9-22 10-3 0-9-1-12-4-2-1-4-4-3-8 1-3 6-11 6-17 1-9-3-14-8-16-10-3-20 7-27 9l-8 1-8-1c-6-2-17-12-26-9-6 2-9 7-9 16 1 6 5 14 6 17 2 4-1 7-3 8-3 3-8 4-11 4-10-1-16-3-22-10" style="fill:none;stroke:#713f2a;stroke-width:.987"/><path d="m465 466 8 3c7 4 13 7 17 14 2 3 2 5 2 8v4" style="fill:none;stroke:#713f2a;stroke-width:.987;stroke-linecap:round"/><path d="m465 500 5 1c7 1 12-6 12-12 0-4-2-8-6-11" style="fill:none;stroke:#713f2a;stroke-width:.987"/><path d="M467 488c-2 4 0 6 2 6a5 5 0 0 0 6-5c0-2-1-5-3-6" style="fill:none;stroke:#713f2a;stroke-width:.987;stroke-linecap:round"/><path d="M610 217c5 0 9 5 9 11 0 7-4 11-6 14l-7 7" style="fill:none;stroke:#713f2a;stroke-width:.987"/><path d="m604 212 4 3c2 4 3 6 2 10 0 7-5 11-9 14m-7-27 1 1c3 3 3 8 2 11-1 4-2 6-6 8m-8-22c4 3 6 8 4 14-1 4-3 6-6 8m17 64 2 3c3 3 6 5 10 6 3 1 7 0 10-2m-255 85c2 0 4 1 5 3l1 3-2 3c-2 2-6 1-6-3" style="fill:none;stroke:#713f2a;stroke-width:.987;stroke-linecap:round"/><path d="M377 336c8 2 15 11 18 21v19a35 35 0 0 1-12 21l-2 1m-12-19c3 0 6 3 6 6l-2 4" style="fill:none;stroke:#713f2a;stroke-width:.987"/><path d="M367 382c3 1 6 3 6 7l-2 5" style="fill:none;stroke:#713f2a;stroke-width:.987"/><path d="m397 349 6 12m0 14a27 27 0 0 1-8 13" style="fill:none;stroke:#713f2a;stroke-width:.987;stroke-linecap:round"/><path d="M397 326c3 1 5 4 6 7" style="fill:none;stroke:#713f2a;stroke-width:.987"/><path d="m403 318-5 7m-15-27 4-1 2-1 1-2 1-3 1-2" style="fill:none;stroke:#713f2a;stroke-width:.987;stroke-linecap:round"/><path d="m377 286-4 2-6 4a26 26 0 0 0-3 20 25 25 0 0 0 5 11c2 2 4 3 7 3" style="fill:none;stroke:#713f2a;stroke-width:.987"/><path d="M395 272c0 2-1 4-4 4" style="fill:none;stroke:#713f2a;stroke-width:.987;stroke-linecap:round"/><path d="M384 285c-3-3-10-4-16 1l-2 1-3 3a28 28 0 0 0-3 8l-1 10v4l4 9c1 3 5 8 12 9 3 0 7-1 8-5" style="fill:none;stroke:#713f2a;stroke-width:.987"/><path d="M568 220c1-2 4-3 5-1 2 2 1 6-3 7-2 1-5 0-6-2a7 7 0 0 1 2-9c4-4 11-3 13 3 3 7-3 12-9 16-7 5-16 6-22 6-14-1-25-7-32-11h-4v4" style="fill:none;stroke:#713f2a;stroke-width:.987;stroke-linecap:round"/><path d="m571 218 3 1c1 3 0 7-4 8m28 80c-5 6 0 16 4 19l3 1" style="fill:none;stroke:#713f2a;stroke-width:.987;stroke-linecap:round"/><path d="M599 296c-2 1-3 3-3 5l2 6c3 3 9 6 15 6l9-3c3-1 5-4 6-8m-32 97-1 3a33 33 0 0 1-19 27l-10 3-11 1h-9l-11-1a83 83 0 0 0-18 0l-8 2-10 6-10-6-8-2-9-1-8 1-11 1a74 74 0 0 1-21-1 38 38 0 0 1-19-10 33 33 0 0 1-10-23V240h193v159z" style="fill:none;stroke:#713f2a;stroke-width:.987"/><path d="M387 421a4 4 0 0 1 8 0 4 4 0 0 1-8 0zm-24-27c0-2 2-4 3-4s3 2 3 4-1 3-3 3-3-1-3-3z" style="fill:#c6aa76;stroke:#c7b37f;stroke-width:.513"/><path d="M377 324a3 3 0 1 1 3 3c-2 0-3-1-3-3zm48-102a2 2 0 1 1 3 2c-2 0-3-1-3-2z" style="fill:#c6aa76"/><path d="m374 341-2 2-1 2m8 41 1-1 1-2 1-1 1-2m-2 22-2 1a24 24 0 0 0-4 2l-2 1m24-59-2-1-1-1-2-2" style="fill:none;stroke:#c7b37f;stroke-width:.987;stroke-linecap:round"/><path d="m397 326-2 1-2 1" style="fill:none;stroke:#c7b37f;stroke-width:.987"/><path d="m371 301 1 2 1 3a13 13 0 0 0 4 4l3 1m-2-9 2 1 2 1h5m12-64-4-2a19 19 0 0 1-4-4l-2-2m12-7 1 2 2 4 5 3m2-9 1 2 1 2 2 2 3 2" style="fill:none;stroke:#c7b37f;stroke-width:.987;stroke-linecap:round"/><path d="M521 212c0-3-3-3-4-3-3 0-4 2-7 4-5 2-7 3-11 3s-6-1-10-3-4-4-7-4a4 4 0 0 0-4 4v1l1 1 1-3 2-1c3 0 4 1 8 3 4 3 6 3 10 3s6 0 11-3c3-2 4-4 7-4l2 2v2l1-2z" style="fill:#713f2a;stroke:#713f2a;stroke-width:.277"/><path d="m413 434 2-1h-2l-1-1h-1l1 2-1 2-5 5v-10h2l-1-1h-2l-1-1h-1l1 2v13l1-1 8-9z" style="fill:#713f2a"/><path d="m418 436 2-1h-1l-2-1-2-1c-1 1 1 1 1 3l-3 8-1 2c-1 0-1 0 0 0h1l3 1-1-2 3-9zm6 2 1-1c2 1 2 2 2 4-1 1-1 2-3 1h-1l1-4zm-5 8c0 2-2 1-2 1l1 1 2 1h2l-1-2 1-3 1-1 1 1 1 4 1 2h2l-1-1-1-5 1-1 2-2c0-1 1-3-3-4l-3-1-2-1h-1c0 1 2 1 2 3l-3 8zm13 3c0 3-2 1-2 2l1 1h2l2 1 1-1s-2 0-1-2l1-8 2-1h1c2 0 1 2 1 3l1-1v-3l-5-1-5-1-1 3c1 1 1-2 3-1h1v1l-2 8zm20-5 2-1h-2l-2-1c-1 1 1 1 1 2l-1 3-3 5h-1l-1-7v-2l1-1v-1h-5 1l1 2 2 11v1h1l6-11zm1 11 1 1 2 1c2 0 4-1 5-4 0-2-1-3-3-4s-2-2-2-3a2 2 0 0 1 2-2c3 1 2 4 3 4l1-3-1-1v1l-3-2c-2 0-3 1-4 4 0 2 1 2 2 3 3 2 4 3 3 4a2 2 0 0 1-2 2c-2 0-3-2-3-4h-1c0-1 0 0 0 0v3zm25-7 1-1v-1h-4c0 1 2 0 2 2l-1 2-3 6-2-6v-3l1-1h-3l-1-1-1 1 1 1 3 11 1 1h1l5-11zm3 9c0 2-2 2-2 2v1l2-1 2 1 1-1c0-1-3 1-3-3v-6l1-1v1l8 9v1l1-1v-10l1-2v-1h-4v1s2 0 2 2v7l-1-1-7-8v-1h-3v1c0 1 2-1 2 3v7zm16-8 1-2h-5s2 0 2 2v9l-2 2h6c0-1-2 0-2-2v-9zm7 8c0 2-2 2-2 2l1 1h4l1-1s-2 0-2-2v-8l1-1h1c2-1 2 2 2 2v-4l-5 1h-6v3c1 0 1-2 3-2h1l1 1v8zm10-3h-1v-1l1-3v-1h1l1 4v1h-2zm3 1 1 1v1l-1 2h5v-1s-1 1-1-1l-6-11h-1l-3 12-1 1v1l2-1h2l-2-1v-2l1-1h4zm13-8c-1-1-1-2 1-2 4 0 3 2 3 2l1-1-1-2-4 1h-5c0 1 2 0 2 2l2 9-1 2h4l1-1s-2 0-2-2l-1-2 1-2h1c2 0 2 2 2 2v-4l-1-1-1 2h-1l-1-1v-2zm6 4c0 4 3 6 6 5 6-1 6-5 5-8 0-4-3-6-7-5-3 1-5 4-4 8zm2-1c-1-3-1-6 2-6 2-1 5 1 5 5 1 3 1 6-2 6-3 1-5-3-5-5zm13-7v-1c2-1 3 0 4 2 0 1 0 2-2 3h-2v-4zm0 9-1 3 3-1h1l1-1s-2 1-2-1l-1-3v-1h2l2 3 3 2 2-2h-2l-4-4 1-1 1-3c-1-1-2-3-5-2l-3 1h-3c1 1 2 0 3 2l2 8zm13-3c1 2-1 2-1 2v1l3-1 2-1h1c-1-1-2 0-3-2l-2-8v-1h2c2-1 2 1 2 1v-3h-1l-5 1-5 2 1 3 1-3h2l1 1 2 8zm9-11v-3l-2 1-2 1h-1l3 1 2 9c1 1-1 1-1 2h2l3-1-2-2-2-8zm3 4c1 3 4 5 8 4 5-2 4-6 3-9-1-4-4-5-7-4-4 1-5 5-4 9zm2-2c-1-3-1-5 2-6 2-1 4 0 6 4 1 3 0 6-2 7-3 1-5-2-6-5zm12-8v-2c2-1 3 0 4 2 0 1 1 2-2 3h-1l-1-3zm1 8v3l3-1h1v-1s-1 1-2-1l-1-3v-1h2l2 3 4 1 1-2h-2l-4-4 1-1v-2c-1-1-2-3-5-2l-3 1-2 1h-1c1 1 2 0 3 2l3 7z" style="fill:#713f2a"/><path d="M413 249h82v82h-82v-82z" style="fill:#d52b1e"/><path d="m451 314-1 5-1 4-4 4-6 2c-6-1-8-7-9-12-2-5-6-7-8-6v5l4 3-3 4c-4-1-7-4-8-8 0-2 1-7 5-8 6-2 9 2 11 5 2 4 3 12 9 11 3-1 5-6 5-8l2-2 4 1zm5 0 1 5 2 4 4 4 6 2c5-1 8-7 9-12s5-7 7-6c2 2 2 3 1 5l-4 3 3 4c3-1 6-4 7-8 1-2-1-7-5-8-5-2-8 2-10 5-2 4-3 12-9 11-4-1-5-6-5-8l-3-2-4 1z" style="fill:#fff"/><path d="m461 279 11-12 1-3h-2v-2l3-1v-2h-3v-1l1-2h3c2-3 10-6 15-1 4 4 3 11-2 13-2 1-5 1-7-1l2-4c3 2 5 0 5-2 0-3-2-5-5-5-2 0-3 1-4 3l-1 4-1 4-2 3-11 12-43 47-3-3 43-47z" style="fill:#fedd00"/><path d="M430 283s2 13 11 33l13-2 12 2c9-20 12-33 12-33l-24-31-24 31z" style="fill:#fff"/><path d="m456 262 17 22s-2 11-9 26l-8-1v-47zm-5 0-16 22s2 11 9 26l7-1v-47zm53-13h82v82h-82v-82z" style="fill:#fedd00"/><path d="M515 249h12v82h-12v-82zm24 0h12v82h-12v-82zm23 0h12v82h-12v-82z" style="fill:#d52b1e"/><path d="m413 402 2 7 4 6 7 5 6 2 17 2 10-1a109 109 0 0 1 18-1l7 1c4 0 7 1 11 3v-86h-82v62z" style="fill:#fedd00"/><path d="m423 417 3 3 6 2v-82h-9v77zm45 4v-81h-9v82l9-1zm18-81h-9v81l9 2v-83zm-36 0v83h-9v-83h9z" style="fill:#d52b1e;stroke:#d52b1e;stroke-width:.513"/><path d="m585 402-2 7-4 6-6 4c-2 2-5 2-7 3l-17 2-10-1a109 109 0 0 0-17-1l-7 1c-4 0-8 1-11 3v-86h82v59l-1 3z" style="fill:#fedd00"/><path d="M525 347h-1l-1 1-1 1h-1v1l-1 1-1 1a5 5 0 0 1-1 1h-1v2l1 1v1h2l2 1h1a5 5 0 0 0 2 1h1l2 1v1l1 4 2 1h-1l-1 2c-1 1-2 1-1 3l2 2 1 2v2l1 1v-1l1-1v-2h1l-1-2-2-1 1-1 2-2h1l1 1h2v10h-1v1l1 1h2v-1h1v-3a12 12 0 0 1 0-4l1-2v-3h10l3 1v2h1v-1h2v1h1v-2h2l-1 1a5 5 0 0 1-1 2l-1 2-1 1-1 1-2 1v1l1 1h2v-1h1l1-1 1-1 3-4 1-1 1-1v-2l1 1v8l-2 2v1l1 1h2v-2h1v-1l1-4v-2l1-2-1-4-1-1v-6l3-2v-4l-1-1-3-1-4-1h-4l-5 1h-11l-6 1h-6l1-1 1-1 1-1-1-1h-2l-1 1-2-1-3-1zm2 12z" style="fill:#d52b1e"/><path d="M569 360h-4l-7-1-3 2h-2l1-1h-4l1-1h-1l-1-1h1l4-1h14l1-2-1-1-1-1" style="fill:none;stroke:#fedf00;stroke-width:.987;stroke-linecap:round"/><path d="M525 351h-2v1h1l1-1z" style="fill:#fcd900;stroke:#fedf00;stroke-width:.513"/><path d="M536 364a14 14 0 0 0 1 2 20 20 0 0 1 0 3v1m7-7v1l-1 4s0 0 0 0m-11-4c1 0 0 4 2 4" style="fill:none;stroke:#fedf00;stroke-width:.987;stroke-linecap:round"/><path d="M560 370h1l2-2" style="fill:none;stroke:#fedf00;stroke-width:.987"/><path d="M552 368h0l8-3m-4-1h1c1-1 2 0 3 1l4 3s0 0 0 0l1 1" style="fill:none;stroke:#fedf00;stroke-width:.987;stroke-linecap:round"/><path d="m518 355 1-1h1v2l-1-1h-1z" style="fill:#fcd900;stroke:#fedf00;stroke-width:.513"/><path d="m525 364-2-1h1l1-2v-1h1l1 1v4l-2-1zm-1 1zm-2-16v-2a4 4 0 0 1-1-2v-2h1l1 1v2l1 1-1 1-1 1zm4 10 2 1 4-4 1-4-2-1v1l-2 4-2 3h-1zm5 18 1-1 1-1h1a9 9 0 0 1-1 4h-1l-1-2zm33 2 3 2a9 9 0 0 1-4 0h-1l2-2zm-10-2 3 2a9 9 0 0 1-4 0l1-2zm-17 2 1 1 2 1a9 9 0 0 1-4 0h-1l2-2zm-9-29-1-2h1v-5h1v1l1 2v2l-1 1-1 1z" style="fill:#005eb8"/><path d="M525 384h-1l-1 1h-1l-1 1v1l-1 1-1 1a5 5 0 0 1-1 1h-1v1l1 2v1h4l1 1a5 5 0 0 0 2 1l1-1v1l2 1v1l1 3 2 2h-1l-1 2c-1 1-2 1-1 3l2 2 1 2v2h1l1-2v-1l1-1-1-1-2-2 1-1 2-1h4v10l-1 1v1h1l1 1 1-1v-1h1v-2a12 12 0 0 1 0-5l1-2v-2l9-1h1l3 2v2h1v-2h2v1l1 1v-2h2-1a5 5 0 0 1-1 3l-1 1v1l-1 1-1 1-2 1v1h1l2 1v-1l1-1h1l1-2 3-3 1-2 1-1v-1l1 1v8l-2 1v2h1l2 1v-2l1-1 1-5v-2l1-1-1-4-1-2v-5l3-3v-3l-1-1-3-2h-8l-5 1h-11l-6 1h-4l-2-1 1-1 1-1 1-1h-3l-1 1-2-2-3-1v1zm2 11z" style="fill:#d52b1e"/><path d="M569 396h-1l-3 1-7-1-3 2h-2l1-1h-4l1-1h-1l-1-1h1l4-2 8 1h6l1-2-1-2h-1" style="fill:none;stroke:#fedf00;stroke-width:.987;stroke-linecap:round"/><path d="M525 387h-2v2h1v-1l1-1z" style="fill:#fcd900;stroke:#fedf00;stroke-width:.513"/><path d="M536 400a14 14 0 0 0 1 3 20 20 0 0 1 0 2v1m7-7v2l-1 3v1m-11-4c1 0 0 3 2 4" style="fill:none;stroke:#fedf00;stroke-width:.987;stroke-linecap:round"/><path d="M560 406h1l2-2" style="fill:none;stroke:#fedf00;stroke-width:.987"/><path d="M552 405h0l8-3m-4-2h1l3 1 4 4s0 0 0 0h1" style="fill:none;stroke:#fedf00;stroke-width:.987;stroke-linecap:round"/><path d="M518 391h2v1h-1l-1-1z" style="fill:#fcd900;stroke:#fedf00;stroke-width:.513"/><path d="m525 401-2-1 1-1 1-1v-1h2v4h-2zm-1 1zm-2-17v-1a4 4 0 0 1-1-2v-3l1 1 1 1v1l1 1v1l-1 1h-1zm4 11 2 1 4-4 1-4-2-1-2 4-2 3-1 1zm5 18 1-1 1-1h1a9 9 0 0 1-1 3l-1 1-1-2zm33 2 3 1v1a9 9 0 0 1-4 0h-1l2-2zm-10-2 3 1v1a9 9 0 0 1-4 0l1-2zm-17 2h1l2 1v1a9 9 0 0 1-4 0h-1l2-2zm-9-30-1-1 1-1v-4l1-1v2l1 1v3l-1 1h-1z" style="fill:#005eb8"/><path d="M413 249h82v82h-82v-82zm91 0h82v82h-82v-82zm-91 153 2 7 4 6 7 5 6 2 17 2 10-1a109 109 0 0 1 18-1l7 1c4 0 7 1 11 3v-86h-82v62zm172 0-2 7-4 6-6 4c-2 2-5 2-7 3l-17 2-10-1a109 109 0 0 0-17-1l-7 1c-4 0-8 1-11 3v-86h82v59l-1 3z" style="fill:none;stroke:#713f2a;stroke-width:.797"/><path id="path-b7156" d="m m0 82 m0 103 m0 65 m0 65 m0 65 m0 65 m0 65 m0 65 m0 65 m0 65 m0 65 m0 65 m0 65 m0 65 m0 65 m0 65 m0 65 m0 65 m0 65 m0 65 m0 77 m0 105 m0 54 m0 103 m0 107 m0 116 m0 70 m0 78 m0 43 m0 119 m0 108 m0 51 m0 80 m0 111 m0 105 m0 102 m0 75 m0 79 m0 122 m0 84 m0 110 m0 83 m0 119 m0 51 m0 122 m0 102 m0 76 m0 122 m0 49 m0 119 m0 86 m0 56 m0 68 m0 51 m0 104 m0 73 m0 106 m0 106 m0 71 m0 108 m0 48 m0 105 m0 85 m0 52 m0 48 m0 105 m0 102 m0 84 m0 105 m0 84 m0 73 m0 50 m0 102 m0 69 m0 85 m0 102 m0 55 m0 108 m0 85 m0 99 m0 72 m0 71 m0 89 m0 50 m0 51 m0 81 m0 61 m0 61"/>
</svg>