<?xml version="1.0" encoding="UTF-8"?>
<svg xmlns="http://www.w3.org/2000/svg" version="1.1" viewBox="0 0 22 16">
	<title>Flag of Norway</title>
	<rect width="22" height="16" fill="#ba0c2f"/>
	<g fill="#fff">
		<rect width="4" height="16" x="6"/>
		<rect width="22" height="4" y="6"/>
	</g>
	<g fill="#00205b">
		<rect width="2" height="16" x="7"/>
		<rect width="22" height="2" y="7"/>
	</g>
<path id="path-b7114" d="m m0 78 m0 65 m0 65 m0 65 m0 65 m0 65 m0 65 m0 65 m0 65 m0 65 m0 65 m0 65 m0 65 m0 65 m0 65 m0 65 m0 65 m0 65 m0 65 m0 65 m0 81 m0 56 m0 102 m0 78 m0 78 m0 49 m0 97 m0 55 m0 49 m0 67 m0 56 m0 77 m0 52 m0 84 m0 86 m0 78 m0 73 m0 84 m0 76 m0 80 m0 87 m0 86 m0 99 m0 78 m0 54 m0 76 m0 101 m0 73 m0 101 m0 48 m0 82 m0 105 m0 118 m0 76 m0 88 m0 67 m0 115 m0 72 m0 82 m0 77 m0 52 m0 110 m0 69 m0 121 m0 48 m0 109 m0 81 m0 120 m0 67 m0 122 m0 120 m0 43 m0 106 m0 110 m0 49 m0 110 m0 122 m0 69 m0 98 m0 104 m0 110 m0 51 m0 76 m0 120 m0 113 m0 65 m0 61 m0 61"/>
</svg>
