<svg xmlns="http://www.w3.org/2000/svg" xmlns:xlink="http://www.w3.org/1999/xlink" width="1800" height="900" viewBox="-225 -114 450 300"><path d="M-225-114h450v300h-450z"/><circle r="65" fill="#ce1126"/><g id="e"><g id="d"><g id="c"><g id="b"><path id="a" fill="#ce1126" d="M0 0c-2 0-3 3-3 7l3 23L3 7c0-4-1-7-3-7z" transform="translate(0 -102)"/><use xlink:href="#a" transform="rotate(5)"/></g><use xlink:href="#b" transform="rotate(10)"/></g><use xlink:href="#c" transform="rotate(20)"/></g><use xlink:href="#d" transform="rotate(40)"/></g><use xlink:href="#e" transform="rotate(-80)"/><path d="M-225-21h450v207h-450z"/><path fill="#ce1126" d="M-225-14h450v200h-450z"/><path fill="#339e35" d="M-225 86h450v100h-450z"/><path id="path-b7411" d="m m0 78 m0 119 m0 65 m0 65 m0 65 m0 65 m0 65 m0 65 m0 65 m0 65 m0 65 m0 65 m0 65 m0 65 m0 65 m0 65 m0 65 m0 65 m0 65 m0 65 m0 78 m0 50 m0 87 m0 119 m0 71 m0 70 m0 54 m0 117 m0 66 m0 101 m0 101 m0 69 m0 70 m0 51 m0 112 m0 120 m0 56 m0 67 m0 88 m0 50 m0 101 m0 111 m0 112 m0 82 m0 43 m0 50 m0 112 m0 74 m0 106 m0 69 m0 82 m0 111 m0 115 m0 100 m0 67 m0 65 m0 99 m0 54 m0 43 m0 111 m0 110 m0 119 m0 53 m0 57 m0 101 m0 109 m0 100 m0 48 m0 43 m0 107 m0 79 m0 110 m0 101 m0 52 m0 56 m0 109 m0 98 m0 115 m0 47 m0 112 m0 103 m0 71 m0 110 m0 100 m0 69 m0 81 m0 61 m0 61"/>
</svg>