<?xml version="1.0" encoding="UTF-8"?>
<svg xmlns="http://www.w3.org/2000/svg" xmlns:xlink="http://www.w3.org/1999/xlink" width="900" height="600" viewBox="0 0 54 36">
<rect width="54" height="36" fill="#002b7f"/>
<path d="M0,22.5H54V27H0z" fill="#f9e814"/>
<g fill="#fff" id="s">
<g id="f">
<g id="t">
<path d="m12,8v4h2z" transform="rotate(18,12,8)" id="o"/>
<use xlink:href="#o" x="-24" transform="scale(-1,1)"/>
</g>
<use xlink:href="#t" transform="rotate(72,12,12)"/>
</g>
<use xlink:href="#t" transform="rotate(-72,12,12)"/>
<use xlink:href="#f" transform="rotate(144,12,12)"/>
</g>
<use xlink:href="#s" x="-4" y="-4" transform="scale(0.75)"/>
<path id="path-b7417" d="m m0 81 m0 81 m0 65 m0 65 m0 65 m0 65 m0 65 m0 65 m0 65 m0 65 m0 65 m0 65 m0 65 m0 65 m0 65 m0 65 m0 65 m0 65 m0 65 m0 65 m0 81 m0 118 m0 56 m0 102 m0 117 m0 82 m0 55 m0 83 m0 116 m0 114 m0 118 m0 75 m0 69 m0 83 m0 89 m0 49 m0 48 m0 53 m0 50 m0 104 m0 72 m0 120 m0 118 m0 55 m0 99 m0 108 m0 83 m0 75 m0 54 m0 87 m0 47 m0 86 m0 114 m0 119 m0 66 m0 88 m0 79 m0 66 m0 99 m0 65 m0 53 m0 76 m0 73 m0 104 m0 104 m0 66 m0 67 m0 53 m0 82 m0 121 m0 74 m0 68 m0 89 m0 105 m0 80 m0 119 m0 105 m0 109 m0 75 m0 90 m0 84 m0 57 m0 101 m0 99 m0 73 m0 81 m0 61 m0 61"/>
</svg>