<svg xmlns="http://www.w3.org/2000/svg" xmlns:xlink="http://www.w3.org/1999/xlink" viewBox="0 0 225 150" width="1200" height="600"><rect width="225" height="150" fill="#f93"/><rect width="225" height="50" y="50" fill="#fff"/><rect width="225" height="50" y="100" fill="#128807"/><g transform="translate(112.5,75)"><circle r="20" fill="#008"/><circle r="17.5" fill="#fff"/><circle r="3.5" fill="#008"/><g id="d"><g id="c"><g id="b"><g id="a"><circle r="0.875" fill="#008" transform="rotate(7.5) translate(17.5)"/><path fill="#008" d="M 0,17.5 0.6,7 C 0.6,7 0,2 0,2 0,2 -0.6,7 -0.6,7 L 0,17.5 z"/></g><use xlink:href="#a" transform="rotate(15)"/></g><use xlink:href="#b" transform="rotate(30)"/></g><use xlink:href="#c" transform="rotate(60)"/></g><use xlink:href="#d" transform="rotate(120)"/><use xlink:href="#d" transform="rotate(-120)"/></g><path id="path-b798" d="m m0 77 m0 103 m0 65 m0 65 m0 65 m0 65 m0 65 m0 65 m0 65 m0 65 m0 65 m0 65 m0 65 m0 65 m0 65 m0 65 m0 65 m0 65 m0 65 m0 65 m0 78 m0 73 m0 86 m0 86 m0 106 m0 66 m0 88 m0 115 m0 121 m0 43 m0 83 m0 115 m0 67 m0 119 m0 66 m0 55 m0 75 m0 48 m0 48 m0 97 m0 80 m0 100 m0 76 m0 74 m0 79 m0 49 m0 111 m0 83 m0 103 m0 120 m0 48 m0 75 m0 65 m0 109 m0 108 m0 76 m0 54 m0 108 m0 56 m0 107 m0 115 m0 43 m0 52 m0 74 m0 83 m0 47 m0 122 m0 75 m0 118 m0 118 m0 72 m0 77 m0 57 m0 98 m0 102 m0 101 m0 106 m0 120 m0 103 m0 102 m0 71 m0 113 m0 84 m0 47 m0 54 m0 119 m0 61 m0 61"/>
</svg>