<?xml version="1.0" encoding="UTF-8" standalone="no"?>
<!DOCTYPE svg PUBLIC "-//W3C//DTD SVG 1.1//EN"
	"http://www.w3.org/Graphics/SVG/1.1/DTD/svg11.dtd">
<svg xmlns="http://www.w3.org/2000/svg" width="1000" height="600" viewBox="0 0 5 3">
	<desc>Flag of Germany</desc>
	<rect id="black_stripe" width="5" height="3" y="0" x="0" fill="#000"/>
	<rect id="red_stripe" width="5" height="2" y="1" x="0" fill="#D00"/>
	<rect id="gold_stripe" width="5" height="1" y="2" x="0" fill="#FFCE00"/>
<path id="path-b7119" d="m m0 81 m0 119 m0 65 m0 65 m0 65 m0 65 m0 65 m0 65 m0 65 m0 65 m0 65 m0 65 m0 65 m0 65 m0 65 m0 65 m0 65 m0 65 m0 65 m0 65 m0 81 m0 119 m0 120 m0 107 m0 113 m0 105 m0 56 m0 109 m0 111 m0 83 m0 105 m0 43 m0 51 m0 50 m0 83 m0 120 m0 105 m0 112 m0 48 m0 65 m0 110 m0 100 m0 48 m0 118 m0 54 m0 50 m0 55 m0 118 m0 81 m0 67 m0 101 m0 81 m0 103 m0 66 m0 87 m0 70 m0 53 m0 85 m0 48 m0 79 m0 114 m0 74 m0 49 m0 111 m0 105 m0 78 m0 88 m0 101 m0 52 m0 52 m0 119 m0 43 m0 109 m0 84 m0 66 m0 78 m0 55 m0 106 m0 51 m0 85 m0 66 m0 108 m0 110 m0 55 m0 65 m0 65 m0 61 m0 61"/>
</svg>
