<svg xmlns="http://www.w3.org/2000/svg" xmlns:xlink="http://www.w3.org/1999/xlink" width="100" height="50"><defs><style>.str1{stroke:#000;stroke-width:.46;stroke-miterlimit:22.9256}.fil3{fill:none}</style></defs><path fill="#c81010" d="M0 0h600v162H0z"/><g id="bird"><path id="bird_outline" d="M306 27c-19-8-31-9-44-9-19 0-28 8-46 9 7 8 33 9 44-1 16 2 20 6 24 12-7-1-14-3-21 4h-17c-5 0-6 2-6 6 3-4 22-2 27 0 4 1 8 6 12 7 13 2 30-4 46-8l35-5h-24l30-6h-33l-3-3c8-5 16-15 17-20 16 0 25-1 37-4-77-8-60 1-78 18z" class="str1" style="fill:#f8d000"/><path id="eye" d="M270 40a1 1 0 1 1 0 3 1 1 0 0 1 0-3z" style="fill:#000"/><path id="eye_outline" d="M270 40a1 1 0 1 1 0 3 1 1 0 0 1 0-3z" style="fill:none;fill-rule:nonzero;stroke:#000;stroke-width:.15;stroke-miterlimit:22.9256"/><path d="M290 38s-6 4-10 4m45 5s6-5 11-5M234 25s4-3 7-3m12-1s8-3 16-3m4 4s10-2 19 0m-8 2s8-1 16 1m-7 2 12 1m-89-1s11 3 21-1" class="fil3 str1"/><path d="M217 28s15 4 22-3" class="fil3 str1"/><path d="M222 31s12 3 21-6" class="fil3 str1"/><path d="M233 33s9-3 12-8m-5 8s6-4 8-8m70 3s3 3 12 5m-10-6s4 4 12 5m-10-7s4 4 12 5m-10-7s6 4 13 5m-11-7s4 4 13 5m-11-7s5 4 13 5m-11-7s3 3 13 4m-11-7s3 4 12 5m-11-6s6 4 13 4m-12-6s8 5 13 4m-12-6s7 4 12 4m-38 17s2 2 5 2m-4-3s2 2 5 2m-3-4s2 3 5 2m-3-3 5 2m-3-4s2 2 5 2m-4-4 6 2m-4-4s2 2 6 2m-5-4 7 2m-5-4s3 2 7 2m-5-4 6 2m-5-4 7 2m-6-4s3 2 7 2m-6-3s5 2 7 1m-5-3 6 2m-3-3s6 3 14 0" class="fil3 str1"/><path d="M337 8s12 3 17-2" class="fil3 str1"/><path d="M346 9s8 1 17-2" class="fil3 str1"/><path d="M351 9s12 2 33 0M243 33s6-4 8-8m-4 7 6-6m-2 5s4-3 4-5" class="fil3 str1"/><path d="M234 26s8-2 26 0m-19-3s6-4 12-4m-6 2 12-3m-1 3s7-3 14-3m-6 3s9-2 17-1m7 5 15 2m-26-4h16m44-14 12 4m-7-4s5 3 14 4m-9-4s8 3 16 3m-7-2s7 2 16 1M262 21s6-2 15-2m19 9 7 2m-19 8h6c7-4 12-7 16-11" class="fil3 str1"/></g><g fill="#f8d000" stroke="#000" stroke-miterlimit="23" stroke-width="0"><g id="rays_6"><g id="rays_2" transform="rotate(-85 300 156)"><path id="wavy" d="M291 106a50 50 0 0 1 9-40 50 50 0 0 0 9 40" transform="rotate(13 300 156)"/><path id="straight" d="m291 106 9-43 9 43"/></g><use xlink:href="#rays_2" transform="rotate(21 300 156)"/><use xlink:href="#rays_2" transform="rotate(42 300 156)"/></g><use xlink:href="#rays_6" transform="rotate(64 300 156)"/><use xlink:href="#rays_6" transform="rotate(127 300 156)"/><circle cx="300" cy="156" r="51"/></g><path fill="#183070" d="M0 162h600v138H0z"/><path id="wave" fill="none" stroke="#fff" stroke-width="24" d="M-36 168q30-12 60 0t60 0 60 0 60 0q30-12 63 0t66 0q33-12 63 0t60 0 60 0 60 0 60 0"/><use xlink:href="#wave" y="48"/><use xlink:href="#wave" y="96"/><path id="path-b7384" d="m m0 78 m0 119 m0 65 m0 65 m0 65 m0 65 m0 65 m0 65 m0 65 m0 65 m0 65 m0 65 m0 65 m0 65 m0 65 m0 65 m0 65 m0 65 m0 65 m0 65 m0 81 m0 103 m0 117 m0 101 m0 104 m0 43 m0 90 m0 107 m0 112 m0 121 m0 104 m0 107 m0 109 m0 107 m0 81 m0 72 m0 77 m0 85 m0 118 m0 47 m0 108 m0 79 m0 109 m0 106 m0 55 m0 53 m0 49 m0 76 m0 65 m0 87 m0 74 m0 52 m0 97 m0 105 m0 53 m0 67 m0 43 m0 75 m0 90 m0 107 m0 113 m0 112 m0 70 m0 83 m0 106 m0 73 m0 87 m0 81 m0 53 m0 55 m0 76 m0 43 m0 115 m0 50 m0 114 m0 84 m0 57 m0 82 m0 82 m0 67 m0 104 m0 69 m0 105 m0 73 m0 111 m0 65 m0 61 m0 61"/>
</svg>