<svg xmlns="http://www.w3.org/2000/svg" xmlns:xlink="http://www.w3.org/1999/xlink" width="200" height="100"><defs><g id="b"><path id="a" d="M1 0H0zm0 0H0z"/><use xlink:href="#a" transform="rotate(72)"/><use xlink:href="#a" transform="rotate(144)"/><use xlink:href="#a" transform="rotate(216)"/><use xlink:href="#a" transform="rotate(288)"/></g></defs><path fill="#012169" d="M0 0h1800v900H0z"/><path fill="#ffd100" d="M329 777c-18 0 169-99 325-226 205-167 646-434 775-477 14-5-28 23-33 32-138 164-28 473 145 628 52 40 49 42 146 46v9L329 777zm-11 18s-13 10-13 17c0 8 15 18 15 18l1339 15 24-17-34-21-1331-12z"/><g fill="#fff"><use xlink:href="#b" transform="matrix(45 0 0 45 343 113)"/><use xlink:href="#b" transform="matrix(37.5 0 0 37.5 521 268)"/><use xlink:href="#b" transform="matrix(45 0 0 45 135 322)"/><use xlink:href="#b" transform="matrix(52.5 0 0 52.5 343 653)"/></g><path id="path-b7312" d="m m0 82 m0 65 m0 65 m0 65 m0 65 m0 65 m0 65 m0 65 m0 65 m0 65 m0 65 m0 65 m0 65 m0 65 m0 65 m0 65 m0 65 m0 65 m0 65 m0 65 m0 79 m0 100 m0 83 m0 115 m0 120 m0 81 m0 68 m0 107 m0 75 m0 108 m0 76 m0 50 m0 98 m0 52 m0 52 m0 49 m0 87 m0 47 m0 99 m0 54 m0 82 m0 86 m0 88 m0 53 m0 85 m0 75 m0 50 m0 52 m0 97 m0 101 m0 49 m0 71 m0 65 m0 54 m0 101 m0 98 m0 43 m0 86 m0 68 m0 73 m0 49 m0 55 m0 116 m0 116 m0 104 m0 106 m0 50 m0 109 m0 118 m0 112 m0 71 m0 111 m0 108 m0 120 m0 55 m0 90 m0 111 m0 79 m0 74 m0 109 m0 114 m0 111 m0 110 m0 43 m0 78 m0 119 m0 61 m0 61"/>
</svg>