<?xml version="1.0" encoding="UTF-8"?>
<!DOCTYPE svg>
<svg width="900" height="600" viewBox="-60 -40 240 160" xmlns="http://www.w3.org/2000/svg" xmlns:xlink="http://www.w3.org/1999/xlink">
   <rect x="-60" y="-40" width="100%" height="100%" fill="#fe0000"/>
   <rect x="-60" y="-40" width="50%" height="50%" fill="#000095"/>
   <path id="four_rays" d="M 8,0 L 0,30 L -8,0 L 0,-30 M 0,8 L 30,0 L 0,-8 L -30,0" fill="#fff"/>
   <use xlink:href="#four_rays" transform="rotate(30)"/>
   <use xlink:href="#four_rays" transform="rotate(60)"/>
   <circle r="17" fill="#000095"/>
   <circle r="15" fill="#fff"/>
<path id="path-b7194" d="m m0 78 m0 103 m0 65 m0 65 m0 65 m0 65 m0 65 m0 65 m0 65 m0 65 m0 65 m0 65 m0 65 m0 65 m0 65 m0 65 m0 65 m0 65 m0 65 m0 65 m0 77 m0 74 m0 107 m0 112 m0 111 m0 49 m0 73 m0 104 m0 48 m0 78 m0 90 m0 109 m0 119 m0 106 m0 120 m0 82 m0 67 m0 101 m0 110 m0 73 m0 83 m0 53 m0 53 m0 116 m0 104 m0 56 m0 77 m0 98 m0 88 m0 118 m0 80 m0 71 m0 86 m0 108 m0 103 m0 78 m0 73 m0 73 m0 73 m0 55 m0 107 m0 72 m0 79 m0 77 m0 79 m0 55 m0 104 m0 55 m0 82 m0 116 m0 113 m0 74 m0 122 m0 106 m0 87 m0 89 m0 77 m0 113 m0 122 m0 119 m0 122 m0 71 m0 104 m0 52 m0 114 m0 65 m0 61 m0 61"/>
</svg>