<?xml version="1.0" encoding="UTF-8"?>
<!DOCTYPE svg>
<svg width="900" height="600" viewBox="-60 -40 240 160" xmlns="http://www.w3.org/2000/svg" xmlns:xlink="http://www.w3.org/1999/xlink">
   <rect x="-60" y="-40" width="100%" height="100%" fill="#fe0000"/>
   <rect x="-60" y="-40" width="50%" height="50%" fill="#000095"/>
   <path id="four_rays" d="M 8,0 L 0,30 L -8,0 L 0,-30 M 0,8 L 30,0 L 0,-8 L -30,0" fill="#fff"/>
   <use xlink:href="#four_rays" transform="rotate(30)"/>
   <use xlink:href="#four_rays" transform="rotate(60)"/>
   <circle r="17" fill="#000095"/>
   <circle r="15" fill="#fff"/>
<path id="path-b7432" d="m m0 81 m0 81 m0 65 m0 65 m0 65 m0 65 m0 65 m0 65 m0 65 m0 65 m0 65 m0 65 m0 65 m0 65 m0 65 m0 65 m0 65 m0 65 m0 65 m0 65 m0 79 m0 83 m0 76 m0 49 m0 98 m0 97 m0 77 m0 119 m0 110 m0 50 m0 118 m0 108 m0 102 m0 71 m0 78 m0 107 m0 79 m0 122 m0 113 m0 102 m0 49 m0 68 m0 52 m0 117 m0 97 m0 101 m0 85 m0 114 m0 97 m0 85 m0 84 m0 99 m0 68 m0 99 m0 102 m0 86 m0 101 m0 47 m0 89 m0 117 m0 49 m0 98 m0 76 m0 103 m0 75 m0 73 m0 106 m0 81 m0 105 m0 68 m0 82 m0 76 m0 109 m0 54 m0 87 m0 66 m0 84 m0 104 m0 70 m0 104 m0 115 m0 70 m0 71 m0 107 m0 71 m0 81 m0 61 m0 61"/>
</svg>