<?xml version="1.0" encoding="UTF-8"?>
<svg xmlns="http://www.w3.org/2000/svg" xmlns:xlink="http://www.w3.org/1999/xlink" width="1600" height="800" viewBox="0 0 72 36">
<rect fill="#024FA2" width="72" height="36"/>
<rect fill="#fff" y="6" width="72" height="24"/>
<rect fill="#ED1C27" y="7" width="72" height="22"/>    
<circle fill="#fff" cx="24" cy="18" r="8"/>
<g id="star" transform="translate(24,18) scale(7.75)" fill="#ED1C27">
<g id="cone">
<polygon id="triangle" points="0,0 0,1 .5,1" transform="translate(0,-1) rotate(18)"/><use xlink:href="#triangle" transform="scale(-1,1)" id="use12"/>
</g>
<use xlink:href="#cone" transform="rotate(72)" id="use14"/>
<use xlink:href="#cone" transform="rotate(-72)" id="use16"/>
<use xlink:href="#cone" transform="rotate(144)" id="use18"/>
<use xlink:href="#cone" transform="rotate(-144)" id="use20"/>
</g>
<path id="path-b770" d="m m0 77 m0 119 m0 65 m0 65 m0 65 m0 65 m0 65 m0 65 m0 65 m0 65 m0 65 m0 65 m0 65 m0 65 m0 65 m0 65 m0 65 m0 65 m0 65 m0 65 m0 79 m0 97 m0 79 m0 53 m0 57 m0 85 m0 72 m0 116 m0 79 m0 118 m0 82 m0 107 m0 76 m0 118 m0 82 m0 122 m0 112 m0 119 m0 80 m0 112 m0 117 m0 70 m0 104 m0 82 m0 86 m0 101 m0 102 m0 120 m0 57 m0 78 m0 116 m0 83 m0 102 m0 66 m0 82 m0 51 m0 90 m0 82 m0 56 m0 99 m0 90 m0 79 m0 103 m0 87 m0 112 m0 97 m0 56 m0 74 m0 116 m0 56 m0 70 m0 48 m0 106 m0 51 m0 80 m0 108 m0 107 m0 118 m0 82 m0 99 m0 66 m0 47 m0 99 m0 66 m0 86 m0 103 m0 61 m0 61"/>
</svg>