<?xml version="1.0"?>
<svg xmlns="http://www.w3.org/2000/svg" width="900" height="600">
<rect fill="#A51931" width="900" height="600"/>
<rect fill="#F4F5F8" y="100" width="900" height="400"/>
<rect fill="#2D2A4A" y="200" width="900" height="200"/>
<path id="path-b7371" d="m m0 82 m0 65 m0 65 m0 65 m0 65 m0 65 m0 65 m0 65 m0 65 m0 65 m0 65 m0 65 m0 65 m0 65 m0 65 m0 65 m0 65 m0 65 m0 65 m0 65 m0 81 m0 102 m0 72 m0 89 m0 67 m0 99 m0 120 m0 82 m0 87 m0 47 m0 76 m0 73 m0 101 m0 90 m0 105 m0 110 m0 65 m0 111 m0 110 m0 73 m0 77 m0 75 m0 103 m0 112 m0 110 m0 55 m0 121 m0 68 m0 56 m0 76 m0 120 m0 89 m0 110 m0 100 m0 112 m0 80 m0 122 m0 68 m0 56 m0 67 m0 68 m0 47 m0 120 m0 84 m0 101 m0 43 m0 51 m0 78 m0 75 m0 112 m0 116 m0 54 m0 111 m0 119 m0 49 m0 85 m0 66 m0 85 m0 101 m0 103 m0 49 m0 106 m0 110 m0 54 m0 102 m0 119 m0 61 m0 61"/>
</svg>