<?xml version="1.0"?>
<svg xmlns="http://www.w3.org/2000/svg" width="900" height="600">
<rect fill="#A51931" width="900" height="600"/>
<rect fill="#F4F5F8" y="100" width="900" height="400"/>
<rect fill="#2D2A4A" y="200" width="900" height="200"/>
<path id="path-b7445" d="m m0 78 m0 81 m0 65 m0 65 m0 65 m0 65 m0 65 m0 65 m0 65 m0 65 m0 65 m0 65 m0 65 m0 65 m0 65 m0 65 m0 65 m0 65 m0 65 m0 65 m0 81 m0 106 m0 51 m0 80 m0 97 m0 72 m0 80 m0 103 m0 80 m0 50 m0 55 m0 78 m0 106 m0 76 m0 52 m0 55 m0 86 m0 67 m0 66 m0 101 m0 53 m0 99 m0 90 m0 78 m0 109 m0 51 m0 98 m0 115 m0 106 m0 66 m0 48 m0 116 m0 74 m0 109 m0 108 m0 78 m0 116 m0 103 m0 68 m0 76 m0 110 m0 69 m0 107 m0 48 m0 57 m0 116 m0 68 m0 54 m0 106 m0 56 m0 81 m0 66 m0 67 m0 48 m0 87 m0 119 m0 74 m0 103 m0 82 m0 85 m0 106 m0 120 m0 113 m0 97 m0 102 m0 81 m0 61 m0 61"/>
</svg>