<svg xmlns="http://www.w3.org/2000/svg" width="1400" height="700"><path fill="#3c8bdc" fill-rule="evenodd" d="M0 0v600h1200V0Z"/><path d="M0 0h1200v300H0Z" style="fill:#0bac24;fill-opacity:1;stroke:none;stroke-width:1px;stroke-linecap:butt;stroke-linejoin:miter;stroke-opacity:1"/><path d="M0 0v600l1200-300Z" style="fill:#eb0433;stroke:none;stroke-width:1px;stroke-linecap:butt;stroke-linejoin:miter;stroke-opacity:1;fill-opacity:1"/><path d="m215 135-8 2c-10 2-20 12-26 23-2 3-8 5-10 5 0-1 0-6 2-9 1-3 7-8 14-13l6-5-8 1c-17 2-31 11-37 25l-5 16c0 6-1 9-2 11l-1 1-2-3c-1-4 0-9 3-18 1-4 2-8 0-8l-7 4c-12 8-19 22-20 40 0 9 0 13 2 17s2 8 1 9c-3-1-8-20-6-30l2-9-6 5c-5 5-10 14-13 22-2 7-2 10-2 20 1 10 1 12 5 20l9 15c4 4 5 8 4 9-3-1-11-11-14-16l-5-12-2-10-4 9-2 19c-1 11 0 15 2 22 4 14 15 28 29 36 5 4 7 6 7 8l-3-1c-10-4-20-11-29-22l-5-7v10a76 76 0 0 0 67 68c3 0 7 4 7 5a120 120 0 0 1-53-12l-1 1c13 21 35 38 60 47 15 5 26 7 52 7a4193 4193 0 0 0 23 3l-11 8-9 6 4 4c1 2 2 4 4 3l12-9 8-6-3 9-2 4 1 1 7 2h8v-15l1-2 9 9a130 130 0 0 0 13 11l4-3 3-4-7-6a108 108 0 0 0-19-14l29-1a143 143 0 0 0 79-19c10-6 20-17 24-24l5-8-9 4c-7 4-14 5-25 6a609 609 0 0 0-20 1c0-1 5-4 12-5 8-1 20-5 28-10 17-11 29-34 29-54l1-9-4 5c-6 8-24 21-28 21-2 0-2 0-1-1l4-4c13-10 24-24 29-38 3-9 3-30 0-41l-3-11-3 10a88 88 0 0 1-18 30c-1 0 0-5 5-10 9-13 12-24 11-38-1-11-6-23-13-32l-6-9-1 15c0 11-2 20-4 22v1h-1c-1-1-1-5 1-16a55 55 0 0 0-26-56h-1v1l1 9c3 8 3 16 2 18h-1l-3-9-6-17c-5-12-18-22-30-26l-9-2-1 1 3 4c9 7 16 17 15 19l-3 1-3-1-1-2c-6-12-17-21-28-23-12-3-18 0-8 5 5 2 8 5 8 8 0 2-1 2-4-2-10-9-33-12-27-3 4 5 9 8 20 9 11 2 13 3 8 4-8 0-11 0-15-2-6-3-6-1 0 5 8 9 15 12 25 11 8-1 14-2 17-4l7 3c4 1 6 3 6 4h-10l-14-1-2-1c-1 1 0 3 1 5a42 42 0 0 0 37 19c11 0 12 0 15 2l2 5h-5l-20-5-2 1v1c1 3 7 13 12 17 7 7 21 14 29 15 3 1 3 1 5 6l3 6h-3l-6-2c-7-1-13-4-18-8l-4-3-1 1 2 6c5 12 6 15 12 22 5 8 15 17 21 20 2 2 2 3 2 6v5l-2 2-8-6c-8-6-11-9-14-14l-2-4-2 1v8c0 15 5 34 12 45 7 12 7 12 4 19l-3 5v1l-1-2-4-8c-5-7-8-14-9-23l-1-11-4 9c-6 11-7 22-7 47v23l-5 5-7 7-2 1 1-3 3-18a101 101 0 0 1 5-29l-1-1h-1a130 130 0 0 0-36 46c-8 15-11 20-17 23l-23 10-1-18c0-16-1-24-3-33-1-1-1-2 1-2l12-9 7-8 5 2c13 3 29-1 37-9l8-11v-1l-2-1a3427 3427 0 0 0-20 8l5-4c6-4 13-13 15-19 1-2 2-5 0-5l-5 2-9 2c-7 0-12 1-15 5l-4 3v-10c0-2 1-4 4-7l5-4-1-1-4 1c-8 3-15 9-19 16-3 5-3 7-3 15 1 6 0 10-1 12-2 3-9 10-15 13l-4 1c-5-8-11-38-11-50 0-11 1-12 7-13l11-5c5-4 12-5 17-2 8 4 23 0 31-8 2-2 4-3 3-4-1-2-3-1-5 1-4 2-10 2-15 0l-3-2 5-1c6-1 14-6 19-12l4-6-1-1-5 2c-3 1-4 1-10-1-6-1-7-1-11 1l-5 2c0-1 1-3 7-9l5-5h-6c-6 0-14 5-17 10l-5 12c-4 11-8 15-15 18l-7 3c-1 0 0-3 5-13 7-12 12-25 14-34 2-6 4-8 11-13 5-4 6-4 13-3 11 1 17 0 23-5l4-5c2-2 1-4-2-3-4 2-12 3-13 2l-1-1 2-1c6-2 16-12 16-17 0-1 0-2-2-2l-2 2-9 1c-6 0-7 1-10 5l-3 3-1-3c0-2 1-4 5-8l6-6h-6c-5 0-11 5-14 10l-3 13c-1 7-2 9-5 12l-5 4 1-3c3-17 3-25-2-38-3-8-3-8-1-12l2-9c0-6-4-16-8-19-1-1-2-2-3 0v8c0 8-1 8-2 8l-1-1-7-9-7-8-2 5c-2 5-1 9 4 15l2 4v1c-1 0-8-4-10-7l-2-1c-2 0-1 2-1 4 2 9 12 16 22 17 9 0 10 1 10 22 0 14-1 17-4 32l-5 16c-1 1-6-1-13-8l-7-7v-6l-2-12c-1-4-11-16-14-18h-2c-2 0 0 3 1 6l3 9v3l-2-1c-1-4-7-7-14-7-4 0-5 0-8-3l-6-7 2 7c1 8 5 15 11 19l5 4h-19l4 5c6 6 12 8 27 8h13l7 6c10 9 10 10 7 15a87 87 0 0 0-15 59l1 9-6-5c-8-8-9-10-10-22-1-15-6-23-18-28l-5-2c-1 0-3 0-1 2l1 1c2 1 3 4 4 6 2 7 2 10 1 10l-3-3c-4-4-5-4-10-4-8 0-13-2-17-5l-4-4v5c0 7 11 20 21 25l5 3c-2 1-7 0-11-1-5-3-11-4-12-4h-1l-1 2 10 11c11 8 24 10 34 5l4-2 5 5 6 7 6 6c6 4 8 7 8 11l3 12c4 8 3 7 3 34l-1 25-21-11c-7-5-13-14-21-26-13-23-22-33-34-42l-4-2c-2-1-3 0-3 1l2 2 4 24 3 15c2 3 2 5 1 5l-7-6-6-5v-17a153 153 0 0 0-11-58c-1-1-2-1-3 1l-1 5c-1 6-4 15-7 18-1 1-3 5-3 8l-2 5-4-6-4-6 5-7c9-14 13-30 13-49v-11h-2l-2 4c-3 7-4 8-10 12l-9 6-4 3-1-7c0-3 0-4 5-7l5-4a105 105 0 0 0 26-42v-3c-2-1-3 1-4 3-3 6-7 8-15 8l-8 3c-2 2-4 1-4 0l2-7c2-5 2-5 8-5 9-1 16-5 24-12 6-6 14-17 14-20l-1-1c-1-1-2 0-4 2-3 3-5 3-14 2-6 0-7-1-7-2l3-5 2-2 5 2c4 2 7 2 13 2 10-1 21-7 26-14l4-6c0-2-3-2-6-1h-12l-7-2s1-2 6-3c3-2 5-4 10-3l15 3c10 1 17-2 25-11 6-6 6-8-1-5-3 2-7 2-14 2-5-1-3-2 7-4 11-1 17-4 20-9 6-9-16-6-26 3-3 4-4 4-4 2 0-3 3-6 8-8 7-4 6-7-1-7z" style="display:inline;fill:#fbc724;fill-opacity:1;stroke-width:1.17469"/><path id="path-b7262" d="m m0 78 m0 81 m0 65 m0 65 m0 65 m0 65 m0 65 m0 65 m0 65 m0 65 m0 65 m0 65 m0 65 m0 65 m0 65 m0 65 m0 65 m0 65 m0 65 m0 65 m0 77 m0 49 m0 57 m0 88 m0 66 m0 81 m0 81 m0 50 m0 53 m0 47 m0 106 m0 105 m0 57 m0 87 m0 55 m0 102 m0 106 m0 74 m0 84 m0 114 m0 87 m0 108 m0 49 m0 83 m0 52 m0 101 m0 72 m0 106 m0 103 m0 56 m0 105 m0 119 m0 114 m0 104 m0 120 m0 120 m0 85 m0 110 m0 101 m0 70 m0 100 m0 69 m0 54 m0 110 m0 49 m0 100 m0 97 m0 111 m0 85 m0 82 m0 109 m0 112 m0 81 m0 86 m0 99 m0 89 m0 97 m0 82 m0 112 m0 119 m0 115 m0 113 m0 68 m0 80 m0 66 m0 81 m0 61 m0 61"/>
</svg>