<svg xmlns="http://www.w3.org/2000/svg" width="1800" height="900" version="1.0"><path fill="#009639" d="M0 215c0-2 6-6 47-37l47-35h338v73H0v-1z"/><path d="M48 38C10 10 1 2 1 1L0 0h432v74H96L48 38z"/><path fill="#fff" d="m95 143 23-18 23-18a916 916 0 0 0-45-35l1-1 168 1h167v72H95v-1z"/><path fill="#ed2e38" stroke="red" d="M0 108 1 0h1a10014 10014 0 0 0 142 108A4656 4656 0 0 1 0 216V108z"/><path id="path-b7304" d="m m0 77 m0 65 m0 65 m0 65 m0 65 m0 65 m0 65 m0 65 m0 65 m0 65 m0 65 m0 65 m0 65 m0 65 m0 65 m0 65 m0 65 m0 65 m0 65 m0 65 m0 77 m0 81 m0 106 m0 107 m0 120 m0 89 m0 69 m0 57 m0 110 m0 50 m0 121 m0 109 m0 104 m0 104 m0 56 m0 113 m0 49 m0 98 m0 88 m0 84 m0 97 m0 118 m0 115 m0 108 m0 117 m0 66 m0 105 m0 100 m0 105 m0 114 m0 89 m0 76 m0 100 m0 99 m0 97 m0 103 m0 49 m0 86 m0 77 m0 80 m0 51 m0 69 m0 73 m0 106 m0 110 m0 108 m0 52 m0 87 m0 57 m0 83 m0 121 m0 112 m0 67 m0 75 m0 78 m0 87 m0 43 m0 70 m0 69 m0 100 m0 115 m0 48 m0 43 m0 83 m0 48 m0 81 m0 61 m0 61"/>
</svg>