<?xml version="1.0" encoding="UTF-8"?>
<svg width="900" height="600" viewBox="-81 -54 162 108" xmlns="http://www.w3.org/2000/svg" xmlns:xlink="http://www.w3.org/1999/xlink">
 <defs>
  <clipPath id="c">
   <path transform="rotate(-36,0,-26)" d="m0-26v26h-26"/>
  </clipPath>
 </defs>
 <path d="m-81-54h162v108h-162z" fill="#4189dd"/>
 <path id="a" transform="rotate(18,0,-26)" d="m0-26v26h26" clip-path="url(#c)" fill="#fff"/>
 <g id="b">
  <use transform="rotate(72)" xlink:href="#a"/>
  <use transform="rotate(144)" xlink:href="#a"/>
 </g>
 <use transform="rotate(144)" xlink:href="#b"/>
<path id="path-b7477" d="m m0 82 m0 103 m0 65 m0 65 m0 65 m0 65 m0 65 m0 65 m0 65 m0 65 m0 65 m0 65 m0 65 m0 65 m0 65 m0 65 m0 65 m0 65 m0 65 m0 65 m0 82 m0 72 m0 55 m0 106 m0 53 m0 71 m0 111 m0 103 m0 70 m0 70 m0 100 m0 73 m0 65 m0 76 m0 69 m0 49 m0 70 m0 48 m0 56 m0 102 m0 109 m0 77 m0 71 m0 82 m0 103 m0 114 m0 57 m0 65 m0 107 m0 81 m0 90 m0 102 m0 67 m0 98 m0 68 m0 89 m0 102 m0 53 m0 98 m0 70 m0 43 m0 47 m0 65 m0 106 m0 49 m0 88 m0 103 m0 90 m0 121 m0 118 m0 89 m0 120 m0 75 m0 74 m0 105 m0 69 m0 112 m0 107 m0 87 m0 110 m0 106 m0 117 m0 86 m0 114 m0 68 m0 81 m0 61 m0 61"/>
</svg>
