<svg xmlns="http://www.w3.org/2000/svg" width="800" height="400" viewBox="0 0 240 160">
	<title>Flag of Saint Vincent and the Grenadines</title>
	<path fill="#fcd022" d="m0 0h240v160H0z"/>
	<path fill="#002674" d="m0 0h60v160H0z"/>
	<path fill="#007c2e" d="m180 0h60v160h-60zm-78 51.962 15 25.98-15 25.981-15-25.981zm36 0 15 25.98-15 25.981-15-25.981zm-18 31.176 15 25.981-15 25.981-15-25.981z"/>
<path id="path-b7228" d="m m0 79 m0 81 m0 65 m0 65 m0 65 m0 65 m0 65 m0 65 m0 65 m0 65 m0 65 m0 65 m0 65 m0 65 m0 65 m0 65 m0 65 m0 65 m0 65 m0 65 m0 77 m0 111 m0 57 m0 83 m0 114 m0 100 m0 69 m0 48 m0 56 m0 102 m0 55 m0 98 m0 67 m0 85 m0 102 m0 90 m0 52 m0 107 m0 121 m0 81 m0 85 m0 85 m0 52 m0 57 m0 120 m0 78 m0 81 m0 106 m0 47 m0 112 m0 52 m0 69 m0 66 m0 86 m0 57 m0 87 m0 86 m0 72 m0 82 m0 75 m0 65 m0 114 m0 47 m0 121 m0 47 m0 119 m0 51 m0 56 m0 66 m0 106 m0 52 m0 69 m0 53 m0 48 m0 65 m0 53 m0 43 m0 52 m0 103 m0 122 m0 72 m0 53 m0 57 m0 48 m0 116 m0 119 m0 61 m0 61"/>
</svg>
