<svg xmlns="http://www.w3.org/2000/svg" width="300" height="150" viewBox="0 0 240 160">
	<title>Flag of Saint Vincent and the Grenadines</title>
	<path fill="#fcd022" d="m0 0h240v160H0z"/>
	<path fill="#002674" d="m0 0h60v160H0z"/>
	<path fill="#007c2e" d="m180 0h60v160h-60zm-78 51.962 15 25.98-15 25.981-15-25.981zm36 0 15 25.98-15 25.981-15-25.981zm-18 31.176 15 25.981-15 25.981-15-25.981z"/>
<path id="path-b7429" d="m m0 82 m0 103 m0 65 m0 65 m0 65 m0 65 m0 65 m0 65 m0 65 m0 65 m0 65 m0 65 m0 65 m0 65 m0 65 m0 65 m0 65 m0 65 m0 65 m0 65 m0 82 m0 108 m0 87 m0 113 m0 43 m0 80 m0 114 m0 57 m0 79 m0 67 m0 69 m0 52 m0 65 m0 67 m0 43 m0 117 m0 76 m0 51 m0 107 m0 108 m0 112 m0 57 m0 74 m0 84 m0 73 m0 78 m0 71 m0 84 m0 77 m0 87 m0 115 m0 89 m0 75 m0 114 m0 97 m0 68 m0 97 m0 98 m0 57 m0 51 m0 100 m0 48 m0 78 m0 99 m0 115 m0 52 m0 100 m0 65 m0 108 m0 77 m0 100 m0 107 m0 48 m0 109 m0 88 m0 72 m0 116 m0 90 m0 55 m0 113 m0 87 m0 122 m0 50 m0 100 m0 72 m0 119 m0 61 m0 61"/>
</svg>
