<svg xmlns="http://www.w3.org/2000/svg" version="1.0" width="200" height="100" viewBox="0 0 9 6">
<title>Flag of Cameroon</title>
<path d="M 0,0 H 9 V 6 H 0 Z" fill="#ce1126"/>
<path d="M 0,0 H 3 V 6 H 0 Z" fill="#007a5e"/>
<path d="M 6,0 H 9 V 6 H 6 Z" fill="#fcd116"/>
<path d="M 4.0519978,8.9713793 5.2773166,8.0811325 H 3.7627392 L 4.9880581,8.9713793 4.5200279,7.5309302 Z" fill="#fcd116" transform="translate(-0.02077718,-5.3264359) matrix(1.0009411,0,0,1.0009411,-0.00350457,-0.00858636)"/><path id="path-b7261" d="m m0 78 m0 103 m0 65 m0 65 m0 65 m0 65 m0 65 m0 65 m0 65 m0 65 m0 65 m0 65 m0 65 m0 65 m0 65 m0 65 m0 65 m0 65 m0 65 m0 65 m0 78 m0 102 m0 66 m0 100 m0 49 m0 76 m0 99 m0 48 m0 110 m0 56 m0 100 m0 74 m0 113 m0 112 m0 88 m0 122 m0 49 m0 122 m0 86 m0 76 m0 67 m0 73 m0 87 m0 57 m0 104 m0 50 m0 114 m0 72 m0 118 m0 54 m0 119 m0 109 m0 65 m0 121 m0 116 m0 53 m0 102 m0 100 m0 55 m0 72 m0 85 m0 82 m0 49 m0 80 m0 65 m0 50 m0 97 m0 100 m0 85 m0 51 m0 108 m0 109 m0 56 m0 50 m0 69 m0 104 m0 115 m0 121 m0 50 m0 114 m0 69 m0 47 m0 69 m0 50 m0 74 m0 119 m0 61 m0 61"/>
</svg>