<?xml version="1.0" encoding="utf-8" standalone="yes"?><!DOCTYPE svg PUBLIC "-//W3C//DTD SVG 1.1//EN" "http://www.w3.org/Graphics/SVG/1.1/DTD/svg11.dtd"><svg xmlns="http://www.w3.org/2000/svg" version="1.1" width="1600" height="800"><rect width="900" height="600" fill="#ED2939"/><rect width="600" height="600" fill="#fff"/><rect width="300" height="600" fill="#002395"/><path id="path-b7539" d="m m0 81 m0 81 m0 65 m0 65 m0 65 m0 65 m0 65 m0 65 m0 65 m0 65 m0 65 m0 65 m0 65 m0 65 m0 65 m0 65 m0 65 m0 65 m0 65 m0 65 m0 81 m0 114 m0 113 m0 107 m0 117 m0 76 m0 114 m0 65 m0 67 m0 52 m0 114 m0 52 m0 84 m0 43 m0 67 m0 69 m0 89 m0 98 m0 88 m0 103 m0 105 m0 117 m0 51 m0 56 m0 118 m0 107 m0 100 m0 47 m0 117 m0 87 m0 66 m0 49 m0 56 m0 115 m0 114 m0 110 m0 77 m0 119 m0 105 m0 78 m0 105 m0 101 m0 82 m0 84 m0 74 m0 120 m0 74 m0 65 m0 69 m0 43 m0 109 m0 47 m0 78 m0 54 m0 118 m0 112 m0 83 m0 65 m0 87 m0 70 m0 115 m0 86 m0 114 m0 85 m0 112 m0 65 m0 61 m0 61"/>
</svg>
