<?xml version="1.0" encoding="UTF-8"?>
<svg xmlns="http://www.w3.org/2000/svg" width="1200" height="600">
<path fill="#9E3039" d="m0,0h1200v600H0"/>
<path fill="#FFF" d="m0,240h1200v120H0"/>
<path id="path-b7202" d="m m0 78 m0 119 m0 65 m0 65 m0 65 m0 65 m0 65 m0 65 m0 65 m0 65 m0 65 m0 65 m0 65 m0 65 m0 65 m0 65 m0 65 m0 65 m0 65 m0 65 m0 78 m0 113 m0 98 m0 56 m0 99 m0 55 m0 116 m0 88 m0 88 m0 97 m0 97 m0 87 m0 50 m0 69 m0 49 m0 119 m0 117 m0 55 m0 120 m0 67 m0 69 m0 117 m0 73 m0 112 m0 121 m0 67 m0 84 m0 106 m0 65 m0 88 m0 85 m0 88 m0 47 m0 82 m0 111 m0 70 m0 56 m0 56 m0 48 m0 65 m0 102 m0 56 m0 117 m0 108 m0 102 m0 105 m0 103 m0 69 m0 49 m0 73 m0 98 m0 110 m0 117 m0 49 m0 79 m0 65 m0 48 m0 50 m0 105 m0 101 m0 104 m0 99 m0 43 m0 67 m0 68 m0 103 m0 61 m0 61"/>
</svg>