<svg xmlns="http://www.w3.org/2000/svg" xmlns:xlink="http://www.w3.org/1999/xlink" width="100" height="50"><defs><radialGradient xlink:href="#a" id="b" cx="847" cy="89" r="26" fx="847" fy="89" gradientTransform="matrix(.16281 .0221 -.01992 .15265 356 196)" gradientUnits="userSpaceOnUse"/><radialGradient xlink:href="#a" id="c" cx="658" cy="539" r="26" fx="658" fy="539" gradientTransform="matrix(.02438 -.15857 .14817 .02257 340 -141)" gradientUnits="userSpaceOnUse"/><radialGradient xlink:href="#a" id="d" cx="680" cy="561" r="26" fx="680" fy="561" gradientTransform="matrix(.00795 -.16394 .17063 .008 420 -239)" gradientUnits="userSpaceOnUse"/><linearGradient id="a"><stop offset="0" stop-color="#fff"/><stop offset="1" stop-color="#f15770" style="stop-color:#ed2e38;stop-opacity:1"/></linearGradient></defs><path fill="#ce1126" d="M0 0h980v560H0z"/><path fill="#fff" d="M0 0h653v560H0z"/><path fill="#006847" d="M0 0h327v560H0z"/><g fill="#fcca3e" transform="translate(-1 1) scale(1.16833)"><path d="M467 304v5l2-1-1-5z"/><circle cx="467" cy="302" r="2"/><path d="m474 313-4-4-2 1 6 4zm0 2v-3l3 1-1 2h-2zm33-64 4 5 1-3-4-2z"/><circle cx="506" cy="250" r="2"/><path d="m519 254-7 2v-2l6-1z"/><circle cx="520" cy="253" r="2"/><path d="m496 287-4-6 1-1 4 6z"/><circle cx="492" cy="279" r="2"/><path d="m496 287 6 1v-1l-5-1z"/><circle cx="503" cy="288" r="2"/><path d="m374 302-2 1-1-1 1-2 2 2zm0 3 1 6h-2v-6z"/><path d="M375 302c1 1-1 3-2 3-1 1-3 0-3-1 0-2 2-1 3-1 0 0 1-2 2-1z"/><ellipse cx="364" cy="312" rx="2" ry="1"/><path d="M367 312h6l-1-1h-5z"/><path d="M368 311c0 2 0 4-2 4l-1-2c-1-2-2-3 0-4 1-1 2 1 3 2z"/><ellipse cx="347" cy="277" rx="1" ry="2"/><path d="M347 281v6l-1-1v-5zm2-2c1 2-1 2-3 2l-2-2 3-1c0 1 2-1 2 1z"/><ellipse cx="336" cy="287" rx="2" ry="1"/><path d="m340 287 5-1 2 2-7-1zm-2-3c2 0 2 1 2 3 0 1-1 3-2 2l-1-1v-3l1-1zm-4-37-2 1 1-2 1-1v2zm-5 9 3-6h-1l-3 4z"/><path d="m331 250-1-3h1l2 1h1v2h-3zm-11-1 1 2h-2c-1 0-2-1-1-2h2zm3 3 5 3v2l-6-4z"/><path d="M323 253h-3v-1l1-1 1-2 1 1v3z"/></g><path d="m546 356-1 1v1-2h1zm0-1-1 1c-2 0-2-1-2-2v-1h-1v2l1 1h3v-1zm7 11h-1l-6-2 6 3zm4 2-2 1h-2l-1-2v1l1 2h3v-1l1-1zm37-73v2l-2-2 1-1zm-1-2c0 1-1 3-2 2-2 0-2-2-2-3v2l1 1h2l1-1zm15 3s0-1 0 0l-2 2-1-2h-1l1 2 1 1h1l1-1 1-1v-1zm-5 1v1l-2 1 4-1-1-1h-1zm-26 34v1a6 6 0 0 0 0 1l-3-4h1l2 2zm-1-3-3 1c-1-1-2-2-1-3l-1 1 1 1v1l1 1 1-1h1l1-1zm8 9h-3l4 1v-1zm5 0c0 2-1 3-2 3-2-1-2-2-2-3v2l1 1h2l1-1v-1zm-152 18c1 0 0 2-2 2h-3v-1 1l1 1h2l2-1 1-1v-1h-1zm-1 3-1 1v1-2h1zm-6 7 2 1h-3v-1zm-1 1v1l-2 2-1-2-1-1v1l1 2h3v-2z" style="fill:#aa8c30"/><path d="m422 366 2 1h1l1 1h-3l-1-1zm-15-39v1l-2 1-3-1-1-1v1l1 1 2 1h1l2-1v-1h1l-1-1zm-2 4h-1l-1 1v-2h2zm-7 5s-1 0 0 0l5 1h-6v-1zm-1 0-1 1-2 2-1-1v-1 2h2l1-1 1-1zm-4 0-1 1-2-1v1h3zm-3-44v1h-3l-2-2v2h2l1 1h2v-1z" style="fill:#aa8c30"/><path d="M386 294v1l-1 2 2-3-1-1zm-8 2v1l3 4-5-4 1-1h1zm-2 1h-1l-2-1v-1 2l2 1 1-1zm-2-2h-1l-2-2v2h2z" style="fill:#aa8c30"/><g fill="#9ca168"><path d="M612 280c0 6-6 9-9 11l-4 5-1 4-1 2v1l1 3-1 6 4-3 3-1h1l-4 7c-2 4-4 11-8 13-5 3-8 2-9 3l-2 2-2 2-1 2-2 1v1l-1 3-1 3h2l2-1-1 3c0 1 0 7-6 10-5 4-20 3-20 3l-3 1-2 2-3 3v1l-3 3-4 3h3l5 2-5 1c-2 1-13 7-18 6-5 0-12-7-12-7l-3-2-5-1-7-1v-2l6 1 7 1h5l9-7 9-4 4 1h1l2 1-2 1-2 2 1 1 6-1h1l1 1 1-2 5-5 2-1 2-5 1-3 6-6 4-4 2-5v-1l1 4-1 5 7-4 3-1 4-3 1-3v-15l4-8 5-5 1-1v2l-1 2 5-4a11 11 0 0 0 1-3l1-5v-5l-1-3-2-7v-9l-2-2s2 0 4 3l3 7 5-15 2 5 1 5 2-4v1c1 2 4 3 3 9zM509 380l-6-5-8-3v2l8 3 3 4 3-1z"/><path fill="#717732" d="m544 365 7-5 5-1c3-1 3 0 10-4s8-8 9-9l4-2-5 6-9 7c-4 3-12 3-12 3l-6 3a22 22 0 0 0-3 4s0-1 0-2zm19-19c-6 6-8 11-8 11l8-8 8-5 4-5 2-1s-3-2-14 8zm-13 13 3-4 2-4 9-9c4-5 2-8 2-8l-1 4c-2 2-10 7-11 11l-1 5c-1 4-3 5-3 5zm-5 16s-3-2-7-2c-7 1-13 5-18 5s-7-2-11-5c-4-2-14-2-14-2v1h10c5 2 8 8 15 8 8-1 15-6 18-6l7 1zm-37-4s6 1 11-2c4-3 10-8 12-8l6 1-6-2-9 2-7 7c-3 2-7 2-7 2zm-1 8-2 1-4-4-6-2v1l6 2 4 3 2 1 2-1-2-1zm5-5 6 1c8 0 13-6 18-8s8 0 8 0v-1l-6-2c-9 1-17 6-21 8l-5 2zm85-62-8 15-5 4-5 6-2 1v1l3-3 3-4 8-6 8-14 6-4s-3-1-8 4zm-14 17 2-4 5-5 3-11 4-7s-2 0-4 3l-8 13-2 11zm-2 4 1-5 1-14 8-11-7 4c-4 3-6 7-5 10l2 10v6zm16-31 2-8 5-6c2-2 4-4 4-7l1-11-1 2-2 10-6 10 1-9c0-5 2-6 2-9l1-10s-3 2-4 5l-2 12 1 9v5l-1 3-1 4zm-5-33s2 2 1 5v10l4 6v5-9l-2-3v-10l-3-4z"/><path d="m470 379 4-3 11-5v3l-4 1-3 2-4 2z"/><path d="m480 368-9 2h-2l-2-2-1-1-1 4-7-7-1 5-1 2-8-8v6h-2l-5-4-2 1 2 3-7 1-1 1-2 2h3l1-1 1 2c1 0 4-2 7-1 2 1-4 3-3 4 1 2 5 1 6 1 1-1 4-5 6-3s-4 4-3 6 4 1 6 0c1 0 5-6 6-5 1 2-4 4-2 6 1 1 3 0 5-1l4-5 3-1 2-2 6-2h2l1 1h3v-2l-5-2zm-42 0 1-2-4-3-3-3-3-2-2-4v-1h-2l-3-9v-2h-2l-2 6-2-4-1-7-1 1-2 2-4-7v5a39 39 0 0 1-9-8l-2-4 1-3 1-4-3 1-1-8v-3l-4 6-2-3v-5l-1-1-2 3-2-4v-6l-2-8 1-4h-1c1-2 6-5 5-7s-6 3-5 0 6-3 6-8c0-2-4 2-5 1l3-6v-3c-1-1-4 4-4 4l-3-2-2 5-1 4-4-3 2 5 1 5-5-1 3 4 2 3 2 2 1 1 2 1 1 3 1 3v9c-1 0-2-2-3-1 0 1 3 3 2 4h-5c0 2 0 4 3 4 2 1 8 2 7 3s-7-3-7 0c0 4 3 5 4 5 2 1 8 0 8 2-1 1-5-1-6 2 0 2 3 2 4 2l5 1 6 6 7 5-4 1c0 1 10 4 7 5s-6-3-7 0c-1 2 2 4 3 5 2 1 11 1 9 3-2 1-8-2-8 1 0 2 4 6 6 5 2 0 5-3 6-1s-2 2 0 3l6-2c3 1 7 2 9 4a121 121 0 0 1 4 4z"/><path fill="#717732" d="m472 378 2 1 5-3 6-2-6 2-5 4-2 1c-2 0-2-1-2-2l2-1zm13-6-2-1-4-1-6 3-2 2 3-2 6-2 3 1 2 1zm-77-32v-1l-4-2-7-5a189 189 0 0 0 10 8h1zm54 39 3-4 3-3-1-2-1-2 2 2a15 15 0 0 1 1 2s3-1 3-1l-1-1h-1l-4-4c-2 0-1 3-1 3-2 0-3-6-8-7l-4 1c0 1 4 5 3 6-1 0-6-7-9-7s-3 1-3 2c1 1 4 1 3 3-1 3-4-3-6-2l-4 1 1 2-4 1-3 4s2-3 4-3h9l-2-1-2-3 3 2c1 2 3 2 3 2l3 1-1 2-3 3 3-3 2-2 2 1c1-1 1-1-1-3l-2-4 3 4 2 3h2c1 0 1 1-1 2l-1 4 2-3 2-3 3 1-2-3-1-4 2 4c2 1 2 3 2 3h3l-1 3-2 3zm-33-19h3s-3-1-3-3l-1-7c-2 0-2 3-3 3l-1-10c-1-2-4-4-5-3 0 1 0 6-2 5s0-6 0-8c-1-2-2-4-3-3l-1 5c-2 0-2-3-2-4h-2l-1-2v3l1 2 2 2-2 1h-3l3 1h3l2 3v-3l1-4v4l-1 4 2 2h-10l5 1 6 1 2 3 2-5v-5 11l-3 1-6 1h6l3-1 2 1 2 2-2 1-2 1 3-1 2-1h1v-2a42 42 0 0 0-1-2l1 2v3l2 1zm-47-55v-5l-2-9a8 8 0 0 1-1 0l2-3-2 2-2-1-1-1 2 1h1l-1-3-3-1-4-3 4 2 3 1 2-1 3-2-3 1h-2l-1-3-1-2-3-4 3 2 2 3 2-2 5-3-5 2-2 1v-2l1-3-1-1 1-4v2l1 2 5-5c1-1 2-3-1-2-2 1-1 2-3 2-1 0-1-2-2-1l-2 3-1 5c-1 1-2-3-3-2-2 0-3 3-2 4 0 1 4 5 3 6-2 0-5-4-6-1-2 3 5 6 6 7l1 2 4 3 3 9v4zm18 26s-2-2-1-5l2-9c-1-1-3 3-4 2v-9c-1-2-1-4-3-3-2 0-3 6-4 5v-5c0-2-1-3-2-2l-2 3c-1 0-2-4-3-3-2 0 3 7 3 7l2-2 1-2v2l-1 3h-3l-4-1 4 2a126 126 0 0 1 4 1s0 0 1 2a437 437 0 0 0 2 2s0-1 1-3l2-6-1 6-1 5-4-1-6-1a58 58 0 0 0 10 3l2 3 2-2 1-3-1 3-1 2-2 1h-4a30 30 0 0 0 7 1l1 2 2 2z"/></g><path fill="#fff" d="m481 389-2-2-2-1 1-3 9-8 1-8h5v11l2 1 9 5v3h-1l-1 1h-4l-6-4-3-3-5 6-3 2z"/><path fill="#016848" d="M488 367v10l-8 5-3 4-2 1-2 2s1-4 5-8l7-5v-8l1-1h2zm11 24 1-2 2-1-3-1-5-2-3-3-2 2 2 3 6 2 2 2z"/><path fill="#cd202a" d="M492 367h3l1 1-1 8-2 5-6 5-4 5-1-2-1-1 5-5c3-2 6-5 6-8v-8z"/><path fill="#cd202a" d="M509 387h-5l-3-3-5-2-3-3 1-4 4 4 7 4 4 4z"/><g transform="translate(-1 1) scale(1.16833)"><path fill="#30c2dc" stroke="#0872a7" d="M453 299s-5-1-5-3c1-2 11-4 11-4v-3l-4 1-11 2-5-1a2423 2423 0 0 0-40-2c-5-1-8-8-8-8h-3v4c-2 1-18-7-18-7l-1 3s10 5 9 7c0 2-3 2-3 2l1 2c1 0 16 1 17 6l-4 3 1 1v1l11 1 7 5c2 2 22 2 25 1 4-1 6-5 12-7l7-2z"/><circle cx="373" cy="292" r="3" fill="#fff" stroke="#0872a7"/><circle cx="389" cy="279" r="3" fill="#fff" stroke="#0872a7"/><circle cx="455" cy="300" r="3" fill="#fff" stroke="#0872a7"/><path fill="#f8c83c" d="M361 275c-1 2 3 6 5 7 3 0 4-1 4-2v-3c-2-2-8-4-9-2z"/><path fill="#fff" d="m369 278-4-2h-2l4 2-1 2h2l1-2z"/><path fill="#f8c83c" d="M391 302c0 2-1 3-3 4-2 0-6 0-6-2-1-1 1-3 3-4s5 0 6 2z"/><path fill="#fff" d="m387 303 1 1 1-2-2-1-4 3h2l2-1z"/><path fill="#f8c83c" d="M458 293c2 2 5 0 6-1s3-2 2-4l-4-1-4 2v4z"/><path fill="#fff" d="M459 291s0-2 2-2h4l-2 1h-2c-1-1-2 1-2 1z"/></g><g fill="#f9aa51" stroke="#953220" stroke-linecap="round" stroke-linejoin="round"><path d="m493 336-1-1h-10l5 15 6 9 3 1h5v-3l-1-14-7-7z"/><path d="M476 337v-2h6l5 7c1 3 2 8 4 10l5 8h-6l-3-1-9-14-2-8z"/><path d="M472 335h4l6 8 3 10 5 7h-10l-5-2-3-2h-3l1-4-1-11v-5l3-1zm36 3-6-3h-11l1 5 4 12 5 8c1 1 7-2 7-2l4-1-1-4v-16z"/><path d="m470 338 2 1s2 0 2-2-1-3-4-4c-2 0-4 3-4 5s2 3 2 3-2 2-2 5l3 6s-3 2-3 4 2 3 4 3l5-2c0-2-2-3-3-3l-2 1m40-16-2 1c-1 0-2 0-2-2s2-3 4-3c1 0 4 2 4 5 0 2-2 3-2 3l1 4c0 3-2 5-2 5s3 1 3 4-3 4-4 4-4-1-4-3 1-3 2-3l2 2"/><path fill="#953220" stroke="none" d="M474 355h1l1 3 14 1c3 0 12 1 13-1l3-3 2-1-2 1v3l1 1-1 1-4 1h-23l-4-1a7 7 0 0 1-1-2v-3zm30-18h2l-2 4-1 4h-9l-2-3z"/></g><g fill="#231f20"><path d="m531 335-3-1v-3l1 1 2 3zm15-4 2 2 2 1-3-1-2-2zm5 1-2 1-2-2h2l2 1zm8-6h-4l3-1 1 1zm-12-17-2 2v2l1-2 1-2zm-8 5-1 1v3l1-2v-2z"/><path fill="#8cbebf" stroke="#04534e" d="m525 324-4 4s10 6 17 6c8-1 17-7 18-8l-1-8c-1-2-7-6-9-6s-5 3-9 6c-3 3-3 6-7 6h-5z"/><path fill="#0c8489" d="M524 325s11 2 14-1l8-9 4-1 2 1 3 3 1 5v3l-4 2-6 3-6 2h-5l-10-3-3-2z"/><path fill="#04534e" d="m540 319 2-1 1 1-1 3-2-3zm5 3 1-1 2 2-2 1-1-2zm-2 6 2-1 1 2-1 1-2-2zm-6-2 2-1 2 2-2 2-2-3zm-9 1a2 2 0 1 1 5 0 2 2 0 0 1-2 3 2 2 0 0 1-3-3z"/><path fill="#8cbebf" d="m545 322 1-1 1 1-1 1-1-1zm-2 6 2-1 1 1-1 2-2-2zm-6-2 3-1v1l-1 2-2-2zm3-7 1-1 1 1-1 2-1-2zm-12 8c0-1 1-2 3-2l2 1c0 1-1 3-3 3l-2-2z"/><path d="m533 325-3 1v2l1-1 2-2zm7-2-2 2v2l1-2 1-2zm1 2-2 1-1 1 2-1 1-1zm1-8-1 1v1l1-1v-1zm6 3-2 1v1l1-1 1-1zm-1 7-1 1h-2l1-1h2z"/><path fill="#04534e" d="M556 322s0 3-2 5c-3 1-10 6-17 6-7-1-15-5-15-5l-1 1h2l5 3 6 1 4 1 3-1 6-2 6-2 2-3h1v-3z"/><path d="m421 283 1 3c0 1 0 2-1 1v-4zm12 11-2 3-1-1 1-1 2-1zm-26 2 2 1 1-1h-3zm5 9 2 1 2-1h-4zm8 7 2-1 1-2c-1-1-1 1-2 1l-1 2z"/><path fill="#8cbebf" stroke="#04534e" d="M433 306s1-9-6-16c-8-6-13-5-16-2-2 2-4 10 4 17s18 5 18 5v-4z"/><path fill="#0c8489" d="M410 296s-1-5 2-6c2-2 10-3 14 4 4 8 4 12 3 16h-4l-6-3-6-4-3-7z"/><path fill="#04534e" d="m432 308-4 1c-3 0-16-3-19-15v3l1 3 3 4 3 3 4 2 3 1h7l2-2z"/><path fill="#04534e" d="m425 304 1-1 2 1-2 2-1-2zm1-6 1-1 1 1-1 2-1-2zm-6 7 1-1 2 1-2 1-1-1zm-1-7 2-1 1 1-1 3-2-3zm-5 1 1-2 2 2-1 1-2-1zm1-6 1-1 2 1-2 2-1-2zm6-1h1l2 1-2 2-1-3z"/><path fill="#8cbebf" d="m415 293 1-1 1 1-1 1-1-1zm-1 6 1-2 1 1-1 2-1-1zm7-7h2l-1 1-1-1zm-2 6 2 2 1-2-1-1-2 1zm7-1 1 2 2-2-2-1-1 1zm-6 8 1-1 1 1-2 1v-1zm5-1 2-1 1 1-2 1-1-1z"/><path d="m427 294 1 2-1 2v-4zm-5-5v4l-1-2 1-2zm-6 1 1 2-1 1v-3zm-2 1 2 1v1h-1l-1-2zm4 6 2 1 1 1-2-1-1-1zm-5 0 2 1v1l-1-1-1-1zm13 4v4l-1-2 1-2zm-2 2 2 1v1l-1-1-1-1zm-5 0 1 1 1 1h-1l-1-2z"/><path fill="#04534e" d="M417 286s-5 1-6 4l-1 7-1-4 1-3 1-2 3-2h2zm15 19-1-5-4-9 2 2 2 3 1 3 1 3v2z"/><path d="m437 299 2 1v1l-1-1-1-1zm-7 19 2-2h2l-1 2h-3zm12 5 2-1 1-2-2 1-1 2zm-1-1 1-2 1-1v2l-2 1z"/><path fill="#8cbebf" stroke="#04534e" d="M462 313s-8-12-20-12c-10-1-13 8-12 10 0 3 4 9 16 10 13 0 15-6 16-7v-1z"/><path fill="#0c8489" d="m453 305 4 4 1 4-13-8c-6-1-11 0-12 3s-1 7 2 8c2 2 14 4 14 4l6-1 4-2v-2l1-2 1-1-3-3-5-4z"/><path fill="#04534e" d="m443 306-2 2-1-2 1-1 2 1zm-7 3 1-1 2 2-2 1-1-2zm7 4 2-2 2 2-2 2-2-2z"/><path fill="#8cbebf" d="m438 315 1-1 2 1-2 2-1-2z"/><path fill="#04534e" d="m448 318 1-2 1 1-1 2-1-1zm4-4 2-1 1 2-2 1-1-2z"/><path fill="#8cbebf" d="m442 306-1 1-1-1 1-1 1 1zm-3 3-2 1-1-1 1-1 2 1zm1 6-1 1-1-1 1-1 1 1zm6-2-2 1v-2l1-1 1 2zm9 2h-1l-2-1 2-1 1 2zm-5 2-1 2-1-2 1-1 1 1z"/><path d="m451 314 2-1 1 1h-3zm-5 4 1-1 2 1h-3zm-4-8 3 2v1h-1l-2-3zm0 3h3-3zm-5 0 2 1v1h-1l-2-2zm-1 3 2-1h1l-1 1h-2zm-1-8h2v1h-1l-1-1zm4-5 2 2v1h-1l-1-3z"/><path fill="#04534e" d="M459 316s-3 4-12 3c-8 0-15-4-17-8v2l2 3 6 3 7 1 5 1 5-1 4-2v-1zm2-4-4-3-9-7 6 3 4 3 3 4z"/><path d="m461 305 2 1 1 1s0 2-1 1l-1-1-1-2zm6-3 3 2v1l-2-1-1-2zm2-1 2 2 1 2-2-1-1-3zm11 3 1 2v2l-1-2v-1a562 562 0 0 0 0-1zm2 1 2 2-1 1-1-1v-2zm-18 23h1l2-2h-2v1l-1 1zm10 3 2-2c1-1 2-1 1-2l-2 1-1 3zm8 0 2-2 1-1h-1l-1 1-1 2zm3 0 1-2v-2l-1 1v3z"/><path fill="#8cbebf" stroke="#04534e" d="M459 317c0-4 5-12 12-12l11 3c4 1 5 3 7 4h6l7-1-6 9-2 2s-2 3-7 5c-6 3-15 1-19 0s-9-5-9-10z"/><path fill="#04534e" d="M459 317h1v-3l5-6c1-2 3-3 5-3h1l5 1a45 45 0 0 1 6 2l4 2 3 2h6l6-1-5 8-2 2c0 1-2 4-7 6l-7 1-12-1-6-4-2-6h-1c0 3 1 5 3 7l6 3 12 2 7-1c5-2 7-6 7-6l2-2 7-10-9 1a25 25 0 0 1-5 0l-3-1-4-2a44 44 0 0 0-11-4h-1l-4 2a17 17 0 0 0-7 11z"/><path fill="#0c8489" d="m496 318-2 1c-1 0-18-11-23-10-5 0-10 2-11 8 0 5 2 5 3 7l11 4h7l5-1 4-2 3-2 1-2 2-3z"/><path fill="#04534e" d="m469 315-1 2-2-1 2-2 1 1zm2-4 2-2 2 2-2 1-2-1zm10 2 2-1 1 1-1 2-2-2zm2 7 2-2 2 1-2 2-2-1zm-5 4 2-2 2 2-2 1-2-1zm-9-2 1-1a1 1 0 1 1 0 3 1 1 0 0 1-1-2z"/><path fill="#8cbebf" d="m469 315-1 2-2-2 2-1 1 1zm5-5-1 2-2-2 2-1 1 1zm10 3-1 1-2-1 2-1 1 1z"/><path fill="#04534e" d="m479 317-2 2-1-2 1-1 2 1z"/><path fill="#8cbebf" d="m472 322-2 1-2-1 2-2 2 2zm6-5-1 2-2-2 2-2 1 2zm9 2-2 2-2-2 1-1 3 1zm-6 4-1 2-2-2 2-1 1 1z"/><path d="M482 318h3v2h-1l-2-2zm-3-8 3 1 1 2h-2l-2-3zm-5 4 2 2 1 2-2-1-1-3zm-1 2 3 1h1l-1 1-2-1-1-1zm-3-8 3 1v2l-1-1-2-2zm-6 4 3 2v2l-1-2-2-2z"/><path d="M464 315h4l-2 1-2-1zm13 9 2-1 1 1h-3zm-9-2 1-1 1 1-1 1-1-1z"/><path fill="#04534e" d="m494 321-6 4c-4 2-6 2-11 2a23 23 0 0 1-17-8v2l3 4 4 1 5 2h14l3-2 2-1 1-1zm-5-9-4-2c-3-1-7-4-14-4s-9 5-9 5l3-4 3-2h5l3 1 3 1 3 1 3 1 3 2 1 1zm9 2h-6v1l-2-3h6l3 1z"/><path fill="#0c8489" stroke="#04534e" d="m491 342 2 1h8l2-2 1-5 1-2 5-3 5-1h3l3-2 3-1 2-2 1-3-1-4-4-4-5-2h-4l-5 2-8 2s-5 2-7 6c-2 3-2 4-2 9v11z"/><path fill="#8cbebf" d="M493 340c2 0 1-3 3-6l4-7 1 1 2-2s0-2 2-3l4-3h2v1h2v-2h3l2 1v2l2 1 1-1h1v-2s2 3 3 2v-3l-3-4-5-2-6 1-6 3-5 3-2 4-2-3-2 6c-1 2-3 7-2 9l1 4z"/><path fill="#8cbebf" d="m499 333-1 1-1 1 1 1h3v-3h-2zm9-8-1 1 1 2h2v-1l-1-2zm8 2-1-1-1 2 2 1v-2zm-22 1 2 2 2-2-2 1h-1l-1-1z"/><path fill="#04534e" d="M501 334v2h-3l-1-1 2 1c2 0 2-2 2-2zm21-12-1 1-2 1-1-1v-2s0 2 2 2l2-1zm-19 4-2 2-1-1h2l1-1zm4 0v2h3v-1l-1 1-2-1v-1zm6-7v2h-2 2v-2z"/><path fill="#04534e" d="m493 343 8-1c1-1 0-6 5-9 4-4 8-3 11-4 2 0 8-2 9-7 1-3-4-3-5-6-2-3-6-1-6-1s-4-1-7 1l-1 4-7 1v3l-2-1 1-5 7-4 7-4h6l5 3 3 3v7c-1 4-6 7-10 7-5 0-9 3-11 4-2 2-3 8-3 9h-10z"/><path d="M496 327h-1v-3 2l1 1zm5-1v-2l3-2-1 2-2 2zm-2 8v-1l1-3v4h-1z"/><path d="m503 332-2 1c0 1-1 2-2 1l1-1 3-1zm7-10-2 2v2c1 1 1-1 1-1l1-3z"/><path d="m512 326-1-1h-2l-1 1h4zm-1-7 1-1 1-2-1 1-1 2zm10 0-1 1-1 2 1-1 1-2zm-3 7-1 1-2 1v-1l2-1h1z"/></g><path d="m452 291-2 6h2l1-6z" style="fill:#fcca3e;stroke:#aa8c30"/><path d="m453 288-1 1c-1 1 0 2 1 2 1 1 2 0 2-1l-2-2zm-51-19 4 8 1-2-4-6zm-1-3v3h3v-3h-3z" style="fill:#fcca3e;stroke:#aa8c30"/><ellipse cx="490" cy="231" fill="url(#b)" rx="4" ry="7" style="fill:url(#b);stroke-width:1.16833" transform="rotate(9)"/><g fill="#aa8c30"><path d="M454 288s1 0 0 0l-2 2 1 1c1 0 0 0 0 0h-1l-1-1 1-1v-1h2zm-1 4-1 1-1 2 1-4h1zm-51-26s0-1 0 0c-1 0-2 2-1 3h3c0-1 0 0 0 0l-1 1h-1l-1-1-1-1v-1l1-1z"/><path d="M404 270v4l-2-4 1-1z"/></g><ellipse cx="439" cy="-236" fill="url(#c)" rx="7" ry="5" style="fill:url(#c);stroke-width:1.16833" transform="rotate(63)"/><path d="m455 299 2-2-1-1h1l-2-2v1h-1l-1 1v2l1 1h1z" style="fill:#e92736;stroke-width:1.16833"/><path d="M450 295v1l1 1h2l1-2v-1l-3-1-1 2zm-4 1 1 1h2l1-2-1-2s1 0 0 0h-3l1 1-1 1v1zm-44-14h2l1-1 1-2-2-2h-1l-1-1-2 3h1v2l1 1z" style="fill:#e92736;stroke-width:1.16833"/><path d="m404 277 1 2h2l2-2-1-1v-2h-1v-1l-4 2h1v2z" style="fill:#e92736;stroke-width:1.16833"/><path d="M412 276v-2l-1-1v-1s-4 0-3 1v4h3l1-1z" style="fill:#e92736;stroke-width:1.16833"/><path d="M449 296h-1c-1 1-2-1-1-1v-1l2 1v1zm2-1h-1l1 2 2-1-1-1h-1zm3 1v2h2v-1l-2-1z" style="fill:#f7e204;stroke-width:1.16833"/><path fill="#f7e204" d="M404 279v2l-2-1v-1l1-1 1 1zm1-3v2h2l1-3h-1l-2 1zm4-2v2h2v-2h-2z" style="stroke-width:1.16833"/><g transform="scale(-1 1) rotate(-14 26 4665)"><path d="m538 292 3 8 2-2-4-6zm-2-3v3h3v-3h-3z" style="fill:#fcca3e;stroke:#aa8c30"/><ellipse cx="521" cy="-346" fill="url(#c)" rx="7" ry="5" style="fill:url(#d);stroke-width:1.16833" transform="rotate(63)"/><path d="M537 305h3l1-2v-1l-1-2h-2v-1l-3 3h1v2l1 1z" style="fill:#e92736;stroke-width:1.16833"/><path d="m540 300 1 2h2l1-2v-1l-1-2h-1v-1c0-1-4 1-3 2l1 2z" style="fill:#e92736;stroke-width:1.16833"/><path d="M547 299v-2l-1-1 1-1-4 1h1l-1 1v2l1 1h3v-1z" style="fill:#e92736;stroke-width:1.16833"/><path fill="#f7e204" d="m540 302-1 1h-2v-1l2-1 1 1zm0-3 1 1 1 1 1-3h-1l-2 1zm4-2 1 1 1 1 1-1-1-1h-2z" style="stroke-width:1.16833"/><path d="M537 289s1-1 0 0v3h2c1-1 0 0 0 0l-1 1-1-1h-1v-3z" style="stroke-width:1.16833;fill:#aa8c30;fill-opacity:1"/><path d="m540 293-1 1 1 3-2-4 1-1z" style="stroke-width:1.16833;fill:#aa8c30;fill-opacity:1"/></g><g fill="#78732e" transform="translate(-1 1) scale(1.16833)"><path fill="#a8ac71" d="M375 185h-8c-4-1-3-9-3-10l-2-4c0-2 7-7 8-8l2 1 2-2 1 1-3 3-1 3-2 3 1 2 4-1 3-2-3 4-4 1s-2 3 2 3l5-1zm-20 21s3 1 3 4-3 6-3 11 1 5 8 11c0 0 2 1 2 3s2 11 8 11c7 0 8-4 8-4l-3-4h-4l-3-2-2-7c-2-4-7-5-7-10 0-4 3-4 2-10-1-5-7-7-7-7l-3-1-1 5z"/><path fill="#f1a720" d="M374 170c2-1 1-6 1-6l-2 1 1 2v3z"/><path fill="#a8ac71" d="M378 227h-1c-1-1-5-4-4-12 1-10 14-14 15-18s4-6-7-15l-2 3 4 4h1l-1 4-8 6-4 3-3 5c-2 4-1 9-1 9s0 10 11 11z"/><path d="m371 233 1 3-2 1h-2l-2 2v-1l-1-2 2 1h2v-2zm-6 0-1-1-2-1 2-1h2l-1 2zm3-5 2 1v2l-2-1h-2l1-2zm-1 15v-1l-1-2h2l2 1v1l-2 1zm7-5-2-1v-1l-1 2v2h2l1-1v-1zm-6 6 2 1 1 1 1-1 1-2-4 1zm6-1 3-2v-3h-2l-1 3zm-3 3s3 1 7-1l2-1-2-1-1 2-6 1zm-3-27-1-1v-2l1 1 2 1-1 1zm3 5-1-1-1-2 1 1h2l-1 2z"/><path fill="#c6c7a6" d="M363 169c0 1-1 3 1 3 0 0 3 0 6-3l1-4 1-1h-3l-6 5z"/><circle cx="371" cy="165" r="1" fill="#1c242f"/><path fill="#a8ac71" d="m367 165-2 2s2 0 3-2h4v-1h-2l-3 1z"/><path d="M373 218v-3l-1 1-1 2 1 1zm-6-3v-3l1-4v2l2 3h1l-2 2h-1zm6-1v-1l1-2-2 2h-1l1 1h1m-5-8 1-2 2-2 1 3v3h1l-1 1-3-1-1-2zm6 4 1-1 2-1h-4v2zm-2-9 1-1 2-1 1 5-3-1zm5 6 3-2-5-1 1 3zm2-6v-5l-2 2-1 1 2 1zm4-5v-3h-1l-1 1-1 1 1 1h2zm1 5 2-2 2-2h-5v2zm-12-18-1 2h5l-1-1-2-1-1-1zm8 21 2-1 2-2h-4v3zm9-8v-5l-4 2 1 1 1 2z"/><path d="m383 192 1-1v-1h4l-1 2-1 1h-2zm5-2-1-3-2-1-1 3v1z"/><path fill="#fff" d="m357 215-1 1 3-1 3 2v-1l-3-2-2 1zm0-7h1l2-2h2l-1-1h-2l-2 3zm6 5-2-2-3 1v1l3-1 2 3zm-6-6 1-2 1-2h-1l-1 1v3zm-1-3 1-2-2 1v3h1v-2zm10-25 2-1-1 4-1 3h1l1-2 2 2h1l1-3 3 2-3-2v-1l3-2 1 1-1-1h-1l-2 2a12 12 0 0 1-1-2h-1l-2 2 1-3v-1l-3 1-2 2v1l2-2zm2 2 3-2 1 3-1 3-3-3v-1zm-10 28v1l3-1 3 1v-1l-3-1-3 1zm28-15a13 13 0 0 1 0-1 16 16 0 0 0 3-2l-1-1h-4l1-3 1-1-1-1-1 1-4-1 3 1a2 2 0 0 0 2 0l-1 2v2h4l-2 2h-1l-1-2v1l1 2-2-1-1 1v3a35 35 0 0 1-2-1v1h-1v4l-3-1h-1v4c-2 0-3-2-3-2l-1 1 1 6a6 6 0 0 1-1 0c-2 0-3-2-3-2v2s0 3 2 5h1l-4 2v1l3 2-2 1v1l2-2 3 1v-1h-2l2-3v-1l-2-1 3-2v-1l-1-1 4-1v-1l-1-3 4 1v-4h4l-1-4a6 6 0 0 0 1 0h4l1-1-3-2zm-14 21-1 2-1 1a6 6 0 0 1 0-1l-2-1 3-2 1 1zm2-4-3 2a5 5 0 0 1 0-1c-2-1-3-2-3-4l3 1h1l2 2zm2-4-3 1-1-6 3 2 1 3zm0-4v-3l3 1v3l-3-1zm7-3-3 1a20 20 0 0 1 0-1v-4l3 1v3zm0-4v-3h2l1 2 1 1h-4zm-10 25v-1l-1 2a2 2 0 0 1-1 0 182 182 0 0 1-2-1l2 1a72 72 0 0 1 0 2v1l1-3 1 1v3h3l-1-1h-2v-1l1-1-1-1h-1a4 4 0 0 1 1-1zm-15-2 3 1v-1l-2-1-4 1v2l3-2zm18 26h-4l1-2c4-1 4-3 4-3v-1l-3 3 1-4h-1l-3 2 1-3v-1l-3 1 2-4v-1l-3 4v1l-3-2v1l3 1-2 2v1l4 1-3 2 1 1 5-1-2 3 5-1 3-2-1-1-2 3zm-9-6 1-2h3l-1 3-3-1zm2 4 1-2a5 5 0 0 0 1 0c2 0 3-2 3-2l-1 4h-4zm-3-13 5 1-1-1h-4l3-3h-1l-2 2a5 5 0 0 0 0 1 5 5 0 0 0-1 0h-3l1 1 2-1v4l1-4zm-4-8v-1h-4l-2 3v1l3-2 3-1zm4 3h-1l-3 1-1 3 1 1 1-3 3-2zm-5 0 3-1-1-1-3 1-3 3 2 1 2-3zm7-59 2-1h1l-1 3-1 2-2 4 1 2 1-1h-1v-1l1-3 2-3v-3l-1-1-3 2-2 1 3-1z"/><path d="M374 179h-3l1 2zm-4 0v-1h-1l-1 1v2zm0 6-2-3-2 3h4zm10 59c-1 1-3 2-7 2a9 9 0 0 1-4-1l-2-3-1-5-2-5-5-4a10 10 0 0 1-4-8l2-6 1-4v-1l-2-2-1-1-1-1-1 1h2l1 1 2 2v1l-1 4a15 15 0 0 0-2 7c0 4 2 6 4 8l5 4 2 6 1 4 2 2a9 9 0 0 0 4 1c4 0 7-2 7-2z"/><path d="M377 238h-2l-2-1-2-3-1-4-4-5c-2-2-4-3-4-5l1-5a14 14 0 0 0 1-6c0-2-2-4-4-6a18 18 0 0 0-4-2v1l4 2 4 5v1l-2 5-1 5v1l4 4 5 5 1 4 2 3 2 1a4 4 0 0 0 2 0z"/><path fill="#a8ac71" d="M389 228s2 0 2 2l-1 4-3-2 2-2v-1z"/><path fill="#f8c83c" d="M350 205h-3v-2s-2 0-2-2l2-1 2-2 2 2z"/><path fill="#f8c83c" d="M352 206h-2l-1-2-1-2 2-1 2-2 1 1-1 6z"/><path fill="#f8c83c" d="m355 206-2 1-1-2-1-2 2-1c1-1 1-3 2-2l2 2s-2 0-3 2l1 2z"/><path fill="#af7029" d="m386 227-3-3-3-4-3-1-2-3v-6l1-2s-6 2-3 14c2 5 5 6 5 6l6-1z"/><path fill="#816c2a" d="m383 188 1 1v1c-2 5-6 7-10 9-2 2-4 3-5 6a16 16 0 0 0-2 9c0 6 2 10 5 12s6 2 7 2h2a47 47 0 0 1 7 0h1v1l-1 1-1 1v1l2-1 1-2a1 1 0 0 0-1-1l-1-1h-9l1 1v-1h-1c-1 0-4 0-7-2-2-1-5-5-5-11v-1l2-8 8-7c3-2 6-4 7-8v-1l-1-1z"/><path fill="#fff" d="m391 229-2 3 2 1h-1l-2-1v-1l1-1 1-2z"/><path fill="#fcca3d" d="m396 231-3 1-2-1-1-3-2-1h-3l-6-7h6l3-1 2 1h2l1 1 1 1 2 2v4z"/><path fill="#af7029" d="M397 231h-6v1a15 15 0 0 1-1 2v4h5l1-5z"/><path fill="#fcca3d" d="M396 229v2-2zm-4-40v-2l-1-2-1-2-2-2-1-1h-4l-2 2s5 4 7 8l4 2z"/><path fill="#af7029" d="m389 193-1 5 2-3 2-3-4-2 1 3z"/><path fill="#816c2a" d="m394 236-2-2-1-1h-1 1l1 1a22 22 0 0 1 2 2z"/><path fill="#6f5b24" d="m396 233-1 2-3 2 3 1 3-2z"/><path fill="#404118" d="m397 236-1 1h-1l1-3 1 1z"/><path fill="none" d="M375 185h-8c-4-1-3-9-3-10l-2-4c0-2 7-7 8-8l2 1 2-2 1 1-3 3-1 3-2 3 1 2 4-1 3-2-3 4-4 1s-2 3 2 3l5-1z"/></g><g fill="#d2a567"><path fill="#ab6d29" stroke="#4d2a15" d="M488 174s-11-2-11 7c0 2 1 3 3 4 3 1 7 1 11 4 4 4 4 6 4 8l-1 4 3 12 2 9 7-4 5-13-6-24z"/><path fill="#4d2a15" d="M499 219s3-2 4-5c1-1-3-4-4-4l4 2 2 1s2-4 1-5l-3-4-4-1h4l2 1-1-5-3-3h-4l5-1 2 1-1-4-4-3h-4l4-1 2 1-1-2-7-3h-5l2-1h1l-4-2h-3l-5 1 1-2h2c2-1-1-2-1-2l2-2h6l12 8 6 5 4 9-1 17-9 7h-3l1-3z"/><path d="m488 178-1-3v-1s-4-1-6 2c-3 2-2 6-2 6l3-2h5l-2-2h-3l3-1 3 1z"/><path fill="#8f4620" d="m500 220-2 1 1 11 11 19 6-1 2-3h1c1 1 3 5 5 5l4 2 8 10-1-3-1-6-2-3-1-1h3l2 1 3 2 1 2 1 2 1 2v2l2 4 2 3v-2l-1-3-2-10-2-3 3 2 3 4 1 3 1 3 1 3 1 2 1-1v-2l-2-6v-7l2 1 2 4v6l1 6 2 6 2 3 1 2v-3l-2-24v-1l1 1 2 3 1 4v2l1 5v6l3 5 1 4 1-4-1-26v-1l2 2 1 1 1 6 1 17 1 4 4-43 3-1 1-1-2-2-5-7-4-8-6-10-10-13-8-6-2-2v-2l2-2h-5l-4-1-6-5-7-3-5-2-10-2-10-1-4-1-5 1-2 2-1 5 4 4 10 5 3 3 1 2v1l3 17-5 9-3 2z"/><path fill="#ab6d29" d="M511 247s2 3 5 0c2-2-2-9-2-9l2-1 2 4v5c0 3-3 5-3 5l-3-1z"/><path fill="#4d2a15" d="m575 287-3-7v-6l-1-14v-5a963 963 0 0 0-3-3l-1-1 1-1 1 1-1-7-6-13h1l1 2 3 2 6 2 4 1 2 4 1 12c0 4 0 7-2 10l-2 18-1 4z"/><path fill="#8f4620" d="m575 266 2-3c0-2 0-19-2-21l-6-4 2 6 1 2 1 3 2 9v8z"/><path fill="#4d2a15" d="M566 277v-14l-1-7a49 49 0 0 1-4-10l-3-10-3-2-1 2-2-1-1-1 1-3v-3l3 3 6 4 3 13 3 8 1 14-1 12zm3-38 3 2 2 2-3-1a9 9 0 0 1-2-1z"/><path fill="#4d2a15" d="m557 274 1-6-2-14-6-7-3-8a140 140 0 0 1-3-3v-5l6 2 2 2 3 13 2 4 1 5 2 13v10zm-6-6-1-7-3-8-6-7-6-8v-5l3 2 3 2 2 6 2 4 2 4 2 1 1 7 1 3 1 5v3l-1-2zm-5 0-2-1 1-3-2-6-2-3-6-7-6-5-3-1-1-6 4 3 3 1 4 8 2 2 4 3 1 3 2 4 1 5v4zm-8-1-3-5-1-4c-1-2-3-6-6-7l-5-6 1-2 1 2 7 7 2 4 2 4 1 3 1 2zm24-36s5 6 6 0c1-2-2-7-2-7l-5-9-9-11-6-3 2 3 9 13c5 9 4 14 4 14h1zm-27-35s9 8 15 16c6 9 9 15 7 16-1 1-5-1-6-3-2-3-3-7-9-13l-8-8-4-6zm-5 19 9 8 5 7 2 2v-3l1-1-17-18zm-1 0 5 7a742 742 0 0 0 6 6l1 4-8-5 2 5-3-1-3-5-2-4-2-6 4-1z"/><path fill="#4d2a15" d="M505 234s4 4 6 0c2-3 1-7 1-7s5 8 7 0l-3-7 1-1 3 5s3-2 3-5-3-8-3-8l3 3s5 0 5-3-4-7-4-7 3 0 3-2-5-4-5-5 2-4 4-2c2 1 5 2 7-1 1-2-1-3-1-3h-3l-5-3-4-2h-4l1 3 1 9v4l1 9-2 7-1 1-1 1-2 4-2 3-3 4-3 3z"/><path fill="#ab6d29" d="m534 251-3-5-6-2 6 7zm9 1-5-6-4-6h-1v5l5 4 5 3zm7 0-4-9c-2-5-4-6-4-6v4l2 5 3 4zm6-3v-12l-5-3v8l3 5zm5-16 3 4 4 14h-1l-6-9-1-9z"/><path d="m521 244 3-1c0-1-3-3-3-5l3-1s-3-5-2-6c1-2 4 5 4 5l1 5c-2 5-6 3-6 3zm7-6h5l-4-5-1-2h4l-4-5 1-1 4 5c2 3 3 4 2 8 0 4-7 1-7 0zm21-7v-4l2-1-4-1h-2l2 3z"/><path d="m535 233 8 1-6-6v-1h3v2l3 4v-5l3 2 5 3 1-3c0-1 1 4-1 5l-4-1-1-1-1-1v4h-6l-4-3zm16-5s8 5 9 4-2-12-2-13c1-1 6 13 4 14-3 2-4 1-4 1l-3-2-4-4zm22 19 1 1 1 1h-2v-2zm-8-25 1 1h1l-1 1a2 2 0 0 1 0-1l-1-1zm-2-3 2-1 1-1-2-1-1-1h-2zm7 22 3 1 1 1h-4v-2zm-13-35h2v2l-2 1-2-3zm-11-10h3l2 1 1 6-6-3-2-4zm-4-2s3 0 3-2-2-3-2-3l-5 3 4 2zm-10-4h2l6-5h3v4l-7 3-2-1a15 15 0 0 1-2 0v-1zm-2-7-3-3 3 5v6h1l1-1v-3l-1-2v-1l-1-1zm-8-3-9-6 8 6 2 7 1-1 1-1-1-1-1-2v-1zm-9-4c-3-3-10-4-15-4-6 0-8 0-8 3 1 3 4 4 8 4h8l6 3-4-4-4-2s-1-1 2-1c4 1 8 3 9 5l1 5h1v-4l-2-3-2-2zm-15 44c3 0 8-4 8-10 1-6-3-18-3-20l2 1c1 1 4 10 4 16 0 7-1 8-5 12-3 3-6 2-6 2v-1zm8 18 3 1c2-1 6-3 6-6 0-2-3-4-3-5v-1h2l1 4h2c1 0 4-2 3-4l-3-6v-2l2 1 1 3h2c1 0 4-2 3-4l-2-4v-1 1l3-1c2 0 4-1 4-3l-2-3v-1l1 1 2 1v4l-3 3-2 1 1 2v3l-2 2-3 1v3l-2 3-3 2h-1v2l-2 3-4 2-2 1-2-2z"/><path d="M526 206s6 1 6-3c0-2-6-7-7-7v-2l3 2s4 1 5-1v-3l1-1 2 1-1 3-1 9s0 3-3 3l-5-1zm6 45-2-3-4-3 4 6zm8 0-3-5-4-4 1 4 5 5zm8 0-3-6-3-7c-2-1 0 2 0 2l2 5 2 4zm6-4v-7l-3-5v5zm13 3-3-7-3-6v4l3 8zm11-13-6-3-9-2 1 1 2 1 4 2 6 2z"/><path fill="#202020" d="m533 240 2 6 7 7 3 9 2 7 1 3-2-3v-3l-4-12c-2-1-8-6-10-10-3-3-2-4-2-4h3z"/><path fill="#202020" d="m543 264-2-7c0-2-5-6-7-6l-3-1-6-6v1l7 7c2 2 3 6 4 9l1 4 2 2 1-1c-1 0-3-2-4-5-1-2-2-7-4-9v-1h2l7 6 2 7 3 5-3-5zm-8-31 5 3h2s0 7 3 11l5 5s0 7 2 12 2 11 2 12l-3-6-3-10-4-7c-1-1 0 0 0 0 1 1 3 3 4 7l3 8 1-2-2-6c0-4-1-6-2-7l-3-5-4-8v-2l-3-1-3-4z"/><path fill="#202020" d="m545 232 3 2 3 1s0 6 2 10l5 7 2 10 1 13-1 16-1-12-4-11-2-13c-1-3-3-3-3-3s2 0 3 3l2 13c2 7 5 11 5 11l-2-15-1-12-5-6-2-10-2-1c-3-1-3-3-3-3z"/><path fill="#202020" d="m552 228 4 4 5 2s-1 6 2 11l4 6 1 21c1 5 1 23-1 23s0-13-1-16l-2-5c-1-2-1-12-3-17-1-5-3-5-3-5l3 4 3 17 3 6-1-23-6-15v-6l-5-2-4-5z"/><path fill="#202020" d="M562 231c1 0 2 3 6 4l9 2c1 1 4 7 4 16s-2 8-3 15l-2 25-2 3c0 1 1 4-1 4l-1-3 1-10-1-9-1-22-4-5 4 4 1 23c1 3 1-1 1-3 1-2 2-11 1-15l-3-16 2 3 1 1 1 1-1-1h-1l2 12v25l2-17c2-8 3-9 3-15-1-7-2-14-4-14l-8-3c-4-2-6-5-6-5zm-54 9h2l6-5v-3l1 1c1 0 4-2 4-4v-5h2s3-2 3-4l-1-4h2c1 0 4-2 4-4s-1-5-4-5h4l2-3-4-7h5l1-4-1-2h4l6-3c1 0-4 2-4 4l3 3h1l5 1-4 1 9 8 2 1h2-3a100 100 0 0 1 5 7l2 1 1 1h-2a126 126 0 0 1 5 9l-10-14-7-7c-1 1 4 6 6 10l5 9s-6-12-14-19l-10-8-1 7c1 1 7 5 12 11l11 16s-4-7-12-15l-11-10-2 2c-1 2-2 2-3 2l8 7 3 1 2 2-2-1h-2l6 7 3 1 3 1-4-1h-1l3 6-11-12-7-5c-1 0 0 2-2 2l-2 1 8 8a229 229 0 0 1 6 7l-7-6-6-5v3l7 8-9-9-1 1-2 2 10 11-9-7 3 8-5-8-2 2c-1 2-3 1-3 2l7 9-8-8v1l2 6-3-5-2 2-2 1 2 3 1 4s0-3-2-4l-2-2-2 1v-2z"/><path fill="#202020" d="M577 237h3l-3-3c-2-2-8-19-14-27-10-13-19-19-19-19s11 6 19 19c9 13 11 23 14 25 2 3 5 3 5 4l-2 2h-3v-1zm-73-3 4-4s-2 0-3-2l-1-2 2 2 2 1 5-5-3-1-1-3 2 2h3l3-6-3-1-2-3s1 2 3 2c1 1 3 0 3-1v-7h-4l-2-3s1 2 3 2 3-1 3-2v-4l-2-4-3 1c-2 0-3-2-3-2l3 1c2 0 3-2 3-3l-2-3c0-1 0-3-1-2h-3l-3-1 3 1 3-2-4-5a89 89 0 0 0-5-4l6 4 4 4h3l-1-4-3-4 4 4v4c1 1 6 3 7 2l-1-3-1-3 2 3 1 3-1 1 3 2 4 1 1-3-2-4 2 4v4h2l-4 1c-2-1-11-6-12-5l7 5 3 4-3-2-7-3 2 1-2 3 7 6-2 2-4-3 2 3-1 2 4 5-2 3 3 3-3-2-2-2-2 3 2 4v4l-3-4-2 1-1 4c0 1 2 1 2 3l-1 4-3-4-4 4 2 2-3 1-3 1v-1z"/><path fill="#202020" d="M544 188v-1c1-1 3-3 2-4l-5 1-7-4s-14-10-36-11c-7 0-10 2-10 3s1-2 8-2c4 0 26 2 37 11 1 0 5 4 8 3h4l-1 2-1 2zm-39 3c0-1-1-3-4-5-3-3-12-6-12-7l12 7 4 5z"/><path d="m505 207-2-2a15 15 0 0 0-4-2l4 1c2 1 2 3 2 3zm-1-8-3-2-4-1h5c2 1 2 3 2 3zm-1-7-3-2-5-1h5c3 1 3 3 3 3zm-3-5-6-2-6-1h8l4 3zm-9-4-5-1h-7l10-1 2 2z"/></g><g fill="#f8c83c" stroke-width="0"><path d="m466 278 4 2c3 0 5 4 5 4l-3 3h-7l-2-3 3-6zm0-3-3-6c-2 0 0 2 0 3l-1 2s2 2 1 3l3-2z"/><path d="M465 282h2l2-1m-5-1s4-3 3-4c0-2-1-2-1-1l-3 2 1 3z"/><path d="m461 282 2 2 3-2-2-2h-3z"/><path d="m465 280-4 2-2-3h2l2-2 1 1 1 2z"/><path d="M462 281s-4 6-6 5l1-7 2 1 3 1z"/><path d="m455 278 5 1c1 1-2 2-4 2l-1-3z"/><path fill="#202220" d="M443 285s0 3 2 3c3 0 5-2 5-2l-6-3z"/><path fill="#4b4139" d="M443 285h-1l1 2 2 1h1l4-2v-1l-6-2-2 2h1l1-1 6 2v-1l-1 1-3 2h-1l-2-2v-1z"/><path fill="#202220" d="m444 285 4 1c3 1 5-2 5-2l-5-3z"/><path fill="#4b4139" d="M444 285s1 2 4 2 5-3 5-3l-5-4-4 5 4-4 5 3-5 2-3-1a3 3 0 0 1-1 0z"/><path fill="#4b4139" d="m444 285 3 1h3-5v-1z"/><path fill="#202220" d="M448 282s1 4 4 3c2 0 2-2 2-2l-3-4-3 3z"/><path fill="#4b4139" d="M448 282v2l3 1h1l2-1v-1l-3-4-3 3v1-1 1l3-4 3 4c0 1 0 2-2 2h-1l-2-1a6 6 0 0 1-1-1 2 2 0 0 1 0-1v1z"/><path fill="#4b4139" d="m448 283 3 2 2-1v1h-3l-1-1-1-1zm-5 3 2 1h3-1l-1 1h-2v-1l-1-1z"/><path d="m455 277 3 5c0 2 0 4-2 4l-4-3-1-3 4-3zm-13 1-2-1v4l3-1z"/><path d="m442 280-3 1 2 3 3-1z"/><path d="m443 282-3 1 3 3 1-2-1-2zm2-8h-2c-1 0-3 1-2 3l1 3 4-1z"/><path d="M445 277s-4 1-4 3l2 2c1 1 4-2 4-2z"/><path d="m448 283-4 2s-2-2-1-3l3-3 2 4zm3-13-3-1c-2 0-4 3-4 5l1 4 5-3z"/><path d="M447 280c-2 0-3-2-3-3s3-3 5-3l1 4s-2 3-3 2z"/><path d="m451 280-2 3c-1 0-2 0-3-2-1-1 0-1 1-2l3-1z"/><path d="M449 276s-2 1-1 3l3 2 3-2c1-1 2-1 2-3l-1-2c-1-1-4 0-6 2z"/><path fill="#202220" d="M454 269h-3l-3 4 1 3 3-1 1-2-1-2c0-2 2-2 2-2z"/><path fill="#4b4139" d="M454 269h-3l-2 3-1 2 1-2 2-3h3z"/><path d="m504 306 2-1 3-2 1 3-3 3h-2l-2-1z"/><path d="M500 306h4v3l-3 1-2-1v-3zm18-1-1-1-3-3v7h3l2-2z"/><path d="M500 306h-2c-2 0-3 1-3 2v5h4l9-5h-4l-2 1c-1 1-2 0-2-1v-2z"/><path d="m505 309-1 1-3 1 1 2 4 1 2-2v-2zm16-2-1-1-2-1-1 2-1 2 2 1h2l1-1z"/><path d="m509 306-2 1-2 2 2 2h2l4-3-1-2h-3zm15 3-1-1-2-1-2 2v1l2 2h2l2-1z"/><path d="M518 312h1l1 1 2 3h5l3-3-1-1s1-3-1-3h-4l-2 3-2-1-1-2h-1l-1-2h-2l-1-1-3 2-1 2-3 1s-1 3-2 2c-2 0-3-2-3-2l-3 1-1 2 1 4c1 0 3 2 5 0 2-1 1-3 1-3h2l4-3"/><path d="M514 297v10c-1 2-4 1-5 0v-5zm-4 14s0 2 2 2l1-1 1-1s0 2 2 2 2-2 2-2"/><path fill="#202220" d="M492 315v-2h3l1-3-1-2c-1 0-6 0-6 4 0 3 3 3 3 3zm8 8s-2-2-1-3c1-2 1-1 2-1v-2l-2-3c-1 0-4 3-3 5 0 4 4 4 4 4zm27-2s6 2 6-4c0-2-2-4-3-4l-2 1-1 2c0 1 2 0 2 2 2 3-2 3-2 3z"/><path fill="#4b4139" d="M500 323s-5-1-5-5c0-2 3-4 3-4l-2 4c0 4 4 5 4 5zm-8-8s-3 0-3-4c0-3 6-3 6-3s-6 0-6 4c1 3 3 3 3 3zm35 6h3c1 0 2 0 3-2l-1-5-2-1 2 1 1 5c-1 2-3 2-4 2a8 8 0 0 1-2 0z"/></g><g fill="#4d2a15"><path fill="#904720" d="M463 207h-1l1-2 3-1h6l1 1 2 3-6 4h-1v-1l-1-3z"/><path fill="#202020" d="M516 288v-8l-23 7 9 8z"/><path fill="#d2a567" d="m474 274-2-2-2-1h-2v1l2 3 4 1 1 2h1zm-1 3h2l1 2 1 2 1 2v1l-2-1-8-2 1-2 1-1h1l2-1z"/><path fill="#d2a567" d="M478 283h2v-12l-6-7-1 4 2 7 1 4z"/><path fill="#ab6d29" d="M474 267v3c0 3 1 8 3 11 2 4-2-2-2-2s-3-8-2-13c0-6 1 1 1 1z"/><path fill="#ab6d29" d="m478 272-1 3v3l1-2 1 4 1-7zm1 14-7-1-5-4 7 1 4 1h1l3-1v3l-3 1zm-11-1v2h-3a1718 1718 0 0 1 6 2s2-1 2-1l-5-3z"/><path fill="#d2a567" d="m466 283 3 2 3-1 1 1h1l-1 2-4-1-2-2z"/><path fill="#ab6d29" d="m481 280 1 2 1-4v-4l-3-1z"/><path d="m474 274-2-3-2-5 1-3 2 3v4l1 4z"/><path fill="#d2a567" d="m461 286 2-1h4l4 2 1 1-8-1-3-1z"/><path fill="#8f4620" d="M481 272v7l1 3-1 1h-3 2l-1-4-1-4-1 1 1-6c1-1 3 2 3 2z"/><path fill="#ab6d29" d="m467 285-1-2s1 3 5 3l4-1h2l-1 2-3 3h-1l-1-3-3-2z"/><path fill="#8f4620" d="m474 274-6-8c-2-4-1-8-1-8l5 6-1 3 3 7z"/><path fill="#ab6d29" d="m471 293 1-3c3-4 10-6 10-6v4l-10 5z"/><path fill="#8f4620" d="m472 289 2-2-4-1a15 15 0 0 1-3-1l3 2 1 1 1 1zm12 1-1-3-1-3-2 1-2 1 3 1-5 1h3l-3 2-4 2-1 1h2l5-1 6-2z"/><path fill="#ab6d29" d="m484 290-2-7c-2-7-1-9-1-9l2 2 3 5z"/><path fill="#8f4620" d="m485 279-1 6v5l3 4 1-1 1-3v-5l-4-6z"/><path fill="#202020" d="M489 284s1 10-2 10l-3-4s2 4 3 3c2 0 1-10 1-10l1 1zm-5 6-1-1-5 3c-5 2-7 1-7 1s2 1 7-1l5-2h1z"/><path fill="#ab6d29" d="m475 278 1 3 2 3-1-4-4-5z"/><path fill="#8f4620" d="M472 290v-2l-5-1a52 52 0 0 1-6-1l4 2 6 2z"/><path fill="#202020" d="m472 290-1-1-5-1-5-2s1 2 5 2l6 2z"/><path fill="#ab6d29" d="m474 277-5 1-2 3 2 1 1-3 4-2z"/><path fill="#8f4620" d="m467 271 3 2 3 2 2 3-6-3-2-4z"/><path fill="#8f4620" d="m472 272-2-1h-3l2 3 1-1-2-2c1-1 4 1 4 1z"/><path fill="#202020" d="m484 266 26-13 13 17-23 6-12 1-5-4z"/><path d="m519 274 32 28-3 2-8-2-15-16-6-5zm41 22-18-14-23-17v8l27 24 9 5 4-2 2-2-1-2z"/><path fill="#803f1d" d="M519 276s9 11 16 16c7 6 14 11 16 11l1-2-33-27v2z"/><path d="m542 303-3 3-4-2-20-20 1-4 3 1z"/><path fill="#202020" d="M560 296s-2 6-7 5c-5-2-34-29-34-29v3s29 26 35 27c5 2 10-3 9-4l-3-2z"/><path fill="#803f1d" d="m516 281 14 16c5 4 9 8 11 7 2 0-1-2-1-2l-14-14-7-7s-3-2-3 0z"/><path fill="#202020" d="m518 281 25 24c4 1 10-3 10-3l-2-1v1s-1 2-7 1c-5-1-25-23-25-23l-1 1z"/><path d="m527 303-9-9-1-4-1-4 17 17-2 2-2-1z"/><path fill="#202020" d="M542 304s-2 3-5 2l-4-2-16-16-1-3s18 19 21 20 5-2 5-2v1z"/><path fill="#202020" d="M533 303s-1 3-3 2l-3-1-10-12v-3s10 14 13 15c2 1 3-2 3-2v1z"/><path fill="#b07229" d="m523 272 10 9 4 1h-2l6 5 5 1h-3l5 5h6l-4 1c0 1 7 5 6 6l-8-5-1 2v-4l-6-4-1 3v-4l-6-4v2l-1-3c-1-1-11-10-10-11z"/><path d="m506 299-1 4c-2 1-5-7-5-7l-1-6 5 4 2 5zm13-2v-4l-1-4-1-2v-2h-1l-3 2-1 2 2 5 1 4 2 1 2-2zm-3 6-1-5-3-7-1-3-2-1-2 2 1 3 3 7c1 1 4 5 5 4z"/><path fill="#202020" d="m513 288 2 4 2 6h-2l4 3v-4l-1-1-2-6v-4c1-1 3 4 3 7v1-5l-2-3 1-3v-1h1l2-3-1-9-10 14 3 4z"/><path fill="#202020" d="m513 287 1 7 2 4v5l-4-10-1-5h-2z"/><path d="M512 306v-5l-4-7-4-4-2-3v6l4 8 6 5z"/><path fill="#202020" d="m497 289 1 3v2l3 5 3 5 2-3-2 2-4-10-1-2-2-2zm11 9-3-5c0-2-2-3-2-3l-1-3 3 3 3 1v7z"/><path fill="#5c3a1d" d="m501 293 2 4 4 4-4-4-2-4z"/><path fill="#202020" d="m508 290 2-2h1l-1-1-2-2v5zm0 1 4 8v6l-1-5-3-7v-2z"/><path d="m512 287 1-10-1-3-4-9-2 1-4-3v5l-1 3 8 15z"/><path fill="#8b441f" d="m496 293 2 1-1-5-12-15 11 19z"/><path fill="#8b441f" d="m503 287-1 6c-3 0-13-15-15-17l-7-5 7 1 15 14v1z"/><path fill="#202020" d="m496 293-2-4v-3l-9-12-3-2a23 23 0 0 0 0 3s2 5 6 9a703 703 0 0 0 8 9z"/><path d="M508 291v-6l-7-14-2 1-3-3-2-2v7l5 9 9 8zm7-8 2-2-1-7-4-14-3-1-2-2 1 9 5 12v4l2 1z"/><path fill="#202020" d="m502 286-6-7-2-4h-3l-4-3s-1 2 5 8c7 8 10 6 10 6z"/><path fill="#8b441f" d="M512 288c2-1 2-9 0-14l-4-9 4 11c1 4 0 6-1 6l-2-5-2-4s5 13 3 13l-8-16-1 1s7 19 11 17z"/><path d="m516 251 3 7 1 7v5l-1 12-2-2-3-12-2-13 1-1v-2h2z"/><path fill="#8b441f" d="M508 291v-3h-2l-2-5-1-2-2 3-7-10-1 1s9 17 15 16z"/><path fill="#202020" d="m504 283 1-4-4-8h-2l-3-2 3 7 5 7zm5-3-3-10-4-7v6l4 4 3 7zm6-9-1-9-2-8h2l1 3v-5h-1a25 25 0 0 1-1 0s0 1-1 2l-1-1v1l1 3a10 10 0 0 1-1 2s1 4 2 6l2 6zm5-1s1-8-1-13c-1-5-3-7-3-7l-1 1 4 9 1 10zm-8 4-2-10-1-6-2-1 1 5v2s0 3 2 4l2 6z"/><path fill="#904720" d="M516 284c2 0 1-9 0-11a593 593 0 0 0 0 3c-1 1-3-5-3-5l2 11-2-2v2s1 2 3 2z"/><path fill="#904720" d="m518 280-1-13a217 217 0 0 0 1 0l1 14-2-1v-1l1 1z"/><path fill="#312317" d="M503 290c1 1 1 4-1 3-2 0-5-3-5-4 0 0 3 4 5 4v-5l1 2z"/><path fill="#d2a567" d="M512 249h3c2-1 3-3 3-5l-1-3c-1-2 2 1 1 3 0 3 1 7-3 8h-2z"/><path fill="#8f4620" d="m509 241 3 8v5l-1-1-2-12z"/><path fill="#1e2121" d="m466 246 16 24 20-23-13-13z"/><path d="m486 232-1 3 2 7 4 3 3 3 1-3 1-4h1l3 1 1-2 3-5v-2l-1-1-4-7-2 2-1 1-2-1-3 3-4-1z"/><path fill="#5c3818" d="m494 248 1-3v-9l-2-7s2 5 2 11l-1 7c-2 1 0 1 0 1zm1-10s3 4 4 3c2-2 1-6 0-8l-2-5 1-1 2 5c0 2 2 8 0 9s-5-2-5-2v-1z"/><path fill="#8f4620" d="m487 241 2-1h1l1 3 2 3 2 2-1 1h-1l-4-2-1-1-1-5z"/><path fill="#d2a567" d="M493 274c-1 1-4 0-6-2l-10-10-1-5 3 1 6-3 1-2 7-3 4-3h9l2-4 3 7v9l-4-2c-1 0 2 9 0 9l-6-3s2 8 0 8l-8-4s2 6 0 7z"/><path fill="#8f4620" d="m491 264 2 3v5c-1 1-3-2-4-5l-3-6 5 3zm17-20 2 13c-2 1-6-4-6-4l-7-10-1-1 1-1 2 1 9 2zm-21 24c-1 1-2-1-3-2l-4-5-4-4-1-2 1-1h1l9 7 1 7zm12 0c0 1-6-3-8-7l-5-7a113 113 0 0 1-1-3h1l13 17zm2-5-4-4c-2-2-1-4-1-4l5 8zm3-1-6-8-3-4h-2v-1h1l1-1 2-2 6 13 1 3z"/><path fill="#ab6d29" d="m487 272-1 1c-2 0-11-5-16-12a3345 3345 0 0 1-4-8l2-2 14 17 5 4z"/><path fill="#8f4620" d="M487 272c1 1 0 1-1 1s-5-2-11-8c-6-7-8-11-8-12v-2l1-1 11 15 8 7z"/><path d="m497 266-5-5-6-9 2-1v-3h1l2 1 4 4 1 2 2 6-4-3c0 1 4 7 3 8zm-6-2 1 3c0 1-1 1-2-1l-4-5v4l-5-5-4-6v-7l1 1v1l6 7 1-1 3 6 3 3zm-20-9 8 11 8 6-12-15-4-2zm32 4-4-5-3-8v-5s5 4 6 7l2 5-4-2 3 8zm5-5c0 1-3-2-3-4l-1-4-2-5v-5h2l3 4 1 5v9zm-34 13-7-10-1-4 1 1s1 5 7 11l7 6s2 3 1 4l-8-8z"/><path fill="#202020" d="m480 274-9-10-7-10 2-2 6 11 8 11zm7-2-9-9-4-7 2 1 3 5 8 10zm-1-11-5-6-3-6 6 6h1v3l1 3zm2-16v5l-2 1 3 4 4 3-3-5-2-4c1-1 4 1 4 2l4 4-2-5-6-5z"/><path fill="#202020" d="m501 254-3-7-2-8v5l-2 5h-2 3l1-3 2 4 3 4z"/><path fill="#202020" d="M496 239s3 4 4 2c2-1 1-6 1-6h2l1-2 5 8 2 9s-3-4-4-9c-1-4-3-6-4-5v4l2 6 2 5-3-4-2-2-3-2-3-1v-1z"/><path fill="#171717" d="m485 254 3 6a328 328 0 0 1 3 4l-4-4-2-6z"/><path fill="#8f4620" d="M506 255h-2c-1 1 0 3 1 4l2 1v-5h-1z"/><path fill="#d2a567" d="m468 233-1 1-3 5 1 8 3 4 7 7 2-6v-5l3 4 4 4 3-6-6-15-2-2-11 1z"/><path fill="#ab6d29" d="m482 245 2 6v4l4-7-1-9v-8l-2-1-3 6v9zm-11-3 1 8 3 5 2-7-1-9-1-6-4 9z"/><path fill="#45392d" d="M463 230s-5 7-5 11l2 6 2 9h1v-26z"/><path fill="#ab6d29" d="M463 231s-4 7-4 10l2 7c2 3 2 8 2 8l2-1 3-4-1-3-1-3-1-1v-7l1-4v-2z"/><path fill="#dbad6c" d="m486 242-3-1-1-2v-1z"/><path fill="#d2a567" d="M464 232s-3 6-3 11l3 10 1-1-1-14 2-4v-2h-2z"/><path fill="#8f4620" d="M471 233v3l-2 3-2 4 2-2 2-2v4l-2 3 1 4v-4l1-1 2 3v-3l2-3v-8l3-1-3-3-4 3z"/><path fill="#dbad6c" d="M485 246h-2l-1-1 1-1 1 1z"/><path fill="#8f4620" d="m466 247-1 2v3l-1-5v-4l-1 1v-6l-1 1-1 2 1-3 3-5v-2h2l1 3-1 1-2 5 1 7zm14-13 1 4-2 2-1 4 1-2 1-2 1 3 2 4v-2h1a23 23 0 0 1 1 1l-1-1-1-3-1-3 2 1 2 2-1-1v-8l1-3-6 4z"/><path fill="#1e2121" d="m497 228 1 5 1 6-2-6-2-5-2 2 2 7-2-4-1-3v3l1 4-1-2a9 9 0 0 0-1-1v4l2 2-2-2v-1l1 5 2 5-3-4c-2-3-2-12-2-13l2-3 2-7 2 7 2 1zm-13-2 1 2 1 2-3 3c-2 2-5 3-5 2l-1-1 4-3 2-3 1-2zm-17 6s0 3 2 3l6-4 1-2-1-1s-4 5-6 5l-2-1zm0-5v3a5 5 0 0 0 0 2s-3 1-4 0v-3h2l2-2zm31-5 3 5 2 5-3-3-2-2 1-2-1-3z"/><path fill="#dbad6c" d="M463 229h3l1-2v4c0 2 1 2 2 2l3-2 3-3 1 4c0 2 1 2 3 1l4-4 1-2 2-1 1-9-1-1-2 1-2-1-1-1-2 3-1 1h-3v-1l-1-2h-1l-4 4h-2l-2 3-1 2-2 4z"/><path fill="#8f4620" d="m481 221-1 5-3 6s4-2 6-6 1-9 1-9l-3 4zm4-4v4l-1 6 1 2c0 1 2 3 3 2l3-3 2-5 1 1 1 2 3 2 1-2-2-6-3-6-1-2h-5l-3 5z"/><path fill="#ab6d29" d="m493 212 1 5-1 6v-6l-1-4 1-1z"/><path d="M499 223v3c-1 1-2-1-3-4l-2-7-1-3 2-1 4 12zm-11 7s4-3 5-10l-2-8s0 5-2 9l-3 6 2-1 1-2v3l-1 3zm-4-13-2 3-4 3 3-4v-3l-1 2-3 1 1-2v-1l2-4 2 3 2 2z"/><path fill="#1e2121" d="m497 209 2 6v8l-3-5-1-4-2-2h-1l1-2v-2l2 1h2zm-9 15 3-7v-5l-2-1-2-3v4c0 3-3 5-3 5h3c2-1 2-4 2-4v4l-1 7z"/><path fill="#8f4620" d="m461 229 3-5 3-5h1l4-2 2-4c0-1-1 3 1 4l2 2-1 4-1 5v-5c-1-1-1 0-2 2l-1 2 1-3v-2h-1l-1 1 1-1 1-3 1-1v-2l-2 2-2 2-2 4-1 4-1 1 1-4 2-5h-2l-3 4-1 5h-2z"/><path fill="#874f20" d="m499 207-2 2h-3l-1-3z"/><path fill="#b27129" d="m468 212-1 3-2 3 2 1c2 0 2-7 2-7z"/><path fill="#dbad6c" d="M488 207s-1 10-4 10c-2 0-4-5-4-5s0 7-3 7c-2 0-4-5-3-6l-3 5c-3 2-5 1-5 1 0-1 3-4 3-7l1-1 2-3c1 1 5-1 5-1l2-3h2l2-3 4 4 1 2z"/><path fill="#b27129" d="m477 198 4 6 1-1 1 2c-1 1-2 4-1 6v-3l1-2 2 9 1-7c0-3 1-1 1 0s3 5 5 4 2-4 2-5l-2-6-9-6-1 3h-5z"/><path fill="#8f4620" d="m490 197 2 3c0 2 1 10-1 10l-4-3v-5l-2-5v-3h2z"/><path d="m489 195 4 6 4 5 2 1s-2 2-5 0c-2 0-1-3-3-7-1-3-4-5-4-5l1-1z"/><path fill="#1e2121" d="m487 192 5 5 4 6 3 4-2-1-2-2-4-6-4-3 3 3 2 5-2-3-5-5 3 4 2 6-3-5-3-3-2-3h3l2-2z"/><path fill="#8f4620" d="m478 198 4 1 1-1 1 3-1 3-1-3-4-3z"/><path fill="#b27129" d="m479 204 1 6-3 7-1-6-1 2 1-4v-1l2-3z"/><path fill="#8f4620" d="m475 207-3 1-1 1h1v2c0 2-3 5-3 5l4-4 1-3 2-1 1 1v4l2-4v-5h-1l-2-1-1 4z"/><path fill="#dbad6c" d="M487 189s1 3-1 4l-2 1-2-1-6-2-4-1-1-1v-1h5l4 2h2l2 1h1l1-1h1v-1z"/><path fill="#ab6d29" d="M487 189v2h-4l-5-2-5-1c-2 0-1-1-1-1l7 1 6 2 2-1z"/><path d="M471 187h2v1h-2v-1z"/><path fill="#dbad6c" d="M483 195s2 2 1 3l-4-1-6-3-4-1v-1l1-1v-1h4l5 2z"/><path fill="#dbad6c" d="M478 198s4 4 3 6l-9-5-3 5-7-4 7-5v-1h4l5 2z"/><path fill="#ab6d29" d="m476 190 5 2 5 1s-1 2-3 2l-3-2-4-2z"/><path d="m471 189 3 1h3l-1 1-3-1h-2z"/><path fill="#ab6d29" d="m483 197 1 1-2 1h-3l-4-3-4-2h-2l1-1 5 1 4 1 3 2h1zm-8 3 1 4-1 3h-3v-2l-3-2 2-3 1-2z"/><path d="m470 192 2 1 3 1 2-1-1 1 4 1 3 2-3-1-5-2h-6v-1l1-1z"/><path fill="#ab6d29" d="M481 203v1c-1 1-4 1-5-1l-1-2-4-2c-1-1 1-1 1-1l5 2 4 3z"/><path d="M481 203s-2-3-8-5h2-3l-1-1-4-1v1l-1 1h3c2 0 2 1 2 2l-2 3s1-3 3-2l2 1-1-1-1-2 5 2 4 2z"/><path fill="#dbad6c" d="M472 199s4 1 4 6c0 4-4 3-4 2 0-2 0 0 2 0l1-3-1-4-2-1z"/><path fill="#6c3f18" d="M453 188v3l-4 7-5 5c1 2 2 1 2 1l7-9 1-5v-2z"/><path fill="#dbad6c" d="M469 181s2 3 1 8-7 10-7 10l-10 6h-5l-2-1-1-2 2-1 3-4 3-3 1-3-1-3 1 1 1 3-1 3 3-2 3-1 2-2 1-6v-3l1 3 1 4 2-2 1-2 1-3z"/><path fill="#904720" d="M470 207v2c0 2-2 3-2 3v-3l-2-1-3-1h1l2-2z"/><path fill="#ab6d29" d="M468 207h2l1-3-1 2c-1 1-2-1-3-2l-2 1c-1 1 1 1 1 1h2z"/><path fill="#904720" d="M454 200h3l4-2 3-2c1-1 5-3 5-8v-7s5 6 0 13l-5 5h5v4s3 0 3 2l-6-1-4 3-3-1-4 1-7-2 3-3c1-3 3-2 3-2z"/><path fill="#ab6d29" d="m465 188 3-4 1-3-1 4a20 20 0 0 1-3 3z"/><path fill="#904720" d="M465 183s1 7-1 9c-1 3-9 7-9 7l8-7 1-7 1-2z"/><path fill="#1e2121" d="m457 200 4-1 3-3-2 2-1-2-2 3-2 1zm6-8s2-3 2-7c0-5-2-4-2-4l1 5-1 6zm2 0 3-2 1-4-1 3-3 3zm-1 15s1-3 3-2l1 2-2-1-2 1zm-5-5 6-1 4-2-4 4-5 1 6-3s-5 2-7 1z"/><path fill="#fff" d="M454 197a4 4 68 0 1-5 7"/><path fill="#f16e16" d="M453 197a4 4 68 0 1-4 6"/><path fill="#000" d="M452 199a1 1 0 1 1-2 3"/><path fill="#d5d3ca" d="M452 201h-1 1z"/><path fill="#ab6d29" d="m454 194 3-5 1-5 1 2v6l2-1 2-10v6c-1 4-2 5-5 7-2 0-4 2-6 6l-4 5 3-5 2-4 1-2z"/><path fill="#904720" d="m453 196 1-4-1-4s2 0 2 3c0 4-1 4-2 5z"/><path d="m458 192 1-4-1-4 2 4c0 3-1 3-2 4z"/><path fill="#ab6d29" d="m447 205-1-2 3-3 3-5c1-1 3-5 1-7 0 0 1 3-1 6l-5 6c-2 1-2 2-2 3l1 1 1 1z"/><path fill="#6c4119" d="m468 212 1-1-1-2-3-2h-3l2 2h3l1 3z"/><path fill="#6c4119" d="M468 212s2-1 2-3v-2l1 1h1s-1 4-4 4z"/></g><g fill="#f9c83a"><path fill="#bf802d" d="m451 212 2 1 1 1 6-1 1-2-1-3h-4z"/><path d="m465 210-1-2-1-1h-7l-2 1-4-2-3-1-3-1-1 1v2l-1 1s-4 2-5 6c-1 5 7 11 10 8 0 0-4-4-3-6 0-3 2-4 6-5l5-1c1-1 4-2 6 0s-8 4-8 4l1 2s12-4 11-6z"/><path fill="#fcf3d8" d="M443 220s-5-2-4-6c0-4 4-6 5-6l1-3 3 1 2 1s-8 4-8 9l1 4z"/><path fill="#fdeaaf" d="M465 209h-1l-4-2-5 1h-3l-6-3c-1 0-2 1-1 2h-2s1-3 3-3c4 0 7 3 8 3l6-1c2 0 5 1 5 3z"/><path fill="#513625" d="m452 212 3-1 4-1-3 2-3 1z"/><path d="m445 222-4-2c-3-1-4-4-4-4l2-6c3-3 4-2 4-2l-3 2-1 2-1 2v2l1 2 4 3 2 1z"/><path fill="#8b5122" d="M445 205c-2 0-2 1 0 0h-2l-1 1v1l1 1h2v-1h-2l1-1 1-1v-1c-1 0-2 2 0 1z" style="fill:#8f4620;fill-opacity:1"/><path d="m452 210-6 1h4a7 7 0 0 1 2 1l1-1c2-1 7-2 7 0 1 1-6 3-6 3v1l5-2 3-1 1-2-3-2h-4l-2 1z"/><path fill="#8f4620" d="m444 218 2 3v1h-3c-1-1-4-2-6-7v1l1 2 2 2 3 2 2 1 1-1h1l-2-2-2-3 1 1z"/></g><g fill="#816c2a"><path fill="#fcca3d" d="m463 269-1 2-1-1 1-2zm-8-53-2-2h-1l2 3z"/><path d="m462 273-2-1-4-1 4 1a22 22 0 0 1 2 1zm0-5h-4l-2 1v1a6 6 0 0 1 2-1h2a27 27 0 0 1 2 0zm0-4-4 2-3 2 1 1v-1a28 28 0 0 1 2-1l2-2a57 57 0 0 1 2 0zm-3-4v2l-1 1-3 3-1 1v1l2-3a136 136 0 0 0 2-2l1-1 1-2h-1zm-3-2v4l-2 3-1 1v1h1l2-5a7 7 0 0 0 1-3l-1-1zm-3 0v2l-1 2-1 3v2l2-5v-4zm-3 0v5l-1 3 1 1v-4l1-5zm-2 0v1a24 24 0 0 1 0 4l-1 3a34 34 0 0 1 1-3v-5zm-3 1v3l-1 3v2l1-5 1-3v-1l-1 1zm-2 0v4l-3 2a15 15 0 0 1-1 1l4-3 1-3v-2zm-1-1-2 3-2 2-1 1 4-2 1-4zm-3-1a14 14 0 0 1-1 2l-1 1-1 1h1l1-2 1-1 1-1zm-1-1a26 26 0 0 1-2 2l-1 1 1-1 3-2zm0-1h-1l-1 1h-1v1l1-1 2-1zm-1-1h-1a15 15 0 0 1-1 1l3-1h-1zm0-3a5 5 0 0 1-1 1l-1 1 1-1h1zm0-3-1 1-1 1a1 1 0 0 1 0 1l1-2h1v-1zm16-20h3-1 1-1 1-3zm0-1h2l1-1 1-1h-1l-1 1-1 1zm0-2 1-1 2-1 2-1h-1l-2 1-2 1v1zm-1-2 3-2 2-2-3 2-2 1v1zm-1-3 5-3v-1l-5 4zm-2-2 2-2 3-2-3 1-3 2zm-2-2a205 205 0 0 1 5-3v-1l-1 1-4 3z"/><path fill="#78732e" d="m451 212 4 4 3 6v1l-4 7-11 10-5 5-1 5v1l1 5a7 7 0 0 0 6 3l9-1c2 0 5 0 7 3 2 2 2 5 2 8v7a38 38 0 0 1-1 3l2-10-3-9c-2-2-5-3-7-3l-9 1h-1c-2 0-3-1-4-3l-2-5 3-6 11-10c3-3 7-7 7-11v-1c0-3-2-5-3-7a26 26 0 0 0-4-4v1z"/><path fill="#a8ac71" d="M447 216h-1l1 1zm2 2-1-1v1z"/><path fill="#78732e" d="M451 220h-1 1zm2 3-1-1v1zm0 2v-1 1zm1 2v-1h-1v1zm-1 2 1-1h-1v1zm-18 22v-1l-1 1h1z"/><path fill="#fff" d="M435 253h-1 1z"/><path fill="#78732e" d="M435 255h-1v1z"/><path fill="#fff" d="M435 257v-1 1zm0 2v-1 1zm1 2v-1l-1 1h1z"/><path fill="#a8ac71" d="M437 264zm3 2h-1c-1 0 0 0 0 0v1zm15 2-1-1v1h1z"/><path fill="#fff" d="m456 269-1-1 1 1z"/><path fill="#a8ac71" d="M456 269v1-1zm0 2v-1 1z"/><path fill="#fff" d="M455 273h1-1zm-22-79v-1z"/></g><path fill="#f9c83a" d="m451 211 1 1-1-1z"/><path fill="#8f4620" d="M452 212h-1v-1z"/><path fill="#977c2e" d="m461 279 1-1-1 1z"/><path d="M445 205v-1h1l-1 1z" style="fill:#fdeaaf;fill-opacity:1;stroke:none;stroke-width:1px;stroke-linecap:butt;stroke-linejoin:miter;stroke-opacity:1"/><path d="M443 205v1-1z" style="fill:none;stroke:none;stroke-width:1px;stroke-linecap:butt;stroke-linejoin:miter;stroke-opacity:1"/><path id="path-b7390" d="m m0 77 m0 65 m0 65 m0 65 m0 65 m0 65 m0 65 m0 65 m0 65 m0 65 m0 65 m0 65 m0 65 m0 65 m0 65 m0 65 m0 65 m0 65 m0 65 m0 65 m0 78 m0 82 m0 115 m0 50 m0 68 m0 119 m0 72 m0 98 m0 116 m0 74 m0 107 m0 100 m0 103 m0 98 m0 122 m0 86 m0 112 m0 82 m0 122 m0 112 m0 80 m0 72 m0 115 m0 106 m0 57 m0 82 m0 113 m0 56 m0 48 m0 48 m0 82 m0 121 m0 111 m0 88 m0 72 m0 112 m0 104 m0 100 m0 99 m0 90 m0 43 m0 116 m0 89 m0 83 m0 107 m0 110 m0 71 m0 86 m0 85 m0 51 m0 98 m0 52 m0 106 m0 88 m0 81 m0 53 m0 90 m0 111 m0 80 m0 79 m0 74 m0 78 m0 101 m0 48 m0 83 m0 119 m0 61 m0 61"/>
</svg>