<svg xmlns="http://www.w3.org/2000/svg" width="600" height="300" viewBox="0 0 12 8">
	<title>Flag of the Central African Republic</title>
	<path fill="#fff" d="m0 0h12v8H0z"/>
	<path fill="#003082" d="m0 0h12v2H0z"/>
	<path fill="#ffce00" d="m6 4 6 2v2H0V6zM2 .1859l.529 1.6282L1.144.8078h1.712L1.471 1.8141z"/>
	<path fill="#289728" d="m0 4h12v2H0z"/>
	<path fill="#d21034" d="m5 0h2v8H5z"/>
<path id="path-b7452" d="m m0 79 m0 65 m0 65 m0 65 m0 65 m0 65 m0 65 m0 65 m0 65 m0 65 m0 65 m0 65 m0 65 m0 65 m0 65 m0 65 m0 65 m0 65 m0 65 m0 65 m0 81 m0 116 m0 100 m0 56 m0 101 m0 43 m0 78 m0 76 m0 82 m0 114 m0 110 m0 88 m0 117 m0 48 m0 76 m0 51 m0 83 m0 67 m0 98 m0 77 m0 53 m0 97 m0 80 m0 98 m0 90 m0 122 m0 66 m0 98 m0 99 m0 86 m0 69 m0 81 m0 68 m0 101 m0 79 m0 77 m0 88 m0 116 m0 114 m0 100 m0 76 m0 66 m0 116 m0 89 m0 100 m0 50 m0 66 m0 98 m0 113 m0 81 m0 99 m0 72 m0 110 m0 87 m0 67 m0 52 m0 84 m0 71 m0 53 m0 90 m0 56 m0 121 m0 73 m0 82 m0 70 m0 65 m0 61 m0 61"/>
</svg>
