<?xml version="1.0" encoding="UTF-8"?>
<svg xmlns="http://www.w3.org/2000/svg" width="900" height="600">
<rect fill="#007E3A" width="900" height="600"/>
<rect fill="#FC3D32" width="900" height="300"/>
<rect fill="#FFF" width="300" height="600"/>
<path id="path-b7241" d="m m0 78 m0 65 m0 65 m0 65 m0 65 m0 65 m0 65 m0 65 m0 65 m0 65 m0 65 m0 65 m0 65 m0 65 m0 65 m0 65 m0 65 m0 65 m0 65 m0 65 m0 78 m0 74 m0 86 m0 109 m0 77 m0 106 m0 72 m0 107 m0 52 m0 103 m0 114 m0 88 m0 77 m0 101 m0 108 m0 105 m0 51 m0 53 m0 84 m0 69 m0 56 m0 72 m0 113 m0 98 m0 88 m0 120 m0 73 m0 53 m0 119 m0 80 m0 107 m0 80 m0 110 m0 81 m0 51 m0 69 m0 99 m0 98 m0 105 m0 121 m0 52 m0 116 m0 90 m0 52 m0 114 m0 87 m0 78 m0 47 m0 103 m0 107 m0 110 m0 89 m0 102 m0 52 m0 43 m0 73 m0 69 m0 77 m0 51 m0 85 m0 88 m0 49 m0 90 m0 97 m0 112 m0 119 m0 61 m0 61"/>
</svg>