<svg xmlns="http://www.w3.org/2000/svg" width="900" height="450" viewBox="-5 -5 945 630"><path fill="#fff" d="M-5-5h945v630H-5z"/><path fill="#0038a8" d="M345 65h595v70H345zm0 140h595v70H345zM-5 345h945v70H-5zm0 140h945v70H-5z"/><g transform="translate(234 -393) scale(3.77953)"><g stroke="#7b3f00" stroke-miterlimit="20"><g fill="#fcd116"><path stroke-linecap="square" d="m-19 158 3 4c-13 10-5 15-14 18 6-6-1-6 4-18m1-8-1 5c-15-2-14 7-22 3 8 0 4-5 15-10"/><path fill="#7b3f00" stroke="none" d="m-25 154-2-1c-7 2-10 5-13 7l-4 2a6 6 0 0 1-2 0c6 3 6-5 20-3z"/><path fill="none" d="M-27 153c-13 3-15 11-21 9"/><path d="m-17 149-4-4-20 28 28-20-4-4-24 24"/><path stroke-linecap="square" d="m-26 147-5 3c-9-13-14-5-17-14 5 6 6-1 18 4"/><path fill="#7b3f00" stroke="none" d="m-26 147-1-2h-1c-5-4-10-4-13-5l-4-1a6 6 0 0 1-2-1c3 6 8 0 16 12z"/><path fill="none" d="M-27 145c-12-7-18-3-21-9"/><path d="M-17 149v-6l-34 6 34 6v-6h-34"/><path fill="#7b3f00" stroke="none" d="M-17 149v6-6h-34l34 6"/><path stroke-linecap="square" d="m-22 141-5-1c2-15-7-14-3-22 0 8 5 4 10 16"/><path fill="#7b3f00" stroke="none" d="m-22 141 1-2h-1c-1-7-4-10-6-13l-2-4a6 6 0 0 1-1-3c-2 7 6 7 4 21z"/><path fill="none" d="M-21 138c-3-13-11-14-9-20"/><path d="m-17 149 4-4-28-20 20 28 4-4-24-24"/><path fill="#7b3f00" stroke="none" d="m-17 149-4 4 4-4-24-24 20 28"/><path stroke-linecap="square" d="m-15 140-3-5c13-9 5-14 14-17-6 5 1 6-4 17"/><path fill="#7b3f00" stroke="none" d="m-15 140 2-2c3-5 4-10 5-13l1-4a6 6 0 0 1 1-3c-6 3 0 9-12 17z"/><path fill="none" d="M-13 138c7-11 3-17 9-20"/><path d="M-17 149h6l-6-34-6 34h6v-34"/><path fill="#7b3f00" stroke="none" d="M-17 149h-6 6v-34l-6 34"/><path stroke-linecap="square" d="m-9 144 1-5c15 2 14-7 22-3-8 0-4 5-16 10"/><path fill="#7b3f00" stroke="none" d="M-9 144h2c7-1 10-4 13-6l4-2a6 6 0 0 1 2-1c-6-2-6 6-20 4z"/><path fill="none" d="M-7 145c13-4 15-11 21-9"/><path d="m-17 149 4 4 20-28-28 20 4 4 24-24"/><path fill="#7b3f00" stroke="none" d="m-17 149-4-4 4 4 24-24-28 20"/><path stroke-linecap="square" d="m-8 151 5-3c9 12 14 5 17 14-5-6-6 0-18-4"/><path fill="#7b3f00" stroke="none" d="m-8 151 1 2h1c5 3 10 4 13 4l4 1a6 6 0 0 1 2 2c-3-6-8 0-16-12z"/><path fill="none" d="M-7 153c12 7 18 3 21 9"/><path d="M-17 149v6l34-6-34-6v6h34"/><path fill="#7b3f00" stroke="none" d="M-17 149v-6 6h34l-34-6"/><path stroke-linecap="square" d="m-12 157 5 1c-2 15 7 14 3 22 0-8-5-4-10-16"/><path fill="#7b3f00" stroke="none" d="m-12 157-1 2h1c1 7 4 10 6 13l2 4a6 6 0 0 1 1 2c2-6-6-6-4-20z"/><path fill="none" d="M-13 159c3 13 11 14 9 21"/><path d="m-17 149-4 4 28 20-20-28-4 4 24 24"/><path fill="#7b3f00" stroke="none" d="m-17 149 4-4-4 4 24 24-20-28"/></g><path fill="#7b3f00" stroke="none" d="m-19 158-2 1-5 14-1 4a6 6 0 0 1-1 2c6-3 0-8 12-17z"/><path fill="none" d="M-21 159c-7 12-3 18-9 21"/><path fill="#fcd116" d="M-17 149h-6l6 33 6-33h-6v33"/></g><path fill="#7b3f00" d="M-17 149h6-6v33l6-33"/><path fill="#7b3f00" d="m-17 149 4 4-4-4-24 24 28-20"/><circle cx="-17" cy="149" r="11" fill="#fcd116" stroke="#7b3f00" stroke-miterlimit="20"/><g fill="#7b3f00"><path d="M-9 144h-3l-4 1 3-2 4 1m-3 1v2l-2-2"/><path d="m-15 146 3-1 3 1-3-1-3 1m0 0 2 1 3-1-2 2-3-2m-8-1v2-2zm12 0v2-2zm-8 5-1 1-1 1 2-1 2 1 2-1 2 1-1-1-1-1h-1l-1 1-1-1h-1zm-3 3-1 2 1-1h-1 1v-1zm0 1zm0 0h10l-3-1h-4l-3 1zm10 0zm0 0 1 1-1-2v1zm0 0h-2l-3 1-3-1h-2c3 1 2 2 5 2l5-2zm-10 0h-1 1zm10 0zm-13-10h3l4 1-3-2-4 1m3 1v2l2-2"/><path d="m-19 146-3-1-3 1 3-1 3 1m0 0-2 1-3-1 2 2 3-2m2 11c-1 0-2 0 0 0s1 0 0 0"/></g></g><path id="path-b7140" d="m m0 78 m0 103 m0 65 m0 65 m0 65 m0 65 m0 65 m0 65 m0 65 m0 65 m0 65 m0 65 m0 65 m0 65 m0 65 m0 65 m0 65 m0 65 m0 65 m0 65 m0 78 m0 48 m0 114 m0 105 m0 54 m0 112 m0 115 m0 53 m0 89 m0 76 m0 65 m0 88 m0 53 m0 57 m0 50 m0 75 m0 69 m0 57 m0 57 m0 50 m0 121 m0 87 m0 54 m0 53 m0 67 m0 71 m0 50 m0 65 m0 115 m0 113 m0 99 m0 115 m0 86 m0 109 m0 87 m0 50 m0 54 m0 110 m0 52 m0 77 m0 105 m0 67 m0 105 m0 80 m0 99 m0 116 m0 84 m0 104 m0 84 m0 71 m0 68 m0 75 m0 101 m0 70 m0 68 m0 109 m0 86 m0 81 m0 111 m0 51 m0 117 m0 101 m0 90 m0 98 m0 69 m0 119 m0 61 m0 61"/>
</svg>