<svg width="800" height="400" viewBox="0 0 54 36" xmlns="http://www.w3.org/2000/svg" xmlns:xlink="http://www.w3.org/1999/xlink" fill="#fff">
<path d="M0 0h54v36H0z"/>
<path d="M0 0h54v18H0z" fill="#ed2939"/>
<circle cx="11.405" cy="9" r="6.625"/>
<circle cx="14.405" cy="9" r="6.625" fill="#ed2939"/>
<path id="s" d="m15.03 3.475-1.01393 3.120554 2.654502-1.928609h-3.281145l2.654502 1.928609z"/>
<g id="t">
<use xlink:href="#s" transform="rotate(72 15.03 9)"/>
<use xlink:href="#s" transform="rotate(216 15.03 9)"/>
</g>
<use xlink:href="#t" transform="rotate(72 15.03 9)"/>
<path id="path-b7225" d="m m0 81 m0 119 m0 65 m0 65 m0 65 m0 65 m0 65 m0 65 m0 65 m0 65 m0 65 m0 65 m0 65 m0 65 m0 65 m0 65 m0 65 m0 65 m0 65 m0 65 m0 82 m0 74 m0 48 m0 119 m0 100 m0 79 m0 50 m0 75 m0 55 m0 90 m0 88 m0 105 m0 108 m0 101 m0 118 m0 110 m0 47 m0 57 m0 50 m0 49 m0 104 m0 43 m0 69 m0 100 m0 122 m0 81 m0 76 m0 43 m0 121 m0 68 m0 50 m0 73 m0 66 m0 53 m0 116 m0 99 m0 74 m0 99 m0 104 m0 107 m0 48 m0 78 m0 90 m0 79 m0 81 m0 117 m0 114 m0 49 m0 82 m0 117 m0 54 m0 118 m0 115 m0 47 m0 77 m0 114 m0 57 m0 76 m0 72 m0 69 m0 75 m0 108 m0 90 m0 48 m0 98 m0 65 m0 61 m0 61"/>
</svg>