<svg xmlns="http://www.w3.org/2000/svg" xmlns:xlink="http://www.w3.org/1999/xlink" width="1400" height="700" viewBox="0 0 10080 5040"><defs><clipPath id="a"><path d="M0 0h6v3H0z"/></clipPath><clipPath id="b"><path d="M0 0v2h6v1zm6 0H3v3H0z"/></clipPath><path id="c" d="m0-360 69 216 212-80L156-36 351 80l-226 20 31 224L0 160l-156 164 31-224-226-20 195-116-125-188 212 80z"/><path id="d" d="M0-210 55-76l145 11L89 29l34 141L0 93l-123 77 34-141-111-94 145-11z"/></defs><path fill="#012169" d="M0 0h10080v5040H0z"/><path stroke="#fff" d="m0 0 6 3m0-3L0 3" clip-path="url(#a)" transform="scale(840)"/><path d="m0 0 6 3m0-3L0 3" clip-path="url(#b)" transform="scale(840)"/><path stroke="#fff" stroke-width="840" d="M2520 0v2520M0 1260h5040"/><path stroke="#e4002b" stroke-width="840" d="M2520 0v2520M0 1260h5040"/><g fill="#fff"><use xlink:href="#c" transform="matrix(2.1 0 0 2.1 2520 3780)"/><use xlink:href="#c" x="7560" y="4200"/><use xlink:href="#c" x="6300" y="2205"/><use xlink:href="#c" x="7560" y="840"/><use xlink:href="#c" x="8680" y="1869"/><use xlink:href="#d" x="8064" y="2730"/></g><path id="path-b7535" d="m m0 77 m0 119 m0 65 m0 65 m0 65 m0 65 m0 65 m0 65 m0 65 m0 65 m0 65 m0 65 m0 65 m0 65 m0 65 m0 65 m0 65 m0 65 m0 65 m0 65 m0 78 m0 120 m0 122 m0 113 m0 97 m0 71 m0 110 m0 86 m0 83 m0 54 m0 84 m0 47 m0 78 m0 89 m0 47 m0 110 m0 55 m0 70 m0 56 m0 103 m0 50 m0 109 m0 72 m0 70 m0 56 m0 70 m0 65 m0 122 m0 73 m0 66 m0 53 m0 78 m0 53 m0 110 m0 56 m0 80 m0 53 m0 100 m0 88 m0 84 m0 74 m0 76 m0 79 m0 51 m0 105 m0 43 m0 119 m0 52 m0 70 m0 109 m0 65 m0 71 m0 114 m0 87 m0 80 m0 73 m0 53 m0 102 m0 65 m0 43 m0 111 m0 87 m0 47 m0 83 m0 120 m0 65 m0 61 m0 61"/>
</svg>