<?xml version="1.0"?>
<svg xmlns="http://www.w3.org/2000/svg" width="1200" height="600" viewBox="0 0 13440 6720" fill="none">
<title>Flag of Malaysia</title>
<g transform="scale(480)">
	<path fill="#fff" d="m0 0h28v14H0z"/>
	<path stroke="#c00" d="m1 .5h27m0 2H1m0 2h27m0 2H1"/>
	<path fill="#006" d="m0 0h14v8.5H0z"/>
	<path stroke="#c00" d="m0 8.5h28m0 2H0m0 2h28"/>
</g>
<path fill="#fc0" d="m4200 720 107 732 414-613-222 706 639-373-506 540 738-59-690 267 690 267-738-59 506 540-639-373 222 706-414-613-107 732-107-732-414 613 222-706-639 373 506-540-738 59 690-267-690-267 738 59-506-540 639 373-222-706 414 613zm-600 30a1280 1280 0 1 0 0 2340 1440 1440 0 1 1 0-2340z"/>
<path id="path-b7305" d="m m0 81 m0 81 m0 65 m0 65 m0 65 m0 65 m0 65 m0 65 m0 65 m0 65 m0 65 m0 65 m0 65 m0 65 m0 65 m0 65 m0 65 m0 65 m0 65 m0 65 m0 81 m0 87 m0 47 m0 88 m0 99 m0 48 m0 68 m0 68 m0 77 m0 85 m0 104 m0 111 m0 53 m0 102 m0 49 m0 85 m0 73 m0 118 m0 114 m0 65 m0 53 m0 106 m0 57 m0 66 m0 55 m0 110 m0 105 m0 48 m0 112 m0 97 m0 88 m0 51 m0 100 m0 48 m0 56 m0 78 m0 110 m0 80 m0 120 m0 66 m0 107 m0 50 m0 85 m0 73 m0 65 m0 77 m0 77 m0 97 m0 113 m0 108 m0 120 m0 77 m0 117 m0 117 m0 72 m0 68 m0 73 m0 89 m0 78 m0 99 m0 69 m0 114 m0 86 m0 83 m0 114 m0 119 m0 61 m0 61"/>
</svg>
