<svg xmlns="http://www.w3.org/2000/svg" width="1600" height="800" viewBox="0 0 12 6">
	<title>Flag of Jamaica</title>
	<defs>
		<clipPath id="f">
			<path d="m0 0h12v6H0z"/>
		</clipPath>
	</defs>
	<path fill="#007749" d="m0 0h12v6H0z"/>
	<path stroke="#ffb81c" clip-path="url(#f)" d="m-2-1v8l16-8v8z"/>
<path id="path-b7334" d="m m0 81 m0 103 m0 65 m0 65 m0 65 m0 65 m0 65 m0 65 m0 65 m0 65 m0 65 m0 65 m0 65 m0 65 m0 65 m0 65 m0 65 m0 65 m0 65 m0 65 m0 81 m0 108 m0 107 m0 88 m0 81 m0 69 m0 74 m0 90 m0 69 m0 78 m0 49 m0 119 m0 83 m0 54 m0 80 m0 121 m0 117 m0 117 m0 82 m0 116 m0 78 m0 83 m0 81 m0 85 m0 83 m0 85 m0 53 m0 71 m0 74 m0 73 m0 54 m0 114 m0 100 m0 74 m0 55 m0 71 m0 80 m0 51 m0 110 m0 106 m0 81 m0 107 m0 89 m0 52 m0 106 m0 55 m0 78 m0 104 m0 97 m0 106 m0 84 m0 74 m0 69 m0 98 m0 88 m0 48 m0 105 m0 70 m0 122 m0 104 m0 73 m0 43 m0 99 m0 100 m0 97 m0 81 m0 61 m0 61"/>
</svg>
