<svg xmlns="http://www.w3.org/2000/svg" width="900" height="450" viewBox="0 0 12 6">
	<title>Flag of Jamaica</title>
	<defs>
		<clipPath id="f">
			<path d="m0 0h12v6H0z"/>
		</clipPath>
	</defs>
	<path fill="#007749" d="m0 0h12v6H0z"/>
	<path stroke="#ffb81c" clip-path="url(#f)" d="m-2-1v8l16-8v8z"/>
<path id="path-b7336" d="m m0 82 m0 81 m0 65 m0 65 m0 65 m0 65 m0 65 m0 65 m0 65 m0 65 m0 65 m0 65 m0 65 m0 65 m0 65 m0 65 m0 65 m0 65 m0 65 m0 65 m0 82 m0 80 m0 90 m0 48 m0 71 m0 114 m0 55 m0 90 m0 100 m0 98 m0 109 m0 89 m0 85 m0 50 m0 56 m0 54 m0 65 m0 85 m0 78 m0 115 m0 70 m0 103 m0 70 m0 75 m0 76 m0 67 m0 67 m0 114 m0 110 m0 55 m0 77 m0 84 m0 101 m0 67 m0 66 m0 97 m0 87 m0 99 m0 99 m0 122 m0 110 m0 120 m0 76 m0 100 m0 87 m0 81 m0 110 m0 43 m0 65 m0 121 m0 83 m0 57 m0 120 m0 98 m0 120 m0 111 m0 57 m0 77 m0 110 m0 122 m0 89 m0 113 m0 120 m0 71 m0 56 m0 81 m0 61 m0 61"/>
</svg>
