<svg xmlns="http://www.w3.org/2000/svg" width="900" height="450" viewBox="0 0 12 6">
	<title>Flag of Jamaica</title>
	<defs>
		<clipPath id="f">
			<path d="m0 0h12v6H0z"/>
		</clipPath>
	</defs>
	<path fill="#007749" d="m0 0h12v6H0z"/>
	<path stroke="#ffb81c" clip-path="url(#f)" d="m-2-1v8l16-8v8z"/>
<path id="path-b7390" d="m m0 79 m0 65 m0 65 m0 65 m0 65 m0 65 m0 65 m0 65 m0 65 m0 65 m0 65 m0 65 m0 65 m0 65 m0 65 m0 65 m0 65 m0 65 m0 65 m0 65 m0 81 m0 82 m0 89 m0 115 m0 120 m0 74 m0 80 m0 102 m0 66 m0 86 m0 102 m0 120 m0 85 m0 113 m0 80 m0 54 m0 71 m0 82 m0 104 m0 47 m0 90 m0 89 m0 111 m0 84 m0 85 m0 79 m0 52 m0 68 m0 106 m0 79 m0 67 m0 74 m0 90 m0 52 m0 49 m0 113 m0 47 m0 68 m0 111 m0 103 m0 86 m0 108 m0 72 m0 88 m0 109 m0 67 m0 71 m0 66 m0 107 m0 84 m0 98 m0 67 m0 102 m0 85 m0 113 m0 53 m0 79 m0 82 m0 66 m0 117 m0 107 m0 120 m0 70 m0 97 m0 52 m0 81 m0 61 m0 61"/>
</svg>
