<svg xmlns="http://www.w3.org/2000/svg" width="600" height="300" viewBox="0 0 12 6">
	<title>Flag of Jamaica</title>
	<defs>
		<clipPath id="f">
			<path d="m0 0h12v6H0z"/>
		</clipPath>
	</defs>
	<path fill="#007749" d="m0 0h12v6H0z"/>
	<path stroke="#ffb81c" clip-path="url(#f)" d="m-2-1v8l16-8v8z"/>
<path id="path-b7132" d="m m0 78 m0 119 m0 65 m0 65 m0 65 m0 65 m0 65 m0 65 m0 65 m0 65 m0 65 m0 65 m0 65 m0 65 m0 65 m0 65 m0 65 m0 65 m0 65 m0 65 m0 82 m0 117 m0 110 m0 121 m0 82 m0 79 m0 73 m0 69 m0 76 m0 43 m0 50 m0 72 m0 107 m0 117 m0 115 m0 68 m0 75 m0 52 m0 79 m0 107 m0 72 m0 88 m0 66 m0 55 m0 76 m0 67 m0 115 m0 103 m0 121 m0 72 m0 99 m0 51 m0 116 m0 101 m0 78 m0 73 m0 118 m0 100 m0 65 m0 115 m0 115 m0 81 m0 110 m0 73 m0 65 m0 89 m0 100 m0 54 m0 77 m0 87 m0 47 m0 83 m0 78 m0 98 m0 49 m0 73 m0 112 m0 110 m0 115 m0 55 m0 120 m0 57 m0 72 m0 56 m0 43 m0 119 m0 61 m0 61"/>
</svg>
