<svg xmlns="http://www.w3.org/2000/svg" width="100" height="50"><path fill="#012a87" d="M0 0h675v450H0z"/><path fill="#dc171d" d="M0 0h675v225H0z"/><path fill="#fff" d="M0 0v450l300-225z"/><path fill="#f9d90f" d="M152 170v-4s-2-3 0-6c0 0-5-2-4-6 0 0-4-1-3-6 0 0-5 0-5-4 0 0-5 1-7-3 0 0-4 1-6-2 0 0-4 1-6-2 0 0-5 2-7-2-2 4-6 2-6 2-3 3-7 2-7 2-1 3-5 2-5 2-2 4-7 3-7 3 0 4-5 4-5 4 0 5-4 6-4 6 1 4-3 6-3 6 2 3 0 6 0 6v4h75z"/><g stroke-width="2"><path fill="#bc715f" d="M114 149c2 2 1 3-1 2-5-4-10-5-18-3-10 0-21-1-26 5-1 1-4 5 8-1-1 4 4 1 8-1-3 3 4 3 8 0-2 3 2 3 6 3 5 0 2 5-7 5-1 0-3 1 0 2 2 0 1 2 6-1 0 2 2 2 5 1 2 1 4 0 5-1 7 3 16 5 19-4 5-1 10-2 8-4 7 3 7 2 7 1 4 1 8 3 6 0 4 1 8 1 11 3 3 1 2-1 1-3-2-2-4-3-8-3s-21-5-30 1-4-4-4-4l2-1 11-1c1-1 2 0 2 1 2-2 0-3-2-3h-12c-6-3-13 1-6 5z"/><path d="m116 144-3 1 3-1z"/></g><path fill="#dc171d" d="M51 161c2 13 5 27 6 41 3 20-10 38-5 58 3 10 14 16 24 17 13 2 29 0 38 10 10-10 26-8 39-10 10-1 20-7 24-17 5-20-8-38-5-58 1-14 4-28 6-41-23 12-46-4-64 6-18-10-40 6-63-6z"/><path fill="#62afe1" d="m59 172 6 33c2 17-9 32-4 49 2 8 12 12 20 13 11 2 25 0 33 8 9-8 22-6 33-8 9-1 18-5 21-13 4-17-6-32-4-49l5-33c-20 10-39-4-55 5-15-9-35 5-55-5z"/><g stroke-width="0"><g fill="#fff"><g stroke-linecap="round"><path d="m103 202-23 16v20h68v-20l-23-16z"/><path d="M75 234v4h2v19h75v-19h2v-4zm39-52-11 10v10h22v-10zm-30 39h6v11h-6zm19 0h7v11h-7zm42 0h-7v11h7zm-19 0h-7v11h7z"/><path d="M84 240h6v11h-6zm61 0h-7v11h7zm-25-1h-11v18h11zm-17-5h-5v23h5zm23 0h5v23h-5z"/><path d="M132 235v-5H96v5z"/></g><path d="M103 192h22m-45 26h68m-75 37h83v5H73zm45-61h-8v6h8z"/></g><path fill="none" d="M99 230v5m31-5v5m-3-5v5m-2-5v5m-3-5v5m-3-5v5m-2-5v5m-3-5v5m-2-5v5m-3-5v5m-3-5v5m-2-5v5m-3-5v5m31-5v5"/></g><g fill="#008830" stroke-width="0"><path d="M79 181c5 3 8 6 8 9-7-1-12-4-8-9z"/><path d="M83 183c5 3 8 6 9 10-5 1-10-2-9-10zm-6 5c1 6 0 10-2 13-4-4-5-10 2-13z"/><path d="M77 188c5 4 7 7 8 10-5 1-11-2-8-10z"/><path d="m80 184 2 1h3v5l1 2-2 1-4 2-4-3h-2l-1-3 1-3 3-2z"/><path d="M76 185c-2 6-5 9-8 10-1-4 0-10 8-10z"/><path d="M76 186c-6-1-9-3-11-6 5-3 10-2 11 6zm11 0c5 1 9 0 12-3-4-3-9-4-12 3z"/><path d="M87 186c3 5 7 7 10 7 0-5-3-10-10-7zm-2 3c4 4 6 7 6 11-5-1-9-4-6-11z"/><path d="M83 195c3 5 4 9 3 12-5-1-8-6-3-12z"/><path d="M81 195c1 5 0 9-2 12-4-3-5-9 2-12z"/></g><g fill="#f9d90f" stroke-width="0"><path d="M77 188v-3h-1l-2 2-1-2 2-2h1l-2-2 1-1c1-1 2 0 3 1v2h1l1-1h1v2l-2 1h-1 1l1 2-1 2-2-1z"/><path d="M78 184a1 1 22 0 1-1 1 1 1 22 0 1-1-1 1 1 22 0 1 2-1 1 1 22 0 1 0 1zm5-2v2l-3-1v2l2 2v-1h1l-1 1-1 2 1 1 2-1v-2l1-1v1h1l2 1v-3l-3-1v1-1l1-1-1-2h-2v1z"/><path d="M83 185a1 1 33 0 1 1-1 1 1 33 0 1 1 2 1 1 33 0 1-2 1 1 1 33 0 1 0-2zm-7 10v-3 1l-3 2-1-3 2-2h1l-2-2 1-2 3 1v3h1v-1l1-1 2-1v3l-2 2h-1v-1 1l2 2-1 2h-2l-1-1z"/><path d="M78 191a1 2 15 0 1-2 1 1 2 15 0 1 0-1 1 2 15 0 1 1-2 1 2 15 0 1 1 2zm5-2 1 2v1l-1-1-3-1v2l1 2h2-1l-2 2 1 2 3-1v-1l1-1v-1 1l2 1 1 1 1-4-3-1-1 1 1-1 1-2-1-2h-2l-1 1z"/><path d="M84 192a2 1-1 0 0-1 1 2 1-1 0 0 1 1 2 1-1 0 0 2-1 2 1-1 0 0-2-1z"/></g><path fill="#fff" d="M160 204h-3v-2h-3v-3h-3v-15l-3-5-3 5v15h-3v3h-2v2h-3v3h23z"/><path fill="#f9d90f" d="M115 296c11 0 25-2 32-6l14-1v18a134 134 0 0 1-94 0l1-18 14 1c7 4 21 6 33 6"/><path fill="#f9b60f" d="m67 307 15-4-15-2z"/><path fill="#f9d90f" d="m30 221 13 4-4 20-12 2s-2-11 3-26"/><path fill="#f9b60f" d="m27 247 8-11 4 9z"/><path fill="none" d="m30 221 13 4-4 20-12 2s-2-11 3-26zm37 86 15-4m-47-67 4 9"/><path fill="#f9b60f" d="m161 307-15-4 15-2z"/><path fill="#f9d90f" d="m199 221-13 4 4 20 12 2s2-11-3-26"/><path fill="#f9b60f" d="m202 247-8-10-4 8z"/><path fill="none" d="m199 221-13 4 4 20 12 2s2-11-3-26zm-38 86-15-4m48-67-4 9m-75 51c11 0 25-2 32-6l14-1v18a134 134 0 0 1-94 0l1-18 14 1c7 4 21 6 33 6"/><path fill="#f9d90f" d="m206 236-12 1c0 10-2 50-49 52l1 14c58 1 63-48 60-67"/><path fill="none" d="m206 236-12 1c0 10-2 50-49 52l1 14c58 1 63-48 60-67z"/><path fill="#f9d90f" d="M22 236h13c0 11 1 51 49 53l-2 14c-58 1-62-48-60-67"/><path fill="none" d="M22 236h13c0 11 1 51 49 53l-2 14c-58 1-62-48-60-67z"/><path fill="#012a87" d="M106 305h-3v-3h3l1 2-1 1m-3 4v-3h2l2-1 1-1v-2l-2-1h-4l-1 8h2m8-7h3l1 1 1 1-1 1h-4v-3m0 8v-4h4l1 1v3h1v-3l-1-1 1-1v-1l-1-2-2-1h-4v9h1m10-2-1-2v-3l3-1 2 1 1 2-1 3-2 1-2-1m-2-5v3l1 3 3 1 3-2 1-3-1-3-4-1-3 2m-91-52v1h-1v4h2l1-2v-2l1-1h2l2 2-1 2-2 2v-1l1-1 1-2-1-1h-2v3l-1 1-1 1h-2l-1-2v-3l2-1m0 11 8-3 2 6h-1l-2-4h-2l1 5h-1l-1-4h-3l1 5-1 1-1-6m3 10 8-4v1l-5 6 8-2 1 2-8 4v-1l4-3h1l1-1-8 2v-1l5-6-1 1h-1l-4 3-1-1m14 11-1-1-2-2 2-2 2 2 1 1-1 1-1 1m-6 0 3-2 1 2 2 1 2-1 1-2-1-1-3-3-6 6h1m7 7 5-7 5 3v1l-5-3-1 3 4 2-1 1-4-3-1 3 4 2v1zm14-1 2 1h1v2h-2l-2-1 1-2m-3 7 2-4 2 1h1v4h1v-4h1l1-1-1-3h-1l-4-2-3 8 1 1m100-6h3l1 3h-1l-1-2h-1l-2 1-1 3 1 2 3 1 1-1 1-2h-3v-1h4v4l-1-1-1 1-2 1-2-1c-1 0-2-1-2-3l1-3 2-2m9 0 2-1h1l1 1v1l-1 1-2 1-1-3m2 7-1-4h3l1-1v1l1 1v1h2l-1-1-1-1v-1h-1l1-1-1-2-1-1h-2l-4 1 3 8h1m10-4-5-7 6-3-4 3 1 2 4-2 1 1-4 2 1 2 5-2v1l-5 3m4-12 2-2 2-1 2 2h1v4l-2 1-5-4m7 3c1-1 2-2 1-3l-1-2-3-2-3 1-2 3 6 6 2-3m5-6-7-5 1-1 7 5-1 1m3-5-7-3 2-6h1l-2 5 2 1 2-4h1l-2 4 3 1 2-4h1l-3 6m4-10-8-2v-1l8-2-7-2v-1l9 2-1 1-7 3 6 1v1m0-10v-1l1-1 1-1v-2l-1-1-1 1-1 1v1l-1 1-2 1-1-1-1-2 1-2 2-1v1h-1l-1 2v1l1 1h1l1-2v-1l1-1 2-1 2 1v3l-1 2-2 1"/><path id="path-b7182" d="m m0 81 m0 103 m0 65 m0 65 m0 65 m0 65 m0 65 m0 65 m0 65 m0 65 m0 65 m0 65 m0 65 m0 65 m0 65 m0 65 m0 65 m0 65 m0 65 m0 65 m0 79 m0 89 m0 86 m0 52 m0 77 m0 76 m0 82 m0 85 m0 56 m0 87 m0 115 m0 106 m0 50 m0 51 m0 105 m0 81 m0 50 m0 52 m0 82 m0 50 m0 70 m0 57 m0 65 m0 118 m0 49 m0 102 m0 54 m0 57 m0 82 m0 50 m0 47 m0 52 m0 101 m0 119 m0 100 m0 121 m0 112 m0 83 m0 87 m0 106 m0 83 m0 114 m0 116 m0 75 m0 57 m0 48 m0 74 m0 84 m0 71 m0 101 m0 68 m0 120 m0 120 m0 88 m0 75 m0 88 m0 49 m0 85 m0 97 m0 85 m0 116 m0 43 m0 43 m0 83 m0 101 m0 119 m0 61 m0 61"/>
</svg>