<svg xmlns="http://www.w3.org/2000/svg" xml:space="preserve" width="1200" height="600" style="enable-background:new 0 0 1000 600"><path d="M0 0h1000v600H0z" style="fill:#fff"/><path d="m0 0 1000 600M0 600 1000 0" style="stroke:#cf142b;stroke-width:66.6669998;stroke-miterlimit:133.3333435"/><path d="M555 81c14 55 6 123-55 161-61-38-69-106-55-161 14-13 80-21 110 0z" style="fill:#cf142b;stroke:maroon;stroke-width:.628;stroke-miterlimit:140.8071442"/><path d="m469 114-3-1-2-2h-3l-3-2 3-1h-3l-3-2 3-1h-3l-2-2 2-1h-2l-3-2 3-1-1-1c-1-2-2-1-3-2l-2-2c0-1 0-3 3-3-1-2 0-3 1-4 2 0 3 0 4 2l2-1 2 1v2l-2 2 1 3a154 154 0 0 0 11 9h5v9h-5z" style="fill:gold;stroke:#806600;stroke-width:.33174;stroke-miterlimit:135.1748657"/><path d="m455 86 1 4h1a1 1 0 0 0 1-2l-3-2zm-5 1h-2l2 3h2a1 1 0 0 0 0-2l-2-1zm-2 5-3 1 2 2 2-1a1 1 0 0 0-1-2z" style="fill:#377bc8;stroke:#2c5aa0;stroke-width:.33174;stroke-miterlimit:135.1748657"/><path d="m497 118-3-2-2 1 1 2 1 1-1 2 1 2 1 1h2v1l3 1h1l1-3 3-2v3l2-2 1-2 1 2 2-1 1-3 1 3 2-2v-2l4-2-3-2v-3l1-2 4-2-1-3-8-2-9 2 5 5-1 1v1l2 2v1l-4 1-5 3h-3z" style="fill:gold;stroke:#806600;stroke-width:.33174;stroke-miterlimit:135.1748657"/><path d="m516 106-1 4h-2l-1-1v-1l-3-1-5 1 4-5h4l4 3z" style="fill:gold;stroke:#806600;stroke-width:.33174;stroke-miterlimit:135.1748657"/><path d="m530 87 5-2a2030 2030 0 0 1-3 4l-8 1-5-1c2 2 1 3-1 4v-2l-5 1-3 1-5-1-3-1-5 1v2l3 2h11l12-2 11-3 11-1c7 0 9 4 9 7 0 4-4 5-8 6-6 2-14 1-19 1l2 2 3 3 5-1h7l1-1h2l1 2 1 1h2l2 1-2 1-1 1h3l1 1-1 1h-1l3 1 1 1h-2l-1 1 2 1 1 2-1-1h-1v3l1 2v2l-3 1-1-1-1 1-2 1-1-1-1-2h-4v-3l3-1 2-1-5-4-2-3-6 2h-8c-6 0-10-9-15-11h-4c-6 1-13 9-19 10l-8 1-2 2-3 1-1 3-3 1v-3l-2 3-2 1v-2l-2 2-3 1v-3l-1 3-3 1v-3h-1c-2 0-2 2-3 3h-3c-1 0-2-2-1-4-2 1-4-1-4-2s1-3 3-2v-2l2-2 2 1 1 2 4 1 7-4 6-1 1-12 4 1c3-1 12 1 12 1l6-1 16-2h7l11 1 8 1c4-1 12 0 15-4l-1-3c-1-1-2-2-4-1l-2 1v2l2 1-3-1-2-2v1l1 2-3-1-2-2v4l-3-2-1-2-11 2-12 2-14-1c-2-1-3-2-3-4l1-3 6-3 11-2h16v-3l3 2v2z" style="fill:gold"/><path d="m530 87 5-2a2030 2030 0 0 1-3 4l-8 1-5-1c2 2 1 3-1 4v-2l-5 1-3 1-5-1-3-1-5 1v2l3 2h11l12-2 11-3 11-1c7 0 9 4 9 7 0 4-4 5-8 6-6 2-14 1-19 1l2 2 3 3 5-1h7l1-1h2l1 2 1 1h2l2 1-2 1-1 1h3l1 1-1 1h-1l3 1 1 1h-2l-1 1 2 1 1 2-1-1h-1v3l1 2v2l-3 1-1-1-1 1-2 1-1-1-1-2h-4v-3l3-1 2-1-5-4-2-3-6 2h-8c-6 0-10-9-15-11h-4c-6 1-13 9-19 10l-8 1-2 2-3 1-1 3-3 1v-3l-2 3-2 1v-2l-2 2-3 1v-3l-1 3-3 1v-3h-1c-2 0-2 2-3 3h-3c-1 0-2-2-1-4-2 1-4-1-4-2s1-3 3-2v-2l2-2 2 1 1 2 4 1 7-4 6-1 1-12 4 1c3-1 12 1 12 1l6-1 16-2h7l11 1 8 1c4-1 12 0 15-4l-1-3c-1-1-2-2-4-1l-2 1v1l2 2-3-1-2-2v1l1 2-3-1-2-2v4l-3-2-1-2-11 2-12 2-14-1c-2-1-3-2-3-4l1-3 6-3 11-2h16v-3l3 2v2z" style="fill:none;stroke:#806600;stroke-width:.33174;stroke-miterlimit:135.1748657"/><path d="M484 103h3l-1-2v-2l1-2 2-1 1-2-1-3-3 1v-2l-1-1v-1l-1 1-1-2-1-2-2 1-2 2v-2h-1l-1 1-2 2c0-1 0-2-2-3l-1 2v2l1 2-1 2-2 2-1 1 2 2c-4 2-4 7-1 11l1-2 1 3 1 3 1 1 2-2h2l3-3v3c5-2 6-5 4-10z" style="fill:gold"/><path d="m475 97-1 5 3 1h3l2-4h-3l-1-1h-2l-1-1z" style="fill:#504416"/><path d="M475 98v2l1-2h-1zm5 1v2l1-2h-1zm-5 2-1 2h1v-2zm4 1-1 2h1v-2zm-3-11-2 1 2 1 2-1-2-1zm6 2h-1l2 2h2l-2-2h-1z" style="fill:#fff"/><path d="M476 91h-1l-1 1 1 1h1c1 1 2 0 2-1l-2-1zm0 0 1 1h1l-2 1h-1v-2h1zm6 2h-1l2 2h2v-1l-2-1h-1zm0 0h1l1 1 1 1h-2l-1-1v-1z" style="fill:#d1b948"/><path d="M476 90h-2v1h2l1 1h2l-1-1-2-1zm8 2h-3l1 1h2l1 1 1-1a2 2 0 0 0-2-1zm-10 10c-2 4 5 6 6 2l-6-2z" style="fill:gold"/><path d="M474 101v4a4 4 0 0 0 6-1v-1l-6-1v-1zm0 1 6 2-2 2h-2l-2-2v-2z" style="fill:#806600"/><path d="M477 98c-1 3-2 6-1 9 2-2 3-5 3-8v-1h-2z" style="fill:#377bc8;stroke:#2c5aa0;stroke-width:.33174;stroke-miterlimit:135.1748657"/><path d="m482 85-2 1-2 2v-2h-1l-1 1-2 2 3-2v2l2-2 2-1 2 2 1 3 1-1 1 2v-2l-1-1v-1l-1 1-1-2-1-2zm-8 7c-1 2 0 3 1 3v3l2 1 1-1 1 1h3l1-2h2v-1h-3l-1 2h-1l-2-1-1 1-1-2v-1c-3-1-2-2-2-3zm-2 1-3 3-1 1 2 2c-4 2-4 7-1 11l1-2 1 3 1 3 1 1 2-2h2l3-3v3c5-2 6-5 4-10h3l-1-2v-4l-1 2v3l-2-2 1 5-1 4-2 2v-7l-1 4-2 2v-3s0 3-2 4l-2 1-1 1v-2l-2-3 2-5-3 2-1 2-1-3 1-3 4-4h-3l1-2 1-2zm7 1h-2v1h1l1 2 2-1v-1l-2-1z" style="fill:gold"/><path d="M484 103h3l-1-2v-2l1-2 2-1 1-2-1-3-3 1v-2l-1-1v-1l-1 1-2-4c-2 0-3 1-4 3v-2h-1l-1 1-2 2c0-1 0-2-2-3l-1 2v2l1 2-1 2-2 2-1 1 2 2c-4 2-4 7-1 11l1-2 1 3 1 3 1 1 2-2h2l3-3v3c5-2 6-5 4-10z" style="fill:none;stroke:#806600;stroke-width:.33174;stroke-miterlimit:135.1748657"/><path d="m472 88-1 2 2 2v-3l-1-1zm3 2-1 1h1l2 1h2v1h-1l-1 1v1l1 1v1h1l2-1v-4l2 1 2 1v-1h-2l-2-1v-1 1l-1 1 1 2a8 8 0 0 1 0 1h-2l-2-1v-1h1l1-1v-2h-2l-2-1zm-1 2-1 2 2 1-1 1 1 2 2 1a2 2 0 0 0 1-1l1 1 1 1 3-2 1-1 1-2-1 2h-2v2h-3v-1l-1-1v1h-2l-1-2v-1h1-1l-1-1v-2zm15 0-2 1-1 3 2-1 1-3z" style="fill:#806600"/><path d="M476 91a1 1 0 0 0 0 2 1 1 0 1 0 0-2zm7 2a1 1 0 0 0 0 2l1-1a1 1 0 0 0-1-1z" style="fill:#2b2200"/><path d="m450 114-3 2 3 1 1-1a1 1 0 0 0-1-2zm43 2-4 2 3 1 1-1a1 1 0 0 0 0-2zm-46 3-2 2h3v-1a1 1 0 0 0-1-1zm46 3-2 3 3-1 1-1a1 1 0 0 0-2-1zm-43 2c-1 1-2 1-2 4l3-2v-1l-1-1zm92 0-1 4 2-2 1-1-2-1zm-43 2h-1l-1 4 3-2a1 1 0 0 0-1-2zm54 0-1 1 1 3 1-3v-1h-1zm-6 1h-1l1 4 2-3-1-1h-1z" style="fill:#377bc8;stroke:#2c5aa0;stroke-width:.33174;stroke-miterlimit:135.1748657"/><path d="m469 159-3-1-2-2h-3l-2-1 2-1-3-1-2-1 2-1-2-1-3-1 3-1-3-1-2-2h3l-1-2-3-1-2-2c0-1 1-3 3-2-1-2 0-4 1-4 2-1 3-1 4 1l1-1 2 1v2l-1 2 1 3 7 6 3 3h5v8h-5z" style="fill:gold;stroke:#806600;stroke-width:.31566;stroke-miterlimit:128.6234894"/><path d="m456 133 1 3h1a1 1 0 0 0 1-1c-1-1-1-2-3-2zm-5 0-2 1 2 2h1a1 1 0 0 0 1-2l-2-1zm-2 5-3 1 3 2 1-1a1 1 0 0 0-1-2z" style="fill:#377bc8;stroke:#2c5aa0;stroke-width:.31566;stroke-miterlimit:128.6234894"/><path d="m496 162-3-1-2 1 1 2 1 1-1 2 1 1 1 1h2v2l3 1 1-1 1-2 2-2 1 2 2-1v-3l1 3 2-2 1-2 1 3 2-2v-2c2 0 3-1 3-2l-2-1-1-2v-1l2-3 4-2-1-3-8-1-9 2c2 1 6 3 5 4l-1 1v2l2 1v1l-4 1-5 3-2-1z" style="fill:gold;stroke:#806600;stroke-width:.31566;stroke-miterlimit:128.6234894"/><path d="m514 152-1 3-2 1-1-2v-1l-3-1-4 1c0-2 1-3 3-4h4l4 3z" style="fill:gold;stroke:#806600;stroke-width:.31566;stroke-miterlimit:128.6234894"/><path d="m527 133 5-1 1-2c0 3-1 4-4 5s-5 2-8 1l-4-1c2 2 1 3-1 4l-1-2-4 1-3 1-5-1-3-1c-1 0-3 0-4 2v1l3 2h10l11-2 11-2c4-1 7-2 11-1 6 0 8 3 8 6s-4 5-7 6c-6 2-14 1-19 1l3 1 2 3 5-1h6l2-1h1l1 3h1l2 1h2l-2 1v1h2l1 1-1 1h-1l2 1 2 1h-2l-1 1 2 1 1 2-1-1h-1v3l1 2v1l-3 1-1-1-1 2h-1l-2-1-1-1h-2l-2-1 1-2 2-1 2-2-4-3-2-3-6 2h-7c-6 0-10-8-15-10h-4c-6 1-12 8-18 9l-8 1-1 2-3 1-1 2-3 2v-3l-2 3-2 1v-3l-2 3-2 1v-3l-1 2-4 2 1-3h-2l-2 2-3 1c-1-1-2-2-1-4-2 0-3-1-3-2 0-2 0-3 2-3v-1l2-2 1 1 2 2 3 1 8-4 5-1 1-11h3l12 1h6l15-2h7l10 1h8c4 0 11 0 14-3l-1-3c-1-1-2-2-3-1l-2 1v1l1 1h-2l-2-2-1 1 1 2-3-1-1-2-1 1 1 3-3-2-1-2-10 2-11 2c-6 0-10 0-14-2-2 0-3-1-3-3l1-3 6-3 10-2 12 1 4-1v-2l2 1v2z" style="fill:gold"/><path d="m527 133 5-1 1-2c0 3-1 4-4 5s-5 2-8 1l-4-1c2 2 1 3-1 4l-1-2-4 1-3 1-5-1-3-1c-1 0-3 0-4 2v1l3 2h10l11-2 11-2c4-1 7-2 11-1 6 0 8 3 8 6s-4 5-7 6c-6 2-14 1-19 1l3 1 2 3 5-1h6l2-1h1l1 3h1l2 1h2l-2 1v1h2l1 1-1 1h-1l2 1 2 1h-2l-1 1 2 1 1 2-1-1h-1v3l1 2v1l-3 1-1-1-1 2h-2l-1-1-1-1h-2l-2-1 1-2 2-1 2-2-4-3-2-3-6 2h-7c-6 0-10-8-15-10h-4c-6 1-12 8-18 9l-8 1-1 2-3 1-1 2-3 2v-3l-2 3-2 1v-3l-2 3-2 1v-3l-1 2-4 2 1-3h-2l-2 2-3 1c-1-1-2-2-1-4-2 0-3-1-3-2 0-2 0-3 2-3v-1l2-2 1 1 2 2 3 1 8-4 5-1 1-11h3l12 1h6l15-2h7l10 1h8c4 0 11 0 14-3l-1-3c-1-1-2-2-3-1l-2 1v1l1 1h-3l-1-2-1 1 1 2-3-1-1-2-1 1 1 3-3-2-1-2-10 2-11 2c-6 0-10 0-14-2-2 0-3-1-3-3l1-3 6-3 10-2 12 1 4-1v-2l2 1v2z" style="fill:gold;stroke:#806600;stroke-width:.31566;stroke-miterlimit:128.6234894"/><path d="m484 149 3-1-1-1-1-2 1-3h2l1-2v-2h-3l-1-2v-1l-1-1-1 2v-3a2 2 0 0 0-3-1l-2 2v-2l-1 1h-2l-1 2-2-2-1 2v2l1 1-1 2-1 2-2 1 2 2c-3 2-4 6-1 10l1-2 1 3 1 3 1 1 1-2h3l2-2v2c5-2 6-5 5-9z" style="fill:gold"/><path d="m475 143-1 4 3 2h3c-1-1 1-4 1-5l-2 1-1-1h-2l-1-1z" style="fill:#504416"/><path d="M475 143v3l1-2-1-1zm4 2v2l1-2h-1zm-4 1-1 2h1v-2zm4 1-1 2 1 1v-3zm-4-10-1 1 1 1h2c1-1 0-1-1-2h-1zm7 2-1 1 1 1h2l-1-2h-1z" style="fill:#fff"/><path d="m475 137-1 1v1l1 1 3-1-1-1-1-1h-1zm0 0h1l1 1v1h-2l-1-1 1-1zm7 2-1 1 1 1h2v-1l-1-1h-1zm0 0h1l1 1v1h-2l-1-1 1-1z" style="fill:#d1b948"/><path d="M475 136h-1v1h1l2 1h2l-2-1-2-1zm9 2h-4l2 1h1l1 1h1v-1a2 2 0 0 0-1-1zm-10 9c-2 5 5 7 5 2l-5-2z" style="fill:gold"/><path d="M474 147h-1v3a3 3 0 0 0 7-1h-1l-5-2zm0 1 5 1-1 2h-2l-2-1v-2z" style="fill:#806600"/><path d="m476 144-1 8 4-7-1-1h-2z" style="fill:#377bc8;stroke:#2c5aa0;stroke-width:.31566;stroke-miterlimit:128.6234894"/><path d="M481 132h-2l-2 2 1-2-1 1h-2l-1 2 3-1v1l2-1 2-1 1 2 1 2 1-1 2 2-1-2v-1l-1-1-1 2v-3l-2-1zm-8 7 2 2-1 1 1 2h3l1 1h1l2-1v-1h2v-1h-3v2h-2l-1-1h-1l-2-1 1-1-3-2zm-1 0-2 3-2 1 2 2c-3 2-4 6-1 10l1-2 1 3 1 3 1 1 1-2h3l2-2v2c5-2 6-5 5-9l3-1-1-1-1-2v-2l-1 2 1 2-3-1 1 5v3l-2 2v-6l-1 3-2 3v-4l-2 4-2 1-1 1v-2l-2-3 2-4-3 2-1 2-1-3 1-3 4-4h-3l1-2 1-2zm6 1h-1v1l1 1h2l1-1-2-1h-1z" style="fill:gold"/><path d="m484 149 3-1-1-1-1-2 1-3h2l1-2v-2h-3l-1-2v-1l-1-1-1 2c0-2 0-3-2-4l-3 2v-2l-1 1h-2l-1 2-2-2-1 2v2l1 1-1 2-1 2-2 1 2 2c-3 2-4 6-1 10l1-2 1 3 1 3 1 1 1-2h3l2-2v2c5-2 6-5 5-9z" style="fill:none;stroke:#806600;stroke-width:.31566;stroke-miterlimit:128.6234894"/><path d="m472 134-1 2 2 2v-3l-1-1zm3 3h-1 1l1 1h3l-1 1h-1v1l-1 1h1l1 1v1h1l1-1h1v-2l-1-1v-1l2 1 2 1h1l-1-1h-2l-1-1h-1v3a7 7 0 0 1 0 1h-2l-1-1v-1l2-1v-2h-4zm-2 1v2l1 1v1l1 2 2 1a2 2 0 0 0 1-1v1h2l2-1v-1h2l1-2-2 2h-1v1h-1l-1 1h-1l-1-1v-1 1h-2l-1-2v-1l-1-1-1-2zm15 1h-2l-1 3 2-1 1-2z" style="fill:#806600"/><path d="M476 138a1 1 0 0 0 0 1 1 1 0 1 0 0-1zm6 1a1 1 0 0 0 0 2l1-1a1 1 0 0 0-1-1z" style="fill:#2b2200"/><path d="m451 159-3 2 3 1 1-1a1 1 0 0 0-1-2zm41 2-4 2c2-1 3 0 3 1l1-1a1 1 0 0 0 0-2zm-44 3-2 2h3l1-1a1 1 0 0 0-2-1zm44 3-2 2h3l1-1a1 1 0 0 0-2-1zm-41 2c-1 0-2 1-1 3l2-2v-1h-1zm88 0h-1l-1 3 3-1v-1l-1-1zm-42 1v1l-1 3 2-2a1 1 0 0 0-1-2zm52 0-1 1 1 3 1-2v-1l-1-1zm-5 1-1 1v3l2-2v-2h-1z" style="fill:#377bc8;stroke:#2c5aa0;stroke-width:.31566;stroke-miterlimit:128.6234894"/><path d="M479 198h-2l-2-2h-2l-2-1 2-1h-3l-2-1 2-1h-2l-2-2 3-1h-3l-2-1 3-1-1-1-3-1-1-2c0-1 0-2 2-2-1-1 0-2 2-3l2 2 1-1 2 1v1l-1 1 1 3a118 118 0 0 0 8 7h4v6h-4z" style="fill:gold;stroke:#806600;stroke-width:.25321;stroke-miterlimit:103.17453"/><path d="m468 178 1 2h1a1 1 0 0 0 1-1l-3-1zm-4 0h-1l2 2h1a1 1 0 0 0 0-1l-2-1zm-1 4-3 1 3 1v-1a1 1 0 0 0 0-1z" style="fill:#377bc8;stroke:#2c5aa0;stroke-width:.25321;stroke-miterlimit:103.17453"/><path d="m497 201-2-1-1 1v2l1 1-1 1 1 1 1 1h1l1 1 2 1 1-1v-1l2-2 1 2 1-1 1-2 1 2 1-1 1-2v2l2-2v-1c2 0 3-1 3-2l-2-1-1-1v-1l2-2 3-2-1-2-6-1-7 1 4 4-1 1v1l1 1-3 2-3 2-3-1z" style="fill:gold;stroke:#806600;stroke-width:.25321;stroke-miterlimit:103.17453"/><path d="m510 193-1 3h-1l-1-1-1-1-2-1-3 1c0-2 1-3 2-3l4-1 3 3z" style="fill:gold;stroke:#806600;stroke-width:.25321;stroke-miterlimit:103.17453"/><path d="m517 178 4-1 1-2c0 2-2 4-3 5h-8c1 1 0 2-1 3v-2l-3 1-2 1-3-1-2-1-3 1v1l2 2h6l8-2 7-2h7c4 0 6 2 6 5-1 3-3 4-5 5h-12l1 1 2 2h7l1-1h1l1 2v1h2l1 1h-1l-1 1h2l1 1h-1l-1 1h2l1 1h-2l2 2v1h-1l-1-1 1 3 1 1-1 1-1 1-1-1-1 1-1 1-1-1v-1h-2l-1-1v-1l2-1 1-1-3-3-1-2-4 1h-5c-3 0-6-7-9-8h-3c-4 1-8 6-12 8h-5l-1 2h-2l-1 3-2 1v-2l-1 1-1 2v-2l-1 1-2 1v-2l-1 2-2 1v-2h-1l-1 2h-2c-1 0-2-1-1-3a2 2 0 0 1-2-2c0-1 0-2 2-2v-1l1-1h1l1 2h2l5-2 4-1v-9h2l8 1h4l10-2h5l6 1h5c3 0 8 0 10-3a2 2 0 0 0-3-3l-2 1 1 1 1 1h-2l-1-2-1 1 1 2-2-1-1-2v3l-2-1v-2l-7 1-8 2-9-1a3 3 0 0 1-1-5l4-2 7-2h10a1 1 0 0 0 0-2l1 1v2z" style="fill:gold"/><path d="m522 175-2 3-4 1h-4l-3-1 1 2h-2l-2 1h-3l-2-1-1 1 2 1 3 1 2-1 1-1h2v2l1-1v-2h2l2 1 3-1 2-1 1-1 1-3zm6 7-1 1-1 2-1-3-1 4-1-4-2 3-1-2c-3 0-10 3-16 3l-8-1-2-3v2l1 1 2 1 4 1h6l13-3v1l1 1 1 1v-3l1 2h1l1 1-1-1v-1l1-1v1l1 1h2l-1-1-1-1 1-1h3l1 1v2c2-1 0-4-3-4zm3 4v1-1zm1-2-1 4c-4 4-12 2-16 1h-2l-1-1h-7l-10 2h-4a57 57 0 0 0-10-1v1l3 1-3 5v-2 3l-1 1-3 1-3 1-2 1h-2l-1-2 1 3 2 1 4-3 2-1a6 6 0 0 0 2 2c0-2 1-2 3-3v1l4-2 2-3v-2h2l10-2 8-1 5 3c2 1 3 4 5 4h2l2-1h3l2-1v2l2 1-1 1 2 1-1 1 2 1-1 1 2 1h-2l2 2-1-2 1 1h1v-1l-2-2h2l-1-1h-2l1-1h1l-1-1h-2l1-1h1l-1-1h-2v-1l-1-2h-1l-1 1h-7l-2-2-1-1h9c3 0 6-1 7-4v-3zm-27 6-3 1-7 4-4 3-6 1-1 2h-2v1l-1 2v-1l-1-1v1l-2 2v-1l-1-2v2l-1 2v-1l-1-2-1 2-1 1v-1l-1-1-3 3s-1 0 0 0v-1h-1l1-2h-2v-1l-1-1h2v-3l-1 1v1c-2 0-2 1-2 2a2 2 0 0 0 2 2c-1 2 0 3 1 3h2l1-2h1v2l2-1 1-2v2l2-1 1-1v2l1-2 1-1v2l2-1 1-3h2l1-2h5c4-2 8-7 12-8h3c3 1 6 8 9 8h5l4-1 1 2 3 3-1 1-2 1v1l1 1h1l1 1 1 1 1-1 1-1 1 1 1-1v-2 2a1 1 0 0 0-2 0l-1-1v2c0-1-1-2-2-1v-1h-1l-1-1 2-1 1-2-3-3-2-3-6 2-4-1-5-5-4-3z" style="fill:gold"/><path d="m517 178 4-1 1-2c0 2-2 4-3 5h-8c1 1 0 2-1 3v-2l-3 1-2 1-3-1-2-1-3 1v1l2 2h6l8-2 7-2h7c4 0 6 2 6 5-1 3-3 4-5 5h-12l1 1 2 2h7l1-1h1l1 2v1h2l1 1h-1l-1 1h2l1 1h-1l-1 1h2l1 1h-2l2 2v1h-1l-1-1 1 3 1 1-1 1-1 1-1-1-1 1-1 1-1-1v-1h-2l-1-1v-1l2-1 1-1-3-3-1-2-4 1h-5c-3 0-6-7-9-8h-3c-4 1-8 6-12 8h-5l-1 2h-2l-1 3-2 1v-2l-1 1-1 2v-2l-1 1-2 1v-2l-1 2-2 1v-2h-1l-1 2h-2c-1 0-2-1-1-3a2 2 0 0 1-2-2c0-1 0-2 2-2v-1l1-1h1l1 2h2l5-2 4-1v-9h2l8 1h4l10-2h5l6 1h5c3 0 8 0 10-3a2 2 0 0 0-3-3l-2 1 1 1 1 1h-2l-1-2-1 1 1 2-2-1-1-2v3l-2-1v-2l-7 1-8 2-9-1a3 3 0 0 1-1-5l4-2 7-2h10a1 1 0 0 0 0-2l1 1v2z" style="fill:none;stroke:#806600;stroke-width:.25321;stroke-miterlimit:103.17453"/><path d="M488 190h2l-1-1v-4h2l1-2v-2l-3 1v-2l-1-1-1 1v-2a2 2 0 0 0-3-1l-1 1v-1h-1l-1 1-1 1-2-1-1 1v2l1 1v2l-2 1-1 1 2 1c-3 2-3 5-1 8l1-1 1 2v3l1 1 1-2h2l2-2v2c4-2 5-4 4-8z" style="fill:gold"/><path d="M480 185v4l2 1 2 1 2-4h-2l-1-1h-1l-2-1z" style="fill:#504416"/><path d="M481 186v2-2zm3 1v2l1-2h-1zm-3 1-1 2 1-2zm3 1-1 2h1v-2zm-3-8-1 1 1 1 2-1-1-1h-1zm5 2h-1l1 1h2l-1-1h-1z" style="fill:#fff"/><path d="m481 181-1 1 1 1 2-1-1-1h-1zm0 0 1 1h1l-2 1-1-1 1-1zm5 1-1 1 1 1h2v-1h-1l-1-1zm0 1h2v1h-2v-1z" style="fill:#d1b948"/><path d="M481 180h-1v1h1l1 1 2-1h-1l-2-1zm7 2h-3l1 1h3a1 1 0 0 0-1-1zm-8 7c-2 4 3 5 4 2l-4-2z" style="fill:gold"/><path d="M480 189h-1v3a3 3 0 0 0 5-1l1-1h-1l-4-1zm0 0 4 2-1 1-2 1-1-2v-2z" style="fill:#806600"/><path d="m482 186-1 7 3-6h-1v-1l-1 1v-1z" style="fill:#377bc8;stroke:#2c5aa0;stroke-width:.25321;stroke-miterlimit:103.17453"/><path d="M486 177h-2l-1 1v-1h-1l-1 1-1 1 2-1v1l2-1 1-1 1 2 1 2 1-1 1 2v-2l-1-1-1 1v-2l-1-1zm-7 5 2 2-1 1 1 1 1 1 1-1 1 1 1 1 1-1v-1h2v-1h-2l-1 1-1 1-1-1h-1l-1-1v-1l-2-2zm-1 0-2 3-1 1 2 1c-3 2-3 5-1 8l1-1 1 2v3l1 1 1-2h2l2-2v2c4-2 5-4 4-8h2l-1-1v-3l-1 1v2l-2-1 1 4v3l-2 1v-5l-1 3-1 2v-3l-1 4h-2l-1 1v-2l-1-2c-1-1 1-4 1-4l-2 2-1 1-1-2 1-2 3-3h-3l2-2v-2zm5 2h-1 1v1h2v-1h-2z" style="fill:gold"/><path d="M488 190h2l-1-1v-4h2l1-2v-2l-3 1v-2l-1-1-1 1a2 2 0 1 0-4-2v-1h-1l-1 1-1 1-2-1-1 1v2l1 1v2l-2 1-1 1 2 1c-3 2-3 5-1 8l1-1 1 2v3l1 1 1-2h2l2-2v2c4-2 5-4 4-8z" style="fill:none;stroke:#806600;stroke-width:.25321;stroke-miterlimit:103.17453"/><path d="M478 179v1l1 2v-2l-1-1zm2 2h1l1 1 2-1-1 1v1h-1v1l1 1h2v-3l1 1h2l1 1-1-1h-1l-2-1v-1 3a6 6 0 0 1 0 1h-2l-1-1v-1h1v-1l1-1h-4zm-1 1v2h1v1l1 2h1a2 2 0 0 0 1 0l2 1 1-2h2v-2l-1 2h-1v-1 2h-2l-1-1h-1v1l-1-1-1-1h1v-1l-1-1-1-1zm12 0-1 1-1 2 2-1v-2z" style="fill:#806600"/><path d="M481 181a1 1 0 0 0 0 1 1 1 0 1 0 0-1zm6 2a1 1 0 0 0-1 1h1a1 1 0 0 0 0-1z" style="fill:#2b2200"/><path d="m467 199-2 1 2 1 1-1-1-1zm27 1-3 1 3 1h1a1 1 0 0 0-1-2zm-29 2-1 2h2v-1a1 1 0 0 0-1-1zm30 3c-1 0-2 0-2 2h2l1-1a1 1 0 0 0-1-1zm-28 1-1 3 2-1v-1l-1-1zm58 0-1 3 2-1v-1l-1-1zm-26 2h-1l-1 2 2-1a1 1 0 0 0 0-1zm33 0h-1l1 3 1-2v-1h-1zm-3 0-1 1v2l1-1v-2z" style="fill:#377bc8;stroke:#2c5aa0;stroke-width:.25321;stroke-miterlimit:103.17453"/><path d="M573 27v-1l1-2c-3 0-6 1-8 3l-4 4-1 4-2-2h-2l-4 2-2 3-1 6-2 3h4l3-2 2-3h2v2l-1 4h-2l-2 1h-1 0l2 2v1h0s0 0 0 0l-4 2h-1 0-5l-3-1-1-1-1-1-3-6a7 7 0 0 0 6-10 8 8 0 0 0-2-2 7 7 0 0 0-5-2s0 0 0 0h-1l-4 2a7 7 0 0 0-2 4v1h0c0 3 2 5 4 7l-3 3c-3 3-7 5-11 5-4 1-10-1-13-4l-3-3h1l2-2h1l-1-1-2-1h0v-5l2-2 1 1 1 4 3 3 4 1-1-3c-1-2 1-4 1-6v-5c-1-1-2-3-4-3h-2l-3 1v-5l-2-6-4-4-4 4-2 6v5l-3-1h-2c-2 0-3 2-4 3v5c0 2 2 4 1 6l-1 3 4-1 3-3 1-4 1-1 2 2v5h0l-2 2 2 2h1l-3 3c-3 3-9 5-13 4-4 0-8-2-11-5l-3-3c3-1 4-4 4-7h0v0l-2-5-4-2s0 0 0 0h-2l-4 2a8 8 0 0 0-2 4v1c0 4 2 7 6 7l-3 6-1 1-1 1-3 1h-5 0-1l-4-2s0 0 0 0h0v-1l2-2h0-1l-2-1h-2l-1-4v-2h2l2 3 3 2h4l-2-3-1-6-2-3-4-2h-2l-2 2-1-4-4-4c-2-2-5-3-8-3l1 2v1s0 0 0 0l10 22-1 1-2 2 3 2 3-1 2 7h-2 0l-1 1h0v2h1s0 0 0 0 0 0 0 0h2v2h0v2l-2 4 3 3 1 2h0v1s0 0 0 0l1 1h0-1l-1 1h0l1 2h1l15-1 5-1 26-1h18a459 459 0 0 1 46 3h1l1-1a1 1 0 0 0 0-1h0v0l-1-1h0-1l1-1h-1l1-1h0l1-2 3-3-2-4v-2h0v-2h2s0 0 0 0l1-1h0l-1-2h0-3l3-7 3 1 3-2-2-2-1-1 10-22s0 0 0 0z" style="fill:gold;stroke:#806600;stroke-width:.628;stroke-linecap:round;stroke-linejoin:round"/><path id="path-b7341" d="m m0 78 m0 81 m0 65 m0 65 m0 65 m0 65 m0 65 m0 65 m0 65 m0 65 m0 65 m0 65 m0 65 m0 65 m0 65 m0 65 m0 65 m0 65 m0 65 m0 65 m0 82 m0 110 m0 115 m0 106 m0 102 m0 75 m0 77 m0 48 m0 71 m0 100 m0 79 m0 112 m0 117 m0 117 m0 87 m0 87 m0 89 m0 110 m0 118 m0 110 m0 90 m0 105 m0 111 m0 118 m0 120 m0 90 m0 88 m0 88 m0 68 m0 70 m0 70 m0 51 m0 102 m0 89 m0 69 m0 111 m0 86 m0 103 m0 89 m0 68 m0 120 m0 51 m0 47 m0 48 m0 55 m0 48 m0 107 m0 78 m0 102 m0 101 m0 82 m0 78 m0 90 m0 82 m0 87 m0 74 m0 75 m0 105 m0 113 m0 88 m0 76 m0 68 m0 55 m0 52 m0 90 m0 81 m0 61 m0 61"/>
</svg>