<svg xmlns="http://www.w3.org/2000/svg" xmlns:xlink="http://www.w3.org/1999/xlink" width="600" height="300"><defs><linearGradient id="e" x1="499" x2="501" y1="289" y2="283" gradientUnits="userSpaceOnUse"><stop offset="0" stop-color="#510000"/><stop offset="0" stop-color="#8a0000"/><stop offset="1" stop-color="#a00"/></linearGradient><linearGradient id="f" x1="501" x2="503" y1="291" y2="287" gradientUnits="userSpaceOnUse"><stop offset="0" stop-color="#ff2a2a"/><stop offset="1" stop-color="red"/></linearGradient><linearGradient id="j" x1="485" x2="485" y1="312" y2="318" gradientUnits="userSpaceOnUse"><stop offset="0" stop-color="#F5F549"/><stop offset="1" stop-color="#97C924"/></linearGradient><linearGradient id="a"><stop offset="0" stop-color="#025"/><stop offset="1" stop-color="#04a"/><stop offset="1" stop-color="#025"/></linearGradient><linearGradient xlink:href="#a" id="g" x1="445" x2="634" y1="317" y2="317" gradientUnits="userSpaceOnUse"/><clipPath id="b"><path d="m500 226-64 111h128z"/></clipPath></defs><path fill="#0067C6" d="M0 0h1000v600H0z"/><path fill="#fff" d="M0 200h1000v200H0z"/><path fill="#c8a400" d="m410 299 10 1v-1l-4-1v-5l5-3v-1l-5 3-1-3-3 1-2 3v6zm2-1v-5l1-2h2v7h-3zm-1-14 10 2 2-9-1-1-2 9-3-1 2-7-2-1-1 8-3-1 2-8h-2l-2 9zm4-13 9 3 1-1-4-1 1-5v-3l-2-2-3 2-1 4-1 3zm2-1 1-4 2-2 1 1-1 4v2l-3-1zm3-11 5 3h4l3-4v-3l-3-3-4-2-1 1 6 3 1 3-2 3-2 1-3-1-3-2-1 1zm7-12 8 6 4-5 1-3-3-2h-1l-2-2-3 1-2 3-2 2zm2 0 3-4 2-1v2l-2 3-1 1-2-1zm3 2 3-3 2-2c1 1 2 1 1 2l-2 3-1 2-3-2zm4-13 7 8 6-6-1-1-5 5-6-7zm9-7 6 8 1-1-6-8zm9-6-2 2-1 2v3a5 5 0 0 0 2 2h3l3-1 3-2v-3h-1c0 2-1 3-3 4s-4 1-5-1c-2-2 0-4 2-5 1-1 2-2 4-1l1-1h-3l-3 1zm12-6-1 11 1-1 1-3 5-2 2 2 2-1-9-7-1 1zm1 1 4 3-4 1v-4zm21-7v10l6-1 4-1 1-6-4-3h-4l-3 1zm1 1h5a4 4 0 0 1 2 0l1 4-2 3h-5l-1-7zm13-2-1 10 10 1v-2h-8v-3h7v-1l-7-1v-2h8v-1l-9-1zm26 4-4 9 1 1 3-7v-1l1 1 3 10h2l3-9-1-1-3 8-4-10zm13 6-4 9-2-1 5-9zm8 4-3-1h-3l-2 2a5 5 0 0 0-1 3l1 2 2 3 4 1 2-1-1-1c-1 1-3 0-4-1-2-1-3-3-2-5 2-2 4-2 6-1l2 4h2l-1-2-2-3zm9 8-10 4 1 1 3-1 4 3v3l1 2 3-11-2-1zm0 1-1 5-3-3 4-2zm8 5-8 7 1 1 3-3 3 4-1 5 1 2 1-6 4 1 1-2-1-4-4-5zm0 3 3 4v2h-2l-3-3-1-1 3-2zm12 13-12 1 1 1h4l2 5-2 3 1 1 6-9v-2zm-1 2-3 4-2-4h5zm7 12-3-5c-2-1-5 0-6 2l-1 4 3 6h-1v1l5-1-2-5h-1l2 4h-2l-3-5 1-4h5l2 4v5a4 4 0 0 0 2-3l-1-3zm3 7-6 2-2 1-1 1v3l1 3 2 2h2l6-1-1-2-5 1c-2 1-3-1-4-3 0-2 0-4 3-4l5-1v-2zm3 17-10-4v2l3 1v6l-3 1v2l10-6v-2zm-2 1-3 3-1-4 4 1zm-170 25-2 1 2 6 1-1zm164 0 2 1-2 6-1-1zm-149 26-11 1 1 2 3-1 3 5-1 3 1 1 5-10-1-1zm-1 2-2 3-2-3h4zm5 4-7 7 1 1 6-6-3 9 1 1 9-3-6 6 1 1 7-7-1-1-9 2 3-8zm11 11-6 8 8 6v-2l-6-5 2-2 6 4 1-1-6-4 1-2 7 4v-1l-7-5zm10 7-5 9h1l2-3 4 2 1 5 2 1-1-5 3-1 1-3-3-2-5-3zm0 2 5 2 1 2-1 1-4-1-2-1 1-3zm11 4-4 9 2 1 3-10zm9 3-3-1-3 1-1 3a5 5 0 0 0-1 2l2 3 3 1 3 1 3-2-1-1c-2 2-3 2-5 1s-4-3-3-5 3-3 6-2l3 3h1l-1-2-3-2zm10 2-7 9 2 1 2-3h6l1 4h1l-3-11h-2zm1 2 1 4-4-1 3-3zm22-2-3 1-1 2-1 3a5 5 0 0 0 2 3l2 1h3l4-1 1-3h-1l-4 3c-3 0-5-1-5-3-1-3 1-4 4-4h5l-2-2h-4zm7-1 3 10 9-3v-2l-8 3-1-3 7-2v-2l-7 3-1-3 8-2-1-2-9 3zm11-3 4 9 1-1-3-7 10 4 2-1-5-9-1 1 4 7-10-4-2 1zm11-6 1 2 3-3h1l4 7h1l-4-7v-1l3-2v-1zm10-6 7 7 1-1-3-3 4-3h5l1-1-5-1v-3l-2-1-4 2-4 4zm2 0 4-4 2-1 1 3-3 3-2 1-2-2zm10-12 4 10 1-1-1-3 3-4h4l1-1-11-2-1 1zm1 0 5 1-3 3-2-4zm3-6 8 6 5-7-1-1-4 6-7-5z"/><g clip-path="url(#b)"><path fill="#fff" d="m500 226-31 55-16 27h94l-15-26-32-56z"/><g id="d"><g id="c"><path fill="#17c0eb" stroke="#17c0eb" stroke-width="0" d="m500 226-2 4 2 55 2-55z"/><path fill="#fff" d="M500 277v4-4z"/></g><use xlink:href="#c" transform="rotate(72 500 285)"/><use xlink:href="#c" transform="rotate(144 500 285)"/><use xlink:href="#c" transform="rotate(216 500 285)"/><use xlink:href="#c" transform="rotate(288 500 285)"/></g><use xlink:href="#d" transform="rotate(8 500 285)"/><use xlink:href="#d" transform="rotate(16 500 285)"/><use xlink:href="#d" transform="rotate(24 500 285)"/><use xlink:href="#d" transform="rotate(32 500 285)"/><use xlink:href="#d" transform="rotate(40 500 285)"/><use xlink:href="#d" transform="rotate(48 500 285)"/><use xlink:href="#d" transform="rotate(56 500 285)"/><use xlink:href="#d" transform="rotate(64 500 285)"/><path fill="red" d="M500 266a44 44 0 0 0-29 11l-15 25a45 45 0 0 0 0 8h5a39 39 0 0 1 78 0h5v-8l-15-25a44 44 0 0 0-29-11z"/><path fill="#f60" d="M500 267c-12 0-22 4-30 12l-12 21a44 44 0 0 0-2 10h5a39 39 0 0 1 78 0h5l-2-10-12-21c-8-8-18-12-30-12z"/><path fill="#ff0" d="M500 267c-13 0-24 6-32 15l-9 15a43 43 0 0 0-2 13h4a39 39 0 0 1 78 0h4l-2-13-9-15c-8-9-19-15-32-15z"/><path fill="#0f0" d="M500 268c-15 0-27 8-35 19l-3 5a42 42 0 0 0-4 18h3a39 39 0 0 1 78 0h3a42 42 0 0 0-4-18l-3-5c-8-11-20-19-35-19z"/><path fill="#0cf" d="M500 269c-23 0-41 19-41 41h2a39 39 0 0 1 78 0h2c0-22-18-41-41-41z"/><path fill="#00f" d="M500 270c-22 0-40 18-40 40h1a39 39 0 1 1 78 0h1c0-22-18-40-40-40z"/><path fill="purple" d="M500 271a40 40 0 0 0-40 40h1a36 36 0 0 1 0-1 39 39 0 1 1 78 1h1v-1c0-22-18-39-40-39z"/><path fill="#510000" d="M500 288h-1l-1 2h1v2l1 2 1-1 1-2c0-2-1-2-2-3z"/><path fill="red" d="M497 284h-2v-1l2-3c3-1 4-1 5 1l3 6v2c-2 1-5-2-7-1h-2v-2l2-3-1 1z"/><path fill="url(#e)" d="m497 283-2 1h2v-1 1l-2 2v2l2 1 4 2h3v-2h-5v-7l-2 1z"/><path fill="#ff2a2a" d="M501 280v2l1 1v1l1-1a4 4 0 0 0 0-1 15 15 0 0 0-1-1 4 4 0 0 0-1-1z"/><path fill="url(#f)" d="M501 287h-2l-3-1-1 1v1c1-1 3 1 3 1l1 1 1 2v2l2-1v-2l2-1h1v-1l-1-1-3-1z"/><path fill="#910000" d="M498 289s-2-2-3-1v-1l1-1 3 1-1 2z"/><path fill="#ff3a3a" d="m502 291 2-1 1-1-3 1-2 4 2-3z"/><g fill="url(#g)"><path fill="#fff" d="m453 308-10 17h114l-10-17h-94z"/><g id="i"><path id="h" d="m450 321-5 1v1l7-1 9 1h5l10-1 10 1h4l10-1 10 1h4l10-1 10 1h4l10-1 8 1-1-1-4-1h-5l-10 1-9-1h-5l-10 1-10-1h-4l-10 1-10-1h-4l-10 1-10-1h-4z"/><use xlink:href="#h" y="-1"/><use xlink:href="#h" y="-2"/></g><use xlink:href="#i" y="-3"/><use xlink:href="#i" y="-7"/><path d="M453 307v1h94v-1h-94zm0 1h94-94zm0 0v1h94v-1h-94zm-1 1h96-96zm0 0v1h96v-1h-96zm0 1-1 1h98l-1-1h-96zm-1 1h98-98zm0 1h98-98zm6 0h4zm82 0h4z"/></g><g fill="#ccd11e"><g id="k"><path fill="url(#j)" d="m531 297-3 1c-2 10-11 21-22 21h-8v11h61l-6-11c-10-1-18-11-20-21l-2-1z"/><path fill="#97c924" d="m531 297-2 1c-2 5-5 11-9 15s-9 7-14 7h-8v10h61l-6-10c-4-1-9-4-12-7-4-4-7-10-8-15h-1l-1-1z"/><path fill="#ede71f" d="M531 297v11l-2 7-2 3-5 1h-11c3-1 7-3 9-6a31 31 0 0 0 3-3 34 34 0 0 0 3-4 34 34 0 0 0 3-8h1l1-1z"/><path fill="#c6cb24" d="M530 299c0 6-2 13-7 18l-5 2c6-6 11-14 12-20z"/><path fill="#9ecb34" d="M524 309c-1 3-4 7-8 10h-3c2 0 8-5 11-10z"/></g><use xlink:href="#k" x="-15"/><g fill="#c6cb24"><path fill="url(#j)" d="M502 298c3 10 12 21 23 21h8v11h-66v-11h8c11 0 20-11 23-21l2-1 2 1z"/><path fill="#97c924" d="m500 297 2 1c1 5 4 11 8 15s9 7 15 7h7v10h-65v-10h8c6 0 11-3 15-7s7-10 8-15l2-1z"/><path fill="#ede71f" d="M499 298a2 2 0 0 0-1 0 31 31 0 0 1-2 6 34 34 0 0 1-1 2 34 34 0 0 1-3 4 31 31 0 0 1-2 3c-3 3-6 5-10 6 3 1 4 0 7-1l6-1 1-3 3-6c2-3 2-9 2-10z"/><path d="M499 299c0 6-2 13-6 18l-6 2c7-6 11-14 12-20z"/><path fill="#9ecb34" d="M494 309c-1 3-5 7-9 10h-3c3 0 8-5 12-10z"/><path fill="#ede71f" d="M501 298h1a32 32 0 0 0 3 8 34 34 0 0 0 3 4 31 31 0 0 0 2 3c3 3 6 5 10 6-7 0-10 0-13-4-3-3-4-5-4-7l-2-10z"/><path d="M501 299c1 6 3 12 7 17l6 2c-8-5-11-13-13-19z"/></g><g id="l"><path fill="url(#j)" d="m485 297-2 1c-3 10-12 22-22 24l-5 8h49v-11c-9-3-16-12-18-21l-2-1z"/><path fill="#97c924" d="m485 297-2 1-8 15c-4 4-10 9-14 9l-5 8h49v-11c-4-1-7-3-10-6-4-4-7-10-8-15h-1l-1-1z"/><path fill="#93bc30" d="M483 299c0 9-5 20-11 22l-6 1c10-4 16-16 17-23z"/><path fill="#ede71f" d="M485 297h-1v11l2 7h1c0 1 0 2 2 3 5 4 11 4 15 4l-4-3h5c-4-1-7-3-10-6a31 31 0 0 1-1-2l-1-1-3-4a34 34 0 0 1-1-2 34 34 0 0 1-2-4 32 32 0 0 1 0-2h-1a4 4 0 0 0-1-1z"/><path d="M485 299c1 6 3 13 7 18l6 2c-7-6-11-14-13-20z"/><path fill="#9ecb34" d="M490 307c2 6 8 12 14 15h3c-5-2-12-6-17-15z"/></g><use xlink:href="#l" x="-15" fill="#c6cb24"/></g><path fill="#fff" d="M557 325h-12l-10 1-10-1h-3l-10 1-10-1h-4l-10 1-10-1h-3l-10 1-10-1h-3l-9 1-7 11h128z"/><path fill="url(#a)" d="M548 323h-1l-11 1-12-1-12 2-13-1-12 2-11-1-12 2-12-1-10 1-1 2 11-1h15l11-1h10l8-1h15l9-1h5l9 1 10-1h13l-1-1-8-1z"/><g id="n"><path id="m" fill="url(#a)" d="m450 335-9 1-4-1v1h6l9-1 10 1h4l10-1 10 1h4l10-1 9 1h5l10-1 9 1h5l9-1 10 1h6v-1l-3 1-10-1h-4l-10 1-10-1h-4l-10 1-10-1h-4l-10 1-9-1h-5l-10 1-9-1h-5z"/><use xlink:href="#m" y="-1"/><use xlink:href="#m" y="-3"/></g><use xlink:href="#n" y="-4"/><use xlink:href="#n" y="-8"/><path fill="#97c924" d="m444 325-3 4 11-2 12 1 12-1h11l12-1h13l12-1 12 1 12-2 8 1-2-4-101 3z"/><path fill="#fff" d="M550 325h4a91 91 0 0 0 3 0h-7z"/></g><path fill="#c8a400" d="m500 225-32 56-33 56h130l-32-55-33-57zm0 3 32 55 30 53H438l31-55z"/></svg>