<svg xmlns="http://www.w3.org/2000/svg" width="1600" height="800"><path fill="#009e60" d="M0 0h900v600H0z"/><path fill="#fff" d="M0 0h600v600H0z"/><path fill="#f77f00" d="M0 0h300v600H0z"/><path id="path-b7272" d="m m0 81 m0 103 m0 65 m0 65 m0 65 m0 65 m0 65 m0 65 m0 65 m0 65 m0 65 m0 65 m0 65 m0 65 m0 65 m0 65 m0 65 m0 65 m0 65 m0 65 m0 78 m0 89 m0 56 m0 76 m0 68 m0 118 m0 56 m0 85 m0 52 m0 117 m0 117 m0 107 m0 113 m0 72 m0 72 m0 90 m0 101 m0 54 m0 88 m0 97 m0 81 m0 101 m0 115 m0 49 m0 109 m0 111 m0 69 m0 47 m0 50 m0 105 m0 72 m0 82 m0 50 m0 116 m0 53 m0 90 m0 90 m0 55 m0 78 m0 53 m0 48 m0 49 m0 81 m0 78 m0 108 m0 117 m0 78 m0 105 m0 117 m0 66 m0 65 m0 113 m0 79 m0 104 m0 119 m0 76 m0 107 m0 47 m0 67 m0 75 m0 101 m0 114 m0 101 m0 78 m0 56 m0 65 m0 61 m0 61"/>
</svg>