<svg xmlns="http://www.w3.org/2000/svg" width="800" height="400"><path fill="#009e60" d="M0 0h900v600H0z"/><path fill="#fff" d="M0 0h600v600H0z"/><path fill="#f77f00" d="M0 0h300v600H0z"/><path id="path-b7457" d="m m0 77 m0 65 m0 65 m0 65 m0 65 m0 65 m0 65 m0 65 m0 65 m0 65 m0 65 m0 65 m0 65 m0 65 m0 65 m0 65 m0 65 m0 65 m0 65 m0 65 m0 79 m0 77 m0 84 m0 51 m0 108 m0 50 m0 87 m0 106 m0 51 m0 43 m0 55 m0 83 m0 67 m0 83 m0 72 m0 55 m0 114 m0 82 m0 113 m0 104 m0 102 m0 70 m0 82 m0 83 m0 48 m0 68 m0 102 m0 79 m0 90 m0 71 m0 80 m0 90 m0 65 m0 75 m0 73 m0 107 m0 75 m0 116 m0 106 m0 99 m0 100 m0 48 m0 71 m0 118 m0 107 m0 79 m0 122 m0 106 m0 67 m0 90 m0 77 m0 68 m0 105 m0 103 m0 49 m0 53 m0 71 m0 83 m0 98 m0 102 m0 90 m0 89 m0 116 m0 74 m0 109 m0 81 m0 61 m0 61"/>
</svg>