<svg xmlns="http://www.w3.org/2000/svg" width="300" height="150"><path fill="#009e60" d="M0 0h900v600H0z"/><path fill="#fff" d="M0 0h600v600H0z"/><path fill="#f77f00" d="M0 0h300v600H0z"/><path id="path-b7184" d="m m0 77 m0 119 m0 65 m0 65 m0 65 m0 65 m0 65 m0 65 m0 65 m0 65 m0 65 m0 65 m0 65 m0 65 m0 65 m0 65 m0 65 m0 65 m0 65 m0 65 m0 78 m0 76 m0 98 m0 47 m0 73 m0 82 m0 82 m0 118 m0 73 m0 67 m0 107 m0 67 m0 105 m0 79 m0 122 m0 54 m0 112 m0 115 m0 111 m0 67 m0 65 m0 86 m0 80 m0 104 m0 74 m0 114 m0 98 m0 76 m0 51 m0 76 m0 122 m0 103 m0 101 m0 51 m0 112 m0 77 m0 47 m0 82 m0 67 m0 52 m0 69 m0 72 m0 106 m0 109 m0 71 m0 119 m0 70 m0 111 m0 71 m0 73 m0 73 m0 121 m0 107 m0 49 m0 90 m0 76 m0 80 m0 114 m0 55 m0 69 m0 69 m0 120 m0 102 m0 43 m0 78 m0 65 m0 61 m0 61"/>
</svg>