<svg xmlns="http://www.w3.org/2000/svg" xmlns:xlink="http://www.w3.org/1999/xlink" width="200" height="100"><defs><clipPath id="c" clipPathUnits="userSpaceOnUse"><path fill="#fff" stroke="#c09300" stroke-width="0" d="M-109 182h-1c-1 0-5-1-7-3a16 16 0 0 1-7 3v1a19 19 0 0 0 7 13 19 19 0 0 0 8-14z"/></clipPath></defs><path d="M0 0h900v600H0z"/><path fill="#fff" d="M0 0h900v400H0z"/><path fill="#ce1126" d="M0 0h900v200H0z"/><g fill="#fff" stroke="#c09300" transform="translate(344 97) scale(.2331)"><path stroke-linejoin="round" stroke-width="5" d="m458 879 293 273-20-495c-4-75-69-58-116-31-48 31-103 31-161 10-58 21-112 21-160-10-48-27-113-44-116 31l-21 495z"/><path id="a" fill="#c09300" stroke="none" d="m393 246-4 113-8 7 5-115 7-5zm10 9-4 93-8 9 5-109 7 7zm9 7-3 78-7 6 4-89 6 5zm9 4-3 67-6 5 3-75 6 3zm9 0-2 55-7 7 3-62h6z" transform="translate(-1476 -418) scale(4.29012)"/><use xlink:href="#a" width="100%" height="100%" transform="matrix(-1 0 0 1 908 0)"/><path fill="#c09300" stroke-width="5" d="m468 934 41 187-14 14-14-11-23-167 10 167-14 18-13-18 9-167-23 167-14 11-14-14 42-187h27z"/><g id="b" fill="none" stroke="#c09300" stroke-linejoin="round" stroke-width="5"><path fill="#fff" d="m362 851-82 291 113 17 48-219-79-89z"/><path d="m335 950 10 24 53-51"/><path d="m372 890 11 105 34-45m-14 18 19 63m7-23-38 57m12 56-12-56-10-58-25 34-11-39-35 36 17 65 25-40 13 41 26-39m-87 70 23-32 14 49 21-34 13 41"/></g><use xlink:href="#b" width="100%" height="100%" transform="matrix(-1 0 0 1 908 0)"/><g stroke-linecap="round" stroke-linejoin="round"><path stroke-width="10" d="M454 1272c86 0 168-7 216-21 20-3 20-14 20-27 20-7 10-31 24-31-14 3-17-24-35-21 0-24-24-27-44-20-41 14-113 17-181 17-68-3-140-3-181-17-20-7-44-4-44 20-17-3-20 24-35 21 15 0 4 24 24 31 0 13 0 24 21 27 48 14 130 21 215 21z"/><path stroke-width="5" d="M338 1142c28 3 58 6 82 3 14 0 24 24-3 27-24 3-62 0-82-3-17-3-55-10-79-17-24-10-7-31 7-28 21 7 48 14 75 18zm232 0c-27 3-58 6-81 3-15 0-24 24 3 27 24 3 61 0 82-3 17-3 54-10 78-17 24-10 7-31-6-28-21 7-48 14-76 18z"/><path stroke-width="5" d="M253 1128c-21-4-31 20-24 34 3-7 17-7 20-14 4-10-3-10 4-20zm82 63c0-13 13-12 13-25 0-7-3-18-10-18s-14 7-14 14c-3 14 11 16 11 29zm97-39c20 0 18 27 9 41 0-10-18-14-18-21 0-10 16-10 9-20zm223-24c21-4 31 20 24 34-3-7-17-7-20-14-4-10 3-10-4-20zm-81 63c0-13-14-12-14-25 0-7 4-18 10-18 7 0 14 7 14 14 3 14-10 16-10 29zm-98-39c-20 0-18 27-8 41 0-10 17-14 17-21 0-10-16-10-9-20z"/><path stroke-width="4" d="M260 1135c6 0 17 3 20 7l-20-7zm33 10c4 0 18 3 24 7l-24-7zm124 14c-7 0-21 0-24 3l24-3zm-38 0c-4-4-17-4-24 0h24zm270-24c-7 0-17 3-21 7zm-34 10c-4 0-17 3-24 7l24-7zm-123 14c6 0 20 0 24 3l-24-3zm37 0c4-4 17-4 24 0h-24z"/><g fill="#c09300" stroke="none"><path d="M254 1189c-2 0-4-2-3-4 1-3 3-4 5-4l3 4-1 3h-1l-3 1zm236 17-3-3c0-2 3-5 4-5l4 2c1 2 1 4-1 5l-4 1zm1 10c-2 0-2-1-2-3-1-2 0-2 2-4h3l3 3c0 2-1 3-3 4h-3z"/><path d="m273 1170-5 2c-3 0-6 2-9 0-2-1-6 0-6 3 1 3 4 5 7 3 2-2 6-4 7 0-2 3-2 7-3 10l-3 6-5 1c-3 0-6 1-7 4-2 2-4 5-4 8s4 4 7 4l8 3 14 3 21 5 2 1c3 0 4-3 4-5l4-15c1-2 2-7-2-6-2 2-4 4-6 4-4 0-2 4-1 5 1 3 0 6-2 8-2 1-5 0-7-1-3 0-7-1-5-4l2-8 2-8c-2-4-4 1-7 1-1 1-6 2-4 4 3 2 1 5 1 8-1 3-4 4-7 3-2 0-6-2-4-5l2-7 3-9c0-3 1-5 3-8l2-8-2-2zm-16 31h1v2l-1 1-2-1c-1-1 0-1 1-2h1zm-4 21c-2-2-2-3 1-5h4c2 2 3 4 0 5l-2 2c-2 0-2-1-3-2zm13 4a4 4 0 0 1-3-4c1-2 1-2 4-2s4 0 4 3l-1 2c-1 1-3 2-4 1zm382 1-1-3 3-4c3-1 5-1 6 1 1 3 1 4-1 6l-3 1-4-1zm-365 5-2-4 1-2 3-1h2c2 2 3 4 2 5-2 2-3 2-6 2zm95 4-2-1 1-7 1-7 2-12 1-6 1-10c0-1 1-4 2-2l6 6c2 1 0 3-1 4-2 0-2 2-2 4l-1 5-1 8v8l-1 5c0 2 0 4-2 5h-4zm127-42-6 5c-2 2 2 3 3 5l1 7 1 8c-1 3-4 2-6 3l-4 5-2 7v6h1l2 1 6-1 16-1 10-1c2 0 3-2 3-4l-1-9-1-9c0-3-3-4-5-2l-5 4c-1 2 3 2 4 4v7c1 2-2 2-4 3-2 0-5 1-7-2v-6l-2-12-1-14c0-2 0-5-3-4zm-3 35h2v4h-4v-3l2-1zm-128-40-6 3c-3 1-3 4 0 6v3c0 4-2 6-1 10l-2 11-2 12c0 3-3 2-5 1v-4c1-4-2-5-5-5s-4-3-3-5 4-1 6-2c4 1 4-4 2-6-1-3-5-4-6-7 0-4-2-7-5-9-5-1-8 3-10 7l-6 2c-3 1-7 6-3 8 2 1 9 3 6 6-2 3-5 3-8 2-3 0-7-1-6-5l-2-10c-1-3-5-2-5 1-4 2-3 6-1 9 1 3 0 6-1 9-1 4-5 4-8 5-2 1-7 0-5 3 3 1 7 2 10 1 4 0 7-2 9-5s6-2 9-2 7 3 10 1c1-2 5-6 7-2-1 4 3 6 6 5 4 0 2 3 2 5 1 4 3 6 6 8h4c3-1 7-3 8-6l2-10 2-14 1-14 2-10-2-2zm-29 18 1 2 2 4-1 1-3 1-5-2-1-1 2-1a28 28 0 0 0 2-2l3-2zm283-34-7 1c-5 0-7 5-3 7 3 7 7-1 11-1 6 2 7 8 8 13l3 15c4 4-3 7-6 4s-8-7-12-3c-3 2-4 7-7 8-5 2-6-4-8-7-3-4-8-4-12-5-2-4-1-10-4-13-4 2-9 8-5 10 5 4-2 6-4 9-3 4-3 9-4 13-5 3-6-3-7-7-1-5-5-4-7-2-4 2-6 5-9 9v8c1 4 5 2 8 2 4-2 6 3 2 5-2 3-9 1-9 6h7c5-1 10-4 11-10 0-4 7-3 10-4 5-2 10-2 11 4 3 3 10 6 13 2 4-2 5-6 5-10-1-3 5-3 7-1 2 3 9 2 13 0 3-2 4-7 9-7l23-6c6-2-1-6-2-8-5-2-9 7-14 3-4-3-4-9-5-14-1-6-1-12-5-17-3-3-7-4-11-4zm-29 41 2 1 3 4-2 2h-2l-2-2-1-2v-2l2-1zm28 1 3 2c1 2 0 3-2 3l-2 1-1-1-2-2 4-3zm-39 1 2 1 1 2v3l-2 1c-3 0-3-1-3-3l1-3 1-1zm-23 6 2 2-1 2-4 1-1-1v-1l1-1v-1l3-1zm39 5 2 1v2h-5v-1l1-1 2-1zm-73 21-1-1 4-2 6-5 2-4-1-6c0-2-2-3-3-4l-4-3 2-4 3-5c1-1 3 0 3 1l2 4 3 5 2 4v12l-3 3-5 4-3 1h-7zm-30 2-1-3 1-2c2-2 3-2 6-1 3 2 4 2 5 1l4-2 2 1 1 3-1 3-3 1c-2 0-3-1-3-3h-2l-4 2-2 1-3-1zm-85-38c-3 0-6 2-6 5 1 3 3 6 2 10 1 4-4 6-7 3-1-4-2-9-5-12-4-1-5 4-8 6 2 3 5 6 6 10 0 4-2 9-5 11s-7 1-11 2c-4 3 3 3 5 4 5 0 9-1 13-4 3-1 3-7 7-8l20 1c4 1 9 0 12 3 0 4 4 7 8 9 2 1 4-2 6-2 4-2 3-7 6-9h21l3-3-1-8c-1-4 0-8-2-11-4-1-7 2-10 3-4 1-8 5-8 10-2 3-6-1-5-4v-5c-2-2-6-1-9-2h-13l-11-1c-5 0-4-5-5-8h-3zm9 15 4 1h6l12 1 3 1v9l-1 3-1 1-3-2 1-5v-1l-4-1-10-1h-10l-3-2c-1-1 1-2 2-3l4-1zm48 1 2 2v2l-1 1h-5l1-3 3-2z"/></g></g><g transform="translate(-1476 -418) scale(4.29012)"><path d="m462 253-1-3 9 2c-4-2-8-15-8-26 1-11-1-15-3-16-2-2-8-4-12-4-3-1-2 1-2 1h-11c-2 1-3 8-1 7 3-3 6-1 8 2s2 10-1 18c-3 9-10 18-10 18 4 0 10-3 10-3l-2 5 8-5 4 4 4-4s3 4 8 4z"/><path fill="none" d="M446 228s-2 16-6 21m10-22s-1 17-4 22m7-21 1 21m3-20s1 15 4 21"/><path fill="#c09300" stroke="none" d="m442 220-1-4c-2-3-5-5-8-2 0 0 1-4 3-4s7 1 10 8h-3l-1 2z"/><path fill="#c09300" stroke="none" d="m432 209 2-2h11s-1-2 2-1c4 0 10 2 12 4l2 2-5-1h-3l-2 1-2 2-1-1-1-1-5-2c-2-2-3-3-6-2l-4 1z"/><circle cx="449" cy="211" r="1" stroke="none"/></g><path stroke-width="4" d="M454 986c140-108 128-266 128-266l-11 1c-29 0-99-16-116-38-17 20-89 38-118 38l-11-1s-12 158 128 266z"/><path fill="none" stroke-width="4" d="M571 732h-4c-26 0-88-14-112-34a259 259 0 0 1-118 34l1 17a314 314 0 0 0 116 222 305 305 0 0 0 117-239z"/><g fill-rule="evenodd" stroke="none" clip-path="url(#c)" transform="translate(2325 -2179) scale(16.04207)"><path fill="#c09300" d="M-124 179h5v17h-5z"/><path d="M-119 179h5v17h-5z"/><path fill="#c09300" d="M-114 179h5v17h-5z"/></g></g><path id="path-b7479" d="m m0 78 m0 65 m0 65 m0 65 m0 65 m0 65 m0 65 m0 65 m0 65 m0 65 m0 65 m0 65 m0 65 m0 65 m0 65 m0 65 m0 65 m0 65 m0 65 m0 65 m0 81 m0 47 m0 84 m0 79 m0 43 m0 73 m0 114 m0 83 m0 54 m0 84 m0 68 m0 76 m0 118 m0 68 m0 54 m0 102 m0 98 m0 107 m0 73 m0 67 m0 48 m0 67 m0 113 m0 52 m0 99 m0 70 m0 102 m0 69 m0 53 m0 70 m0 117 m0 82 m0 78 m0 77 m0 78 m0 68 m0 47 m0 76 m0 48 m0 120 m0 104 m0 114 m0 71 m0 75 m0 122 m0 115 m0 84 m0 56 m0 113 m0 75 m0 72 m0 79 m0 47 m0 84 m0 97 m0 88 m0 107 m0 112 m0 100 m0 71 m0 111 m0 57 m0 77 m0 70 m0 85 m0 119 m0 61 m0 61"/>
</svg>