<svg xmlns="http://www.w3.org/2000/svg" width="1200" height="600"><path d="M0 0h900v600H0z"/><path fill="#fcdc04" d="M0 100h900v150H0zm0 300h900v200H0z"/><path fill="#d90000" d="M0 200h900v100H0zm0 300h900v100H0z"/><circle cx="450" cy="300" r="94" fill="#fff"/><g stroke="#000"><path fill="#d90000" d="m434 228-7-11c3-2 7-4 13-4l-1 12z"/><path fill="#fcdc04" d="m439 225 1-12s13-1 20 8l-7 9z"/><path fill="#d90000" d="m453 230 6-10c4 5 6 8 7 13l-10 2-3-5z"/><path d="M437 388s11-13 34-10c-4-6-15-5-15-5s-3-26 0-27c2-2 14 0 14 0 1 0 4-4 2-7-2-2-8-12-6-14 3-2 16 1 16 1l-38-48s-4-18 4-27c9-8 8-16 8-16-1-8-14-14-23-7-5 7-1 11-1 11s-14 4-14 6c-1 3 15 0 15 0l-2 11s-30 27-7 51l1-1s8 10 17 12l7 8s2 13 0 15h-25c-3 1-14 0-11 18l4-9s-1 6 2 8c-1-6 2-11 2-11l2 9c2 1 2-12 11-11l15 1s3 25 2 27c-6-2-22 1-22 4l13 1s-8 6-5 10z"/><path fill="#9ca69c" stroke="#9ca69c" d="M440 252s-22 24-12 43v-4l3 1-1-4 3 1-2-3h4l-1-4h4c-7-11-1-20 2-30zm8-21s1 8-4 11c0 0-3 1-3 3 1 2 2 2 4 1 5-1 10-11 3-15z"/><circle cx="438" cy="238" r="2" fill="#fff" stroke="none"/><path fill="#d90000" d="M433 245c-2 1-8 7-2 10 7-2 5-3 6-5 0-2-3-3-4-5z"/><path fill="#9ca69c" stroke="#9ca69c" d="M446 305c0 2-2 7 0 11 5-3 8-2 10-1-5-3-6-5-10-10z"/><path fill="#fff" stroke="#fff" d="M455 329v12h6c2 0 0-8-6-12z"/><path fill="#9ca69c" d="M485 331s-7-19-27-23c-20-5-17-26-15-27 0-2 1-5 7-2 5 3 31 16 35 16 4 1 1 36 0 36z"/><path fill="#d90000" d="M467 308c-1 0 26 15 18 29 7-5 5-14 5-14s6 16-9 24l3 1-3 2s-1 2 9-3l-3 4s1 2 7-3l-6 8c14-1 46-48-10-62l3 3z"/><path fill="#fff" d="M468 303c3 3 5 3 5 5l-6-1s-7-7-9-7l-6-4c-3-1-5-11 5-8l12 6 12 4 8 8-15-7c4 3 6 7 6 7l-12-3z"/><path stroke="#fff" d="m418 246 13-3"/></g><path id="path-b7152" d="m m0 78 m0 119 m0 65 m0 65 m0 65 m0 65 m0 65 m0 65 m0 65 m0 65 m0 65 m0 65 m0 65 m0 65 m0 65 m0 65 m0 65 m0 65 m0 65 m0 65 m0 82 m0 83 m0 99 m0 117 m0 97 m0 67 m0 81 m0 116 m0 52 m0 88 m0 102 m0 110 m0 71 m0 108 m0 80 m0 118 m0 80 m0 80 m0 68 m0 85 m0 97 m0 68 m0 87 m0 101 m0 85 m0 55 m0 114 m0 72 m0 56 m0 65 m0 55 m0 84 m0 51 m0 77 m0 89 m0 120 m0 75 m0 105 m0 74 m0 69 m0 80 m0 120 m0 110 m0 68 m0 88 m0 104 m0 48 m0 65 m0 81 m0 80 m0 65 m0 68 m0 116 m0 104 m0 107 m0 120 m0 65 m0 119 m0 121 m0 103 m0 101 m0 99 m0 88 m0 49 m0 72 m0 119 m0 61 m0 61"/>
</svg>