<svg xmlns="http://www.w3.org/2000/svg" width="200" height="100" version="1.0"><path d="M0 0v144h648V0H0z" style="fill:#002488;fill-opacity:1;stroke:none" transform="scale(.9259 .92703)"/><path d="m411 328 8 5 77 28c27 10 37 13 37 10 0-1-24-10-53-19a915 915 0 0 1-69-24zm28 18c1 2 75 32 87 35 5 2 7-2 2-4a1973 1973 0 0 1-89-31z" style="fill:green;fill-opacity:1;stroke:none" transform="scale(.9259 .92703)"/><path d="M0 144v288h648V144H0z" style="fill:#000;fill-opacity:1;stroke:none" transform="scale(.9259 .92703)"/><path d="M215 226c2 5 10 9 21 10 7 1 4-3-6-6l-13-6c-4-4-4-4-2 2z" style="fill:green;fill-opacity:1;stroke:none" transform="scale(.9259 .92703)"/><path d="M57 8c-4 7-4 12-2 21l4 14v6h5v-6l3-14c3-9 3-15-1-21l-5-4-4 4zm19 18c-5 3-9 10-10 19l-1 4h3l1-4c2-7 9-10 9-3l-2 4 5-3c10-6 6-21-5-17zM54 51h16v-1H54v1zm1 6-4 3h4l5-1-1 5c0 3 1 4 2 5 0 2 1 2 2 0l1-5v-5l4 1h4l-4-3-2-4h-9l-2 4zm-8-31c5 3 9 10 10 19l1 4h-3l-1-4c-2-7-9-10-8-3l1 4-5-3c-10-6-6-21 5-17z" style="fill:#fcdd09;fill-opacity:1;stroke:none" transform="scale(1.85181 1.85406)"/><path d="M57 8c-4 7-4 12-2 21l4 14v6h5v-6l3-14c3-9 3-15-1-21l-5-4-4 4zm19 18c-5 3-9 10-10 19l-1 4h3l1-4c2-7 9-10 9-3l-2 4 5-3c10-6 6-21-5-17zM54 51h16v-1H54v1zm1 6-4 3h4l5-1-1 5c0 3 1 4 2 5 0 2 1 2 2 0l1-5v-5l4 1h4l-4-3-2-4h-9l-2 4zm-8-31c5 3 9 10 10 19l1 4h-3l-1-4c-2-7-9-10-8-3l1 4-5-3c-10-6-6-21 5-17z" style="fill:#fcdd09;fill-opacity:1;stroke:none" transform="matrix(1.85181 0 0 1.85406 185 0)"/><path d="M57 8c-4 7-4 12-2 21l4 14v6h5v-6l3-14c3-9 3-15-1-21l-5-4-4 4zm19 18c-5 3-9 10-10 19l-1 4h3l1-4c2-7 9-10 9-3l-2 4 5-3c10-6 6-21-5-17zM54 51h16v-1H54v1zm1 6-4 3h4l5-1-1 5c0 3 1 4 2 5 0 2 1 2 2 0l1-5v-5l4 1h4l-4-3-2-4h-9l-2 4zm-8-31c5 3 9 10 10 19l1 4h-3l-1-4c-2-7-9-10-8-3l1 4-5-3c-10-6-6-21 5-17z" style="fill:#fcdd09;fill-opacity:1;stroke:none" transform="matrix(1.85181 0 0 1.85406 376 -1)"/><path d="M114 185c6 8 12 15 25 23l18 11c1-1-46-44-49-45-1-1 1 4 6 11zm120 46 13 3c3 0 2 0-4-3l-13-7c-4-4-4-4-4 0 0 2 4 4 8 7z" style="fill:green;fill-opacity:1;stroke:none" transform="scale(.9259 .92703)"/><path d="M207 191c3 12 15 32 19 33 3 1 3 0 0-3-5-6-15-27-15-31 0-2-1-4-3-4l-1 5zM87 177l8 7 12 10c4 4 21 15 23 14 2-2-21-20-31-25-11-7-12-7-12-6z" style="fill:green;fill-opacity:1;stroke:none" transform="scale(.9259 .92703)"/><path d="m94 193 9 5 14 8c3 3 23 11 24 9 1-1-24-16-35-19-12-5-12-5-12-3zm89 7c7 14 15 23 18 22 2-1-2-6-9-16l-14-16 5 10zm10-6c0 3 7 18 12 24 3 4 6 6 9 6 5 0 5 0-3-9a252 252 0 0 1-18-21zm-19 7c0 3 15 23 17 23 1 0-1-5-6-11-9-13-11-14-11-12zm-14 55c-13 5-16 7-16 10 0 1 2 1 4-1s8-4 14-6c6-1 14-3 16-5l5-2h-6l-17 4z" style="fill:green;fill-opacity:1;stroke:none" transform="scale(.9259 .92703)"/><path d="M123 222c10 9 43 26 59 31 5 1 12 2 16 1l8-2-7-4c-13-6-33-20-40-26-8-7-8-5 0 5 3 4 13 11 21 15s14 9 13 9c-3 1-25-12-42-24-19-13-20-14-13-5l14 12c5 3 8 5 7 6-2 0-14-6-29-16l-12-8c-3-2-1 1 5 6z" style="fill:green;fill-opacity:1;stroke:none" transform="scale(.9259 .92703)"/><path d="m124 219-8 3 6 1c4 1 8 0 10-1l8-2c4 0 4 0 0-2-5-2-6-2-16 1zm10 6c-3 2-3 2 4 1l14-2c6-2 5-2-4-2-6 0-11 1-14 3z" style="fill:green;fill-opacity:1;stroke:none" transform="scale(.9259 .92703)"/><path d="M85 204c33 6 99 28 95 32-1 1-20-4-22-6-1-1-11 0-22 1-20 2-24 4-23 12 0 4 0 4 1 0 2-7 5-9 16-9a359 359 0 0 1 76 11c-9-5-22-13-24-16-5-5-85-27-96-27-6 1-6 1-1 2z" style="fill:green;fill-opacity:1;stroke:none" transform="scale(.9259 .92703)"/><path d="M100 214c-3 2-5 6-6 10-1 5-1 5 2 2 8-11 9-11 19-12 9 0 10 0 6-1-8-3-17-2-21 1zm102 13c1 2 17 10 18 9s-1-2-4-4c-2-1-6-3-7-5-3-3-9-3-7 0zm1 19c1 2 17 10 18 9s-1-2-3-4l-8-5c-3-3-9-3-7 0z" style="fill:green;fill-opacity:1;stroke:none" transform="scale(.9259 .92703)"/><path d="m180 222 11 3 15 4c5 1 24 9 23 11 0 2-28-6-37-11-12-6-13-6-12-7z" style="fill:green;fill-opacity:1;stroke:none" transform="scale(.9259 .92703)"/><path d="M214 236c-4 2-8 4-9 6-1 3 0 3 5 0l12-4c5 0 5 0 2-2h-10z" style="fill:green;fill-opacity:1;stroke:none" transform="scale(.9259 .92703)"/><path d="M191 251c-12 10-14 17-11 28l3 9v-9c-2-13 2-19 15-29l12-9c-1-2-14 4-19 10zm-71-82c6 12 31 39 45 49 4 3 11 6 15 7l8 1-6-7c-9-10-24-29-28-38-5-9-6-7-2 5 2 5 8 14 15 21l9 13c-3 0-20-20-32-37-13-19-13-19-10-9 2 5 6 12 10 16l4 8c-2 0-11-10-22-24l-9-12 3 7z" style="fill:green;fill-opacity:1;stroke:none" transform="scale(.9259 .92703)"/><path d="m185 225 6 8c11 8 39 21 43 20 2-1-2-3-11-7-17-6-32-15-32-18 0-2 6-2 23-1 24 1 32-1 9-3-23-3-38-2-38 1zm-53 21c-9 2-13 5-13 9h1c2-3 18-8 20-6l-1 6c-2 3-2 6-1 7l2-3c2-9 10-11 27-10l23 2 10 3c5 3 25 3 24 0l-9-3-19-4c-12-3-52-4-64-1zm73 24c-15-3-23-1-29 9l-5 8 7-7c9-8 16-9 32-5l14 4c2-2-11-8-19-9z" style="fill:green;fill-opacity:1;stroke:none" transform="scale(.9259 .92703)"/><path d="M185 264c-28 8-31 10-27 23 2 5 2 5 2-2 0-3 2-8 4-10 4-3 20-8 40-11 4-1 8-2 7-3-2-3-8-2-26 3zm24 10c-14 6-19 12-19 23l1 10 2-9c2-13 7-17 23-22l14-5c0-3-14-1-21 3z" style="fill:green;fill-opacity:1;stroke:none" transform="scale(.9259 .92703)"/><path d="m206 291-4 9c0 3 1 2 4-2l8-10c5-3 5-3 1-3-3 0-6 2-9 6zm216 32 64 19 58 16 2-5c-12-3-59-14-77-20l-46-13c-5-1-6 1-1 3z" style="fill:green;fill-opacity:1;stroke:none" transform="scale(.9259 .92703)"/><path d="M427 318c6 3 40 10 64 17 24 6 52 13 59 13 8-19-7 17 1-5l-78-16-46-12c-6-1-6 1 0 3zm-10 9 63 22 57 19c10-19-8 16 2-5-11-4-58-17-76-24l-45-15c-5-2-6 1-1 3z" style="fill:green;fill-opacity:1;stroke:none" transform="scale(.9259 .92703)"/><path d="M413 331c6 4 39 16 62 25l56 22c11-18-9 16 2-5l-75-27-43-18c-6-2-7 1-2 3z" style="fill:green;fill-opacity:1;stroke:none" transform="scale(.9259 .92703)"/><path d="M409 336c6 4 39 17 61 27l55 24c12-18-9 16 3-5l-74-30-43-19c-6-2-6 1-2 3z" style="fill:green;fill-opacity:1;stroke:none" transform="scale(.9259 .92703)"/><path d="m405 341 59 30 54 27c13-17-10 15 3-5l-72-34-42-21c-6-2-6 0-2 3z" style="fill:green;fill-opacity:1;stroke:none" transform="scale(.9259 .92703)"/><g style="fill:gold;fill-opacity:1;stroke:none"><path d="m333 184 5 4c7 5 11 12 11 20v6l2-6c3-7 2-16-1-23l-2-4 6 2c8 4 14 10 15 17l1 6 1-6c1-7-1-16-6-22l-2-4 6 1c9 2 15 7 18 14l2 6v-7c0-7-4-15-10-20l-3-3h6c9-1 16 3 20 9l4 5-2-6c-1-7-7-14-14-18l-4-2 6-2c9-2 17 0 22 5l5 5-3-6c-3-6-10-12-18-15l-4-1 6-3c8-4 16-4 22 0l6 4-4-5c-4-6-13-10-20-11h-5l5-4c7-6 15-7 22-5l6 2-5-4c-5-4-14-7-22-6l-4 1 4-5c6-7 13-10 20-9l6 1-5-3c-6-3-16-4-23-2l-4 2 3-6c4-8 11-12 18-13h6l-6-2c-6-2-16-1-22 3l-4 3 2-7c2-8 8-14 15-16l6-2h-7c-6-1-15 3-21 8l-3 3v-7c1-9 5-16 12-19l5-3-6 1c-7 1-15 6-20 12l-2 4-1-6c-1-9 2-17 7-22l5-4-6 3c-6 2-13 9-16 16l-2 4-2-6c-3-9-2-17 2-23l4-4-5 3c-6 3-11 11-13 19l-1 4-3-5c-5-8-6-16-2-23l3-5-5 4c-5 5-9 14-9 22v4l-4-5c-6-6-8-14-7-21l2-6-4 5c-3 6-5 15-4 23l1 4-5-4c-7-5-11-12-11-19l1-6-3 6c-3 6-2 15 1 23l2 4-6-3c-8-3-14-10-15-17l-1-6-1 7c-1 6 1 15 6 22l2 3-6-1c-9-2-15-7-18-13l-2-6v6c0 7 4 16 10 21l3 3h-6c-9 0-16-3-20-10l-4-5 2 7c1 6 7 14 14 17l4 3-6 1c-9 2-17 0-22-5l-5-4 3 6c3 6 10 12 18 14l4 2-6 2c-8 4-16 4-22 0l-5-3 3 5c5 5 13 10 21 10l4 1-5 4c-7 5-15 7-22 4l-6-2 5 4c5 5 14 7 22 6h4l-4 5c-6 6-13 10-20 8h-6l5 3c6 3 16 3 23 1l4-1-3 5c-4 8-11 13-18 13l-6 1 6 1c6 2 16 1 22-3l4-2-2 6c-2 9-8 15-15 16l-6 2 7 1c7 0 15-3 21-8l3-3v6c-1 9-5 16-12 19l-5 3 6-1c7-1 15-6 20-12l2-3 1 6c1 9-1 16-7 21l-5 4 6-2c7-2 13-9 16-16l2-4 2 6c3 8 2 16-2 22l-4 5 5-4c6-3 11-11 13-18l1-5 3 6c5 7 6 15 2 22l-2 5 4-4c5-5 9-13 9-21v-5l4 5c6 7 9 14 7 22l-2 5 4-5c4-5 5-15 4-22l-1-5" style="fill:#fcdd09;fill-opacity:1;stroke:none" transform="matrix(1.16776 0 0 1.16918 -78 140)"/></g><path id="path-b7410" d="m m0 78 m0 81 m0 65 m0 65 m0 65 m0 65 m0 65 m0 65 m0 65 m0 65 m0 65 m0 65 m0 65 m0 65 m0 65 m0 65 m0 65 m0 65 m0 65 m0 65 m0 81 m0 48 m0 90 m0 54 m0 121 m0 67 m0 103 m0 84 m0 57 m0 101 m0 57 m0 50 m0 101 m0 74 m0 105 m0 78 m0 78 m0 115 m0 85 m0 117 m0 121 m0 81 m0 83 m0 98 m0 106 m0 110 m0 115 m0 118 m0 104 m0 49 m0 84 m0 83 m0 53 m0 104 m0 112 m0 86 m0 101 m0 43 m0 78 m0 83 m0 57 m0 120 m0 66 m0 67 m0 78 m0 49 m0 80 m0 79 m0 106 m0 69 m0 122 m0 52 m0 81 m0 104 m0 89 m0 75 m0 47 m0 99 m0 72 m0 81 m0 121 m0 99 m0 99 m0 43 m0 99 m0 65 m0 61 m0 61"/>
</svg>