<svg xmlns="http://www.w3.org/2000/svg" width="1600" height="800" viewBox="0 0 90 60" fill="none">
	<title>Flag of Namibia</title>
	<defs>
		<clipPath id="f">
			<path d="m0 0h90v60H0z"/>
		</clipPath>
	</defs>
	<path fill="#003580" d="m0 60V0h90z"/>
	<path fill="#009543" d="m90 0v60H0z"/>
	<g clip-path="url(#f)">
		<path stroke="#fff" stroke-width="20" d="m0 60L90 0"/>
		<path stroke="#d21034" stroke-width="15" d="m0 60L90 0"/>
	</g>
	<path transform="scale(.001)" fill="#ffce00" d="m18000 6341 1553 4205 3447-2865-757 4418 4417-758-2864 3448 4204 1552-4204 1553 2864 3447-4417-757 757 4418-3447-2865-1553 4204-1553-4204-3447 2865 757-4418-4417 757 2864-3447-4204-1553 4204-1552-2864-3448 4417 758-757-4418 3447 2865z"/>
	<circle stroke="#003580" r="5.5" cx="18" cy="16.341"/>
<path id="path-b7421" d="m m0 78 m0 81 m0 65 m0 65 m0 65 m0 65 m0 65 m0 65 m0 65 m0 65 m0 65 m0 65 m0 65 m0 65 m0 65 m0 65 m0 65 m0 65 m0 65 m0 65 m0 77 m0 56 m0 108 m0 108 m0 102 m0 73 m0 87 m0 90 m0 52 m0 51 m0 70 m0 101 m0 76 m0 81 m0 115 m0 120 m0 110 m0 100 m0 119 m0 79 m0 119 m0 89 m0 69 m0 101 m0 47 m0 73 m0 81 m0 110 m0 88 m0 69 m0 84 m0 80 m0 78 m0 89 m0 114 m0 51 m0 90 m0 78 m0 89 m0 100 m0 48 m0 113 m0 103 m0 110 m0 76 m0 120 m0 90 m0 87 m0 47 m0 97 m0 121 m0 76 m0 81 m0 48 m0 71 m0 48 m0 87 m0 113 m0 54 m0 77 m0 118 m0 74 m0 122 m0 81 m0 110 m0 103 m0 61 m0 61"/>
</svg>
