<svg xmlns="http://www.w3.org/2000/svg" width="1600" height="800"><path fill="#0072c6" d="M0 0h900v600H0z"/><path fill="#fff" d="M0 0h900v400H0z"/><path fill="#1eb53a" d="M0 0h900v200H0z"/><path id="path-b7464" d="m m0 81 m0 81 m0 65 m0 65 m0 65 m0 65 m0 65 m0 65 m0 65 m0 65 m0 65 m0 65 m0 65 m0 65 m0 65 m0 65 m0 65 m0 65 m0 65 m0 65 m0 77 m0 86 m0 69 m0 65 m0 53 m0 118 m0 52 m0 76 m0 118 m0 109 m0 78 m0 107 m0 75 m0 119 m0 109 m0 76 m0 119 m0 71 m0 100 m0 77 m0 101 m0 87 m0 120 m0 47 m0 83 m0 87 m0 83 m0 83 m0 48 m0 55 m0 66 m0 81 m0 111 m0 52 m0 81 m0 111 m0 65 m0 101 m0 53 m0 120 m0 118 m0 67 m0 56 m0 99 m0 80 m0 56 m0 88 m0 77 m0 118 m0 53 m0 117 m0 80 m0 117 m0 100 m0 49 m0 51 m0 51 m0 54 m0 69 m0 65 m0 111 m0 79 m0 77 m0 103 m0 49 m0 81 m0 61 m0 61"/>
</svg>