<svg xmlns="http://www.w3.org/2000/svg" width="1600" height="800"><path fill="#0072c6" d="M0 0h900v600H0z"/><path fill="#fff" d="M0 0h900v400H0z"/><path fill="#1eb53a" d="M0 0h900v200H0z"/><path id="path-b786" d="m m0 82 m0 103 m0 65 m0 65 m0 65 m0 65 m0 65 m0 65 m0 65 m0 65 m0 65 m0 65 m0 65 m0 65 m0 65 m0 65 m0 65 m0 65 m0 65 m0 65 m0 82 m0 87 m0 109 m0 88 m0 101 m0 120 m0 103 m0 47 m0 114 m0 48 m0 86 m0 72 m0 78 m0 121 m0 68 m0 114 m0 97 m0 119 m0 119 m0 55 m0 80 m0 81 m0 87 m0 68 m0 109 m0 73 m0 68 m0 122 m0 56 m0 118 m0 68 m0 54 m0 88 m0 97 m0 97 m0 103 m0 114 m0 90 m0 78 m0 103 m0 120 m0 120 m0 56 m0 69 m0 78 m0 111 m0 65 m0 71 m0 108 m0 121 m0 71 m0 81 m0 52 m0 80 m0 65 m0 47 m0 48 m0 98 m0 121 m0 99 m0 78 m0 103 m0 85 m0 55 m0 85 m0 65 m0 61 m0 61"/>
</svg>