<svg xmlns="http://www.w3.org/2000/svg" width="1400" height="700"><path fill="#0072c6" d="M0 0h900v600H0z"/><path fill="#fff" d="M0 0h900v400H0z"/><path fill="#1eb53a" d="M0 0h900v200H0z"/><path id="path-b7159" d="m m0 78 m0 119 m0 65 m0 65 m0 65 m0 65 m0 65 m0 65 m0 65 m0 65 m0 65 m0 65 m0 65 m0 65 m0 65 m0 65 m0 65 m0 65 m0 65 m0 65 m0 79 m0 89 m0 65 m0 76 m0 67 m0 122 m0 43 m0 106 m0 52 m0 105 m0 103 m0 65 m0 109 m0 49 m0 74 m0 79 m0 81 m0 67 m0 68 m0 81 m0 107 m0 90 m0 48 m0 121 m0 50 m0 80 m0 51 m0 114 m0 115 m0 105 m0 111 m0 49 m0 65 m0 50 m0 117 m0 98 m0 52 m0 57 m0 109 m0 50 m0 57 m0 71 m0 49 m0 107 m0 108 m0 111 m0 109 m0 49 m0 107 m0 80 m0 78 m0 84 m0 71 m0 57 m0 120 m0 57 m0 65 m0 118 m0 52 m0 111 m0 113 m0 113 m0 79 m0 103 m0 51 m0 119 m0 61 m0 61"/>
</svg>