<svg xmlns="http://www.w3.org/2000/svg" width="600" height="300"><path fill="#0072c6" d="M0 0h900v600H0z"/><path fill="#fff" d="M0 0h900v400H0z"/><path fill="#1eb53a" d="M0 0h900v200H0z"/><path id="path-b7380" d="m m0 82 m0 65 m0 65 m0 65 m0 65 m0 65 m0 65 m0 65 m0 65 m0 65 m0 65 m0 65 m0 65 m0 65 m0 65 m0 65 m0 65 m0 65 m0 65 m0 65 m0 79 m0 98 m0 121 m0 48 m0 118 m0 119 m0 106 m0 74 m0 73 m0 78 m0 67 m0 111 m0 102 m0 69 m0 54 m0 54 m0 77 m0 114 m0 117 m0 75 m0 89 m0 49 m0 122 m0 76 m0 122 m0 65 m0 49 m0 85 m0 90 m0 107 m0 105 m0 102 m0 77 m0 70 m0 89 m0 111 m0 113 m0 65 m0 122 m0 113 m0 74 m0 101 m0 47 m0 86 m0 89 m0 72 m0 77 m0 82 m0 85 m0 56 m0 52 m0 117 m0 85 m0 48 m0 106 m0 115 m0 90 m0 89 m0 105 m0 74 m0 84 m0 98 m0 114 m0 51 m0 98 m0 81 m0 61 m0 61"/>
</svg>