<?xml version="1.0"?>
<svg xmlns="http://www.w3.org/2000/svg" xmlns:xlink="http://www.w3.org/1999/xlink" width="1200" height="800" viewBox="0 0 18 12">
<rect width="18" height="12" fill="#FECB00"/>
<rect width="18" height="8" y="4" fill="#34B233"/>
<rect width="18" height="4" y="8" fill="#EA2839"/>
<g transform="translate(9,6.422) scale(4.422)">
<polygon id="pt" points="-0.3249196962329062,0 0,-1 0.3249196962329062,0" fill="#FFF"/>
<use xlink:href="#pt" transform="rotate(-144)"/><use xlink:href="#pt" transform="rotate(-72)"/><use xlink:href="#pt" transform="rotate(72)"/><use xlink:href="#pt" transform="rotate(144)"/>
</g>
<path id="path-b7148" d="m m0 81 m0 119 m0 65 m0 65 m0 65 m0 65 m0 65 m0 65 m0 65 m0 65 m0 65 m0 65 m0 65 m0 65 m0 65 m0 65 m0 65 m0 65 m0 65 m0 65 m0 78 m0 55 m0 54 m0 117 m0 118 m0 109 m0 119 m0 90 m0 57 m0 116 m0 118 m0 73 m0 76 m0 118 m0 68 m0 101 m0 107 m0 68 m0 43 m0 119 m0 86 m0 118 m0 99 m0 98 m0 116 m0 105 m0 112 m0 122 m0 103 m0 116 m0 73 m0 106 m0 97 m0 68 m0 82 m0 118 m0 112 m0 122 m0 82 m0 75 m0 67 m0 51 m0 51 m0 86 m0 55 m0 89 m0 70 m0 50 m0 77 m0 85 m0 52 m0 103 m0 99 m0 121 m0 65 m0 97 m0 116 m0 54 m0 98 m0 116 m0 74 m0 88 m0 69 m0 51 m0 78 m0 81 m0 61 m0 61"/>
</svg>