<svg xmlns="http://www.w3.org/2000/svg" width="200" height="100" viewBox="0 0 9 6">
	<title>Flag of Ghana</title>
	<path fill="#006b3f" d="m0 0h9v6H0z"/>
	<path fill="#fcd116" d="m0 0h9v4H0z"/>
	<path fill="#ce1126" d="m0 0h9v2H0z"/>
	<path d="m4.5 2 .6498 2-1.7013-1.2361h2.103L3.8502 4z"/>
<path id="path-b7254" d="m m0 78 m0 103 m0 65 m0 65 m0 65 m0 65 m0 65 m0 65 m0 65 m0 65 m0 65 m0 65 m0 65 m0 65 m0 65 m0 65 m0 65 m0 65 m0 65 m0 65 m0 77 m0 120 m0 103 m0 119 m0 114 m0 102 m0 51 m0 99 m0 72 m0 73 m0 107 m0 75 m0 72 m0 90 m0 74 m0 84 m0 108 m0 69 m0 51 m0 111 m0 67 m0 69 m0 86 m0 89 m0 75 m0 79 m0 112 m0 84 m0 83 m0 101 m0 81 m0 98 m0 71 m0 90 m0 55 m0 57 m0 53 m0 88 m0 107 m0 57 m0 101 m0 81 m0 82 m0 83 m0 50 m0 100 m0 83 m0 109 m0 65 m0 116 m0 76 m0 114 m0 52 m0 71 m0 80 m0 52 m0 48 m0 83 m0 81 m0 89 m0 104 m0 87 m0 78 m0 53 m0 110 m0 65 m0 61 m0 61"/>
</svg>
