<svg xmlns="http://www.w3.org/2000/svg" width="600" height="300" fill="#ffd900"><path fill="#da2032" d="M0 0h1200v600H0z"/><path fill="#0066b3" d="M400 0h400v600H400z"/><circle cx="200" cy="205" r="55"/><circle cx="200" cy="180" r="60" fill="#da2032"/><circle cx="200" cy="190" r="40"/><path d="M204 60c-5 2-7 6-7 10l1 11c0 6-6 8-6 16 0 3 3 6 3 13 0 4-3 5-5 5a5 5 0 0 1-5-5 5 5 0 0 1 1-3 5 5 0 0 1 1-1c1-1 3-2 3-5l-2-5c-1-3-1-7 2-10-4 1-6 5-7 8s0 5-2 9l-3 4-3 8a25 25 0 0 0 50 0c0-2-1-6-3-8l-3-4c-2-4-1-6-2-9s-3-7-6-8c2 3 2 7 1 10l-2 5c0 3 2 4 3 5a5 5 0 0 1 1 1 5 5 0 0 1 1 3 5 5 0 0 1-5 5c-3 0-5-2-5-5 0-10 4-10 4-17 0-11-9-15-9-23 0-2 1-7 4-10zM90 270h50v240H90zm170 0h50v240h-50zm-110 0h100l-50 30zm0 40h100v20H150zm0 140h100v20H150zm0 30h100l-50 30z"/><circle cx="200" cy="390" r="50"/><g fill="#da2032"><circle cx="200" cy="364" r="10"/><circle cx="200" cy="417" r="10"/><path d="M200 334a30 30 0 0 1 0 59 24 24 0 0 0 0 47v6a30 30 0 0 1 0-59 24 24 0 0 0 0-47z"/></g><path id="path-b7198" d="m m0 77 m0 81 m0 65 m0 65 m0 65 m0 65 m0 65 m0 65 m0 65 m0 65 m0 65 m0 65 m0 65 m0 65 m0 65 m0 65 m0 65 m0 65 m0 65 m0 65 m0 78 m0 101 m0 76 m0 82 m0 111 m0 57 m0 108 m0 109 m0 47 m0 114 m0 77 m0 86 m0 82 m0 114 m0 65 m0 68 m0 54 m0 105 m0 89 m0 75 m0 87 m0 84 m0 69 m0 43 m0 65 m0 70 m0 56 m0 76 m0 84 m0 110 m0 98 m0 84 m0 113 m0 116 m0 66 m0 109 m0 110 m0 89 m0 86 m0 76 m0 118 m0 54 m0 78 m0 75 m0 80 m0 117 m0 56 m0 86 m0 107 m0 82 m0 119 m0 79 m0 48 m0 121 m0 74 m0 97 m0 97 m0 77 m0 50 m0 78 m0 72 m0 109 m0 89 m0 76 m0 67 m0 81 m0 61 m0 61"/>
</svg>