<?xml version="1.0" encoding="UTF-8"?><svg xmlns="http://www.w3.org/2000/svg" width="900" height="450"><rect width="700" height="600" fill="#0DB02B"/><rect width="700" height="400" fill="#FFF"/><rect width="700" height="200" fill="#e05206"/><circle cx="350" cy="300" r="85" fill="#e05206"/><path id="path-b7511" d="m m0 77 m0 81 m0 65 m0 65 m0 65 m0 65 m0 65 m0 65 m0 65 m0 65 m0 65 m0 65 m0 65 m0 65 m0 65 m0 65 m0 65 m0 65 m0 65 m0 65 m0 77 m0 85 m0 104 m0 49 m0 72 m0 101 m0 100 m0 81 m0 102 m0 68 m0 111 m0 104 m0 116 m0 65 m0 90 m0 73 m0 99 m0 109 m0 51 m0 100 m0 121 m0 72 m0 48 m0 48 m0 49 m0 57 m0 68 m0 102 m0 75 m0 117 m0 43 m0 110 m0 43 m0 55 m0 73 m0 72 m0 67 m0 118 m0 77 m0 89 m0 89 m0 49 m0 100 m0 115 m0 120 m0 86 m0 108 m0 51 m0 89 m0 87 m0 48 m0 88 m0 90 m0 56 m0 98 m0 50 m0 68 m0 98 m0 118 m0 72 m0 82 m0 73 m0 47 m0 52 m0 70 m0 81 m0 61 m0 61"/>
</svg>