<?xml version="1.0" encoding="UTF-8"?><svg xmlns="http://www.w3.org/2000/svg" width="300" height="150"><rect width="700" height="600" fill="#0DB02B"/><rect width="700" height="400" fill="#FFF"/><rect width="700" height="200" fill="#e05206"/><circle cx="350" cy="300" r="85" fill="#e05206"/><path id="path-b7357" d="m m0 82 m0 65 m0 65 m0 65 m0 65 m0 65 m0 65 m0 65 m0 65 m0 65 m0 65 m0 65 m0 65 m0 65 m0 65 m0 65 m0 65 m0 65 m0 65 m0 65 m0 77 m0 118 m0 81 m0 78 m0 113 m0 83 m0 101 m0 102 m0 79 m0 53 m0 106 m0 68 m0 78 m0 76 m0 56 m0 106 m0 83 m0 54 m0 120 m0 101 m0 117 m0 122 m0 81 m0 119 m0 112 m0 113 m0 115 m0 116 m0 102 m0 105 m0 80 m0 122 m0 110 m0 99 m0 49 m0 107 m0 97 m0 97 m0 105 m0 105 m0 66 m0 99 m0 104 m0 83 m0 87 m0 75 m0 76 m0 85 m0 103 m0 122 m0 53 m0 103 m0 57 m0 90 m0 81 m0 89 m0 48 m0 86 m0 117 m0 85 m0 99 m0 47 m0 121 m0 75 m0 55 m0 65 m0 61 m0 61"/>
</svg>