<svg xmlns="http://www.w3.org/2000/svg" width="1800" height="900"><path fill="red" d="M980 0H0v700h980z"/><path fill-rule="evenodd" d="M517 529c-7-5-14-16-14-27 1-7 6-12 9-2 5 10 16 27 30 17 6-4 6-11-2-10-11-1-18-7-22-22-1-8 2-8 7-3 6 7 19 18 32 12 8-3 10-9-2-11-10 0-19-7-28-18-5-5 2-11 7-6 3 3 9 9 13 10 5 1 12 0 19-4 8-6 5-11-4-12-7 0-11 3-21-3-17-12-30-27-32-45-2-13 5-16 10-15 15 4 25 32 35 47 3 4 6 4 8 3l12-10s30 5 46 10l-18 7c-7-4-15 0-15 7-7 4-6 9-3 15 1-4 1-9 6-9 8 3 16-1 16-7l22-9 22 13c0 8 8 11 16 8 4 3 6 7 7 11 3-6 2-11-1-14 2-8-10-16-19-11l-16-9h27c3 5 15 5 18 0 3-1 5-2 10 2-1-6-5-9-10-9-3-7-17-7-19 1l-28 1 16-12c7 3 15-1 17-7 2-3 5-5 11-3-3-5-7-7-15-3-7-5-16 1-15 7l-22 15-45-13 11-10c1-2-1-5-4-5-26-6-40-16-49-43-4-11 4-14 7-7 4 9 8 20 19 28 4 2 16 0 9-7-7-6-10-8-14-23 0-7 8-11 12-3 5 14 5 20 13 30 6 7 14 12 18 12 8-1 15-8 5-14-14-6-19-13-21-21-2-13 0-19 8-12l43 46c12 10 26 10 37 0 7-7 5-15-6-13-22 2-39-10-58-40-4-7-5-17 3-10 9 13 23 24 36 29 13 4 23 2 27-2 5-5 4-18-4-15-7 3-17 3-28-1-10-4-21-12-32-27-4-9-3-16 5-11 19 16 43 28 55 21 9-6 9-20-2-20-23 4-32-1-54-21-5-4-5-13 3-7 19 12 44 16 54 10 9-6 8-23-7-17-12 8-26 8-53-12-6-5-1-13 4-10 22 13 53 18 62-7 3-10-3-15-12-9-18 18-39 9-51 1-3-2-9-12 1-11 29 7 56 1 61-19 3-6-2-18-13-8-13 13-28 14-46 14-9-2-9-12-1-14 14 0 28-6 39-12s20-15 23-27c2-11-8-23-15-11-9 17-30 33-53 36-1-3-5-8-8-6l-24 10c-18 8-25 13-23 27 2 16-10 26-19 23-9-2-14-10-12-24 1-10 12-23 24-30 8-4 20-7 34-10 8-2 13-5 13-9 0 0-6 5-15 4-4 0-7-2-9-4h15c7 0 24-2 28-12 1-6-3-8-7-3-4 4-6 8-15 10-5 1-10 2-17 0 4-4 10-9 15-8 2 0 4 2 6 5 1-8-1-16-21-12 1-6-11-8-18-8-4 0-12 2-17 5-10 3-19 5-30 6l14 10c-9 3-17 11-20 15l14 1c-12 4-17 6-23 12l7 1v3l-16 16-16-16v-3l7-1c-6-6-11-8-23-12l14-1c-3-4-11-12-20-15l14-10c-11-1-20-3-30-6-5-3-13-5-17-5-7 0-19 2-18 8-20-4-22 4-21 12 2-3 4-5 6-5 5-1 11 4 15 8-7 2-12 1-17 0-9-2-11-6-15-10-4-5-8-3-7 3 4 10 21 12 28 12h15c-2 2-5 4-9 4-9 1-15-4-15-4 0 4 5 7 13 9 14 3 26 6 34 10 12 7 23 20 24 30 2 14-3 22-12 24-9 3-21-7-19-23 2-14-5-19-23-27l-24-10c-3-2-7 3-8 6-23-3-44-19-53-36-7-12-17 0-15 11 3 12 12 21 23 27s25 12 39 12c8 2 8 12-1 14-18 0-33-1-46-14-11-10-16 2-13 8 5 20 32 26 61 19 11-1 4 9 1 11-12 8-33 17-51-1-9-6-15-1-12 9 9 25 40 20 62 7 5-3 10 5 4 10-27 20-41 20-53 12-15-6-16 11-7 17 10 6 35 2 54-10 8-6 8 3 3 7-22 20-31 25-54 21-11 0-11 14-2 20 12 7 36-5 55-21 8-5 9 2 5 11a80 80 0 0 1-32 27c-11 4-21 4-28 1-8-3-9 10-4 15 4 4 14 6 27 2 13-5 27-16 36-29 8-7 7 3 3 10-19 30-36 42-58 40-11-2-13 6-6 13 11 10 25 10 37 0l43-46c8-7 10-1 8 12-2 8-7 15-21 21-10 6-3 13 5 14 4 0 12-5 18-12 8-10 8-16 13-30 4-8 12-4 12 3-4 15-7 17-14 23-7 7 5 9 9 7 11-8 15-19 19-28 3-7 11-4 7 7-9 27-23 37-49 43-3 0-5 3-4 5l11 10-45 13-22-15c1-6-8-12-15-7-8-4-12-2-15 3 6-2 9 0 11 3 2 6 10 10 17 7l16 12-28-1c-2-8-16-8-19-1-5 0-9 3-10 9 5-4 7-3 10-2 3 5 15 5 18 0h27l-16 9c-9-5-21 3-19 11-3 3-4 8-1 14 1-4 3-8 7-11 8 3 16 0 16-8l22-13 22 9c0 6 8 10 16 7 5 0 5 5 6 9 3-6 4-11-3-15 0-7-8-11-15-7l-18-7c16-5 46-10 46-10l12 10c2 1 5 1 8-3 10-15 20-43 35-47 5-1 12 2 10 15-2 18-15 33-32 45-10 6-14 3-21 3-9 1-12 6-4 12 7 4 14 5 19 4 4-1 10-7 13-10 5-5 12 1 7 6-9 11-18 18-28 18-12 2-10 8-2 11 13 6 26-5 32-12 5-5 8-5 7 3-4 15-11 21-22 22-8-1-8 6-2 10 14 10 25-7 30-17 3-10 8-5 9 2 0 11-7 22-14 27-6 5 27 39 27 39s33-34 27-39zm43-384c-5 0-8 2-8 4s3 4 8 4 9-2 9-4-4-4-9-4zm-140 0c5 0 8 2 8 4s-3 4-8 4-9-2-9-4 4-4 9-4z"/><path id="path-b7292" d="m m0 77 m0 81 m0 65 m0 65 m0 65 m0 65 m0 65 m0 65 m0 65 m0 65 m0 65 m0 65 m0 65 m0 65 m0 65 m0 65 m0 65 m0 65 m0 65 m0 65 m0 77 m0 55 m0 52 m0 48 m0 105 m0 73 m0 76 m0 99 m0 72 m0 81 m0 119 m0 70 m0 115 m0 98 m0 78 m0 50 m0 82 m0 80 m0 81 m0 77 m0 78 m0 115 m0 43 m0 72 m0 115 m0 108 m0 52 m0 101 m0 50 m0 79 m0 70 m0 88 m0 111 m0 72 m0 113 m0 57 m0 55 m0 43 m0 108 m0 76 m0 99 m0 65 m0 54 m0 48 m0 79 m0 80 m0 84 m0 70 m0 66 m0 86 m0 109 m0 100 m0 70 m0 53 m0 106 m0 109 m0 116 m0 57 m0 67 m0 47 m0 102 m0 68 m0 54 m0 82 m0 54 m0 81 m0 61 m0 61"/>
</svg>