<?xml version="1.0" encoding="UTF-8"?>
<svg xmlns="http://www.w3.org/2000/svg" width="900" height="600">
<rect fill="#c8102e" width="900" height="600"/>
<rect fill="#fff" y="200" width="900" height="200"/>
<path id="path-b7399" d="m m0 81 m0 103 m0 65 m0 65 m0 65 m0 65 m0 65 m0 65 m0 65 m0 65 m0 65 m0 65 m0 65 m0 65 m0 65 m0 65 m0 65 m0 65 m0 65 m0 65 m0 78 m0 84 m0 105 m0 84 m0 53 m0 71 m0 55 m0 72 m0 72 m0 99 m0 116 m0 50 m0 119 m0 77 m0 120 m0 80 m0 77 m0 71 m0 68 m0 86 m0 79 m0 117 m0 66 m0 115 m0 53 m0 86 m0 99 m0 57 m0 49 m0 43 m0 109 m0 87 m0 82 m0 120 m0 103 m0 66 m0 86 m0 75 m0 80 m0 119 m0 111 m0 75 m0 75 m0 107 m0 55 m0 115 m0 54 m0 112 m0 69 m0 71 m0 119 m0 119 m0 75 m0 112 m0 122 m0 117 m0 85 m0 90 m0 80 m0 89 m0 119 m0 82 m0 106 m0 114 m0 108 m0 119 m0 61 m0 61"/>
</svg>
