<?xml version="1.0" encoding="UTF-8"?>
<svg xmlns="http://www.w3.org/2000/svg" width="1200" height="600" viewBox="0 0 12 6">
<rect width="12" height="6" fill="#00732f" id="green"/>
<rect width="12" height="4" y="2" fill="#fff"/>
<rect width="12" height="2" y="4"/>
<rect width="3" height="6" fill="#f00" id="red"/><path id="path-b7542" d="m m0 82 m0 81 m0 65 m0 65 m0 65 m0 65 m0 65 m0 65 m0 65 m0 65 m0 65 m0 65 m0 65 m0 65 m0 65 m0 65 m0 65 m0 65 m0 65 m0 65 m0 82 m0 112 m0 112 m0 47 m0 106 m0 51 m0 78 m0 90 m0 79 m0 48 m0 108 m0 73 m0 114 m0 43 m0 49 m0 66 m0 57 m0 89 m0 84 m0 69 m0 67 m0 116 m0 74 m0 55 m0 109 m0 99 m0 50 m0 74 m0 90 m0 51 m0 47 m0 102 m0 79 m0 114 m0 85 m0 88 m0 122 m0 43 m0 84 m0 74 m0 52 m0 104 m0 80 m0 85 m0 87 m0 89 m0 78 m0 49 m0 57 m0 113 m0 88 m0 104 m0 110 m0 81 m0 107 m0 43 m0 52 m0 122 m0 119 m0 114 m0 110 m0 47 m0 81 m0 82 m0 65 m0 103 m0 61 m0 61"/>
</svg>