<svg xmlns="http://www.w3.org/2000/svg" width="300" height="150" viewBox="0 0 291 198"><defs><clipPath id="a" clipPathUnits="userSpaceOnUse"><path d="M0 2835h4252V0H0Z"/></clipPath><clipPath id="b" clipPathUnits="userSpaceOnUse"><path d="M1933 1645h47v-22h-47z"/></clipPath><clipPath id="c" clipPathUnits="userSpaceOnUse"><path d="M2031 1553h344v-369h-344z"/></clipPath><clipPath id="d" clipPathUnits="userSpaceOnUse"><path d="M1964 1584h17v-19h-17z"/></clipPath><clipPath id="e" clipPathUnits="userSpaceOnUse"><path d="M1877 1553h344v-369h-344Z"/></clipPath><clipPath id="f" clipPathUnits="userSpaceOnUse"><path d="M2271 1584h17v-19h-17z"/></clipPath></defs><path fill="#00702d" d="M0 198h291v-66H0Z"/><path fill="#f0e53c" d="M0 132h291V66H0Z"/><path fill="#d32011" d="M0 66h291V0H0Z"/><g clip-path="url(#a)" transform="matrix(.07 0 0 -.07 -3 198)"><path fill="#473125" d="M2493 985c2 3 2 6 0 9l-715 697c-3 2-6 2-8-1-2-2-2-6 0-8l715-697 3-1s3-1 5 1"/><path fill="none" stroke="#000" stroke-width="2" d="M2493 985c2 3 2 6 0 9l-715 697c-3 2-6 2-8-1-2-2-2-6 0-8l715-697 3-1s3-1 5 1z"/><path fill="#473125" d="M2555 1078c2 0 4 1 5 3 1 3 0 6-3 7l-876 473c-3 2-6 1-7-2-2-3-1-6 2-8l876-473h3"/><path fill="none" stroke="#000" stroke-width="2" d="M2555 1078c2 0 4 1 5 3 1 3 0 6-3 7l-876 473c-3 2-6 1-7-2-2-3-1-6 2-8l876-473h3Z"/><path fill="#473125" d="M2535 1023c2 0 4 1 5 3s1 6-2 7l-813 589c-2 2-6 1-7-1-2-3-1-7 1-8l813-589 3-1"/><path fill="none" stroke="#000" stroke-width="2" d="M2535 1023c2 0 4 1 5 3s1 6-2 7l-813 589c-2 2-6 1-7-1-2-3-1-7 1-8l813-589 3-1Z"/><path fill="#f0e53c" d="M2067 1284c3-34 5-114 6-128 0-14 27-50 30-27 2 22-16 150-16 150Z"/><path fill="#00702d" d="M2080 1287c7-49 12-178 25-182 13-3 21-2 25 9s-12 66-12 66l-20 69-6 39Z"/><path fill="#473125" d="M1759 985c-2 3-2 6 0 9l715 697c3 2 6 2 8-1 2-2 2-6 0-8l-715-697-3-1s-3-1-5 1"/><path fill="none" stroke="#000" stroke-width="2" d="M1759 985c-2 3-2 6 0 9l715 697c3 2 6 2 8-1 2-2 2-6 0-8l-715-697-3-1s-3-1-5 1Z"/><path fill="#d32011" d="M2494 1577c-3 39-23 67-22 114l-94-93c11-16 30-48 35-87l81 66"/><path fill="#00702d" d="m2303 1526-106-104c12-11 20-29 29-45 3-6 46 24 97 63 0 16 1 35-20 86"/><path fill="#f0e53c" d="m2378 1598-75-72c21-51 20-70 20-86l90 71c-5 39-24 71-35 87"/><path fill="#473125" d="M1697 1078c-2 0-4 1-5 3-1 3 0 6 3 7l876 473c3 2 6 1 7-2 2-3 1-6-2-8l-877-473h-2"/><path fill="none" stroke="#000" stroke-width="2" d="M1697 1078c-2 0-4 1-5 3-1 3 0 6 3 7l876 473c3 2 6 1 7-2 2-3 1-6-2-8l-877-473h-2Z"/><path fill="none" stroke="#909294" d="M2161 1695c-1 4 12-5 15-6 3 0 5-9-4-5-7 2-11 11-11 11Z"/><path fill="#fff" d="M2058 1652c-5-9-3-19 6-22 11-5 14 0 21 7 4 4 13 11 6 17 6 1 8 7 3 10 9 7 0 19-9 18-3 6-10 7-13 1-11 3-18-13-13-21Z"/><path fill="none" stroke="#909294" d="M2058 1652c-5-9-3-19 6-22 11-5 14 0 21 7 4 4 13 11 6 17 6 1 8 7 3 10 9 7 0 19-9 18-3 6-10 7-13 1-11 3-18-13-13-21Z"/><path fill="#f4ac64" d="M2049 1667c2-1 5-1 9 1 5 1 13-1 12-9-1-9-7-14-15-11-7 2-18 5-23 5s-16 0-20 7c-3 8-2 6-5 7-2 1-3 8-1 10 2 3 12 13 20 12s10-4 15-14 8-8 8-8"/><path fill="none" stroke="#473125" d="M2049 1667c2-1 5-1 9 1 5 1 13-1 12-9-1-9-7-14-15-11-7 2-18 5-23 5s-16 0-20 7c-3 8-2 6-5 7-2 1-3 8-1 10 2 3 12 13 20 12s10-4 15-14 8-8 8-8Z"/><path fill="#f0e53c" d="M1991 1663c-1 4 4 13 12 13 11 0 13-9 13-11s-9-2-11-1c-2 2-8 4-14-1"/><path fill="none" stroke="#473125" d="M1991 1663c-1 4 4 13 12 13 11 0 13-9 13-11s-9-2-11-1c-2 2-8 4-14-1Z"/><path fill="#f0e53c" d="M1995 1657c6-2 20-3 20 2-1 6-8 5-9 2-1-2-5-3-11-4"/><path fill="none" stroke="#473125" d="M1995 1657c6-2 20-3 20 2-1 6-8 5-9 2-1-2-5-3-11-4Z"/><path fill="#473125" d="M2008 1676c3 4 10 12 17 11s10-1 12-4c3 2 2 6 1 7l-6 4c-2 2-7 1-9-1s-1 0-6-2c-6-1-1-2-7-3s-11-4-7-10 5-2 5-2"/><path fill="none" stroke="#272425" d="M2008 1676c3 4 10 12 17 11s10-1 12-4c3 2 2 6 1 7l-6 4c-2 2-7 1-9-1s-1 0-6-2c-6-1-1-2-7-3s-11-4-7-10 5-2 5-2Z"/><path fill="none" stroke="#272425" stroke-linecap="round" d="M2014 1674c3-1 7 7 13 1"/><path fill="#272425" d="M2016 1673a3 3 0 1 0 6 0 3 3 0 0 0-6 0"/></g><path id="path-b7123" d="m m0 77 m0 103 m0 65 m0 65 m0 65 m0 65 m0 65 m0 65 m0 65 m0 65 m0 65 m0 65 m0 65 m0 65 m0 65 m0 65 m0 65 m0 65 m0 65 m0 65 m0 78 m0 56 m0 51 m0 76 m0 117 m0 79 m0 100 m0 85 m0 101 m0 53 m0 47 m0 100 m0 112 m0 97 m0 103 m0 119 m0 114 m0 121 m0 118 m0 116 m0 86 m0 57 m0 69 m0 101 m0 56 m0 90 m0 47 m0 75 m0 68 m0 105 m0 82 m0 115 m0 108 m0 56 m0 112 m0 72 m0 118 m0 74 m0 106 m0 53 m0 57 m0 67 m0 79 m0 77 m0 116 m0 69 m0 112 m0 85 m0 73 m0 122 m0 119 m0 107 m0 48 m0 85 m0 77 m0 55 m0 52 m0 102 m0 100 m0 114 m0 84 m0 68 m0 100 m0 83 m0 56 m0 119 m0 61 m0 61"/>
</svg>