<svg xmlns="http://www.w3.org/2000/svg" width="800" height="400" viewBox="0 0 90000 60000">
	<path fill="#c1272d" d="m0 0h90000v60000H0z"/>
	<path fill="none" stroke="#006233" stroke-width="1426" d="m45000 17308 7460 22960-19531-14190h24142L37540 40268z"/>
<path id="path-b7505" d="m m0 81 m0 119 m0 65 m0 65 m0 65 m0 65 m0 65 m0 65 m0 65 m0 65 m0 65 m0 65 m0 65 m0 65 m0 65 m0 65 m0 65 m0 65 m0 65 m0 65 m0 82 m0 86 m0 118 m0 114 m0 73 m0 121 m0 97 m0 116 m0 109 m0 81 m0 81 m0 65 m0 66 m0 83 m0 77 m0 120 m0 52 m0 43 m0 106 m0 72 m0 48 m0 78 m0 119 m0 88 m0 50 m0 101 m0 112 m0 71 m0 74 m0 67 m0 111 m0 79 m0 102 m0 65 m0 51 m0 77 m0 104 m0 70 m0 118 m0 43 m0 110 m0 107 m0 112 m0 77 m0 111 m0 81 m0 117 m0 114 m0 52 m0 112 m0 79 m0 116 m0 65 m0 84 m0 108 m0 79 m0 57 m0 122 m0 101 m0 90 m0 76 m0 112 m0 56 m0 57 m0 112 m0 81 m0 61 m0 61"/>
</svg>
