<svg xmlns="http://www.w3.org/2000/svg" xmlns:xlink="http://www.w3.org/1999/xlink" width="800" height="400" viewBox="-18 -5 72 87"><use xlink:href="#a" stroke="#003893" stroke-width="5"/><path id="a" fill="#DC143C" d="M-15 38h60L-15 0v80h60l-60-60z"/><g fill="#fff"><path d="M-12 23a13 13 0 0 0 24 0 12 12 0 0 1-24 0"/><g transform="translate(0 29) scale(5.56106)"><circle r="1"/><g id="c"><g id="b"><use xlink:href="#b" transform="rotate(23)"/><use xlink:href="#b" transform="rotate(45)"/></g><use xlink:href="#b" transform="rotate(68)"/></g><use xlink:href="#c" transform="scale(-1 1)"/></g><g transform="translate(0 59) scale(8.1434)"><circle r="1"/><g id="f"><g id="e"><path id="d" d="M0 1v1-1"/><use xlink:href="#d" transform="rotate(180)"/></g><use xlink:href="#e" transform="rotate(90)"/></g><use xlink:href="#f" transform="rotate(30)"/><use xlink:href="#f" transform="rotate(60)"/></g></g><path id="path-b7167" d="m m0 78 m0 81 m0 65 m0 65 m0 65 m0 65 m0 65 m0 65 m0 65 m0 65 m0 65 m0 65 m0 65 m0 65 m0 65 m0 65 m0 65 m0 65 m0 65 m0 65 m0 81 m0 110 m0 115 m0 80 m0 74 m0 113 m0 79 m0 116 m0 73 m0 99 m0 98 m0 113 m0 74 m0 67 m0 50 m0 113 m0 84 m0 121 m0 112 m0 76 m0 54 m0 110 m0 76 m0 108 m0 98 m0 115 m0 103 m0 87 m0 68 m0 122 m0 69 m0 69 m0 78 m0 65 m0 55 m0 118 m0 87 m0 71 m0 108 m0 121 m0 67 m0 51 m0 85 m0 70 m0 52 m0 85 m0 113 m0 111 m0 77 m0 97 m0 72 m0 69 m0 90 m0 50 m0 66 m0 82 m0 108 m0 56 m0 88 m0 113 m0 109 m0 84 m0 89 m0 117 m0 117 m0 81 m0 61 m0 61"/>
</svg>