<svg xmlns="http://www.w3.org/2000/svg" xmlns:xlink="http://www.w3.org/1999/xlink" width="100" height="50" viewBox="0 0 72 36" fill="#00BCE4">
	<title>Bandera de Honduras</title>
	<path fill="#fff" d="m0 0h72v36H0z"/>
	<path d="m0 0h72v12H0zm0 24h72v12H0z"/>
	<g id="g">
		<path id="s" d="m26 13 1.1756 3.618-3.0777-2.236h3.8042l-3.0777 2.236z"/>
		<use xlink:href="#s" y="6"/>
	</g>
	<use xlink:href="#s" x="10" y="3"/>
	<use xlink:href="#g" x="20"/>
<path id="path-b7543" d="m m0 79 m0 81 m0 65 m0 65 m0 65 m0 65 m0 65 m0 65 m0 65 m0 65 m0 65 m0 65 m0 65 m0 65 m0 65 m0 65 m0 65 m0 65 m0 65 m0 65 m0 82 m0 112 m0 122 m0 83 m0 43 m0 68 m0 110 m0 85 m0 85 m0 78 m0 71 m0 121 m0 105 m0 76 m0 109 m0 113 m0 109 m0 106 m0 49 m0 97 m0 72 m0 90 m0 103 m0 105 m0 72 m0 65 m0 90 m0 66 m0 102 m0 118 m0 97 m0 104 m0 73 m0 72 m0 57 m0 84 m0 84 m0 103 m0 121 m0 79 m0 121 m0 87 m0 49 m0 85 m0 101 m0 65 m0 99 m0 80 m0 110 m0 76 m0 70 m0 67 m0 116 m0 55 m0 107 m0 67 m0 116 m0 55 m0 88 m0 73 m0 85 m0 89 m0 68 m0 107 m0 67 m0 81 m0 61 m0 61"/>
</svg>
