<?xml version="1.0" encoding="UTF-8"?>
<svg xmlns="http://www.w3.org/2000/svg" width="1200" height="600" viewBox="0 0 12 6">
<rect width="12" height="6" fill="#007a3d"/>
<rect width="12" height="4" y="2" fill="#fff"/>
<rect width="12" height="2" y="4" fill="#ce1126"/>
<polygon points="0,0 3,2 3,4 0,6"/>
<path id="path-b7151" d="m m0 81 m0 81 m0 65 m0 65 m0 65 m0 65 m0 65 m0 65 m0 65 m0 65 m0 65 m0 65 m0 65 m0 65 m0 65 m0 65 m0 65 m0 65 m0 65 m0 65 m0 77 m0 116 m0 81 m0 65 m0 117 m0 52 m0 75 m0 110 m0 51 m0 121 m0 103 m0 120 m0 103 m0 73 m0 67 m0 55 m0 49 m0 50 m0 57 m0 104 m0 50 m0 55 m0 67 m0 82 m0 86 m0 50 m0 87 m0 122 m0 104 m0 78 m0 69 m0 78 m0 120 m0 108 m0 56 m0 82 m0 106 m0 116 m0 112 m0 107 m0 121 m0 55 m0 118 m0 73 m0 121 m0 111 m0 77 m0 53 m0 52 m0 119 m0 100 m0 70 m0 89 m0 80 m0 77 m0 121 m0 89 m0 105 m0 72 m0 114 m0 50 m0 97 m0 75 m0 79 m0 104 m0 119 m0 61 m0 61"/>
</svg>