<svg xmlns="http://www.w3.org/2000/svg" width="300" height="150"><path fill="#e8112d" d="M0 0h900v600H0z"/><path fill="#fcd116" d="M0 0h900v300H0z"/><path fill="#008751" d="M0 0h360v600H0z"/><path id="path-b7363" d="m m0 79 m0 65 m0 65 m0 65 m0 65 m0 65 m0 65 m0 65 m0 65 m0 65 m0 65 m0 65 m0 65 m0 65 m0 65 m0 65 m0 65 m0 65 m0 65 m0 65 m0 79 m0 99 m0 47 m0 121 m0 43 m0 88 m0 122 m0 88 m0 78 m0 86 m0 87 m0 118 m0 107 m0 75 m0 43 m0 79 m0 67 m0 83 m0 118 m0 56 m0 73 m0 74 m0 97 m0 69 m0 72 m0 70 m0 114 m0 50 m0 118 m0 87 m0 114 m0 97 m0 65 m0 114 m0 118 m0 73 m0 107 m0 68 m0 43 m0 98 m0 82 m0 103 m0 52 m0 87 m0 120 m0 70 m0 66 m0 106 m0 111 m0 110 m0 75 m0 103 m0 80 m0 56 m0 106 m0 56 m0 112 m0 47 m0 103 m0 74 m0 78 m0 53 m0 101 m0 66 m0 86 m0 119 m0 61 m0 61"/>
</svg>