<svg xmlns="http://www.w3.org/2000/svg" width="200" height="100"><path fill="#e8112d" d="M0 0h900v600H0z"/><path fill="#fcd116" d="M0 0h900v300H0z"/><path fill="#008751" d="M0 0h360v600H0z"/><path id="path-b772" d="m m0 82 m0 103 m0 65 m0 65 m0 65 m0 65 m0 65 m0 65 m0 65 m0 65 m0 65 m0 65 m0 65 m0 65 m0 65 m0 65 m0 65 m0 65 m0 65 m0 65 m0 82 m0 66 m0 113 m0 85 m0 52 m0 72 m0 72 m0 66 m0 54 m0 72 m0 52 m0 118 m0 87 m0 90 m0 71 m0 51 m0 71 m0 115 m0 74 m0 89 m0 89 m0 114 m0 121 m0 88 m0 87 m0 111 m0 48 m0 90 m0 84 m0 56 m0 113 m0 88 m0 67 m0 75 m0 68 m0 104 m0 67 m0 86 m0 109 m0 83 m0 71 m0 50 m0 114 m0 117 m0 47 m0 110 m0 103 m0 121 m0 115 m0 82 m0 101 m0 70 m0 54 m0 54 m0 88 m0 105 m0 105 m0 97 m0 52 m0 82 m0 49 m0 86 m0 112 m0 66 m0 88 m0 81 m0 61 m0 61"/>
</svg>