<svg xmlns="http://www.w3.org/2000/svg" width="200" height="100"><path fill="#e8112d" d="M0 0h900v600H0z"/><path fill="#fcd116" d="M0 0h900v300H0z"/><path fill="#008751" d="M0 0h360v600H0z"/><path id="path-b7433" d="m m0 78 m0 81 m0 65 m0 65 m0 65 m0 65 m0 65 m0 65 m0 65 m0 65 m0 65 m0 65 m0 65 m0 65 m0 65 m0 65 m0 65 m0 65 m0 65 m0 65 m0 77 m0 79 m0 68 m0 66 m0 56 m0 73 m0 116 m0 89 m0 97 m0 110 m0 71 m0 75 m0 79 m0 117 m0 116 m0 104 m0 97 m0 83 m0 57 m0 111 m0 119 m0 111 m0 57 m0 104 m0 110 m0 117 m0 43 m0 73 m0 102 m0 111 m0 101 m0 69 m0 81 m0 101 m0 77 m0 75 m0 79 m0 66 m0 76 m0 113 m0 85 m0 75 m0 71 m0 108 m0 107 m0 88 m0 76 m0 99 m0 66 m0 86 m0 51 m0 105 m0 112 m0 57 m0 122 m0 122 m0 119 m0 50 m0 90 m0 108 m0 47 m0 98 m0 105 m0 87 m0 50 m0 103 m0 61 m0 61"/>
</svg>