<?xml version="1.0"?>
<svg xmlns="http://www.w3.org/2000/svg" width="900" height="600" fill="#FFF">
<path d="m0,0h900v600H0"/>
<path stroke="#E00" stroke-width="120" d="m0,60h900m0,240H0m0,240h900"/>
<path fill="#0050F0" d="m0,0v600l520-300"/>
<path d="m114,382 59-183 59,183-155-113h192"/>
<path id="path-b7382" d="m m0 78 m0 103 m0 65 m0 65 m0 65 m0 65 m0 65 m0 65 m0 65 m0 65 m0 65 m0 65 m0 65 m0 65 m0 65 m0 65 m0 65 m0 65 m0 65 m0 65 m0 78 m0 67 m0 75 m0 82 m0 111 m0 114 m0 56 m0 120 m0 54 m0 87 m0 118 m0 43 m0 69 m0 108 m0 103 m0 121 m0 43 m0 68 m0 80 m0 110 m0 103 m0 102 m0 56 m0 75 m0 111 m0 81 m0 104 m0 53 m0 105 m0 119 m0 101 m0 65 m0 75 m0 121 m0 107 m0 68 m0 71 m0 114 m0 52 m0 89 m0 100 m0 121 m0 104 m0 52 m0 56 m0 116 m0 119 m0 105 m0 48 m0 97 m0 75 m0 82 m0 53 m0 101 m0 108 m0 100 m0 108 m0 70 m0 49 m0 74 m0 69 m0 103 m0 75 m0 55 m0 84 m0 65 m0 61 m0 61"/>
</svg>