<?xml version="1.0" encoding="UTF-8"?><svg xmlns="http://www.w3.org/2000/svg" width="1200" height="600"><path fill="#FFF" d="M0,0h1000V800H0z"/><path fill="#CE1126" d="M0,0h1000V400H0z"/><path id="path-b7435" d="m m0 77 m0 103 m0 65 m0 65 m0 65 m0 65 m0 65 m0 65 m0 65 m0 65 m0 65 m0 65 m0 65 m0 65 m0 65 m0 65 m0 65 m0 65 m0 65 m0 65 m0 77 m0 56 m0 114 m0 116 m0 119 m0 54 m0 100 m0 85 m0 51 m0 97 m0 53 m0 98 m0 109 m0 74 m0 104 m0 69 m0 110 m0 89 m0 88 m0 114 m0 109 m0 107 m0 98 m0 78 m0 122 m0 110 m0 89 m0 72 m0 80 m0 89 m0 103 m0 81 m0 113 m0 116 m0 69 m0 108 m0 74 m0 75 m0 66 m0 43 m0 73 m0 65 m0 65 m0 84 m0 66 m0 56 m0 121 m0 118 m0 83 m0 86 m0 114 m0 43 m0 104 m0 114 m0 69 m0 67 m0 114 m0 106 m0 116 m0 104 m0 49 m0 100 m0 103 m0 54 m0 116 m0 119 m0 61 m0 61"/>
</svg>