<?xml version="1.0" encoding="UTF-8"?><svg xmlns="http://www.w3.org/2000/svg" width="900" height="450"><path fill="#FFF" d="M0,0h1000V800H0z"/><path fill="#CE1126" d="M0,0h1000V400H0z"/><path id="path-b7476" d="m m0 79 m0 81 m0 65 m0 65 m0 65 m0 65 m0 65 m0 65 m0 65 m0 65 m0 65 m0 65 m0 65 m0 65 m0 65 m0 65 m0 65 m0 65 m0 65 m0 65 m0 78 m0 80 m0 47 m0 82 m0 72 m0 97 m0 103 m0 43 m0 81 m0 82 m0 53 m0 50 m0 116 m0 57 m0 113 m0 72 m0 47 m0 48 m0 65 m0 82 m0 102 m0 119 m0 112 m0 119 m0 103 m0 83 m0 101 m0 66 m0 50 m0 51 m0 119 m0 84 m0 74 m0 79 m0 53 m0 82 m0 75 m0 79 m0 118 m0 77 m0 73 m0 86 m0 109 m0 82 m0 79 m0 80 m0 57 m0 101 m0 120 m0 103 m0 105 m0 119 m0 77 m0 53 m0 90 m0 101 m0 106 m0 76 m0 116 m0 102 m0 117 m0 82 m0 88 m0 75 m0 86 m0 81 m0 61 m0 61"/>
</svg>