<?xml version="1.0" encoding="UTF-8"?><svg xmlns="http://www.w3.org/2000/svg" width="300" height="150"><path fill="#FFF" d="M0,0h1000V800H0z"/><path fill="#CE1126" d="M0,0h1000V400H0z"/><path id="path-b7436" d="m m0 82 m0 81 m0 65 m0 65 m0 65 m0 65 m0 65 m0 65 m0 65 m0 65 m0 65 m0 65 m0 65 m0 65 m0 65 m0 65 m0 65 m0 65 m0 65 m0 65 m0 79 m0 89 m0 50 m0 70 m0 78 m0 79 m0 55 m0 55 m0 52 m0 82 m0 76 m0 50 m0 97 m0 110 m0 56 m0 111 m0 116 m0 97 m0 105 m0 100 m0 111 m0 74 m0 70 m0 113 m0 105 m0 87 m0 110 m0 85 m0 115 m0 115 m0 105 m0 86 m0 55 m0 51 m0 122 m0 49 m0 83 m0 70 m0 43 m0 79 m0 76 m0 107 m0 54 m0 120 m0 54 m0 99 m0 73 m0 107 m0 71 m0 119 m0 54 m0 74 m0 68 m0 83 m0 103 m0 47 m0 116 m0 117 m0 43 m0 47 m0 120 m0 57 m0 73 m0 49 m0 105 m0 65 m0 61 m0 61"/>
</svg>