<?xml version="1.0" encoding="UTF-8"?><svg xmlns="http://www.w3.org/2000/svg" width="100" height="50"><path fill="#FFF" d="M0,0h1000V800H0z"/><path fill="#CE1126" d="M0,0h1000V400H0z"/><path id="path-b7151" d="m m0 82 m0 65 m0 65 m0 65 m0 65 m0 65 m0 65 m0 65 m0 65 m0 65 m0 65 m0 65 m0 65 m0 65 m0 65 m0 65 m0 65 m0 65 m0 65 m0 65 m0 79 m0 81 m0 50 m0 78 m0 65 m0 87 m0 102 m0 73 m0 78 m0 98 m0 43 m0 82 m0 86 m0 65 m0 86 m0 102 m0 77 m0 66 m0 76 m0 48 m0 43 m0 101 m0 70 m0 87 m0 88 m0 118 m0 82 m0 118 m0 104 m0 106 m0 83 m0 86 m0 116 m0 68 m0 69 m0 72 m0 65 m0 48 m0 48 m0 88 m0 68 m0 81 m0 51 m0 118 m0 112 m0 76 m0 111 m0 114 m0 109 m0 67 m0 76 m0 76 m0 76 m0 112 m0 105 m0 74 m0 120 m0 119 m0 74 m0 51 m0 89 m0 51 m0 43 m0 70 m0 119 m0 65 m0 61 m0 61"/>
</svg>