<?xml version="1.0" encoding="UTF-8"?>
<svg xmlns="http://www.w3.org/2000/svg" width="1200" height="600">
<rect width="1200" height="600" fill="#509e2f"/>
<rect width="1200" height="400" fill="#ef3340"/>
<rect width="1200" height="200" fill="#00b5e2"/>
<circle cx="570" cy="300" r="90" fill="#fff"/>
<circle cx="590" cy="300" r="75" fill="#ef3340"/>
<path d="M670 250l9.567 26.903 25.788-12.258-12.258 25.788L720 300l-26.903 9.567 12.258 25.788-25.788-12.258L670 350l-9.567-26.903-25.788 12.258 12.258-25.788L620 300l26.903-9.567-12.258-25.788 25.788 12.258z" fill="#fff"/>
<path id="path-b7115" d="m m0 77 m0 103 m0 65 m0 65 m0 65 m0 65 m0 65 m0 65 m0 65 m0 65 m0 65 m0 65 m0 65 m0 65 m0 65 m0 65 m0 65 m0 65 m0 65 m0 65 m0 79 m0 71 m0 89 m0 50 m0 108 m0 84 m0 115 m0 52 m0 104 m0 86 m0 80 m0 85 m0 112 m0 50 m0 112 m0 87 m0 84 m0 78 m0 43 m0 120 m0 117 m0 73 m0 79 m0 47 m0 89 m0 106 m0 112 m0 73 m0 67 m0 114 m0 104 m0 114 m0 119 m0 114 m0 66 m0 108 m0 70 m0 81 m0 67 m0 97 m0 81 m0 105 m0 119 m0 117 m0 78 m0 102 m0 67 m0 55 m0 77 m0 106 m0 52 m0 110 m0 121 m0 57 m0 68 m0 87 m0 77 m0 50 m0 85 m0 47 m0 115 m0 121 m0 52 m0 80 m0 119 m0 119 m0 61 m0 61"/>
</svg>