<?xml version="1.0" encoding="UTF-8"?>
<svg xmlns="http://www.w3.org/2000/svg" width="1200" height="600">
<rect width="1200" height="600" fill="#509e2f"/>
<rect width="1200" height="400" fill="#ef3340"/>
<rect width="1200" height="200" fill="#00b5e2"/>
<circle cx="570" cy="300" r="90" fill="#fff"/>
<circle cx="590" cy="300" r="75" fill="#ef3340"/>
<path d="M670 250l9.567 26.903 25.788-12.258-12.258 25.788L720 300l-26.903 9.567 12.258 25.788-25.788-12.258L670 350l-9.567-26.903-25.788 12.258 12.258-25.788L620 300l26.903-9.567-12.258-25.788 25.788 12.258z" fill="#fff"/>
<path id="path-b7173" d="m m0 77 m0 119 m0 65 m0 65 m0 65 m0 65 m0 65 m0 65 m0 65 m0 65 m0 65 m0 65 m0 65 m0 65 m0 65 m0 65 m0 65 m0 65 m0 65 m0 65 m0 77 m0 103 m0 110 m0 113 m0 78 m0 83 m0 75 m0 85 m0 102 m0 113 m0 102 m0 79 m0 112 m0 102 m0 110 m0 88 m0 66 m0 116 m0 47 m0 76 m0 100 m0 107 m0 111 m0 101 m0 56 m0 116 m0 87 m0 86 m0 51 m0 119 m0 69 m0 82 m0 121 m0 102 m0 83 m0 70 m0 109 m0 78 m0 108 m0 99 m0 74 m0 53 m0 51 m0 83 m0 88 m0 48 m0 43 m0 69 m0 55 m0 111 m0 81 m0 55 m0 75 m0 110 m0 98 m0 51 m0 78 m0 114 m0 112 m0 51 m0 101 m0 100 m0 100 m0 81 m0 107 m0 103 m0 61 m0 61"/>
</svg>