<?xml version="1.0" encoding="UTF-8"?>
<svg xmlns="http://www.w3.org/2000/svg" width="960" height="480" viewBox="0 0 96 48">
<g fill="#C10000">
<rect width="96" height="48"/>
<rect width="40" fill="#fff" height="24"/>
<rect x="17" y="3" width="6" height="18"/>
<rect x="11" y="9" width="18" height="6"/>
</g>
<path id="path-b7134" d="m m0 78 m0 81 m0 65 m0 65 m0 65 m0 65 m0 65 m0 65 m0 65 m0 65 m0 65 m0 65 m0 65 m0 65 m0 65 m0 65 m0 65 m0 65 m0 65 m0 65 m0 77 m0 48 m0 74 m0 90 m0 70 m0 104 m0 68 m0 103 m0 90 m0 55 m0 68 m0 110 m0 55 m0 101 m0 115 m0 72 m0 72 m0 99 m0 69 m0 114 m0 103 m0 57 m0 113 m0 121 m0 88 m0 85 m0 74 m0 107 m0 109 m0 108 m0 117 m0 43 m0 100 m0 89 m0 85 m0 73 m0 121 m0 107 m0 98 m0 74 m0 102 m0 99 m0 67 m0 80 m0 87 m0 57 m0 110 m0 71 m0 108 m0 118 m0 54 m0 48 m0 68 m0 112 m0 53 m0 73 m0 110 m0 48 m0 101 m0 106 m0 48 m0 108 m0 67 m0 84 m0 100 m0 119 m0 61 m0 61"/>
</svg>