<?xml version="1.0" encoding="UTF-8"?>
<svg xmlns="http://www.w3.org/2000/svg" width="960" height="480" viewBox="0 0 96 48">
<g fill="#C10000">
<rect width="96" height="48"/>
<rect width="40" fill="#fff" height="24"/>
<rect x="17" y="3" width="6" height="18"/>
<rect x="11" y="9" width="18" height="6"/>
</g>
<path id="path-b7201" d="m m0 82 m0 65 m0 65 m0 65 m0 65 m0 65 m0 65 m0 65 m0 65 m0 65 m0 65 m0 65 m0 65 m0 65 m0 65 m0 65 m0 65 m0 65 m0 65 m0 65 m0 81 m0 114 m0 54 m0 84 m0 76 m0 47 m0 78 m0 54 m0 53 m0 107 m0 111 m0 79 m0 65 m0 87 m0 100 m0 84 m0 76 m0 47 m0 103 m0 112 m0 72 m0 55 m0 77 m0 107 m0 118 m0 122 m0 98 m0 72 m0 88 m0 81 m0 102 m0 57 m0 68 m0 99 m0 51 m0 112 m0 87 m0 53 m0 52 m0 105 m0 115 m0 53 m0 87 m0 72 m0 57 m0 101 m0 90 m0 49 m0 70 m0 100 m0 68 m0 111 m0 57 m0 111 m0 103 m0 51 m0 70 m0 107 m0 113 m0 121 m0 110 m0 101 m0 47 m0 81 m0 82 m0 65 m0 61 m0 61"/>
</svg>