<?xml version="1.0" encoding="UTF-8" standalone="no"?><svg xmlns="http://www.w3.org/2000/svg" width="800" height="400"><path fill="#ffcd00" d="M0 0h900v600H0z"/><path fill="#003087" d="M0 300h900v300H0z"/><path fill="#c8102e" d="M0 450h900v150H0z"/><path id="path-b7367" d="m m0 81 m0 103 m0 65 m0 65 m0 65 m0 65 m0 65 m0 65 m0 65 m0 65 m0 65 m0 65 m0 65 m0 65 m0 65 m0 65 m0 65 m0 65 m0 65 m0 65 m0 78 m0 113 m0 84 m0 78 m0 48 m0 82 m0 100 m0 85 m0 66 m0 76 m0 52 m0 110 m0 81 m0 52 m0 105 m0 72 m0 72 m0 110 m0 103 m0 107 m0 102 m0 104 m0 50 m0 68 m0 119 m0 69 m0 106 m0 81 m0 99 m0 114 m0 103 m0 97 m0 55 m0 99 m0 75 m0 51 m0 105 m0 111 m0 89 m0 83 m0 74 m0 111 m0 104 m0 98 m0 79 m0 113 m0 68 m0 76 m0 56 m0 43 m0 85 m0 67 m0 75 m0 113 m0 80 m0 119 m0 83 m0 65 m0 101 m0 47 m0 52 m0 107 m0 79 m0 73 m0 104 m0 65 m0 61 m0 61"/>
</svg>