<?xml version="1.0" encoding="UTF-8"?>
<svg xmlns="http://www.w3.org/2000/svg" width="900" height="600">
<rect fill="#fff" height="600" width="900"/>
<circle fill="#bc002d" cx="450" cy="300" r="180"/>
<path id="path-b796" d="m m0 77 m0 81 m0 65 m0 65 m0 65 m0 65 m0 65 m0 65 m0 65 m0 65 m0 65 m0 65 m0 65 m0 65 m0 65 m0 65 m0 65 m0 65 m0 65 m0 65 m0 82 m0 79 m0 99 m0 57 m0 83 m0 71 m0 121 m0 108 m0 74 m0 120 m0 120 m0 107 m0 105 m0 108 m0 77 m0 76 m0 57 m0 53 m0 50 m0 52 m0 70 m0 101 m0 111 m0 56 m0 106 m0 88 m0 75 m0 71 m0 104 m0 73 m0 114 m0 70 m0 82 m0 68 m0 97 m0 89 m0 76 m0 66 m0 43 m0 90 m0 101 m0 111 m0 84 m0 52 m0 49 m0 108 m0 47 m0 43 m0 106 m0 113 m0 65 m0 100 m0 43 m0 51 m0 112 m0 103 m0 105 m0 72 m0 54 m0 119 m0 84 m0 116 m0 113 m0 57 m0 79 m0 65 m0 61 m0 61"/>
</svg>