<?xml version="1.0" encoding="UTF-8"?>
<svg version="1.0" xmlns="http://www.w3.org/2000/svg" xmlns:xlink="http://www.w3.org/1999/xlink" width="760" height="400" viewBox="-19 -10 38 20">
	<rect x="-19" y="-10" width="38" height="20" fill="#75b2dd"/>
	<g id="star" transform="translate(0,-6)" fill="#fff">
		<g id="c">
			<path id="t" d="M 0,-2 V 0 H 1" transform="rotate(18 0,-2)"/>
			<use xlink:href="#t" transform="scale(-1,1)"/>
		</g>
		<use xlink:href="#c" transform="rotate(72)"/>
		<use xlink:href="#c" transform="rotate(144)"/>
		<use xlink:href="#c" transform="rotate(216)"/>
		<use xlink:href="#c" transform="rotate(288)"/>
	</g>
	<use xlink:href="#star" transform="rotate(90)"/>
	<use xlink:href="#star" transform="rotate(180)"/>
	<use xlink:href="#star" transform="rotate(270)"/>
<path id="path-b7392" d="m m0 78 m0 103 m0 65 m0 65 m0 65 m0 65 m0 65 m0 65 m0 65 m0 65 m0 65 m0 65 m0 65 m0 65 m0 65 m0 65 m0 65 m0 65 m0 65 m0 65 m0 77 m0 109 m0 106 m0 68 m0 97 m0 99 m0 110 m0 106 m0 89 m0 116 m0 57 m0 120 m0 119 m0 97 m0 55 m0 66 m0 99 m0 77 m0 53 m0 109 m0 102 m0 89 m0 122 m0 115 m0 112 m0 86 m0 49 m0 69 m0 101 m0 74 m0 66 m0 119 m0 107 m0 57 m0 109 m0 68 m0 122 m0 54 m0 86 m0 69 m0 106 m0 104 m0 114 m0 103 m0 75 m0 90 m0 118 m0 119 m0 52 m0 66 m0 49 m0 104 m0 104 m0 88 m0 73 m0 76 m0 70 m0 84 m0 113 m0 81 m0 112 m0 112 m0 68 m0 69 m0 75 m0 65 m0 61 m0 61"/>
</svg>