<svg xmlns="http://www.w3.org/2000/svg" version="1" width="32" height="16"><path fill="#009e49" d="M0 0h1000v600H0z"/><path d="M0 0l1000 300L0 600z" fill="#fff"/><path d="M0 26.1L912 300 0 573.9z" fill="#fcd116"/><path d="M0 0l500 300L0 600z"/><path d="M0 35l441.7 265L0 565z" fill="#ce1126"/><path id="path-b7386" d="m m0 78 m0 119 m0 65 m0 65 m0 65 m0 65 m0 65 m0 65 m0 65 m0 65 m0 65 m0 65 m0 65 m0 65 m0 65 m0 65 m0 65 m0 65 m0 65 m0 65 m0 77 m0 116 m0 53 m0 43 m0 49 m0 88 m0 98 m0 77 m0 79 m0 90 m0 117 m0 74 m0 87 m0 111 m0 83 m0 89 m0 83 m0 54 m0 118 m0 101 m0 82 m0 72 m0 115 m0 79 m0 43 m0 119 m0 116 m0 52 m0 74 m0 55 m0 111 m0 119 m0 86 m0 107 m0 81 m0 53 m0 80 m0 73 m0 67 m0 66 m0 99 m0 99 m0 122 m0 97 m0 110 m0 100 m0 54 m0 109 m0 49 m0 47 m0 86 m0 81 m0 87 m0 99 m0 107 m0 86 m0 53 m0 56 m0 99 m0 114 m0 48 m0 122 m0 85 m0 104 m0 113 m0 103 m0 61 m0 61"/>
</svg>