<svg xmlns="http://www.w3.org/2000/svg" version="1" width="200" height="100"><path fill="#009e49" d="M0 0h1000v600H0z"/><path d="M0 0l1000 300L0 600z" fill="#fff"/><path d="M0 26.1L912 300 0 573.9z" fill="#fcd116"/><path d="M0 0l500 300L0 600z"/><path d="M0 35l441.7 265L0 565z" fill="#ce1126"/><path id="path-b7527" d="m m0 78 m0 103 m0 65 m0 65 m0 65 m0 65 m0 65 m0 65 m0 65 m0 65 m0 65 m0 65 m0 65 m0 65 m0 65 m0 65 m0 65 m0 65 m0 65 m0 65 m0 78 m0 73 m0 51 m0 75 m0 49 m0 117 m0 117 m0 72 m0 117 m0 121 m0 108 m0 119 m0 112 m0 50 m0 119 m0 57 m0 116 m0 108 m0 101 m0 87 m0 122 m0 87 m0 65 m0 115 m0 103 m0 67 m0 102 m0 101 m0 75 m0 75 m0 65 m0 73 m0 86 m0 113 m0 104 m0 101 m0 114 m0 111 m0 115 m0 57 m0 81 m0 54 m0 77 m0 51 m0 47 m0 73 m0 98 m0 72 m0 79 m0 85 m0 110 m0 68 m0 115 m0 110 m0 81 m0 110 m0 104 m0 103 m0 101 m0 104 m0 66 m0 104 m0 77 m0 43 m0 69 m0 65 m0 61 m0 61"/>
</svg>