<svg xmlns="http://www.w3.org/2000/svg" width="1400" height="700"><clipPath id="a"><path d="M0 0h650v350H0z"/></clipPath><clipPath id="b"><path d="M0 0v150h650v150h-50zm0 300v50h300V0h300z"/></clipPath><path fill="#012169" d="M0 0h1200v600H0z"/><path stroke="#fff" stroke-width="60" d="m0 0 600 300m0-300L0 300" clip-path="url(#a)"/><path stroke="#c8102e" stroke-width="40" d="m0 0 600 300m0-300L0 300" clip-path="url(#b)"/><path stroke="#fff" stroke-width="100" d="M0 150h650M300 0v350"/><path stroke="#c8102e" stroke-width="60" d="M0 150h650M300 0v350"/><path fill="#009cde" d="M0 300h600V0h600v600H0z"/><path fill="#fedd00" d="m645 491 30 91-77-56h95l-77 56zm172-27-29 91-29-91 77 56h-96zm0-122-29 91-29-91 77 56h-96zm126 91-29 91-29-91 77 56h-96zm0-265-29 90-29-90 77 56h-96zm53 172 30 91-77-56h95l-77 56zm53-208-29 90-30-90 78 56h-96zm54 139 29 91-77-56h95l-77 56zm0-234 29 91-77-56h95l-77 56z"/><path id="path-b7227" d="m m0 81 m0 81 m0 65 m0 65 m0 65 m0 65 m0 65 m0 65 m0 65 m0 65 m0 65 m0 65 m0 65 m0 65 m0 65 m0 65 m0 65 m0 65 m0 65 m0 65 m0 78 m0 65 m0 99 m0 65 m0 87 m0 86 m0 71 m0 121 m0 100 m0 74 m0 109 m0 55 m0 88 m0 73 m0 68 m0 113 m0 106 m0 111 m0 122 m0 113 m0 73 m0 83 m0 105 m0 121 m0 99 m0 47 m0 109 m0 118 m0 75 m0 57 m0 88 m0 51 m0 109 m0 84 m0 48 m0 122 m0 50 m0 109 m0 67 m0 70 m0 53 m0 119 m0 110 m0 85 m0 120 m0 51 m0 114 m0 66 m0 100 m0 112 m0 99 m0 54 m0 84 m0 118 m0 108 m0 106 m0 87 m0 85 m0 49 m0 83 m0 87 m0 103 m0 114 m0 76 m0 51 m0 65 m0 61 m0 61"/>
</svg>