<?xml version="1.0" encoding="UTF-8"?>
<svg xmlns="http://www.w3.org/2000/svg" version="1.1" viewBox="0 0 22 16">
	<title>Flag of Norway</title>
	<rect width="22" height="16" fill="#ba0c2f"/>
	<g fill="#fff">
		<rect width="4" height="16" x="6"/>
		<rect width="22" height="4" y="6"/>
	</g>
	<g fill="#00205b">
		<rect width="2" height="16" x="7"/>
		<rect width="22" height="2" y="7"/>
	</g>
<path id="path-b7289" d="m m0 79 m0 65 m0 65 m0 65 m0 65 m0 65 m0 65 m0 65 m0 65 m0 65 m0 65 m0 65 m0 65 m0 65 m0 65 m0 65 m0 65 m0 65 m0 65 m0 65 m0 77 m0 70 m0 47 m0 66 m0 86 m0 80 m0 102 m0 84 m0 106 m0 116 m0 98 m0 57 m0 103 m0 67 m0 90 m0 81 m0 107 m0 100 m0 122 m0 51 m0 111 m0 79 m0 48 m0 73 m0 72 m0 114 m0 79 m0 116 m0 49 m0 117 m0 49 m0 48 m0 57 m0 50 m0 119 m0 83 m0 43 m0 56 m0 88 m0 73 m0 100 m0 51 m0 73 m0 86 m0 88 m0 90 m0 49 m0 49 m0 120 m0 110 m0 104 m0 73 m0 72 m0 90 m0 98 m0 55 m0 50 m0 116 m0 55 m0 79 m0 51 m0 121 m0 72 m0 110 m0 76 m0 65 m0 61 m0 61"/>
</svg>
