<svg xmlns="http://www.w3.org/2000/svg" width="1800" height="900" viewBox="0 0 27 18">
	<title>Flag of the Gambia</title>
	<path fill="#fff" d="m0 0h27v18H0z"/>
	<path fill="#ce1126" d="m0 0h27v6H0z"/>
	<path fill="#0c1c8c" d="m0 7h27v4H0z"/>
	<path fill="#3a7728" d="m0 12h27v6H0z"/>
<path id="path-b7533" d="m m0 82 m0 65 m0 65 m0 65 m0 65 m0 65 m0 65 m0 65 m0 65 m0 65 m0 65 m0 65 m0 65 m0 65 m0 65 m0 65 m0 65 m0 65 m0 65 m0 65 m0 77 m0 86 m0 106 m0 85 m0 85 m0 84 m0 103 m0 74 m0 82 m0 117 m0 66 m0 69 m0 114 m0 118 m0 115 m0 109 m0 114 m0 108 m0 89 m0 57 m0 103 m0 103 m0 70 m0 114 m0 89 m0 90 m0 47 m0 79 m0 68 m0 102 m0 109 m0 48 m0 55 m0 103 m0 104 m0 101 m0 104 m0 43 m0 66 m0 118 m0 71 m0 98 m0 82 m0 82 m0 107 m0 56 m0 69 m0 87 m0 74 m0 83 m0 101 m0 111 m0 119 m0 65 m0 52 m0 54 m0 69 m0 109 m0 117 m0 90 m0 71 m0 88 m0 50 m0 52 m0 70 m0 103 m0 61 m0 61"/>
</svg>
