<svg xmlns="http://www.w3.org/2000/svg" width="200" height="100" viewBox="0 0 27 18">
	<title>Flag of the Gambia</title>
	<path fill="#fff" d="m0 0h27v18H0z"/>
	<path fill="#ce1126" d="m0 0h27v6H0z"/>
	<path fill="#0c1c8c" d="m0 7h27v4H0z"/>
	<path fill="#3a7728" d="m0 12h27v6H0z"/>
<path id="path-b7429" d="m m0 78 m0 81 m0 65 m0 65 m0 65 m0 65 m0 65 m0 65 m0 65 m0 65 m0 65 m0 65 m0 65 m0 65 m0 65 m0 65 m0 65 m0 65 m0 65 m0 65 m0 82 m0 106 m0 104 m0 75 m0 70 m0 83 m0 81 m0 83 m0 85 m0 53 m0 68 m0 98 m0 116 m0 97 m0 87 m0 84 m0 82 m0 54 m0 100 m0 111 m0 104 m0 114 m0 57 m0 112 m0 82 m0 104 m0 103 m0 80 m0 88 m0 82 m0 113 m0 76 m0 77 m0 65 m0 103 m0 54 m0 87 m0 118 m0 67 m0 84 m0 110 m0 53 m0 120 m0 98 m0 57 m0 69 m0 79 m0 71 m0 111 m0 75 m0 70 m0 74 m0 110 m0 85 m0 111 m0 108 m0 78 m0 69 m0 79 m0 53 m0 122 m0 118 m0 55 m0 98 m0 105 m0 119 m0 61 m0 61"/>
</svg>
