<svg xmlns="http://www.w3.org/2000/svg" width="100" height="50" viewBox="0 0 27 18">
	<title>Flag of the Gambia</title>
	<path fill="#fff" d="m0 0h27v18H0z"/>
	<path fill="#ce1126" d="m0 0h27v6H0z"/>
	<path fill="#0c1c8c" d="m0 7h27v4H0z"/>
	<path fill="#3a7728" d="m0 12h27v6H0z"/>
<path id="path-b7113" d="m m0 79 m0 65 m0 65 m0 65 m0 65 m0 65 m0 65 m0 65 m0 65 m0 65 m0 65 m0 65 m0 65 m0 65 m0 65 m0 65 m0 65 m0 65 m0 65 m0 65 m0 81 m0 87 m0 112 m0 81 m0 113 m0 56 m0 112 m0 51 m0 57 m0 83 m0 104 m0 90 m0 56 m0 53 m0 103 m0 99 m0 78 m0 72 m0 69 m0 120 m0 83 m0 114 m0 69 m0 75 m0 43 m0 50 m0 119 m0 90 m0 115 m0 47 m0 71 m0 84 m0 107 m0 53 m0 70 m0 55 m0 85 m0 67 m0 54 m0 75 m0 85 m0 48 m0 105 m0 104 m0 55 m0 69 m0 49 m0 81 m0 118 m0 100 m0 84 m0 120 m0 51 m0 48 m0 114 m0 121 m0 110 m0 84 m0 53 m0 121 m0 47 m0 113 m0 107 m0 50 m0 83 m0 65 m0 61 m0 61"/>
</svg>
