<svg xmlns="http://www.w3.org/2000/svg" width="32" height="16" viewBox="0 0 138 92">
	<title>Flag of Antigua and Barbuda</title>
	<path fill="#fff" d="m0 0h138v92H0z"/>
	<path d="m0 0h138l-9 46H9z"/>
	<path fill="#fcd116" d="m69 46-30-10 15.288-2.926-13.004-8.555 15.244 3.147-8.741-12.879 12.879 8.741-3.147-15.244 8.555 13.004L69 6l2.926 15.288L80.481 8.284 77.334 23.528l12.879-8.741-8.741 12.879 15.244-3.147-13.004 8.555L99 36z"/>
	<path fill="#0072c6" d="m9 36h120v20H9z"/>
	<path fill="#ce1126" d="m0 0 69 92 69-92v92H0z"/>
<path id="path-b7462" d="m m0 82 m0 81 m0 65 m0 65 m0 65 m0 65 m0 65 m0 65 m0 65 m0 65 m0 65 m0 65 m0 65 m0 65 m0 65 m0 65 m0 65 m0 65 m0 65 m0 65 m0 79 m0 76 m0 52 m0 68 m0 117 m0 97 m0 110 m0 109 m0 102 m0 122 m0 67 m0 72 m0 115 m0 84 m0 47 m0 87 m0 54 m0 114 m0 49 m0 107 m0 84 m0 112 m0 110 m0 106 m0 114 m0 98 m0 97 m0 120 m0 77 m0 73 m0 48 m0 105 m0 108 m0 80 m0 70 m0 105 m0 76 m0 66 m0 120 m0 77 m0 47 m0 88 m0 51 m0 55 m0 103 m0 121 m0 83 m0 82 m0 81 m0 97 m0 56 m0 78 m0 122 m0 68 m0 51 m0 117 m0 89 m0 98 m0 109 m0 72 m0 52 m0 71 m0 115 m0 56 m0 84 m0 65 m0 61 m0 61"/>
</svg>
