<?xml version="1.0" encoding="UTF-8"?>
<svg xmlns="http://www.w3.org/2000/svg" width="800" height="480" viewBox="0 0 30 18"><rect fill="#da1a35" width="30" height="18"/><polygon fill="#FFF" points="0,0 20.824734,18 30,18 9.175266,0"/><polygon points="1.52921,0 22.353945,18 28.470789,18 7.646055,0"/><path id="path-b7540" d="m m0 81 m0 119 m0 65 m0 65 m0 65 m0 65 m0 65 m0 65 m0 65 m0 65 m0 65 m0 65 m0 65 m0 65 m0 65 m0 65 m0 65 m0 65 m0 65 m0 65 m0 78 m0 68 m0 81 m0 89 m0 112 m0 88 m0 79 m0 100 m0 48 m0 49 m0 107 m0 86 m0 65 m0 55 m0 109 m0 84 m0 47 m0 57 m0 54 m0 108 m0 113 m0 121 m0 77 m0 53 m0 48 m0 67 m0 113 m0 69 m0 113 m0 47 m0 98 m0 57 m0 53 m0 109 m0 73 m0 84 m0 102 m0 52 m0 104 m0 75 m0 80 m0 54 m0 106 m0 48 m0 106 m0 87 m0 75 m0 81 m0 52 m0 97 m0 71 m0 100 m0 115 m0 77 m0 116 m0 106 m0 49 m0 116 m0 72 m0 86 m0 121 m0 79 m0 51 m0 49 m0 49 m0 65 m0 61 m0 61"/>
</svg>