<svg xmlns="http://www.w3.org/2000/svg" width="1200" height="600"><path fill="#00a551" d="M0 0h900v600H0z"/><path fill="#ffd500" d="M0 0h900v450H0z"/><path fill="#1a206d" d="M0 0h900v300H0z"/><path fill="#ea2839" d="M0 0h900v150H0z"/><path id="path-b7499" d="m m0 82 m0 81 m0 65 m0 65 m0 65 m0 65 m0 65 m0 65 m0 65 m0 65 m0 65 m0 65 m0 65 m0 65 m0 65 m0 65 m0 65 m0 65 m0 65 m0 65 m0 77 m0 118 m0 52 m0 70 m0 108 m0 80 m0 88 m0 107 m0 57 m0 116 m0 82 m0 100 m0 99 m0 71 m0 90 m0 54 m0 70 m0 77 m0 101 m0 106 m0 67 m0 118 m0 119 m0 100 m0 101 m0 111 m0 83 m0 111 m0 108 m0 81 m0 107 m0 77 m0 117 m0 57 m0 98 m0 79 m0 114 m0 49 m0 43 m0 50 m0 78 m0 97 m0 75 m0 75 m0 121 m0 89 m0 79 m0 72 m0 68 m0 67 m0 119 m0 70 m0 50 m0 105 m0 83 m0 72 m0 84 m0 77 m0 115 m0 85 m0 103 m0 115 m0 52 m0 71 m0 82 m0 81 m0 61 m0 61"/>
</svg>