<svg xmlns="http://www.w3.org/2000/svg" width="600" height="300"><path fill="#00a551" d="M0 0h900v600H0z"/><path fill="#ffd500" d="M0 0h900v450H0z"/><path fill="#1a206d" d="M0 0h900v300H0z"/><path fill="#ea2839" d="M0 0h900v150H0z"/><path id="path-b7479" d="m m0 81 m0 81 m0 65 m0 65 m0 65 m0 65 m0 65 m0 65 m0 65 m0 65 m0 65 m0 65 m0 65 m0 65 m0 65 m0 65 m0 65 m0 65 m0 65 m0 65 m0 77 m0 90 m0 77 m0 114 m0 69 m0 101 m0 118 m0 100 m0 48 m0 97 m0 107 m0 98 m0 105 m0 121 m0 102 m0 100 m0 52 m0 113 m0 79 m0 82 m0 107 m0 54 m0 69 m0 81 m0 104 m0 71 m0 47 m0 102 m0 108 m0 89 m0 71 m0 116 m0 55 m0 110 m0 114 m0 76 m0 122 m0 81 m0 108 m0 90 m0 116 m0 86 m0 55 m0 47 m0 82 m0 89 m0 97 m0 110 m0 82 m0 79 m0 66 m0 117 m0 107 m0 53 m0 56 m0 77 m0 90 m0 88 m0 71 m0 113 m0 121 m0 66 m0 50 m0 110 m0 86 m0 119 m0 61 m0 61"/>
</svg>