<svg xmlns="http://www.w3.org/2000/svg" width="200" height="100"><path fill="#00a551" d="M0 0h900v600H0z"/><path fill="#ffd500" d="M0 0h900v450H0z"/><path fill="#1a206d" d="M0 0h900v300H0z"/><path fill="#ea2839" d="M0 0h900v150H0z"/><path id="path-b779" d="m m0 82 m0 65 m0 65 m0 65 m0 65 m0 65 m0 65 m0 65 m0 65 m0 65 m0 65 m0 65 m0 65 m0 65 m0 65 m0 65 m0 65 m0 65 m0 65 m0 65 m0 81 m0 49 m0 78 m0 78 m0 81 m0 114 m0 119 m0 78 m0 55 m0 75 m0 120 m0 50 m0 75 m0 48 m0 80 m0 55 m0 82 m0 73 m0 51 m0 121 m0 110 m0 101 m0 65 m0 89 m0 88 m0 120 m0 119 m0 98 m0 80 m0 75 m0 54 m0 88 m0 69 m0 54 m0 98 m0 56 m0 56 m0 106 m0 70 m0 122 m0 106 m0 84 m0 84 m0 77 m0 109 m0 115 m0 56 m0 78 m0 107 m0 116 m0 83 m0 51 m0 106 m0 77 m0 66 m0 51 m0 117 m0 85 m0 99 m0 51 m0 119 m0 70 m0 88 m0 81 m0 103 m0 119 m0 61 m0 61"/>
</svg>