<svg xmlns="http://www.w3.org/2000/svg" width="200" height="100"><path fill="#00a551" d="M0 0h900v600H0z"/><path fill="#ffd500" d="M0 0h900v450H0z"/><path fill="#1a206d" d="M0 0h900v300H0z"/><path fill="#ea2839" d="M0 0h900v150H0z"/><path id="path-b7224" d="m m0 77 m0 65 m0 65 m0 65 m0 65 m0 65 m0 65 m0 65 m0 65 m0 65 m0 65 m0 65 m0 65 m0 65 m0 65 m0 65 m0 65 m0 65 m0 65 m0 65 m0 77 m0 76 m0 76 m0 66 m0 85 m0 110 m0 79 m0 109 m0 79 m0 75 m0 70 m0 76 m0 55 m0 55 m0 122 m0 90 m0 86 m0 83 m0 57 m0 110 m0 104 m0 55 m0 122 m0 82 m0 70 m0 99 m0 107 m0 108 m0 102 m0 103 m0 104 m0 68 m0 77 m0 104 m0 76 m0 115 m0 57 m0 99 m0 71 m0 68 m0 67 m0 83 m0 102 m0 101 m0 86 m0 66 m0 71 m0 110 m0 86 m0 65 m0 105 m0 82 m0 72 m0 107 m0 70 m0 114 m0 65 m0 54 m0 112 m0 70 m0 51 m0 103 m0 109 m0 98 m0 106 m0 81 m0 61 m0 61"/>
</svg>