<svg xmlns="http://www.w3.org/2000/svg" xml:space="preserve" width="300" height="150" fill-rule="evenodd" clip-rule="evenodd" image-rendering="optimizeQuality" shape-rendering="geometricPrecision" text-rendering="geometricPrecision" viewBox="0 0 216958 111261"><g transform="scale(.1095)"><path fill="#c62139" d="M0 0h1981200v1016000H0Z"/><path fill="#00297b" d="M25400 25400h1930400v965200H25400Z"/><g style="stroke:#000;stroke-width:39.0236;stroke-dasharray:none;stroke-opacity:1"><g style="stroke:#000;stroke-width:39.0236;stroke-dasharray:none;stroke-opacity:1"><path fill="#92dbfc" stroke="none" d="M108537 28617S90415 43037 90415 58016c0 14981 18122 29783 18122 29783s18007-13724 18007-29783c0-16057-18007-29399-18007-29399z" style="stroke:none;stroke-width:39.0236;stroke-dasharray:none;stroke-opacity:1" transform="matrix(10.62788 0 0 9.7321 -162305 -58490)"/><path fill="#008ce7" stroke="none" d="M92420 67160c4716 11327 16117 20639 16117 20639s11604-8844 16182-20640" style="stroke:none;stroke-width:39.0236;stroke-dasharray:none;stroke-opacity:1" transform="matrix(10.62788 0 0 9.7321 -162305 -58490)"/><path fill="#9c8431" stroke="none" d="M124782 63890c-2794 1999-18515 1039-18515 1039l-879 2238 18719 58c78-307 265-672 330-982z" style="fill:#ccc;fill-opacity:1;stroke:none;stroke-width:39.0236;stroke-dasharray:none;stroke-opacity:1" transform="matrix(10.62788 0 0 9.7321 -162305 -58490)"/><path fill="#ffde52" stroke="none" d="M96652 73153c796 26 1589 194 2301 576 1273 668 2011 663 3383 684 1436 22 2563 1079 4115 1123 2859 80 4061 1500 1838 1499-1050-1-3301-706-4389-558-1654 168-2610 294-3834 1267a50262 50262 0 0 1-3414-4591zm5656 7128c709-485 1197-864 1885-885 1337-41 1793-868 3338-867 1756 322 4136-211 5529-520 2473-570 1300-2300-197-2928-1210-518-3478-26-4885-540-1065-416-187-1079 386-1220 578-106 1198 85 1917 202 1284 113 2897-7 4025-182 2331-357 2235-1041 3360-1057 821-38 1446-282 2006-682 658-439 1343-1340 2139-1304l468 20c-4916 9510-13745 15753-13745 15753s-2853-2184-6226-5790z" style="stroke:none;stroke-width:39.0236;stroke-dasharray:none;stroke-opacity:1" transform="matrix(10.62788 0 0 9.7321 -162305 -58490)"/><path fill="#8c4200" d="M113609 73315c305 1180 628 1581 1868 1884 1224 303 3094-887 1935-2042-1103-1074-2265-1349-3253-2316-1533-1520-3636-4662-4635-7633-1093-3248-903-12392-854-17024 1-54 133-86 148-108 71-102 139 33 28-646-29-174-167-354-166-530 1-314-1084 343-1370 903-65 128 208 493 208 565 37 4444-441 13218 739 17190 730 2459 2062 4358 3268 6115 723 1126 1769 2341 2084 3642z" style="stroke:#000;stroke-width:39.0236;stroke-dasharray:none;stroke-opacity:1" transform="matrix(10.62788 0 0 9.7321 -162305 -58490)"/><path fill="#109421" d="M97274 44871c77 106 66 563 66 563 63 38 1085-870 1085-829 1 191 24 585 24 585s1058-1006 1102-900c49 119-4 702-4 702s704-776 833-916c93-100 78 126 87 491 2 65 1154-850 1224-866 149-32 195 475 187 602-6 94 1063-610 1016-517l79 541c298-41 1008-306 1435-237 137 22 130 91 8 141-2058 833-3641 2089-4563 3839-314 596-410 1116-327 1247 0 0 370-796 787-921 56-16 93 510 150 480 0 0 316-798 544-1092 61-79 163 419 228 345 0 0 164-534 485-906 46-53 129 505 180 458 333-307 646-1077 771-1134 87-68 102 640 185 579 0 0 475-954 759-1127 182-112 175 521 175 521 362-357 761-949 950-1206 87-118 39 780 132 815 119 46 899-688 987-703 58-10 126 209-26 385l-964 1112c185 35 257-17 390 18 395 104-740 755-721 877 0 0 547-10 364 96-132 77-855 1008-855 975 0-17 363 8 361 112-3 193-601 1188-607 1182-33-33 321-43 369 55 88 181-614 986-477 1123 19 19 401 6 571 44 82 18 312 1462 254 1404-13-14 246-1354 403-1762 96-247 403 373 428 318-13 0-62-881-19-1282 12-112 233 117 230 10-8-243-28-503 22-740 38-179 226 323 299 188 0 0-228-872-133-1118 63-162 215 392 315 414 0 0-56-678 49-853l317 340c69-109 56-1165 120-1264 53-83 382 396 431 321 44-68-139-852-98-914 58-89 419 218 426 212 147-148 142-517 204-654 166-371 1118-419 1230-155 55 128 17 293-5 492 9 8 477 42 481 6 0 0-56 437-23 918 5 64 475-16 481 48 43 453-61 495-61 495 4 33 317-48 322-13 34 221-37 490-177 749-21 37 448-36 455 7 57 340 68 610 9 1090-5 39 459-339 466-300 70 404-11 840 31 1258 10 97 307-289 334-177 27 110-66 910-21 955 0 0 497-25 541 17 394 370 319 1016 319 1016 108-80 67-858-42-1570-12-75 382-46 370-116 0 0-432-260-574-984-30-155 417-123 417-123-124-285-342-339-527-613-60-90 464-131 464-157 1-273-442-403-671-687-98-121 478-127 478-127-169-235-726-338-1010-649-155-169 565-335 556-364-79-249-756-327-1084-608-68-58 428-254 428-254-50-106-1131-817-581-752 232 28 703 358 740 308 0 0-20-415 28-465 181-188 805 798 1017 758 0 0 78-706 174-725 228-43 506 1028 731 1028 30 0 47-619 163-653 131-38 278 694 444 856 154 149 156-572 246-435 153 221 190 682 399 885 136 132 161-636 312-533 175 119 134 517 331 713 94 93 157-507 264-419 95 77 159 811 261 927 130 148 280-387 415-302 97 62 74 697 164 833 184 282 280-341 402-245 85 65 269 795 346 853 171 130 265-332 395-267 94 46 284 986 362 962 51-16 177-2142-641-3039-1333-1462-3720-2306-5668-2327 0 0 979-195 1005-357 52-323 538-285 877-211 60 13 28-571 36-574 303-7 574 172 864 348 90 55-183-585-87-530 372 215 786 278 1037 539 66 69-76-493-76-493 186-45 553 223 697 474 70 124-4-655 51-517 0 0 648 220 718 493 0 0 53-494 140-468 260 68 488 507 691 570 0 0-84-440-18-423 488 123 1018 425 1017 423-275-688-1318-1409-3153-1602-337-35-1704-91-2863 178-950 220-1700 345-1546 195 628-615 1643-690 1922-833 200-102-673-439-500-487 172-41 952-106 952-106 169-132-567-390-457-582 220-385 1521-35 1632-181 36-49-559-401-534-453 95-195 1253 144 1280-26 0 0-351-262-601-477-30-26 1034-312 1034-312-20-20-182-134-426-229-223-87 934-388 934-388-1466-670-5271 1236-6026 3214-196 472-202-41-161-441 39-430 93-807 47-1202-14-117-311 311-331 197-76-420 149-881 46-1347-34-157-428 463-480 306-144-431 108-1037 6-1631-40-232-413 497-538 289-146-241-82-1134-151-1269-56-108-388 428-416 327-450-1637 148-1841-716-918-30 32-222-968-255-934-354 758-934-540-1132-419-148 92 404 594 410 820 3 109-508 116-508 116 11 187 972 711 1003 916 25 169-680 127-680 127 22 229 823 447 867 690 25 134-375 164-362 300 21 209 774 622 799 835 17 148-481 209-493 347-15 167 1000 727 1001 884 1 222-404 108-588 220-259 157 831 793 877 974 36 159-436 19-452 164-20 190 534 477 661 803 127 322-3 404-185 276-365-257-1837-1821-2228-2238-568-606-1731-1285-2891-1325-121 37 624 564 629 755 1 49-335 122-320 137 206 206 847 451 847 451l-184 331c43 97 347 123 834 283 0 0-365 226-338 247 258 206 758 358 758 358l-492 165c-29 95 1107 550 1107 550s-355 306-339 322c87 87 922 280 922 280 14 14-590 202-586 206 219 219 823 290 964 652 0 0 83 206-156 167-940-341-2396-1047-5219-770-2886 376-5085 2885-5047 3135 0 0 1032-740 1141-590z" style="display:inline;stroke:#000;stroke-width:39.0236;stroke-dasharray:none;stroke-opacity:1" transform="matrix(10.62788 0 0 9.7321 -162305 -58490)"/></g><g stroke="none" style="stroke:#000;stroke-width:39.0236;stroke-dasharray:none;stroke-opacity:1"><path d="M103402 63124c66-100 133-57 200 0l145 7269h-482z" style="fill:#8c4200;fill-opacity:1;stroke:none;stroke-width:39.0236;stroke-dasharray:none;stroke-opacity:1" transform="matrix(10.62788 0 0 9.7321 -162305 -58490)"/><path fill="#8c4200" d="M97604 70148s6037 460 9739-335c0 0 311 211-136 733-447 521-1578 633-2199 745 0 0-149 335-137 509 13 174 392 156 578 118l186-37s-87 652-2372 739c-750 29-3223 81-3746-652 0 0 453 37 571 0s32-509-12-578c-43-68-1603 0-2422-758-203-216-300-446-300-528 0-7 250 44 250 44zm3146 1267s1652 211 3553 0c0 0 50 360-37 497s-2280 242-3386 50c-178-57-184-275-130-547z" style="stroke:none;stroke-width:39.0236;stroke-dasharray:none;stroke-opacity:1" transform="matrix(10.62788 0 0 9.7321 -162305 -58490)"/><path fill="#fdf9ff" d="M98699 69655s1912-2620 1299-7153c2956 1797 5467 4503 6150 7018-2682-677-5049-209-7449 135z" style="stroke:none;stroke-width:39.0236;stroke-dasharray:none;stroke-opacity:1" transform="matrix(10.62788 0 0 9.7321 -162305 -58490)"/><path fill="#c62139" d="M108541 26889S89360 41168 89360 58005c0 16839 19181 31522 19181 31522s19058-13472 19058-31522c0-18049-19058-31116-19058-31116zm-7 3456S91470 43048 91470 58027c0 14981 17064 28044 17064 28044s16955-11985 16955-28044c0-16057-16955-27682-16955-27682z" style="stroke:none;stroke-width:39.0236;stroke-dasharray:none;stroke-opacity:1" transform="matrix(10.62788 0 0 9.7321 -162305 -58490)"/></g></g><circle cx="981239" cy="377989" r="7253" style="display:inline;fill:#8c4200;fill-opacity:1;stroke:#000;stroke-width:396.875;stroke-linecap:round;stroke-linejoin:round;stroke-miterlimit:33;stroke-dasharray:none;stroke-opacity:1;paint-order:markers fill stroke"/><circle cx="980555" cy="389895" r="7253" style="display:inline;fill:#8c4200;fill-opacity:1;stroke:#000;stroke-width:396.875;stroke-linecap:round;stroke-linejoin:round;stroke-miterlimit:33;stroke-dasharray:none;stroke-opacity:1;paint-order:markers fill stroke"/><circle cx="990545" cy="375252" r="7253" style="display:inline;fill:#8c4200;fill-opacity:1;stroke:#000;stroke-width:396.875;stroke-linecap:round;stroke-linejoin:round;stroke-miterlimit:33;stroke-dasharray:none;stroke-opacity:1;paint-order:markers fill stroke"/><circle cx="991640" cy="385379" r="7253" style="display:inline;fill:#8c4200;fill-opacity:1;stroke:#000;stroke-width:396.875;stroke-linecap:round;stroke-linejoin:round;stroke-miterlimit:33;stroke-dasharray:none;stroke-opacity:1;paint-order:markers fill stroke"/><path d="M903994 512283q-502 0-689 446-188 372-251 1041h-752v-10411h752q125 1339 940 1339h18478v892q-1002 74-1002 1264v12344q0 521 125 893 126 372 627 372h313v892q-8519 5354-20170 5354-3946 0-7642-1115-3633-1190-6452-3644t-4572-6172q-1692-3793-1692-8850 0-5056 1691-8775 1754-3792 4573-6246 2819-2528 6452-3718 3696-1264 7642-1264 1566 0 2756 74t2318 297q1127 223 2317 595 1191 298 2819 818 1566 521 2882 1264 1315 670 1691 670 501 0 877-595l751 297-4071 9816-752-520q126-446 126-818 0-521-1065-1116-1065-669-2694-1190-1628-520-3696-892-2004-372-3946-372-2255 0-4322 744-2004 669-3633 2156-1566 1488-2506 3719-939 2156-939 5205 0 2975 1127 5206 1128 2156 2819 3569 1754 1413 3884 2082 2129 670 4197 670 2630 0 4698-372 2129-372 4071-1041v-4908z" style="font-weight:700;font-size:68250.2px;font-family:Copperplate;-inkscape-font-specification:&quot;Copperplate Bold&quot;;fill:#bd0728;stroke-width:639.846;stroke-linecap:round;stroke-linejoin:round;stroke-miterlimit:33;paint-order:markers fill stroke"/><path d="M962304 489181q0-527-295-827-236-377-1356-527v-902h12152v902q-1121 150-1416 527-236 300-236 827v20155q0 4964-1298 8348-1239 3385-3480 5415-2183 2031-5191 2858-2950 752-6312 752-3363 0-6371-752-2950-827-5191-2858-2183-2030-3481-5415-1238-3384-1238-8348v-20155q0-527-295-827-236-377-1357-527v-902h12152v902q-1121 150-1416 527-236 300-236 827v20155q0 4362 1947 6243 1946 1880 5486 1880 3539 0 5486-1880 1946-1881 1946-6243z" style="font-weight:700;font-size:66606.7px;font-family:Copperplate;-inkscape-font-specification:&quot;Copperplate Bold&quot;;fill:#bd0728;stroke-width:624.44;stroke-linecap:round;stroke-linejoin:round;stroke-miterlimit:33;paint-order:markers fill stroke"/><path d="M1009251 525045q0 378 202 605 268 152 1007 152v907h-11884v-907q739-152 1075-454 335-378 671-1286 134-378 671-2042t1410-4160q873-2572 1947-5673t2149-6278q1074-3252 2081-6278 1074-3101 1880-5521 805-2420 1275-3933 537-1513 537-1588 0-379-469-530-403-151-873-227v-907h17523v907q-537 76-873 227t-336 756q0 152 604 1967 672 1815 1679 4765 1007 2874 2283 6580 1342 3631 2752 7488 1410 3782 2686 7413 1343 3630 2417 6504 537 1362 873 1816 402 454 1007 454v907h-13226v-907q1275-76 1275-908 0-76-336-983-335-984-738-2118-403-1210-806-2269-335-1059-403-1437h-15911q-672 2042-1074 3328-403 1285-672 2042-201 756-336 1134-67 303-67 454zm16315-13009-6513-18002-5975 18002z" style="font-weight:700;font-size:71260.5px;font-family:Copperplate;-inkscape-font-specification:&quot;Copperplate Bold&quot;;fill:#bd0728;stroke-width:668.068;stroke-linecap:round;stroke-linejoin:round;stroke-miterlimit:33;paint-order:markers fill stroke"/><path d="M1087908 526097q1227-151 1485-454 323-378 323-908v-27834l-129-151-11498 29347-11369-29650h-129v28288q0 530 259 908 323 303 1550 454v907h-11369v-907q1227-151 1486-454 323-378 323-908v-35246q0-530-323-832-259-378-1486-530v-907h16859v907q-1550 76-1550 1362 0 75 388 1210 387 1135 969 2799 646 1664 1356 3630 775 1891 1421 3706 711 1740 1228 3101 516 1362 710 1816 1098-2875 2261-5597 1163-2723 2067-4992 969-2270 1550-3782 582-1513 582-1891 0-1286-1551-1362v-907h17506v907q-1228 152-1551 530-258 302-258 832v35246q0 530 258 908 323 303 1551 454v907h-12919z" style="font-weight:700;font-size:69897.9px;font-family:Copperplate;-inkscape-font-specification:&quot;Copperplate Bold&quot;;fill:#bd0728;stroke-width:655.292;stroke-linecap:round;stroke-linejoin:round;stroke-miterlimit:33;paint-order:markers fill stroke"/></g><path id="path-b7400" d="m m0 77 m0 65 m0 65 m0 65 m0 65 m0 65 m0 65 m0 65 m0 65 m0 65 m0 65 m0 65 m0 65 m0 65 m0 65 m0 65 m0 65 m0 65 m0 65 m0 65 m0 82 m0 78 m0 47 m0 86 m0 69 m0 90 m0 66 m0 43 m0 85 m0 103 m0 102 m0 55 m0 118 m0 119 m0 119 m0 105 m0 82 m0 87 m0 67 m0 72 m0 101 m0 99 m0 81 m0 65 m0 97 m0 71 m0 55 m0 77 m0 90 m0 114 m0 111 m0 70 m0 77 m0 117 m0 105 m0 121 m0 84 m0 68 m0 83 m0 65 m0 101 m0 54 m0 72 m0 51 m0 89 m0 76 m0 65 m0 88 m0 72 m0 49 m0 86 m0 110 m0 66 m0 75 m0 77 m0 65 m0 75 m0 74 m0 110 m0 71 m0 86 m0 82 m0 88 m0 97 m0 56 m0 81 m0 61 m0 61"/>
</svg>