<svg xmlns="http://www.w3.org/2000/svg" xmlns:xlink="http://www.w3.org/1999/xlink" width="900" height="450" viewBox="0 0 9600 4800"><defs><clipPath id="a"><path d="M0 0h12v6H0z"/></clipPath><clipPath id="b"><path d="M0 0v2h8v2zm6 0H3v4h-5z"/></clipPath></defs><g fill="#012169" clip-path="url(#a)" transform="scale(800)"><path d="M0 0h12v6H0z"/><path stroke="#fff" d="m0 0 6 3M0 3l6-3"/><path d="m0 0 6 3M0 3l6-3" clip-path="url(#b)"/><path stroke="#fff" d="M3 0v4M0 2h7"/><path stroke="#c8102e" d="M3 0v4M0 2h7"/><path d="M0 3h6V0h6v6H0z"/></g><g transform="translate(7200 2400)"><g id="d"><path id="c" fill="#fff" d="m0-1992 81 249h261l-211 153 81 249L0-1494l-212 153 81-249-211-153h261z"/><use xlink:href="#c" transform="rotate(24)"/><use xlink:href="#c" transform="rotate(48)"/></g><use xlink:href="#d" transform="rotate(72)"/><use xlink:href="#d" transform="rotate(144)"/><use xlink:href="#d" transform="rotate(216)"/><use xlink:href="#d" transform="rotate(288)"/></g></svg>