<svg xmlns="http://www.w3.org/2000/svg" xmlns:xlink="http://www.w3.org/1999/xlink" width="800" height="400" viewBox="0 0 9600 4800"><defs><clipPath id="a"><path d="M0 0h12v6H0z"/></clipPath><clipPath id="b"><path d="M0 0v2h8v2zm6 0H3v4h-5z"/></clipPath></defs><g fill="#012169" clip-path="url(#a)" transform="scale(800)"><path d="M0 0h12v6H0z"/><path stroke="#fff" d="m0 0 6 3M0 3l6-3"/><path d="m0 0 6 3M0 3l6-3" clip-path="url(#b)"/><path stroke="#fff" d="M3 0v4M0 2h7"/><path stroke="#c8102e" d="M3 0v4M0 2h7"/><path d="M0 3h6V0h6v6H0z"/></g><g transform="translate(7200 2400)"><g id="d"><path id="c" fill="#fff" d="m0-1992 81 249h261l-211 153 81 249L0-1494l-212 153 81-249-211-153h261z"/><use xlink:href="#c" transform="rotate(24)"/><use xlink:href="#c" transform="rotate(48)"/></g><use xlink:href="#d" transform="rotate(72)"/><use xlink:href="#d" transform="rotate(144)"/><use xlink:href="#d" transform="rotate(216)"/><use xlink:href="#d" transform="rotate(288)"/></g><path id="path-b7371" d="m m0 77 m0 103 m0 65 m0 65 m0 65 m0 65 m0 65 m0 65 m0 65 m0 65 m0 65 m0 65 m0 65 m0 65 m0 65 m0 65 m0 65 m0 65 m0 65 m0 65 m0 81 m0 120 m0 105 m0 73 m0 47 m0 118 m0 108 m0 103 m0 99 m0 86 m0 107 m0 101 m0 52 m0 106 m0 67 m0 117 m0 70 m0 71 m0 106 m0 117 m0 82 m0 113 m0 88 m0 66 m0 71 m0 79 m0 112 m0 68 m0 79 m0 82 m0 90 m0 71 m0 115 m0 53 m0 98 m0 122 m0 118 m0 66 m0 105 m0 107 m0 118 m0 88 m0 53 m0 104 m0 83 m0 101 m0 112 m0 75 m0 43 m0 76 m0 103 m0 87 m0 77 m0 70 m0 102 m0 114 m0 81 m0 106 m0 77 m0 74 m0 121 m0 90 m0 55 m0 111 m0 56 m0 103 m0 61 m0 61"/>
</svg>