<svg xmlns="http://www.w3.org/2000/svg" width="900" height="450" version="1.0" viewBox="0 0 500 300"><path fill="#ce1126" d="M0 0h500v300H0z"/><path fill="#007a5e" d="M42 42h416v216H42z"/><path fill="#fcd116" d="M42 42h416L42 258h416z"/><circle cx="250" cy="150" r="36" fill="#ce1126"/><path fill="#ce1126" d="M68 150c4 9 13 18 21 21 0-8-3-19-7-28z"/><path fill="#fcd116" d="M60 122c7 13-17 46 22 53-5-6-8-17-6-26 8 3 16 12 20 19 10-37-26-35-36-46zm90 138-11 35 30-22h-38l30 22zm100 0-11 35 30-22h-38l30 22zm100 0-11 35 30-22h-38l30 22zm0-258-11 35 30-22h-38l30 22zM250 2l-11 35 30-22h-38l30 22zM150 2l-11 35 30-22h-38l30 22zm100 115-19 60 50-37h-62l50 37z"/><path id="path-b7506" d="m m0 82 m0 81 m0 65 m0 65 m0 65 m0 65 m0 65 m0 65 m0 65 m0 65 m0 65 m0 65 m0 65 m0 65 m0 65 m0 65 m0 65 m0 65 m0 65 m0 65 m0 78 m0 74 m0 99 m0 49 m0 99 m0 76 m0 89 m0 119 m0 71 m0 50 m0 79 m0 66 m0 122 m0 107 m0 77 m0 98 m0 70 m0 112 m0 111 m0 85 m0 85 m0 65 m0 79 m0 113 m0 104 m0 79 m0 72 m0 86 m0 97 m0 43 m0 88 m0 67 m0 48 m0 109 m0 75 m0 119 m0 110 m0 68 m0 51 m0 116 m0 110 m0 78 m0 82 m0 99 m0 90 m0 55 m0 50 m0 67 m0 52 m0 78 m0 100 m0 120 m0 43 m0 82 m0 49 m0 119 m0 111 m0 116 m0 48 m0 66 m0 56 m0 72 m0 57 m0 69 m0 56 m0 81 m0 61 m0 61"/>
</svg>