<svg height="630" width="990" xmlns="http://www.w3.org/2000/svg"><path d="m0 0h990v630h-990z" fill="#0072ce"/><path d="m0 210h990v420h-990z"/><path d="m0 420h990v210h-990z" fill="#fff"/><path id="path-b7296" d="m m0 79 m0 81 m0 65 m0 65 m0 65 m0 65 m0 65 m0 65 m0 65 m0 65 m0 65 m0 65 m0 65 m0 65 m0 65 m0 65 m0 65 m0 65 m0 65 m0 65 m0 81 m0 57 m0 71 m0 98 m0 84 m0 51 m0 99 m0 47 m0 121 m0 102 m0 119 m0 104 m0 72 m0 103 m0 101 m0 80 m0 71 m0 51 m0 115 m0 87 m0 72 m0 116 m0 120 m0 101 m0 56 m0 99 m0 65 m0 98 m0 80 m0 72 m0 100 m0 87 m0 100 m0 76 m0 112 m0 70 m0 83 m0 53 m0 76 m0 83 m0 106 m0 113 m0 75 m0 116 m0 115 m0 82 m0 105 m0 88 m0 53 m0 121 m0 107 m0 53 m0 119 m0 54 m0 105 m0 113 m0 85 m0 54 m0 104 m0 68 m0 121 m0 81 m0 108 m0 65 m0 106 m0 81 m0 61 m0 61"/>
</svg>