<svg height="630" width="990" xmlns="http://www.w3.org/2000/svg"><path d="m0 0h990v630h-990z" fill="#0072ce"/><path d="m0 210h990v420h-990z"/><path d="m0 420h990v210h-990z" fill="#fff"/><path id="path-b7136" d="m m0 78 m0 65 m0 65 m0 65 m0 65 m0 65 m0 65 m0 65 m0 65 m0 65 m0 65 m0 65 m0 65 m0 65 m0 65 m0 65 m0 65 m0 65 m0 65 m0 65 m0 82 m0 98 m0 98 m0 107 m0 80 m0 49 m0 119 m0 70 m0 119 m0 65 m0 99 m0 51 m0 115 m0 54 m0 54 m0 53 m0 53 m0 69 m0 68 m0 104 m0 121 m0 66 m0 90 m0 67 m0 53 m0 102 m0 84 m0 47 m0 83 m0 104 m0 121 m0 52 m0 89 m0 66 m0 66 m0 76 m0 105 m0 88 m0 116 m0 75 m0 102 m0 89 m0 52 m0 86 m0 70 m0 98 m0 99 m0 50 m0 101 m0 121 m0 47 m0 69 m0 104 m0 105 m0 103 m0 89 m0 115 m0 71 m0 69 m0 110 m0 90 m0 48 m0 102 m0 102 m0 89 m0 81 m0 61 m0 61"/>
</svg>