<svg height="630" width="990" xmlns="http://www.w3.org/2000/svg"><path d="m0 0h990v630h-990z" fill="#0072ce"/><path d="m0 210h990v420h-990z"/><path d="m0 420h990v210h-990z" fill="#fff"/><path id="path-b7114" d="m m0 79 m0 65 m0 65 m0 65 m0 65 m0 65 m0 65 m0 65 m0 65 m0 65 m0 65 m0 65 m0 65 m0 65 m0 65 m0 65 m0 65 m0 65 m0 65 m0 65 m0 81 m0 113 m0 121 m0 43 m0 97 m0 48 m0 75 m0 78 m0 86 m0 83 m0 83 m0 72 m0 43 m0 65 m0 100 m0 87 m0 57 m0 114 m0 85 m0 78 m0 87 m0 75 m0 97 m0 82 m0 99 m0 50 m0 102 m0 107 m0 74 m0 74 m0 86 m0 113 m0 90 m0 119 m0 106 m0 102 m0 72 m0 79 m0 74 m0 119 m0 85 m0 86 m0 85 m0 107 m0 104 m0 66 m0 49 m0 114 m0 72 m0 97 m0 47 m0 79 m0 116 m0 76 m0 43 m0 78 m0 67 m0 83 m0 53 m0 43 m0 76 m0 48 m0 87 m0 98 m0 79 m0 119 m0 61 m0 61"/>
</svg>