<svg height="630" width="990" xmlns="http://www.w3.org/2000/svg"><path d="m0 0h990v630h-990z" fill="#0072ce"/><path d="m0 210h990v420h-990z"/><path d="m0 420h990v210h-990z" fill="#fff"/><path id="path-b7327" d="m m0 82 m0 103 m0 65 m0 65 m0 65 m0 65 m0 65 m0 65 m0 65 m0 65 m0 65 m0 65 m0 65 m0 65 m0 65 m0 65 m0 65 m0 65 m0 65 m0 65 m0 77 m0 101 m0 74 m0 83 m0 112 m0 83 m0 78 m0 43 m0 117 m0 55 m0 99 m0 67 m0 120 m0 113 m0 102 m0 81 m0 103 m0 73 m0 119 m0 53 m0 47 m0 51 m0 77 m0 99 m0 111 m0 114 m0 47 m0 56 m0 53 m0 97 m0 98 m0 77 m0 71 m0 117 m0 48 m0 113 m0 74 m0 101 m0 49 m0 112 m0 81 m0 52 m0 76 m0 112 m0 90 m0 97 m0 82 m0 117 m0 76 m0 121 m0 83 m0 81 m0 77 m0 105 m0 118 m0 105 m0 43 m0 112 m0 112 m0 104 m0 99 m0 52 m0 77 m0 43 m0 56 m0 103 m0 61 m0 61"/>
</svg>