<svg xmlns="http://www.w3.org/2000/svg" xmlns:xlink="http://www.w3.org/1999/xlink" width="200" height="100"><path fill="#00843d" d="M0 0h900v600H0z"/><g fill="#fff"><path d="M447 67a75 75 0 1 1-78 125 74 74 0 0 0 104-65c1-24-9-46-26-60z"/><path id="a" d="m376 121 8-26-22 16h27l-22-16z"/><use xlink:href="#a" height="600" y="-38"/><use xlink:href="#a" x="38" y="-19"/><use xlink:href="#a" x="-38" y="19"/><use xlink:href="#a" height="600" y="38"/></g><path d="M108 0h162v600H108z" style="fill:#d22630"/><g id="b" style="fill:#383739"><path d="M108-40v6l9 9-3 3 7 6-3 2v-3h-6v4l13 12h6l1-4h-4l4-4 10 9-10 9-4-4h4l-1-4h-6l-13 12v4h6v-3l3 2-7 6 3 3-9 9v6l15-15-3-3 7-6-6-5 4-3 7 6 16-14-16-14-7 6-4-3 6-5-7-6 3-3-15-15zm0 29v22l4-4V3h3l3-3-3-3h-3v-4l-4-4zm26 8v6l4-3z"/><path d="M108-39v5l10 9-3 3 6 6-4 3v-4h-4v4l12 11h6v-3h-4l5-5 11 10-11 10-5-5h4V2h-6l-12 11v4h4v-4l4 3-6 6 3 3-10 9v5l15-14-3-3 6-6-5-5 4-4 7 7 15-14-15-14-7 7-4-4 5-5-6-6 3-3-15-14zm0 29v20l3-3V3h4l3-3-3-3h-4v-4l-3-3zm27 8-1 2 1 2 2-2z" style="fill:#ffc72c"/></g><use xlink:href="#b" width="100%" height="100%" y="109" style="fill:#383739"/><use xlink:href="#b" width="100%" height="100%" y="222" style="fill:#383739"/><use xlink:href="#b" width="100%" height="100%" y="335" style="fill:#383739"/><use xlink:href="#b" width="100%" height="100%" y="448" style="fill:#383739"/><g style="fill:#383739" transform="matrix(-1 0 0 1 378 0)"><path d="M108-40v6l9 9-3 3 7 6-3 2v-3h-6v4l13 12h6l1-4h-4l4-4 10 9-10 9-4-4h4l-1-4h-6l-13 12v4h6v-3l3 2-7 6 3 3-9 9v6l15-15-3-3 7-6-6-5 4-3 7 6 16-14-16-14-7 6-4-3 6-5-7-6 3-3-15-15zm0 29v22l4-4V3h3l3-3-3-3h-3v-4l-4-4zm26 8v6l4-3z"/><path d="M108-39v5l10 9-3 3 6 6-4 3v-4h-4v4l12 11h6v-3h-4l5-5 11 10-11 10-5-5h4V2h-6l-12 11v4h4v-4l4 3-6 6 3 3-10 9v5l15-14-3-3 6-6-5-5 4-4 7 7 15-14-15-14-7 7-4-4 5-5-6-6 3-3-15-14zm0 29v20l3-3V3h4l3-3-3-3h-4v-4l-3-3zm27 8-1 2 1 2 2-2z" style="fill:#ffc72c"/><use xlink:href="#b" width="100%" height="100%" y="109"/><use xlink:href="#b" width="100%" height="100%" y="222"/><use xlink:href="#b" width="100%" height="100%" y="335"/><use xlink:href="#b" width="100%" height="100%" y="448"/></g><path d="M121 531c1 3 4 6 4 9 2-3 3-6 2-10-1-3-3-5-3-8-3 2-4 5-3 9zm-1 14c3 3 6 6 9 7l2-7c2-2 3-5 1-8l-2 4c-2 2-3 4-3 7-2-1-2-3-3-5l-7-7 3 9zm13 9-1 5-5-4-7-5c0 3 2 6 5 8 3 3 7 4 10 6-1-3 0-6 1-9 1-2 0-5-2-8 1 3 0 5-1 7zm7 11 4 7-9-4c-4-2-8-3-11-6 1 6 5 9 11 11l12 3c0-4-1-7-3-10l-3-7c-1 2-2 4-1 6zm12 9 5 5c-5 1-9-2-13-2h-9l11 5h17c-3-2-4-5-6-8s-5-6-9-6l4 6zm17 8-25 4c10 3 19 3 28 0l13-3c5 1 12 3 20 11l2-2a45 45 0 0 0-38-10z" style="fill:#ffc72c"/><path d="m128 70-13-8V43l13-8V25l13-7h9l19-11h40l19 11h9l13 7v10l13 8v19l-13 8v10l-13 8h-9l-19 10h-40l-19-10h-9l-13-8z" style="fill:#383739"/><path d="m169 8-19 10h-9l-12 7v11l-13 7v19l13 8v10l12 7h9l19 11h40l19-11h9l12-7V70l13-8V43l-13-7V25l-12-7h-9L209 8h-40zm1 4h38l18 10h10l9 6v10l13 8v14l-13 8v10l-9 6h-10l-18 10h-38l-18-10h-10l-9-6V68l-13-8V46l13-8V28l9-6h10z" style="fill:#00843d"/><path d="M189 53V12h-19l-18 11h-10l-9 5v10l-13 8v7h69v41h19l18-11h10l9-5V68l13-8v-7z" style="fill:#ffc72c"/><path d="M120 53v7l13 8v10l9 5h10l18 11h19V53h69v-7l-13-8V28l-9-5h-10l-18-11h-19v41z" style="fill:#fff"/><g id="d" style="fill:#383739"><g id="c"><path d="m148 26-3-3-3 2 3 3-4 3h9l8 7 2-3-7-7v-4z"/><path d="m164 25-4-3-3 2 3 3-4 2h9l8 8 2-3-7-7v-5zm-17 10-3-3-3 2 3 3-4 2h9l8 8 2-3-7-7v-5z"/><path d="M189 12h-8l-4 4h-9l-6 3 2 3 5-3h3l8 10 9-5z"/><path d="m145 24 3 3-2 1-3-3zm7 0v5l8 6-2 2-8-7h-7l9-6zm8-1 3 2-2 2-3-3zm8 0v4l7 7-2 2-8-7h-7l10-6z" style="fill:#d22630"/><path d="m144 32 3 3-2 2-3-3zm7 1v4l8 7-2 2-8-7h-7l9-6zm38-21h-8l-4 4h-8l-6 3 1 3 5-3h3l8 10 9-6z" style="fill:#d22630"/></g><use xlink:href="#c" width="100%" height="100%" transform="matrix(1 0 0 -1 0 106)"/><path d="m143 40-4-2-5 4v1l-8 10 8 10v1l5 3 4-1-2-2v-3l1-1h4V45h-4l-1-1v-3z"/><path d="m135 42 4-3 3 1-2 1v3l1 2h4v14h-4l-1 1v4l2 1-3 1-4-3v-1l-8-10 8-10z" style="fill:#d22630"/></g><use xlink:href="#d" width="100%" height="100%" style="fill:#383739" transform="matrix(-1 0 0 1 378 0)"/><path d="m136 61-2-2v-1l-5-5 5-6v-1l2-2 4 4-2-1 3 4h8l6-5V34h15l17-11v-3l-3-1-3 2-1 1-2-3 4-4h1l5-3h2l5 3h1l4 4-2 3-1-1-3-2-3 1v3l17 11h15v12l6 5h8l3-4-2 1 4-4 2 2v1l5 6-5 5v1l-2 2-4-3h2l-3-3h-8l-6 4v13h-15l-17 10v3l3 2 3-2 1-1 2 3-4 3h-1l-5 4h-2l-5-4h-1l-4-3 2-3 1 1 3 2 3-2v-3l-17-10h-15V59l-6-4h-8l-3 3h2z" style="fill:#383739"/><path d="m189 87 2 2-2 1v-3zm-6 3 5 4h1v-3l-3-2 3-2v-6l-19-11h-14V59l-7-6h-10l-3 3-3-3h-3l4 5v1l2 2 3-2h-2v-1l4-4h8l6 5v12h15l18 11v3l-3 2h-2l-3-2-1 2 4 3zm-47-40 2 3h-4zm53-35-2 2 2 1zm51 38 2 2 2-2zm-45-37-5-4h-1v3l3 2-3 2v5l19 12h14v11l7 6h10l3-3 3 3h3l-4-6v-1l-2-1-3 2h2v1l-4 3h-8l-6-5V34h-15l-18-11v-3l3-2h2l3 2v1l1-2-4-3z" style="fill:#ffc72c"/><path d="m189 90-2-1 2-2zm-51-37-2 2-2-2zm57 37-5 4h-1v-3l3-2-3-2v-6l19-11h14V59l7-6h10l3 3 3-3h3l-4 5v1l-2 2-3-2h2v-1l-4-4h-8l-6 5v12h-15l-18 11v3l3 2h2l3-2 1 2-4 3zm47-40-2 3h4zm-59-34 5-4h1v3l-3 2 3 2v5l-19 12h-14v11l-7 6h-10l-3-3-3 3h-3l4-6v-1l2-1 3 2h-2v1l4 3h8l6-5V34h15l18-11v-3l-3-2h-2l-3 2v1l-1-2 4-3zm6 2 2-1-2-2z" style="fill:#fff"/><path d="M189 53V25l-19 11h-13v11l-7 6h39v28l19-11h13V58l7-5z" style="fill:#00843d"/><path d="m150 53 7 5v12h13l19 11V53h39l-7-6V36h-13l-19-11v28z" style="fill:#d22630"/><path d="m169 39-3-3-3 2 3 3-4 3h9l8 7 2-3-7-7v-5zm40 28 3 3 3-2-3-3 4-3h-9l-8-7-2 2 7 7v5zm-40 0-3 3-3-2 3-3-4-3h9l8-7 2 2-7 7v5zm40-28 3-3 3 2-3 3 4 3h-9l-8 7-2-3 7-7v-5z" style="fill:#383739"/><path d="m212 69-3-3 3-1 3 3zm-7 0v-5l-7-7 1-2 8 7h8l-10 7zm-39-32 3 2-3 2-3-3zm7 0v4l7 7-1 2-8-7h-8l10-6z" style="fill:#d22630"/><path d="m212 37-3 2 3 2 3-3zm-7 0v4l-7 7 1 2 8-7h8l-10-6zm-39 32 3-3-3-1-3 3zm7 0v-5l7-7-1-2-8 7h-8l10 7z" style="fill:#00843d"/><path d="m209 53-20 13-20-13 20-13Z" style="fill:#383739"/><path d="m189 40-19 13h38l-19-13v25l19-12h-38l19 12z" style="fill:#fff"/><path d="M194 57v4h-10v-4h-7v-9h7v-3h10v3h7v9z" style="fill:#383739"/><path d="M184 45v4h-7v4h12v-8h-5zm5 8h12v-4h-7v-4h-5v8zm-12 0v4h7v4h5v-8h-12Zm12 8h5v-4h7v-4h-12v8z" style="fill:#d22630"/><path d="M223 204v-6h16v-6h16v-53h-16v-6h-16v-5h-16v-6h-36v6h-16v5h-16v6h-16v53h16v6h16v6h16v5h36v-5Z" style="fill:#383739"/><path d="M172 122v6h-16v6h-16v6h-16v52h16v5h16v6h16v6h34v-6h16v-6h16v-5h16v-52h-16v-6h-16v-6h-16v-6zm4 4h26v6h16v6h16v6h16v43h-16v6h-16v6h-16v6h-26v-6h-16v-6h-16v-6h-16v-43h16v-6h16v-6h16z" style="fill:#ffc72c;fill-opacity:1"/><path d="M160 199v-6h-16v-6h-16v-43h16v-5h16v-6h16v-6h26v6h16v6h16v5h16v43h-16v6h-16v6h-16v5h-26v-5z" style="fill:#d22630"/><path d="m164 137-4-3v6l-4 2v-3l-4 3-4-3v3l-4-2v5l-4 3v-4l-4 3-4-3v4l-4-3v17h-5v7h5v17l4-3v4l4-3 4 3v-4l4 3v6l4-3v4l4-4 4 4v-4l4 2v6l4-3v4l4-3 4 3v-4l4 3v6l5-5v6l8-5 8 5v-6l5 5v-6l4-3v4l4-3 4 3v-4l4 3v-6l4-2v4l4-4 4 4v-4l4 3v-6l4-3v4l4-3 4 3v-4l4 3v-17h5v-7h-5v-17l-4 3v-4l-4 3-4-3v4l-4-3v-5l-4 2v-3l-4 3-4-3v3l-4-2v-6l-4 3v-4l-4 3-4-3v4l-4-3v-6l-5 5v-6l-8 5-8-5v6l-5-5v6l-4 3v-4l-4 3-4-3z" style="fill:#383739"/><path d="M132 149v-4l4 3 4-3v4l4-3v39l-4-2v3l-4-3-4 3v-3l-4 2v-16h-4v-7h4v-16zm32-15 4 3 4-3v4l4-3v61l-4-3v4l-4-3-4 3v-4l-4 3v-61l4 3zm50 0-4 3-4-3v4l-4-3v61l4-3v4l4-3 4 3v-4l4 3v-61l-4 3zm32 15v-4l-4 3-4-3v4l-4-3v39l4-2v3l4-3 4 3v-3l4 2v-16h4v-7h-4v-16z" style="fill:#00843d"/><path d="m149 140 3 3 3-3v3l5-3v51l-5-3v4l-3-3-3 3v-4l-5 3v-51l5 3zm33-6-6-5v73l6-5v7l7-5 7 5v-7l6 5v-73l-6 5v-6l-7 4-7-4zm47 6-3 3-3-3v3l-5-3v51l5-3v4l3-3 3 3v-4l5 3v-51l-5 3z" style="fill:#ffc72c"/><g id="f" style="fill:#383739"><g id="e"><path d="m134 158 2 1 2-1 1-6-2 2-1-2-1 2-2-2 1 6zm17-4-1-1v-3l-3 3 5 5 5-5-3-3v3l-1 1v-4l2-2-3-3-3 3 2 2zm16-5-1-1v-3l-3 3 5 5 5-5-3-3v3l-1 1v-4l2-2-3-3-3 3 2 2z"/><path d="m136 153 1 2 2-2-2 5a2 2 0 0 1-2 0l-2-5 2 2 1-2zm33-9v6l2-2v-2l2 2-5 5-5-5 2-2v2l2 2v-6l-2-1 3-3 3 3z" style="fill:#fff"/><path d="M153 149v6l2-2v-2l2 2-5 5-5-5 2-2v2l2 2v-6l-2-1 3-3 3 3z" style="fill:#d22630"/></g><use xlink:href="#e" width="100%" height="100%" transform="matrix(-1 0 0 1 378 0)"/><path d="m195 151-1-2 4-5-4-3v3l-2 1v-4l4-3-7-5-7 5 4 3v4l-2-1v-3l-4 3 4 5-1 2z"/><path d="m184 151 1-2-4-4 3-3v2l2 2v-6l-3-2 6-5 6 5-3 2v6l2-2v-2l3 3-4 4 1 2z" style="fill:#d22630"/><path d="m186 138 3 2 3-2-3-3z"/><path d="m189 136 2 2-2 2-2-2 2-2z" style="fill:#00843d"/></g><use xlink:href="#f" width="100%" height="100%" style="fill:#383739" transform="matrix(1 0 0 -1 0 331)"/><path d="M246 163h-7v-3h-22l-15-9h-26l-15 9h-22v3h-7v5h7v3h22l15 10h26l15-10h22v-3h7z" style="fill:#383739"/><path d="m176 151-15 10h-21v3h-7v4h7v2h21l15 10h26l15-10h21v-2h7v-4h-7v-3h-21l-15-10Zm0 1h26l14 9v2h15v5h-15v2l-14 9h-26l-14-9v-2h-15v-5h15v-2z" style="fill:#d22630"/><path d="m202 153 13 9v1h16v5h-16v2l-13 8h-26l-13-8v-2h-16v-5h16v-1l13-9z" style="fill:#d22630"/><g style="fill:#383739"><path d="m170 171 5 4 4-3-2-2-2 2-1-1 22-17h-5zm12 6h5l21-16-5-5-4 3 2 2 2-1 1 1zm9 0h5l-22-16 1-1 2 1 2-2-4-3-5 5zm13-6-1 1-2-2-2 2 4 3 5-4-21-17h-5zm-39-5 4 2 4-2-4-3z"/><path d="m185 166 4 2 4-2-4-3zm28 0-4 2-4-2 4-3z"/><path d="m208 171-5 3-3-2 1-1 2 1 2-1-22-16h3zm-13 6h-3l-22-16 5-4 3 2-1 1-2-1-2 2zm-9 0h-3l22-16-2-2-2 1-1-1 3-2 5 4zm6-22h3l-22 16 2 1 2-1 1 1-3 2-5-3z" style="fill:#ffc72c"/><path d="m169 164 3 2-3 2-3-2zm20 0 3 2-3 2-3-2zm20 0-3 2 3 2 3-2z" style="fill:#00843d"/></g><g style="fill:#383739"><path d="m121 274-2 2 3 2-3 3 2 2h3l3-2 7 5v-5l-4-3 4-3v-4l-7 5-3-2zm0-14-2 2 3 2-3 2 2 3h3l3-2 7 4v-4l-4-3 4-3v-4l-7 5-3-2z"/><path d="m121 297-2-2 3-3-3-2 2-2h3l3 2 7-5v4l-4 3 4 4v4l-7-5-3 2zm136-23 2 2-3 2 3 3-2 2h-3l-3-2-7 5v-5l4-3-4-3v-4l7 5 3-2zm0-14 2 2-3 2 3 2-2 3h-3l-3-2-7 4v-4l4-3-4-3v-4l7 5 3-2z"/><path d="m257 297 2-2-3-3 3-2-2-2h-3l-3 2-7-5v4l4 3-4 4v4l7-5 3 2zm-30-61v6h4v2h4v-5h-4v-3Zm12 9v6h5v2h4v-4h-4v-4zm-88-9v6h-4v2h-4v-5h4v-3Zm76 85v-6h4v-2h4v4h-4v4zm-76 0v-6h-4v-2h-4v4h4v4zm88-9v-6h5v-3h4v5h-4v4zm-100-67v6h-5v2h-4v-4h4v-4zm0 67v-6h-5v-3h-4v5h4v4zm66-76-3-4-4 3 3 3-4 4h6l2-2 2 2h5l-4-4 3-3-3-3-3 4zm-16 0-3-4-3 3 2 3-3 4h5l2-2 2 2h5l-3-4 2-3-3-3-3 4zm-16 0 3-4 4 3-3 3 3 4h-5l-2-2-2 2h-5l4-4-3-3 3-3 3 4zm32 85-3 3-4-3 3-2-4-4h6l2 2 2-2h5l-4 4 3 2-3 3-3-3zm-16 0-3 3-3-3 2-2-3-4h5l2 2 2-2h5l-3 4 2 2-3 3-3-3zm-16 0 3 3 4-3-3-2 3-4h-5l-2 2-2-2h-5l4 4-3 2 3 3 3-3z"/></g><path d="M134 282v3l-7-5-3 3-3-1-1-1 2-3-2-2 1-1 3-1 3 3 7-5v3l-5 3zm0-14v3l-7-5-3 3-3-1-1-1 2-3-2-2 1-2h3l3 3 7-5v3l-5 3zm0 21v-3l-7 5-3-3-3 1-1 1 2 2-2 3 1 1 3 1 3-3 7 5v-3l-5-4zm110-7v3l7-5 3 3 3-1 1-1-2-3 2-2-1-1-3-1-3 3-7-5v3l5 3zm0-14v3l7-5 3 3 3-1 1-1-2-3 2-2-1-2h-3l-3 3-7-5v3l5 3zm0 21v-3l7 5 3-3 3 1 1 1-2 2 2 3-1 1-3 1-3-3-7 5v-3l5-4zm-13-53v4h4v4h-4v-3h-4v-5zm13 9v4h3v4h-3v-3h-4v-5zm-97-9v4h-4v4h4v-3h4v-5zm84 85v-4h4v-4h-4v3h-4v5zm-84 0v-4h-4v-4h4v3h4v5zm97-10v-3h3v-4h-3v2h-4v5zm-110-66v4h-3v4h3v-3h4v-5zm0 66v-3h-3v-4h3v2h4v5zm67-78 4 3 3-3 3 2-3 3 3 3h-4l-2-2-2 2h-4l3-3-3-3 2-2zm-15 0 3 3 3-3 3 2-3 3 3 3h-4l-2-2-2 2h-4l3-3-3-3 3-2zm-9 0-4 3-3-3-3 2 3 3-3 3h4l2-2 2 2h4l-3-3 3-3-2-2zm24 91 4-3 3 3 3-3-3-2 3-3h-4l-2 2-2-2h-4l3 3-3 2 2 3zm-15 0 3-3 3 3 3-3-3-2 3-3h-4l-2 2-2-2h-4l3 3-3 2 3 3zm-9 0-4-3-3 3-3-3 3-2-3-3h4l2 2 2-2h4l-3 3 3 2-2 3z" style="fill:#00843d"/><path d="M147 306v10h84v-10h13v-56h-13v-9h-84v9h-13v56z" style="fill:#383739"/><path d="M147 242v9h-13v55h13v9h84v-9h13v-55h-13v-9h-84zm5 3h74v9l3 2h11v45h-11l-3 2v9h-74v-9l-3-2h-11v-45h11l3-2v-9z" style="fill:#ffc72c;fill-opacity:1"/><path d="M153 246v8l11-8zm61 0 11 8v-8Zm-76 11v7l11-7h-11Zm91 0 11 7v-7zm11 35-11 8h11zm-102 0v8h11zm15 11v8h11zm72 0-11 8h11z" style="fill:#d22630"/><path d="m213 246 27 19v27l-27 19h-48l-27-19v-27l27-19z" style="fill:#00843d"/><path d="m145 295-3-3 2-4-2-3 2-3-2-4 2-3-2-3 2-3-2-4 3-3h88l3 3-2 4 2 3-2 3 2 3-2 4 2 3-2 3 2 4-3 3zm61-45-4-3-3 3-3-3-4 3-3-3-3 3-4-3-3 3-3-3-4 3v57l4 3 3-3 3 3 4-3 3 3 3-3 4 3 3-3 3 3 4-3z" style="fill:#383739"/><g style="fill:#ffc72c"><path d="m199 250-3-3-4 3v57l4 2 3-2zm-13 0-4-3-3 3v57l3 2 4-2z"/><path d="m145 295-3-3 3-4h88l3 4-3 3zm88-20 3 3-3 3h-88l-3-3 3-3zm0-7 3-3-3-3h-88l-3 3 3 3z"/></g><g style="fill:#d22630"><path d="m205 250-3-3-3 3v57l3 2 3-2zm-26 0-3-3-3 3v57l3 2 3-2z"/><path d="m145 288-3-3 3-3h88l3 3-3 3zm0-13-3-3 3-3h88l3 3-3 3z"/><path d="m192 307-3 2-3-2v-57l3-3 3 3z"/></g><path d="M219 251h-60v5h-7v45h7v5h60v-5h7v-45h-7v-5Z" style="fill:#383739"/><path d="M160 252v4h-8v45h8v4h6l-13-10v-33l13-10h-6Zm52 0 13 10v33l-13 10h6v-4h8v-45h-8v-4h-6z" style="fill:#d22630"/><g style="fill:#00843d"><path d="m167 252-13 10v33l13 10h44l13-10v-33l-13-10zm0 1h44l11 10v31l-11 9h-44l-11-9v-31z"/><path d="m179 294 2 1v2l-2 3 3 3h-3l-3-2-2 2h-4l4-3-3-3 1-2 2-1 2 2zm12 0 2 1 1 2-3 3 4 3h-4l-2-2-2 2h-4l4-3-3-3 1-2 2-1 2 2zm8 0-2 1v2l2 3-3 3h3l3-2 2 2h4l-4-3 3-3-1-2-2-1-2 2zm-20-31 2-1v-3l-2-2 3-3h-3l-3 2-2-2h-4l4 3-3 2 1 3 2 1 2-2zm12 0 2-1 1-3-3-2 4-3h-4l-2 2-2-2h-4l4 3-3 2 1 3 2 1 2-2zm8 0-2-1v-3l2-2-3-3h3l3 2 2-2h4l-4 3 3 2-1 3-2 1-2-2zm23 3-2 2 2 1v3l-3-2-2 2-3-1v-1l2-2-2-2v-2h3l2 2 3-3zm0 11-2 1 2 2v3l-3-3-2 2h-3v-2l2-2-2-2v-1h3l2 2 3-3zm0 14-2-2 2-2v-2l-3 2-2-2-3 1v1l2 2-2 2v2h3l2-2 3 2zm-66-25 2 2-2 1v3l3-2 2 2 3-1v-1l-2-2 2-2v-2h-3l-2 2-3-3zm0 11 2 1-2 2v3l3-3 2 2h3v-2l-2-2 2-2v-1h-3l-2 2-3-3zm0 14 2-2-2-2v-2l3 2 2-2 3 1v1l-2 2 2 2v2h-3l-2-2-3 2z"/></g><path d="m167 254-11 9 3 2 2-1h3l1 2-2 2 2 2-1 2h-3l-2-2-3 3v1l3 2 2-2 3 1 1 1-2 2 2 2-1 2-3 1-2-2-3 2v1l3 3 2-2h3l1 2-2 2 2 2-1 2h-3l-2-2-3 3 11 9h3l3-3-2-2v-3l3-1 2 2 3-2 2 1 1 3-3 2 4 3 3-3-2-2v-3l3-1 2 2 2-2 3 1v3l-2 2 3 3 4-3-2-2v-3l2-1 3 2 2-2 3 1v3l-2 2 3 3h3l11-9-3-3-2 2h-3l-1-2 2-2-2-2 1-2h3l2 2 3-3v-1l-3-2-2 2-3-1-1-2 2-2-2-2 1-1 3-1 2 2 3-2v-1l-3-3-2 2h-3l-1-2 2-2-2-2 1-2h3l2 1 3-2-11-9h-3l-3 3 2 2v3l-3 1-2-2-3 2-2-1v-3l2-2-4-3-3 3 2 2v3l-3 1-2-2-2 2-3-1v-3l2-2-3-3-4 3 3 2-1 3-2 1-3-2-2 2-3-1v-3l2-2-3-3zm-11 23v3l1-2z" style="fill:#d22630"/><path d="m176 301-2 2h4zm13 0-2 2h4zm13 0-2 2h4zm-28-47 2 2 2-2zm13 0 2 2 2-2zm13 0 2 2 2-2zm22 13-1 1 1 1zm0 10-1 1 1 1zm0 11-1 1 1 1zm-66-21v2l1-1zm0 10v3l1-2zm0 11v2l1-1z" style="fill:#fff"/><g style="fill:#383739"><path d="M200 275v-4h-4v-4h-14v4h-4v4h-5v7h5v4h4v4h14v-4h4v-4h5v-7z"/><path d="M189 267v5l-6 3v3h-10v-3h6v-4h3v-4zm0 22v-4l6-3v-3h10v3h-6v3h-3v4z" style="fill:#ffc72c"/><path d="M195 278v-3l-6-3v-5h7v4h3v4h6v3zm-22 1h10v3l6 3v4h-7v-4h-3v-3h-6z" style="fill:#fff"/><path d="M183 279v3l6 3v-6z" style="fill:#d22630"/><path d="m189 272-6 3v3h6z" style="fill:#00843d"/><path d="M195 278v-3l-6-3v6z" style="fill:#d22630"/><path d="m189 285 6-3v-3h-6z" style="fill:#00843d"/></g><path d="M138 354v11h-12v11h-11v30h11v11h12v12h40l7 4-3 2h-15l-1-1h13l-3-4h-19l8 9h18l6-4 6 4h18l8-9h-19l-3 4h13l-1 1h-15l-3-2 7-4h40v-12h12v-11h11v-30h-11v-11h-12v-11h-40l-7-5 3-2h15l1 2h-13l3 4h19l-8-9h-18l-6 3-6-3h-18l-8 9h19l3-4h-13l1-2h15l3 2-7 5z" style="fill:#d22630;fill-opacity:1"/><path d="M200 428h40v-11h11v-11h11v-30h-11v-10h-11v-12h-40l-17-10h-17l-8 8h17l3-3h-13l2-2h15l19 11h35v12h11v11h11v21h-11v10h-11v12h-35l-19 11h-15l-2-2h13l-3-3h-17l8 8h17zm-23-4h-35v-12h-11v-10h-11v-21h11v-11h11v-12h35l19-11h15l2 2h-13l3 3h17l-8-8h-17l-17 10h-40v12h-11v10h-11v30h11v11h11v11h40l17 10h17l8-8h-17l-3 3h13l-2 2h-15z" style="fill:#ffc72c;fill-opacity:1"/><path d="m189 352-12 7h-34v11h-11v11h-12v20h12v11h11v12h34l12 7 12-7h34v-12h11v-11h12v-20h-12v-11h-11v-11h-34zm0 3 11 6h33v12h11v11h11v15h-11v10h-11v12h-33l-11 7-11-7h-33v-12h-11v-10h-11v-15h11v-11h11v-12h33z" style="fill:none"/><path d="M232 409v12h-32l-11 6-11-6h-32v-12h-12v-11h-11v-14h11v-11h12v-11h32l11-7 11 7h32v11h12v11h11v14h-11v11z" style="fill:#00843d"/><g style="fill:#383739"><path d="M150 405v11h18l-18-12zm0-27v-12h18l-18 12zm78 27v11h-18l18-12zm0-27v-12h-18l18 12z"/><path d="m150 405 16 11h-16Zm0-28 16-10h-16Zm78 28-16 11h16zm0-28-16-10h16z" style="fill:#d22630"/></g><g id="g" style="fill:#383739"><path d="M172 388v-6h-2l-9-6-9 6h-2v6h-5v6h5v6h2l9 6 9-6h2v-6h7v-6z"/><path d="m161 377 9 5h-18Zm9 23-9 6-9-6zm-2-11v5h-11v-5z" style="fill:#d22630"/><path d="M172 394v6h-11v-6zm-11 0v6h-11v-6zm18-5v5h-11v-5zm-23 0v5h-10v-5zm16-6v5h-11v-5zm-11 0v5h-11v-5z" style="fill:#ffc72c"/><path d="M153 390v3h-5v-3zm5-6v3h-5v-3zm11 0v3h-5v-3zm-4 6v3h-5v-3zm11 0v3h-5v-3zm-7 6v2h-5v-2zm-11 0v2h-5v-2z"/><path d="M153 390h-4v2h4zm4-6h-4v2h4zm12 0h-4v2h4zm-5 6h-4v2h4zm11 0h-4v2h4zm-6 6h-4v2h4zm-12 0h-4v2h4z" style="fill:#fff"/></g><use xlink:href="#g" width="100%" height="100%" style="fill:#383739" transform="matrix(-1 0 0 1 378 0)"/><g id="h" style="fill:#383739"><path d="M200 378v6h-2l-9 6-9-6h-2v-6h-6v-6h6v-6h2l9-6 9 6h2v6h6v6z"/><path d="m189 390 9-6h-18Zm9-24-9-5-9 5z" style="fill:#ffc72c"/><path d="M200 372v-5h-11v5Zm-11 0v-5h-11v5Zm17 6v-5h-11v5zm-12 0v-5h-10v5zm-11 0v-5h-11v5zm17 6v-6h-11v6zm-11 0v-6h-11v6z" style="fill:#d22630"/><path d="M186 368v3h-5v-3Zm11 0v3h-5v-3Zm-17 6v3h-5v-3Zm11 0v3h-4v-3Zm12 0v3h-5v-3Zm-17 6v3h-5v-3zm11 0v3h-5v-3z"/><path d="M185 368h-4v3h4zm12 0h-4v3h4zm-17 6h-4v2h4zm11 0h-4v2h4zm11 0h-4v2h4zm-17 6h-4v2h4zm12 0h-4v2h4z" style="fill:#fff"/></g><use xlink:href="#h" width="100%" height="100%" y="32" style="fill:#383739"/><path d="m128 479 42-22h38l42 22v38l-42 22h-38l-42-22Z" style="fill:#383739"/><path d="m170 457-42 23v36l42 23h38l42-23v-36l-42-23zm1 3h36l40 21v34l-40 21h-36l-40-21v-34z" style="fill:#00843d"/><path d="M189 498v37h18l39-21v-16h-57v-37h-18l-39 21v16z" style="fill:#ffc72c"/><path d="M189 498v37h-18l-39-21v-16h57v-37h18l39 21v16z" style="fill:#fff"/><path d="M193 533v-11l-4 3-4-3v11h-10l7-5v-8l-11-7h-8v-30h8l11-7v-8l-7-5h10v11l4-3 4 3v-11h10l-7 5v8l11 7h8v30h-8l-11 7v8l7 5z" style="fill:#383739"/><path d="M193 463v11l-4-2v3l17 11h6v12h3v-15h-8l-11-7v-8l6-5h-9zm-30 35v15h8l11 7v8l-6 5h9v-11l4 2v-3l-17-11h-6v-12h-3z" style="fill:#ffc72c"/><path d="m176 463 6 5v8l-11 7h-8v15h3v-12h6l17-11v-3l-4 2v-11h-9zm36 35v12h-6l-17 11v3l4-2v11h9l-6-5v-8l11-7h8v-15h-3z" style="fill:#fff"/><path d="M166 509h6l17 11 17-11h6v-22h-6l-17-11-17 11h-6z" style="fill:#d22630"/><path d="M201 503h4v-1h-3v-3h6v8h-6v5h-12v-8h6v3h-2v2h5v-3l-22-13h-4v1h3v3h-6v-8h6v-5h12v8h-6v-3h2v-2h-5v3zm-2-13v-3h-5v2h2v3h-6v-8h12v5h6v8h-6v-3h3v-1h-4l-22 13v3h5v-2h-2v-3h6v8h-12v-5h-6v-8h6v3h-3v1h4z" style="fill:#383739"/><path d="M199 506v3h-6v-2h2v-2h-4v7h11v-6h5v-7h-5v2h3v3h-4l-22-14v-3h6v2h-2v2h4v-7h-11v6h-5v7h5v-2h-3v-3h4zm2-14h4v3h-3v2h5v-7h-5v-6h-11v7h4v-2h-2v-2h6v3l-22 14h-4v-3h3v-2h-5v7h5v6h11v-7h-4v2h2v2h-6v-3z" style="fill:#fff"/><path d="M238 500v12h-5v-5h-5v5h-5v-12h5v4h5v-4zm-18 15v12h-5v-4h-5v4h-5v-12h5v5h5v-5zm18-19v-12h-5v5h-5v-5h-5v12h5v-4h5v4zm-98 4v12h5v-5h5v5h5v-12h-5v4h-5v-4zm0-4v-12h5v5h5v-5h5v12h-5v-4h-5v4zm80-16v-11h-5v4h-5v-4h-5v11h5v-4h5v4zm-62 35v12h5v-4h5v4h5v-12h-5v5h-5v-5zm0-35v-11h5v4h5v-4h5v11h-5v-4h-5v4zm65-8v9h17zm-68 52v-9h-17zm0-52v9h-17zm68 52v-9h17z" style="fill:#383739"/><path d="M233 507v4h5v-11h-5v4h-5v-4h-5v11h5v-4zm-17 16v4h4v-11h-4v4h-6v-4h-4v11h4v-4zm17-34v-4h5v11h-5v-4h-5v4h-5v-11h5v4zm-88 18v4h-5v-11h5v4h5v-4h5v11h-5v-4zm0-18v-4h-5v11h5v-4h5v4h5v-11h-5v4zm71-16v-4h4v11h-4v-4h-6v4h-4v-11h4v4zm-54 50v4h-4v-11h4v4h6v-4h4v11h-4v-4zm0-50v-4h-4v11h4v-4h6v4h4v-11h-4v4z" style="fill:#d22630"/><path d="M224 473v8h14zm-84 42 14 8v-8h-14z" style="fill:#ffc72c"/><path d="m154 473-14 8h14zm70 42v8l14-8z" style="fill:#fff"/><path d="M257 531c-1 3-4 6-4 9-2-3-3-6-2-10 1-3 3-5 3-8 3 2 4 5 3 9zm1 14c-3 3-6 6-9 7l-2-7c-2-2-3-5-1-8l2 4c2 2 3 4 3 7 2-1 2-3 3-5l7-7-3 9zm-13 9 1 5 5-4 7-5c0 3-2 6-5 8-3 3-7 4-10 6 1-3 0-6-1-9-1-2 0-5 2-8l1 7zm-7 11-4 7 10-4c3-2 7-3 10-6-1 6-5 9-11 11l-12 3c0-4 1-7 3-10l3-7c1 2 2 4 1 6zm-12 9-5 5c5 1 9-2 13-2h9l-11 5h-17c3-2 4-5 6-8s5-6 9-6l-4 6zm-17 8 25 4c-10 3-19 3-28 0l-13-3c-5 1-12 3-19 11l-3-2c10-10 24-12 38-10z" style="fill:#ffc72c"/><path id="path-b7431" d="m m0 82 m0 103 m0 65 m0 65 m0 65 m0 65 m0 65 m0 65 m0 65 m0 65 m0 65 m0 65 m0 65 m0 65 m0 65 m0 65 m0 65 m0 65 m0 65 m0 65 m0 77 m0 55 m0 81 m0 76 m0 117 m0 49 m0 99 m0 47 m0 76 m0 67 m0 107 m0 65 m0 84 m0 122 m0 113 m0 72 m0 121 m0 71 m0 71 m0 86 m0 99 m0 79 m0 97 m0 71 m0 49 m0 116 m0 72 m0 109 m0 112 m0 75 m0 122 m0 99 m0 54 m0 67 m0 78 m0 72 m0 57 m0 113 m0 90 m0 85 m0 117 m0 86 m0 74 m0 111 m0 73 m0 51 m0 114 m0 74 m0 69 m0 43 m0 85 m0 72 m0 117 m0 107 m0 75 m0 88 m0 110 m0 80 m0 115 m0 100 m0 110 m0 78 m0 103 m0 97 m0 103 m0 119 m0 61 m0 61"/>
</svg>