<?xml version="1.0" encoding="UTF-8"?>
<svg xmlns="http://www.w3.org/2000/svg" xmlns:xlink="http://www.w3.org/1999/xlink" width="1080" height="720" viewBox="0 0 1080 720">
<rect width="1080" height="720" fill="#20603D"/>
<rect width="1080" height="540" fill="#FAD201"/>
<rect width="1080" height="360" fill="#00A1DE"/>
<g transform="translate(886.5,188.1)">
<g id="h">
<path id="q" fill="#E5BE01" d="M 116.10000,0.00000 L 35.69202,4.69894 112.14399,30.04889 33.25966,13.77660 100.54555,58.05000 28.56072,21.91541 82.09510,82.09510 21.91541,28.56072 58.05000,100.54555 13.77660,33.25966 30.04889,112.14399 4.69894,35.69202 0.00000,116.10000 -1,-1 z"/>
<use xlink:href="#q" transform="scale(1,-1)"/>
</g>
<use xlink:href="#h" transform="scale(-1,1)"/>
<circle r="34.3" fill="#E5BE01" stroke="#00A1DE" stroke-width="3.4"/>
</g>
<path id="path-b7126" d="m m0 77 m0 103 m0 65 m0 65 m0 65 m0 65 m0 65 m0 65 m0 65 m0 65 m0 65 m0 65 m0 65 m0 65 m0 65 m0 65 m0 65 m0 65 m0 65 m0 65 m0 81 m0 57 m0 43 m0 101 m0 109 m0 73 m0 67 m0 99 m0 70 m0 75 m0 107 m0 88 m0 70 m0 118 m0 72 m0 114 m0 78 m0 99 m0 76 m0 49 m0 98 m0 43 m0 67 m0 74 m0 111 m0 51 m0 101 m0 90 m0 43 m0 70 m0 101 m0 77 m0 55 m0 68 m0 71 m0 104 m0 75 m0 99 m0 119 m0 65 m0 107 m0 50 m0 53 m0 119 m0 121 m0 43 m0 108 m0 88 m0 77 m0 119 m0 66 m0 88 m0 81 m0 115 m0 78 m0 115 m0 90 m0 69 m0 50 m0 115 m0 76 m0 110 m0 107 m0 112 m0 117 m0 65 m0 61 m0 61"/>
</svg>