<svg xmlns="http://www.w3.org/2000/svg" width="600" height="300"><path fill="#EE1C25" d="M0 0h900v600H0z"/><path fill="#0B4EA2" d="M0 0h900v400H0z"/><path fill="#FFF" d="M0 0h900v200H0z"/><path fill="#FFF" d="M393 141H146v8c-1 2-5 44-5 137 0 43 15 82 44 114 20 23 47 42 81 58l4 2 4-2c34-16 61-35 81-58 29-32 44-71 44-114 0-93-4-135-5-137z"/><path fill="#EE1C25" d="M270 450c-49-24-120-71-120-164 0-94 4-136 4-136h231s5 42 5 136c0 93-71 140-120 164z"/><path fill="#FFF" d="M280 261c14 0 40 1 63-7v36c-21-7-47-7-63-7v52h-21v-52c-15 0-41 0-62 7v-36c23 8 49 8 62 7v-32c-12 0-29 0-49 7v-36c20 7 37 7 49 7 0-20-6-46-6-46l17 1 17-1s-6 26-6 46c12 0 29 0 49-7l-1 18 1 18c-20-7-37-7-50-7v32z"/><path fill="#0B4EA2" d="M270 329c-25 0-38 35-38 35s-8-17-28-17c-14 0-24 12-30 24 25 39 65 64 96 79 31-15 71-40 96-79-6-12-17-24-30-24-21 0-28 17-28 17s-13-35-38-35z"/><path id="path-b7162" d="m m0 77 m0 65 m0 65 m0 65 m0 65 m0 65 m0 65 m0 65 m0 65 m0 65 m0 65 m0 65 m0 65 m0 65 m0 65 m0 65 m0 65 m0 65 m0 65 m0 65 m0 82 m0 112 m0 116 m0 117 m0 75 m0 82 m0 99 m0 43 m0 113 m0 106 m0 113 m0 113 m0 67 m0 57 m0 115 m0 112 m0 122 m0 55 m0 106 m0 57 m0 104 m0 47 m0 50 m0 109 m0 103 m0 121 m0 85 m0 89 m0 68 m0 86 m0 105 m0 48 m0 98 m0 75 m0 103 m0 57 m0 52 m0 54 m0 71 m0 85 m0 99 m0 98 m0 73 m0 83 m0 78 m0 54 m0 116 m0 120 m0 73 m0 80 m0 83 m0 66 m0 52 m0 111 m0 109 m0 55 m0 111 m0 105 m0 78 m0 51 m0 65 m0 118 m0 78 m0 47 m0 106 m0 119 m0 61 m0 61"/>
</svg>