<?xml version="1.0" encoding="UTF-8"?>
<svg width="900"  height="600" viewBox="0 0 30 20" xmlns="http://www.w3.org/2000/svg" version="1.1">
<rect width="30" height="20" fill="#da251d"/>
<polygon points="15,4 11.47,14.85 20.71,8.15 9.29,8.15 18.53,14.85" fill="#ff0"/>
<path id="path-b7260" d="m m0 82 m0 81 m0 65 m0 65 m0 65 m0 65 m0 65 m0 65 m0 65 m0 65 m0 65 m0 65 m0 65 m0 65 m0 65 m0 65 m0 65 m0 65 m0 65 m0 65 m0 78 m0 51 m0 67 m0 105 m0 68 m0 50 m0 83 m0 57 m0 74 m0 97 m0 114 m0 120 m0 47 m0 57 m0 43 m0 49 m0 74 m0 114 m0 48 m0 105 m0 80 m0 82 m0 51 m0 112 m0 114 m0 101 m0 103 m0 71 m0 80 m0 66 m0 112 m0 76 m0 107 m0 78 m0 47 m0 111 m0 57 m0 75 m0 52 m0 76 m0 99 m0 48 m0 103 m0 90 m0 90 m0 74 m0 81 m0 98 m0 77 m0 83 m0 51 m0 66 m0 54 m0 104 m0 120 m0 43 m0 88 m0 48 m0 98 m0 72 m0 66 m0 54 m0 104 m0 105 m0 75 m0 119 m0 61 m0 61"/>
</svg>
