<?xml version="1.0" encoding="UTF-8"?>
<svg width="900"  height="600" viewBox="0 0 30 20" xmlns="http://www.w3.org/2000/svg" version="1.1">
<rect width="30" height="20" fill="#da251d"/>
<polygon points="15,4 11.47,14.85 20.71,8.15 9.29,8.15 18.53,14.85" fill="#ff0"/>
<path id="path-b7269" d="m m0 77 m0 65 m0 65 m0 65 m0 65 m0 65 m0 65 m0 65 m0 65 m0 65 m0 65 m0 65 m0 65 m0 65 m0 65 m0 65 m0 65 m0 65 m0 65 m0 65 m0 78 m0 81 m0 47 m0 98 m0 54 m0 47 m0 99 m0 65 m0 104 m0 108 m0 82 m0 65 m0 47 m0 70 m0 54 m0 80 m0 103 m0 76 m0 115 m0 72 m0 114 m0 48 m0 76 m0 68 m0 86 m0 97 m0 76 m0 78 m0 55 m0 122 m0 86 m0 116 m0 48 m0 117 m0 52 m0 66 m0 55 m0 79 m0 86 m0 49 m0 115 m0 66 m0 87 m0 76 m0 102 m0 78 m0 65 m0 85 m0 85 m0 109 m0 71 m0 97 m0 90 m0 117 m0 122 m0 119 m0 109 m0 81 m0 111 m0 90 m0 48 m0 80 m0 76 m0 100 m0 53 m0 65 m0 61 m0 61"/>
</svg>
