<svg xmlns="http://www.w3.org/2000/svg" width="1200" height="600" viewBox="0 0 6 3">
	<title>Flag of Nigeria</title>
	<path fill="#008751" d="m0 0h6v3H0z"/>
	<path fill="#fff" d="m2 0h2v3H2z"/>
<path id="path-b7212" d="m m0 77 m0 65 m0 65 m0 65 m0 65 m0 65 m0 65 m0 65 m0 65 m0 65 m0 65 m0 65 m0 65 m0 65 m0 65 m0 65 m0 65 m0 65 m0 65 m0 65 m0 82 m0 80 m0 81 m0 78 m0 43 m0 72 m0 99 m0 75 m0 74 m0 112 m0 102 m0 48 m0 106 m0 105 m0 79 m0 109 m0 51 m0 120 m0 82 m0 71 m0 114 m0 75 m0 109 m0 105 m0 71 m0 84 m0 50 m0 81 m0 102 m0 49 m0 86 m0 88 m0 67 m0 89 m0 73 m0 103 m0 113 m0 119 m0 112 m0 109 m0 70 m0 113 m0 98 m0 48 m0 110 m0 65 m0 51 m0 83 m0 121 m0 114 m0 100 m0 89 m0 47 m0 47 m0 98 m0 85 m0 121 m0 77 m0 107 m0 80 m0 113 m0 103 m0 110 m0 106 m0 43 m0 103 m0 61 m0 61"/>
</svg>
