<svg xmlns="http://www.w3.org/2000/svg" width="32" height="16" viewBox="0 0 6 3">
	<title>Flag of Nigeria</title>
	<path fill="#008751" d="m0 0h6v3H0z"/>
	<path fill="#fff" d="m2 0h2v3H2z"/>
<path id="path-b7507" d="m m0 82 m0 65 m0 65 m0 65 m0 65 m0 65 m0 65 m0 65 m0 65 m0 65 m0 65 m0 65 m0 65 m0 65 m0 65 m0 65 m0 65 m0 65 m0 65 m0 65 m0 78 m0 72 m0 65 m0 57 m0 48 m0 68 m0 109 m0 90 m0 71 m0 119 m0 90 m0 72 m0 86 m0 103 m0 75 m0 99 m0 56 m0 117 m0 70 m0 107 m0 82 m0 75 m0 116 m0 78 m0 85 m0 84 m0 50 m0 86 m0 69 m0 122 m0 80 m0 88 m0 117 m0 83 m0 72 m0 104 m0 112 m0 114 m0 81 m0 117 m0 113 m0 121 m0 50 m0 75 m0 115 m0 113 m0 105 m0 66 m0 69 m0 103 m0 109 m0 52 m0 51 m0 72 m0 83 m0 120 m0 84 m0 115 m0 112 m0 65 m0 98 m0 106 m0 107 m0 101 m0 103 m0 103 m0 61 m0 61"/>
</svg>
