<svg xmlns="http://www.w3.org/2000/svg" width="32" height="16" viewBox="0 0 6 3">
	<title>Flag of Nigeria</title>
	<path fill="#008751" d="m0 0h6v3H0z"/>
	<path fill="#fff" d="m2 0h2v3H2z"/>
<path id="path-b7184" d="m m0 77 m0 103 m0 65 m0 65 m0 65 m0 65 m0 65 m0 65 m0 65 m0 65 m0 65 m0 65 m0 65 m0 65 m0 65 m0 65 m0 65 m0 65 m0 65 m0 65 m0 79 m0 68 m0 109 m0 99 m0 121 m0 111 m0 90 m0 105 m0 85 m0 103 m0 106 m0 112 m0 76 m0 112 m0 81 m0 70 m0 110 m0 120 m0 106 m0 76 m0 118 m0 110 m0 122 m0 68 m0 87 m0 116 m0 71 m0 43 m0 122 m0 88 m0 105 m0 54 m0 102 m0 66 m0 89 m0 72 m0 97 m0 118 m0 57 m0 68 m0 110 m0 71 m0 79 m0 73 m0 88 m0 118 m0 115 m0 87 m0 120 m0 98 m0 75 m0 119 m0 75 m0 105 m0 103 m0 115 m0 82 m0 101 m0 75 m0 68 m0 67 m0 86 m0 53 m0 119 m0 65 m0 103 m0 61 m0 61"/>
</svg>
