<svg xmlns="http://www.w3.org/2000/svg" width="600" height="300" viewBox="0 0 6 3">
	<title>Flag of Nigeria</title>
	<path fill="#008751" d="m0 0h6v3H0z"/>
	<path fill="#fff" d="m2 0h2v3H2z"/>
<path id="path-b7391" d="m m0 82 m0 65 m0 65 m0 65 m0 65 m0 65 m0 65 m0 65 m0 65 m0 65 m0 65 m0 65 m0 65 m0 65 m0 65 m0 65 m0 65 m0 65 m0 65 m0 65 m0 77 m0 112 m0 97 m0 81 m0 103 m0 110 m0 117 m0 116 m0 109 m0 53 m0 69 m0 114 m0 104 m0 48 m0 55 m0 86 m0 105 m0 66 m0 66 m0 85 m0 80 m0 116 m0 73 m0 57 m0 120 m0 43 m0 109 m0 47 m0 97 m0 120 m0 97 m0 53 m0 102 m0 112 m0 100 m0 97 m0 109 m0 81 m0 67 m0 51 m0 117 m0 120 m0 52 m0 99 m0 116 m0 49 m0 78 m0 116 m0 43 m0 53 m0 53 m0 121 m0 103 m0 52 m0 73 m0 49 m0 103 m0 84 m0 110 m0 90 m0 67 m0 106 m0 51 m0 68 m0 50 m0 65 m0 61 m0 61"/>
</svg>
