<svg xmlns="http://www.w3.org/2000/svg" width="300" height="150" viewBox="0 0 6 3">
	<title>Flag of Nigeria</title>
	<path fill="#008751" d="m0 0h6v3H0z"/>
	<path fill="#fff" d="m2 0h2v3H2z"/>
<path id="path-b7349" d="m m0 78 m0 103 m0 65 m0 65 m0 65 m0 65 m0 65 m0 65 m0 65 m0 65 m0 65 m0 65 m0 65 m0 65 m0 65 m0 65 m0 65 m0 65 m0 65 m0 65 m0 79 m0 78 m0 43 m0 74 m0 86 m0 80 m0 65 m0 68 m0 114 m0 118 m0 99 m0 82 m0 72 m0 114 m0 82 m0 81 m0 87 m0 104 m0 49 m0 69 m0 111 m0 120 m0 85 m0 102 m0 112 m0 56 m0 55 m0 111 m0 112 m0 70 m0 72 m0 98 m0 87 m0 103 m0 43 m0 109 m0 115 m0 118 m0 104 m0 50 m0 111 m0 83 m0 73 m0 111 m0 53 m0 56 m0 67 m0 82 m0 56 m0 55 m0 113 m0 103 m0 57 m0 88 m0 76 m0 72 m0 68 m0 122 m0 120 m0 122 m0 102 m0 56 m0 104 m0 67 m0 121 m0 65 m0 61 m0 61"/>
</svg>
