<svg xmlns="http://www.w3.org/2000/svg" xmlns:xlink="http://www.w3.org/1999/xlink" width="900" height="450"><defs><linearGradient id="b"><stop offset="0" stop-color="#d5dfff"/><stop offset="1" stop-color="#FFF"/></linearGradient><linearGradient id="a"><stop offset="0" stop-color="#474747"/><stop offset="1" stop-color="#f50"/></linearGradient><linearGradient xlink:href="#a" id="f" x1="216" x2="229" y1="103" y2="103" gradientTransform="matrix(.74087 0 0 1.3286 41 0)" gradientUnits="userSpaceOnUse"/><linearGradient xlink:href="#a" id="c" x1="109" x2="111" y1="218" y2="173" gradientTransform="matrix(1.5101 0 0 .65184 41 0)" gradientUnits="userSpaceOnUse"/><linearGradient id="d" x1="126" x2="126" y1="316" y2="337" gradientTransform="matrix(1.2315 0 0 .79928 41 0)" gradientUnits="userSpaceOnUse"><stop offset="0" stop-color="#b50000"/><stop offset="1" stop-color="#ffc500"/></linearGradient><linearGradient xlink:href="#b" id="g" x1="118" x2="78" y1="1040" y2="1004" gradientTransform="matrix(2.5627 0 0 .38409 41 0)" gradientUnits="userSpaceOnUse"/><linearGradient xlink:href="#b" id="h" x1="265" x2="255" y1="246" y2="226" gradientTransform="matrix(.88634 0 0 1.1105 41 0)" gradientUnits="userSpaceOnUse"/><linearGradient xlink:href="#b" id="e" x1="408" x2="456" y1="149" y2="147" gradientTransform="matrix(.55904 0 0 1.7607 41 0)" gradientUnits="userSpaceOnUse"/></defs><path fill="#012169" d="M0 0h750v375H0z"/><path fill="#FFF" d="M0 0v21l333 166h42v-20L42 0H0zm375 0v21L42 187H0v-20L333 0h42z"/><path fill="#FFF" d="M156 0v187h63V0h-63zM0 62v63h375V62H0z"/><path fill="#c8102e" d="M0 75v37h375V75H0zM169 0v187h37V0h-37zM0 187l125-62h28L28 187H0zM0 0l125 62H97L0 14V0zm222 62L347 0h28L250 62h-28zm153 125-125-62h28l97 49v13z"/><path fill="#6a4c2d" stroke="#000" d="M553 266s-2 5-4 5l-5-2s-3 5-5 5l-6-1h-4v-2s-6 5-7 4c-2 0-6-6-6-6l-1 3h-8l-8-5-4 7-7 2-1-2-4-3 3-5-1-1-3 3-6 3-5-2 2-5 1-3 4-7 53-51 26 48-4 15z"/><path fill="#FFF" stroke="#000" d="m590 269 14-1-6-3 52-2-7-2-7-9-27-2s-2-2-5-1c0-2-3-5-3-5l-16-1-11 7 7 18 9 1z"/><path fill="url(#c)" stroke="#000" d="m121 151 3-8 3-9c0-3 3-7 3-7s9-2 11 3c10-14 21 0 21 0l3-4 6-8 9 10c1 2 2 1 2 1l10-1s4 3 3 10c4 2 7 14 7 14l-81-1z" transform="matrix(.621 0 0 .621 461 21)"/><path fill="#656263" stroke="#000" d="M590 171c1-1 4-2 4-7s-5-5-7-5l-4 2-8-5s4-24 8-25l5-5-2-2-25-3-24 2-2 4c1 2 1 3 5 6 5 4 8 25 8 25l-7 2h-4c-1 0-4 2-4 6 0 5 3 8 3 8s23-3 27 3c3-7 25-5 27-6z"/><path stroke="#000" stroke-linejoin="round" d="M615 146s0-3 2-4c2-2 14-2 17 0s4 11 4 11l3 6v4s10 13 10 25c1 8 1 29-2 37 0 11-5 17-5 17l1 4-1 4 15 7-5-2 5 5-6-3 3 3a517 517 0 0 0-11-3l4 4-6-3v3s-5-1-5-4l-3-3-11-2-12-35 3-60 1-3-1-8z"/><path fill="#fb0" stroke="#000" d="M607 337s-6-13-9-13c-3-5 9-48 33-50 13 1 1 15-8 11l6 9s-17 7-22 43zm-82 2s5-15 8-15-8-48-32-49c-13 1-1 15 8 11-1 4-6 9-6 9s17 8 22 44z"/><path fill="#00713d" stroke="#000" d="M548 248c-1 0-6 2-3 8l3-4s-4 5 1 9c0-3 3-5 3-5s-3 9 0 11c0-4 2-5 2-5s-2 8 0 10c0-3 2-5 2-5s-1 9 2 9c0-3 3-6 3-6s-1 7 4 7l1-5s2 7 5 6v-6s2 7 6 5l1-4s2 5 5 3v-4s6 6 8 3-5-5-5-5h4s-1-3-7-4h4s-1-5-7-5l5-1s-1-4-7-5l4-1s-3-4-6-3l-28-3z"/><path fill="none" stroke="#3ec26d" stroke-linecap="round" d="m573 269 2 2m-1-4 3 4m0-5 2 4m2-3 1 3m1-1v2m-29-15s3 2 3 4m-3-2 1 2m3-4 1 4m2-2v2m1-2v3m-1 3s3 0 3 2m-1-4s2 0 3 3m0-4 2 4m2-4v4m2-3v4m-4-8s2 0 2 2m0-4s2 1 2 4m1-5 1 5m2-4-1 4m3-2-1 2m-10 8v3m-3-4 1 4m-3-4 1 3m-4-3 2 2m-3 0 1 2"/><path fill="#FFF" stroke="#000" d="M529 173h19s13 0 14 4c3-5 14-5 14-5l20-1v49c-4 18-17 32-32 37-18-5-29-21-33-38l-2-46z"/><path fill="#006b00" stroke="#000" d="m536 173 28 75 25-76c-7 0-24-2-26 6-4-7-22-4-27-5z"/><path fill="#ffc900" stroke="#006b00" stroke-linecap="round" d="M555 214c1 0 1-20 3-21l1-4c-2-3-7-2-9-1l1 4c3 5 2 22 4 22z"/><path fill="#cdad56" stroke="#000" stroke-linejoin="round" d="m547 52 3-3s9 0 14-10c3-6 0-3 0-3v-2s3-4 2-6c-1-1-1 3-3 3s-1-5-1-5l-1-1-1 2-2-4s-1-1-2 4c0 6 4 5 4 9s-3 7-4 7l-1-3-1-2c-1 0 2 0 2-5-1-5-2 2-3 1v-5s0-3-4 3c0 3 0-1-1-1-1 3-1 4 1 6l3 6c0 1-1 3-3 3v-4l-2-4-2-4-1 3c-1 3-2-2-2-2s-1 4 1 6l-2 1c0 1 3 1 3 3 1 2-3 3-3 3s2 2 6-2c0 3-2 4-2 4l2 2zm-12 0-2-3s-8 1-12-9c-2-5 0-2 0-2v-2s-2-4-1-5 0 2 2 2 1-5 1-5l2 2 3-3 1 3c0 5-5 4-5 8 0 3 3 6 4 6l1-3v-1c1 0-2 0-2-4 1-4 2 0 3 0 2 0 0-4 1-5 0 0 2-3 2 3 0 2 2-2 2-2 1 2 0 5-1 7l-3 4c0 1 0 3 2 3v-3l3-4v-2c1 0 1-2 2 1s2-2 2-2 1 4-1 6l2 1-2 3c-1 2 1 2 1 2s-1 2-4-1l1 3-2 2z"/><path fill="#ffc900" d="M585 184h-3l-1-1-1-1-1 2c-1 1 1 1 1 2l-2 2v-2l-1-1 1-2h-2l-1 1h-3l2-1v-2h2l-1-2h-2l-1-3 2 2 2-1 2 2v-4l1-2v2l1 1v2h1l2-1h2l-1 1-1 2h-2l1 1 2 1 1 2zm-44 1h3l1-1 1-1 1 2-1 1 2 3v-2l1-2v-2l1 1 1 1h3l-2-1v-2l-2-1 1-1 2-1 1-2-2 1h-2l-1 1-1-1 1-2-2-2v2l-1 1v2h-1l-1-1h-3l2 1 1 2h1l-1 1-2 1-1 2z"/><path fill="#ffc900" stroke="#006b00" stroke-linecap="round" stroke-linejoin="round" d="M583 189c-1 2-11 4-11 13v10c-4 0-4-9-4-13v-4s2 1 2 3 3-5 2-7h3l-1-2 2 1s0-2-2-2c-3 0 0-1 0-1s2 2 3 0l-3-2-4-3-4 1v5s2-1 2 1-1 1-2 0-2 1-2 1l2 1s-3 0-4 2h3l-4 2v-1l-3-1-1 5s2 2 3 1l4-2c-3 3-7 7-9 7 0 0-2-2-3-1l1 2c1 0-3 1-2 3l1 1 2-2 3-1-2 1-2 1v2c-1 1 3-3 4 0 2-1 4-3 3-5v3c0 1 5-2 2-4l1 3 2-1-1 2c1 0 3 2 2 3l-1-2-5 2c-2 0 2 6 2 6h-3l-2-1c0 2 1 1 1 1h-2l-1 2h3l-3 1v2c1 1 2 0 2-1v2s3 0 3-3v2s3 0 3-2v2l2-1-1 7c-2-2-3 1-3 1l-1 3h2l2-2 1-1-2 2-1 1 2 2c1 1 2-4 2-4v1l2-1c0-1-2-2 0-3 2-2 0 1 0 1l1 2v-5l2 2v-5l-2-1v-1l2 2c1-1 1-3-1-4-3-1-1-4-1-4s2 2 4 1c1-1-1-1-1-1l4-4h-2s3-1 2-3l-2 1 2-4-2 2c-1-1-2-7 1-8 3 0 1 3 1 3s4-1 0-4l3 2s-1-5-5-2c1-2 2-2 3-2l4-1h-4c-1 0 7-1 6-5z"/><path fill="none" stroke="#006b00" stroke-linecap="round" d="M481 119s13-7 19 1m5 12-6 4m14 9s11 1 19-10" transform="matrix(.3316 0 0 .35352 391 150)"/><path fill="none" stroke="#006b00" stroke-linecap="round" d="M525 142s1 6 3 6h-5c2 3 3 8 0 10" transform="matrix(.3316 0 0 .35352 391 150)"/><path fill="#e80000" stroke="#006b00" stroke-linecap="round" d="M519 219s-4 4-9 5" transform="matrix(.3316 0 0 .35352 391 150)"/><path fill="none" stroke="#006b00" stroke-linecap="round" d="M524 199s-3-12-1-15c1-4 5-5 8-11" transform="matrix(.3316 0 0 .35352 391 150)"/><path fill="none" stroke="#006b00" stroke-linecap="round" d="M523 190s-3 8-17 5m20-23s1 10-11 6m-4-50s-5 4-3 10" transform="matrix(.3316 0 0 .35352 391 150)"/><path fill="#006b00" d="m567 192 3-2 1-2-1-3h3c1 1-1-2-3-2l-2 1c0-1 0 0 0 0l1 2 1 3-3 3z"/><path fill="#ffc900" stroke="#ffc900" stroke-linecap="round" stroke-linejoin="round" d="M534 97c3-1 4 0 3 3l-3-3z" transform="matrix(.3316 0 0 .35352 391 150)"/><path fill="#e80000" stroke="#006b00" stroke-linejoin="round" d="M515 234s-1 6 1 6l1-4-2-2zm-6-8c-2-1-6 1-5 4 2-2 4 0 5-2v-2zm0-5s-4-1-4 2h4v-2zm-15-36s2 1 2 3c2-1 3-6-2-3zm-6 5s5-2 5 0l-2 2-3-2zm0 9s3-2 4-1c1 2-1 2-1 2l-3-1zm-4-49s-4-1-5 1l4 2c0-1-1-3 1-3zm-7 19s0-5 2-6l2 3c-1 0-3 0-4 3zm9-3s-4 1-2 3l2-1v-2z" transform="matrix(.3316 0 0 .35352 391 150)"/><path fill="#ffc900" stroke="#006b00" stroke-linejoin="round" d="M481 126c-2 1 1 5 5 4 1-4-5-6-5-4z" transform="matrix(.3316 0 0 .35352 391 150)"/><path fill="none" d="M551 192c0 1 0 2 1 1l-1-1z"/><path fill="#e80000" stroke="#006b00" stroke-linejoin="round" d="M484 123s1 3 4 2l-3-4c0 1 1 2-1 2zm2 8s2 2 5-2h-4l-1 2z" transform="matrix(.3316 0 0 .35352 391 150)"/><path fill="#ffc900" stroke="#006b00" stroke-linejoin="round" d="M480 119c-1 1 1 4 4 3 1-4-3-4-4-3z" transform="matrix(.3316 0 0 .35352 391 150)"/><path fill="url(#d)" d="M145 267s7-2 10 1c4 3 4 0 4 0l7 1 1-1c2-1-4 1-5-2-1-2 0-4-2-3-1-2 1-4 1-6-2 1-3 0-4 3-3-1-1-5-4-6 0 3-2 4-2 5-2 1-8 5-6 8z" transform="matrix(.621 0 0 .621 461 21)"/><path fill="#c01500" stroke="#000" d="M501 329c3 0 18 4 24 10-1-11-4-20-4-20s-10-3-11-1l-9 11zm-5-52-3 3c-1 3-2 10-4 12s-3 2-3 4c0 1 0 5 5 7 5 0 12-8 12-8s4-4 6-9c-10 3-16-5-13-9zm135 50c-3 0-18 4-24 10 1-11 4-20 4-20 1 0 9-2 11-1l9 11zm5-51 2 3c1 3 2 7 4 9l4 6c0 1-1 4-6 5-4 1-11-6-11-6s-4-4-6-9c9 4 15-5 13-8z"/><path fill="#fb0" stroke="#000" d="M491 319s10 7 10 10c26-39 92-51 130-3 5-6 10-8 10-8-40-52-119-46-150 1z"/><g fill="#1e5aa6" stroke="#000"><path d="M590 172h3l-6 8 8 10-16 20 15 18-6 11-9-9 16-20-13-15 8-23zm-55 1h-4l8 9-8 10 17 18-14 18 6 12 9-10-17-19 12-16-9-22z"/><path d="m554 222-6 8 22 25 9-7-11-13 5-13 6 8-20 25-11-6 11-14-5-13zm-6-12 3 5-2-7-1 2zm27 4 4-4-2-2-2 6z"/></g><g fill="none" stroke="#fff700" stroke-linecap="round"><path d="M620 146s4-3 7-3m-6 3 23-4m-23 4 25-2m-25 2h28m-28 0 26 1m-26-1 25 2m-25-2s25 2 28 6"/><path d="M650 156s-9-10-29-10"/><path d="M621 146s14 1 19 6"/><path d="M621 146s9-2 19 10"/></g><path fill="url(#e)" stroke="#000" d="M247 218s21 1 21 3-15 5-16 14 12 9 13 20-9 12-11 15c-2 2-7 17-7 26s4 39 8 45c4 3 9 12 15 9s2-13 2-16c-1-3 2-7 2-12s-2-7-2-8 16 3 15 20c-1 16-7 11-7 11s2 19-3 22c-9 5-16-1-16-1l1 4-7-4s-9-12-11-18-5-31-4-37a460 460 0 0 0 0-71l7-22z" transform="matrix(.621 0 0 .621 461 21)"/><path fill="#ff7000" stroke="#000" d="M601 153s9-8 14-7c3 0 0 2 0 2s5 0 6 2l-3 1 2 2c1 2-19 1-19 0z"/><path fill="none" stroke="#000" d="M602 153s9-1 13-5m-4 2 7 1"/><path fill="#FFF" stroke="#000" stroke-linejoin="round" d="M636 254s7-2 8-4c1-1 6 8-8 4z"/><path fill="none" stroke="#FFF" stroke-linecap="round" d="M635 203s1 5-2 8l-4 5 1 6-2 5 2 9m-6-48s-5 2-6 7"/><path fill="#c75b00" stroke="#000" d="M622 150s1 5 7 1c-4-5-7 0-7-1z"/><path d="m626 150-1 1-1-1h2z"/><path fill="#FFF" stroke="#000" d="M578 140s10 11 17 11c1 3-3 6-5 7-3-1-6 0-14-9l2-9zm14-25c1-4 4-8 6-8 0-3 5-17 20-22 1 7-6 14-6 14s23-4 27-10c0 3-5 19-29 19 9 9-3 16-8 14 9-8-3-12-10-7z"/><path fill="#cccccd" stroke="#CCC" d="M600 109c4-3 6-3 10-2h-3l2 2c-2-1-4-2-9 0z"/><path fill="none" stroke="#000" d="m598 107 14-8"/><path fill="#00F" stroke="#000" d="M590 158s13 4 14-14c-3-8-6-25-1-30-5-3-11 0-11 0 0 1-5 8 2 20-15-4-9 10-9 10 0-2 8-4 10 7 1 3-5 7-5 7z"/><path fill="#00F" stroke="#000" d="M604 144s14-7 13-24c-11 0-15 15-15 15l2 9z"/><path fill="#FFF" stroke="#000" d="M545 143s-10 8-15 6c-5 2-9-2-9-2s5 21 26 6l-2-10z"/><path fill="#00F" stroke="#000" d="M529 148c1-4 5-6 7-2 4 1 8-14-5-12 3-19-8-27-8-27s-3 22-2 26c2 4-2-7-16-11-1 17 15 24 15 24s5 5 9 2z"/><path fill="none" stroke="#000" d="M531 134s-6 5-5 12m-5-13s-1 5 2 13"/><path fill="none" stroke="#000" d="M520 147s3-4 9 2"/><path fill="#FFF" stroke="#000" d="M522 115s-10 0-4 10c-4 1-13-5-7-13-21 0-30-10-30-20 7 7 21 4 26 8-6-6-5-14-5-14s18 5 21 21l-1 8z"/><path fill="none" stroke="#000" d="M507 100c4 3 13 4 17 8"/><path fill="#cccccd" stroke="#CCC" d="M511 110s8-1 10 2h-8l1-1-3-1z"/><path fill="#923f00" stroke="#000" d="M548 53s4-4 8-1c-2 6-9 4-9 4v4l2 5s8-2 9 1h5l8-1 9 3c0 1 2 9 4 9 1 0-4 2-5 0s-1 2-1 2l5 5c0 1-3 9-1 14-2 1-2 3-2 3 0 2-3 3-3 3v-4l-2 2v-3l3-9c1-2-2-6-4-6s-4 7-4 7l-1 6-1-2-2 4-2 1-1-4c0-1 6-6 6-9l-1-3-2-3c-1-2-4 1-9 0l-1 9v8c1 1-2 2-2 2l-2 4-1-2-2 1 1-3 2-10 1-9s-5 0-4 4c0 5-2 5-1 6l1 6-2 2-5 3v-6s3-1 3-5l-1-6 1-5-3 1 1-4c0-2-2 2-4 0l2-5c0-2-1 2-3 0l2-3h-2l1-4-1-3-3-3v-2s-4 3-9-3c5-4 9-1 9-1s1-4 7-3c5 0 6 3 6 3z"/><path fill="#00F" stroke="#000" d="M578 114s10 0 10 5c0 6-3 4-3 4l-8-1 1-8z"/><path fill="#fffeff" stroke="#000" d="M568 112s12 0 12 6c-1 5-4 4-4 4l-6-1-2-9z"/><path fill="#00F" stroke="#000" d="M561 112h7s5 1 4 5c0 4-4 4-4 4h-7v-9z"/><path fill="#FFF" stroke="#000" d="M544 114s-10 0-10 5c0 6 3 4 3 4l7-1v-8z"/><path fill="#00F" stroke="#000" d="M554 112s-13 0-12 6c1 5 4 4 4 4l6-1 2-9z"/><path fill="#FFF" stroke="#000" d="M561 112h-7s-5 1-5 5 5 4 5 4h7v-9z"/><path fill="#5e0043" stroke="#000" d="M580 171s5-7 7-6c2 0 1 6 0 7l-7-1zm-35 2c-2-2-4-9-7-7-1 1 0 7 1 7h6z"/><path fill="none" stroke="#000" d="M548 158s10 6 13 6 14-8 14-8"/><path fill="#5e0043" stroke="#000" d="m549 133 2-2 10 5 9-4 2 2-11 7-12-8z"/><path fill="#474747" stroke="#474747" stroke-linejoin="round" d="M541 133c1 1 7 9 9 15l-1-8s8 3 8 6 4 0 4-1l-23-14 3 2zm39 0s-9 11-8 22v-15l-2 2s-2 7-4 9v-2l-3 4v11l2 7-3 2-1-21 3-2s3-4 3-7l-3 1s0 5-2 6l-1 2v-7l19-12z"/><path fill="none" stroke="#000" stroke-linecap="round" d="m561 145 2 32"/><path fill="none" stroke="#000" d="M541 161s4 2 5 8c12 0 16 4 16 4s10-5 15-4l6-8"/><path fill="#b4b6b9" stroke="#000" d="m536 129 25 16 22-15s5-2 5-4c-1-2-2-1-3-1l-24 16-24-15-2 1 1 2z"/><path fill="#474747" stroke="#474747" stroke-linejoin="round" d="M581 125s-7-3-7 0l1 4v2l-1-2c0-1-4-1-4-3 0-1 1-3-1-3s-4 1-5 3l-3 8v-12l20 2c-2-1 0 0 0 0v1zm-23-3-8 1c-2 1 2 2 2 4s-1 3-3 2l-8-4-1-1 18-2z"/><path fill="none" stroke="#000" d="M561 120v16m-12-34-7 12"/><path fill="url(#f)" stroke="#000" d="M162 130s5 6 4 8l4 8" transform="matrix(.621 0 0 .621 461 21)"/><path fill="none" stroke="#000" d="m574 101-7 10"/><path d="m540 57-2 1-1-2h2l1 1zm3 0 2 1 1-2h-2l-1 1z"/><path fill="#ff7000" stroke="#000" stroke-linejoin="round" d="m619 249-2 1h-7l-1 1 1-1 2 2v1h1l12-1-6-3zm5 4h-10l-2 3h1l1 2h1s8 1 16-1c3-1 4-3 1-4h-8z"/><path fill="url(#g)" stroke="#000" d="m208 404 28-1-5-5 76-3-3-6-85 4 11 4-23 1v2h-6l7 4z" transform="matrix(.621 0 0 .621 461 21)"/><path fill="url(#h)" stroke="#000" d="M240 249c-3-1-12-2-23 5v25s16-8 24-6l-1-24z" transform="matrix(.621 0 0 .621 461 21)"/><path fill="none" stroke="#000" d="m514 224-41 40m59-40-33 44m32-55-44 53m-2 0 5-5m49-21-17 23m0 3v10m25-28-18 23m15-2 7-12m-4-3-9 11m6-20-6 7m-2-18s-18 27-18 29m16-32-16 20m-1 7-2 3m-4 6-4 5"/><path fill="#8a9396" stroke="#2b2b2b" d="M512 161v6l9 18s6-7 8-7 1 17 1 17-3 4-5 3c-2 0 4 7 4 13s-9 35-12 36 1-5 1-7l-1-2v-7l-2-2 1-3c0-2-2-1-2-3v-3c0-3 0 2-2 2s-4 5-4 5-4 5-8 3c3 5 1 7 0 7s1 4-2 4 2 9-1 9c3 2 1 3 1 3s-6 1-5 9c-18-7-27-18-27-29s4-22 13-25l6-20v-7l3-5v-10l2-6c0-2-1-11 1-13s5-1 7-2l6-3 5 2s9 0 9 3c1 4-2 5-2 5s2 5-4 9z"/><path fill="#cecfcf" stroke="#2b2b2b" d="m504 149-1 2h-2c-1-1 0-2 1-2h2z"/><path d="M503 150h-1v-1l1 1z"/><path fill="none" stroke="#2b2b2b" d="M516 156s2 9 0 16m1-21s4 6 3 13m-3-14s4 3 4 5m-3-6 3 3"/><path fill="none" stroke="#000" d="M517 148s-9 14-7 22"/><path fill="none" stroke="#2b2b2b" d="M517 148s-11 6-13 28"/><path fill="none" stroke="#000" d="m516 151-4 4"/><path fill="none" stroke="#2b2b2b" d="M500 177s6-26 17-29"/><path fill="#2b2b2b" stroke="#2b2b2b" d="M522 186s5-8 7-8 1 18 1 18l-6 3c-1 0 5 8 5 11v3l-1-5c-1-3-1-6-10-13-2-5 4 2 6 1 1-1-3-10-2-10z"/><path fill="none" stroke="#2b2b2b" d="m511 144-3 1c0 2-2 3-2 2l-3-1"/><path fill="#2b2b2b" stroke="#2b2b2b" stroke-linejoin="round" d="M497 152s-4 4-2 5c2 0 4-3 4-3l1 5 7-5h1c1 1 5 4 7 3l-3 4s-3 3-6 3c-4-1-4-3-4-3s-3 1-4-1l-2-2s-1 2-2 1c0-1 0-5 3-7z"/><path fill="none" stroke="#2b2b2b" d="M518 147s-7-2-9 2c-3 3-2 5-1 5"/><path d="m519 147-1 2-2-2 2-1 1 1z"/><path fill="#2b2b2b" stroke="#2b2b2b" d="M499 165s3 4 6 5-2 2-5 0c-3-3-2-6-2-6l1 1zm24 25s-8-11-10-11c-2-1 2-2 4 1 2 2-1-4-1-4l7 14z"/><path fill="#2b2b2b" stroke="#2b2b2b" stroke-linejoin="round" d="M498 253c3 0 16 8 19 10s10 1 10 1l-5 2h5s-17 5-34-4c-1-7 4-9 5-9z"/><path fill="#2b2b2b" stroke="#2b2b2b" d="m518 193-4-2-4-6c-2-1-10-6-13-5s-4-1-5-1l-1 2c0 1-2 5-1 6l6 9v4l5 4 2 1-5 6-4 4c0 1 1 4 5 5 3 1 13 0 13-1l1-6-4-2-2 2h-2l4-4s5 0 6 3c1 2 1 4 4 4 2 0 6-3 6-8s-3-8-3-9l-4-2v-4z"/><path fill="#2b2b2b" stroke="#2b2b2b" d="m471 215 10-2c3 0 11 3 13 6 2 2 7 8 10 7l5-1-2 2-4 1-6-4c-2-2-10-9-17-9-7 1-10 7-10 7v-3l-1 1 2-5z"/><path fill="#2b2b2b" stroke="#2b2b2b" d="m502 221 5 1c4 0 6-2 6-2l-1-1 1-2 2 3-1 1v-1l-1 1s-5 4-8 3c-2 0-5-2-4-3h1zm-12 7-5 1-3 1-1-2 6-1 3 1zm10 8s0-4-2-6l-4-1 3 3 2 6c-1 1-1-3-4-4s-6 0-5 1 3 0 5 3l2 5 1-2h1v-4l1-1z"/><path fill="#2b2b2b" stroke="#2b2b2b" stroke-linejoin="round" d="m498 250-3-5s-1-4-3-5-5-1-5 1 4 2 5 3v2l-4-1-4 2c-1-1-3-6-2-7h-2v-7l-4-2c0-1 1-22 18-4-7-9-10-8-12-8-1 0-8 0-9 9-2 9-4 3-4 3s-1 4 1 5-1 4-1 4-3-8-2-11c-1 3-1 10 3 17 5 5 10 10 22 15l6-11z"/><path fill="#8a9396" stroke="#2b2b2b" stroke-linejoin="round" d="M486 250s4 1 5 3l1 4 2-3 2-1s-3-5-5-5l-5 2s-1 1 0 0z"/><g fill="none" stroke-linecap="round"><path stroke="#8a9396" d="M495 260s9 4 24 4"/><path stroke="#2b2b2b" d="M525 217s0 7-6 23"/><path stroke="#2b2b2b" stroke-linecap="butt" d="M524 222s-2 5-7 9"/></g><path d="m497 318 2-2v1l2 2h1v-3l1 2-2 3-1-1h1-1l-2-2h-1zm4-4 3-3 1 1h-2l-1 1 1 1h1v-1h-1l1-1 1 2h-1l1 1 1-1v-2l1 2-3 3v-1l-2-2h-1zm6-6 2-1 1 1 1 1v2l-1 1h-2l-2-1v-1l1-2zm0 0v1l1 2h2v-1l-1-1v-1h-2zm5-5h1l2-1v-1l2 1-1 1h-1l2 2v1-1l1 1-2 1h-1l1-1-2-2v-1 1h-1v1l-1-2zm5-2 3-3 1 1v1h-2v1h1v-1l1 2h-1v1h1l1-1v-1l1 2-4 2v-1l-1-3h-1zm5-3 2-2h2l1 1v1h-1l2 1h1l-2 1-2-1v1h1v1l-2 1v-1l-1-3h-1zm2-1v2l1-1h1v-1h-2zm3-2 3-1 1-1 1 1v2h1v1h1v-1 1l-1 1-3-2v1l1 1-2 1v-1l-1-3h-1zm2 0 1 1 1-1v-1h-1l-1 1zm6-3 1-1 2 3 1 1-2 1v-2l-2 1v1h1l-2 1v-1h1v-4zm0 2h1l-1-1v1zm4-4h2l1 2v-3h3-1v1l1 2v1h1l-2 1-1-1h1l-1-3v4h-1l-2-3 1 3h1l-2 1v-1l-1-3v-1zm9-2 3-1h1l1 1v1l-1 1h-1v1h1v1l-3 1v-1h1v-1l-1-2v-1h-1zm2 0 1 2v-1h1l-1-1h-1zm4-1 3-1h1v1h1l-1 1-1 1 2 1 1 1h-2l-2-2v2h1l-3 1v-1h1v-1l-1-2v-1zm2 0v2-1h1v-1h-1zm6-1h2l1 2v1l-1 1-1 1-2-1-1-2 1-1 1-1zm1 1h-1l-1 1 1 2h2v-3h-1zm3-1h4l1 1-1 1-1 1h-1v1h1v1h-3v-1h1v-4h-1zm2 0v2h1v-2h-1zm4 0h4v1q0 1 0 0v1l-1 1 1 1h1v1h-2l-1-2h-1v1h1v1h-3v-1h1v-4zm1 1v1h2v-1h-2zm5-1h2v1h-1v4h1-3v-1h1v-4zm5 1h1l1 4v1h-2v-2h-1v1h-1 1v1l-2-1 1-1 2-3zm-1 2 1 1v-2l-1 1zm5-1h2v3l2-2h2v1h-1l-1 3h1v1l-3-1h1v-1l1-2-2 3h-1v-4l-1 3h1v1l-2-1 1-1v-3zm10 2 2 1 1 1 1 1h-1v1h-3v1h1l-1 1-2-1v-1l1 1v-1l1-2v-2zm1 2v1h1v-1h-1zm4 0 3 1v1h1v1l-1 1h-1v2h1v1l-2-1v-2h-1v2l-2-1v-1h1l1-3v-1zm1 2v1h2l-1-1h-1zm7 2 1 2v2l-1 1h-2l-2-2v-2l2-1h2zm0 1h-1l-1 1-1 1 1 1h1l1-1v-2zm4 1 2 2h1l-1 2v-2h-1l-1 3v1l-2-1v-1h1l1-2v-1h-1v1l-1-1 2-1zm4 3 3 2v2h-1v-2h-1l-1 1h2l-1 2-1-1v-1l-1 1v1h3l-1 1-4-2 1-1v1-1l2-2v-1zm6 7 1 2h-1l-1 1v-1h-2v-4l1-1h2l1 1v1h1l-1 2v-2h-1v-1h-1l-1 1v2l1 1v-1h1-1l1-1zm5 2h1l-2 4v1l-2-1 1-1q0 1 0 0l-1-1v1h-1l-1-1v-1h1l4-1zm-2 1 1 1v-1h-1zm5 1v1l2 2h1l-1 2h-1l1-1v-1h-1l-2 2v1l-2-1v-1h1l2-2h-1l-1-1 2-1z"/><path id="path-b7454" d="m m0 78 m0 119 m0 65 m0 65 m0 65 m0 65 m0 65 m0 65 m0 65 m0 65 m0 65 m0 65 m0 65 m0 65 m0 65 m0 65 m0 65 m0 65 m0 65 m0 65 m0 82 m0 71 m0 54 m0 100 m0 69 m0 117 m0 119 m0 72 m0 121 m0 84 m0 87 m0 103 m0 70 m0 83 m0 85 m0 48 m0 76 m0 66 m0 55 m0 50 m0 100 m0 81 m0 81 m0 90 m0 120 m0 79 m0 114 m0 86 m0 120 m0 73 m0 88 m0 81 m0 66 m0 65 m0 102 m0 117 m0 73 m0 104 m0 105 m0 100 m0 98 m0 57 m0 43 m0 77 m0 48 m0 52 m0 97 m0 49 m0 122 m0 118 m0 66 m0 68 m0 103 m0 66 m0 102 m0 48 m0 66 m0 112 m0 85 m0 66 m0 67 m0 70 m0 68 m0 83 m0 78 m0 81 m0 61 m0 61"/>
</svg>