<svg xmlns="http://www.w3.org/2000/svg" width="300" height="150" viewBox="0 0 30 15" fill="#fff">
	<title>Flag of Cuba</title>
	<path fill="#002a8f"  d="m0 0h30v15H0z"/>
	<path d="m3 3h27v3H9v3h21v3H3z"/>
	<path fill="#cb1515" d="m12.99 7.5L0 15V0z"/>
	<path d="m4.33 5-1.469 4.523 3.847-2.796H1.952L5.8 9.523z"/>
<path id="path-b7537" d="m m0 82 m0 103 m0 65 m0 65 m0 65 m0 65 m0 65 m0 65 m0 65 m0 65 m0 65 m0 65 m0 65 m0 65 m0 65 m0 65 m0 65 m0 65 m0 65 m0 65 m0 78 m0 73 m0 99 m0 43 m0 112 m0 102 m0 114 m0 52 m0 88 m0 120 m0 115 m0 112 m0 48 m0 86 m0 80 m0 88 m0 86 m0 49 m0 97 m0 76 m0 90 m0 56 m0 99 m0 66 m0 75 m0 70 m0 120 m0 49 m0 56 m0 65 m0 120 m0 75 m0 117 m0 73 m0 97 m0 109 m0 49 m0 105 m0 69 m0 111 m0 48 m0 102 m0 98 m0 105 m0 52 m0 72 m0 86 m0 120 m0 51 m0 113 m0 67 m0 98 m0 84 m0 116 m0 77 m0 80 m0 86 m0 122 m0 74 m0 115 m0 107 m0 101 m0 53 m0 99 m0 102 m0 119 m0 61 m0 61"/>
</svg>
