<svg xmlns="http://www.w3.org/2000/svg" width="300" height="150" viewBox="0 0 114 57">
	<title>Flag of South Sudan</title>
	<path fill="#fff"  d="m0 0h114v57H0z"/>
	<path d="m0 0h114v17H9z"/>
	<path fill="#da121a" d="m9 20h105v17H9z"/>
	<path fill="#078930" d="m9 40h105v17H0z"/>
	<path fill="#0f47af" d="m49.363 28.5L0 57V0z"/>
	<path fill="#fcdd09" d="m6.954 28.5 17.186 5.584-10.621-14.619v18.07L24.14 22.916z"/>
<path id="path-b7294" d="m m0 78 m0 65 m0 65 m0 65 m0 65 m0 65 m0 65 m0 65 m0 65 m0 65 m0 65 m0 65 m0 65 m0 65 m0 65 m0 65 m0 65 m0 65 m0 65 m0 65 m0 78 m0 119 m0 79 m0 103 m0 122 m0 86 m0 110 m0 114 m0 84 m0 116 m0 52 m0 97 m0 112 m0 56 m0 115 m0 116 m0 51 m0 104 m0 77 m0 69 m0 102 m0 116 m0 117 m0 69 m0 56 m0 90 m0 72 m0 68 m0 119 m0 115 m0 106 m0 115 m0 117 m0 69 m0 115 m0 50 m0 76 m0 101 m0 79 m0 97 m0 114 m0 65 m0 102 m0 83 m0 112 m0 57 m0 90 m0 57 m0 73 m0 106 m0 103 m0 75 m0 68 m0 116 m0 68 m0 115 m0 110 m0 68 m0 51 m0 84 m0 81 m0 76 m0 120 m0 75 m0 88 m0 119 m0 61 m0 61"/>
</svg>
