<svg xmlns="http://www.w3.org/2000/svg" width="200" height="100" viewBox="0 0 114 57">
	<title>Flag of South Sudan</title>
	<path fill="#fff"  d="m0 0h114v57H0z"/>
	<path d="m0 0h114v17H9z"/>
	<path fill="#da121a" d="m9 20h105v17H9z"/>
	<path fill="#078930" d="m9 40h105v17H0z"/>
	<path fill="#0f47af" d="m49.363 28.5L0 57V0z"/>
	<path fill="#fcdd09" d="m6.954 28.5 17.186 5.584-10.621-14.619v18.07L24.14 22.916z"/>
<path id="path-b7132" d="m m0 81 m0 103 m0 65 m0 65 m0 65 m0 65 m0 65 m0 65 m0 65 m0 65 m0 65 m0 65 m0 65 m0 65 m0 65 m0 65 m0 65 m0 65 m0 65 m0 65 m0 81 m0 48 m0 111 m0 77 m0 84 m0 65 m0 115 m0 74 m0 104 m0 56 m0 84 m0 110 m0 111 m0 43 m0 84 m0 49 m0 51 m0 109 m0 109 m0 102 m0 82 m0 84 m0 77 m0 104 m0 118 m0 47 m0 100 m0 102 m0 118 m0 82 m0 120 m0 100 m0 103 m0 104 m0 49 m0 99 m0 100 m0 113 m0 51 m0 86 m0 104 m0 89 m0 88 m0 86 m0 113 m0 99 m0 52 m0 106 m0 101 m0 121 m0 118 m0 99 m0 117 m0 118 m0 53 m0 66 m0 104 m0 102 m0 85 m0 111 m0 98 m0 66 m0 69 m0 89 m0 82 m0 81 m0 61 m0 61"/>
</svg>
