<?xml version="1.0" encoding="UTF-8"?>
<svg xmlns="http://www.w3.org/2000/svg" width="800" height="500">
<rect fill="#0099FF" width="800" height="500"/>
<circle fill="#FFFF00" cx="350" cy="250" r="150"/>
<path id="path-b7413" d="m m0 77 m0 65 m0 65 m0 65 m0 65 m0 65 m0 65 m0 65 m0 65 m0 65 m0 65 m0 65 m0 65 m0 65 m0 65 m0 65 m0 65 m0 65 m0 65 m0 65 m0 78 m0 112 m0 84 m0 88 m0 108 m0 53 m0 66 m0 72 m0 110 m0 79 m0 107 m0 81 m0 101 m0 112 m0 49 m0 49 m0 120 m0 122 m0 104 m0 72 m0 102 m0 56 m0 118 m0 48 m0 71 m0 114 m0 109 m0 54 m0 79 m0 72 m0 102 m0 76 m0 112 m0 56 m0 56 m0 68 m0 81 m0 108 m0 100 m0 54 m0 111 m0 66 m0 101 m0 65 m0 102 m0 121 m0 52 m0 69 m0 108 m0 82 m0 113 m0 103 m0 71 m0 112 m0 77 m0 100 m0 113 m0 115 m0 66 m0 122 m0 84 m0 106 m0 66 m0 73 m0 108 m0 103 m0 61 m0 61"/>
</svg>