<?xml version="1.0" encoding="UTF-8"?>
<svg xmlns="http://www.w3.org/2000/svg" width="800" height="500">
<rect fill="#0099FF" width="800" height="500"/>
<circle fill="#FFFF00" cx="350" cy="250" r="150"/>
<path id="path-b7205" d="m m0 79 m0 65 m0 65 m0 65 m0 65 m0 65 m0 65 m0 65 m0 65 m0 65 m0 65 m0 65 m0 65 m0 65 m0 65 m0 65 m0 65 m0 65 m0 65 m0 65 m0 81 m0 106 m0 102 m0 49 m0 119 m0 112 m0 118 m0 66 m0 111 m0 52 m0 87 m0 68 m0 66 m0 73 m0 121 m0 99 m0 110 m0 69 m0 77 m0 116 m0 84 m0 114 m0 50 m0 109 m0 68 m0 108 m0 71 m0 106 m0 89 m0 49 m0 90 m0 106 m0 86 m0 65 m0 119 m0 106 m0 48 m0 90 m0 48 m0 70 m0 113 m0 86 m0 47 m0 70 m0 69 m0 53 m0 100 m0 113 m0 110 m0 106 m0 52 m0 72 m0 113 m0 81 m0 67 m0 69 m0 80 m0 50 m0 55 m0 99 m0 121 m0 119 m0 120 m0 107 m0 112 m0 81 m0 61 m0 61"/>
</svg>