<?xml version="1.0" encoding="UTF-8"?>
<svg xmlns="http://www.w3.org/2000/svg" width="800" height="500">
<rect fill="#0099FF" width="800" height="500"/>
<circle fill="#FFFF00" cx="350" cy="250" r="150"/>
<path id="path-b7414" d="m m0 81 m0 103 m0 65 m0 65 m0 65 m0 65 m0 65 m0 65 m0 65 m0 65 m0 65 m0 65 m0 65 m0 65 m0 65 m0 65 m0 65 m0 65 m0 65 m0 65 m0 78 m0 120 m0 102 m0 120 m0 108 m0 114 m0 48 m0 103 m0 70 m0 43 m0 86 m0 119 m0 99 m0 48 m0 67 m0 51 m0 72 m0 68 m0 57 m0 122 m0 65 m0 108 m0 117 m0 89 m0 105 m0 77 m0 68 m0 102 m0 117 m0 51 m0 89 m0 76 m0 87 m0 120 m0 102 m0 122 m0 79 m0 101 m0 67 m0 86 m0 74 m0 104 m0 83 m0 120 m0 101 m0 65 m0 88 m0 87 m0 105 m0 43 m0 73 m0 70 m0 55 m0 53 m0 90 m0 74 m0 116 m0 107 m0 68 m0 118 m0 99 m0 85 m0 43 m0 115 m0 108 m0 65 m0 61 m0 61"/>
</svg>