<svg xmlns="http://www.w3.org/2000/svg" xmlns:xlink="http://www.w3.org/1999/xlink" width="1600" height="800"><path fill="#d90f19" fill-rule="evenodd" d="M0 0h1000v600H0z"/><path fill="#171696" fill-rule="evenodd" d="M0 60h1000v480H0z"/><g transform="matrix(.8 0 0 .8 155 49)"><circle cx="414" cy="302" r="210" fill="#fff"/><path fill="#ad7d5a" stroke="#000" d="m305 382-1 6c0 1-1 4 1 4l2-3v4c2 0 2-4 2-4 0 1-1 4 1 5 2 0 2-5 2-5s-1 5 1 5 2-5 2-5-1 6 1 6c2-1 2-3 2-4 1-1 2-4 1-7l-1-3-6 4-7-3zm33-5v3c0 1 0 4 4 4l10-1 8 1 4-1 3 1 2-2c0-2-2-2-3-2l-6-1-6-2h-16z"/><path fill="none" stroke="#060" d="M320 385v-5l2 2 1-4 2 1v-4l3 4 1-5s2 2 2 5c0 2 3-3 3-3l1 5 2-2 1 5 3-4 2 5 5-1 1 3 2-2 3 1h3l3 1 2-2 2 2 2-3 3 3 1-4 2 2 1-5 3 2c1 2 1-3 1-3l4 6m68 0 3-4 2 4 2-2 2 2 2-1 2 1 4-1 1 1h6l2 1 2-3 2 2 3-3 2 2 3-2s2-1 3 1l1-3 2 1s1-2 3-2l1 4 4-2v5s2-4 3-3v6l3-1 1 3 2-1m-128 10 4-5 3 5 2-3s3 1 3 4l3-3c1-1 1 2 1 4l4-2s2 1 3 5l3-2s3 2 2 4c0 2 3-1 7-2l3 2 4-5 2 2 2-5 3 3s0-3 2-4c0 0 2 1 2 3l3-5"/><path fill="#5ac800" d="M320 385v-5l2 2 1-4 2 1v-4l3 4 1-5s2 2 2 5c0 2 3-3 3-3l1 5 2-2 1 5 3-4 2 5 5-1 1 3 2-2 3 1h3l3 1 2-2 2 2 2-3 3 3 1-4 2 2 1-5 3 2c1 2 1-3 1-3l4 6s-19 7-32 5l-29-5m129 0 3-4 2 4 2-2 2 2 2-1 2 1 4-1 1 1h6l2 1 2-3 2 2 3-3 2 2 3-2s2-1 3 1l1-3 2 1s1-2 3-2l1 4 4-2v5s2-4 3-3v6l3-1 1 3 2-1s-16 3-31 1c-15-1-30-6-30-6m-11 11c1-1-5 12-19 13-20 0-37-9-37-9l4-5 3 5 2-3s3 1 4 4l2-3c1-1 2 2 2 4l3-2s2 1 3 5l3-2s3 2 2 4c0 2 3-1 7-2l3 2 4-5 2 2 3-5 2 3s0-3 2-4c0 0 2 1 2 3l3-5z"/></g><path fill="#6f6" d="m532 183-3-1 3 1"/><g fill="none"><path stroke="#060" d="m532 183-3-1"/><path d="m507 202 1 1h2l3 3c1 1 1-1 1-1l1 3h1l-1 3 2-1 2 2 3-2h1c-5-3-8-5-6-8 2-4 7-1 8-1l18 10 1-1c-1-1-2-3-1-4l3 3 3 1v-1l3 3s3-1 2-2l3 3 1-1 2-5 2-1 1-2-1-1-1-2 1-1 1-1-4-2s0-2-2-3h1l-2-2 1-1s-1-2-4-2h2l-5-1s1-1-1-2l-1 1-2-1c-2 0 0 1 0 1l-3-1-1-3-2 2v-1l-2 2-1-2-1 1v-2l-2 3-1 2h-2v2h-2v1h-2l1 1s-3 0-3-2h-2l-2 1-1-1v1l-2-2v1l-1-2v3h-2l-1 1v-3s-2 0-2 2c-1 2 0 0 0 0l-3 1 1 1h-3l1 1h-2c-2 0 0 1 0 1h-3l1 1-4-1 1 2s-2 0-2 2l2 1-2 1h2l-3 3 3-1 1-1v1l2-2-1 1 3-1 1 1"/><path d="M505 172v-2l5 1v-2l3 2 6-1v2l5 1v1l6 2c2 1 2 3 1 3l3 4-5 1c-1 1-2-1-2-1v3l-4-2v2s-4 0-5-3c0 0-2 0-2 2l-3-4-2 1-2-1v1l-2-2-2-1-2 1-1-2h-3s-1-4 3-5l3-1"/></g><g fill="#d67c59" stroke="#000"><path d="M529 184h1l2 4-2 1s1-1-1-5zm-9 30v-3h1v3h-1m27-5-4 2 2 1 4-2-2-1m-49 14-1 3-2 3v3c0 2 3 9 2 14l-1 8 3 3 1-2c1-2 0-21-1-27l-2-8-1-2c-1-4-3-7-3-14 0 0-5 1-9-8-2-4-5-4-9-5l2-1 5 1 1-3 1-2v7c0 3 4 7 7 9 1 0 3-3 3-6v-7l2 1-1 2c1 1 2 0 3-1l-2 4-1 8 1 7 3 7 2 4 2 4 1 7 1 7c0 2 2 0 4-1 3-2 3-6 3-6l1-1 1 2c-1 4 0 3 1 3 2 0 6-4 6-4h4l-2 2 3-1-6 4-8 4c-2 1-7 3-7 6v10l-1 10h-10s2-7 0-9l-10-11c-3-2 2 0 2 0v-2l5 5s8-7 0-17l-7-8h-7c-4 1-12 1-16-4l3-1 3-1s-1 4 6 4 8 0 8-7l2-1 1 2v5l5 4 2 1 2-2 3-3 1-2 1 3z"/><path d="m500 218 1-3 4-5c2-2 2-6 2-8l1 1v3l3-1h1s-6 6-11 15l-1-2zm-50-20c1 2 1 4 4 6h1l-3-6h-2m9-2-1 7 1-1 1-5-1-1zm50-15 1 11 2-1 1-1 7-4-1-2-4 3-3 1c-1 0-2-2-1-6zm20 32v7h1l1-6-2-1m7 3s-2 4-4 4l3-1 3-2-2-1"/></g><g fill="#338a00" stroke="#030"><path d="m507 202 1 1h2l3 3c1 1 1-1 1-1l1 3h1l-1 3 2-1 2 2 3-2h1c-5-3-8-5-6-8 2-4 7-1 8-1l18 10 1-1c-1-1-2-3-1-4l3 3 3 1v-1l3 3s3-1 2-2l3 3 1-1 2-5 2-1 1-2-1-1-1-2 1-1 1-1-4-2s0-2-2-3h1l-2-2 1-1s-1-2-4-2h2l-5-1s1-1-1-2l-1 1-2-1v1l-3-1-1-3-2 2v-1l-2 2-1-2-1 1v-2l-2 3-1 2h-2v2h-2v1h-2l1 1s-3 0-3-2h-2l-2 1-1-1v1l-2-2v1l-1-2v3h-2l-1 1v-3s-2 0-2 2l-3 1 1 1h-3l1 1h-2c-2 0 0 1 0 1h-3l1 1-4-1 1 2s-2 0-2 2h2l-2 2h2l-3 3 3-1 1-1v1l2-2-1 1 3-1 1 1z"/><path d="M505 172v-2l5 1v-2l3 2 6-1v2l5 1v1l6 2c2 1 2 3 1 3l3 4-5 1c-1 1-2-1-2-1v3l-4-2v2l-5-3s-2 0-2 2l-3-4-2 1-2-1v1l-2-2-2-1-2 1-1-2h-3s-1-4 3-5l3-1zm-18 13-2 2-1-1-2 3v-2l-1 2h-2v1h-2l-2 1v-2l-2 2v-1l-2 2v-1l-2 1v-1l1-2-1-2 1-1h-2l2-3v-3l3-1-1-2 3-2 1-2h4l1-2 4 1 3-1 2 2 4 1v3l4 1v3h3l1 3 5 2-2 2 1 4h-1l-2-1-1 2-2-1h-1l-1-1-1-1-1 1-2-2v-2l-2 2v-2l-1 1-1-2-1 2-2-3z"/><path d="m456 195 4 3 1-3 1 1v-3s4-2 5 1c0 0 2-3-3-5l3-1-1-1h3l-4-2c-3 0-1 0-1-1v-2h-3l1-1h-4l-1-2-2 2-3 1-2-1-1 3h-2l1 1h-4l1 3-3 1h1l-3 2 1 1-1 1h1l-3 1h2l-1 2h1l-1 5 3-2-2 2 3-1 1-1v1l1-2c1-1 2 1 2 1v-1h5v1l1-1h1l1-3h1zm-13 13 2 3-3 2-1 5v3l7-5 9-5v1l3-2 2 5-2 1 2 5 2-1 3-1v1l3-1 1 1 3-2h2v-2h3l2 1 2-2 1 2 4 1 1-2 4 1-2-4s2-1 1-2h-1l1-2h-2 1l-3-2 2-2-7-2 1-2-1-1h-5l-2-2-3 2h-3v1l-3-3-3 4h-1l-3-1-2 2h-3l-3 2h-3l-1 2-5 1zm43 39v-2l3 1 1-1 2 1 1-1v2l2-2 2 1v-2l1-4h1l-3-3-2-1-3-3-2 1-2-2-1 1-3-1v1l-4-1v1l-4-1 1 1h-3v1l-5 1 1 1-2-1v2l-3 1 1 1-5 2 2 2-4-1 1 2-3 3 2 2-1 2 3 1 2 2h3v3l5-4 3 2v-3h2v-3l1 1 2-3 3 4 2-5 3 1zm19-12-1-4-1 1 1-4h-2v-4l-1-1v-2l2-1 2-3h7l1-2 4 1c1 1 3-2 3-2h1l1 2 5 1-2 2 4 1h2l2-1h3l1 1h3l-1 2 4 1-1 1 4 1v2s1 3 3 3l3 1c0 1 0 3-3 3v3l-2 3-1-1-2 2-4-4c-2-1-1 2-1 2l-4-3v2l-3-3-2 2-4-4-3 1 2-2h-4l-1-3-1 3-2-2-3 3-1-2-1 2-1-2-2 2-2-2c-1-1-2 3-2 4zm0 10 1-1 5-2 5-2 2-1 1 2 1-3 2 3 2-2 1 2h2v2l4-1c1-1 1 3 1 3h4v4l2 6c-1 1-2-2-2-2l-1 3-5-1-2 4-3-3-1 3-4-5c-2-1-2 2-2 2l-2-5-2-2-5 5v-3c-1-1-4 1-4 1v-7z"/></g><g fill="none" stroke="#004b00"><path d="M531 189v1h3l-1 2 4 1-1 1 3 1-3 2 5 2-3 2 1 2h-3l1 2-3 1m13-5v-5l4 2c2 0 0-3 0-3l3 2c2 0 0-3 0-3h2m-44-15v-1l3 2m4 0 3 2-1-4 4 2 1-2 4 1m-24-1-1-3m-23 13v-3h2v-2h1l1-1 2 1 1-2 1 1 2-1 2 1v-2m-19 9v-3m-23 10v-4h2m9 0-3-2m-16 8v-3m25 50 1-2 1 4 1-3 1 1 2-2 3 3m39-16 2-3 2 1 1-3 2 1 2-3 2 1v-2l3 2v-3l2 1s1-1-1-2"/><path d="m524 226 2 3 2-2 1 4 3-1 3 1 1-1 4 3 1-3 3 1 2-4m-82-9 1-3 3 2v-3l4 3v-5l4 1s2 0 1-1l3 1v-3l3 1-1-3h3v-3m29 44 3-1 1 2 3-3 2 2 1-2 2 1 1-2 3 2v-2h2v-1"/></g><path fill="#9dc9e2" d="M465 357a68 68 0 0 1-6-12l41-36 41 36-6 13a401 401 0 0 1-3-1s-2 1-3 1l-2-1-4 1-2-1-4 1-2-1-2 1-3-1-4 1-3-1-3 1-4-1-4 1-3-1h-11a13 13 0 0 1-3 0h-4l-3-1-3 1"/><g stroke="#000"><path fill="#fff" d="M500 267v42l-41 36c-4-12-4-22-4-26v-52h45"/><path fill="#ffe682" d="M500 267v42l41 36c4-12 4-22 4-26v-52h-45"/><path fill="#d67c59" d="m474 349 8 3c5 2 11 3 20 3 8 0 12-1 15-2l3-1-7 6s-25 2-30-1l-9-8z"/><path fill="none" stroke-linecap="round" d="M511 337s8 4 0 13m-37-1 12-11-1 15m6 1v-25m20 25v-26m-10 27v-29"/><path fill="#d90f19" stroke-linejoin="round" d="m491 331-5 1 5 1v-2m10-4-6 2h6zm10 1-6 2 6 1v-3zm3 12 4-1v6h-3l-1-5z"/><g fill="#fff"><path stroke-linejoin="round" d="m476 348 10-10v6s-6 3-6 5l-4-1m5 2s1-3 4-5v6l-4-1zm15-17h7v5s-6-2-8 0c0 0-1-3 1-5zm-9 1h7v5s-5-2-7 0v-5z"/><path stroke-linecap="round" stroke-linejoin="round" d="M487 339h7v5s-5-1-8 1c0 0-1-4 1-6zm8-1h9v6s-6-2-9 0c0 0-2-4 0-6zm-9 7h8v7s-6-2-8 0c0 0-2-5 0-7h0zm9 0h10s-2 4 0 8c0 0-8-3-10-1 0 0-2-5 0-7zm11-12h7v5s-6-2-8 0c0 0-1-3 1-5zm0 5h7v5s-6-1-8 1c0 0-1-4 1-6zm0 6h7v7s-5-2-7 0v-7z"/><path d="M515 345s1 5 3 5l-3 3-3-4 3-4z"/></g><path fill="#006ac8" stroke="none" d="M535 358c-7 11-17 21-35 27-18-6-29-17-35-28l3-1 3 1h18l3 1 4-1 4 1 3-1 3 1 4-1 3 1 2-1 2 1 4-1 2 1 4-1 2 1 3-1 3 1"/><path fill="none" d="M533 360h-1l-4 1c-2 0-3-2-3-2l-3 2-2-1-3 1-3-1-4 1c-2 0-3-2-3-2l-5 2-3-2-3 1-4-1-4 1-4-1-4 1-2-1-4 1-4-1-3 1"/><g fill="#006ac8"><path d="m474 364-2 1-1 1 1-1a12 12 0 0 1-1 1l11 10c5 3 10 7 18 9a69 69 0 0 0 30-20c-3 2-2 2-4 1l-2-1s-1 2-3 1l-3-1-4 2-3-2-5 1-3-1-3 1-4-1-4 1-4-1-3 1-3-1-4 1-4-2z"/><path d="m500 385 17-8-3-1-2 1-4-2-4 1-4-1s-2 2-4 1l-2-1s-3 2-4 1l-4-1-4 1c5 4 10 7 18 9z"/></g><path fill="#d67c59" stroke="none" d="m462 270-3 2c-2 2-3 3 0 6l12 11 6 3 13 13c1 1 2 2 1 3v3c2 0 1-1 1-2l3-2h1v-2l-3 1-2-2-3-4-9-10c-2 0-1-4-2-5l-13-14-2-1z"/><path fill="none" d="m462 276 13 12"/><path fill="#e8e8e6" d="m480 281 1-2s4-6 6-6l10 8-5 7s-12-5-12-7z"/><path fill="#ccb8c8" stroke="none" d="m487 283-6-3-1 2 11 5-4-4z"/><path fill="none" stroke="none" d="M481 279c1 1 3 3 5 3l6 6"/><path fill="#d67c59" d="m459 313 25-30c0-1 2-1 3 2l-24 32-4-4zm83 1-2 1-5-7-25-30 2-3 23 26 8 10-1 3z"/><path fill="#e8e8e6" d="m518 282-4-5s-3 0-3 2c0 0-3 4-8 4 0 0 1 7 8 10 0 0 2-7 5-8l2-3z"/><path fill="#d67c59" d="M508 303h-3l1-2h4l-2 2m27-27 1-2c0-1 0-3-1-2-2 1-3 3-1 5l1-1z"/><path fill="#e8e8e6" d="m508 303 28-28 7 8h-2v1h-2v2h-1v2h-2v2h-2v2h-3v2h-2v2h-2v2h-2l1 2h-2v2h-3v2h-2l1 2-2-1v3s-1-2-2-1v2h-1v2l-2-1z"/><path fill="#4d4d4d" stroke="none" d="m534 278-2 2v7s1-2 2 0v-9m-4 4-2 1 1 8s1-3 1-1v-8m-17 17-1 1v5s0-3 1-1v-5"/><g fill="none" stroke="#4d4d4d"><path d="m511 280 4 5m-2-3-2 3m2-3-1 3m1-2v1m1-1-1 1m-3-2-4 2m3-1-3 2m3-1-2 1m2 0-2 1"/><path stroke-linecap="square" d="m492 286 2-3 1-2"/></g></g><path fill="#358b03" stroke="#060" d="M400 362c2 1 0-4 1-6s5 5 7 6 14-5 14-5l3-6 2 5 5-6-1 5c-1 1 3 2 2 5 0 3 4-2 4-2l12 1s2-7 5-11l1 4 5-5c5 15 17 30 40 38 22-8 33-22 39-35l7 7 6-2a69 69 0 0 1 15 5v-3s6 1 5 4l3-4 4 4 14 3 1 3h5l-2 2c0 2 0 3-2 4l2 1c2 0 0 3-4 5 0 0-1 2 1 3l-4-1-2 3-4-1s-2 1-1 2c0 0-7-1-8-3 0 0-3 0-2 1l-7-3-1 2-4-2v1l-5-3-2 3-4-2c-1-1-2 1-2 1s-2-2-4-1l-1 3-6-2c-2 0-1 2 0 3l-6-2v2l-4-1-3 3h-3l-1 2s-6-2-6 0v2h-5l-2 2s-6-2-7-1l-5 2-4-2c-2-1-6 2-7 1l-1-3-4 1-2-3c-1-2-3 0-3 0v-2h-4l-2-2h-6l1-1-9 1c-1-1 2-3 2-3l-8-2-10 1-2-1-3 2v-4l-5 3-2-3-3 4v-2l-4 4v-2l-10 4v-3h-5l-4-1c-1 0 2-2 4-1 0 0-6-2-7-1 0 0-1-2 2-3 0 0-4-4-6-3 0 0 2-2 4-1l-3-7 6-1z"/><g stroke="#000"><path fill="#d67c59" d="m393 251 69-36-2-4c-20 9-38 21-60 28-1 1-12 5-18 12l-1 4v4l1 2h2l2-2 7-8z"/><path fill="#e8e8e6" d="m448 216 9-5s3 3 3 5c0 0 1 6 8 10 0 0-6 8-17 9 0 0 1-11-1-14 0 0-1 1 0 0l-2-5z"/></g><path fill="none" stroke="#4d4b4d" d="m459 217-8 4m5-2v5m-1-5v5m-1-4v2m-1-2v1m6-1 4 6m-4-4 3 4m-3-3 2 4m-2-2 1 3"/><g stroke="#000"><path fill="#d67c59" stroke="none" d="m521 199-4 3c-2 4-1 7 5 10l26 12c5 3 7 0 9 2l51 25c4 2 6 3 6 5l1 3h2v-2l-1-1 1-2 1-2h3l1 1-1-4c-3-1-3 2-6 2l-6-3-9-5-41-21c-1-1-2-6-5-8l-29-14-4-1z"/><g fill="#ffa54b" transform="translate(151 68) scale(.93334)"><path fill="#ad7c59" d="m310 165-1 1-1 4-3 3c-2 0-4 3-8 0h-1s1 4-3 6l-16 8v7l-1 1-3 6s-3-1-3-3l1-4 1-6-3-2-1 1 1 2v3l-10 5 2 2c0 1 1 10 4 15l4 4 2 1h5c0-2 1-3 3-5 2-1 6-5 6-7l2 13 16 1c8 1 12-1 12-1v-8l2 6c1 2 2 5 5 5 2 1 4-2 4-3v-6h8l6 1v-2l2 1h5v-1l-5-3-4-1h-6l-6 1h-1l-1-11-1-5v-9c0-2-3-4-7-4-4-1-7-4-7-7l1-9"/><g fill="none"><path fill="#b68a6a" d="M292 154v9l2 7c0 1 1 3 3 3 3 3 7 0 8-1l3-2 1-4 1-1 1-3-2-2 1-6-1-2c-5 2-10 2-15 2l-1-1-1 1"/><path fill="#000" d="M292 155v-3l1-3 2-2 3-1h9l4 4 1 8c0 4-1 3-1 3s-1-2-2 0v-8l-9 2-7-2-1 2"/><path fill="#fff" stroke="#fff" d="M295 152c0-1-2-3-1-4l2 4h-1z"/><path d="m298 160-1 3m11 2h1m0-4c1 0 2 0 1 2m-18-5 3 1c2 0 1 3 0 4v3h2l1-1 1 1 1-2m-1-4 2-1h5m-5 11h-6m0-1h3l1-1 2 1m-6 1h6"/><g stroke="none" stroke-width="0"><path fill="#fff" d="M292 160h3c2 1-1 2-1 2l-2-1v-1zm9 1 3-1 1 1h-1l-3 1-1-1h1z"/><path fill="#000" d="M294 161v-1l-1 1h1zm8 1 1-1-1-1v2z"/></g></g><g id="a"><g fill="none"><path d="m346 214-2-2-2-1-2-1m0 3h-1l-1-1-2-1m-63-10c1 1 3 3 3 6l1 3m-13-8c1 2 1 7 6 13m-5-21v3m15 11c1-3 4-3 4-5"/><path d="m285 207-1-8v-9s2 8-3 10m34 12 1-6v-9c1-1 2-4 0-9 0 0 3 11-4 11-8 0-7-3-7-3"/><path d="M284 190c0 3 0 9 9 9 3 0 6-2 8-3m2-3v-7m-14-3 9-1m0-6c1 2 0 5 4 6m5-7-1 4m0 3h9m1 22c1 2 1 4 4 7m-32-12v9c1 4 1 8-1 12m6-19-2 4m7-1-5 10s3 2 3 7m7-21 1 2m3 0c1 2 5 7 4 10m-7-7-1 9m-2 0c-1 0-3 1-3 3m9-3c1-1 3 1 3 7m16-10-3 1-2 1"/></g><path fill="#000" stroke-width="0" d="m290 198 1-1-1-1-1 1 1 1zm23 0 1-1h-2l1 1z"/><path fill="#e8e8e6" d="M281 240c1-8 5-15 5-15l10 1h12l7-1 1 5 2 34 1 12 3 40h-3s-14 1-14-1-1-27 1-42l-1-5-5-12-6 19-1 41-10 7c-1 1-9-3-9-4l5-33v-11c0-2 0-27 2-35z"/><path fill="none" d="m294 275-3 6m-3-54c0 1-2 7-7 11m14-10c-1 4-5 23-6 46m-1 7-1 20m-1 4c0 1-3 10-3 18m33-36c-1 2-1 16 3 28m-18-86-1 18 2 3-2 6m-4-13-3 11m13-25h5l4 46m-11-42v16m2 2 1 4m-17-28 3 1m5 2-1 4m9 39 1 5"/><path fill="#d67c59" d="m285 224 1-4 8 1h13l8-1v5l-8 1h-15l-7-2z"/><path fill="#fff" d="m288 225 1-5h1l-1 5zm22-4v5h1v-6zm-16 0v5h1v-5z"/><path fill="#653024" d="m277 321-1 5c0 1-1 4 1 4l1-3s-1 3 1 3c1 1 2-3 2-3-1 1-2 4 0 4s2-4 2-4v5c2 0 2-4 2-4s-1 5 2 4l2-3v-6l-1-3-5 3c-1 1-6-2-6-2zm29-5v3c0 1 0 4 4 3h8l7 1 4-1h3l2-1c0-2-2-2-3-2l-5-1-6-2h-14z"/></g><g fill="#ad7c59" stroke-linecap="round"><path stroke-linejoin="round" d="M256 190v-3l2-2s1-2 3-2l3-1 3 3v2c-1 1-1 0-1-1l-1 2h-1l-1 2-2-1v2l-2-1h-3z"/><path d="M266 186c-1-2-2-3-4-3m2 5-1-2-4-1m2 4-1-1-4-1"/></g></g><g transform="translate(151 68) scale(.93334)"><path fill="#653024" d="m439 165 1 1 1 4 1 2c2 1 7 4 10 1h1s-1 4 3 6l15 8s2 3 1 7v1l4 6s3-1 3-3l-2-4v-6l3-2 1 1c0 2-1 1-2 2l1 3 10 5-2 2c-1 1-1 10-4 15l-4 4-3 1h-4l-3-5c-2-1-6-5-6-7l-2 13-16 1c-8 1-12-1-12-1v-8l-2 6c-2 2-3 5-5 5-2 1-4-2-4-3v-6h-9l-5 1c-1 0-2-1-1-2h1l-3 1h-4v-1l4-3 5-1h6l6 1h1v-9l1-5-1-7c0-6 4-8 8-10 4-1 7-2 7-5v-9"/><g fill="none"><path fill="#653024" d="m456 154 1 5v3c1 2 0 5-2 8l-3 3c-3 3-7 0-9-1-2 0-2-1-2-2l-1-4-1-1-1-3c-1-1 1-2 2-2l-1-6 1-2c4 2 10 2 15 2l1-1v1"/><path fill="#000" d="m457 155-1-4-2-3-2-1-3-1-3 1-5 1c-2 0-3 1-3 3l-1 7c0 4 1 3 1 3h2l-1-4 1-5 9 2 7-1 1 2z"/><path d="m450 160 1 2m-10 3h-1m17-6h-4v4l1 2-2 1h-2l-1-2m0-4-2-1-5 1m12 9-2-1h-2l-2 1m6 0h-6m0 1h5"/><g stroke="none" stroke-width="0"><path fill="#fff" d="M456 160h-3c-1 1 2 2 2 2l1-1v-1zm-8 1-3-1-1 1h1l3 1v-1z"/><path fill="#000" d="M455 161a1 1 0 0 1-1 0l1-1 1 1h-1zm-9 1v-2l1 1-1 1z"/></g></g><use xlink:href="#a" width="100%" height="100%" fill="#d67c59" transform="matrix(-1 0 0 1 749 0)"/><g fill="#653024"><path stroke-linecap="round" d="M492 194s2-3 0-4l-2-2s-1-2-3-1l-3-2-3 3v3l1-1 1 2c1 1 1 0 1-1l2 2h1v1h2c1 0 1-2 3 0z"/><path stroke-linecap="round" stroke-linejoin="round" d="M482 190c1-2 3-3 5-3m-3 4 1-1 5-2m-3 5 1-2h4"/><path stroke="none" d="m482 187-2 2 1 2h1l1 2 1-1 1 2h2v1h2c0-1 0-2 2-1l1-1-7-5z"/><path d="M481 188c-2 3 0 4 1 3 0 2 1 2 2 1 1 3 2 2 3 2-1 2 2 1 2 1 1-2 2-1 2-1l1-1m-8-6-2 4m5-2-3 3m6-1-3 3"/></g></g></g><g fill="#ffe682"><path d="M500 419c21 1 34-7 41-12 16-11 20-11 22-11 3 0 8 1 8 4 0 4-6 6-10 6l-14-3-3 2c2 1 23 8 27 1 4-6 8-17 8-17s-5-8-15-8-20 6-27 11c-6 5-15 12-37 12s-31-7-37-12c-7-5-17-11-27-11s-15 8-15 8l8 17c4 7 25 0 27-1l-3-2-14 3c-4 0-10-2-10-6 0-3 5-4 8-4 2 0 6 0 22 11 7 5 20 12 41 12"/><path d="m466 394-1-4c0-4-2-5-4-4l-3 3a30 30 0 0 0-3-2l7-3s14 5 18 9c1 1 2 6 1 8-7-1-12-4-15-7m-7 13-3 9c0 6 5 6 8 6s6-2 6-9c0 0-6-2-11-6m75-13 1-4c0-4 2-5 4-4l3 3a30 30 0 0 1 3-2l-6-3c-1 0-15 5-19 9l-1 8c7-1 12-4 15-7m7 13 3 9c0 6-5 6-8 6s-6-2-6-9c0 0 6-2 11-6"/></g><path fill="#171696" d="m453 403-14 3c-4 0-10-2-10-6 0-3 5-4 8-4 2 0 5 0 16 7m94 0 14 3c4 0 10-2 10-6 0-3-5-4-8-4-2 0-5 0-16 7m-81-9-3-2-5-3 3-3c2-1 4 0 4 4l1 4m-7 27 5 1c3 0 6-2 6-9l12 4 1 4c0 3-1 5-3 5l-16-3c-4 0-5-2-5-2m75-27 3-2 5-3-3-3c-2-1-4 0-4 4l-1 4m7 27-5 1c-3 0-6-2-6-9l-11 4-2 4c0 3 2 5 3 5l16-3c4 0 5-2 5-2"/><g fill="none" stroke="#000"><path d="M500 419c21 1 34-7 41-12 16-11 20-11 22-11 3 0 8 1 8 4 0 4-6 6-10 6l-14-3-3 2c2 1 23 8 27 1 4-6 8-17 8-17s-5-8-15-8-20 6-27 11c-6 5-15 12-37 12s-31-7-37-12c-7-5-17-11-27-11s-15 8-15 8l8 17c4 7 25 0 27-1l-3-2-14 3c-4 0-10-2-10-6 0-3 5-4 8-4 2 0 6 0 22 11 7 5 20 12 41 12z"/><path d="m453 403-14 3c-4 0-10-2-10-6 0-3 5-4 8-4 2 0 5 0 16 7zm94 0 14 3c4 0 10-2 10-6 0-3-5-4-8-4-2 0-5 0-16 7zm-81-9-3-2-5-3 3-3c2-1 4 0 4 4l1 4z"/><path d="m466 394-1-4c0-4-2-5-4-4l-3 3a31 31 0 0 0-3-2l7-3s14 5 18 9c1 1 2 6 1 8-7-1-12-4-15-7m-7 13-3 9c0 6 5 6 8 6s6-2 6-9c0 0-6-2-11-6z"/><path d="m462 409-3 6c0 3 2 5 5 5s5-5 3-8z"/><path d="m459 421 5 1c3 0 6-2 6-9l12 4 1 4c0 3-1 5-3 5l-16-3c-4 0-5-2-5-2zm75-27 3-2 5-3-3-3c-2-1-4 0-4 4a87 87 0 0 0-1 4z"/><path d="m534 394 1-4c0-4 2-5 4-4l3 3a31 31 0 0 1 3-2l-6-3c-1 0-15 5-19 9l-1 8c7-1 12-4 15-7m7 13 3 9c0 6-5 6-8 6s-6-2-6-9c0 0 6-2 11-6z"/><path d="M538 409s3 2 3 6c0 3-2 5-4 5-4 0-5-5-4-8z"/><path d="m541 421-5 1c-3 0-6-2-6-9l-11 4-2 4c0 3 2 5 3 5l16-3c4 0 5-2 5-2z"/></g><path fill="none" stroke="#fff" d="M481 419s3 2-1 5m-9-7 10 5m-8-2 7 3m-5-5 6 2m38-1s-3 2 1 5m9-7-10 5m8-2-7 3m5-5-6 2"/><g stroke="#000"><path d="M443 390h1l-1 1-1 2h-2a4 4 0 0 1-1 0 4 4 0 0 1-1-1v-2l1 1v1h1v1h1a1 1 0 0 0 1-1v-1l-1-1a49 49 0 0 0 0-1 11 11 0 0 1-1 0l-1-1v-2l1-1a2 2 0 0 1 1 0h2v1l1-1v3h-1a11 11 0 0 0 0-1 3 3 0 0 0 0-1 2 2 0 0 0-1 0v-1a1 1 0 0 0-1 0l-1 1v1l1 1a15 15 0 0 1 2 1v1m12 1a4 4 0 0 0-1 0h-1a6 6 0 0 0 0 1l-2 3a2 2 0 0 1-2 2h-1a4 4 0 0 1-1-1l-1-1v-1a2 2 0 0 1-1-1 2 2 0 0 1 1 0l2-5a1 1 0 0 0 0-1h-1 1l3 2h-2l-2 4a3 3 0 0 0 0 1v1l1 1h2a2 2 0 0 0 1-1l1-3 1-1v-1h-1v-1l3 2m4 8v1l-1 1a2 2 0 0 1-1 0 3 3 0 0 1-1 0l-4-2a4 4 0 0 0 1 0 1 1 0 0 0 1 0l3-6a2 2 0 0 0-1-1 1531 1531 0 0 1 5 5 2 2 0 0 1-1 0h-1a3 3 0 0 1-1 0l1 1v1zm-1-2 1-1 1-1-1-1h-1v-1l-2 3 1 1h1zm0 2a2 2 0 0 0 0-1l-1-1h-1l-1 2a1 1 0 0 0 0 1h2l1-1zm18 5a1 1 0 0 0-1-1v1a6 6 0 0 0-1 1l-1 3-1 1a3 3 0 0 1-1 0 3 3 0 0 1-1 1 4 4 0 0 1-1-1h-1l-1-1a2 2 0 0 1 0-1 2 2 0 0 1 0-1l2-5-1-1h1l3 1v1a3 3 0 0 0-1 0 2 2 0 0 0 0-1v1a1 1 0 0 0-1 0l-1 4a3 3 0 0 0-1 1l1 1 1 1h2v-1l2-3v-2a4 4 0 0 0-1-1l3 1a12 12 0 0 0 0 1m9 10-3-1a9 9 0 0 0 1 0 1 1 0 0 0 0-1l2-5-5 6v-1l-1-7-1 5v2h1l-4-1h2v-2l1-4h1a1 1 0 0 0-1-1v-1l2 1 1 7 3-5h3v1h-1l-2 6h1v1m9-2v1a2 2 0 0 1 0 1 2 2 0 0 1-1 1 3 3 0 0 1-1 0h-5v-1a4 4 0 0 0 1 0 1 1 0 0 0 1 0v-6a1 1 0 0 0 0-1h-1 5l1 1v1a2 2 0 0 1 0 1l-1 1a3 3 0 0 1-1 0h1l1 1zm-2-2h1a3 3 0 0 0 0-1v-1l-1-1a27 27 0 0 0-1 0l-1 3h1a2 2 0 0 0 1 0zm1 3v-1l-2-1h-1v3l1 1 1-1 1-1zm11 2h-2l-2-2-1-1h-1v3h1-3 1a1 1 0 0 0 0-1v-6a2 2 0 0 0-1 0v-1h5l1 1v2a2 2 0 0 1 0 1h-2l1 2 1 1a2 2 0 0 0 1 1h1zm-3-6v-1h-3v3h2l1-2zm13 6h-4l1-1-1-2h-3v3h1-3a1 1 0 0 0 1 0v-1l1-4 2-3 3 7h2v1zm-4-3-1-3-1 3zm15-7h-1l-1-1h-1l-1 1 1 3a157 157 0 0 1 1-1 1 1 0 0 0 1 0 2 2 0 0 0 0-1l1 3a3 3 0 0 0-1 0v-1a1 1 0 0 0-1 0h-1l1 3v1h1l-3 1v-1l-1-6-1-1h-1l7-2v2m9 0 1 2-5 3-1-1a9 9 0 0 0 1 0 1 1 0 0 0 0-1l-2-5a1 1 0 0 0-1 0 2 2 0 0 0-1 0v-1l3-1a2 2 0 0 0 0 1l2 5v1a1 1 0 0 0 1 0h1v-1h1v-2m5-8a4 4 0 0 1 1 0 5 5 0 0 1 1 2l1 1v2a4 4 0 0 1-1 1 4 4 0 0 1-1 1 4 4 0 0 1-3 1 4 4 0 0 1-1-1 5 5 0 0 1-1-1 5 5 0 0 1-1-2 4 4 0 0 1 0-2 4 4 0 0 1 1-1l1-1 1-1a4 4 0 0 1 2 1zm2 5a4 4 0 0 0 0-1 7 7 0 0 0-1-2 7 7 0 0 0-1-1 4 4 0 0 0-1-1 2 2 0 0 0-1 0h-1l-1 1a3 3 0 0 0 0 1v2l1 1a7 7 0 0 0 1 1l1 1h2a2 2 0 0 0 1-1v-1zm10-6-2 2-2-1-2-1-1 1 2 2h2l-3 2h-1l1-1-3-5a1 1 0 0 0-1-1 3 3 0 0 0-1 1v-1l3-2a4 4 0 0 1 1 0 3 3 0 0 1 1 0 2 2 0 0 1 1 0l1 1v1l-1 1 2 1h1a2 2 0 0 0 1 0h1zm-6-3h-3a5350 5350 0 0 0 2 3h1l1-1-1-2zm13-2 1 3-7 2a4 4 0 0 0 1-1l-2-6h-1l-1-1 6-2 1 2-1-1h-2l-1 1 1 3h1v-1a1 1 0 0 0 1 0 1 1 0 0 0 0-1l1 3a3 3 0 0 0 0-1h-1a2 2 0 0 0-1 0h-1l1 3a1 1 0 0 0 1 0h1a3 3 0 0 0 1 0v-1l1-1v-1m7-5a4 4 0 0 1 1 1l1 2a5 5 0 0 1-1 1 4 4 0 0 1 0 2 4 4 0 0 1-3 1 4 4 0 0 1-3-1 4 4 0 0 1-1-1 5 5 0 0 1 0-1v-2a4 4 0 0 1 0-2 4 4 0 0 1 3-1 4 4 0 0 1 2 0 4 4 0 0 1 1 1zm0 5a4 4 0 0 0 0-1 7 7 0 0 0 0-1 7 7 0 0 0 0-2 4 4 0 0 0-1-1 2 2 0 0 0-1-1h-1l-1 1a2 2 0 0 0-1 1v1a7 7 0 0 0 0 1v2l1 1 1 1h1a2 2 0 0 0 1-1 2 2 0 0 0 1-1z"/><path fill="none" d="M469 267h62m6 0h8v51c0 11-1 52-45 67a68 68 0 0 1-45-67v-51h9"/></g><path fill="#338a00" d="M494 133c-3 0-7 2-11 6 9-3 13 3 17 7-11 0-22 1-33 4-4-8-16-18-26-3 9-4 14 1 18 5-9 2-18 6-27 10-3-7-23-16-27 4 9-10 19 1 24-3l-24 16c-5-6-26-10-26 10 7-12 18-4 23-7-8 6-15 14-22 22-6-6-27-8-25 12 6-12 18-5 23-10l-2 3c-6 8-11 17-15 27-7-4-28 0-21 18 2-13 17-9 19-15-4 10-7 20-9 31-9 0-23 9-13 23-1-10 7-12 11-15a155 155 0 0 0-1 29c-8 3-18 17-2 26-5-8 0-13 3-17 1 9 2 19 5 28-7 5-15 18 1 26-5-8-1-13 2-18l12 27c-6 6-9 22 8 25-7-6-4-13-3-18 6 8 12 16 20 24-6 6-9 23 9 24-8-6-4-14-4-19 9 7 18 14 29 20-2 8 3 23 19 17-9-2-10-8-12-13 11 5 21 8 33 11-1 9 5 21 20 14-9-1-11-7-12-12a155 155 0 0 0 31 2c2 8 12 20 24 8-9 2-13-5-17-9 12-1 23-3 34-6 5 7 18 13 26-2-8 5-13 1-18-1l26-13c7 6 25 8 25-11-5 8-12 7-18 6 9-6 17-13 25-21 7 4 23 5 22-13-4 8-11 7-17 7 7-8 13-17 18-26 9 1 25-4 17-21-1 9-8 11-13 13 5-10 8-21 11-32 8-2 20-12 8-25 2 8-2 12-6 15a155 155 0 0 0 1-26c9-3 20-14 7-26 2 9-3 13-7 17l-4-26c7-4 16-19-2-26 6 7 2 13 0 18l-11-26c6-6 11-22-7-25 7 6 4 13 3 18l-16-22c3-8 1-23-16-21 8 3 8 9 9 13l-20-16c2-9-2-25-19-19 9 2 10 8 12 14-9-6-18-10-28-14 1-9-5-25-21-17 10 1 11 9 14 14-13-4-26-6-39-7-2-6-7-13-15-13zm7 17h2c-5 3-10 13-21 10 12 14 25-2 27-10 13 1 26 3 38 7-6 2-13 9-22 2 7 17 24 8 29 1 10 4 20 9 29 15-6 0-14 8-23 0 5 17 23 10 28 3a151 151 0 0 1 24 22c-5-4-17 5-25-6 1 19 22 14 28 8l16 24c-5-3-17-1-20-13-5 18 15 21 23 18l11 27c-5-4-16-4-17-15-9 15 10 22 18 21 3 9 4 19 4 29-1-6-14-10-11-22-14 13 3 26 12 26v3a151 151 0 0 1-4 30c1-7-14-11-9-24-15 11 1 26 9 27-3 12-7 23-12 34 0-6-9-15-2-24-17 6-8 24 0 28-6 10-12 20-20 28 2-6-3-16 7-23-19 0-16 21-10 27-8 8-17 16-26 22 1-6-2-16 7-21-17-2-17 16-12 24-9 5-19 10-28 13h-3c6-2 6-17 19-17-16-10-24 11-22 18v1c-11 4-22 6-34 7 6-3 11-13 22-10-12-14-26 2-28 10a153 153 0 0 1-33-3l-1-1c6 2 15-9 26-1-6-18-26-7-29 0l-1 1c-13-3-25-7-36-13 6 3 16-9 26 0-5-18-25-9-29-2-10-5-18-11-26-18 5 1 14 0 18 9 4-18-17-19-24-15-8-8-16-17-22-26 5 3 17 0 21 12 5-18-16-20-24-17-5-9-10-20-13-30 2 6 17 6 17 19 10-16-11-24-18-23-3-10-5-20-6-31 4 5 16 6 15 18 10-14-7-23-15-23a152 152 0 0 1 1-29c3 5 11 12 6 22 16-9 3-25-5-28l7-24c2 5 5 11-1 18 16-4 11-20 5-27 3-8 8-15 12-22 1 5 1 11-6 15 16 1 16-15 12-23l19-20c-1 6 0 13-8 17 16 2 17-14 14-22 6-5 12-10 19-13-1 5-2 12-11 15 15 5 20-10 19-19 9-5 18-8 28-11-5 4-8 14-19 13 14 12 25-6 25-15 10-2 21-3 33-3z"/><path fill="#ad7d5a" stroke="#000" d="m409 367-1 5c0 1-1 3 1 3l1-2s-1 3 1 3l1-3c0 1-1 3 1 4l2-4s-2 4 0 4 2-4 2-4-1 5 1 4l2-2v-9l-5 3c-1 1-6-2-6-2zm28-4-1 3s0 3 3 2h9l6 1 4-1h2l2-1-3-2h-4l-6-2h-12z"/><path fill="none" stroke="#060" d="M421 370v-5l2 2v-4l2 2v-4l3 3 1-4 2 4c0 2 2-2 2-2l1 5 1-2 1 4 3-4 2 4h4v2l2-2 2 2 3-1 3 1 1-1c1-1 2 0 2 1l2-3 2 3 1-3 2 1 1-4 2 2c1 2 1-2 1-2l3 5m57-1 2-3 2 3 2-1 1 2 2-2 2 2 3-1 1 1 5-1 2 1 1-2 2 2 2-3 2 2 3-2s2-1 2 1l1-2c0-2 1-1 2 1 0 0 0-3 2-3l1 4 3-2v5s2-4 3-3v5l2-1 1 2h2m-107 8 3-4 3 4 1-3 3 3 2-2 2 4 3-2s2 1 2 4l3-2s2 2 1 4l6-2 3 2 3-4s2 0 2 2l2-4 1 2 2-4 2 2s1-3 3-3"/><path fill="#5ac800" d="M421 370v-5l2 2v-4l2 2v-4l3 3 1-4 2 4c0 2 2-2 2-2l1 5 1-2 1 4 3-4 2 4h4v2l2-2 2 2 3-1 3 1 1-1c1-1 2 0 2 1l2-3 2 3 1-3 2 1 1-4 2 2c1 2 1-2 1-2l3 5s-16 5-27 4l-24-4m108-1 2-3 2 3 2-1 1 2 2-2 2 2 3-1 1 1 5-1 2 1 1-2 2 2 2-3 2 2 3-2s2-1 2 1l1-2c0-2 1-1 2 1 0 0 0-3 2-3l1 4 3-2v5s2-4 3-3v5l2-1 1 2h2s-14 2-26 1c-13-1-25-6-25-6m-9 10c0-1-4 10-16 10-17 1-31-7-31-7l3-4 3 4 1-3 3 3 2-2 2 4 3-2s2 1 2 4l3-2s2 2 1 4l6-2 3 2 3-5 2 2 2-4 2 3 1-4 2 2 3-3z"/></svg>