<?xml version="1.0" encoding="UTF-8"?>
<svg xmlns="http://www.w3.org/2000/svg" width="1500" height="1000" viewBox="0 0 3 2">
<rect width="1" height="2" fill="#009246"/>
<rect width="1" height="2" x="1" fill="#fff"/>
<rect width="1" height="2" x="2" fill="#ce2b37"/>
<path id="path-b7426" d="m m0 82 m0 103 m0 65 m0 65 m0 65 m0 65 m0 65 m0 65 m0 65 m0 65 m0 65 m0 65 m0 65 m0 65 m0 65 m0 65 m0 65 m0 65 m0 65 m0 65 m0 81 m0 121 m0 54 m0 98 m0 48 m0 52 m0 71 m0 49 m0 78 m0 99 m0 52 m0 108 m0 54 m0 113 m0 121 m0 84 m0 119 m0 112 m0 66 m0 122 m0 104 m0 109 m0 117 m0 67 m0 66 m0 74 m0 66 m0 82 m0 83 m0 87 m0 116 m0 77 m0 78 m0 50 m0 98 m0 71 m0 90 m0 67 m0 104 m0 113 m0 72 m0 84 m0 102 m0 72 m0 74 m0 43 m0 68 m0 79 m0 87 m0 106 m0 55 m0 66 m0 106 m0 75 m0 107 m0 108 m0 107 m0 97 m0 85 m0 66 m0 116 m0 109 m0 77 m0 106 m0 90 m0 65 m0 61 m0 61"/>
</svg>
