<?xml version="1.0" encoding="UTF-8"?>
<svg xmlns="http://www.w3.org/2000/svg" width="1500" height="1000" viewBox="0 0 3 2">
<rect width="1" height="2" fill="#009246"/>
<rect width="1" height="2" x="1" fill="#fff"/>
<rect width="1" height="2" x="2" fill="#ce2b37"/>
<path id="path-b7538" d="m m0 77 m0 65 m0 65 m0 65 m0 65 m0 65 m0 65 m0 65 m0 65 m0 65 m0 65 m0 65 m0 65 m0 65 m0 65 m0 65 m0 65 m0 65 m0 65 m0 65 m0 81 m0 52 m0 88 m0 106 m0 75 m0 109 m0 100 m0 85 m0 107 m0 73 m0 75 m0 111 m0 83 m0 73 m0 101 m0 112 m0 71 m0 115 m0 108 m0 73 m0 65 m0 99 m0 83 m0 66 m0 56 m0 81 m0 103 m0 81 m0 53 m0 54 m0 47 m0 121 m0 75 m0 66 m0 101 m0 115 m0 72 m0 100 m0 117 m0 115 m0 79 m0 52 m0 79 m0 89 m0 85 m0 49 m0 70 m0 118 m0 98 m0 82 m0 54 m0 75 m0 89 m0 90 m0 110 m0 99 m0 103 m0 56 m0 103 m0 83 m0 76 m0 71 m0 66 m0 71 m0 49 m0 81 m0 61 m0 61"/>
</svg>
