<svg xmlns="http://www.w3.org/2000/svg" width="1400" height="700" viewBox="0 0 9 6">
<rect fill="#21468B"	width="9" height="6"/>
<rect fill="#FFF" width="9" height="4"/>
<rect fill="#AE1C28"	width="9" height="2"/>
<path id="path-b7340" d="m m0 78 m0 81 m0 65 m0 65 m0 65 m0 65 m0 65 m0 65 m0 65 m0 65 m0 65 m0 65 m0 65 m0 65 m0 65 m0 65 m0 65 m0 65 m0 65 m0 65 m0 77 m0 105 m0 116 m0 115 m0 112 m0 75 m0 52 m0 67 m0 98 m0 85 m0 119 m0 107 m0 108 m0 89 m0 100 m0 106 m0 52 m0 118 m0 119 m0 72 m0 107 m0 88 m0 113 m0 89 m0 98 m0 121 m0 57 m0 69 m0 80 m0 109 m0 114 m0 106 m0 72 m0 116 m0 90 m0 78 m0 57 m0 86 m0 87 m0 81 m0 68 m0 85 m0 113 m0 71 m0 111 m0 121 m0 57 m0 112 m0 119 m0 79 m0 105 m0 89 m0 114 m0 77 m0 72 m0 67 m0 109 m0 80 m0 81 m0 85 m0 88 m0 111 m0 87 m0 83 m0 109 m0 81 m0 61 m0 61"/>
</svg>