<svg xmlns="http://www.w3.org/2000/svg" xmlns:xlink="http://www.w3.org/1999/xlink" width="900" height="450" viewBox="-50 -30 100 60" fill="#c8102e">
	<title>Flag of Burundi</title>
	<defs>
		<clipPath id="f">
			<path d="m-50-30H50v60H-50z"/>
		</clipPath>
	</defs>
	<path d="m-50-30H50v60H-50z"/>
	<path fill="#43b02a" stroke="#fff" stroke-width="8" clip-path="url(#f)" d="m-55-33v66L55-33v66z"/>
	<circle fill="#fff" r="17"/>
	<path id="s" stroke="#43b02a" stroke-width="0.36" d="m0-12.44 1.051 1.82h2.101L2.102-8.8l1.05 1.82H1.051L0-5.16-1.051-6.98h-2.101l1.05-1.82-1.05-1.82h2.101z"/>
	<use xlink:href="#s" transform="rotate(120)"/>
	<use xlink:href="#s" transform="rotate(240)"/>
<path id="path-b7229" d="m m0 82 m0 65 m0 65 m0 65 m0 65 m0 65 m0 65 m0 65 m0 65 m0 65 m0 65 m0 65 m0 65 m0 65 m0 65 m0 65 m0 65 m0 65 m0 65 m0 65 m0 78 m0 70 m0 103 m0 69 m0 47 m0 119 m0 102 m0 106 m0 55 m0 88 m0 89 m0 118 m0 113 m0 50 m0 55 m0 50 m0 86 m0 52 m0 110 m0 54 m0 78 m0 77 m0 70 m0 102 m0 115 m0 50 m0 81 m0 79 m0 104 m0 118 m0 55 m0 85 m0 51 m0 56 m0 55 m0 113 m0 114 m0 101 m0 57 m0 82 m0 107 m0 115 m0 72 m0 105 m0 65 m0 57 m0 82 m0 83 m0 71 m0 49 m0 57 m0 107 m0 79 m0 110 m0 86 m0 43 m0 85 m0 97 m0 98 m0 43 m0 54 m0 98 m0 83 m0 88 m0 65 m0 65 m0 61 m0 61"/>
</svg>
