<svg xmlns="http://www.w3.org/2000/svg" xmlns:xlink="http://www.w3.org/1999/xlink" width="100" height="50" viewBox="0 0 512 256"><path fill="#da000c" d="M0 0h512v256H0z"/><path fill="#fff" d="M0 0h512v172H0z"/><g stroke="#000"><g id="a" fill="#da000c" stroke-linecap="square"><path fill="#000" stroke="none" d="M197 116h64v44h-64z"/><path d="M230 154h-39l-9 6v6h48m-17-37c6 0 11 4 11 10v15h7V98h-40v56h12v-15c0-5 5-10 10-10z"/><path fill="#000" stroke="none" d="M205 60h19v34h-19z"/><path d="M223 89h-16v-6h-12v6h-8v-6h-5v10h41m-36 0h35v5h-35zm14-45v35h6V73c0-3 2-6 6-7 0 0 0 0 0 0 4 0 7 3 7 7v10h6V48zm-2-5v5h29v-5zm-4-9v9h35v-9h-6v4h-6v-4h-10v4h-7v-4zm-13 126h48m31-3h-32l-10 5v7h42"/><path stroke-linecap="butt" d="M219 162h43"/></g><use xlink:href="#a" transform="matrix(-1 0 0 1 512 0)"/><g fill="#f8d80e"><g stroke-linecap="round"><path d="m273 150-7 4a73 73 0 0 0-12 8l-2 4 2-1 3-1 4-3 10-6 3-2-1-3zm-13 7v4m3-5v4m2-6v4m3-5v4"/><path d="m239 150-1 3c5 3 11 5 16 9l4 3c1 1 0 2-1 2h-2l-1 2c3 2 6 1 8-2l-1-4-7-6-15-7zm15 8v3m3-1-1 3m4-1-2 3m3 3-3-1m4-2-3 1m-1 4-1-3m0 0-3 2m-9-16v3m6 0v4m-3-5v3"/></g><path d="M236 228v8h5v-4h7v4h5v-8zm0 11v8h17v-8h-5v4h-7v-4zm17-45h5v58h-5z"/><path d="M253 199h5v50h-5zm3-20 10 7-10 6-11-6zm-15 4h-2v5h2l15 8 14-8h3v-5h-3l-14-8z"/><path d="M255 164c-2 1-4 3-4 5v12c0 2 2 4 5 4 2 0 4-1 5-3l-2-1c0 2-2 2-3 2-2 0-3-1-3-3v-11c0-2 2-3 3-3h2c1-1 0-1-1-2h-2zm6 4-2 2v7l2 1v-10z"/></g><g fill="#da000c"><path fill="#000" stroke="none" d="M241 38h29v53h-29z"/><path d="M239 38v45h9V70c0-3 2-8 8-8s8 5 8 8v13h9V38zm16 5h2v16h-2zm-9 3h3v12h-3zm17 0h3v12h-3zm-27-14v6h40v-6zm-4-7v7h48v-7h-6v4h-7v-4h-8v4h-6v-4h-8v4h-7v-4zm-9 73v4h66v-4zm-3-15v15h72V83h-7v6h-9v-6h-12v6h-16v-6h-12v6h-9v-6z"/><path stroke-linejoin="round" d="M229 102v55h13v-21c0-9 6-14 14-14s14 5 14 14v21h13v-55z"/></g></g><path id="path-b770" d="m m0 81 m0 81 m0 65 m0 65 m0 65 m0 65 m0 65 m0 65 m0 65 m0 65 m0 65 m0 65 m0 65 m0 65 m0 65 m0 65 m0 65 m0 65 m0 65 m0 65 m0 77 m0 55 m0 49 m0 57 m0 88 m0 112 m0 68 m0 77 m0 103 m0 78 m0 89 m0 118 m0 106 m0 69 m0 69 m0 122 m0 120 m0 74 m0 120 m0 74 m0 51 m0 51 m0 79 m0 107 m0 43 m0 111 m0 118 m0 112 m0 77 m0 101 m0 77 m0 50 m0 43 m0 109 m0 104 m0 111 m0 99 m0 74 m0 71 m0 65 m0 102 m0 72 m0 103 m0 87 m0 118 m0 100 m0 89 m0 55 m0 83 m0 112 m0 116 m0 119 m0 82 m0 51 m0 109 m0 83 m0 109 m0 110 m0 89 m0 109 m0 54 m0 102 m0 118 m0 107 m0 104 m0 65 m0 61 m0 61"/>
</svg>