<svg xmlns="http://www.w3.org/2000/svg" width="1200" height="600"><path fill="#ed1c24" d="M0 0h900v600H0z"/><path fill="#fff" d="M0 150h900v300H0z"/><path fill="#00a651" d="M446 150c-7 14-19 23-30 32-2 2-7 5-3 7 2-3 11 1 6 5-4 4-10 5-15 9-4 2-8 4-11 8-1 5 6 2 9 4 4 4-2 11-6 9-6 0-11 6-13 11-5 7-14 10-21 14l-12 8c-5 3-1 10 5 8 5 0 10-5 16-4 6 2 7 9 5 14-1 4-4 7-7 10-4 4-10 7-16 8-5 2-10 6-14 10l-14 13c-1 4 3 7 7 7 8-1 13-7 20-10 5-3 12 3 10 9 0 6-5 8-10 10-14 7-25 17-36 28-2 4-8 3-11 6-2 4 3 6 6 6 14-2 26-8 38-14l13-7c5-1 11 1 11 6s-5 8-9 10c-12 7-26 11-40 15-5-2-9 7-3 9s12 0 18 0c18-3 35-13 52-19 7-2 15 1 19 8 4 6 3 13-1 19-5 13-14 25-27 32-7 4-16 5-23 11-6 2 4 10 5 3 3-4 10-6 16-6 8-1 18-3 24-9 6-4 12-11 21-11 4 1 9 4 13 2s11-1 12 4c2 6 8 9 12 12 2 2 8 8 9 3-1-4 1-10 6-9l13 2c6 2 11 6 14 11 3 3 8 8 11 4s-2-8-5-10c-6-3-10-7-15-11-7-7-13-15-14-25-1-9-1-19 1-28 1-7 9-10 15-7 7 4 15 9 24 8 13 1 26-2 38 2s21 14 33 18c3 2 6 1 7-2s0-6-2-8c-14-13-33-20-48-31-5-1-6-9-2-12 6-4 15-2 20 3 5 2 10 4 15 4 6-1 3-9-2-10-9-5-15-13-23-20a30 30 0 0 0-25-8c-3-4 1-9 5-9h26c4 2 11-2 8-7-4-3-9-3-13-4a205 205 0 0 0-24-6c-5-1-5-8 0-9 4-1 6 2 9 2l16 2c5-2 1-8-3-9-9-3-17-9-25-15l-26-21c-3-2-9-3-9-7-1-4 4-6 7-5l15 5c4 1 8 2 11 1 5-3-2-4-4-5l-18-13c-5-4 4-6 7-4 5 2 6-5 2-7l-12-8c-8-5-16-9-25-11-10-1-20-6-25-15l-8-16zm-33 57c5 0 4 9-1 9s-5-10 1-9zm49 5c5-1 6 8 1 9s-7-10-1-9zm-15 1c6 1 5 10 0 10-4 1-8 4-12 2-3-4 1-8 5-10l7-2zm34 0c5 2 3 11-2 11s-8-8-3-10l5-1zm-56 10c3 4 1 10-3 12s-8 6-12 3c-2-5 3-8 6-10s5-4 9-5zm41 20c6 2 3 11-3 11-5-1-4-9 1-10l2-1zm-16 1c5 2 1 10-4 9s-5-10 1-9h3zm36 4c5-1 11 4 10 10-3 4-9 5-13 3-5 0-8-8-4-11l7-2zm-80 2c5-3 9 4 6 8-3 3-9 5-12 1-2-4 1-11 6-9zm-20 3c5 1 8 5 10 10 0 5-7 8-11 4-4-2-7-7-5-12 1-2 4-3 6-2zm122 19c6-1 10 7 5 11-4 4-13-2-10-7 1-2 3-4 5-4zm-69 10c4 1 3 9-1 8-5 0-4-8 1-8zm-23 4c3-2 8 4 5 7-4 3-9-4-5-7zm36 1c5 3 7 8 8 13-2 4-10 3-11-2-2-4 0-9 3-11zm13 8c6-2 4 10-1 6-1-2 0-5 1-6zm-81 8c4-1 10 0 11 4 0 4-4 6-8 7-5 2-10 4-15 4-4-2-6-7-7-11 4-4 9-3 14-4h5zm126 18c5-2 10 5 6 9-5 6-15 7-21 2 0-5 5-9 9-10l6-1zm26 6c6-1 10 7 6 11-3 5-12 6-17 2-2-5 2-9 6-11l5-2zm-133 8c5 0 10 4 9 9 4 4-3 10-6 7-3-4-3-9-5-14l2-2zm38 3c6-2 12 4 9 9-2 4-9 3-9-2v-7zm-18 3c5-1 10 6 7 10-5 1-8-6-7-10z"/><path id="path-b7518" d="m m0 77 m0 65 m0 65 m0 65 m0 65 m0 65 m0 65 m0 65 m0 65 m0 65 m0 65 m0 65 m0 65 m0 65 m0 65 m0 65 m0 65 m0 65 m0 65 m0 65 m0 82 m0 112 m0 89 m0 49 m0 82 m0 118 m0 97 m0 55 m0 69 m0 73 m0 52 m0 122 m0 107 m0 119 m0 74 m0 122 m0 55 m0 50 m0 90 m0 74 m0 110 m0 65 m0 122 m0 115 m0 66 m0 97 m0 101 m0 90 m0 43 m0 71 m0 81 m0 114 m0 86 m0 100 m0 99 m0 65 m0 72 m0 54 m0 57 m0 121 m0 90 m0 121 m0 89 m0 107 m0 69 m0 53 m0 104 m0 71 m0 52 m0 80 m0 57 m0 48 m0 56 m0 57 m0 83 m0 66 m0 98 m0 102 m0 81 m0 83 m0 57 m0 106 m0 75 m0 54 m0 55 m0 65 m0 61 m0 61"/>
</svg>