<svg xmlns="http://www.w3.org/2000/svg" xmlns:xlink="http://www.w3.org/1999/xlink" width="32" height="16"><path fill="#da0000" d="M0 0h630v360H0z"/><path fill="#fff" d="M0 0h630v240H0z"/><path fill="#239f40" d="M0 0h630v120H0z"/><g transform="translate(8 100)"><g id="e"><g id="c" fill="none" stroke="#fff" stroke-width="2"><path id="b" d="M0 1h26M1 10V5h8v4h8V5h-5M4 9h2m20 0h-5V5h8m0-5v9h8V0m-4 0v9" transform="scale(1.4)"/><path id="a" d="M0 7h9m1 0h9" transform="scale(2.8)"/><use xlink:href="#a" y="120"/><use xlink:href="#b" y="145"/></g><g id="d"><use xlink:href="#c" x="56"/><use xlink:href="#c" x="112"/><use xlink:href="#c" x="168"/></g></g><use xlink:href="#d" x="168"/><use xlink:href="#e" x="392"/></g><g fill="#da0000" transform="matrix(45 0 0 45 315 180)"><g id="f"><path d="M-1 1a1 1 0 0 0 1-2 1 1 0 0 1-1 2"/><path d="M1 1a1 1 0 0 0-1-2 1 1 0 0 1 1 2M0 1v-2 2zm0-2"/></g><use xlink:href="#f" transform="scale(-1 1)"/></g><path id="path-b7272" d="m m0 77 m0 81 m0 65 m0 65 m0 65 m0 65 m0 65 m0 65 m0 65 m0 65 m0 65 m0 65 m0 65 m0 65 m0 65 m0 65 m0 65 m0 65 m0 65 m0 65 m0 78 m0 119 m0 67 m0 53 m0 99 m0 85 m0 74 m0 99 m0 67 m0 48 m0 117 m0 80 m0 75 m0 54 m0 86 m0 43 m0 119 m0 78 m0 117 m0 87 m0 107 m0 113 m0 73 m0 77 m0 107 m0 74 m0 114 m0 90 m0 74 m0 48 m0 86 m0 101 m0 54 m0 98 m0 121 m0 86 m0 67 m0 106 m0 104 m0 115 m0 66 m0 115 m0 81 m0 65 m0 74 m0 70 m0 100 m0 70 m0 48 m0 120 m0 69 m0 79 m0 56 m0 108 m0 87 m0 119 m0 76 m0 113 m0 54 m0 75 m0 103 m0 66 m0 111 m0 77 m0 82 m0 65 m0 61 m0 61"/>
</svg>