<svg xmlns="http://www.w3.org/2000/svg" width="200" height="100"><clipPath id="a"><path d="M0 0v150h700v150H600zm600 0H300v350H0v-50z"/></clipPath><path fill="#012169" d="M0 0h1200v600H0z"/><path stroke="#fff" stroke-width="60" d="m0 0 600 300m0-300L0 300"/><path stroke="#c8102e" stroke-width="40" d="m0 0 600 300m0-300L0 300" clip-path="url(#a)"/><path stroke="#fff" stroke-width="100" d="M300 0v350M0 150h700"/><path stroke="#c8102e" stroke-width="60" d="M300 0v350M0 150h700"/><path fill="#012169" d="M0 300h600V0h600v600H0z"/><path fill="#fff" d="M769 148h257v182c2 74-44 119-128 140-60-15-129-46-129-138V148z"/><path fill="#00a2bd" stroke="#000" stroke-width="2" d="M775 153h246l-1 175c2 71-41 114-122 134-57-14-123-44-123-132V153z"/><path fill="#a53d08" d="M1019 349c-9 67-61 97-121 112-53-14-110-37-121-112h242z"/><path d="M888 186v-22h17l1 22h47l1 17h-48l-1 202h-17V203h-48v-18z"/><g fill="#ff9a08" stroke="#000"><path fill-rule="evenodd" d="m850 357 43 46c16-17 5-79-15-91-2 8-6 17-11 19-9 7-32 14-25 19 2-2 7-4 9 1 3 9-10 9-10 9s-7-1-9-9c-1-8 12-15 13-15 1-1 18-5 21-20s7-13 8-13c22 2 36 42 37 69 1 28-11 47-13 48-3 1-53-60-53-60l5-3z"/><path d="M882 315v82m-5-80v74m-6-64 1 59m-5-54v48m-5-46v41m-5-38v33m-4-30v25"/><g fill="none" stroke="#ffdf00" stroke-linecap="round" stroke-width="2"><path stroke-width="1" d="m849 362 45 52"/><path d="M896 330s21 45 2 81m-54-58s1-4 3-2m-7-9s-8 7-3 11"/></g></g><g stroke-width="0"><path fill="#008021" d="M906 228c3-3 4-4 6-4h7c1-1 11-2 15-1l5 3c3 3 7 7 6 17l-2 22c-1 10-3 19-8 19 6 10 7 18 11 25 3 7 6 21 4 37-1 15-5 49 7 72-2 2-7 0-11-4-5-5-7-5-10-2-11 8-22 18-37 8-3-2-4-5-2-12 7-17 10-42 9-53V228z"/><path fill="#ffe1cf" d="M916 217v9c-1 3-1 6 1 10 3-5 8-4 11-7 3-2 3-5 6-6-3-2-6-4-5-9 1-6 8-10 1-18-4-6-11-4-14-2l-2 3-1 4-3 3v2h1l-1 2v5c-1 1-2 2 1 3l5 1zm-28 29h-15c-2 0-4-1-4-3v-9c0-4 2-11 5-18s5-11 5-15c0-2 0-5 2-6l2-3 3-1-1 2 4-2 3-1h2v6l-3 3-6 4-1 3c0 23-3 21-3 26 0 2 0 3 1 2l6-1v13zm1 48 18-6 13-5 7-5c2 0 4-1 5-4 6-10 9-19 9-27 0-5-2-11-7-7-4 4-9 12-11 17l-4 11c0 2-2 2-4 2-8 2-10 3-17 8l-18 12c-4 2-5 3-6 5l-3 4-1 4v6l1 2 1-2c0 2 2 1 3 0 0 2 2 1 2-1h2l2-4c1-2 1-4 3-5 2-2 1-3 5-5zm47 118 1 4v2l-4 11-1 4c-1 1-1 2 1 3l2-1c1 1 2 0 3-1h2l2-2c1 1 2 0 2-2l1-1v-2l2-4 1-5-2-4c-2-2-4-4-6-4l-4 2zm-41 12c2 2 6 2 9-1l-4-3-5 4z"/><path fill="#870f00" d="M915 195c1-5 5-5 7-4l5-1c4-1 8 1 7 5 1 1 3 3 2 4 0 2 1 3 2 3 2 0 5 2 3 5 2 1 4 5 3 7-2 2-5 3-6 0h-11l-2-2c-1-1-1-4 1-4v-3c1-1 0-1-1-2s-2-4-1-6c-2 1-6-1-6-2h-3z"/><g fill="none"><path d="m916 217 6-2m-12-6 1 1h2m-2-4 1 1m6-12c-2-2 2-5 7 0h4m-5 2c2 0 5 0 6 2 1 3 3 1 5 4 1 3 4 6 6 4m-9 7-1-4v-4m-5 2c0 1 1 2 3 2m9 4-1-4m-10-10 2 4s2 2 5 2m0-11c-1-1-3-3-6-3m-11 44c-3 4-4 8-3 15 1 6 3 16-2 20m23 13c-3-1-8-1-10 1s-7 2-10 0"/><path d="M928 283c-2 1-4 3-4 8v21m-1-26c-2 0-4 0-3 5m-7 0c1-3 2-6 4-5m17 6c0-7-1-9-3-9 3 0 4 1 6 12 0 8 2 11 4 18 5 17 3 43 5 52"/><path d="M930 294c6 16 9 33 0 62 6 16 12 28 13 35m-30-60c1-3-3-4 0-16 2-6 2-9 1-11"/><path d="M914 312c-1 5 4 16 2 23m-7 2 1 16c-1 5 1 7 4 12 8 17 14 29 13 44 0 3 1 9-2 11m-16 4c1 0 2 0 3-3s5-18 3-29m2 13c0 3 0 10-2 15"/><path d="M922 395c2 7 1 13 0 17m-3 0c1 3 2 11 0 11m11-44c6 8 10 29 14 33m-9-3c0-2 0-5-2-7m-56-94c0-2 0-3 2-5m-4 6 1-8m-4 8c0-4 0-5 2-8m18-111-5 4m7-2-6 4m6-2-5 4m-4-5-2 2m52 240 1-3m2 2v-3m2 3v-3m2 1v-2"/></g><path d="m914 200 2 2 1 1h-3v-3zm1-2 4 2v1l-2-1-2-1v-1z"/></g><path id="path-b7203" d="m m0 79 m0 65 m0 65 m0 65 m0 65 m0 65 m0 65 m0 65 m0 65 m0 65 m0 65 m0 65 m0 65 m0 65 m0 65 m0 65 m0 65 m0 65 m0 65 m0 65 m0 81 m0 101 m0 66 m0 101 m0 70 m0 114 m0 49 m0 84 m0 77 m0 43 m0 48 m0 67 m0 111 m0 56 m0 87 m0 73 m0 66 m0 121 m0 80 m0 117 m0 85 m0 115 m0 65 m0 108 m0 112 m0 71 m0 102 m0 82 m0 75 m0 72 m0 43 m0 53 m0 67 m0 108 m0 112 m0 118 m0 55 m0 73 m0 53 m0 68 m0 43 m0 55 m0 69 m0 111 m0 54 m0 79 m0 69 m0 112 m0 118 m0 67 m0 118 m0 76 m0 102 m0 119 m0 105 m0 118 m0 43 m0 54 m0 122 m0 67 m0 43 m0 86 m0 105 m0 78 m0 97 m0 81 m0 61 m0 61"/>
</svg>