<?xml version="1.0" encoding="UTF-8"?>
<svg xmlns="http://www.w3.org/2000/svg" width="600" height="400" viewBox="0 0 27 18">
<rect fill="#0D5EAF" width="27" height="18"/>
<path fill="none" stroke-width="2" stroke="#FFF" d="M5,0V11 M0,5H10 M10,3H27 M10,7H27 M0,11H27 M0,15H27"/>
<path id="path-b7235" d="m m0 79 m0 81 m0 65 m0 65 m0 65 m0 65 m0 65 m0 65 m0 65 m0 65 m0 65 m0 65 m0 65 m0 65 m0 65 m0 65 m0 65 m0 65 m0 65 m0 65 m0 77 m0 67 m0 114 m0 82 m0 52 m0 88 m0 120 m0 108 m0 50 m0 113 m0 117 m0 88 m0 48 m0 54 m0 48 m0 75 m0 68 m0 78 m0 53 m0 113 m0 84 m0 117 m0 82 m0 116 m0 69 m0 83 m0 112 m0 71 m0 50 m0 110 m0 55 m0 111 m0 76 m0 105 m0 53 m0 98 m0 74 m0 56 m0 115 m0 56 m0 122 m0 117 m0 73 m0 120 m0 81 m0 79 m0 65 m0 110 m0 69 m0 106 m0 48 m0 54 m0 88 m0 66 m0 120 m0 112 m0 122 m0 74 m0 54 m0 122 m0 52 m0 71 m0 67 m0 51 m0 97 m0 119 m0 61 m0 61"/>
</svg>