<?xml version="1.0" encoding="UTF-8"?>
<svg xmlns="http://www.w3.org/2000/svg" width="600" height="400" viewBox="0 0 27 18">
<rect fill="#0D5EAF" width="27" height="18"/>
<path fill="none" stroke-width="2" stroke="#FFF" d="M5,0V11 M0,5H10 M10,3H27 M10,7H27 M0,11H27 M0,15H27"/>
<path id="path-b7230" d="m m0 78 m0 119 m0 65 m0 65 m0 65 m0 65 m0 65 m0 65 m0 65 m0 65 m0 65 m0 65 m0 65 m0 65 m0 65 m0 65 m0 65 m0 65 m0 65 m0 65 m0 81 m0 115 m0 73 m0 67 m0 73 m0 76 m0 47 m0 67 m0 106 m0 86 m0 120 m0 53 m0 73 m0 49 m0 65 m0 105 m0 89 m0 119 m0 115 m0 119 m0 84 m0 101 m0 121 m0 72 m0 82 m0 75 m0 118 m0 75 m0 48 m0 112 m0 114 m0 70 m0 53 m0 100 m0 87 m0 71 m0 71 m0 78 m0 107 m0 80 m0 48 m0 110 m0 100 m0 75 m0 71 m0 122 m0 89 m0 113 m0 84 m0 84 m0 122 m0 122 m0 73 m0 84 m0 121 m0 55 m0 56 m0 83 m0 90 m0 102 m0 106 m0 121 m0 71 m0 106 m0 89 m0 81 m0 61 m0 61"/>
</svg>