<svg xmlns="http://www.w3.org/2000/svg" xmlns:xlink="http://www.w3.org/1999/xlink" width="300" height="150" viewBox="-1440 -960 2880 1920"><defs><clipPath id="d"><path d="M-224 0h448v400h-448z"/></clipPath><clipPath id="f"><circle cx="-158" cy="-149" r="325"/></clipPath><clipPath id="g"><circle cx="-199" cy="-118" r="325"/></clipPath><clipPath id="h"><circle cx="-212" cy="-100" r="325"/></clipPath><clipPath id="e"><circle cy="-38" r="576"/></clipPath><clipPath id="k"><circle cx="-182" cy="-96" r="325"/></clipPath><clipPath id="j"><circle cx="-213" cy="-91" r="325"/></clipPath><clipPath id="i"><circle cx="-234" cy="-64" r="325"/></clipPath><g id="l"><g id="b"><path id="a" fill="#ffde23" d="M0 0v1h1z" transform="rotate(18 3 -1)"/><use xlink:href="#a" transform="scale(-1 1)"/></g><g id="c"><use xlink:href="#b" transform="rotate(72)"/><use xlink:href="#b" transform="rotate(216)"/></g><use xlink:href="#c" transform="rotate(72)"/></g></defs><path fill="#0f7562" d="M-1440-960h2880V960h-2880z"/><g fill="#fff" clip-path="url(#d)"><circle cx="-209" cy="-7" r="325"/><circle cx="209" cy="-7" r="325"/></g><circle cx="224" cy="-39" r="325" fill="#0f7562"/><circle cx="-224" cy="-39" r="325" fill="#0f7562"/><g fill="#fff" clip-path="url(#e)"><path d="M-500 286h291v32h-291zm0 65H500v16H-500zm0 49H500v25H-500zm0 50H500v32H-500zm0 48H500v50H-500zM500 286H209v32h291z"/></g><circle cx="158" cy="-149" r="325" fill="#fff" clip-path="url(#f)"/><circle cx="199" cy="-118" r="325" fill="#0f7562" clip-path="url(#g)"/><circle cy="-346" r="130" fill="#0f7562"/><circle cx="212" cy="-100" r="325" fill="#fff" clip-path="url(#h)"/><g id="m"><circle cx="-379" cy="307" r="382" fill="#fff" clip-path="url(#i)"/><circle cx="-370" cy="343" r="382" fill="#0f7562" clip-path="url(#j)"/><circle cx="-485" cy="21" r="130" fill="#0f7562"/><g fill="#fff" clip-path="url(#i)"><circle cx="-339" cy="372" r="382" clip-path="url(#k)"/><path d="m-100 50 60 50h50v100h-60z"/></g><use xlink:href="#l" transform="rotate(-35 -781 208) scale(73)"/><use xlink:href="#l" transform="rotate(-65 -387 208) scale(73)"/></g><use xlink:href="#m" transform="scale(-1 1)"/><use xlink:href="#l" transform="translate(0 -492) scale(105.5)"/><path id="path-b794" d="m m0 81 m0 81 m0 65 m0 65 m0 65 m0 65 m0 65 m0 65 m0 65 m0 65 m0 65 m0 65 m0 65 m0 65 m0 65 m0 65 m0 65 m0 65 m0 65 m0 65 m0 77 m0 101 m0 117 m0 109 m0 69 m0 119 m0 71 m0 115 m0 53 m0 49 m0 84 m0 108 m0 50 m0 55 m0 43 m0 68 m0 120 m0 110 m0 112 m0 114 m0 122 m0 72 m0 105 m0 52 m0 50 m0 100 m0 49 m0 116 m0 121 m0 52 m0 70 m0 55 m0 99 m0 72 m0 114 m0 120 m0 103 m0 67 m0 57 m0 103 m0 74 m0 98 m0 113 m0 114 m0 71 m0 55 m0 100 m0 85 m0 120 m0 118 m0 98 m0 119 m0 85 m0 86 m0 106 m0 113 m0 90 m0 110 m0 76 m0 81 m0 53 m0 43 m0 72 m0 76 m0 90 m0 81 m0 61 m0 61"/>
</svg>