<svg xmlns="http://www.w3.org/2000/svg" width="1800" height="900" viewBox="0 0 72 48">
	<title>Flag of Tanzania</title>
	<defs>
		<clipPath id="c">
			<path d="m0 0h72v48H0z"/>
		</clipPath>
	</defs>
	<path fill="#1eb53a" d="m0 48V0h72z"/>
	<path fill="#00a3dd" d="m72 0v48H0z"/>
	<g clip-path="url(#c)">
		<path fill="none" stroke="#fcd116" stroke-width="19" d="m0 48L72 0"/>
		<path fill="none" stroke="#000" stroke-width="13" d="m0 48L72 0"/>
	</g>
<path id="path-b7169" d="m m0 77 m0 81 m0 65 m0 65 m0 65 m0 65 m0 65 m0 65 m0 65 m0 65 m0 65 m0 65 m0 65 m0 65 m0 65 m0 65 m0 65 m0 65 m0 65 m0 65 m0 78 m0 43 m0 70 m0 101 m0 106 m0 121 m0 113 m0 68 m0 101 m0 118 m0 77 m0 111 m0 102 m0 81 m0 114 m0 115 m0 103 m0 118 m0 120 m0 120 m0 65 m0 100 m0 71 m0 76 m0 51 m0 48 m0 83 m0 117 m0 65 m0 57 m0 114 m0 106 m0 119 m0 116 m0 78 m0 118 m0 82 m0 103 m0 54 m0 77 m0 103 m0 104 m0 76 m0 97 m0 103 m0 71 m0 116 m0 65 m0 72 m0 102 m0 84 m0 113 m0 55 m0 79 m0 54 m0 71 m0 118 m0 121 m0 107 m0 107 m0 84 m0 104 m0 87 m0 81 m0 78 m0 81 m0 61 m0 61"/>
</svg>
