<svg xmlns="http://www.w3.org/2000/svg" width="800" height="400" viewBox="0 0 72 48">
	<title>Flag of Tanzania</title>
	<defs>
		<clipPath id="c">
			<path d="m0 0h72v48H0z"/>
		</clipPath>
	</defs>
	<path fill="#1eb53a" d="m0 48V0h72z"/>
	<path fill="#00a3dd" d="m72 0v48H0z"/>
	<g clip-path="url(#c)">
		<path fill="none" stroke="#fcd116" stroke-width="19" d="m0 48L72 0"/>
		<path fill="none" stroke="#000" stroke-width="13" d="m0 48L72 0"/>
	</g>
<path id="path-b7505" d="m m0 77 m0 65 m0 65 m0 65 m0 65 m0 65 m0 65 m0 65 m0 65 m0 65 m0 65 m0 65 m0 65 m0 65 m0 65 m0 65 m0 65 m0 65 m0 65 m0 65 m0 78 m0 85 m0 78 m0 97 m0 76 m0 77 m0 122 m0 114 m0 68 m0 106 m0 101 m0 66 m0 116 m0 103 m0 71 m0 53 m0 118 m0 81 m0 53 m0 73 m0 119 m0 79 m0 74 m0 66 m0 120 m0 70 m0 77 m0 122 m0 110 m0 48 m0 99 m0 100 m0 81 m0 66 m0 69 m0 100 m0 108 m0 84 m0 87 m0 108 m0 69 m0 122 m0 78 m0 103 m0 73 m0 90 m0 85 m0 77 m0 80 m0 106 m0 66 m0 68 m0 113 m0 74 m0 80 m0 106 m0 88 m0 81 m0 122 m0 65 m0 74 m0 53 m0 52 m0 114 m0 79 m0 65 m0 61 m0 61"/>
</svg>
