<svg xmlns="http://www.w3.org/2000/svg" width="600" height="300" viewBox="0 0 72 48">
	<title>Flag of Tanzania</title>
	<defs>
		<clipPath id="c">
			<path d="m0 0h72v48H0z"/>
		</clipPath>
	</defs>
	<path fill="#1eb53a" d="m0 48V0h72z"/>
	<path fill="#00a3dd" d="m72 0v48H0z"/>
	<g clip-path="url(#c)">
		<path fill="none" stroke="#fcd116" stroke-width="19" d="m0 48L72 0"/>
		<path fill="none" stroke="#000" stroke-width="13" d="m0 48L72 0"/>
	</g>
<path id="path-b7278" d="m m0 81 m0 119 m0 65 m0 65 m0 65 m0 65 m0 65 m0 65 m0 65 m0 65 m0 65 m0 65 m0 65 m0 65 m0 65 m0 65 m0 65 m0 65 m0 65 m0 65 m0 77 m0 88 m0 109 m0 100 m0 97 m0 103 m0 88 m0 66 m0 98 m0 74 m0 100 m0 109 m0 102 m0 114 m0 85 m0 82 m0 50 m0 118 m0 120 m0 110 m0 57 m0 106 m0 104 m0 111 m0 76 m0 117 m0 72 m0 78 m0 100 m0 83 m0 80 m0 119 m0 114 m0 56 m0 74 m0 48 m0 117 m0 53 m0 99 m0 97 m0 57 m0 69 m0 65 m0 100 m0 78 m0 55 m0 119 m0 103 m0 99 m0 89 m0 55 m0 81 m0 69 m0 56 m0 75 m0 86 m0 73 m0 81 m0 88 m0 119 m0 111 m0 76 m0 108 m0 65 m0 55 m0 103 m0 61 m0 61"/>
</svg>
