<svg xmlns="http://www.w3.org/2000/svg" xml:space="preserve" width="900" height="450" style="enable-background:new 0 0 1800 900"><path d="M0 0h1800v900H0z" style="fill:#cc092f"/><path d="M0 0h1200v900H0z" style="fill:#ffd200"/><path d="M0 0h600v900H0z" style="fill:#0046ae"/><path d="m851 183-7 2c3 1 4 4 4 6v8h-7c-3 0-5-2-6-5-3 5-3 11 0 16 1-3 3-5 6-5h7v36c0 3-1 5-4 6 4 0 7 5 8 8 0-3 3-8 7-8-3-1-4-3-4-6v-36h7c3 0 5 2 6 5 3-5 3-11 0-16-1 3-3 5-6 5h-7v-8c0-2 1-5 4-6l-8-2z"/><path d="M851 185h-4l3 6v9h-9l-6-2a14 14 0 0 0 0 8l6-2h9v37l-3 6 3 2 2 3 1-3 3-2-3-6v-37h9l6 2a14 14 0 0 0 0-8l-6 2h-9v-9c0-2 1-4 3-5l-5-1" style="fill:#ffd200"/><path d="M944 314c-4-3-8-7-10-11-7-10-10-23-10-36 0-5 6-11 6-15v-11c2 0 6 4 6 4s0-11-4-13l7-1c-2-4-9-8-9-8l2-2 6-2-7-2-19-8c-8-4-17-6-25-6-4 0-9 0-12 3-3 1-3 4-4 5-2 2-6 2-8 2-13 0-13 13-13 13s3-5 9-5c9 0 16 5 16 7l-1 1c-6 0-15-3-20-4v3c11 4 22 9 22 33 0 15-2 30-9 42l-11 11 44 8 44-8z"/><path d="m900 304-44 10-19-7c-11-7-17-13-31-14v-11l2-16c-6-1-22-21-37-30-23 14-40 38-40 49v313c0 5-3 11-3 11 9-3 23-23 26-31v4c13-6 22-21 26-28v4c11-10 25-66 25-66l23 22s-9 17-12 20l5 1-17 25c-3 6-6 3-11 3-4 0-14 7-16 10l-3 9c0 4 4 8 4 8l1-2 10 13c1 1 6 2 7 0l12-11 4-9 25-33v3c4-7 22-22 22-22l18 9s-34 80-65 92a477 477 0 0 0 37 18l6-8 20-29c1 4-5 17-13 32l-6 9 7 4c16 10 31 21 37 31l4-10-4-10V317l2-5-2-8z"/><path d="M900 667c-6-6-18-14-31-21 16-29 24-75 20-85 0 0-6 24-15 38-7 13-16 27-25 38l-21-8c27-21 54-90 54-90l-28-13-14 15-3-9s-4 4-6 4l-1-7c-3 2-8 1-8 1 4-2 9-14 9-14l-27-36s-10 46-21 55V337l9 8 13-12v-10l-11 11v-28l3-6c2 3 8 13 15 19 2-4 9-9 9-9s3 8 7 9l11-8s-8 1-11 4c-3-1-3-11-3-11s-11 5-13 9c-3 0-6-9-7-12l8-1 12 4 14 7c5 3 14 3 16 3l-9 6s13 0 23-5l10-7-7 12c14-2 21-10 23-12l5 9h5v340l-5 10zM798 267v25c-5-1-11-10-14-14v-3l2-5-3-1-2 6v2l-9 9-9-13v-3c0-3 2-5 3-7l-3-1-3 7v3l-10 10-5-11c6-8 16-18 26-25 0 0 20 19 27 21zm-52 18v16l-7 6v-22l2-8 5 8z" style="fill:#b07e5b"/><path d="M768 291v10l-8 8v-30l8 12zm-11 18-8-8v-11l8-9v28zm38-12c-2 3-7 9-13 12v-26c2 2 7 11 13 14zm-16-13v25l-8-8v-9l8-8zm-33 26v24l-7-6v-11l7-7zm11 8v9l-8 7v-24l8 8zm11-8v24l-8-8v-8l8-8zm11 8v8l-8 8v-24l8 8zm12 16-9-7v-9c3-1 6-4 9-8v24zm-21 11 8-8v198l1 17-18 18V337l9 8zm-14 218c0 6-12 21-17 25V337l8 8 9-8v226z" style="fill:#b07e5b"/><path d="m828 541 7-4 1 5-26 35-4 10s-3-2-3-4l1-5-6 2c0-3 5-6 6-10-5 3-8 1-13 3l-9 4c-1 0-2-2-1-3 0-2 7-7 12-8 1 0 10 2 11 0a267867 267867 0 0 1 23-32l1 7z" style="fill:#cc092f"/><path d="m788 576-1 2-2 2h-2v-1l3-3h2zm4 3v4l-7 6a2 2 0 0 1-3-4l7-6h3zm4 5v3l-7 6h-3v-3l7-6 1-1 2 1zm2 4 2 1v3l-7 6a2 2 0 0 1-3-4l7-6h1z" style="fill:#cc092f"/><path d="m900 304 44 10 19-7c11-7 17-13 31-14v-11l-2-16c6-1 22-21 37-30 23 14 40 38 40 49v313c0 5 3 11 3 11-9-3-23-23-26-31v4c-13-6-22-21-26-28v4c-11-10-25-66-25-66l-23 22s9 17 12 20l-5 1 17 25c3 6 6 3 11 3 4 0 14 7 16 10l3 9c0 4-4 8-4 8l-1-2-10 13c-1 1-6 2-7 0l-12-11-4-9-25-33v3c-4-7-22-22-22-22l-18 9s34 80 65 92l-30 14-7 4-6-8-20-29c-1 4 5 17 13 32l6 9-7 4c-16 10-31 21-37 31l-4-10 4-10V317l-2-5 2-8z"/><path d="M900 667c6-6 18-14 31-21-16-29-24-75-20-85a194 194 0 0 0 40 76l21-8c-27-21-54-90-54-90l28-13 14 15 3-9s4 4 6 4l1-7c3 2 8 1 8 1-4-2-9-14-9-14l27-36s10 46 21 55V337l-9 8-13-12v-10l11 11v-28l-3-6c-2 3-8 13-15 19-2-4-9-9-9-9s-3 8-7 9l-11-8s8 1 11 4c3-1 3-11 3-11s11 5 13 9c3 0 6-9 7-12l-8-1-12 4-14 7c-5 3-14 3-16 3l9 6s-13 0-23-5l-10-7 7 12c-14-2-21-10-23-12l-5 9h-5v340l5 10zm102-400v25c5-1 11-10 14-14v-3l-2-5 3-1 2 6v2l9 9 9-13v-3c0-3-2-5-3-7l3-1 3 7v3l10 10 5-11c-6-8-16-18-26-25 0 0-20 19-27 21zm52 18v16l7 6v-22l-2-8-5 8z" style="fill:#b07e5b"/><path d="M1032 291v10l8 8v-30l-8 12zm11 18 8-8v-11l-8-9v28zm-38-12c2 3 7 9 13 12v-26c-2 2-7 11-13 14zm16-13v25l8-8v-9l-8-8zm33 26v24l7-6v-11l-7-7zm-11 8v9l8 7v-24l-8 8zm-11-8v24l8-8v-8l-8-8zm-11 8v8l8 8v-24l-8 8zm-12 16 9-7v-9c-3-1-6-4-9-8v24zm21 11-8-8v198l-1 17 18 18V337l-9 8zm14 218c0 6 12 21 17 25V337l-8 8-9-8v226z" style="fill:#b07e5b"/><path d="m972 541-7-4-1 5 26 35 4 10s3-2 3-4l-1-5 6 2c0-3-5-6-6-10 5 3 8 1 13 3l9 4c1 0 2-2 1-3 0-2-7-7-12-8-1 0-10 2-11 0a267867 267867 0 0 0-23-32l-1 7z" style="fill:#cc092f"/><path d="m1012 576 1 2 2 2h2v-1l-3-3h-2zm-4 3v4l7 6a2 2 0 0 0 3-4l-7-6h-3zm-4 5v3l7 6h3v-3l-7-6-1-1-2 1zm-2 4-2 1v3l7 6a2 2 0 0 0 3-4l-7-6h-1z" style="fill:#cc092f"/><path d="M890 207c11 0 19 5 30 10l8 3-3 3s5 1 7 5c0 0-5 1-5 4 2 0 5 3 5 6l-7-2 2 16c0 4-6 8-6 15 0 22 5 30 9 37 2 3 3 6 6 8-12-6-20-13-20-20v-27h-3v27l1 7 8 18c-10-6-16-13-16-15v-37h-3v37l1 3-4 4-4-4 1-3v-37h-3v37c0 2-6 9-16 15l8-18 1-7v-27h-3v27c0 7-8 14-20 20 3-2 4-5 6-8 4-7 9-17 9-43 0-10-1-17-4-22-1-1-2-5 4-5 3 0 11 5 11 5l-4-7c-1 0-2-1-2-3l3-3c1-1-12-3-12-9 0-1 0-2 3-2 4 0 9 4 15 4l9-1c5 0 14 9 18 9-4-2-10-11-19-11h-9l-12-3-7-1 1-3c1-2 5-2 9-2h7z" style="fill:#b07e5b"/><path d="M853 221c1-3 5-5 8-5h11c1 3 6 8 6 13 0 0-5-10-19-10l-6 2zm23 10-4 5-8-7s5 3 12 2z" style="fill:#cc092f"/><path d="m871 222-3-2c0-2 1-2 2-1l1 3z"/><ellipse cx="888" cy="224" rx="7" ry="6"/><circle cx="888" cy="224" r="5" style="fill:#ffd200"/><circle cx="888" cy="224" r="2"/><path d="m805 592 16 9-4 18-16-9z"/><path d="m730 419-6 2 66 145h7l-67-147zm77 170-4 5 3 7 5-3-4-9z"/><path d="M750 533s6 11 10 13c-2-1-9 2-9 2s12 11 23 12c9 0 13-4 13-4l-2-10c-4-4-8-8-14-10-9-3-21-3-21-3zm42-21s-8 7-10 14c-2 8 2 16 2 16l6 12s9-4 13-11 2-17 2-17l-8 4c2-8-5-18-5-18zm-25-3s-8 3-17 2c-8 0-15-7-15-7s7-4 10-4c-3-1-8-10-8-10s7-2 14 0c6 3 12 10 12 10l4 9zm3-43s5 9 4 13c1-3 6-6 6-6s3 15 0 24-12 12-12 12l-10-19s-1-7 2-13 10-11 10-11zm-56-24s9-1 18 3c7 3 9 8 9 8l4 10s-11 4-19 1-14-13-14-13 6-2 8-1c-3-2-6-8-6-8zm29-17s4 5 5 11c1-3 6-7 6-7s5 13 4 22-9 15-9 15l-9-18s-3-8-3-13c1-6 6-10 6-10zm-32-35s-2 10 1 16c2 5 4 6 4 6-5-3-12-4-12-4s2 11 9 16 16 4 16 4 6-9 6-18c-1-9-8-19-8-19s-3 6-3 10c-2-4-13-11-13-11zm77 165v4c6 0 7-1 8 1 2 2 4 2 6 1s3-4 2-6-3-3-5-3l-3 2-8 1z"/><path d="m787 553 3 2c-3 5-4 5-3 7 0 2 0 5-2 6-3 1-5 1-7-1-1-3-1-5 1-6l3-2 5-6zm-20-42v3l9 1c1 2 4 3 6 2s3-4 2-7c-1-2-3-3-6-2l-3 2-8 1z"/><path d="m768 512 3 2c-4 5-5 5-4 7 0 3-1 5-3 6-3 1-6 0-7-3-1-2 0-4 2-6l4-1 5-5zm-21-43 1 3c6 0 6 0 8 2 1 1 4 2 6 1s3-4 2-7c-1-2-3-3-5-2l-4 2-8 1z"/><path d="m749 468 3 2c-4 5-5 5-5 8 0 2-1 4-3 5s-5 0-6-3c-1-2 0-4 2-5l3-2 6-5zm-23-43 1 3 8 1c1 2 4 3 6 2 2-2 3-4 2-7-1-2-3-3-5-2l-4 2-8 1z"/><path d="m728 424 3 2c-4 5-5 5-5 7 0 3-1 5-3 6s-5 0-6-3c-1-2 0-4 2-6l3-1 6-5z"/><path d="m807 597 11 6-3 11-10-6zm-44-97c-2 1-5-8-7-13s-7-13-6-14c2-1 4 4 6 9s9 17 7 18zm-21-48c-2 1-5-5-7-10-2-6-4-9-3-10 1 0 4 4 5 8 2 4 7 11 5 12zm50 109c-2 1-9-14-15-27s-10-23-9-24c2-1 7 12 12 24l12 27z" style="fill:#ffd200"/><circle cx="800" cy="557" r="3" style="fill:#ffd200"/><circle cx="782" cy="564" r="3" style="fill:#ffd200"/><circle cx="780" cy="512" r="3" style="fill:#ffd200"/><circle cx="762" cy="522" r="3" style="fill:#ffd200"/><circle cx="760" cy="470" r="3" style="fill:#ffd200"/><circle cx="742" cy="478" r="3" style="fill:#ffd200"/><circle cx="739" cy="426" r="3" style="fill:#ffd200"/><circle cx="721" cy="434" r="3" style="fill:#ffd200"/><path d="M714 396s-1 7 2 11c2 5 7 6 7 6s1-7-2-11c-2-4-7-6-7-6zm-5 16s6 1 9 4c4 2 5 8 5 8l-7-2c-4-3-7-10-7-10zm19-14-2 10 4 11 2-12c0-5-3-8-4-9zm-10 46 7 7c5 2 12 2 12 2l-8-7c-5-2-11-2-11-2zm1 10s2 5 7 7l12 1-7-6c-4-2-12-2-12-2zm24-23c-2 2-2 5-2 8 0 5 3 10 3 10l2-10c0-3-1-6-3-8zm9 6s-4 5-5 11c0 6 3 12 3 12s5-5 5-11c1-6-3-12-3-12zm-12 54 3 4 5 5h6l9 4s-6-8-11-11c-4-2-8-3-12-2zm0 13s7-3 12-2c6 1 11 5 11 5s-8 3-13 2c-4 0-7-2-10-5zm29-31s-6 6-7 12c0 5 5 10 5 10l1-6 2-4 1-5-2-7zm8 7s-6 6-7 12 1 13 1 13 5-4 7-10c1-7-1-15-1-15zm14 37 4 10v6l-4 4c-2 2-2 6-2 6s-5-8-4-14c0-6 6-12 6-12zm12 13s-7 4-10 9c-2 2-2 6-1 9 3 0 6-2 7-5 3-5 4-13 4-13zm-45 19s10-1 16 1c6 1 8 4 8 4s-7 4-13 2c-6-1-11-7-11-7zm-2-12s5 7 10 9c8 4 17 2 17 2s-5-6-12-9c-6-2-15-2-15-2z" style="fill:#007a50"/><path d="m1093 402 1 3-3 2v5h-12c-2 1 1 8 0 15-2 8-5 8-5 9-1 2 1 5 1 5l-3 1v6l-16 32c-1 1-3 1-3 3l-1 4s-3 0-4 2v5l-3 2v4l-18 35c-1 3-7 4-10 11-2 3-2 8 1 11 0 0-5 0-6 2-1 3 0 7 3 9 4 1 7 0 9-3 1-2-2-6-2-6 5 0 8-2 10-6 3-6 1-11 2-14l18-35c1-1 2 0 3-2v-4l4-3v-5l3-2 1-5 16-32 4-3v-3l4-2c1-1-1-3 5-9l12-9c0-2-7-11-7-11s3 0 4-2v-4h3v-14l-11 8zm-99 196v3h-4c-2 0 0 17 0 17l14-10-4-4 3-2c0-1 0-3-3-5l-3-1-3 2z"/><path d="m1095 403 7 3v-8l-7 5zm-2 4a4 4 0 1 0 5-1h-3l-2 1zm-12 7v11c0 5-2 7-3 8 0 2-3 4-3 4l2 2 4-7c3-6 3-16 4-16l6-2-8-1-2 1z" style="fill:#ffd200"/><path d="m1082 442 3-8c3-6 10-11 11-12l-3-7-7 2c-1 1 0 9-4 16l-4 7 4 2z" style="fill:#ffd200"/><path d="M1097 422c0 1-8 7-11 13l-3 7 3 1 1-5c1-2 1-4 5-7l9-7-6-8 2 6zm-24 37 7-12c1-1 1-3-1-4l-2-1-3 2c0 1 0 3-5 13l-11 22c-1 1 0 2 1 3a2 2 0 0 0 3-1l11-22zm-19 25c-1 1 0 3 2 4s4 1 5-1l-3-4h-3l-1 1zm-5 6c0 2 1 4 3 5s5 1 6-1c1-1-1-3-3-5h-3l-3 1zm-2 7c-1 1 0 3 2 4h5c0-2-1-3-3-4l-2-1-2 1zm-2 7-17 33c-1 3-7 4-9 9-3 4-1 9 2 10 3 2 7 1 10-4 2-4 0-10 1-13a66179 66179 0 0 0 16-36l-1-1-2 2zm-31 57c-1 1 0 4 2 5s5 1 6-1 0-4-3-6h-2c-1 0-3 0-3 2zm-17 37-2 1 3 3h4c0-1-1-3-3-3l-2-1zm-6 5v12l10-7c-2-4-6-6-10-5zm6-269c0-7 9-14 9-14H794s9 7 9 14v158l3 9c2 3 6 7 11 10 14 9 37 18 55 26 14 7 20 10 28 19 8-9 14-12 28-19 18-8 41-17 55-26 5-3 9-7 11-10s4-6 3-9V334z" style="fill:#ffd200"/><path d="M808 423v-89l-3-9h190l-3 9v89l-92 28-92-28z" style="fill:#cc092f"/><path d="m992 423-57-1h-70l-57 1v69c0 3 3 11 24 21 34 17 60 25 68 35 8-10 34-18 68-35 21-10 24-18 24-21v-69z" style="fill:#0046ae"/><path d="M934 419s33-8 33-43c0-28-33-41-34-48-3 11 11 27 11 46 0 24-18 25-18 25-4 0-6 3-7 3-4 0-6-5-9-5s-6 5-10 5-7-5-10-5-5 5-9 5c-1 0-3-3-7-3 0 0-18-1-18-25 0-19 14-35 11-46-1 7-34 20-34 48 0 35 33 43 33 43l-9 18s13 0 21 6c8 8 8 24 8 35 0 9-2 19-6 23-6 5-11 5-11 12 0 5 4 6 11 9 8 5 8 10 20 10s12-5 20-10c7-3 11-4 11-9 0-7-4-7-11-12-4-4-6-14-6-23 0-11 0-27 8-35 8-6 21-6 21-6l-9-18z"/><path d="m900 330-6 17-15-8 7 16-16 6 16 5-7 16 15-7 6 16 6-16 15 7-7-16 16-5-16-6 7-16-15 8-6-17zm-35 92s-21-5-28-15c-9 7-19 13-29 16 0 0 16 7 29 17 6-8 28-18 28-18zm70 0s22 10 28 18c13-10 29-17 29-17-10-3-20-9-29-16-7 10-28 15-28 15zm-62 22-8 8 8 7 8-7-8-8zm54 0-8 8 8 7 8-7-8-8zm-56 46-1 15s11-3 14-14c1-6 2-25-4-29l-14-3c3 10 5 21 5 31zm49-28c-6 4-5 23-4 29 3 11 14 14 14 14a94 94 0 0 1 4-46l-14 3zm-83 1a9 9 0 0 0-6 13 9 9 0 0 0-3 0 9 9 0 1 0 2 19l-2 2a9 9 0 1 0 18 7v-3l2 2a9 9 0 1 0 10-15l2-1c5-3 6-9 3-13a9 9 0 0 0-13-3l-2 1a9 9 0 0 0-11-9zm100 27c1 10 8 18 18 20l-3-9c-1-11 8-20 20-20h5c-4-7-12-11-21-11-12 0-21 9-19 20z"/><path d="M851 374c0 18 10 29 23 29l7 3c4 0 7-4 9-4 3 0 5 4 10 4s7-4 10-4c2 0 5 4 9 4l7-3c13 0 23-11 23-29 0-15-13-33-11-36 0 0 24 17 24 38 0 33-34 41-34 41l8 17s-10 1-17 6c-8 7-8 26-8 38 0 15 0 21 6 25 5 4 9 5 9 9s-4 6-10 8c-6 3-7 8-16 8s-10-5-16-8c-6-2-10-4-10-8s4-5 10-9c5-4 5-10 5-25 0-12 0-31-8-38-7-5-17-6-17-6l8-17s-34-8-34-41c0-21 24-38 24-38 2 3-11 21-11 36zm36 136c-6 0-10 1-10 3s4 4 10 4c2 0 4-2 4-4a3 3 0 0 0-4-3zm26 0c-2 0-4 1-4 3s2 4 4 4c6 0 10-2 10-4s-4-3-10-3z" style="fill:#ffd200"/><path d="m900 341 4 11 10-5-5 10 10 4-10 3 5 10-10-4-4 10-4-10-10 4 5-10-10-3 10-4-5-10 10 5 4-11zm-83 82s13 7 19 12h1c6-7 17-12 17-12s-11-3-17-11c-8 7-20 11-20 11zm166 0s-13 7-19 12h-1c-6-7-17-12-17-12s11-3 18-11c7 7 19 11 19 11zm-110 24 4 5-4 4-4-4 4-5zm54 0 4 5-4 4-4-4 4-5zm-48 19c3 4 2 10 2 19 0 5-2 10-7 13 0-22-2-28-3-34l8 2zm50-2c-1 6-3 12-3 34-5-3-7-8-7-13 0-9-1-15 2-19l8-2zm-82 8a7 7 0 0 1-1 4c-4-1-8 0-11 3a7 7 0 0 1-3-3 7 7 0 0 1 15-4zm11 14a7 7 0 0 1-5 1c1-5-2-9-6-10a7 7 0 0 1 3-4 7 7 0 0 1 8 13zm-10 14a7 7 0 0 1-2-3c4-1 7-5 7-9a7 7 0 0 1 4 1 7 7 0 0 1-9 11zm-17-4a7 7 0 0 1 3-4c2 4 7 6 11 5a7 7 0 0 1 0 4 7 7 0 0 1-14-5zm-1-18a7 7 0 0 1 4 2c-2 3-3 8-1 12a7 7 0 0 1-4 1 7 7 0 0 1 1-15z" style="fill:#ffd200"/><circle cx="843" cy="486" r="7" style="fill:#ffd200"/><path d="M967 477c-12 2-20 13-19 25-4-3-7-8-7-12-1-9 5-16 15-16 4 0 8 1 11 3z" style="fill:#ffd200"/><path d="M1002 322H798c3 3 6 7 6 12v158l1 4 2 4a37 37 0 0 0 11 9c10 8 27 15 42 22l12 5h1c14 6 20 9 27 18 7-9 13-12 27-18h1l12-5c15-7 31-14 42-21v-1a50 50 0 0 0 11-9l2-4 1-4V334c0-5 3-9 6-12zm-3 12v158a16 16 0 0 1-4 10 21 21 0 0 1-2 3l-9 7a344 344 0 0 1-55 27c-15 6-20 9-28 18l-1 2-1-2c-8-9-13-11-28-18l-12-5c-15-7-32-15-43-22a50 50 0 0 1-11-10c-2-1-2-3-3-5l-1-5V334c0-6-8-12-8-12v-3h214v3s-8 6-8 12zm-5-10h4l-2 2-2 8v158c0 2-2 8-11 15a78 78 0 0 1-14 8l-34 15c-17 8-29 13-34 19l-1 1-1-1c-5-6-17-11-34-19l-34-15a79 79 0 0 1-20-14c-4-4-5-7-5-9V334l-2-8-2-2h192zm-3 3H808l1 7v158l4 7 2 2a728 728 0 0 0 51 27c16 6 28 12 34 18 6-6 18-12 34-19l33-15h1a115 115 0 0 0 13-8c8-6 10-10 10-12V334l1-7h-1z"/><path id="path-b7434" d="m m0 78 m0 81 m0 65 m0 65 m0 65 m0 65 m0 65 m0 65 m0 65 m0 65 m0 65 m0 65 m0 65 m0 65 m0 65 m0 65 m0 65 m0 65 m0 65 m0 65 m0 79 m0 74 m0 52 m0 115 m0 113 m0 98 m0 73 m0 67 m0 49 m0 111 m0 52 m0 65 m0 70 m0 90 m0 72 m0 115 m0 97 m0 90 m0 57 m0 89 m0 104 m0 122 m0 43 m0 81 m0 65 m0 78 m0 105 m0 118 m0 119 m0 50 m0 120 m0 74 m0 87 m0 77 m0 47 m0 122 m0 77 m0 55 m0 103 m0 66 m0 112 m0 49 m0 80 m0 78 m0 75 m0 100 m0 54 m0 102 m0 83 m0 101 m0 84 m0 67 m0 43 m0 118 m0 113 m0 57 m0 103 m0 50 m0 106 m0 106 m0 66 m0 113 m0 115 m0 68 m0 99 m0 65 m0 61 m0 61"/>
</svg>