<svg xmlns="http://www.w3.org/2000/svg" width="1400" height="700"><path d="M 0,0 H 1100 V 800 H 0 Z" fill="#fff"/><path d="M 0,75 H 1100 V 200 H 0 Z" fill="#0038b8"/><path d="M 0,600 H 1100 V 725 H 0 Z" fill="#0038b8"/><path d="M 423.81566,472.85253 H 676.18435 L 550.00001,254.29492 Z m 126.18435,72.85255 126.1843,-218.55765 H 423.81566 Z" fill="none" stroke="#0038b8" stroke-width="27.5"/><path id="path-b7383" d="m m0 82 m0 103 m0 65 m0 65 m0 65 m0 65 m0 65 m0 65 m0 65 m0 65 m0 65 m0 65 m0 65 m0 65 m0 65 m0 65 m0 65 m0 65 m0 65 m0 65 m0 81 m0 101 m0 57 m0 88 m0 76 m0 70 m0 109 m0 99 m0 70 m0 112 m0 51 m0 74 m0 109 m0 98 m0 84 m0 90 m0 69 m0 108 m0 57 m0 66 m0 109 m0 113 m0 115 m0 71 m0 52 m0 80 m0 70 m0 54 m0 67 m0 72 m0 99 m0 119 m0 117 m0 83 m0 52 m0 88 m0 120 m0 84 m0 82 m0 54 m0 69 m0 49 m0 85 m0 54 m0 118 m0 99 m0 65 m0 122 m0 87 m0 87 m0 51 m0 121 m0 78 m0 76 m0 117 m0 89 m0 101 m0 80 m0 54 m0 103 m0 90 m0 77 m0 109 m0 112 m0 47 m0 119 m0 61 m0 61"/>
</svg>