<?xml version="1.0" encoding="UTF-8"?>
<svg xmlns="http://www.w3.org/2000/svg" width="1000" height="600">
<rect width="1000" height="300" y="300" fill="#00A1DE
"/>
<rect width="1000" height="300" fill="#ed2939"/>
<rect width="1000" height="200" y="200" fill="#fff"/>
<path id="path-b7288" d="m m0 82 m0 65 m0 65 m0 65 m0 65 m0 65 m0 65 m0 65 m0 65 m0 65 m0 65 m0 65 m0 65 m0 65 m0 65 m0 65 m0 65 m0 65 m0 65 m0 65 m0 77 m0 80 m0 73 m0 66 m0 73 m0 90 m0 51 m0 83 m0 87 m0 102 m0 74 m0 118 m0 50 m0 55 m0 97 m0 50 m0 82 m0 73 m0 76 m0 117 m0 114 m0 82 m0 119 m0 107 m0 84 m0 114 m0 79 m0 82 m0 121 m0 54 m0 83 m0 52 m0 90 m0 72 m0 55 m0 117 m0 82 m0 111 m0 75 m0 97 m0 57 m0 109 m0 97 m0 74 m0 107 m0 112 m0 101 m0 53 m0 47 m0 120 m0 115 m0 77 m0 80 m0 97 m0 113 m0 100 m0 111 m0 73 m0 119 m0 86 m0 88 m0 86 m0 110 m0 98 m0 88 m0 65 m0 61 m0 61"/>
</svg>
