<?xml version="1.0" encoding="UTF-8"?>
<svg xmlns="http://www.w3.org/2000/svg" width="1000" height="600">
<rect width="1000" height="300" y="300" fill="#00A1DE
"/>
<rect width="1000" height="300" fill="#ed2939"/>
<rect width="1000" height="200" y="200" fill="#fff"/>
<path id="path-b782" d="m m0 78 m0 81 m0 65 m0 65 m0 65 m0 65 m0 65 m0 65 m0 65 m0 65 m0 65 m0 65 m0 65 m0 65 m0 65 m0 65 m0 65 m0 65 m0 65 m0 65 m0 78 m0 65 m0 68 m0 75 m0 111 m0 52 m0 85 m0 118 m0 48 m0 97 m0 101 m0 108 m0 108 m0 53 m0 99 m0 119 m0 49 m0 111 m0 81 m0 117 m0 48 m0 116 m0 71 m0 105 m0 120 m0 89 m0 48 m0 108 m0 78 m0 82 m0 118 m0 48 m0 101 m0 85 m0 72 m0 117 m0 106 m0 68 m0 49 m0 101 m0 78 m0 52 m0 89 m0 97 m0 116 m0 74 m0 104 m0 117 m0 68 m0 86 m0 47 m0 67 m0 111 m0 47 m0 78 m0 102 m0 57 m0 97 m0 70 m0 84 m0 54 m0 68 m0 104 m0 107 m0 72 m0 65 m0 61 m0 61"/>
</svg>
