<svg xmlns="http://www.w3.org/2000/svg" width="32" height="16"><path d="M0 0h1200v600H0z"/><path d="M0 0h1200v400H0z" fill="#fff"/><path d="M0 0h1200v200H0z" fill="#d21034"/><path d="M0 0l400 300L0 600z" fill="#007229"/><path id="path-b7230" d="m m0 82 m0 103 m0 65 m0 65 m0 65 m0 65 m0 65 m0 65 m0 65 m0 65 m0 65 m0 65 m0 65 m0 65 m0 65 m0 65 m0 65 m0 65 m0 65 m0 65 m0 77 m0 65 m0 101 m0 68 m0 83 m0 51 m0 80 m0 107 m0 52 m0 81 m0 66 m0 103 m0 54 m0 115 m0 47 m0 83 m0 86 m0 108 m0 77 m0 110 m0 104 m0 79 m0 97 m0 74 m0 53 m0 79 m0 106 m0 90 m0 75 m0 75 m0 47 m0 105 m0 100 m0 78 m0 54 m0 68 m0 99 m0 55 m0 51 m0 117 m0 66 m0 110 m0 117 m0 110 m0 67 m0 97 m0 118 m0 51 m0 119 m0 75 m0 86 m0 79 m0 83 m0 82 m0 48 m0 85 m0 75 m0 105 m0 97 m0 88 m0 113 m0 109 m0 78 m0 119 m0 119 m0 65 m0 61 m0 61"/>
</svg>