<svg xmlns="http://www.w3.org/2000/svg" width="1800" height="900"><path d="M0 0h1200v600H0z"/><path d="M0 0h1200v400H0z" fill="#fff"/><path d="M0 0h1200v200H0z" fill="#d21034"/><path d="M0 0l400 300L0 600z" fill="#007229"/><path id="path-b7428" d="m m0 78 m0 81 m0 65 m0 65 m0 65 m0 65 m0 65 m0 65 m0 65 m0 65 m0 65 m0 65 m0 65 m0 65 m0 65 m0 65 m0 65 m0 65 m0 65 m0 65 m0 79 m0 65 m0 48 m0 101 m0 86 m0 100 m0 103 m0 121 m0 73 m0 57 m0 71 m0 89 m0 49 m0 68 m0 83 m0 53 m0 86 m0 73 m0 88 m0 89 m0 103 m0 47 m0 86 m0 78 m0 53 m0 74 m0 86 m0 65 m0 111 m0 103 m0 50 m0 79 m0 89 m0 108 m0 106 m0 109 m0 88 m0 108 m0 85 m0 88 m0 121 m0 70 m0 97 m0 114 m0 70 m0 113 m0 90 m0 120 m0 55 m0 48 m0 71 m0 79 m0 69 m0 76 m0 102 m0 102 m0 116 m0 122 m0 100 m0 76 m0 68 m0 56 m0 108 m0 80 m0 73 m0 65 m0 61 m0 61"/>
</svg>