<svg xmlns="http://www.w3.org/2000/svg" width="800" height="400"><path d="M0 0h1200v600H0z"/><path d="M0 0h1200v400H0z" fill="#fff"/><path d="M0 0h1200v200H0z" fill="#d21034"/><path d="M0 0l400 300L0 600z" fill="#007229"/><path id="path-b7428" d="m m0 78 m0 81 m0 65 m0 65 m0 65 m0 65 m0 65 m0 65 m0 65 m0 65 m0 65 m0 65 m0 65 m0 65 m0 65 m0 65 m0 65 m0 65 m0 65 m0 65 m0 77 m0 48 m0 51 m0 87 m0 68 m0 117 m0 103 m0 100 m0 83 m0 43 m0 118 m0 81 m0 48 m0 78 m0 71 m0 71 m0 90 m0 49 m0 70 m0 119 m0 103 m0 54 m0 106 m0 101 m0 70 m0 51 m0 51 m0 72 m0 73 m0 48 m0 86 m0 43 m0 65 m0 105 m0 98 m0 43 m0 86 m0 119 m0 66 m0 100 m0 72 m0 90 m0 83 m0 57 m0 98 m0 66 m0 116 m0 50 m0 69 m0 113 m0 83 m0 72 m0 52 m0 105 m0 100 m0 69 m0 100 m0 43 m0 79 m0 104 m0 71 m0 78 m0 50 m0 114 m0 119 m0 119 m0 61 m0 61"/>
</svg>