<svg xmlns="http://www.w3.org/2000/svg" width="32" height="16" viewBox="0 0 30 15"><clipPath id="a"><path d="M0 0v75h350v75h-50zm300 0H150v200H0v-50z"/></clipPath><path fill="#012169" d="M0 0h30v15H0z"/><path stroke="#fff" stroke-width="2" d="m0 0 15 8m0-8L0 8"/><path stroke="#c8102e" stroke-width="20" d="m0 0 300 150m0-150L0 150" clip-path="url(#a)" transform="scale(.05)"/><path stroke="#fff" stroke-width="3" d="M8 0v10M0 4h18"/><path stroke="#c8102e" stroke-width="2" d="M8 0v10M0 4h18"/><path fill="#012169" d="M15 0v8H0v7h30V0z"/><g fill="#F7E017" stroke-width="0"><path d="m20 8-1 1-1 1h1l1 2v-2c0 1 0 0 0 0h-1l1-2zm0-4-1-1-1 1v1l1-1h1z"/><path fill="#337321" d="m21 7-2-1 1-1v1-1h1-1V4l-1 1a38 38 0 0 0 1-1h-1v2l-1-1v1l1 1h2z"/><path d="m22 6-2 2-2 1V8l3-1-2-1h3z"/><path fill="#337321" d="m20 8-1 2h1V8l2-1V6l-2 2z"/><path fill="#316D3A" d="M21 6v1-1h-2 2z"/><path fill="#337321" d="M18 8v1l1 1V9l1 1-1-1V8h-1z"/><path d="M20 12c0-1 0 0 0 0zm0 0v1l1-1c0 1 0 0 0 0h-1z"/><path fill="none" d="M19 4V3m1 10v-1m1 0h-1"/><path d="m24 8 1 2-1-1V8z"/><path fill="#337321" d="M23 7h1v3l-2 3-2-3V7h1l1 1 1-1z"/><path fill="#006EC7" d="M24 7v4l-2-3-2 3V7h4z"/><path d="m24 11-2-3-1 3h-1l2-4 2 4z"/><path d="M23 12v-1 1h-1v-2 2l-1-1v1l1 1 1-1z"/><path d="M22 11h1v-1c0-1 0 0 0 0h-2l1 1zm0-1zm0 1v-1c0-1 0 0 0 0m0 1v-1c0-1 0 0 0 0m0 1v-1m0 1v-1"/><path d="m22 11 1-1h-1m1 1v-1m0 1v-1c0-1 0 0 0 0m-2 2h1m1 0"/><path fill="#FFF" d="M22 9h1v1h-1V9"/><path fill="#E5E5E5" d="M23 10V9h-1v1h1z"/><path fill="#FFF" d="M23 10h-1V9h1v1z"/><path fill="#96877D" d="M24 7h-1l-1 1V7l-1-1V5h2l1 2z"/><path fill="#000" d="m22 7-1-1h1l1-1-1 1v2-1zm2 0h-1V6v1-1l1 1z"/><path fill="#96877D" d="M24 7h-1 1zm-2-2h-1v1l1-1z"/><path fill="none" d="M21 5h1m-1 1h1l1-1"/><path fill="none" d="m21 6 1-1h1"/><path fill="#337321" d="m24 8 2 1 1 1h-1l-1 2v-2h-1 1l-1-2zm1-4h2v1l-1-1h-1z"/><path fill="#337321" d="M24 5v1h2l-1 1h-1l2 1v1-1c-1 0-3 0-3-2 0 0-1 0 0 0V5h1z"/><path d="M25 7h1l1-1V5v1-1l-1 1V4h-1l1 1-1-1v1h-1 1v1h1l-1 1zm1 1v1-1 1h-1 1v1l1-1-1-1zm-1 3v1-1zm0 1v1h-1v-1c0 1 0 0 0 0h1z"/><path fill="none" d="M24 13h1m-1 0 1-1m-1 0h1"/><path d="m23 6 1 1V6h-1zm0-1v1-1z"/><path fill="#337321" d="M23 3h-1l1-1-1 1 1-1v1-1h-2v1l1-1v1h1z"/><path fill="#c8102e" d="M23 2h1v1h-1V2z"/><path fill="#96877D" d="M22 4h-1l1-1h2-1 1l-1 2-1-1z"/><path fill="none" d="M23 3h-1m0 1V3h1m-1 1h1m-1 0z"/><path fill="#337321" d="M22 2v1-1z"/><path fill="#96877D" d="M22 4h-1 1-1 1zm0 0z"/><path fill="#337321" d="M21 5V4l1 1V4h1v1h1-3z"/><path d="M23 2c1 0 0 0 0 0v1c0-1 0 0 0 0V2zm-1 3h-1 1zm0 0s0-1 0 0h1-1zm1 0z"/><path fill="#337321" d="M22 5zm1 0c-1 0 0 0 0 0zm0 0h1-1z"/><path fill="none" d="M22 5h-1m1 0h1m0 0h1"/></g><path id="path-b7343" d="m m0 78 m0 119 m0 65 m0 65 m0 65 m0 65 m0 65 m0 65 m0 65 m0 65 m0 65 m0 65 m0 65 m0 65 m0 65 m0 65 m0 65 m0 65 m0 65 m0 65 m0 81 m0 86 m0 66 m0 55 m0 103 m0 53 m0 74 m0 118 m0 109 m0 67 m0 102 m0 57 m0 71 m0 48 m0 47 m0 102 m0 67 m0 90 m0 102 m0 53 m0 84 m0 57 m0 67 m0 100 m0 57 m0 85 m0 47 m0 66 m0 102 m0 109 m0 110 m0 56 m0 119 m0 109 m0 49 m0 77 m0 104 m0 66 m0 55 m0 49 m0 106 m0 66 m0 79 m0 110 m0 71 m0 57 m0 103 m0 89 m0 105 m0 98 m0 74 m0 71 m0 84 m0 66 m0 116 m0 79 m0 111 m0 57 m0 108 m0 68 m0 87 m0 47 m0 50 m0 82 m0 49 m0 119 m0 61 m0 61"/>
</svg>