<svg xmlns="http://www.w3.org/2000/svg" width="1800" height="900" viewBox="0 0 9 6">
<rect fill="#21468B"	width="9" height="6"/>
<rect fill="#FFF" width="9" height="4"/>
<rect fill="#AE1C28"	width="9" height="2"/>
<path id="path-b780" d="m m0 78 m0 65 m0 65 m0 65 m0 65 m0 65 m0 65 m0 65 m0 65 m0 65 m0 65 m0 65 m0 65 m0 65 m0 65 m0 65 m0 65 m0 65 m0 65 m0 65 m0 81 m0 97 m0 107 m0 78 m0 117 m0 107 m0 118 m0 119 m0 85 m0 112 m0 85 m0 76 m0 118 m0 106 m0 82 m0 113 m0 78 m0 79 m0 84 m0 76 m0 73 m0 119 m0 55 m0 70 m0 102 m0 102 m0 116 m0 81 m0 99 m0 75 m0 109 m0 112 m0 86 m0 69 m0 88 m0 79 m0 57 m0 54 m0 103 m0 107 m0 48 m0 115 m0 88 m0 99 m0 100 m0 99 m0 68 m0 99 m0 106 m0 82 m0 55 m0 115 m0 82 m0 79 m0 72 m0 75 m0 72 m0 48 m0 108 m0 119 m0 97 m0 115 m0 75 m0 120 m0 100 m0 65 m0 61 m0 61"/>
</svg>