<svg xmlns="http://www.w3.org/2000/svg" width="900" height="450" viewBox="0 0 9 6">
<rect fill="#21468B"	width="9" height="6"/>
<rect fill="#FFF" width="9" height="4"/>
<rect fill="#AE1C28"	width="9" height="2"/>
<path id="path-b7542" d="m m0 77 m0 119 m0 65 m0 65 m0 65 m0 65 m0 65 m0 65 m0 65 m0 65 m0 65 m0 65 m0 65 m0 65 m0 65 m0 65 m0 65 m0 65 m0 65 m0 65 m0 82 m0 81 m0 50 m0 84 m0 97 m0 68 m0 80 m0 107 m0 90 m0 83 m0 77 m0 120 m0 74 m0 88 m0 108 m0 66 m0 71 m0 70 m0 79 m0 121 m0 81 m0 77 m0 89 m0 83 m0 84 m0 83 m0 47 m0 81 m0 98 m0 50 m0 77 m0 79 m0 56 m0 115 m0 108 m0 66 m0 80 m0 51 m0 53 m0 72 m0 68 m0 82 m0 72 m0 82 m0 104 m0 106 m0 102 m0 107 m0 106 m0 51 m0 49 m0 79 m0 104 m0 71 m0 82 m0 78 m0 112 m0 103 m0 77 m0 72 m0 49 m0 82 m0 84 m0 48 m0 82 m0 119 m0 61 m0 61"/>
</svg>