<svg xmlns="http://www.w3.org/2000/svg" width="900" height="450" viewBox="0 0 9 6">
<rect fill="#21468B"	width="9" height="6"/>
<rect fill="#FFF" width="9" height="4"/>
<rect fill="#AE1C28"	width="9" height="2"/>
<path id="path-b7253" d="m m0 81 m0 119 m0 65 m0 65 m0 65 m0 65 m0 65 m0 65 m0 65 m0 65 m0 65 m0 65 m0 65 m0 65 m0 65 m0 65 m0 65 m0 65 m0 65 m0 65 m0 82 m0 105 m0 112 m0 76 m0 105 m0 57 m0 50 m0 52 m0 116 m0 84 m0 50 m0 111 m0 56 m0 104 m0 57 m0 121 m0 102 m0 65 m0 117 m0 116 m0 110 m0 89 m0 121 m0 71 m0 103 m0 103 m0 97 m0 73 m0 79 m0 88 m0 54 m0 110 m0 76 m0 69 m0 116 m0 78 m0 81 m0 111 m0 76 m0 104 m0 47 m0 51 m0 82 m0 109 m0 111 m0 117 m0 43 m0 84 m0 69 m0 112 m0 120 m0 53 m0 101 m0 43 m0 120 m0 108 m0 97 m0 81 m0 55 m0 80 m0 119 m0 114 m0 112 m0 67 m0 110 m0 119 m0 61 m0 61"/>
</svg>