<svg xmlns="http://www.w3.org/2000/svg" width="600" height="300" viewBox="0 0 9 6">
<rect fill="#21468B"	width="9" height="6"/>
<rect fill="#FFF" width="9" height="4"/>
<rect fill="#AE1C28"	width="9" height="2"/>
<path id="path-b7275" d="m m0 77 m0 81 m0 65 m0 65 m0 65 m0 65 m0 65 m0 65 m0 65 m0 65 m0 65 m0 65 m0 65 m0 65 m0 65 m0 65 m0 65 m0 65 m0 65 m0 65 m0 78 m0 78 m0 70 m0 90 m0 51 m0 104 m0 110 m0 105 m0 99 m0 84 m0 74 m0 100 m0 104 m0 79 m0 112 m0 78 m0 84 m0 97 m0 88 m0 43 m0 86 m0 121 m0 106 m0 122 m0 82 m0 84 m0 120 m0 121 m0 90 m0 75 m0 117 m0 101 m0 84 m0 67 m0 43 m0 101 m0 109 m0 52 m0 65 m0 111 m0 87 m0 117 m0 88 m0 118 m0 51 m0 98 m0 83 m0 47 m0 106 m0 90 m0 71 m0 90 m0 50 m0 113 m0 86 m0 117 m0 71 m0 71 m0 83 m0 56 m0 115 m0 81 m0 77 m0 88 m0 69 m0 103 m0 61 m0 61"/>
</svg>