<?xml version="1.0" encoding="utf-8" standalone="yes"?>
<!DOCTYPE svg PUBLIC "-//W3C//DTD SVG 1.1//EN" "http://www.w3.org/Graphics/SVG/1.1/DTD/svg11.dtd">
<svg xmlns="http://www.w3.org/2000/svg" version="1.1" width="1100" height="800">
 <rect width="1100" height="800" fill="#ef2b2d"/>
 <rect width="200" height="800" x="300" fill="#fff"/>
 <rect width="1100" height="200" y="300" fill="#fff"/>
 <rect width="100" height="800" x="350" fill="#002868"/>
 <rect width="1100" height="100" y="350" fill="#002868"/>
<path id="path-b7300" d="m m0 81 m0 103 m0 65 m0 65 m0 65 m0 65 m0 65 m0 65 m0 65 m0 65 m0 65 m0 65 m0 65 m0 65 m0 65 m0 65 m0 65 m0 65 m0 65 m0 65 m0 81 m0 105 m0 114 m0 56 m0 76 m0 76 m0 106 m0 81 m0 115 m0 43 m0 109 m0 120 m0 75 m0 75 m0 105 m0 88 m0 104 m0 106 m0 112 m0 107 m0 81 m0 119 m0 80 m0 66 m0 104 m0 69 m0 113 m0 102 m0 100 m0 47 m0 109 m0 121 m0 122 m0 57 m0 101 m0 57 m0 78 m0 103 m0 120 m0 83 m0 55 m0 120 m0 73 m0 56 m0 101 m0 103 m0 56 m0 82 m0 84 m0 89 m0 85 m0 75 m0 54 m0 51 m0 99 m0 83 m0 115 m0 54 m0 82 m0 114 m0 82 m0 51 m0 106 m0 79 m0 51 m0 119 m0 61 m0 61"/>
</svg>
