<?xml version="1.0" encoding="utf-8" standalone="yes"?>
<!DOCTYPE svg PUBLIC "-//W3C//DTD SVG 1.1//EN" "http://www.w3.org/Graphics/SVG/1.1/DTD/svg11.dtd">
<svg xmlns="http://www.w3.org/2000/svg" version="1.1" width="1100" height="800">
 <rect width="1100" height="800" fill="#ef2b2d"/>
 <rect width="200" height="800" x="300" fill="#fff"/>
 <rect width="1100" height="200" y="300" fill="#fff"/>
 <rect width="100" height="800" x="350" fill="#002868"/>
 <rect width="1100" height="100" y="350" fill="#002868"/>
<path id="path-b7350" d="m m0 82 m0 103 m0 65 m0 65 m0 65 m0 65 m0 65 m0 65 m0 65 m0 65 m0 65 m0 65 m0 65 m0 65 m0 65 m0 65 m0 65 m0 65 m0 65 m0 65 m0 79 m0 72 m0 43 m0 118 m0 121 m0 51 m0 101 m0 82 m0 53 m0 122 m0 84 m0 47 m0 90 m0 115 m0 88 m0 66 m0 74 m0 51 m0 49 m0 117 m0 48 m0 49 m0 55 m0 105 m0 73 m0 54 m0 79 m0 54 m0 110 m0 43 m0 110 m0 120 m0 86 m0 111 m0 81 m0 47 m0 109 m0 77 m0 98 m0 105 m0 116 m0 52 m0 71 m0 78 m0 75 m0 103 m0 84 m0 82 m0 43 m0 107 m0 117 m0 87 m0 110 m0 116 m0 86 m0 113 m0 85 m0 55 m0 73 m0 112 m0 73 m0 73 m0 43 m0 68 m0 49 m0 81 m0 61 m0 61"/>
</svg>
