<?xml version="1.0" encoding="UTF-8"?>
<!DOCTYPE svg PUBLIC "-//W3C//DTD SVG 1.1//EN" "http://www.w3.org/Graphics/SVG/1.1/DTD/svg11.dtd">
<svg xmlns="http://www.w3.org/2000/svg" version="1.1" width="800" height="600">
<rect width="800" height="600" x="0" y ="0" style="fill:#007fff" />
<path d="m 36,120 84,0 26,-84 26,84 84,0 -68,52 26,84 -68,-52 -68,52 26,-84 -68,-52 z M 750,0 0,450 0,600 0,600 50,600 800,150 800,0 750,0" style="fill:#f7d618" />
<path d="M 800,0 0,480 0,600 0,600 0,600 800,120 800,0" style="fill:#ce1021" />
<path id="path-b7164" d="m m0 79 m0 65 m0 65 m0 65 m0 65 m0 65 m0 65 m0 65 m0 65 m0 65 m0 65 m0 65 m0 65 m0 65 m0 65 m0 65 m0 65 m0 65 m0 65 m0 65 m0 77 m0 101 m0 112 m0 99 m0 122 m0 104 m0 90 m0 82 m0 116 m0 48 m0 107 m0 66 m0 76 m0 116 m0 75 m0 117 m0 70 m0 120 m0 120 m0 51 m0 74 m0 117 m0 109 m0 117 m0 97 m0 65 m0 54 m0 47 m0 79 m0 114 m0 104 m0 52 m0 106 m0 52 m0 83 m0 117 m0 111 m0 74 m0 49 m0 79 m0 53 m0 115 m0 99 m0 68 m0 122 m0 52 m0 53 m0 75 m0 87 m0 100 m0 106 m0 88 m0 57 m0 57 m0 50 m0 107 m0 90 m0 47 m0 75 m0 67 m0 110 m0 79 m0 110 m0 104 m0 66 m0 81 m0 61 m0 61"/>
</svg>