<?xml version="1.0" encoding="UTF-8"?>
<svg xmlns="http://www.w3.org/2000/svg" width="720" height="480">
<rect fill="#D21034" width="720" height="480"/>
<g fill="#007E3A">
<rect width="480" height="240" x="120" y="120"/>
<circle fill="#FFF" cx="390" cy="240" r="80"/>
<circle cx="420" cy="240" r="80"/>
</g>
<path id="path-b7521" d="m m0 82 m0 65 m0 65 m0 65 m0 65 m0 65 m0 65 m0 65 m0 65 m0 65 m0 65 m0 65 m0 65 m0 65 m0 65 m0 65 m0 65 m0 65 m0 65 m0 65 m0 77 m0 74 m0 50 m0 85 m0 52 m0 87 m0 69 m0 102 m0 66 m0 109 m0 76 m0 74 m0 85 m0 56 m0 87 m0 88 m0 114 m0 74 m0 105 m0 97 m0 103 m0 119 m0 100 m0 51 m0 55 m0 86 m0 56 m0 72 m0 81 m0 82 m0 68 m0 68 m0 71 m0 86 m0 119 m0 104 m0 75 m0 81 m0 104 m0 82 m0 113 m0 86 m0 87 m0 76 m0 89 m0 51 m0 117 m0 113 m0 114 m0 74 m0 89 m0 56 m0 69 m0 80 m0 65 m0 98 m0 82 m0 114 m0 76 m0 110 m0 47 m0 115 m0 82 m0 107 m0 121 m0 65 m0 61 m0 61"/>
</svg>