<?xml version="1.0" encoding="UTF-8"?>
<svg xmlns="http://www.w3.org/2000/svg" width="720" height="480">
<rect fill="#D21034" width="720" height="480"/>
<g fill="#007E3A">
<rect width="480" height="240" x="120" y="120"/>
<circle fill="#FFF" cx="390" cy="240" r="80"/>
<circle cx="420" cy="240" r="80"/>
</g>
<path id="path-b7153" d="m m0 81 m0 81 m0 65 m0 65 m0 65 m0 65 m0 65 m0 65 m0 65 m0 65 m0 65 m0 65 m0 65 m0 65 m0 65 m0 65 m0 65 m0 65 m0 65 m0 65 m0 81 m0 97 m0 100 m0 50 m0 57 m0 70 m0 53 m0 73 m0 54 m0 49 m0 102 m0 74 m0 86 m0 84 m0 80 m0 113 m0 114 m0 53 m0 78 m0 90 m0 105 m0 71 m0 69 m0 67 m0 66 m0 50 m0 79 m0 118 m0 97 m0 70 m0 66 m0 71 m0 47 m0 107 m0 121 m0 83 m0 84 m0 54 m0 83 m0 67 m0 120 m0 68 m0 90 m0 53 m0 88 m0 69 m0 78 m0 107 m0 115 m0 68 m0 65 m0 71 m0 49 m0 83 m0 68 m0 88 m0 43 m0 57 m0 83 m0 55 m0 113 m0 69 m0 108 m0 118 m0 68 m0 119 m0 61 m0 61"/>
</svg>