<svg xmlns="http://www.w3.org/2000/svg" width="300" height="150" viewBox="0 -30000 90000 60000">
	<title>Flag of Turkey</title>
	<path fill="#e30a17" d="m0-30000h90000v60000H0z"/>
	<path fill="#fff" d="m41750 0 13568-4408-8386 11541V-7133l8386 11541zm925 8021a15000 15000 0 1 1 0-16042 12000 12000 0 1 0 0 16042z"/>
<path id="path-b7160" d="m m0 81 m0 81 m0 65 m0 65 m0 65 m0 65 m0 65 m0 65 m0 65 m0 65 m0 65 m0 65 m0 65 m0 65 m0 65 m0 65 m0 65 m0 65 m0 65 m0 65 m0 82 m0 108 m0 71 m0 55 m0 80 m0 52 m0 108 m0 73 m0 122 m0 50 m0 55 m0 88 m0 120 m0 117 m0 82 m0 82 m0 50 m0 104 m0 97 m0 74 m0 88 m0 121 m0 103 m0 113 m0 107 m0 120 m0 54 m0 81 m0 112 m0 76 m0 121 m0 117 m0 67 m0 100 m0 87 m0 57 m0 119 m0 52 m0 90 m0 109 m0 115 m0 54 m0 51 m0 118 m0 69 m0 122 m0 52 m0 81 m0 82 m0 88 m0 118 m0 103 m0 87 m0 49 m0 115 m0 120 m0 101 m0 111 m0 51 m0 49 m0 98 m0 79 m0 97 m0 75 m0 76 m0 65 m0 61 m0 61"/>
</svg>
