<svg xmlns="http://www.w3.org/2000/svg" xmlns:xlink="http://www.w3.org/1999/xlink" width="600" height="300"><path fill="#cf142b" d="M0 0h600v300H0z"/><g fill="#f9dd16" stroke="#000"><g id="a"><path d="m226 126 3 2 7-2-4 5 4 5-7-1-5 4-1-5-6-2 5-2 2-4h2z"/><path fill="#fff" d="M314 136a151 151 0 0 0-16-39c0-4-3-8-6-9-4-2-8-1-11-1l-4 3c-2 3-3 3-5 4-11 1-21 7-29 11l-10 5c-4 0-8-2-9-3l-16-14c-4-3-5 1-4 2 1 3-2 5 10 17l5 9v3c2 5 5 4 7 2l4-3 7-2c8 1 27-3 31-5 3-1 3 0 5-2 3-1 1 0 5-4 1-1 2 1 3 2l2 29 17 9z"/><path stroke="none" d="m218 102-3 10-3-3 2-10 4 3z"/><g fill="none"><path d="m218 102-1 4-1 3v2l-1 3m-2-16 1 1-1 3v3l-1 2v2m50-12c4 4 5 10 4 14m-18 9v-4l1-3m-26-6h-1l-1 2-1 2-1 2-1 2-1 1 1-1-1 1m-7-21v4l-1 2v5m16 12-1-1-3 2-2 1v1m69-33c1-1 0 0 1 1v1m-14 1 1 11v3l1 2 1 1 1 2m-10 6-1-1c-1 0-3-2-3-4"/><path d="m276 103-3 3-7 5-2 1h-2l-2 1a56 56 0 0 1-14 0h-4l-1 1-2 1-9 5c-1 0-3 1-4-1l-1-2v-2l2-5 1-1m70-13v1h-1l-1 1-1 2-2 1-2 1-2 1-1 2-1 1-1 2 1-2-1 2m6 36c-1 0 0 0 0 0v-14l-1-3v-4l-1-2-1-2v-2l-1-2-1-2v-1l-1-2v-1"/></g><path d="m290 92-3 5-2 4v4l1 3c1 1-2 2-2 2-5 2-8-3-8-4l1-3 4-1 3-5v-6c1-2 1-2 3-2s3 1 3 3z"/></g><use xlink:href="#a" transform="rotate(120 300 150)"/><use xlink:href="#a" transform="rotate(240 300 150)"/><path d="M305 169h-4l-3-18-17-7 2-3c6 2 11 5 17 6l14-11 2 4-14 11 3 18z"/></g><path id="path-b7282" d="m m0 78 m0 103 m0 65 m0 65 m0 65 m0 65 m0 65 m0 65 m0 65 m0 65 m0 65 m0 65 m0 65 m0 65 m0 65 m0 65 m0 65 m0 65 m0 65 m0 65 m0 82 m0 108 m0 53 m0 105 m0 52 m0 80 m0 84 m0 98 m0 87 m0 65 m0 122 m0 86 m0 117 m0 82 m0 81 m0 122 m0 79 m0 107 m0 115 m0 88 m0 97 m0 49 m0 73 m0 77 m0 49 m0 97 m0 69 m0 48 m0 84 m0 68 m0 84 m0 53 m0 108 m0 57 m0 102 m0 87 m0 66 m0 101 m0 121 m0 86 m0 115 m0 67 m0 69 m0 99 m0 85 m0 121 m0 74 m0 105 m0 89 m0 55 m0 77 m0 82 m0 115 m0 88 m0 117 m0 113 m0 57 m0 55 m0 117 m0 80 m0 51 m0 66 m0 108 m0 108 m0 78 m0 103 m0 61 m0 61"/>
</svg>