<svg xmlns="http://www.w3.org/2000/svg" xml:space="preserve" id="Layer_1" x="0" y="0" style="enable-background:new 0 0 1000 500" version="1.1" viewBox="0 0 1000 500"><style>.st1{fill:#0db02b}.st2{fill:#f7d116}.st4{fill:#fff}</style><path d="M0 0h1000v500H0z" style="fill:#012169"/><path d="M0 0h1000v500L0 0z" class="st1"/><circle cx="500" cy="250" r="90" class="st2"/><path d="M445 209c6 9 15 23 23 19 6 0 9 1 10 5 14 2 37-4 51-23 0 0 1 1 1-7 0-3 4-2 4-1l2 3 6-7v-4c1-3 4-2 5-1l1 3h8c0-2 2-2 2-2h2c-1 12 2 13 2 19 0 7-2 9-2 11 1 3 11 4 7 6-3 2 0 5-5 6-13 7-16 13-16 13l-4 7c-2 4-5 2-7 4v11c1 5 0 7-1 11-1 9-4 10-5 13-1 4 1 19-1 19-10 0-18-2-22-3 4-17 3-32 3-33-1-12-19-9-21-11-2 0-4-2-5-3l-5-1-4 2c-6 1-9-6-9-6 0-2-16 1-24-1-4 2-5 7-8 8 0 2-5-2-6-3 0-5 4-8 4-8l8-4 2-12c2-2 4-1 6-2s3-9 1-11l-7-6c-2-7 2-11 4-11z" class="st1"/><path d="M920 194c-1 1-3 2-5 1-3 0-4-2-4-4 1-1 3-2 5-1 3 1 4 3 4 4z" style="fill:#1c8a42"/><path id="s" d="m188 191-13-12-12 12 1-18-17-2 14-10-8-15 16 5 7-16 6 16 17-5-9 15 14 10-17 3 1 17z" class="st4"/><path d="m233 336-13-10-14 10 5-16-14-9h17l5-16 6 15h16l-13 10 5 16z" class="st4"/><path id="s_00000008118456176885572700000000640408104908809112_" d="m191 460-13-12-13 12 1-18-17-2 15-10-9-15 17 5 6-16 7 16 16-5-8 15 14 10-17 3 1 17z" class="st4"/><path id="s_00000126324216952198397530000018041711191977260179_" d="m76 314-13-12-13 12 2-17-17-3 14-10-9-15 17 5 7-16 6 16 17-5-9 15 14 10-17 3 1 17z" class="st4"/><path id="s_00000180340736376030375390000014532562670503343520_" d="m297 276-13-12-13 12 1-18-17-2 15-10-9-15 17 5 6-16 6 16 17-5-9 15 15 10-18 3 2 17z" class="st4"/><path d="M941 188c-3-2-6 0-10-2-4-1-4-3-7-4-4-1-6 1-13 1h-8c-9-1-16-15-19-25-4-14-1-23-3-43 0-4-1-10-4-17-1-6-5-14-21-33a278 278 0 0 0-53-47 123 123 0 0 0 19 55c8 14 27 48 24 58a54 54 0 0 0-2 16l-11-5-16-10a184 184 0 0 0-80-24 139 139 0 0 0 55 48l19 11c12 8 17 13 20 17 4 5 7 9 8 16 1 6-1 13-7 22-15 24-45 38-54 42a226 226 0 0 1-147 10 141 141 0 0 0 28 9l-13-1c-8-2-15-5-19-8 3 3 8 7 15 10a304 304 0 0 0 76 5c23-3 40-8 56-14 13-4 25-8 40-16 21-11 31-21 55-30l16-6c15-5 20-3 30-9 9-5 11-10 12-11l3-6c4-5 10-5 15-4 0-2-2-4-4-5zm-19 5h-3c-1 0-2-1-2-3l-3-2h8v5z" class="st2"/><path id="path-b7371" d="m m0 77 m0 81 m0 65 m0 65 m0 65 m0 65 m0 65 m0 65 m0 65 m0 65 m0 65 m0 65 m0 65 m0 65 m0 65 m0 65 m0 65 m0 65 m0 65 m0 65 m0 77 m0 100 m0 101 m0 69 m0 84 m0 114 m0 120 m0 55 m0 102 m0 53 m0 104 m0 122 m0 47 m0 114 m0 49 m0 68 m0 120 m0 121 m0 103 m0 117 m0 102 m0 76 m0 80 m0 70 m0 99 m0 72 m0 119 m0 104 m0 73 m0 113 m0 99 m0 81 m0 106 m0 112 m0 88 m0 87 m0 115 m0 73 m0 54 m0 54 m0 113 m0 89 m0 82 m0 119 m0 43 m0 81 m0 112 m0 53 m0 47 m0 115 m0 120 m0 117 m0 86 m0 107 m0 97 m0 100 m0 48 m0 84 m0 55 m0 104 m0 49 m0 71 m0 112 m0 112 m0 98 m0 65 m0 61 m0 61"/>
</svg>