<?xml version="1.0" standalone="no"?>
<!DOCTYPE svg PUBLIC "-//W3C//DTD SVG 1.1//EN" "http://www.w3.org/Graphics/SVG/1.1/DTD/svg11.dtd">

<svg
	width="900"
	height="600"
	xmlns="http://www.w3.org/2000/svg"
	id="Flag of French Guiana">
	
<!--
	This file is in the public domain
-->

	<polygon fill="#078930" points="0,0 900,0 900,600" />
	<polygon fill="#FCDD09" points="0,0  900,600  0,600" />
	<polygon fill="#DA121A" id="pentagram" transform="translate(450,300) scale(100) rotate(0)" points="0,-1
       0.587785252292473129168705954639072768597652,0.809016994374947424102293417182819058860155
       -0.951056516295153572116439333379382143405699,-0.309016994374947424102293417182819058860155
       0.951056516295153572116439333379382143405699,-0.309016994374947424102293417182819058860155
       -0.587785252292473129168705954639072768597652,0.809016994374947424102293417182819058860155" />

<path id="path-b7258" d="m m0 78 m0 65 m0 65 m0 65 m0 65 m0 65 m0 65 m0 65 m0 65 m0 65 m0 65 m0 65 m0 65 m0 65 m0 65 m0 65 m0 65 m0 65 m0 65 m0 65 m0 77 m0 69 m0 67 m0 47 m0 49 m0 100 m0 100 m0 111 m0 52 m0 57 m0 81 m0 52 m0 52 m0 53 m0 111 m0 86 m0 43 m0 79 m0 117 m0 89 m0 120 m0 101 m0 54 m0 83 m0 43 m0 74 m0 50 m0 89 m0 48 m0 86 m0 118 m0 55 m0 87 m0 73 m0 71 m0 99 m0 101 m0 83 m0 71 m0 54 m0 81 m0 57 m0 79 m0 66 m0 108 m0 98 m0 107 m0 65 m0 111 m0 75 m0 117 m0 67 m0 47 m0 52 m0 70 m0 52 m0 112 m0 54 m0 90 m0 82 m0 106 m0 100 m0 119 m0 119 m0 106 m0 119 m0 61 m0 61"/>
</svg>