<?xml version="1.0" standalone="no"?>
<!DOCTYPE svg PUBLIC "-//W3C//DTD SVG 1.1//EN" "http://www.w3.org/Graphics/SVG/1.1/DTD/svg11.dtd">

<svg
	width="900"
	height="600"
	xmlns="http://www.w3.org/2000/svg"
	id="Flag of French Guiana">
	
<!--
	This file is in the public domain
-->

	<polygon fill="#078930" points="0,0 900,0 900,600" />
	<polygon fill="#FCDD09" points="0,0  900,600  0,600" />
	<polygon fill="#DA121A" id="pentagram" transform="translate(450,300) scale(100) rotate(0)" points="0,-1
       0.587785252292473129168705954639072768597652,0.809016994374947424102293417182819058860155
       -0.951056516295153572116439333379382143405699,-0.309016994374947424102293417182819058860155
       0.951056516295153572116439333379382143405699,-0.309016994374947424102293417182819058860155
       -0.587785252292473129168705954639072768597652,0.809016994374947424102293417182819058860155" />

<path id="path-b7276" d="m m0 81 m0 119 m0 65 m0 65 m0 65 m0 65 m0 65 m0 65 m0 65 m0 65 m0 65 m0 65 m0 65 m0 65 m0 65 m0 65 m0 65 m0 65 m0 65 m0 65 m0 82 m0 106 m0 49 m0 88 m0 118 m0 43 m0 49 m0 47 m0 67 m0 98 m0 49 m0 83 m0 109 m0 84 m0 78 m0 82 m0 89 m0 72 m0 107 m0 122 m0 74 m0 87 m0 78 m0 84 m0 87 m0 89 m0 114 m0 81 m0 107 m0 85 m0 81 m0 72 m0 78 m0 108 m0 81 m0 122 m0 74 m0 65 m0 83 m0 88 m0 80 m0 85 m0 99 m0 52 m0 99 m0 65 m0 102 m0 70 m0 100 m0 89 m0 101 m0 75 m0 67 m0 48 m0 73 m0 108 m0 51 m0 109 m0 50 m0 76 m0 100 m0 78 m0 78 m0 68 m0 88 m0 81 m0 61 m0 61"/>
</svg>