<svg xmlns="http://www.w3.org/2000/svg" width="300" height="150"><path fill="#0038a8" d="M0 0h1200v660H0z"/><path fill="#fff" d="M0 0h1200v440H0z"/><path fill="#d52b1e" d="M0 0h1200v220H0z"/><path fill="#fff" stroke="#000" stroke-miterlimit="10" stroke-width="4" d="M684 330a84 84 0 1 1-168 0 84 84 0 0 1 168 0z"/><path fill="#009b3a" stroke="#000" d="M640 317c-2 0-2 2-2 2l2 3c2 0 2-2 2-3 0 0 0-2-2-2"/><path d="m548 363-1-1h-1a1 1 0 0 0 0-1 1 1 0 0 0-1 0v2l1 2zm7 0-10 5-2-4-1-2v-2l1-1a3 3 0 0 1 2-1l1 1h1v-2l2-3 2 3-2 3v2l4-2zm-16-7-3-9h2l2 5 1-1-1-5h2l1 5 2-1-1-5 2-1 3 8zm0-17v-1l-1-1a1 1 0 0 0-1-1v1l-1 1 1 1zm-4 4-1-6 1-3 2-1 3 1 1 3v2l4-1v3zm-1-21 1-3h6a6 6 0 0 1 2 1 4 4 0 0 1 1 1l1 1v3a12 12 0 0 1 0 1l-1 2a4 4 0 0 1-1 1 3 3 0 0 1-1 0h-8v-4l6 1h2v-3h-1zm11-9v-2l1-1a1 1 0 0 0-1 0h-1l-1 1v1zm-4-1v-2l1-1h-1a1 1 0 0 0-1 0v1l-1 1zm-5 1 2-5 2-2a3 3 0 0 1 2-1l1 2v1l2-1h3v5l-2 5zm5-13 2-3 7 4 3-4 2 1-5 7zm7-11 2-2 9 7-3 2zm15-5 3-1v2a4 4 0 0 1 0 2l-2 1-2 2h-3l-2-2-2-4 2-4 3-1 3 1-2 2a2 2 0 0 0-1 0 2 2 0 0 0-1 0l-1 2 1 2 2 1h2v-3m11-7-3-2 1 3zm1 2-3 2v2l-3 1-1-11 3-2 9 8-3 1zm13-11 1 6h1l1-1 1-1v-1l-1-3h-2zm-3-2 4-1 3 1h1l1 2a7 7 0 0 1 1 2v3a4 4 0 0 1-1 1l-1 1a7 7 0 0 1-2 1l-5 1zm14-2 9 1v2h-6v1l5 1v2l-5-1v3h5v2h-9zm14 1 3 1-3 8 5 1v3l-8-2zm17 12 1 1h1a1 1 0 0 0 1 0v-1l-1-1v-1zm0-5 5 3 1 2v2l-2 2-3-1-2-1-2 3-3-2zm12 16 1-4-3 2zm-2 2-2-3-2 1-2-2 5-3 5-2 3 2-5 11-2-3zm10 4 1 2h1a1 1 0 0 0 1 0v-2l-1-1zm-7 1 9-6 3 5 1 2a3 3 0 0 1 0 2l-1 1h-3a5 5 0 0 1-1-1v1a6 6 0 0 1 0 1 4 4 0 0 1 0 1l-2 3-2-3 2-4v-2l-4 3zm13 14 3-2h-4zm-2 2-1-4h-2l-1-3h11l1 4-9 7-1-3zm5 11h2l1 5h-5l-1-2-1-3v-3l2-2 3-1h3l2 2 1 3v3a3 3 0 0 1-1 1 4 4 0 0 1-2 1l-1-3 1-1v-1l-1-1-2-1-2 1-1 2v1l1 1h1zm7 16-1 3-6-1a5 5 0 0 1-2 0 4 4 0 0 1-1-1l-1-2v-4l1-1a4 4 0 0 1 1-1l1-1h2l6 1v3l-6-1-2 1v2l1 1zm-10 12h4l-3-2zm-3 0 2-4-2-1 1-3 9 7-1 4h-12l2-3zm6 9-2 4h-4l2 3-2 3-3-6-4-3 2-2 4 2z"/><path fill="none" stroke="#000" stroke-miterlimit="10" d="M670 330a70 70 0 1 1-140 0 70 70 0 0 1 140 0z"/><path fill="none" stroke="#000" stroke-miterlimit="10" d="M652 330a52 52 0 1 1-104 0 52 52 0 0 1 104 0z"/><path fill="#fedf00" stroke="#000" d="m600 311 4 13h14l-11 8 4 13-11-8-11 8 4-13-11-8h14z"/><path fill="#009b3a" stroke="#000" d="M624 366h-6l-1 1c-4-1 6-1 7-1m-10-3 2-4 2-4 2-1-5 7-1 2v1h-1l1-1zm14 2-2-1h-5l-4 1h-3s-1 0 0 0l2-1 1-1 4-8 1-4-4 2-2 3-2 2-2 5c0 2-5 3-5 3v1l1 1 4-1a36 36 0 0 1 3 1h8l2-1 3-1v-1"/><path fill="#009b3a" stroke="#000" d="m615 371-7-4-4-2h-6l2 1 2 1 2 2 6 2 1 1 4-1m7-14 5-6v1l-1 1-2 2-1 2-1 1-2 3-1 1 3-5m-5 6-3 2 7-2 3-3 4-5c1-1 1-3-1-7l-1 2-2 1-1 2-6 10"/><path fill="#009b3a" stroke="#000" d="m634 360-3-1h-4c-2 0-2 1-3 2l-2 2h1c2-2 3-1 4-1l4-1h1a11 11 0 0 1-3 1h-3l-6 1 6 1 2-1 4-1h1l1-2c1-1 0 0 0 0m3-14 2-3 1-1c1 0 2 0 0 0l-2 1-2 5-2 2h-1l4-4zm8-1h-2l-4 4-3 2-4 2 6-1 3-3 1-1c0 2-3 4-5 5l-3 1h-3l1-2 4-1 3-3 2-2 1-3 2-4-2 1-3 1c-2 0-2 2-2 2l-2 2-1 2-1 1 1-5v-3l-1-1-1-2c-2 2 0 5 0 7l-1 4c2 1 1 3 0 4l-2 2-4 6 4-2c-1-1 0-3 1-3h3l4-1c3-1 4-3 5-4l2-3 1-2"/><path fill="#009b3a" stroke="#000" d="m631 358 1-1v-2l-2 1v2h1m-2-9-1 3h1l2-1v-2h-2m3-12v-1l-1-2c-2 1-2 2-2 3v3l-1 3v3l1 2h2v-9l1-2m2 2 2-1v-2c-1-2-3 0-3 0-1 3 1 3 1 3"/><path fill="#009b3a" stroke="#000" d="m638 335-2 3-1 1-1 3-1 4v1c1-2 3-2 3-4s3-2 3-2h-1c-3-2 0-5 1-6h-1"/><path fill="#009b3a" stroke="#000" d="M638 338c-1 2 1 2 2 2v-3l-2 1m-4-6 2 4v-3l-1-3-2-3v-4l-2-2v4l1 3 2 4m12-15-1 2-4 3s-2 1-3 5c-2 4-1 8-1 8h1v-3l3-3 1-3 2-5c0 2-6 11-6 14h2l4-6 2-5v-7"/><path fill="#009b3a" stroke="#000" d="m635 318-2-1v10l2 3 2 5-1-7v-6l-1-4m4-5 1-3v-4 3l-1 2v2l-1 2v3l1-1 1-2v-13l-1 3v5l-1 7m1-4h-1 1"/><path fill="#009b3a" stroke="#000" d="m635 300 1 1v9l1 2v1h-1v-10l-1-2m-2 6 1 3 1 2 1 1v2l-4-3-3-2-2-5-1-1s-1 5 2 7l4 3c3 1 2 2 3 4l2 3v10l3-9s-2 0-2-3v-14l-1-5-1-2-1-2v3l-2 5v3"/><path fill="#009b3a" stroke="#000" d="m635 317-1-1-4-3c-3-1-3-3-5-4l-1-1 1 3 2 2 4 2 4 2m-8-12 2 4c2 3 6 5 6 5l-1-5c-2-3-7-4-7-4m6 1c1-2-3-5-3-6l1 1 2 3v-3l-4-3-1 1c-1 3 5 7 5 7"/><path fill="#009b3a" stroke="#000" d="M626 301h-2l1 1v1l2 2 3 1 4 2-6-7v-2h-2v2"/><path fill="#009b3a" stroke="#000" d="M611 298a14 14 0 0 0 2 1l6 3h2l1-1h-3l-6-3c2 1 5 3 8 3 10-1-3-2-5-2l-2-2h-3v1"/><path fill="#009b3a" stroke="#000" d="m623 304 1-1c1-1 0-2-1-2l-2 1 1 1 1 1m1-6-1 2 3 1v-2l-2-1m4 1"/><path fill="#009b3a" stroke="#000" d="m628 299 1-2-1-1c-2-1-2 1-2 1 0 2 1 2 2 2m-8-7 1 2 2 2 2 3-1-4-2-2-1-2 5 8v-3l-2-5-2-2-3-1v1l1 3"/><path fill="#009b3a" stroke="#000" d="M616 297c1 1 1 2 4 2h2l1-1c-4-1-7-3-8-5l1 1 2 1 3 2 2 1v-1l-1-2a11 11 0 0 1-2-2s-2 0-4-1l-4-1 1 3 3 3m-19 70-9 3-2 1c3-1 5 1 5 1l9-4h-1l-2-1"/><path fill="#009b3a" stroke="#000" d="M586 371s-1 0 0 0l2 1 3-1h-5m-12-27-1-2-1-8-1-1-1 4c-1 9 7 17 7 17zm37 28v-1l2-1 2 1 1 1-2 1-2-1h-1"/><path fill="#009b3a" stroke="#000" d="m603 368-5-3c-4-1-7-4-10-8l-7-8h-1v1l3 4 3 6h-1s-5-2-7-8l-1-8-3-9-1-2v10c0 1-1 4 4 9 0 0 0 1 0 0-1 0-5-3-6-8v-12c0-2 2-7 1-11v-1l-1 3-1 3c-1 1-3 2-2 6l1 5v2l-1-2s-3-6-1-12l7-11 6-4v-1c-1 0-10 2-13 12v1-1s2-7 7-10l7-5 4-3v-2l-4 4c-3 0-5-1-7 2l-5 6v1-1s3-7 6-8l6-4 6-6 3-3h-2s-8 3-14 11l-1 1-1 2 3-5 1-3 3-7 2-1h-1s-8 6-8 13l-2 4-2 6a231 231 0 0 1-1 4v1-1l1-8 1-2 1-7c0-2 2-4 3-5l1-4-1 1-3 4s-4 3-5 11v18-1l-1-5v-8s1-7-2-10l1 3-1 6c0 1-2 5-1 10 0 0 1 7 3 10 0 0 2 2 1 0l-4-7-3-6-3-2s-2-1-1 1l2 3a40 40 0 0 1 3 5l2 6 2 3 2 3c1 0 3 2 4 6l2 3-1-1c-1-2-2-6-5-9l-8-4 5 7 4 5 4 5 2 2 4 3-4-3c-2-1-7-3-11-8l-1-2c-1 0 2 10 8 13l8 4 3 2c1 0 0 0 0 0l-12-2s-1-1 0 0l6 5 9 2 9 1 4 2 4 1 1 1h3v-1m38-51 1 2v-4h-1l-1 2h1"/><path id="path-b7189" d="m m0 77 m0 81 m0 65 m0 65 m0 65 m0 65 m0 65 m0 65 m0 65 m0 65 m0 65 m0 65 m0 65 m0 65 m0 65 m0 65 m0 65 m0 65 m0 65 m0 65 m0 81 m0 102 m0 51 m0 114 m0 78 m0 110 m0 53 m0 99 m0 54 m0 119 m0 65 m0 49 m0 121 m0 90 m0 52 m0 48 m0 88 m0 114 m0 43 m0 120 m0 107 m0 118 m0 76 m0 55 m0 82 m0 65 m0 53 m0 117 m0 53 m0 122 m0 100 m0 88 m0 47 m0 112 m0 105 m0 82 m0 69 m0 56 m0 88 m0 56 m0 71 m0 111 m0 113 m0 120 m0 65 m0 112 m0 87 m0 55 m0 43 m0 97 m0 115 m0 102 m0 108 m0 68 m0 106 m0 87 m0 120 m0 99 m0 107 m0 74 m0 70 m0 80 m0 97 m0 68 m0 73 m0 65 m0 61 m0 61"/>
</svg>