<svg xmlns="http://www.w3.org/2000/svg" width="1400" height="700"><path fill="#006" d="M0 0h1000v500H0z"/><path fill="#BD1021" d="M0 250 1000 0v500L0 250z"/><path fill="#FFF" d="m107 250 893-223v446"/><path d="M766 278c7 0 7 7 7 7l24 1c3-9 6-8 11-4l12 6c2-12 19-9 19-9 7-18 8-17 3-19l-6-6c-4-5-6-12-6-17-1-4-6 3-7 1h-8c2 2-4 1-4 1v2l-6-2-1 2-8-1c-8 0-12 3-14 4s-10 5-16 11-10 5-10 5c-2 7-17 15-17 15-2 2-10 4-13 0s0-9 0-9c1-2 2-2 3-11 0-7 6-11 13-19l19-23c0 4 3 5 3 5l5-8h1l4-4c-1-1-8 0-15 5-6 6-11 4-11 4-4-1-5-5-5-5-3-14 10-24 10-24-18-5-5-27 17-36s21-14 21-14l3 4s2-3 14-8l19-10 1 5c34-12 68-40 68-40v6l26-17c0 8-6 11-6 11l1 3 19-13c6 5 0 13 0 13l4-2c1 8-8 15-8 15 2 1 4-1 4-1-1 9-18 19-18 19 2 2 0 5-2 6s-6 5-5 6 9-4 9-4c1 4-9 11-9 11 7 1 26-8 26-8-2 8-9 13-17 17l-9 3c2 2 14-2 14-2-4 8-16 14-16 14 3 3 8-1 13-4l18-8c7-3 12-1 12-1 6-2 11 1 11 1 11 1 12 5 12 5l6 3c3 2 2 9 2 12l-1 4-1 3c0 1-3 9-20 9h-27l-3 1c-8 4-4-3-13 5-8 7-13 6-13 6l-16 13c-5 4-4 4 0 6s12 0 12 0c-5 3-1 4-1 4 5-4 9-2 9-2 2 5-5 13-5 13h8c-2 3-6 7-10 8s-3 2-2 4v4c-6-4-6 0-6 0l-1 12c-4-2-4 1-4 1-2 5-7 10-7 10 0-3-3-4-3-4-3 6-8 9-8 9-1 5 1 11 1 11h-5v2l44 1c1 0 3 0 3 5 0 4-4 5-4 5l-47-1-2 2c-2 1-2-1-3 5-1 5-10-1-10-1l-5 5c-2-6-5-8-8-2s6 4 6 4l59-8c3 0 6-1 8 4s-7 5-7 5l-57 6c-1 3-6 3-6 3 0 3-3 5-5 7h-7c-7 5-10 1-10 1-5 2-7 1-11 0-3-2-3-6-3-6l-36 4-3 1c1 2-3 6-3 6 1 1 3 3 4 7 0 5-6 6-3 9s9 1 15-2 12-3 15-3l15 4c4 1 6 0 6-2s3-3 3-3v3l5-1-2 2c-5 3 1 2 1 2l21-2c4 0 18 7 18 7v-5l6 3v-4c13 7-2 10-6 11l-4 3 8-1 9-2c6-1 10 2 10 2-6 0-7 2-7 2 3 2 0 4 0 4-5-6-10 1-10 1 2-1 7 0 9 1l7 4 7 2c4 1 2 5 2 5-1-3-5-4-5-4 0 4-4 4-4 4 5-5-5-7-10-7s-8 3-8 3c9 9 16 6 16 6-1 3-9 2-9 2 4 3 3 5 3 5-2-2-5-1-12-5s-13-3-13-3c7 7-2 11-2 11-4 2 1 4 1 4-4 1-5-3-5-3l-5 2c0-4 6-2 6-6s-5-8-21-6-21-3-21-3l-2 1c3 3 4 4 4 6-1 1 1 2 1 2-3 0-4-4-4-4l-1 3v4c-2-1-4-3-2-6 2-2-3-5-3-5-2-2-8 0-8 0-10 2-17-5-17-5l-4-1c-11 5-21-6-21-6-9 2-13-2-16-7-3-4-3-4-7-6-3-2-6-8-3-12 3-2 2-3 2-3-5-8 8-10 8-12 1-3 3-4 6-4 3-1 3 0 5-2s5 0 5 0c1 0 7-5 13-3 5 3 10 1 10 1l37-5c2-3 3-7 12-9s16-8 16-8c-2-2-4-1-6-2l-4-2-14 7c-11 7-11-6-11-6h-23c0 5-4 7-4 7h-8c-5-2-5-10-5-10-25 0-40 9-40 9-28-15-51-18-51-18 35-4 54-14 54-14 19 12 37 12 37 12 1-7 5-8 5-8h5z"/><path fill="#FFC221" d="M725 336c-7 4-6 6-5 8l-1 4-2 3c0 7 5 8 7 10l5 6c4 6 8 6 10 6s3-1 2-2a210 210 0 0 0 3 2c7 8 14 7 17 6l3-2h-3c-12-1-15-9-15-9 7 7 17 8 20 8l3 1h-3c-1 0-2 0-1 1l3 1c2 0 0 0 5 3 5 4 16 1 16 1-7-2-8-5-8-5-10 1-15-5-15-5-1-2-7-5-7-5-5-2-6-7-6-7 1 2 4 5 8 6l5 2-3-1c-3-1-1 1-1 1l5 3c12 1 6-4 6-4 8 2 9-1 9-1 2 4 8 3 8 3-8 4-2 2-2 2 8-1 10 1 10 1 2 2 5 2 5 2h4c3 0 8 4 13 3s5 1 5 1c-1 0-3-1-6 1s-10 2-19 0l-9-2 4 5 2 2c0-2 3-3 3-3l7 4v-2c3 3 7 3 7 3l1-3 2 1 4 1-2-3c5-3 15-1 15-1 7 1 6 5 6 5l3 3v-3c3 2 4 5 4 5 4-4-4-9-4-9h10l9 4 8 4-4-3-1-1h4c-8-5-10-8-10-8 3 1 5-1 5-1-7 0-7-2-7-2h17c-3-4-14-4-18-3s-5-1-5-1l4-1c3 0 6 1 9-2s8-1 8-1c-1-2-6-3-11 0s-8 2-8 2c7-1 9-4 9-4l-8 1h-5l8-4-8-3c-4 4-7 6-15 2s-12-3-12-3c7-4 14-3 19 0s7 1 7 1c-2-1-1-2-1-2 12 6 18 2 20 1s-1-5-1-5c0 4-5 6-9 5l-14-6c-6-3-13-1-20 1s-7 0-8 0-1-2-4-1c-4 1-12-2-17-4s-13 0-20 4-11 3-13 2-3-4-1-6 2-3 2-7c0-3-3-5-3-5 3-4 3-4 2-6-1-1 1-1 3-2s1-1 0-2l-1-1c-4 1-6-1-6-1-7-3-14 3-14 3-4-3-4-1-5 0l-4 2c-2 0-4 0-5 2v2s1 2-1 4l-2 4v5l-1-3v-2l-2 3s-1-2 2-5 4-4 3-5l-3 1z"/><path d="M733 366s-4-2-3-6v-5l-1 2v3l-3-4v-4c-1-2-2-2-3-1-2 0-3 2 3 6l3 5c1 4 3 4 4 4zm17-10 2-6c2-4 0-6 0-7l1-2c3-2-1-4 3-8l3-3-6 3c-3 1-13 6-11 10l2 4s-6-3-4-8l3-4 6-2s4-3 5-6l-3 2s-5 1-7 3c-3 3-7 7-6 11 0 0-5-1-6-6 0 0-10 12 11 18l7 1z"/><path fill="#FFC221" d="m842 315 57-8c4-1 6-1 7 2 2 4-6 5-6 5l-54 6-3-1-2-3s-1-1 1-1z"/><path fill="#5A3719" d="M732 340s-6 12 17 15l1-3c1-2 3-6 1-9s1-1 2-4-1-3 1-5c0 0-7 3-10 6s4 5 0 9c0 0-3-1-5-5 0 0-5 0-7-4z"/><path d="M754 355s6 5 12 4 10-2 12-4l1 3s6-5 16-1l9 4s-4-1-14 4c-10 4-36 3-36-10z"/><path fill="#5A3719" d="m745 333 5-2s-4 0-5 2zm-20 23s-4-4-1-5c0 0 2 0 1 5z"/><path d="M828 379s3-4 10-4 8 3 17 4c0 0-11 3-19 0-4-2-7 0-8 0z"/><path fill="#5A3719" d="M756 358s11 7 21-1l1 3s8-7 21 0l-8 3c-8 3-28 6-35-5z"/><path d="M798 365h19c6 0 12-1 9 1s-2 2 11 1-1 2 8 3c0 0-21 11-47-5z"/><path fill="#5A3719" d="M825 358s7-2 12 0l9 4s-3 3-9 0l-12-4zm7 19s6-3 13 0l4 1s-5 2-10 0l-7-1zm-29-11h20s-8 4 13 2h4c-1 1-1 1 1 2 0 0-15 7-38-4z"/><path d="m736 355 3 2c3 1 5 4 5 5s2 3 5 4c0 0-11 2-15-3 0 0-4-4 2-8"/><path fill="#5A3719" d="m818 379-9-2c-6-2-8-1-11-3s-9-1-11-1c-1 0-4 0 0-3l-5-1-7 1s3 4-8 2c0 0 3 4 7 5s5 0 8-1c0 0-1 4 4 5l8 3s0-2-6-7l8 1c5 1 16 4 22 1zm3 5s1 2 4 1 8-1 13 2c0 0 1-5-9-5 0 0-6 0-8 2zm-85-28s-4 3-1 7c4 3 8 2 11 2 0 0-2 0-3-2s-1-3-4-5l-3-2zm-4-16s-6 12 17 15l1-3c1-2 3-6 1-9s1-1 2-4-1-3 1-5c0 0-7 3-10 6s4 5 0 9c0 0-3-1-5-5 0 0-5 0-7-4z"/><path d="M792 368s4-1 17 4 17 3 19 3c0 0-7 4-18-1l-18-6z"/><path fill="#FFC221" d="m868 365 4 1 4-1s-2-2-8 0zm-8-7 3-1-3-3v4zm-94-31s-1-1 2-2l41-5 3 1c0 1-1 2-10 4l-33 4s-3 0-3-2zm37-1s0 5 5 6c6 1 8-1 9-3 0-1 2-7 0-7h-4c-2 1-4 2-3 3l1 2c-1 1-2 0-2-1-1-1 0-2-3-1l-3 1z"/><path fill="#FFC221" d="M826 321c3 1 2 7-1 9-4 3-7 2-7 2-2-1-2 0 0-2 1-2 2-5 1-7l1-1 6-1z"/><path fill="#FFC221" d="M828 322s2 3 0 7c0 0-1 2 1 1s8-3 7-6l-1-1c-2 0 0 0 0-1s3 0-2-4h-2c-1 0-3 1-3 3v1zm6-4 3 3 1 2c1 0 5-1 4-4l-4-4c-2-1-3 0-4 2v1zm-22 4s1-2-2-3l4-1c3 1 3 3 3 3l-5 1zm8-1h6s-2-5-7-3l1 3zm7-1 3-3-4-1-3 1 4 3zm1-5 4 2 4-3s-4-1-8 1z"/><path fill="#5A3719" d="M717 305s9-8 14-7 3 0 9-1l14-1s-7-5-20-5c0 0-9 3-15 7 0 0-11-6-23-3 0 0 13 5 21 10z"/><path fill="#FFC221" d="M816 318h2s2 3 1 4c-2 0-1-1-2-2l-1-2zm-12 1 1 1 4-2h5l4-1h3l2-1 5-1c2-2 4-1 0-3v-1l2 1h3s0-2 3-5 3-3 1-3h-5c-1 1-10 6-15 7s-9 2-13 8zm-132-31 19 6s1-3-6-5c0 0 17 0 34 8 0 0 9-8 36-5l1-5s-20 0-37-11c0 0-16 8-47 12zm85 8c-1-16 5-17 5-17h6s-5 6-4 17c0 0 1 2-3 2s-4-2-4-2z"/><path fill="#5A3719" d="M761 306s-3-3-3-7h3c3 0 3-1 4 1l3 6h-7z"/><path fill="#FFC221" d="M767 298v-6c0-9 1-8 2-7h3s-2-9-5-4c-2 6-2 10-2 14l1 5 1-2z"/><path fill="#5A3719" d="M801 298s5 1-3 3c0 0 0 11 10 3 0 0 6-4 11-5 0 0 2-1 2-3 0 0 0-2-2-1l-3-1h-2c0 1-3 0-2 2h3c1 0 4-1 1 1s-5-1-6-2l-9 3zm-29 1h-3s-1 2-2-1l-1 2s3 11 6-1z"/><path fill="#FFC221" d="M768 286s-1 8 1 12l27 1v-13h-4v10-10h-4v10-10h-3v10h-1v-10h-4v10-10h-4v10h-1l1-10h-4v10h-1l1-10h-4zm29 14s0-14 2-17c3-4 3-3 8 0l11 6c1 0 2 1 2 3s0 3-3 0l-4-2c-3-1 1 0 2 2s2 1-1 2l-17 6z"/><path d="M807 290s-2-2 1-3 2 4 3 7c0 2-3-3-4-4zm-4 12s-3 1-1 2 8-4 6-3l-5 1zm4-4s3-1 2 1h-1c-1-1-3-1-1-1z"/><path fill="#FFC221" d="M821 294s1 5 5 7c0 0 3 0 2-2v-3l-3-1h1c1 0 2 0 1-1l-1-1c-1 0 0 0 0 0l2-1-2-2c-1 0-1 0 0 0 0 0 2 1 2-1s-2-1-2-2h3c0-1 1-2-1-2s0-1 1-1l3-2c1 0 5-3-1-2s-8 4-8 4c-1 1-2 4-2 10z"/><path fill="#FFC221" d="m836 298 1 1c1 2-1 1-2 3s-1 1-3 0c-2 0-3-3-3-3l2-1h5zm-7-1 1 1 6-1v-1h-6c-1-1-1 0-1 1zm0-4 1 2h5l2-1c0-1 0-2-2-1h-6zm0-3v1l4 1 4-1-1-1h-7z"/><path fill="#5A3719" d="m908 298 1 3-59-1 1-3 57 1z"/><path fill="#FFC221" d="m830 288 1 1 5 1 1-2c0-2 1 0-3-1h4c1-1 3-3 0-2-3 0-1-1 0-1h3l-1-1c-1-1-1-1 0 0h2v-2c0 1 0 2 2 1h10c2-1-2-3-1-3l3-1s-2-1 0-2c2 0 0-6 0-7 0 0-3 1-5 6s-4 6-8 5c-5-2-8 1-9 1-1 1 3 1 1 2h-3l1 1v1c-2 0-3-1-2 1 1 0 2 1 0 1l-1 1zm5 14s-1 1 1 1h3c0-1 2-1 1-2-2-1-3 0-5 1z"/><path fill="#FFC221" d="M842 285s4-5 9-2l4 4-1 1c-2 1 0 1 2 1h2c1 0 1 1-1 1h-6s-3 0-1-1v-2 1l-3 1v1c2 1 0 1-1 1s-5 0-1 1c4 0 0 0 3 2s1 6 0 6c0 0-2 1 0 0 2 0 2 0 1 1s-3 4-6 1h1c3 0-2-1-3-2s-4-3-2-3 1-1 0-1v-2l4 1-2-1c-2-1-3-1-2-3s3 1 2 0-3-1-2-3l2-1s2 1 0-1l1-1z"/><path d="m845 286 1-1h1s2 1 0 1h-2z"/><path fill="#FFC221" d="M850 291s-2 1 0 3l1 3 57 1s-1-3 2-5l-60-2z"/><path fill="#5A3719" d="m909 297 1-4c1 0 3 0 3 2 1 4-2 7-3 6-2-2-1-4-1-4z"/><path fill="#7B3C20" d="m843 311 5-5s10 7 9 0l1-3s3 0 4-3h-10l-2 2c-1 2-5 3-8 1h-2v2l3 6zm22-20-5-1-6-6 1-2 3-5v-1c1 1 7 6 8 5l1-3c0-1 0-2 1 0s2 1 2 5v5s-7-2-5 2zm-24-12s4 2 6-1c2-4 4-4 2-7s0-5 2-6 2-1 2-6 4-7 5-8 5-4 0-5c-6-1-18-4-21-9s-4-1-4-1-1 3 2 9 5 10 8 12 6 3 4 7l-6 15z"/><path fill="#5A3719" d="M857 266s1 10 8 14c0 0 2-4 1-8l3 1s0-3-3-4c-4-1-2-8-1-9v-3c-1-1-1-3 2-2s3-1 1-2-2-4 1-4 6-2 4-3c-3-1-4-1 0-2s5-3 2-3c-2 0-4-1-1-2s-1-3-4-3-9 1-4-3-7-1-2-3-2-2-3-2v-1c0-1-1-2-2-1s-2 1-2-1-1-1-3 0-3 2-4 1-2-2-5 0c-4 2-3 0-3-1s1-4-3 0c-5 4-1-4-5-2l-4 2c0-1-2-2-6 1s-1-2 0-3 2-6-1-2c0 0-2 3-6-2 0 0-4 5-5 3-1-3-2-3-3-1s-1 0-1-2-1-4-8 1 2 1-3 4-17 9-6 7-5 5-1 6 2 4 17 0 12 0 20-4-2 2 8 1c10 0 2 0 4 2s10 7 18 8 10-2 8 2l-4 6c-1 2-6 3-6 8s-6 6-4 11l6-5z"/><path fill="#5A3719" d="M870 277s-2-1-2-3l2 1s4-5-1-7c-6-2-3-7-1-7s2-1 1-3-2-2 1-3l2-1-3-2s9-4 6-6 0-1 3-3l3-3h-4s2-1 0-3c-3-2-3-3-7-3s-2 0-1-1c1-2 1-3-2-3l2-3-6-1s2-1 2-3l-6 1 2-3s-6 1-8 3l-1-1c-1 0-1-1-7 1 0 0 0-3 2-4s1-3-9 3l-2-4-4 4s-1 1-1-1-1-1-2 0c-1 0-2 2-1-2s-2-5-2-5l-5 5-4-5c-1-2-1-3-2 0-1 4-3 4-3 4l-2-2-1 1s-2-2-2-5c0 0-10 6-11 10h-15s1-3 4-5c0 0-3 0-3-3h4c2 0-2-4 1-4s6 1 4-3l-1-5s6 4 7 3-1-3 4-2 4-2 6-2 3 1 2-8 6 5 1-9c0 0-1-5-4-7 0 0-1 4-4 1s-11-4-8-6 4-5 4-7c0 0-4 4-10 1-4-2-5 2-10 1l4-4c4-3-2 1-5 1s-3 0 2-4c6-4 16-11 15-17 0 0 2 3 8 1s12-3 14-6c2-4 7-7 8-8s3-1 1 2-5 9-14 12c-9 4-12 7-14 9-2 1-10 6-4 5s14 0 10-1c-5-1-9 1-6-3s5-5 11-7 12-8 11-2c0 6-11 12-14 14l-1 2-2 3v6l2 1 2 2h3c0 1 2 3 2 0s1-3-2-2-3 1-3-1 0-1-2-1-1-1 1-3l5-2 3-3-6 3c-2 1-2 0-1-2s5-6 7-6 8 2 5 5-8 6-5 7h4v6c0 2-2 3-3 4 0 0-3-6-3-2v6l5 2c1 0-5 3-3 4 3 0 7-2 9-4l-8-4s6-1 5-7c0 0 6 1 3 4s-4 3-2 3l4 2v5c1 0 4-1 1-2s3-1 1-3l-3-2c-1 0 26-16 12-10 0 0 3-6 7-6s4 3 2 6-4 6-9 6c0 0 7 4-1 10l-1 1 6-3 4-4c2-1 12-8 15-13s3-5 9-10l5-4c0-1 1-3 4-5l16-9 13-10c2-4 10-9 12-8s0 4-5 7l-17 14c-2 2-11 8-15 8s-3 2-5 4l-8 9c-2 1-6 4-6 6 0 1 0 2-3 5l-15 10s6 2 2 6l-3 4s9-2 2 5c0 0-1 2 2 0s2-5 1-5c0 0 5-3 10-3s6-1 1-2c0 0 3-4 6-2s2 3-1 5l-11 4s6 1 10-2 3-1 4-1c0 1 1 2-1 4l-1 3s0 2-4 2c-3 1-4 2-3 4s1 5-2 4-2-2-3-3-2-2-7 0c-4 3-5 0-4-2 0 0-3 3-6 1-2-3 0-4 1-5s8-4 4-3-9 0-10-2c-1-3 3-3 3-2s3 2 3-1l3-3-4 2s-2-4-7-3 2 1 3 1 0 2-4 6-2 2 1 2 10 0 6 4-6 5-8 4 0-2 1-2 2-2 0-1-3 1-5-2v-4c1-2 2-4 0-3s-1 0-1-2-2-2-2-2v5c2 1 3 2 1 3s-2 1 0 2 3 2 1 3-1 2 0 2 3 0 3 2 0 2 3 1 9-2 9 1c0 2-1 3 2 1s5 1 7 0 4-4 6-1 2 4-1 6 1 1 4 0 8-2 12-1 5 2 8 1 4-2 8 1 7 3 9 3c0 0-4 2-9 2s-8 2-9 2c0 0 3 2 4 5h5s-1 2 1 3c2 2 3 2 2 4-2 2 2 1 0 4l-3 5c0 3 1 3-1 3s0 2-1 5-7 3-6 10c0 0 1-4 5-7s3-3 3-5l2-3c2-2-1-3 1-5l2-3c2-2-2-2 0-5s-5-4-3-5 6-3-6-3c0 0 3-5 13-4 0 0-3 2-3 4h2l-3 4 7 4s-4 1-4 3l2 4s-4-1-5 2c0 3-1 1-1 2l-1 3v6h-3s1 4-1 5 1 1-1 2c-3 0-3 0-5 5l5-3c2-1-1-1 4-5s3-4 3-6-1-4 1-6c1-2 2-5 7-4 0 0-1-4-3-5 0 0 2-2 5-2 0 0-2-3-7-5l5-6h-4l5-4 2 4 9-3s2 4-7 13h8s-1 4-8 7 2 5-5 4-5 2-4 6v7s-5-1-5 4-3 6-4 7l-3-3s-4 7-9 10z"/><path fill="#7B3C20" d="m862 213 5 1c3 2 6-2 3-3s0-2 3 1 4 1 5 0 3-1 1-3h3c2 1 1 3 1 3s-1 3 2 0l5-7s2 1 2 3 2-1 3-3l2-5s2 3 5 0 2-2 6-2 9-4 11-7 3-1 6-2 10-6 11-8c0-3 0-4-1-3s0 0-2-1c-1-1-3 1-3 1s2 2 0 3l-6 2-6 2s3 3-1 4-3 2-5 0l-6 6-2-1-3 3-3-2s-3 4-6 5l-2-2s-1 5-6 8c0 0 0-2-3-3l-9 6c-3 1 0-2 1-2s2-3-2-4-2 0-3 1l-3-1-2 2c-1 0-5-1-5 2s2 4-1 5c-3 2 1 1 5 1z"/><path fill="#5A3719" d="M875 206s1-3-1-5c0 0 17-2 4-9 0 0 15-3 12-8-4-5-8-4-8-4l4-2c1 1 14 5 10 1s-3-4-3-5c0 0 4 0 10 6 0 0 2-1 1-4 0 0 5 1 6 3l1-3 5 4s2-1 2-3l5 3v-4s7 2 8-2c0 0 6 1 2 4-6 3-1-1-6 3-4 3-7 6-9 5-1 0-3 4-5 2s-2-1-4 1l-3 5-2-2-3 4-3-3-5 5-4-3s0 5-4 8l-3-3-7 6z"/><path fill="#5A3719" d="M866 198s-2 2 0 4c1 1 1-1 3-1s23-4 3-9l5-1c4 0 15-4 9-8-5-4-10 1-5-4 4-4 0-6 0-6l-13 9c-2 1-6 4-2 5s7-4 8-3c0 1-9 6-8 9 2 2 1 4 4 3 2 0 8 1 3 1l-7 1z"/><path d="M874 188h1c2 0 7-1 6-3-1-1-4 1-7 3z"/><path fill="#7B3C20" d="M908 166s10 0 14 2l7 5s0 4-7 1v4s-2-2-5-2l-1 2-6-4-1 2-6-2v3s-7-6-14-5l5 7s-12-1-10-8-1-5 8-5h16z"/><path fill="#5A3719" d="M848 185s-2 1 0 2c1 1 6-3 7-3 1-1 3 0 0 1s-5 4-7 6c0 0 9-2 14-7s0-1 10-6 14-12 9-11-10 7-14 9-6 2-5 1l9-5c5-4 4-4 4-6s-2-5 6-9 34-19 36-24c0 0-8 0-17 8s-15 10-18 11l-4 2-13 13c-1 1-3 2-3 5l-14 13z"/><path fill="#5A3719" d="M881 166h-3c-1 0-2-5 3-8l16-6s0 5-13 9c0 0 1 3-3 5z"/><path fill="#AA5323" d="M886 162v3s23 2 35-12c0 0-16 1-23 5 0 0 4-5 17-9 12-5 17-10 18-13 0 0-16 6-23 6h-3l-14 10s6-1 8-3c0 0-4 11-15 13z"/><path fill="#5A3719" d="M841 176s-3 2-2 3 4 1 8-3 16-13 9-13c0 0-9-1-9 4 0 6-6 8-6 9zm-21-4s6 4 4 7c0 0 18-16 13-19s-9 3-8 4h3l-12 8zm-5-5 5 3c1 1 12-8 8-12-1-2-8-3-8 1s6-1 4 2c-3 4-8 6-9 6zm43-8s-2 2 0 3 4-1 5-2l8-8c2-3 3-3 5-4 2-2 17-9 25-17s6-6 15-11 15-10 17-15l-8 4-14 8-5 2c-1 2-1 3-6 7l-30 22-12 11z"/><path fill="#AA5323" d="m840 164 7-1c5 1 23-17 29-21l24-18 5-6 8-4c5-3 26-15 25-23l-40 26-32 23c-4 2-7 6-13 11s-12 10-13 13z"/><path fill="#AA5323" d="M833 157s6 0 7 3c0 0 12-9 15-13s-1-1 7-6l35-25 16-11c5-3 26-14 23-22l-18 13c-4 2-5 0-9 3l-12 10-19 15-25 16-20 17z"/><path fill="#AA5323" d="m814 156 4 1s6-5 12 0c0 0 22-15 24-19s6-4 14-10l20-13c6-5 10-10 14-12 4-3 15-10 13-16 0 0-8 5-14 11s-5 1-10 6c-6 5-14 12-22 15s-2 4-8 7l-6 3-7 4-12 8c-6 4-20 12-22 15z"/><path fill="#AA5323" d="M821 144s-2-2 1-4l6-9c1-3 0-3 6-5a246 246 0 0 0 50-28l11-8s1 3-1 5l-15 11-14 8-12 8-13 8-12 6s6-1 8-3c2-1 12-5 14-8l10-6 23-15 7-4c1 1 3 1 0 3-2 2-8 8-11 9l-13 8-4 4c-1 1-5 4-9 5s-6 4-9 6l-24 14s2-2 1-5z"/><path fill="#AA5323" d="M892 98v1c0 1 3 3 7 0 3-4 13-12 16-14s5-3 5-6c0 0-15 8-28 19zm21-2 7-7 15-10s2 2-2 5l-14 9-6 3z"/><path fill="#7B3C20" d="M799 138s-6 3-4 5 6 2 7 1l4-1s6-2 7-4l8-8c3-2 4-4 4-6l-26 13zm-37 28s4-2 10 0l-1-3s7-2 9-5l3-3c1-1 12-9 11-11l-3-5s-2 3-11 8-20 8-28 18-7 17 2 19c0 0 7-4 23-2 16 1 22 7 23 8s4 6 1 12c0 0 3 2 4-1l1-2 1-2c0-3-1-8-3-10s0-1 1 0c1 0 5 3 3-2s-3-3-3-3 0 2-5-1l-11-6c-3-1-1-1 0-2 2 0 5-1 5-3h-5c-4-1-9-2-15 2 0 0 2-6-3-6s-8 1-13 5c0 0 0-6 5-10s4-1 6-2 3-3 2-4c0 0 6 1 17-8 0 0-6 8-13 9 0 0-1 4-7 5s-6 5-6 5z"/><path fill="#5A3719" d="M744 203s3-19 20-20c15-1 20 1 23 2s11 3 8 5l-5 2s4-4 1-4-4 1-4 2l-2 5s-2-2-4 0 0 1 1 1 2-1 1 1-1 3-5 5l-7 3c-4 1-8 2-14 7-5 4-11 3-12-2l-1-7z"/><path d="M764 202s1-4-2-5c0 0-9 1-11-1l16-3c6-3 4-4 2-5-2 0-6 1-7 3 0 0-1-2 1-4s4-1 6-1c2 1 4 2 11-2 0 0 4 1 4 4v4l-2 1c-1 0-2 0-3 2l-4 5s3-6-3-8c0 0-4 3-7 3 0 0 4 4-1 7z"/><path fill="#5A3719" d="M773 191s-2-2 1-2c2-1 6 1 5 3 0 2-3 2-6-1z"/><path fill="#FFF" d="M921 162s-4 1 0 4l10 7c3 1 6 2 6 5s0 4-2 7c-2 2 1 3 3 2l6-3h2c-2 1-5 2-2 2s21 1 25-1 9-1 9-6c0 0 0-2 2-3 1-1 2-3 0-2l-4 2 1-2c1-1 3 0 4-2v-2c0-1-2-2-1-3s1-4-2-2l-13 7-9 3c-4 1-7 1-11 4s-4-2-4-2 2 3 7-1 3 0 13-4l13-6c4-2 8-3 5-5s-3-4-7 0c-4 3-14 8-21 8 0 0 25-11 22-12-2-2-5-3-7-3s-2-1-6 1l-6 2-9 3-10 5s2-4 12-7 14-5 13-6l-5-1-7 3-8 3-9 3 4-3c2 0-2-1 3-1h1l11-4c-1-1-6-1-12 1l-5 3-8 4-4 2z"/><path fill="#5A3719" d="m778 188 3 3c1 2 2-1 2-2s-2-4-4-2l-1 1z"/><path fill="#7B3C20" d="m771 220 9-2s-1-6 2-5l2 1v-5h6s-3-5 0-9c0 0 2 4 5 5v-4l4 1c1 1 4-10-2-12 0 0-1 2-6 3s-5 2-7 6-3 3-8 6c-4 3-6 8-6 8s2 3 1 7z"/><path fill="#999" d="M935 157c2 0-2-1 3-1h1c6-2 12-4 11-5l-12 2-5 3-8 4-4 2s-4 1 0 4l10 7c3 1 6 2 6 5s0 4-2 7c-2 2 1 3 3 2l6-3h2c-2 1-5 2-2 2s21 1 25-1 9-1 9-6c0 0 0-2 2-3 1-1 2-3 0-2l-4 2 1-2c1-1 3 0 4-2v-2l-1-1-2-1-9 4-9 3c-4 2-11 6-12 2l-3 2c-5 2-4-1-4-2 0 0-2 2-2 0s2-2 4-3 7-2 5-4-3 2-5 3-6 1-6-1-1-5-6-5-5-4-4-5 3-4 8-5z"/><path d="m951 182 16-5c7-2 1 0 0 0a143 143 0 0 0-16 5zm2 2s9-3 11-2c1 1 0 1-2 1l-9 1c-1 0 0 0 0 0zm15-3h1-1c-1 0-2 0 0 0z"/><path fill="#FFF" d="M730 259s0-8 3-12 24-24 27-30c0 0 2 2 2 5l6-7s3 2 2 6c0 0 5-2 12-2 0 0-3 3-3 5h15s-13 7-9 8h8s-5 5-12 5c0 0 9 0 11 2 0 0-9 2-16 7l-1-2-2 3-8 7c-2 2-5 5-9 5 0 0 1-3-2-3-2-1-5-1-7 2h-13s2-3 4-3 10 1 11-4c0-6-5-4-3-7l2-4-3 4c-1 3-2 5-6 8l-6 6-3 1z"/><path fill="#FFF" d="m739 254 3-1c3 0 3-2 2-3s-2 0 1-3l2 1c1 1 3 7-8 6z"/><path fill="#999" d="M732 249c0 5 7 3 7 3l-5 4c1-2-4-3-4-3l2-4zm26-29 2-3s2 2 2 5l6-7s3 2 2 6c0 0 5-2 12-2 0 0-3 3-3 5h15s-13 7-9 8h8s-5 5-12 5c0 0 9 0 11 2l-6 2s-3-3-10-2l10-4s-2-3-5-1c0 0-6-4-1-8l-6 1s0-3 3-4c0 0-7-1-9 4l-1-5-6 6s-1-6-3-8m-14 34h-5l1-1 4 1"/><path d="m757 234 4 4 4-4 3 4s2-1 2-3c0 0 4 1 5 3v-7l5 1s-2-2 6-6l-8 4h-4v5l-4-1-2 2-2-4-4 4-5-2z"/><path fill="#FFC221" d="m738 274 5-2c3-2 11-8 12-12s-3-4-6-3c-2 1-1 3-1 4s0 4-4 8l-6 5z"/><path fill="#FFC221" d="M737 275s-6-3 0-6 9-3 9-6c1-2 0-2-2-1s-11 5-12 1c0 0 4 2 8 0s8-3 5-4-13 0-14 1c-2 0-1 0-2 2l-3 6c0 1-2 5 1 7s8 2 10 0z"/><path d="M735 261h-1l1 1 1-1h-1z"/><path fill="#FFF" d="M737 274s-3-2 0-4l8-4-8 8z"/><path id="path-b7210" d="m m0 81 m0 81 m0 65 m0 65 m0 65 m0 65 m0 65 m0 65 m0 65 m0 65 m0 65 m0 65 m0 65 m0 65 m0 65 m0 65 m0 65 m0 65 m0 65 m0 65 m0 82 m0 65 m0 111 m0 80 m0 49 m0 113 m0 99 m0 109 m0 102 m0 83 m0 108 m0 84 m0 116 m0 43 m0 66 m0 99 m0 78 m0 113 m0 75 m0 73 m0 102 m0 115 m0 119 m0 116 m0 103 m0 57 m0 108 m0 76 m0 78 m0 72 m0 51 m0 69 m0 47 m0 86 m0 70 m0 84 m0 103 m0 84 m0 86 m0 115 m0 55 m0 75 m0 119 m0 89 m0 65 m0 69 m0 122 m0 121 m0 73 m0 69 m0 110 m0 68 m0 52 m0 99 m0 66 m0 43 m0 104 m0 109 m0 85 m0 52 m0 100 m0 97 m0 98 m0 74 m0 118 m0 103 m0 61 m0 61"/>
</svg>