<svg xmlns="http://www.w3.org/2000/svg" width="1200" height="600"><path fill="#6ab2e7" d="M0 0h900v600H0z"/><path fill="#12ad2b" d="M0 300h900v300H0z"/><path d="M0 0v600l259.808-150 259.807-150-259.807-150z" fill="#fff"/><path d="M198.86 225l18.616 57.295h60.243l-48.738 35.41L247.598 375l-48.738-35.41L150.122 375l18.616-57.295L120 282.295h60.243z" fill="#d7141a"/><path id="path-b7476" d="m m0 77 m0 119 m0 65 m0 65 m0 65 m0 65 m0 65 m0 65 m0 65 m0 65 m0 65 m0 65 m0 65 m0 65 m0 65 m0 65 m0 65 m0 65 m0 65 m0 65 m0 77 m0 117 m0 54 m0 74 m0 90 m0 81 m0 74 m0 73 m0 77 m0 90 m0 120 m0 74 m0 56 m0 74 m0 119 m0 74 m0 105 m0 53 m0 86 m0 82 m0 78 m0 55 m0 78 m0 54 m0 98 m0 72 m0 81 m0 121 m0 82 m0 98 m0 97 m0 122 m0 76 m0 112 m0 114 m0 111 m0 48 m0 76 m0 121 m0 107 m0 109 m0 118 m0 116 m0 88 m0 57 m0 79 m0 86 m0 89 m0 113 m0 108 m0 106 m0 49 m0 106 m0 109 m0 47 m0 47 m0 85 m0 114 m0 43 m0 101 m0 113 m0 98 m0 98 m0 69 m0 97 m0 119 m0 61 m0 61"/>
</svg>