<svg xmlns="http://www.w3.org/2000/svg" width="32" height="16"><path fill="#6ab2e7" d="M0 0h900v600H0z"/><path fill="#12ad2b" d="M0 300h900v300H0z"/><path d="M0 0v600l259.808-150 259.807-150-259.807-150z" fill="#fff"/><path d="M198.86 225l18.616 57.295h60.243l-48.738 35.41L247.598 375l-48.738-35.41L150.122 375l18.616-57.295L120 282.295h60.243z" fill="#d7141a"/><path id="path-b7515" d="m m0 77 m0 103 m0 65 m0 65 m0 65 m0 65 m0 65 m0 65 m0 65 m0 65 m0 65 m0 65 m0 65 m0 65 m0 65 m0 65 m0 65 m0 65 m0 65 m0 65 m0 78 m0 55 m0 76 m0 70 m0 68 m0 67 m0 83 m0 116 m0 102 m0 53 m0 76 m0 99 m0 121 m0 65 m0 56 m0 84 m0 109 m0 111 m0 97 m0 116 m0 74 m0 112 m0 52 m0 115 m0 102 m0 115 m0 104 m0 43 m0 49 m0 51 m0 68 m0 80 m0 67 m0 86 m0 66 m0 83 m0 79 m0 99 m0 112 m0 77 m0 115 m0 75 m0 70 m0 68 m0 71 m0 76 m0 79 m0 53 m0 57 m0 48 m0 107 m0 98 m0 76 m0 108 m0 117 m0 117 m0 121 m0 112 m0 109 m0 75 m0 49 m0 65 m0 85 m0 115 m0 68 m0 65 m0 61 m0 61"/>
</svg>