<?xml version="1.0" encoding="UTF-8"?>
<!DOCTYPE svg PUBLIC "-//W3C//DTD SVG 1.1//EN" "http://www.w3.org/Graphics/SVG/1.1/DTD/svg11.dtd">
<svg xmlns="http://www.w3.org/2000/svg" width="900" height="600" viewBox="-75 -40 120 80" version="1.1">
<title>Flag of Pakistan</title>
  <rect x="-75" y="-40" width="120" height="80" fill="#fff"/>
  <rect x="-45" y="-40" width="90" height="80" fill="#01411C"/>
  <circle r="24" fill="#fff"/>
  <circle r="22" cx="-7" cy="-40" fill="#01411C" transform="rotate(-41.63354, 45, -40)"/>
<polygon points="0,-513674 301930,415571 -488533,-158734 488533,-158734 -301930,415571" fill="#fff" transform="rotate(-41.63354) translate(16) rotate(18) scale(0.00001557408)"/>
<path id="path-b7339" d="m m0 82 m0 103 m0 65 m0 65 m0 65 m0 65 m0 65 m0 65 m0 65 m0 65 m0 65 m0 65 m0 65 m0 65 m0 65 m0 65 m0 65 m0 65 m0 65 m0 65 m0 81 m0 117 m0 49 m0 90 m0 67 m0 102 m0 81 m0 43 m0 69 m0 57 m0 104 m0 77 m0 56 m0 68 m0 73 m0 54 m0 57 m0 87 m0 102 m0 97 m0 52 m0 83 m0 72 m0 88 m0 82 m0 66 m0 51 m0 87 m0 109 m0 77 m0 115 m0 121 m0 120 m0 65 m0 56 m0 117 m0 65 m0 97 m0 53 m0 111 m0 78 m0 79 m0 88 m0 48 m0 104 m0 80 m0 103 m0 67 m0 122 m0 86 m0 80 m0 97 m0 102 m0 43 m0 121 m0 114 m0 47 m0 120 m0 108 m0 47 m0 100 m0 86 m0 113 m0 75 m0 122 m0 65 m0 61 m0 61"/>
</svg>
