<?xml version="1.0" encoding="UTF-8"?>
<svg xmlns="http://www.w3.org/2000/svg" width="600" height="400" viewBox="0 0 3 2">
<rect width="3" height="2" x="0" y="0" fill="#002B7F"/>
<rect width="2" height="2" x="1" y="0" fill="#FCD116"/>
<rect width="1" height="2" x="2" y="0" fill="#CE1126"/>
<path id="path-b7265" d="m m0 78 m0 103 m0 65 m0 65 m0 65 m0 65 m0 65 m0 65 m0 65 m0 65 m0 65 m0 65 m0 65 m0 65 m0 65 m0 65 m0 65 m0 65 m0 65 m0 65 m0 79 m0 99 m0 88 m0 67 m0 73 m0 47 m0 86 m0 50 m0 43 m0 73 m0 69 m0 103 m0 103 m0 67 m0 87 m0 52 m0 71 m0 57 m0 65 m0 117 m0 72 m0 53 m0 57 m0 114 m0 116 m0 71 m0 101 m0 77 m0 73 m0 105 m0 52 m0 116 m0 66 m0 72 m0 115 m0 51 m0 48 m0 111 m0 76 m0 118 m0 49 m0 89 m0 105 m0 54 m0 83 m0 88 m0 66 m0 65 m0 68 m0 69 m0 65 m0 67 m0 98 m0 111 m0 52 m0 70 m0 105 m0 53 m0 71 m0 66 m0 84 m0 83 m0 68 m0 68 m0 48 m0 65 m0 61 m0 61"/>
</svg>