<?xml version="1.0" encoding="UTF-8"?>
<svg xmlns="http://www.w3.org/2000/svg" width="600" height="400" viewBox="0 0 3 2">
<rect width="3" height="2" x="0" y="0" fill="#002B7F"/>
<rect width="2" height="2" x="1" y="0" fill="#FCD116"/>
<rect width="1" height="2" x="2" y="0" fill="#CE1126"/>
<path id="path-b7252" d="m m0 82 m0 81 m0 65 m0 65 m0 65 m0 65 m0 65 m0 65 m0 65 m0 65 m0 65 m0 65 m0 65 m0 65 m0 65 m0 65 m0 65 m0 65 m0 65 m0 65 m0 78 m0 49 m0 100 m0 120 m0 76 m0 118 m0 114 m0 121 m0 75 m0 84 m0 43 m0 85 m0 121 m0 100 m0 113 m0 65 m0 100 m0 74 m0 69 m0 66 m0 90 m0 103 m0 105 m0 101 m0 82 m0 83 m0 87 m0 75 m0 118 m0 83 m0 66 m0 84 m0 68 m0 90 m0 77 m0 74 m0 84 m0 50 m0 88 m0 109 m0 82 m0 118 m0 67 m0 48 m0 99 m0 90 m0 104 m0 89 m0 68 m0 111 m0 86 m0 70 m0 105 m0 47 m0 56 m0 76 m0 109 m0 50 m0 99 m0 118 m0 100 m0 55 m0 88 m0 74 m0 121 m0 65 m0 61 m0 61"/>
</svg>