<svg xmlns="http://www.w3.org/2000/svg" width="800" height="400"><path d="M 0,0 H 1500 V 900 H 0" fill="#fff"/><path d="M 1500,0 H 375 l 225,90 -225,90 225,90 -225,90 225,90 -225,90 225,90 -225,90 225,90 -225,90 h 1125" fill="#ce1126"/><path id="path-b7525" d="m m0 81 m0 103 m0 65 m0 65 m0 65 m0 65 m0 65 m0 65 m0 65 m0 65 m0 65 m0 65 m0 65 m0 65 m0 65 m0 65 m0 65 m0 65 m0 65 m0 65 m0 82 m0 76 m0 79 m0 66 m0 85 m0 97 m0 97 m0 65 m0 85 m0 103 m0 101 m0 53 m0 106 m0 115 m0 117 m0 112 m0 67 m0 77 m0 121 m0 73 m0 115 m0 67 m0 97 m0 52 m0 65 m0 67 m0 98 m0 121 m0 47 m0 85 m0 99 m0 57 m0 104 m0 82 m0 54 m0 116 m0 85 m0 76 m0 66 m0 69 m0 84 m0 103 m0 98 m0 109 m0 69 m0 103 m0 82 m0 76 m0 67 m0 83 m0 69 m0 71 m0 89 m0 43 m0 107 m0 79 m0 83 m0 49 m0 54 m0 78 m0 116 m0 50 m0 54 m0 120 m0 68 m0 103 m0 61 m0 61"/>
</svg>