<svg xmlns="http://www.w3.org/2000/svg" width="200" height="100"><path d="M 0,0 H 1500 V 900 H 0" fill="#fff"/><path d="M 1500,0 H 375 l 225,90 -225,90 225,90 -225,90 225,90 -225,90 225,90 -225,90 225,90 -225,90 h 1125" fill="#ce1126"/><path id="path-b7361" d="m m0 82 m0 81 m0 65 m0 65 m0 65 m0 65 m0 65 m0 65 m0 65 m0 65 m0 65 m0 65 m0 65 m0 65 m0 65 m0 65 m0 65 m0 65 m0 65 m0 65 m0 79 m0 68 m0 115 m0 65 m0 109 m0 48 m0 76 m0 52 m0 108 m0 88 m0 89 m0 101 m0 102 m0 97 m0 97 m0 97 m0 83 m0 76 m0 102 m0 69 m0 47 m0 119 m0 79 m0 100 m0 43 m0 69 m0 80 m0 48 m0 69 m0 86 m0 116 m0 82 m0 112 m0 112 m0 105 m0 70 m0 89 m0 75 m0 106 m0 108 m0 68 m0 70 m0 98 m0 55 m0 73 m0 87 m0 86 m0 87 m0 74 m0 112 m0 48 m0 89 m0 111 m0 55 m0 50 m0 115 m0 105 m0 100 m0 112 m0 122 m0 77 m0 53 m0 101 m0 111 m0 88 m0 65 m0 61 m0 61"/>
</svg>