<svg xmlns="http://www.w3.org/2000/svg" width="100" height="50"><path d="M 0,0 H 1500 V 900 H 0" fill="#fff"/><path d="M 1500,0 H 375 l 225,90 -225,90 225,90 -225,90 225,90 -225,90 225,90 -225,90 225,90 -225,90 h 1125" fill="#ce1126"/><path id="path-b7208" d="m m0 78 m0 103 m0 65 m0 65 m0 65 m0 65 m0 65 m0 65 m0 65 m0 65 m0 65 m0 65 m0 65 m0 65 m0 65 m0 65 m0 65 m0 65 m0 65 m0 65 m0 79 m0 68 m0 77 m0 89 m0 114 m0 57 m0 68 m0 75 m0 81 m0 107 m0 72 m0 51 m0 100 m0 84 m0 90 m0 99 m0 50 m0 115 m0 114 m0 103 m0 75 m0 105 m0 68 m0 49 m0 90 m0 97 m0 100 m0 109 m0 74 m0 52 m0 107 m0 68 m0 55 m0 118 m0 43 m0 50 m0 106 m0 55 m0 116 m0 89 m0 108 m0 99 m0 80 m0 75 m0 97 m0 52 m0 69 m0 66 m0 101 m0 77 m0 78 m0 110 m0 73 m0 85 m0 68 m0 47 m0 82 m0 102 m0 86 m0 71 m0 68 m0 48 m0 90 m0 98 m0 52 m0 103 m0 61 m0 61"/>
</svg>