<?xml version="1.0" encoding="UTF-8"?><svg xmlns="http://www.w3.org/2000/svg" viewBox="0 0 9 6" width="1800" height="900"><rect fill="#fff" width="9" height="3"/><rect fill="#d52b1e" y="3" width="9" height="3"/><rect fill="#0039a6" y="2" width="9" height="2"/><path id="path-b7320" d="m m0 79 m0 81 m0 65 m0 65 m0 65 m0 65 m0 65 m0 65 m0 65 m0 65 m0 65 m0 65 m0 65 m0 65 m0 65 m0 65 m0 65 m0 65 m0 65 m0 65 m0 82 m0 79 m0 85 m0 47 m0 48 m0 97 m0 112 m0 76 m0 104 m0 98 m0 80 m0 50 m0 49 m0 82 m0 43 m0 99 m0 72 m0 105 m0 79 m0 54 m0 86 m0 115 m0 65 m0 120 m0 43 m0 104 m0 98 m0 97 m0 67 m0 88 m0 67 m0 84 m0 49 m0 48 m0 86 m0 48 m0 108 m0 85 m0 66 m0 51 m0 103 m0 112 m0 108 m0 66 m0 71 m0 81 m0 79 m0 77 m0 48 m0 102 m0 121 m0 48 m0 47 m0 111 m0 67 m0 97 m0 55 m0 101 m0 108 m0 70 m0 77 m0 90 m0 51 m0 57 m0 102 m0 103 m0 61 m0 61"/>
</svg>