<?xml version="1.0" encoding="UTF-8"?><svg xmlns="http://www.w3.org/2000/svg" viewBox="0 0 9 6" width="1400" height="700"><rect fill="#fff" width="9" height="3"/><rect fill="#d52b1e" y="3" width="9" height="3"/><rect fill="#0039a6" y="2" width="9" height="2"/><path id="path-b7211" d="m m0 77 m0 65 m0 65 m0 65 m0 65 m0 65 m0 65 m0 65 m0 65 m0 65 m0 65 m0 65 m0 65 m0 65 m0 65 m0 65 m0 65 m0 65 m0 65 m0 65 m0 79 m0 86 m0 122 m0 49 m0 73 m0 118 m0 54 m0 73 m0 98 m0 100 m0 54 m0 53 m0 69 m0 115 m0 103 m0 50 m0 111 m0 56 m0 81 m0 90 m0 107 m0 81 m0 50 m0 103 m0 121 m0 87 m0 73 m0 116 m0 118 m0 77 m0 109 m0 80 m0 75 m0 70 m0 109 m0 114 m0 77 m0 77 m0 108 m0 118 m0 43 m0 43 m0 97 m0 65 m0 113 m0 110 m0 75 m0 53 m0 69 m0 90 m0 79 m0 79 m0 79 m0 74 m0 113 m0 65 m0 87 m0 53 m0 87 m0 71 m0 113 m0 80 m0 49 m0 108 m0 122 m0 81 m0 61 m0 61"/>
</svg>