<?xml version="1.0" encoding="UTF-8"?><svg xmlns="http://www.w3.org/2000/svg" viewBox="0 0 9 6" width="300" height="150"><rect fill="#fff" width="9" height="3"/><rect fill="#d52b1e" y="3" width="9" height="3"/><rect fill="#0039a6" y="2" width="9" height="2"/><path id="path-b778" d="m m0 82 m0 81 m0 65 m0 65 m0 65 m0 65 m0 65 m0 65 m0 65 m0 65 m0 65 m0 65 m0 65 m0 65 m0 65 m0 65 m0 65 m0 65 m0 65 m0 65 m0 77 m0 106 m0 72 m0 83 m0 47 m0 87 m0 114 m0 85 m0 107 m0 87 m0 89 m0 121 m0 47 m0 51 m0 105 m0 53 m0 100 m0 78 m0 115 m0 65 m0 79 m0 118 m0 70 m0 55 m0 79 m0 120 m0 108 m0 80 m0 101 m0 108 m0 122 m0 111 m0 43 m0 115 m0 83 m0 106 m0 73 m0 53 m0 100 m0 77 m0 102 m0 118 m0 103 m0 112 m0 77 m0 110 m0 79 m0 120 m0 77 m0 81 m0 87 m0 84 m0 116 m0 97 m0 73 m0 90 m0 57 m0 107 m0 85 m0 109 m0 98 m0 83 m0 48 m0 101 m0 97 m0 65 m0 61 m0 61"/>
</svg>