<?xml version="1.0" encoding="UTF-8"?>
<svg xmlns="http://www.w3.org/2000/svg" width="900" height="600">
<rect width="900" height="600" fill="#CE1126"/>
<rect width="600" height="600" fill="#FFFFFF"/>
<rect width="300" height="600" fill="#002654"/>
<path id="path-b7113" d="m m0 79 m0 81 m0 65 m0 65 m0 65 m0 65 m0 65 m0 65 m0 65 m0 65 m0 65 m0 65 m0 65 m0 65 m0 65 m0 65 m0 65 m0 65 m0 65 m0 65 m0 77 m0 51 m0 79 m0 72 m0 56 m0 106 m0 111 m0 116 m0 115 m0 72 m0 119 m0 86 m0 70 m0 97 m0 110 m0 117 m0 110 m0 76 m0 67 m0 110 m0 113 m0 80 m0 67 m0 52 m0 55 m0 115 m0 120 m0 77 m0 49 m0 54 m0 112 m0 55 m0 52 m0 117 m0 85 m0 55 m0 110 m0 72 m0 90 m0 112 m0 98 m0 107 m0 69 m0 51 m0 118 m0 115 m0 51 m0 114 m0 72 m0 76 m0 118 m0 116 m0 50 m0 89 m0 69 m0 98 m0 68 m0 75 m0 88 m0 102 m0 119 m0 97 m0 113 m0 73 m0 100 m0 103 m0 61 m0 61"/>
</svg>
