<svg xmlns="http://www.w3.org/2000/svg" xmlns:xlink="http://www.w3.org/1999/xlink" width="100" height="50"><defs><path id="a" d="m304 251 9 8c-9 20-14 28-27 36-13 7-29 9-39 9 0-17 6-33 15-44 10-10 26-17 32-19l3 5c-9 2-19 4-29 13-9 10-17 28-11 33 6 6 17 4 26-2 10-5 20-22 21-27l-7-6z" style="font-variation-settings:normal"/><path id="b" d="m268 259-2 4c3 4 8 15 9 21-7 0-14-2-19-4l-1 6c6 0 21 3 26 6l2-2h1c-5-8-11-22-14-32l-2 1z" style="font-variation-settings:normal"/><path id="c" d="M276 253c7 6 15 15 21 23l4-5-20-20-5 2z" style="font-variation-settings:normal"/></defs><path fill="#fff" d="M0 0h450v600H0z"/><path fill="#cf142b" d="M450 0h450v600H450z"/><g transform="translate(-14 -569) scale(.98729)"><path fill="#fff" fill-rule="evenodd" d="M97 600v44c-7 0-14 7-14 15H38v48h45c0 8 7 14 14 14v45h49v-45c7 0 13-7 13-14h45v-48h-44c0-8-8-14-14-14v-45h-1z" color="#000"/><path d="m125 692 1-1h1v1h1a5 5 0 0 0 1 0h1-5zm14 7zm-6-3v-1h-1v-1h-4a5 5 0 0 0-1 0h1l1-1h2v1h2v2z" paint-order="markers fill stroke" style="font-variation-settings:normal"/><path d="M128 695h2v-1h2l-1 1h-3zm2 1h2v-1h1v1h-2l-1 1v-1zm10-10a3 3 0 0 1-1 0 16 16 0 0 0 1 0zm1 2-1-1h1v1zm3 4h-1v-1a11 11 0 0 0-1 1 2 2 0 0 0-1 0v1h-1l-1 1a2 2 0 0 1-1-1l-1-1h-1 1l1 1a2 2 0 0 0 1 0 2 2 0 0 0 1 0h1v-1a2 2 0 0 1 1-1h1v1h1zm-7-4h1v1a3 3 0 0 0 1 0 1 1 0 0 0 1 0h-2l-1-1z" paint-order="markers fill stroke" style="font-variation-settings:normal"/><path d="M140 690a3 3 0 0 1-1 0h-1 1a2 2 0 0 0 0 1h1v1h1v-1c0 1 1 0 0 0v1a14 14 0 0 1-1 0v-1h-1 1v-1h1a2 2 0 0 0 1 0s1 0 0 0h-2zm0 0zm1-3v1-1z" paint-order="markers fill stroke" style="font-variation-settings:normal"/><path fill="none" d="M134 690c-1 0-2 1-1 2v2m-6 7v-1h-2l1-1-2-2-2-1m13 4s-1-3-4-1" style="font-variation-settings:normal"/><path d="m133 689-1 1v1-1l1-1c1 0 0 0 0 0zm-3-1h-1v1-1h1zm8 9h-2 2zm0 0v-1h-1a3 3 0 0 0-2-1l-1 1v-1h1a4 4 0 0 1 1 0h1v1a1 1 0 0 1 1 0v1z" paint-order="markers fill stroke" style="font-variation-settings:normal"/><path d="M135 690a4 4 0 0 0-1 0s0 1 0 0v1a3 3 0 0 0 0 1 20 20 0 0 0 0 1h1v1h1a12 12 0 0 1 0 1h1v1-1h-2v-1h-1v-4h1zm8 4h-1c1 0 1 0 0 0v1h-1 1s0-1 0 0v-1h1a1 1 0 0 1 0-1h1l-1 1zm-1 1v1a4 4 0 0 1-1 0h1v-1zm-4 5h2v-1 1h-2zm2-2v1h1v1-1h-1 1-1v-1z" paint-order="markers fill stroke" style="font-variation-settings:normal"/><path fill="none" d="m141 697-4 3m-9-5v1l1-1v2h2l1 1 1-2h1l-2-3-1-1c1-1-1-3-4-4" style="font-variation-settings:normal"/><path d="M139 698h-1v1a6 6 0 0 1-1 0v1h-2v-2h-3 3v1a7 7 0 0 1 1 1l1-1h1v-1a3 3 0 0 1 1 0zm-6-5h-1v-1h-1 2v1zm-3-1v-1a4 4 0 0 0 0-1h-1l-1-1h-2a12 12 0 0 1 0-1h-4a8 8 0 0 0 1 0h2a10 10 0 0 1 2 0v1h2v1h1v2z" paint-order="markers fill stroke" style="font-variation-settings:normal"/><path d="M123 690h5v1h2a3 3 0 0 1 0 1h-1 1v-1h-3v-1h-4zm3 2h4a1 1 0 0 1 0 1v-1h-4zm1 4h1v1h1v1h2v-1 1h-1a1 1 0 0 1-1 0l-1-1-1-1z" paint-order="markers fill stroke" style="font-variation-settings:normal"/><path d="M127 696v2h2-2v-2zm-1 2h1v1h1v2-1h-1v-2h-1zm2 2h1v1h2a13 13 0 0 0 1 0l1-1h2-1v1h-5a3 3 0 0 1-1-1zm-3 1h-4 2a5 5 0 0 1 0-1h2v1zm-5 0h1-1zm6 0h-1 1zm0 1h-2v1-1 1-1h2zm-4-6h-1v1h-1a2 2 0 0 1 1 0v-1h1zm-4 1s-1 0 0 0v1-2 1zm-3 3v1h-1v1s0-1 0 0v-1s1 0 0 0h1a1 1 0 0 0-1 0v-1h1zm8-11h2v1h2a15 15 0 0 1 1 0 6 6 0 0 1 1 0v1h1a2 2 0 0 1-1 0v-1h-4a13 13 0 0 0-1 0v-1h-1c-1 0 0 0 0 0zm7 4h-3v1h-1 1v-1h3zm6-1v1l1 1a5 5 0 0 1 0 1v-1a8 8 0 0 0-1 0v-2zm-5 2h-2v1h-1 1v-1h1a3 3 0 0 1 1 0zm1 1h-1v1a1 1 0 0 0-1 0h1v-1h1zm1 1h-1v2-2h1zm-13 6h1a1 1 0 0 1-1 0v1-1zm1 0v1h3-3v-1zm0-3h1-1zm-3-1v1h3-3v-1zm-2 0h1a4 4 0 0 0-1 0zm-3 2zm-1 1v1l1-1v1h-1v-1h1-1zm1 3v1h1-1l-1 1v-1h1v-1z" paint-order="markers fill stroke" style="font-variation-settings:normal"/><g fill="none" stroke-linecap="round" stroke-linejoin="round" stroke-width="0"><path d="M118 702a521 521 0 0 0-6 0 11740 11740 0 0 0 3 2v2h-3l-1 1 1-2h1l-2-1-1-2h-7a27 27 0 0 0 18 8 27 27 0 0 0 18-8 305 305 0 0 0-12 0h-1v1h2l-1 1-3-1h-4l-1-1h-1z" style="font-variation-settings:normal"/><path d="m135 684-3 4a31 31 0 0 0 2 0v-1s1 0 0 0v-2l1-1h2-2zm5 1-1 1-1 1 1 1h-1l-2-1 1 1h-1l2 2v2l-2-2h-2v-1h-2l-2-1-2-1c0 1 0 0 0 0l-1 1-4-1-2 1c-1 0-1 0 0 0l2 1h-1v1h1l1 1v1h2v2h2v1h-5l-5 1-3 1 1 1h2c0 1 1 2 3 1l-1 2-1 1 1 1h4l3 1 1-1h-2v-1h1s1 0 0 0l-1-1h8l1-1 1 1 1-1h1l1 1 2-1v-2l1-2 1-1 1-1c1 0 1 0 0 0h-1v-1l-2 2-3 2-1-2s1 0 0 0l-1-3 2 2h2l2-2 2 1 1-1h1l-2-1-2-2 1-1h-1l-1-1-1-1v-1zm-27 13v2l-3 1 2 1h1l2-2-1-1-1-1zm-3 4 1 2 2 1h-1l-1 2 1-1h3v-2l-5-2z" style="font-variation-settings:normal"/><path d="M104 699a9974 9974 0 0 0 22 8l-23-7 1-1z" style="font-variation-settings:normal"/></g><path d="M125 665h1v3a7 7 0 0 0 1 0 10 10 0 0 0 0 1h1-1v-1a8 8 0 0 1-1-1v-1 1h1v1h1a3 3 0 0 0 1-1l1-1h1v1h2-2v-1h-1l-1 1h-1a5 5 0 0 1-1 0h-1v-2h-1zm9 1v1-1zm0 1h-1 1zm-6 7h2v1h2v2h1s0 1 0 0h-1v-2h-3v-1h-1zm5 6h-1v-1h-2 1a4 4 0 0 1 1 1h1zm1 1h-1 1zm-1-3a6 6 0 0 0 1 1v1c0 1 0 0 0 0a2 2 0 0 0 1-1v-1 1h-1v1-1a5 5 0 0 1-1-1zm2 0v1-1zm3-1h1a9 9 0 0 1 1 0h1a63 63 0 0 0 1 1l1 1h-1v-1h-1v-1h-4 1zm4 2h1l1 1a1 1 0 0 1 0 1v-2h-2zm2 2zm-21-5h2v1h2l1 1h-1v-1h-3l-1-1zm5 6 1 1h5-2l-1 1h-1l-1-1a6 6 0 0 1-1-1zm7 1h3-3c-1 0 0 0 0 0zm4 0v1a4 4 0 0 0 1 0l1 1v1c1 0 0 0 0 0v-1h-1a7 7 0 0 0-1-1v-1c-1 0 0 0 0 0zm4 4v1h1-1l-1-1h1zm-1-1 1 1h-1v-1zm-24 0s-1 0 0 0a3 3 0 0 1-1 0v1a8 8 0 0 1-1 1l-1 1v1h-1v1l1-1v-1l1-1 1-1 1-1h2-2zm-1 1-1 1 1-1zm-3 3zm0 1z" paint-order="markers fill stroke" style="font-variation-settings:normal"/><path d="M119 686v1h-2 2v-1zm-4 6v1h1a2 2 0 0 0 1 0 6 6 0 0 1 1 0 4 4 0 0 1 1 0h3l1 1h-2l-1-1h-1a4 4 0 0 0-1 0 4 4 0 0 0-1 0v1h-1l-1-1v-1z" paint-order="markers fill stroke" style="font-variation-settings:normal"/><path d="M122 693h1v1h-1v-1zm-7-3h1a5 5 0 0 0 1 0h1-3zm-1-1v1h-1l-1 1a3 3 0 0 0-1 0v1-1 1-1h1l1-1h1v-1zm-7-6v2h1v1h2v1h2a8 8 0 0 0 1 0h-2a4 4 0 0 1-2 0l-1-1v-1a5 5 0 0 1-1-1v-1z" paint-order="markers fill stroke" style="font-variation-settings:normal"/><path d="m110 687 1 1h4-2v1l-1-1h-1l-1-1zm5 13h1v1-1 1-1h-1zm1 1zm-3-23h1v1h1v1-1h-1v-1h-1zm4 8v-1h-1a7 7 0 0 0-1-1 9 9 0 0 1 0-1v-2 3h1l1 1a11 11 0 0 1 1 1h-1zm-7 8a4 4 0 0 1 1 1h1v2h1v1h1a1 1 0 0 1 0 1v1-2h-1v-1h-1v-1l-1-1h-1v-1zm-8-11h-1a5 5 0 0 0-1 0h-1v2h1v1h1-1v-1a38 38 0 0 1-1 0v-2h1a2 2 0 0 1 1 0h2-1zm0 4v1a11 11 0 0 1 1 1v2h-1a3 3 0 0 0 0-2v-2zm-1 5h-1v1a7 7 0 0 1 1 1v1h-1c1 0 0 0 0 0 1 0 0 1 0 0h1v-1l-1-1v-1h1c-1 0 0 0 0 0zm-1-3v1a3 3 0 0 1 0 1v1-3zm30-25v1h1v1h2-1a3 3 0 0 1-1-1h-1v-1zm-2 0h-1c1-1 0 0 0 0h1c1 0 1 0 0 0h1-2v-1h1a1 1 0 0 1 0 1zm-1 1h1a5 5 0 0 1 1 1h1-1l-1-1h-1zm-2 0a2 2 0 0 0-1 1v1a7 7 0 0 0-1 1v2-2a6 6 0 0 1 1-1v-1l1-1zm-2 5zm0 1a15 15 0 0 0 0 1 21 21 0 0 1 0-1zm0 2v1-1zm22 7 1 1v1-1l-1-1zm-13 1a5 5 0 0 1-1 1l1-1zm12 6a3 3 0 0 0 1 1 4 4 0 0 1-1-1h-1 1zm-29-7h8v1h1-1v-1h-1a17 17 0 0 1-3 0h-4s0-1 0 0zm11 5h-1a40 40 0 0 1-2 0 10 10 0 0 1-3 1 14 14 0 0 1-1-1h-1 1a13 13 0 0 0 3 0h3a25 25 0 0 1 1 0z" paint-order="markers fill stroke" style="font-variation-settings:normal"/><path d="M116 684a4 4 0 0 1 1 0l1 1-1-1a4 4 0 0 0-1 0zm9 9v1l1 1h-1 1l-1-1v-1zm-8 7v1h2l-1 1h-1v-1h1v1l1-1h-2v-1zm-7-8v1a60 60 0 0 0-1 1h1-1v-1h1v-1zm-3-10a2 2 0 0 0-1 1l1 1v1-1h-1v-1a5 5 0 0 1 0-1h1zm-8 1a6 6 0 0 0-1 1 3 3 0 0 0 1 2v1c1 0 0 0 0 0l-1-1a4 4 0 0 1 1-3zm3 9v2h-1 1v-2z" paint-order="markers fill stroke" style="font-variation-settings:normal"/><path fill-rule="evenodd" d="m124 663 1 1m-2 0 1 1m-2 0 1 1m-1-1 1 1m-1 0 1 1m-2-1 2 1m-2 0h1m-1 0 1 1m-1 0h1m-2 1h2m-2 0h2m-2 1h2m-1 1h1m-1 1 1-1m-1 2v-1m0 0h1m-1 1h1m-1 1h1m-1 1 1-1m-1 1h2" style="font-variation-settings:normal"/><g fill="none" stroke-linecap="round" stroke-linejoin="round"><path d="M131 668h2c1 0 1 0 0 0v-1h1v-1h-1l-3-2-2-1h-1l-1-2-1 2-2 3-1 4m0 1v1m6-2v-2l2-1 1 1m-9 5 1 1-1 1-2 1 3 1h2v1l2 3a43 43 0 0 1 2 4l1-1 5-1h2l1 1 2 2h1l1 1v1l3 1h1l-3-3-4-4-2-1h-3v-1l2-2 2-1 4 2h1v2h2l1 1v-2l-2-2-5-3h-2l-4 2-1-2-3-5m-15 8h-1l-4 1 4 3v2l-1-1-4-3-2 2h-4c-1-1-4 0-4 3-1 1 1 3 1 3v5l1 2 1 1 1-2v-3c1-1 2-1 1-2l-3-4 1-2 2 1h3l3 3 2 2v1l-2 3v1l2 2 3 3 1 1 1 1-1 1h4l-1-2-2-2-4-3v-3l2-1v2l1 1h8v1h3l-1-2h-2l-2-1h-4l1-1 2-5h5l2-1-2-2-2-3-3-1h-4l-2-1z" style="font-variation-settings:normal"/><path d="m122 670 1-4 2-3h-2l1 1h-1c0 1 0 0 0 0l-1 1h1-1v1h-1v1s-1 0 0 0v1l-1 1v1m1 1v1m1 0v-1m-2 1h1-1zm1 0v1c-1 0 0 0 0 0s0 1 0 0v3l1-1 1-1-1-1" style="font-variation-settings:normal"/><path d="m131 667-1 1-2 2-3 2h-4l1 1 3-1 5-2 2-3m-10 3h-1l-1 1h3v-1h-1zm0 0h1-2c0 1 0 0 0 0h1z" style="font-variation-settings:normal"/></g><path d="m100 670 1 1h2v-1h3l1-1h1v1h-4v1h-1a4 4 0 0 1-1 0h-2a15 15 0 0 0 0-1zm10-6h1c1 0 0 0 0 0h-1zm2 0h2-2c-1 0 0 0 0 0zm-7 1h1s0 1 0 0h-1v1h-1l1-1zm-3 2 1 1h2l1-1h4-2a15 15 0 0 0-2 1h-4v-1z" paint-order="markers fill stroke" style="font-variation-settings:normal"/><path d="M105 665a1 1 0 0 1 1 0h1v1h4v-1h1v1h-4v1-1h-1v-1h-2zm-3 4v1h-1 1-1a3 3 0 0 0 1-1zm-5 6h2l1 1 1-1a27 27 0 0 1 1-1 9 9 0 0 0 1-1l1-1h2v-1c1 0 0 0 0 0v1h-2v1h-1v1a13 13 0 0 1-1 1l-1 1h-2v-1h-2zm25-11zm-2 1a1 1 0 0 0-1 1v1-1a3 3 0 0 1 1-1zm-7 3h-1v-1h2a6 6 0 0 0 1-1h-1v1h-2v1-1 1h1zm4-4v2a5 5 0 0 0 1 1v1a4 4 0 0 0 1 0v1-1h-2v-1a4 4 0 0 1 0-1v-2zm-4 4v1h1v1l1 1h1-1l-1-1-1-1v-1zm3 3a16 16 0 0 0 2 0h-1a5 5 0 0 1-1 0zm3-1h-1v1-1h1zm-5 2h2v1l-2-1zm3 1h1-1zm2 3a2 2 0 0 1-1 0v-1h-1 1v1h1v-1 1zm-4-1a41 41 0 0 1 1 0h-1zm-8 0v1-1zm-3 1h1-1zm1 0a5 5 0 0 1 0 1h-1l1-1z" paint-order="markers fill stroke" style="font-variation-settings:normal"/><path d="M105 677v-1h1-1v1zm5-7a2 2 0 0 1 0-1v1zm1 12h1v1-1h-1zm-4-5v1h1-1v-1zm1 2h1l1 1h-1v-1h-1zm13-8h-1 1zm0 0h-1 1zm0 1h-1 1zm-6 5a2 2 0 0 1 1 0v1h2v1h4a6 6 0 0 1 1 0h-6v-1h-2v-1z" paint-order="markers fill stroke" style="font-variation-settings:normal"/><path d="M89 86h1v1h1l-1-1h-1zm2 1v1-1z" paint-order="markers fill stroke" style="font-variation-settings:normal" transform="translate(36 598)"/><path d="M113 662h1a2 2 0 0 1-1 0s0-1 0 0zm2 0h1-1zm4-1v1h-1l1-1zm-1 1v-1 1z" paint-order="markers fill stroke" style="font-variation-settings:normal"/><path fill-rule="evenodd" d="m125 660-1 1m0-1-1 1m1-1-1 1m1-2-1 1m0-1v1m-1-1v1m0-1v1m-1-1v1m0-1v1m-1-1v1m0-1v1m-1 0" style="font-variation-settings:normal"/><path d="M120 662h-1v1h-1 2c1 0 0 0 0 0h1c0 1 0 0 0 0h-1v-1zm4 1-1-1h-1 2v1zm-3 1v1h-1 1v-1zm1 1zm-3-1v1l-1 1v-1h1v-1s0-1 0 0zm-4 3a10 10 0 0 0 1 1v1h1-1v-1h-1v-1z" paint-order="markers fill stroke" style="font-variation-settings:normal"/><path d="m128 682-3 1s-1 0 0 0l3-1zm0 1zm1 2h-2 1l1 2-1-2h1z" style="font-variation-settings:normal"/><path d="M129 685v1a2 2 0 0 1 1 0v1a1 1 0 0 1-1-1v-1zm3 3h2-2zm-12-21v2-1a10 10 0 0 0 0-1zm0 2v1a2 2 0 0 1 0-1zm4 9h1a3 3 0 0 1 0 1v1-2h-1zm-2 8v1-1zm1-24v-1h-1v-1h-1l-1 1a2 2 0 0 1 0-1h2v1h1v1z" paint-order="markers fill stroke" style="font-variation-settings:normal"/><g fill="none" stroke-linecap="round" stroke-linejoin="round"><path d="m125 661-1 1-1-1-1-1-3 1v1l-1 1-2-1h-4v-1h7l2-2 3 1 1 1z" style="font-variation-settings:normal"/><path d="m122 660-3 1v1l-1 1h1l1 1 1 1 1-1 1-1h1v-1l-1-1-1-1z" style="font-variation-settings:normal"/><path d="m123 663-1 1-1 1-1-1-1-1-1 1h-1l-1-1-2 1-2 2-2 2-2 2-3 5-1 1v1h1l2-1 1-2 2-4 1-1 2-1c-1 2 0 3 1 4v6l2 1h4l3 1 2 3 2 2 1 2s0 1 0 0l2 1 2 1h1l1-1h-2l-2-2-1-2-2-3-2-3v-1h-2l-3-1-1-1v-5h1v-1l-1-2 1-2h1v1h1v-1l1-1s0 1 0 0v-1z" style="font-variation-settings:normal"/><path d="m111 663-1 1h-5l-1 1v1l-1 1-2 1v1l-2 1v3l-2 2v1l4 2 1-1h3-1a1 1 0 0 1 0-1v-1h-1l1-1 1 1a10 10 0 0 1 1-2 37 37 0 0 1 2-3 16 16 0 0 1 2-3 9 9 0 0 1 2-1l2-2h1-1l-3-1zm2 5-2 1-1 1v1h-1v1l-1 1 2-1 3-2v-1a4 4 0 0 1 0-1zm8 3v1h-1v-1h1z" style="font-variation-settings:normal"/><g stroke-width="0" style="font-variation-settings:normal"><path d="m104 674-1 1h2l-1-1zm3 2-2 1v1l2-2c1 0 0 0 0 0z" style="font-variation-settings:normal"/><path d="m106 677 6 6 1 1v-2l-6-5z" style="font-variation-settings:normal"/></g><path d="M123 686h-2v1h2v-1zm-3-16v-1l1-1v-1l-1-1-1 1 1 2v2" style="font-variation-settings:normal"/></g><circle cx="121" cy="683" r="27" fill="none" stroke="#000" stroke-linecap="round" stroke-linejoin="round" style="font-variation-settings:normal"/><circle cx="137" cy="709" r="1"/><circle cx="105" cy="709" r="1"/><path d="m404 532 2 1 2 1 1 2 1 2-1 2-1 1-2 1-2 1-2-1-1-1-1-1-1-2 1-2 1-2 1-1 2-1z" style="font-variation-settings:normal" transform="translate(29 591) scale(.22908)"/><path d="m400 524-4 2c-2 1-4 3-3 5 1 3 3 1 4 4-2 2-3-1-6 1-2 1-1 3 0 6s1 5 4 5 2-3 5-3c1 3-2 3-1 6 1 2 3 2 5 2 3 0 5 0 6-2 1-3-2-3-1-6 3 0 2 3 5 3s3-2 4-5 2-4 0-6c-3-2-4 1-6-1 1-3 3-1 4-4 1-2-1-4-3-5-2-2-4-3-6-1-2 1 0 3-2 4h-1c-2-1 0-3-2-4l-2-1zm1 3 1 1c0 1 0 3 2 4h1c2-1 1-3 2-4 1-2 2-1 4 0 2 2 3 3 2 4s-3 1-3 4c2 2 3 1 5 1v4c0 3-1 4-3 3l-4-2v1c-2 2 0 3 0 4 1 2-1 2-4 2-2 0-4 0-3-2 0-1 2-2 0-4v-1c-3 0-3 1-4 2-2 1-3 0-3-3v-4c2 0 3 1 5-1 0-3-2-3-3-4s0-2 2-4l3-1z" style="font-variation-settings:normal" transform="translate(29 591) scale(.22908)"/><path fill-rule="evenodd" d="m404 519-1 1v9h2a2 2 0 0 0 1-1v-8l-1-1h-1zm-16 12-1 1v1l8 3a2 2 0 0 0 1 0 2 2 0 0 0 0-1h1v-1h-1v-1l-8-2zm33 0-8 2v1h-1a2 2 0 0 0 0 1h1v1h1l8-3v-1l-1-1zm-15 0-1 1h-1l-1-1v1h3zm-7 3v2l-1 1h1l1-1v-1zm11 0-1 1v1l1 1h1l-1-1v-2zm-10 7v1h1v1l1 1 1-2h-1l-1-1h-1zm9 0h-1l-2 1 1 2 1-1v-1h1zm1 3h-1a4 4 0 0 0 0 1v1l5 7h1l1-2-5-6v-1h-1zm-11 0h-1v1l-5 6v2h2l5-7a2 2 0 0 0 0-1v-1h-1z" color="#000" style="font-variation-settings:normal" transform="translate(29 591) scale(.22908)"/><circle cx="121" cy="683" r="36" fill="none" stroke="#000" stroke-linecap="round" stroke-linejoin="round" style="font-variation-settings:normal"/><g fill="none" stroke="#000" stroke-linecap="round" stroke-linejoin="round" stroke-width="2" style="font-variation-settings:normal" transform="rotate(90 -189 402) scale(.22908)"><use xlink:href="#a" style="font-variation-settings:normal"/><use xlink:href="#b" style="font-variation-settings:normal"/><use xlink:href="#c" style="font-variation-settings:normal"/></g><g fill="none" stroke="#000" stroke-linecap="round" stroke-linejoin="round" stroke-width="2" style="font-variation-settings:normal" transform="rotate(180 107 387) scale(.22908)"><use xlink:href="#a" style="font-variation-settings:normal"/><use xlink:href="#b" style="font-variation-settings:normal"/><use xlink:href="#c" style="font-variation-settings:normal"/></g><g fill="none" stroke="#000" stroke-linecap="round" stroke-linejoin="round" stroke-width="2" style="font-variation-settings:normal" transform="rotate(-90 403 373) scale(.22908)"><use xlink:href="#a" style="font-variation-settings:normal"/><use xlink:href="#b" style="font-variation-settings:normal"/><use xlink:href="#c" style="font-variation-settings:normal"/></g><g fill="none" stroke="#000" stroke-linecap="round" stroke-linejoin="round" stroke-width="2" style="font-variation-settings:normal" transform="translate(29 591) scale(.22908)"><use xlink:href="#a" style="font-variation-settings:normal"/><use xlink:href="#b" style="font-variation-settings:normal"/><use xlink:href="#c" style="font-variation-settings:normal"/></g><path d="m92 702-2-3 1-1 1 3 2-2-1-1 1-1 1 2 3-2v1l-6 4zm-2-16c-2 0-3 2-3 4 1 2 2 3 4 3 2-1 3-2 3-4 0-3-2-4-4-3zm0 1c2 0 3 0 4 2 0 1-1 2-3 2-1 1-3 0-3-1l2-3zm5-13h-1c0 2-2 3-3 3l-2-1-2 1v3l7 1v-1l-3-1 2-2 2-2v-1zm-5 5h-2l1-2c1 0 2 1 1 2zm8-20-3 3 1 2 3 1 1-2-2-2 2-1 2 2-3 3h-4v-5l3-1zm8-7v8l1-1v-2l2-1 1 1 2-1-2-1zm0 2 3 1-3 1zm12-5v5l4-1v2h-5l-1-6zm26 18-1-1 6-4 1 1-2 6 4-2 1 2c-1-1-4 1-6 2l1-7-4 3zm10 10v-2l-1-1h2l1 6h-2v-2l-5 1v-2h5zm-8 19-1 2c1-1 2 0 2 1l2 5 1-3-2-2 4-1 1-2-5 2-2-2zm-4-41-5 2-2 1 1 1 2-1 2 2-1 1 2 2v-3zm-1 1-1 3-2-1zm-12-6-1 5h3v1l-5-1c1-2 2-4 1-6zm19 41 4-3 1 2 2-1 1-4h-7v1h3v1l-2 2-2 2zm4-5 3 1-2 2-1-3z"/><path fill="none" stroke="#cf142b" stroke-width="3" d="M204 659h-44c0-8-8-14-14-14v-45H97v44c-7 0-14 7-14 15H38v48h45c0 8 7 14 14 14v45h49v-45c7 0 13-7 13-14h45z"/><path fill-rule="evenodd" d="M102 604v49-48h39v48-49zm-59 59v40h48v-1H43v-38h48v-1zm108 0v1h48v38h-48v1h49v-40zm-49 50v48h39v-48 48h-39v-48z" color="#000"/><path fill-rule="evenodd" d="M99 602v48-48h44v45h1v-45zm44 48v5h1v-4zm-44 3v2zm-59 7v45h48-48v-44h45v-1zm50 0-2 1h5v-1zm59 0v1h2v-1zm6 0-1 1h48v44h-45 45v-45zm-64 45h2zm58 0h5zm-5 6h-1v2l1-1zm-45 0v5-5zm44 5v48H99v-45 45h45v-48z" color="#000" style="font-variation-settings:normal"/></g><path id="path-b7301" d="m m0 82 m0 65 m0 65 m0 65 m0 65 m0 65 m0 65 m0 65 m0 65 m0 65 m0 65 m0 65 m0 65 m0 65 m0 65 m0 65 m0 65 m0 65 m0 65 m0 65 m0 81 m0 122 m0 99 m0 114 m0 71 m0 115 m0 82 m0 122 m0 57 m0 87 m0 79 m0 77 m0 119 m0 70 m0 103 m0 70 m0 70 m0 85 m0 90 m0 100 m0 47 m0 79 m0 104 m0 48 m0 88 m0 113 m0 67 m0 53 m0 57 m0 79 m0 82 m0 117 m0 121 m0 76 m0 120 m0 122 m0 50 m0 103 m0 69 m0 104 m0 82 m0 76 m0 70 m0 103 m0 79 m0 99 m0 67 m0 118 m0 79 m0 51 m0 105 m0 56 m0 103 m0 104 m0 102 m0 110 m0 74 m0 47 m0 57 m0 55 m0 121 m0 52 m0 75 m0 80 m0 73 m0 119 m0 61 m0 61"/>
</svg>